%TF.GenerationSoftware,KiCad,Pcbnew,9.0.2*%
%TF.CreationDate,2025-10-05T19:26:56-07:00*%
%TF.ProjectId,3pdt-pwr-breakout-neg-V2,33706474-2d70-4777-922d-627265616b6f,rev?*%
%TF.SameCoordinates,PX2d4cae0PY8d9ee20*%
%TF.FileFunction,Plated,1,4,PTH,Mixed*%
%TF.FilePolarity,Positive*%
%FSLAX46Y46*%
G04 Gerber Fmt 4.6, Leading zero omitted, Abs format (unit mm)*
G04 Created by KiCad (PCBNEW 9.0.2) date 2025-10-05 19:26:56*
%MOMM*%
%LPD*%
G01*
G04 APERTURE LIST*
%TA.AperFunction,ViaDrill*%
%ADD10C,0.300000*%
%TD*%
%TA.AperFunction,ComponentDrill*%
%ADD11C,0.800000*%
%TD*%
%TA.AperFunction,ComponentDrill*%
%ADD12C,0.900000*%
%TD*%
%TA.AperFunction,ComponentDrill*%
%ADD13C,0.950000*%
%TD*%
G04 aperture for slot hole*
%TA.AperFunction,ComponentDrill*%
%ADD14C,1.000000*%
%TD*%
G04 APERTURE END LIST*
D10*
X2500000Y18250000D03*
X2500000Y16500000D03*
X3000000Y2500000D03*
X3000000Y750000D03*
X3250000Y13500000D03*
X3750000Y5250000D03*
X4500000Y3000000D03*
X4800000Y9700000D03*
X5600000Y5500000D03*
X6400000Y7500000D03*
X6500000Y11750000D03*
X6500000Y3250000D03*
X6553217Y4825000D03*
X7000000Y14250000D03*
X8200000Y9300000D03*
X8250000Y18000000D03*
X9000000Y3000000D03*
X9250000Y5750000D03*
X9600000Y800000D03*
X10250000Y18000000D03*
X10250000Y16000000D03*
X10250000Y14000000D03*
X10250000Y12000000D03*
X10250000Y10000000D03*
X11500000Y6250000D03*
X11500000Y3000000D03*
X12000000Y15000000D03*
X12000000Y11000000D03*
X12000000Y9000000D03*
X12250000Y18000000D03*
X12750000Y6250000D03*
X13750000Y3000000D03*
X14250000Y18000000D03*
X16250000Y18000000D03*
X16250000Y12000000D03*
X16750000Y12750000D03*
X17500000Y13750000D03*
X17500000Y11000000D03*
X17500000Y9000000D03*
X18250000Y18000000D03*
X18500000Y12000000D03*
X18800000Y2900000D03*
X20000000Y6500000D03*
X20250000Y18000000D03*
X21800000Y10300000D03*
X22000000Y14750000D03*
X22250000Y18000000D03*
X22500000Y9000000D03*
X22500000Y4250000D03*
X22500000Y2900000D03*
X24250000Y18000000D03*
X24250000Y15250000D03*
X25200000Y2400000D03*
X25250000Y11500000D03*
X25250000Y6750000D03*
X26250000Y18000000D03*
X26250000Y16000000D03*
X27750000Y18000000D03*
X28400000Y2400000D03*
X29200000Y12400000D03*
X29200000Y10200000D03*
X29500000Y18000000D03*
X29500000Y16250000D03*
X29500000Y14000000D03*
X29500000Y8000000D03*
X30225000Y10400000D03*
X31000000Y7300000D03*
X31085000Y17000000D03*
X31250000Y750000D03*
X32061283Y8059236D03*
X32500000Y17500000D03*
X33250000Y750000D03*
X33900000Y8800000D03*
X34000000Y12250000D03*
X34250000Y15750000D03*
X35012749Y7500000D03*
X35200000Y16200000D03*
X35250000Y750000D03*
X35750000Y12250000D03*
X37250000Y12250000D03*
X37250000Y750000D03*
X39000000Y1000000D03*
X39250000Y18000000D03*
X39250000Y17000000D03*
X39250000Y12250000D03*
X39250000Y10250000D03*
X39250000Y8250000D03*
X39250000Y6250000D03*
X39250000Y2750000D03*
D11*
%TO.C,R1*%
X31000000Y5000000D03*
X38500000Y5000000D03*
D12*
%TO.C,RV1*%
X5500000Y4000000D03*
X8040000Y6540000D03*
X8040000Y1460000D03*
%TO.C,D2*%
X37000000Y10525000D03*
X37000000Y7985000D03*
D13*
%TO.C,WP2*%
X1500000Y20000000D03*
%TO.C,WP11*%
X1500000Y12500000D03*
%TO.C,WP12*%
X1500000Y10000000D03*
%TO.C,WP14*%
X1500000Y6500000D03*
%TO.C,WP13*%
X1500000Y4000000D03*
%TO.C,WP15*%
X1500000Y1500000D03*
%TO.C,WP1*%
X4000000Y20000000D03*
%TO.C,WP6*%
X7500000Y20000000D03*
%TO.C,WP5*%
X10000000Y20000000D03*
%TO.C,WP8*%
X16250000Y20000000D03*
%TO.C,WP7*%
X18750000Y20000000D03*
%TO.C,WP10*%
X21250000Y20000000D03*
%TO.C,WP9*%
X23750000Y20000000D03*
%TO.C,WP4*%
X36000000Y20000000D03*
%TO.C,WP3*%
X38500000Y20000000D03*
D14*
%TO.C,SW1*%
X15275000Y13700000D02*
X14025000Y13700000D01*
X15275000Y9000000D02*
X14025000Y9000000D01*
X15275000Y4300000D02*
X14025000Y4300000D01*
X20575000Y13700000D02*
X19325000Y13700000D01*
X20575000Y9000000D02*
X19325000Y9000000D01*
X20575000Y4300000D02*
X19325000Y4300000D01*
X25875000Y13700000D02*
X24625000Y13700000D01*
X25875000Y9000000D02*
X24625000Y9000000D01*
X25875000Y4300000D02*
X24625000Y4300000D01*
M02*
