%TF.GenerationSoftware,KiCad,Pcbnew,9.0.2*%
%TF.CreationDate,2025-07-23T23:09:01-07:00*%
%TF.ProjectId,3pdt-pwr-breakout-neg-V2,33706474-2d70-4777-922d-627265616b6f,rev?*%
%TF.SameCoordinates,Original*%
%TF.FileFunction,Paste,Bot*%
%TF.FilePolarity,Positive*%
%FSLAX46Y46*%
G04 Gerber Fmt 4.6, Leading zero omitted, Abs format (unit mm)*
G04 Created by KiCad (PCBNEW 9.0.2) date 2025-07-23 23:09:01*
%MOMM*%
%LPD*%
G01*
G04 APERTURE LIST*
G04 Aperture macros list*
%AMRoundRect*
0 Rectangle with rounded corners*
0 $1 Rounding radius*
0 $2 $3 $4 $5 $6 $7 $8 $9 X,Y pos of 4 corners*
0 Add a 4 corners polygon primitive as box body*
4,1,4,$2,$3,$4,$5,$6,$7,$8,$9,$2,$3,0*
0 Add four circle primitives for the rounded corners*
1,1,$1+$1,$2,$3*
1,1,$1+$1,$4,$5*
1,1,$1+$1,$6,$7*
1,1,$1+$1,$8,$9*
0 Add four rect primitives between the rounded corners*
20,1,$1+$1,$2,$3,$4,$5,0*
20,1,$1+$1,$4,$5,$6,$7,0*
20,1,$1+$1,$6,$7,$8,$9,0*
20,1,$1+$1,$8,$9,$2,$3,0*%
G04 Aperture macros list end*
%ADD10RoundRect,0.160000X-0.245000X-0.160000X0.245000X-0.160000X0.245000X0.160000X-0.245000X0.160000X0*%
%ADD11RoundRect,0.093750X-0.093750X-0.106250X0.093750X-0.106250X0.093750X0.106250X-0.093750X0.106250X0*%
%ADD12RoundRect,0.135000X-0.135000X-0.185000X0.135000X-0.185000X0.135000X0.185000X-0.135000X0.185000X0*%
%ADD13RoundRect,0.150000X0.512500X0.150000X-0.512500X0.150000X-0.512500X-0.150000X0.512500X-0.150000X0*%
%ADD14RoundRect,0.250000X-0.300000X-0.300000X0.300000X-0.300000X0.300000X0.300000X-0.300000X0.300000X0*%
%ADD15RoundRect,0.225000X-0.250000X0.225000X-0.250000X-0.225000X0.250000X-0.225000X0.250000X0.225000X0*%
%ADD16RoundRect,0.150000X-0.150000X0.587500X-0.150000X-0.587500X0.150000X-0.587500X0.150000X0.587500X0*%
%ADD17RoundRect,0.135000X0.185000X-0.135000X0.185000X0.135000X-0.185000X0.135000X-0.185000X-0.135000X0*%
%ADD18RoundRect,0.250000X-0.650000X0.325000X-0.650000X-0.325000X0.650000X-0.325000X0.650000X0.325000X0*%
%ADD19RoundRect,0.135000X-0.185000X0.135000X-0.185000X-0.135000X0.185000X-0.135000X0.185000X0.135000X0*%
%ADD20RoundRect,0.200000X0.200000X0.275000X-0.200000X0.275000X-0.200000X-0.275000X0.200000X-0.275000X0*%
%ADD21RoundRect,0.200000X-0.275000X0.200000X-0.275000X-0.200000X0.275000X-0.200000X0.275000X0.200000X0*%
%ADD22RoundRect,0.225000X0.250000X-0.225000X0.250000X0.225000X-0.250000X0.225000X-0.250000X-0.225000X0*%
%ADD23RoundRect,0.250000X-0.250000X-0.475000X0.250000X-0.475000X0.250000X0.475000X-0.250000X0.475000X0*%
%ADD24RoundRect,0.250000X0.325000X0.650000X-0.325000X0.650000X-0.325000X-0.650000X0.325000X-0.650000X0*%
%ADD25RoundRect,0.250000X0.325000X1.100000X-0.325000X1.100000X-0.325000X-1.100000X0.325000X-1.100000X0*%
%ADD26RoundRect,0.150000X0.150000X-0.512500X0.150000X0.512500X-0.150000X0.512500X-0.150000X-0.512500X0*%
%ADD27RoundRect,0.225000X-0.225000X-0.250000X0.225000X-0.250000X0.225000X0.250000X-0.225000X0.250000X0*%
%ADD28RoundRect,0.140000X-0.140000X-0.170000X0.140000X-0.170000X0.140000X0.170000X-0.140000X0.170000X0*%
%TA.AperFunction,Profile*%
%ADD29C,0.100000*%
%TD*%
G04 APERTURE END LIST*
D10*
%TO.C,U1*%
X82750000Y-61400000D03*
X82750000Y-60600000D03*
D11*
X81862500Y-61650000D03*
X81862500Y-61000000D03*
X81862500Y-60350000D03*
X83637500Y-60350000D03*
X83637500Y-61000000D03*
X83637500Y-61650000D03*
%TD*%
D12*
%TO.C,R9*%
X55350000Y-67296750D03*
X56370000Y-67296750D03*
%TD*%
D13*
%TO.C,U3*%
X51000000Y-64918250D03*
X51000000Y-65868250D03*
X51000000Y-66818250D03*
X48725000Y-66818250D03*
X48725000Y-65868250D03*
X48725000Y-64918250D03*
%TD*%
D14*
%TO.C,D1*%
X83450000Y-68250000D03*
X86250000Y-68250000D03*
%TD*%
D15*
%TO.C,C10*%
X80500000Y-60200000D03*
X80500000Y-61750000D03*
%TD*%
D16*
%TO.C,Q1*%
X79750000Y-66500000D03*
X81650000Y-66500000D03*
X80700000Y-68375000D03*
%TD*%
D17*
%TO.C,R5*%
X78500000Y-55770000D03*
X78500000Y-54750000D03*
%TD*%
D15*
%TO.C,C5*%
X52820501Y-60585000D03*
X52820501Y-62135000D03*
%TD*%
D18*
%TO.C,C8*%
X53293250Y-65215000D03*
X53293250Y-68165000D03*
%TD*%
D19*
%TO.C,R3*%
X78400000Y-67000000D03*
X78400000Y-68020000D03*
%TD*%
D20*
%TO.C,R2*%
X53575000Y-55950000D03*
X51925000Y-55950000D03*
%TD*%
D21*
%TO.C,R6*%
X80020000Y-54175000D03*
X80020000Y-55825000D03*
%TD*%
D19*
%TO.C,R4*%
X83750000Y-54000000D03*
X83750000Y-55020000D03*
%TD*%
D22*
%TO.C,C6*%
X56500000Y-65775000D03*
X56500000Y-64225000D03*
%TD*%
D23*
%TO.C,C1*%
X84250000Y-66000000D03*
X86150000Y-66000000D03*
%TD*%
D20*
%TO.C,R7*%
X83575000Y-57500000D03*
X81925000Y-57500000D03*
%TD*%
D24*
%TO.C,C2*%
X82500000Y-64000000D03*
X79550000Y-64000000D03*
%TD*%
D25*
%TO.C,C9*%
X56415000Y-70656750D03*
X53465000Y-70656750D03*
%TD*%
D26*
%TO.C,U2*%
X56394001Y-62487500D03*
X55444001Y-62487500D03*
X54494001Y-62487500D03*
X54494001Y-60212500D03*
X55444001Y-60212500D03*
X56394001Y-60212500D03*
%TD*%
D27*
%TO.C,C4*%
X53687251Y-58500000D03*
X55237251Y-58500000D03*
%TD*%
D20*
%TO.C,R8*%
X83650000Y-52500000D03*
X82000000Y-52500000D03*
%TD*%
D28*
%TO.C,C3*%
X78250000Y-59750000D03*
X79210000Y-59750000D03*
%TD*%
D27*
%TO.C,C7*%
X49637500Y-68396750D03*
X51187500Y-68396750D03*
%TD*%
D29*
X87500000Y-71500000D02*
G75*
G02*
X86500000Y-72500000I-1000000J0D01*
G01*
X86500000Y-72500000D02*
X48500000Y-72500000D01*
X48500000Y-72500000D02*
G75*
G02*
X47500000Y-71500000I0J1000000D01*
G01*
X48500000Y-51000000D02*
X86500000Y-51000000D01*
X47500000Y-71500000D02*
X47500000Y-52000000D01*
X87500000Y-52000000D02*
X87500000Y-71500000D01*
X86500000Y-51000000D02*
G75*
G02*
X87500000Y-52000000I0J-1000000D01*
G01*
X47500000Y-52000000D02*
G75*
G02*
X48500000Y-51000000I1000000J0D01*
G01*
M02*
