%TF.GenerationSoftware,KiCad,Pcbnew,9.0.2*%
%TF.CreationDate,2025-10-05T19:26:47-07:00*%
%TF.ProjectId,3pdt-pwr-breakout-neg-V2,33706474-2d70-4777-922d-627265616b6f,rev?*%
%TF.SameCoordinates,PX2d4cae0PY8d9ee20*%
%TF.FileFunction,Copper,L2,Inr*%
%TF.FilePolarity,Positive*%
%FSLAX46Y46*%
G04 Gerber Fmt 4.6, Leading zero omitted, Abs format (unit mm)*
G04 Created by KiCad (PCBNEW 9.0.2) date 2025-10-05 19:26:47*
%MOMM*%
%LPD*%
G01*
G04 APERTURE LIST*
G04 Aperture macros list*
%AMRoundRect*
0 Rectangle with rounded corners*
0 $1 Rounding radius*
0 $2 $3 $4 $5 $6 $7 $8 $9 X,Y pos of 4 corners*
0 Add a 4 corners polygon primitive as box body*
4,1,4,$2,$3,$4,$5,$6,$7,$8,$9,$2,$3,0*
0 Add four circle primitives for the rounded corners*
1,1,$1+$1,$2,$3*
1,1,$1+$1,$4,$5*
1,1,$1+$1,$6,$7*
1,1,$1+$1,$8,$9*
0 Add four rect primitives between the rounded corners*
20,1,$1+$1,$2,$3,$4,$5,0*
20,1,$1+$1,$4,$5,$6,$7,0*
20,1,$1+$1,$6,$7,$8,$9,0*
20,1,$1+$1,$8,$9,$2,$3,0*%
G04 Aperture macros list end*
%TA.AperFunction,ComponentPad*%
%ADD10O,2.850000X1.600000*%
%TD*%
%TA.AperFunction,ComponentPad*%
%ADD11R,1.800000X1.800000*%
%TD*%
%TA.AperFunction,ComponentPad*%
%ADD12C,1.800000*%
%TD*%
%TA.AperFunction,ComponentPad*%
%ADD13RoundRect,0.247500X0.727500X-0.577500X0.727500X0.577500X-0.727500X0.577500X-0.727500X-0.577500X0*%
%TD*%
%TA.AperFunction,ComponentPad*%
%ADD14RoundRect,0.247500X-0.727500X0.577500X-0.727500X-0.577500X0.727500X-0.577500X0.727500X0.577500X0*%
%TD*%
%TA.AperFunction,ComponentPad*%
%ADD15RoundRect,0.247500X-0.577500X-0.727500X0.577500X-0.727500X0.577500X0.727500X-0.577500X0.727500X0*%
%TD*%
%TA.AperFunction,ComponentPad*%
%ADD16C,1.600000*%
%TD*%
%TA.AperFunction,ComponentPad*%
%ADD17O,1.600000X1.600000*%
%TD*%
%TA.AperFunction,ComponentPad*%
%ADD18C,1.440000*%
%TD*%
%TA.AperFunction,ViaPad*%
%ADD19C,0.500000*%
%TD*%
%TA.AperFunction,Conductor*%
%ADD20C,0.750000*%
%TD*%
%TA.AperFunction,Conductor*%
%ADD21C,1.000000*%
%TD*%
%TA.AperFunction,Profile*%
%ADD22C,0.100000*%
%TD*%
G04 APERTURE END LIST*
D10*
%TO.N,/IN*%
%TO.C,SW1*%
X14650000Y13700000D03*
%TO.N,/OUT*%
X14650000Y9000000D03*
%TO.N,/RETURN*%
X14650000Y4300000D03*
%TO.N,/GND_SW*%
X19950000Y13700000D03*
%TO.N,/SEND*%
X19950000Y9000000D03*
%TO.N,/IN*%
X19950000Y4300000D03*
%TO.N,/GND_SW*%
X25250000Y13700000D03*
%TO.N,GND*%
X25250000Y9000000D03*
%TO.N,/LED-*%
X25250000Y4300000D03*
%TD*%
D11*
%TO.N,/LED-*%
%TO.C,D2*%
X37000000Y10525000D03*
D12*
%TO.N,/LED+*%
X37000000Y7985000D03*
%TD*%
D13*
%TO.N,/FB_A*%
%TO.C,WP13*%
X1500000Y4000000D03*
%TD*%
D14*
%TO.N,+9V*%
%TO.C,WP11*%
X1500000Y12500000D03*
%TD*%
D13*
%TO.N,Net-(R7-Pad1)*%
%TO.C,WP14*%
X1500000Y6500000D03*
%TD*%
D15*
%TO.N,/SEND*%
%TO.C,WP8*%
X16250000Y20000000D03*
%TD*%
D13*
%TO.N,Net-(R8-Pad1)*%
%TO.C,WP15*%
X1500000Y1500000D03*
%TD*%
D15*
%TO.N,/IN*%
%TO.C,WP5*%
X10000000Y20000000D03*
%TD*%
%TO.N,+9VIN*%
%TO.C,WP1*%
X4000000Y20000000D03*
%TD*%
%TO.N,/RETURN*%
%TO.C,WP7*%
X18750000Y20000000D03*
%TD*%
%TO.N,GND*%
%TO.C,WP4*%
X36000000Y20000000D03*
%TD*%
D16*
%TO.N,+9V*%
%TO.C,R1*%
X31000000Y5000000D03*
D17*
%TO.N,/LED+*%
X38500000Y5000000D03*
%TD*%
D18*
%TO.N,/FB_A*%
%TO.C,RV1*%
X8040000Y1460000D03*
X5500000Y4000000D03*
%TO.N,/FB*%
X8040000Y6540000D03*
%TD*%
D15*
%TO.N,/OUT*%
%TO.C,WP3*%
X38500000Y20000000D03*
%TD*%
%TO.N,GND*%
%TO.C,WP10*%
X21250000Y20000000D03*
%TD*%
D14*
%TO.N,GND*%
%TO.C,WP12*%
X1500000Y10000000D03*
%TD*%
D15*
%TO.N,GND*%
%TO.C,WP2*%
X1500000Y20000000D03*
%TD*%
%TO.N,GND*%
%TO.C,WP6*%
X7500000Y20000000D03*
%TD*%
%TO.N,-9V*%
%TO.C,WP9*%
X23750000Y20000000D03*
%TD*%
D19*
%TO.N,GND*%
X29200000Y10200000D03*
%TO.N,-9V_PRE*%
X30225000Y10400000D03*
%TO.N,+4V5*%
X4500000Y3000000D03*
X33900000Y8800000D03*
X31000000Y7300000D03*
X32061283Y8059236D03*
X8200000Y9300000D03*
%TO.N,GND*%
X4800000Y9700000D03*
X6400000Y7500000D03*
%TO.N,-9V*%
X31085000Y17000000D03*
%TO.N,-9V_PRE*%
X34250000Y15750000D03*
%TO.N,GND*%
X17500000Y13750000D03*
X33250000Y750000D03*
X18800000Y2900000D03*
X9600000Y800000D03*
X10250000Y14000000D03*
X35750000Y12250000D03*
X22500000Y2900000D03*
X13750000Y3000000D03*
X12000000Y9000000D03*
X39250000Y6250000D03*
X28400000Y2400000D03*
X14250000Y18000000D03*
X7000000Y14250000D03*
X2500000Y18250000D03*
X29500000Y14000000D03*
X39250000Y10250000D03*
X9250000Y5750000D03*
X11500000Y3000000D03*
X10250000Y16000000D03*
X34000000Y12250000D03*
X29200000Y12400000D03*
X3250000Y13500000D03*
X22500000Y4250000D03*
X29500000Y16250000D03*
X39250000Y8250000D03*
X17500000Y11000000D03*
X17500000Y9000000D03*
X39250000Y12250000D03*
X8250000Y18000000D03*
X6500000Y11750000D03*
X39250000Y2750000D03*
X10250000Y18000000D03*
X35200000Y16200000D03*
X12000000Y15000000D03*
X10250000Y12000000D03*
X20000000Y6500000D03*
X11500000Y6250000D03*
X18500000Y12000000D03*
X39250000Y17000000D03*
X3750000Y5250000D03*
X3000000Y750000D03*
X31250000Y750000D03*
X25250000Y6750000D03*
X27750000Y18000000D03*
X2500000Y16500000D03*
X12750000Y6250000D03*
X32500000Y17500000D03*
X26250000Y18000000D03*
X16250000Y12000000D03*
X9000000Y3000000D03*
X22250000Y18000000D03*
X35250000Y750000D03*
X24250000Y15250000D03*
X24250000Y18000000D03*
X12250000Y18000000D03*
X22000000Y14750000D03*
X12000000Y11000000D03*
X25250000Y11500000D03*
X37250000Y12250000D03*
X29500000Y18000000D03*
X10250000Y10000000D03*
X16250000Y18000000D03*
X20250000Y18000000D03*
X39250000Y18000000D03*
X22500000Y9000000D03*
X39000000Y1000000D03*
X25200000Y2400000D03*
X5600000Y5500000D03*
X29500000Y8000000D03*
X26250000Y16000000D03*
X18250000Y18000000D03*
X3000000Y2500000D03*
X37250000Y750000D03*
%TO.N,/SEND*%
X16750000Y12750000D03*
X21800000Y10300000D03*
%TO.N,/FB*%
X6500000Y3250000D03*
X6553217Y4825000D03*
%TO.N,GND*%
X35012749Y7500000D03*
%TD*%
D20*
%TO.N,GND*%
X1500000Y18600000D02*
X1500000Y20000000D01*
D21*
%TO.N,-9V_PRE*%
X30225000Y11725000D02*
X34250000Y15750000D01*
X30225000Y10400000D02*
X30225000Y11725000D01*
%TD*%
%TA.AperFunction,Conductor*%
%TO.N,GND*%
G36*
X2983389Y21077826D02*
G01*
X3005063Y21025500D01*
X2990303Y20981153D01*
X2980920Y20968620D01*
X2980919Y20968619D01*
X2930878Y20834451D01*
X2930877Y20834446D01*
X2924500Y20775133D01*
X2924500Y19224868D01*
X2930877Y19165555D01*
X2930878Y19165550D01*
X2980919Y19031382D01*
X2980920Y19031381D01*
X2980921Y19031380D01*
X3066740Y18916740D01*
X3102804Y18889743D01*
X3181380Y18830921D01*
X3181381Y18830920D01*
X3291764Y18789751D01*
X3315554Y18780877D01*
X3369109Y18775120D01*
X3374867Y18774500D01*
X3374868Y18774500D01*
X4625133Y18774500D01*
X4630381Y18775065D01*
X4684446Y18780877D01*
X4773895Y18814240D01*
X4818618Y18830920D01*
X4818618Y18830921D01*
X4818620Y18830921D01*
X4933260Y18916740D01*
X5019079Y19031380D01*
X5019216Y19031749D01*
X5020263Y19034552D01*
X5020263Y19034553D01*
X5062397Y19147522D01*
X5069123Y19165554D01*
X5075500Y19224868D01*
X5075500Y20775132D01*
X5069123Y20834446D01*
X5054452Y20873782D01*
X5019080Y20968619D01*
X5019079Y20968620D01*
X5009697Y20981153D01*
X4995690Y21036031D01*
X5024590Y21084740D01*
X5068937Y21099500D01*
X6580813Y21099500D01*
X6633139Y21077826D01*
X6654813Y21025500D01*
X6654813Y21021963D01*
X7264347Y20412429D01*
X7208343Y20380095D01*
X7119905Y20291657D01*
X7087571Y20235653D01*
X6530392Y20792832D01*
X6530391Y20792832D01*
X6525000Y20758786D01*
X6525000Y19241214D01*
X6530391Y19207170D01*
X6530392Y19207170D01*
X7087570Y19764349D01*
X7119905Y19708343D01*
X7208343Y19619905D01*
X7264347Y19587572D01*
X6654813Y18978037D01*
X6685942Y18946908D01*
X6798134Y18889743D01*
X6891215Y18875000D01*
X8108785Y18875000D01*
X8201865Y18889743D01*
X8314057Y18946908D01*
X8345187Y18978037D01*
X7735652Y19587572D01*
X7791657Y19619905D01*
X7880095Y19708343D01*
X7912428Y19764348D01*
X8469606Y19207170D01*
X8475000Y19241217D01*
X8475000Y20758785D01*
X8469607Y20792833D01*
X7912428Y20235654D01*
X7880095Y20291657D01*
X7791657Y20380095D01*
X7735652Y20412429D01*
X8345187Y21021963D01*
X8345187Y21025500D01*
X8366861Y21077826D01*
X8419187Y21099500D01*
X8931063Y21099500D01*
X8983389Y21077826D01*
X9005063Y21025500D01*
X8990303Y20981153D01*
X8980920Y20968620D01*
X8980919Y20968619D01*
X8930878Y20834451D01*
X8930877Y20834446D01*
X8924500Y20775133D01*
X8924500Y19224868D01*
X8930877Y19165555D01*
X8930878Y19165550D01*
X8980919Y19031382D01*
X8980920Y19031381D01*
X8980921Y19031380D01*
X9066740Y18916740D01*
X9102804Y18889743D01*
X9181380Y18830921D01*
X9181381Y18830920D01*
X9291764Y18789751D01*
X9315554Y18780877D01*
X9369109Y18775120D01*
X9374867Y18774500D01*
X9374868Y18774500D01*
X10625133Y18774500D01*
X10630381Y18775065D01*
X10684446Y18780877D01*
X10773895Y18814240D01*
X10818618Y18830920D01*
X10818618Y18830921D01*
X10818620Y18830921D01*
X10933260Y18916740D01*
X11019079Y19031380D01*
X11020263Y19034553D01*
X11062397Y19147522D01*
X11069123Y19165554D01*
X11075500Y19224868D01*
X11075500Y20775132D01*
X11069123Y20834446D01*
X11054452Y20873782D01*
X11019080Y20968619D01*
X11019079Y20968620D01*
X11009697Y20981153D01*
X10995690Y21036031D01*
X11024590Y21084740D01*
X11068937Y21099500D01*
X15181063Y21099500D01*
X15233389Y21077826D01*
X15255063Y21025500D01*
X15240303Y20981153D01*
X15230920Y20968620D01*
X15230919Y20968619D01*
X15180878Y20834451D01*
X15180877Y20834446D01*
X15174500Y20775133D01*
X15174500Y19224868D01*
X15180877Y19165555D01*
X15180878Y19165550D01*
X15230919Y19031382D01*
X15230920Y19031381D01*
X15230921Y19031380D01*
X15316740Y18916740D01*
X15352804Y18889743D01*
X15431380Y18830921D01*
X15431381Y18830920D01*
X15541764Y18789751D01*
X15565554Y18780877D01*
X15619109Y18775120D01*
X15624867Y18774500D01*
X15624868Y18774500D01*
X16875133Y18774500D01*
X16880381Y18775065D01*
X16934446Y18780877D01*
X17023895Y18814240D01*
X17068618Y18830920D01*
X17068618Y18830921D01*
X17068620Y18830921D01*
X17183260Y18916740D01*
X17269079Y19031380D01*
X17270263Y19034553D01*
X17312397Y19147522D01*
X17319123Y19165554D01*
X17325500Y19224868D01*
X17325500Y20775132D01*
X17319123Y20834446D01*
X17304452Y20873782D01*
X17269080Y20968619D01*
X17269079Y20968620D01*
X17259697Y20981153D01*
X17245690Y21036031D01*
X17274590Y21084740D01*
X17318937Y21099500D01*
X17681063Y21099500D01*
X17733389Y21077826D01*
X17755063Y21025500D01*
X17740303Y20981153D01*
X17730920Y20968620D01*
X17730919Y20968619D01*
X17680878Y20834451D01*
X17680877Y20834446D01*
X17674500Y20775133D01*
X17674500Y19224868D01*
X17680877Y19165555D01*
X17680878Y19165550D01*
X17730919Y19031382D01*
X17730920Y19031381D01*
X17730921Y19031380D01*
X17816740Y18916740D01*
X17852804Y18889743D01*
X17931380Y18830921D01*
X17931381Y18830920D01*
X18041764Y18789751D01*
X18065554Y18780877D01*
X18119109Y18775120D01*
X18124867Y18774500D01*
X18124868Y18774500D01*
X19375133Y18774500D01*
X19380381Y18775065D01*
X19434446Y18780877D01*
X19523895Y18814240D01*
X19568618Y18830920D01*
X19568618Y18830921D01*
X19568620Y18830921D01*
X19683260Y18916740D01*
X19769079Y19031380D01*
X19769216Y19031749D01*
X19770263Y19034552D01*
X19770263Y19034553D01*
X19812397Y19147522D01*
X19819123Y19165554D01*
X19825500Y19224868D01*
X19825500Y20775132D01*
X19819123Y20834446D01*
X19804452Y20873782D01*
X19769080Y20968619D01*
X19769079Y20968620D01*
X19759697Y20981153D01*
X19745690Y21036031D01*
X19774590Y21084740D01*
X19818937Y21099500D01*
X20330813Y21099500D01*
X20383139Y21077826D01*
X20404813Y21025500D01*
X20404813Y21021963D01*
X21014347Y20412429D01*
X20958343Y20380095D01*
X20869905Y20291657D01*
X20837571Y20235653D01*
X20280392Y20792832D01*
X20280391Y20792832D01*
X20275000Y20758786D01*
X20275000Y19241214D01*
X20280391Y19207170D01*
X20280392Y19207170D01*
X20837570Y19764349D01*
X20869905Y19708343D01*
X20958343Y19619905D01*
X21014347Y19587572D01*
X20404813Y18978037D01*
X20435942Y18946908D01*
X20548134Y18889743D01*
X20641215Y18875000D01*
X21858785Y18875000D01*
X21951865Y18889743D01*
X22064057Y18946908D01*
X22095187Y18978037D01*
X21485652Y19587572D01*
X21541657Y19619905D01*
X21630095Y19708343D01*
X21662428Y19764348D01*
X22219606Y19207170D01*
X22225000Y19241217D01*
X22225000Y20758785D01*
X22219607Y20792833D01*
X21662428Y20235654D01*
X21630095Y20291657D01*
X21541657Y20380095D01*
X21485652Y20412429D01*
X22095187Y21021963D01*
X22095187Y21025500D01*
X22116861Y21077826D01*
X22169187Y21099500D01*
X22681063Y21099500D01*
X22733389Y21077826D01*
X22755063Y21025500D01*
X22740303Y20981153D01*
X22730920Y20968620D01*
X22730919Y20968619D01*
X22680878Y20834451D01*
X22680877Y20834446D01*
X22674500Y20775133D01*
X22674500Y19224868D01*
X22680877Y19165555D01*
X22680878Y19165550D01*
X22730919Y19031382D01*
X22730920Y19031381D01*
X22730921Y19031380D01*
X22816740Y18916740D01*
X22852804Y18889743D01*
X22931380Y18830921D01*
X22931381Y18830920D01*
X23041764Y18789751D01*
X23065554Y18780877D01*
X23119109Y18775120D01*
X23124867Y18774500D01*
X23124868Y18774500D01*
X24375133Y18774500D01*
X24380381Y18775065D01*
X24434446Y18780877D01*
X24523895Y18814240D01*
X24568618Y18830920D01*
X24568618Y18830921D01*
X24568620Y18830921D01*
X24683260Y18916740D01*
X24769079Y19031380D01*
X24769216Y19031749D01*
X24770263Y19034552D01*
X24770263Y19034553D01*
X24812397Y19147522D01*
X24819123Y19165554D01*
X24825500Y19224868D01*
X24825500Y20775132D01*
X24819123Y20834446D01*
X24804452Y20873782D01*
X24769080Y20968619D01*
X24769079Y20968620D01*
X24759697Y20981153D01*
X24745690Y21036031D01*
X24774590Y21084740D01*
X24818937Y21099500D01*
X35080813Y21099500D01*
X35133139Y21077826D01*
X35154813Y21025500D01*
X35154813Y21021963D01*
X35764347Y20412429D01*
X35708343Y20380095D01*
X35619905Y20291657D01*
X35587571Y20235653D01*
X35030392Y20792832D01*
X35030391Y20792832D01*
X35025000Y20758786D01*
X35025000Y19241214D01*
X35030391Y19207170D01*
X35030392Y19207170D01*
X35587570Y19764349D01*
X35619905Y19708343D01*
X35708343Y19619905D01*
X35764347Y19587572D01*
X35154813Y18978037D01*
X35185942Y18946908D01*
X35298134Y18889743D01*
X35391215Y18875000D01*
X36608785Y18875000D01*
X36701865Y18889743D01*
X36814057Y18946908D01*
X36845187Y18978037D01*
X36235652Y19587572D01*
X36291657Y19619905D01*
X36380095Y19708343D01*
X36412428Y19764348D01*
X36969606Y19207170D01*
X36975000Y19241217D01*
X36975000Y20758785D01*
X36969607Y20792833D01*
X36412428Y20235654D01*
X36380095Y20291657D01*
X36291657Y20380095D01*
X36235652Y20412429D01*
X36845187Y21021963D01*
X36845187Y21025500D01*
X36866861Y21077826D01*
X36919187Y21099500D01*
X37431063Y21099500D01*
X37483389Y21077826D01*
X37505063Y21025500D01*
X37490303Y20981153D01*
X37480920Y20968620D01*
X37480919Y20968619D01*
X37430878Y20834451D01*
X37430877Y20834446D01*
X37424500Y20775133D01*
X37424500Y19224868D01*
X37430877Y19165555D01*
X37430878Y19165550D01*
X37480919Y19031382D01*
X37480920Y19031381D01*
X37480921Y19031380D01*
X37566740Y18916740D01*
X37602804Y18889743D01*
X37681380Y18830921D01*
X37681381Y18830920D01*
X37791764Y18789751D01*
X37815554Y18780877D01*
X37869109Y18775120D01*
X37874867Y18774500D01*
X37874868Y18774500D01*
X39125133Y18774500D01*
X39130381Y18775065D01*
X39184446Y18780877D01*
X39273895Y18814240D01*
X39318618Y18830920D01*
X39318618Y18830921D01*
X39318620Y18830921D01*
X39433260Y18916740D01*
X39466260Y18960824D01*
X39514969Y18989723D01*
X39569847Y18975716D01*
X39598747Y18927007D01*
X39599500Y18916476D01*
X39599500Y5462684D01*
X39577826Y5410358D01*
X39525500Y5388684D01*
X39473174Y5410358D01*
X39457133Y5434365D01*
X39445403Y5462684D01*
X39430941Y5497598D01*
X39315977Y5669655D01*
X39169655Y5815977D01*
X39158101Y5823697D01*
X38997598Y5930941D01*
X38806420Y6010130D01*
X38806413Y6010132D01*
X38653516Y6040545D01*
X38603465Y6050500D01*
X38396535Y6050500D01*
X38356385Y6042514D01*
X38193586Y6010132D01*
X38193579Y6010130D01*
X38002401Y5930941D01*
X37830345Y5815978D01*
X37830344Y5815976D01*
X37684024Y5669656D01*
X37684022Y5669655D01*
X37569059Y5497599D01*
X37489870Y5306421D01*
X37489868Y5306414D01*
X37449500Y5103465D01*
X37449500Y4896536D01*
X37489868Y4693587D01*
X37489870Y4693580D01*
X37569059Y4502402D01*
X37679349Y4337339D01*
X37684023Y4330345D01*
X37830345Y4184023D01*
X38002402Y4069059D01*
X38193580Y3989870D01*
X38396535Y3949500D01*
X38396536Y3949500D01*
X38603464Y3949500D01*
X38603465Y3949500D01*
X38806420Y3989870D01*
X38997598Y4069059D01*
X39169655Y4184023D01*
X39315977Y4330345D01*
X39430941Y4502402D01*
X39457133Y4565636D01*
X39497181Y4605684D01*
X39553818Y4605684D01*
X39593867Y4565636D01*
X39599500Y4537317D01*
X39599500Y1004160D01*
X39599035Y995874D01*
X39585402Y874880D01*
X39581714Y858725D01*
X39542885Y747760D01*
X39535696Y732831D01*
X39473144Y633279D01*
X39462812Y620323D01*
X39379677Y537188D01*
X39366721Y526856D01*
X39267169Y464304D01*
X39252240Y457115D01*
X39162670Y425773D01*
X39141273Y418286D01*
X39125120Y414598D01*
X39004127Y400965D01*
X38995841Y400500D01*
X8390201Y400500D01*
X8337875Y422174D01*
X8316201Y474500D01*
X8337875Y526826D01*
X8361883Y542867D01*
X8499704Y599954D01*
X8658658Y706163D01*
X8793837Y841342D01*
X8900046Y1000296D01*
X8973204Y1176916D01*
X9010500Y1364414D01*
X9010500Y1555586D01*
X8990514Y1656064D01*
X9001563Y1711612D01*
X9048656Y1743078D01*
X9063092Y1744500D01*
X24724838Y1744500D01*
X24724840Y1744500D01*
X24768925Y1750304D01*
X24790969Y1753206D01*
X24790978Y1753208D01*
X24819056Y1760733D01*
X24827968Y1763120D01*
X24889591Y1788645D01*
X24964542Y1854376D01*
X24999020Y1899309D01*
X25043111Y1988716D01*
X25043111Y1988719D01*
X25043112Y1988720D01*
X25048702Y2074000D01*
X25049633Y2088193D01*
X25042241Y2144346D01*
X25042240Y2144350D01*
X25010195Y2238750D01*
X24976565Y2296998D01*
X24969173Y2314846D01*
X24957521Y2358335D01*
X24955000Y2377486D01*
X24955000Y2422517D01*
X24957521Y2441668D01*
X24967118Y2477487D01*
X24969173Y2485160D01*
X24976561Y2502997D01*
X24999081Y2542002D01*
X25010834Y2557319D01*
X25042680Y2589165D01*
X25058001Y2600920D01*
X25096997Y2623435D01*
X25114843Y2630828D01*
X25145159Y2638950D01*
X25158333Y2642479D01*
X25177483Y2645000D01*
X25222511Y2645000D01*
X25241662Y2642479D01*
X25256299Y2638558D01*
X25285157Y2630825D01*
X25303000Y2623435D01*
X25341995Y2600921D01*
X25357320Y2589162D01*
X25389160Y2557322D01*
X25400919Y2541997D01*
X25400920Y2541996D01*
X25423430Y2503007D01*
X25430822Y2485160D01*
X25442478Y2441661D01*
X25445000Y2422508D01*
X25445000Y2377486D01*
X25442478Y2358332D01*
X25430825Y2314845D01*
X25423433Y2297000D01*
X25389810Y2238763D01*
X25389802Y2238747D01*
X25364280Y2177129D01*
X25364276Y2177117D01*
X25354367Y2140139D01*
X25354365Y2140130D01*
X25345659Y2074001D01*
X25365107Y1976231D01*
X25365110Y1976221D01*
X25385389Y1927264D01*
X25386375Y1924508D01*
X25442168Y1841009D01*
X25442169Y1841008D01*
X25525059Y1785623D01*
X25577385Y1763949D01*
X25675160Y1744500D01*
X25675162Y1744500D01*
X27924838Y1744500D01*
X27924840Y1744500D01*
X27968925Y1750304D01*
X27990969Y1753206D01*
X27990978Y1753208D01*
X28019056Y1760733D01*
X28027968Y1763120D01*
X28089591Y1788645D01*
X28164542Y1854376D01*
X28199020Y1899309D01*
X28243111Y1988716D01*
X28243111Y1988719D01*
X28243112Y1988720D01*
X28248702Y2074000D01*
X28249633Y2088193D01*
X28242241Y2144346D01*
X28242240Y2144350D01*
X28210195Y2238750D01*
X28176565Y2296998D01*
X28169173Y2314846D01*
X28157521Y2358335D01*
X28155000Y2377486D01*
X28155000Y2422517D01*
X28157521Y2441668D01*
X28167118Y2477487D01*
X28169173Y2485160D01*
X28176561Y2502997D01*
X28199081Y2542002D01*
X28210834Y2557319D01*
X28242680Y2589165D01*
X28258001Y2600920D01*
X28296997Y2623435D01*
X28314843Y2630828D01*
X28345159Y2638950D01*
X28358333Y2642479D01*
X28377483Y2645000D01*
X28422511Y2645000D01*
X28441662Y2642479D01*
X28456299Y2638558D01*
X28485157Y2630825D01*
X28503000Y2623435D01*
X28541995Y2600921D01*
X28557320Y2589162D01*
X28589160Y2557322D01*
X28600919Y2541997D01*
X28600920Y2541996D01*
X28623430Y2503007D01*
X28630822Y2485160D01*
X28642478Y2441661D01*
X28645000Y2422508D01*
X28645000Y2377486D01*
X28642478Y2358332D01*
X28630825Y2314845D01*
X28623433Y2297000D01*
X28589810Y2238763D01*
X28589802Y2238747D01*
X28564280Y2177129D01*
X28564276Y2177117D01*
X28554367Y2140139D01*
X28554365Y2140130D01*
X28545659Y2074001D01*
X28565107Y1976231D01*
X28565110Y1976221D01*
X28585389Y1927264D01*
X28586375Y1924508D01*
X28642168Y1841009D01*
X28642169Y1841008D01*
X28725059Y1785623D01*
X28777385Y1763949D01*
X28875160Y1744500D01*
X28875162Y1744500D01*
X34925998Y1744500D01*
X34926000Y1744500D01*
X35023775Y1763949D01*
X35072757Y1784238D01*
X35075496Y1785219D01*
X35076101Y1785623D01*
X35076102Y1785623D01*
X35158992Y1841009D01*
X35214377Y1923899D01*
X35236051Y1976225D01*
X35255500Y2074000D01*
X35255500Y6928478D01*
X35246794Y6994606D01*
X35246794Y6994608D01*
X35246792Y6994617D01*
X35236883Y7031595D01*
X35236882Y7031596D01*
X35236880Y7031606D01*
X35211355Y7093229D01*
X35211354Y7093231D01*
X35145626Y7168178D01*
X35145620Y7168183D01*
X35100690Y7202659D01*
X35053427Y7225967D01*
X35011282Y7246750D01*
X35011279Y7246751D01*
X35011275Y7246753D01*
X34927591Y7269176D01*
X34909744Y7276568D01*
X34870754Y7299079D01*
X34855428Y7310839D01*
X34823587Y7342680D01*
X34811827Y7358006D01*
X34797971Y7382005D01*
X34789312Y7397004D01*
X34781921Y7414848D01*
X34770270Y7458335D01*
X34767749Y7477486D01*
X34767749Y7522517D01*
X34770270Y7541668D01*
X34777576Y7568937D01*
X34781922Y7585160D01*
X34789310Y7602997D01*
X34811830Y7642002D01*
X34823583Y7657319D01*
X34855430Y7689166D01*
X34870748Y7700920D01*
X34909747Y7723436D01*
X34927585Y7730825D01*
X35011282Y7753251D01*
X35072901Y7778774D01*
X35106074Y7797926D01*
X35158992Y7838532D01*
X35214377Y7921422D01*
X35236051Y7973748D01*
X35255500Y8071523D01*
X35255500Y8075547D01*
X35849500Y8075547D01*
X35849500Y7894454D01*
X35877828Y7715594D01*
X35877831Y7715581D01*
X35933787Y7543365D01*
X35933788Y7543362D01*
X35933789Y7543361D01*
X36016004Y7382006D01*
X36122447Y7235499D01*
X36250499Y7107447D01*
X36397006Y7001004D01*
X36558361Y6918789D01*
X36558364Y6918788D01*
X36558363Y6918788D01*
X36730580Y6862832D01*
X36730586Y6862831D01*
X36730591Y6862829D01*
X36845868Y6844571D01*
X36909453Y6834500D01*
X36909454Y6834500D01*
X37090547Y6834500D01*
X37154132Y6844571D01*
X37269409Y6862829D01*
X37269416Y6862832D01*
X37269419Y6862832D01*
X37385147Y6900434D01*
X37441639Y6918789D01*
X37602994Y7001004D01*
X37749501Y7107447D01*
X37877553Y7235499D01*
X37983996Y7382006D01*
X38066211Y7543361D01*
X38122171Y7715591D01*
X38150500Y7894454D01*
X38150500Y8075546D01*
X38122171Y8254409D01*
X38122169Y8254414D01*
X38122168Y8254420D01*
X38066212Y8426636D01*
X38066211Y8426637D01*
X38066211Y8426639D01*
X37983996Y8587994D01*
X37877553Y8734501D01*
X37749501Y8862553D01*
X37650923Y8934174D01*
X37602996Y8968995D01*
X37441635Y9051213D01*
X37441636Y9051213D01*
X37269419Y9107169D01*
X37269406Y9107172D01*
X37090547Y9135500D01*
X37090546Y9135500D01*
X36909454Y9135500D01*
X36909453Y9135500D01*
X36730593Y9107172D01*
X36730580Y9107169D01*
X36558364Y9051213D01*
X36397004Y8968995D01*
X36397003Y8968995D01*
X36250503Y8862556D01*
X36250499Y8862553D01*
X36122447Y8734501D01*
X36122444Y8734498D01*
X36122444Y8734497D01*
X36016005Y8587997D01*
X36016005Y8587996D01*
X35933787Y8426636D01*
X35877831Y8254420D01*
X35877828Y8254407D01*
X35849500Y8075547D01*
X35255500Y8075547D01*
X35255500Y11326000D01*
X35236051Y11423775D01*
X35225323Y11449674D01*
X35849500Y11449674D01*
X35849500Y9600326D01*
X35864034Y9527260D01*
X35919399Y9444399D01*
X36002260Y9389034D01*
X36075326Y9374500D01*
X36075328Y9374500D01*
X37924672Y9374500D01*
X37924674Y9374500D01*
X37997740Y9389034D01*
X38080601Y9444399D01*
X38135966Y9527260D01*
X38150500Y9600326D01*
X38150500Y11449674D01*
X38135966Y11522740D01*
X38080601Y11605601D01*
X38071989Y11611355D01*
X37997740Y11660966D01*
X37924674Y11675500D01*
X36075326Y11675500D01*
X36026615Y11665811D01*
X36002259Y11660966D01*
X35919399Y11605602D01*
X35919398Y11605601D01*
X35864034Y11522741D01*
X35863325Y11519176D01*
X35849500Y11449674D01*
X35225323Y11449674D01*
X35215764Y11472751D01*
X35214782Y11475496D01*
X35158991Y11558992D01*
X35158990Y11558993D01*
X35076100Y11614378D01*
X35023779Y11636050D01*
X35023769Y11636053D01*
X34958294Y11649077D01*
X34926000Y11655500D01*
X34925998Y11655500D01*
X31395520Y11655500D01*
X31343194Y11677174D01*
X31321520Y11729500D01*
X31343194Y11781826D01*
X32210868Y12649500D01*
X34832952Y15271585D01*
X34915084Y15394506D01*
X34971659Y15531088D01*
X35000500Y15676083D01*
X35000500Y15823918D01*
X34971659Y15968913D01*
X34915084Y16105495D01*
X34832952Y16228416D01*
X34728416Y16332952D01*
X34605495Y16415084D01*
X34468913Y16471659D01*
X34468906Y16471661D01*
X34328940Y16499501D01*
X34323918Y16500500D01*
X34176083Y16500500D01*
X34171061Y16499501D01*
X34031094Y16471661D01*
X34031087Y16471659D01*
X33894505Y16415084D01*
X33771585Y16332953D01*
X33771583Y16332951D01*
X29642048Y12203417D01*
X29642047Y12203416D01*
X29592813Y12129730D01*
X29559915Y12080495D01*
X29503343Y11943918D01*
X29503340Y11943908D01*
X29474500Y11798917D01*
X29474500Y11729500D01*
X29452826Y11677174D01*
X29400500Y11655500D01*
X25798143Y11655500D01*
X25786738Y11653999D01*
X25732013Y11646795D01*
X25732004Y11646793D01*
X25695026Y11636884D01*
X25695018Y11636882D01*
X25695015Y11636880D01*
X25650462Y11618426D01*
X25633398Y11611358D01*
X25558442Y11545628D01*
X25523963Y11500696D01*
X25523960Y11500692D01*
X25523959Y11500690D01*
X25479865Y11411269D01*
X25478615Y11407948D01*
X25473448Y11397025D01*
X25450921Y11358007D01*
X25439161Y11342681D01*
X25407319Y11310839D01*
X25391992Y11299079D01*
X25353001Y11276568D01*
X25335157Y11269176D01*
X25314912Y11263751D01*
X25291664Y11257522D01*
X25272514Y11255000D01*
X25227485Y11255000D01*
X25208332Y11257522D01*
X25197089Y11260535D01*
X25164842Y11269176D01*
X25146997Y11276568D01*
X25108006Y11299079D01*
X25092679Y11310839D01*
X25060837Y11342681D01*
X25049078Y11358006D01*
X25026402Y11397280D01*
X25020432Y11410446D01*
X25020056Y11411546D01*
X25020051Y11411568D01*
X24994606Y11472900D01*
X24975455Y11506072D01*
X24934848Y11558992D01*
X24934847Y11558993D01*
X24934846Y11558994D01*
X24851957Y11614378D01*
X24799636Y11636050D01*
X24799626Y11636053D01*
X24734151Y11649077D01*
X24701857Y11655500D01*
X17975160Y11655500D01*
X17963755Y11653999D01*
X17909030Y11646795D01*
X17909021Y11646793D01*
X17872043Y11636884D01*
X17872031Y11636880D01*
X17810409Y11611356D01*
X17810407Y11611355D01*
X17735460Y11545627D01*
X17735455Y11545621D01*
X17700979Y11500691D01*
X17656888Y11411283D01*
X17656887Y11411281D01*
X17650367Y11311812D01*
X17650367Y11311801D01*
X17657758Y11255658D01*
X17657786Y11255573D01*
X17689805Y11161247D01*
X17723431Y11103006D01*
X17730824Y11085159D01*
X17742479Y11041662D01*
X17745000Y11022509D01*
X17745000Y10977487D01*
X17742478Y10958333D01*
X17730824Y10914844D01*
X17723432Y10896999D01*
X17700921Y10858008D01*
X17689161Y10842681D01*
X17657319Y10810839D01*
X17641992Y10799079D01*
X17603001Y10776568D01*
X17585157Y10769176D01*
X17564912Y10763751D01*
X17541664Y10757522D01*
X17522514Y10755000D01*
X17477485Y10755000D01*
X17458332Y10757522D01*
X17447089Y10760535D01*
X17414842Y10769176D01*
X17396997Y10776568D01*
X17358006Y10799079D01*
X17342679Y10810839D01*
X17310838Y10842680D01*
X17299078Y10858006D01*
X17299077Y10858008D01*
X17276563Y10897004D01*
X17269172Y10914848D01*
X17268009Y10919187D01*
X17263808Y10934869D01*
X17257521Y10958335D01*
X17255000Y10977486D01*
X17255000Y11022517D01*
X17257521Y11041668D01*
X17260360Y11052268D01*
X17269173Y11085160D01*
X17276562Y11102997D01*
X17310195Y11161249D01*
X17335720Y11222872D01*
X17344329Y11255000D01*
X17345632Y11259862D01*
X17345634Y11259871D01*
X17352471Y11311801D01*
X17354340Y11325999D01*
X17347973Y11358006D01*
X17334892Y11423770D01*
X17334891Y11423773D01*
X17334891Y11423775D01*
X17314604Y11472751D01*
X17313622Y11475496D01*
X17257831Y11558992D01*
X17257830Y11558993D01*
X17174940Y11614378D01*
X17122619Y11636050D01*
X17122609Y11636053D01*
X17057134Y11649077D01*
X17024840Y11655500D01*
X12475160Y11655500D01*
X12463755Y11653999D01*
X12409030Y11646795D01*
X12409021Y11646793D01*
X12372043Y11636884D01*
X12372031Y11636880D01*
X12310409Y11611356D01*
X12310407Y11611355D01*
X12235460Y11545627D01*
X12235455Y11545621D01*
X12200979Y11500691D01*
X12156888Y11411283D01*
X12156887Y11411281D01*
X12150367Y11311812D01*
X12150367Y11311801D01*
X12157758Y11255658D01*
X12157786Y11255573D01*
X12189805Y11161247D01*
X12223431Y11103006D01*
X12230824Y11085159D01*
X12242479Y11041662D01*
X12245000Y11022509D01*
X12245000Y10977487D01*
X12242478Y10958333D01*
X12230824Y10914844D01*
X12223432Y10896999D01*
X12200921Y10858008D01*
X12189161Y10842681D01*
X12157319Y10810839D01*
X12141992Y10799079D01*
X12103001Y10776568D01*
X12085157Y10769176D01*
X12064912Y10763751D01*
X12041664Y10757522D01*
X12022514Y10755000D01*
X11977485Y10755000D01*
X11958332Y10757522D01*
X11947089Y10760535D01*
X11914842Y10769176D01*
X11896997Y10776568D01*
X11858006Y10799079D01*
X11842679Y10810839D01*
X11810838Y10842680D01*
X11799078Y10858006D01*
X11799077Y10858008D01*
X11776563Y10897004D01*
X11769172Y10914848D01*
X11768009Y10919187D01*
X11763808Y10934869D01*
X11757521Y10958335D01*
X11755000Y10977486D01*
X11755000Y11022517D01*
X11757521Y11041668D01*
X11760360Y11052268D01*
X11769173Y11085160D01*
X11776562Y11102997D01*
X11810195Y11161249D01*
X11835720Y11222872D01*
X11844329Y11255000D01*
X11845632Y11259862D01*
X11845634Y11259871D01*
X11852471Y11311801D01*
X11854340Y11325999D01*
X11847973Y11358006D01*
X11834892Y11423770D01*
X11834891Y11423773D01*
X11834891Y11423775D01*
X11814604Y11472751D01*
X11813622Y11475496D01*
X11757831Y11558992D01*
X11757830Y11558993D01*
X11674940Y11614378D01*
X11622619Y11636050D01*
X11622609Y11636053D01*
X11557134Y11649077D01*
X11524840Y11655500D01*
X6888466Y11655500D01*
X6860748Y11649987D01*
X6790696Y11636053D01*
X6790686Y11636050D01*
X6748137Y11618426D01*
X6748131Y11618423D01*
X6738365Y11614377D01*
X6738364Y11614377D01*
X6655474Y11558992D01*
X6651919Y11555439D01*
X6645528Y11551254D01*
X6644602Y11551079D01*
X6641998Y11549082D01*
X6603002Y11526568D01*
X6585157Y11519176D01*
X6564912Y11513751D01*
X6541664Y11507522D01*
X6522514Y11505000D01*
X6477485Y11505000D01*
X6458332Y11507522D01*
X6447089Y11510535D01*
X6414842Y11519176D01*
X6396997Y11526568D01*
X6358006Y11549079D01*
X6342895Y11560673D01*
X6338466Y11563041D01*
X6293232Y11593265D01*
X6261634Y11614378D01*
X6209313Y11636050D01*
X6209303Y11636053D01*
X6143828Y11649077D01*
X6111534Y11655500D01*
X5635922Y11655500D01*
X5590686Y11649384D01*
X5568068Y11646325D01*
X5530172Y11635886D01*
X5467195Y11609023D01*
X5467194Y11609022D01*
X5393172Y11542252D01*
X5359322Y11496836D01*
X5359321Y11496835D01*
X5316488Y11406824D01*
X5316485Y11406815D01*
X5044610Y10332260D01*
X4993748Y10131236D01*
X4993746Y10131226D01*
X4993073Y10128565D01*
X4977868Y10068469D01*
X4975876Y10032260D01*
X4975635Y10027882D01*
X4975634Y10027875D01*
X4974697Y10010839D01*
X4972488Y9970681D01*
X4974314Y9957522D01*
X4980141Y9915529D01*
X4980142Y9915527D01*
X5011942Y9822909D01*
X5011947Y9822898D01*
X5023430Y9803009D01*
X5030822Y9785163D01*
X5042478Y9741664D01*
X5045000Y9722511D01*
X5045000Y9677487D01*
X5042478Y9658333D01*
X5030824Y9614844D01*
X5023432Y9596999D01*
X5000921Y9558008D01*
X4989161Y9542681D01*
X4957321Y9510841D01*
X4942003Y9499086D01*
X4935817Y9495514D01*
X4934150Y9494544D01*
X4933334Y9494065D01*
X4931864Y9493194D01*
X4931861Y9493192D01*
X4857840Y9426422D01*
X4823994Y9381013D01*
X4781157Y9290994D01*
X4781155Y9290989D01*
X4740061Y9128565D01*
X4715695Y9032260D01*
X4462683Y8032260D01*
X4360543Y7628565D01*
X4336177Y7532260D01*
X4125164Y6698256D01*
X4102941Y6610421D01*
X3872846Y5701005D01*
X3866997Y5669898D01*
X3864738Y5651760D01*
X3862780Y5620185D01*
X3879166Y5537809D01*
X3880270Y5532260D01*
X3882229Y5522411D01*
X3903129Y5471953D01*
X3903682Y5470434D01*
X3903681Y5470417D01*
X3903903Y5470085D01*
X3903903Y5470084D01*
X3911755Y5458333D01*
X3916788Y5450800D01*
X3919344Y5446688D01*
X3973430Y5353006D01*
X3980822Y5335162D01*
X3992478Y5291662D01*
X3995000Y5272511D01*
X3995000Y5227487D01*
X3992478Y5208333D01*
X3980824Y5164844D01*
X3973432Y5146999D01*
X3950921Y5108008D01*
X3939161Y5092681D01*
X3907319Y5060839D01*
X3891993Y5049079D01*
X3832932Y5014980D01*
X3826366Y5011710D01*
X3826394Y5011650D01*
X3825246Y5011118D01*
X3793821Y4995209D01*
X3719801Y4928443D01*
X3685955Y4883035D01*
X3685951Y4883028D01*
X3643111Y4793006D01*
X3482512Y4158255D01*
X3460289Y4070421D01*
X3162788Y2894585D01*
X3157409Y2796799D01*
X3165062Y2741645D01*
X3165063Y2741643D01*
X3196864Y2649024D01*
X3196867Y2649018D01*
X3223430Y2603009D01*
X3230822Y2585162D01*
X3242478Y2541662D01*
X3245000Y2522509D01*
X3245000Y2477487D01*
X3242478Y2458333D01*
X3230824Y2414844D01*
X3223433Y2396999D01*
X3212168Y2377486D01*
X3201110Y2358332D01*
X3200922Y2358007D01*
X3189161Y2342681D01*
X3151734Y2305254D01*
X3149423Y2300929D01*
X3098088Y2224101D01*
X3076416Y2171780D01*
X3076413Y2171770D01*
X3056966Y2074002D01*
X3076413Y1976231D01*
X3076416Y1976221D01*
X3096695Y1927264D01*
X3097681Y1924508D01*
X3153474Y1841009D01*
X3153475Y1841008D01*
X3236365Y1785623D01*
X3288691Y1763949D01*
X3386466Y1744500D01*
X7016908Y1744500D01*
X7069234Y1722826D01*
X7090908Y1670500D01*
X7089486Y1656064D01*
X7069500Y1555586D01*
X7069500Y1364416D01*
X7106794Y1176922D01*
X7106797Y1176912D01*
X7179953Y1000297D01*
X7286162Y841343D01*
X7421342Y706163D01*
X7580296Y599954D01*
X7718117Y542867D01*
X7758166Y502819D01*
X7758166Y446182D01*
X7718118Y406133D01*
X7689799Y400500D01*
X2583524Y400500D01*
X2531198Y422174D01*
X2509524Y474500D01*
X2531198Y526826D01*
X2539177Y533740D01*
X2543783Y537188D01*
X2583260Y566740D01*
X2669079Y681380D01*
X2719123Y815554D01*
X2725500Y874868D01*
X2725500Y2125132D01*
X2719123Y2184446D01*
X2677143Y2297000D01*
X2669080Y2318619D01*
X2669079Y2318620D01*
X2651067Y2342681D01*
X2583260Y2433260D01*
X2468620Y2519079D01*
X2468619Y2519080D01*
X2468618Y2519081D01*
X2334450Y2569122D01*
X2334447Y2569123D01*
X2334446Y2569123D01*
X2304789Y2572312D01*
X2275133Y2575500D01*
X2275132Y2575500D01*
X724868Y2575500D01*
X724867Y2575500D01*
X665554Y2569123D01*
X665549Y2569122D01*
X531381Y2519081D01*
X531380Y2519080D01*
X518847Y2509697D01*
X463969Y2495690D01*
X415260Y2524590D01*
X400500Y2568937D01*
X400500Y2931064D01*
X422174Y2983390D01*
X474500Y3005064D01*
X518849Y2990302D01*
X531379Y2980921D01*
X531381Y2980920D01*
X636617Y2941670D01*
X665554Y2930877D01*
X719109Y2925120D01*
X724867Y2924500D01*
X724868Y2924500D01*
X2275133Y2924500D01*
X2280381Y2925065D01*
X2334446Y2930877D01*
X2433294Y2967745D01*
X2468618Y2980920D01*
X2468618Y2980921D01*
X2468620Y2980921D01*
X2583260Y3066740D01*
X2669079Y3181380D01*
X2678664Y3207077D01*
X2700820Y3266481D01*
X2719123Y3315554D01*
X2725500Y3374868D01*
X2725500Y4625132D01*
X2719123Y4684446D01*
X2710249Y4708236D01*
X2669080Y4818619D01*
X2669079Y4818620D01*
X2620863Y4883028D01*
X2583260Y4933260D01*
X2468620Y5019079D01*
X2468619Y5019080D01*
X2468618Y5019081D01*
X2334450Y5069122D01*
X2334447Y5069123D01*
X2334446Y5069123D01*
X2304789Y5072312D01*
X2275133Y5075500D01*
X2275132Y5075500D01*
X724868Y5075500D01*
X724867Y5075500D01*
X665554Y5069123D01*
X665549Y5069122D01*
X531381Y5019081D01*
X531380Y5019080D01*
X518847Y5009697D01*
X463969Y4995690D01*
X415260Y5024590D01*
X400500Y5068937D01*
X400500Y5431064D01*
X422174Y5483390D01*
X474500Y5505064D01*
X518849Y5490302D01*
X531379Y5480921D01*
X531381Y5480920D01*
X612138Y5450800D01*
X665554Y5430877D01*
X719109Y5425120D01*
X724867Y5424500D01*
X724868Y5424500D01*
X2275133Y5424500D01*
X2280381Y5425065D01*
X2334446Y5430877D01*
X2439565Y5470084D01*
X2468618Y5480920D01*
X2468618Y5480921D01*
X2468620Y5480921D01*
X2583260Y5566740D01*
X2669079Y5681380D01*
X2719123Y5815554D01*
X2725500Y5874868D01*
X2725500Y7125132D01*
X2719123Y7184446D01*
X2700081Y7235499D01*
X2669080Y7318619D01*
X2669079Y7318620D01*
X2645911Y7349568D01*
X2583260Y7433260D01*
X2468620Y7519079D01*
X2468619Y7519080D01*
X2468618Y7519081D01*
X2334450Y7569122D01*
X2334447Y7569123D01*
X2334446Y7569123D01*
X2304789Y7572312D01*
X2275133Y7575500D01*
X2275132Y7575500D01*
X724868Y7575500D01*
X724867Y7575500D01*
X665554Y7569123D01*
X665549Y7569122D01*
X531381Y7519081D01*
X531380Y7519080D01*
X518847Y7509697D01*
X463969Y7495690D01*
X415260Y7524590D01*
X400500Y7568937D01*
X400500Y9080813D01*
X422174Y9133139D01*
X474500Y9154813D01*
X478037Y9154813D01*
X1087571Y9764348D01*
X1119905Y9708343D01*
X1208343Y9619905D01*
X1264346Y9587572D01*
X707167Y9030393D01*
X741215Y9025000D01*
X2258783Y9025000D01*
X2292830Y9030394D01*
X1735652Y9587572D01*
X1791657Y9619905D01*
X1880095Y9708343D01*
X1912428Y9764348D01*
X2521963Y9154813D01*
X2553092Y9185943D01*
X2610257Y9298135D01*
X2625000Y9391216D01*
X2625000Y10608785D01*
X2610257Y10701866D01*
X2553092Y10814058D01*
X2521963Y10845187D01*
X1912428Y10235653D01*
X1880095Y10291657D01*
X1791657Y10380095D01*
X1735651Y10412430D01*
X2292830Y10969608D01*
X2292830Y10969609D01*
X2258786Y10975000D01*
X741215Y10975000D01*
X707168Y10969609D01*
X707168Y10969608D01*
X1264347Y10412429D01*
X1208343Y10380095D01*
X1119905Y10291657D01*
X1087571Y10235653D01*
X478037Y10845187D01*
X474500Y10845187D01*
X422174Y10866861D01*
X400500Y10919187D01*
X400500Y11431064D01*
X422174Y11483390D01*
X474500Y11505064D01*
X518849Y11490302D01*
X531379Y11480921D01*
X531381Y11480920D01*
X641764Y11439751D01*
X665554Y11430877D01*
X719109Y11425120D01*
X724867Y11424500D01*
X724868Y11424500D01*
X2275133Y11424500D01*
X2280381Y11425065D01*
X2334446Y11430877D01*
X2447115Y11472900D01*
X2468618Y11480920D01*
X2468618Y11480921D01*
X2468620Y11480921D01*
X2583260Y11566740D01*
X2669079Y11681380D01*
X2719123Y11815554D01*
X2725500Y11874868D01*
X2725500Y13125132D01*
X2719123Y13184446D01*
X2707207Y13216394D01*
X2669080Y13318619D01*
X2669079Y13318620D01*
X2612964Y13393580D01*
X2583260Y13433260D01*
X2468620Y13519079D01*
X2468619Y13519080D01*
X2468618Y13519081D01*
X2334450Y13569122D01*
X2334447Y13569123D01*
X2334446Y13569123D01*
X2304789Y13572312D01*
X2275133Y13575500D01*
X2275132Y13575500D01*
X724868Y13575500D01*
X724867Y13575500D01*
X665554Y13569123D01*
X665549Y13569122D01*
X531381Y13519081D01*
X531380Y13519080D01*
X518847Y13509697D01*
X463969Y13495690D01*
X415260Y13524590D01*
X400500Y13568937D01*
X400500Y13803465D01*
X12974500Y13803465D01*
X12974500Y13596536D01*
X13014868Y13393587D01*
X13014870Y13393580D01*
X13094059Y13202402D01*
X13128738Y13150500D01*
X13209023Y13030345D01*
X13355345Y12884023D01*
X13527402Y12769059D01*
X13718580Y12689870D01*
X13921535Y12649500D01*
X13921536Y12649500D01*
X15378464Y12649500D01*
X15378465Y12649500D01*
X15581420Y12689870D01*
X15772598Y12769059D01*
X15842694Y12815895D01*
X16249500Y12815895D01*
X16249500Y12684106D01*
X16283606Y12556819D01*
X16283607Y12556816D01*
X16283608Y12556814D01*
X16349500Y12442686D01*
X16442686Y12349500D01*
X16556814Y12283608D01*
X16684105Y12249501D01*
X16684106Y12249500D01*
X16684108Y12249500D01*
X16815894Y12249500D01*
X16815894Y12249501D01*
X16943186Y12283608D01*
X17057314Y12349500D01*
X17150500Y12442686D01*
X17216392Y12556814D01*
X17250499Y12684106D01*
X17250500Y12684106D01*
X17250500Y12815894D01*
X17250499Y12815895D01*
X17232244Y12884023D01*
X17216392Y12943186D01*
X17150500Y13057314D01*
X17057314Y13150500D01*
X16998518Y13184446D01*
X16943190Y13216390D01*
X16943181Y13216394D01*
X16815894Y13250500D01*
X16815892Y13250500D01*
X16684108Y13250500D01*
X16684106Y13250500D01*
X16556818Y13216394D01*
X16556809Y13216390D01*
X16442685Y13150500D01*
X16349500Y13057315D01*
X16283610Y12943191D01*
X16283606Y12943182D01*
X16249500Y12815895D01*
X15842694Y12815895D01*
X15944655Y12884023D01*
X16090977Y13030345D01*
X16205941Y13202402D01*
X16285130Y13393580D01*
X16325500Y13596535D01*
X16325500Y13803465D01*
X18274500Y13803465D01*
X18274500Y13596536D01*
X18314868Y13393587D01*
X18314870Y13393580D01*
X18394059Y13202402D01*
X18428738Y13150500D01*
X18509023Y13030345D01*
X18655345Y12884023D01*
X18827402Y12769059D01*
X19018580Y12689870D01*
X19221535Y12649500D01*
X19221536Y12649500D01*
X20678464Y12649500D01*
X20678465Y12649500D01*
X20881420Y12689870D01*
X21072598Y12769059D01*
X21244655Y12884023D01*
X21390977Y13030345D01*
X21505941Y13202402D01*
X21585130Y13393580D01*
X21625500Y13596535D01*
X21625500Y13803465D01*
X23574500Y13803465D01*
X23574500Y13596536D01*
X23614868Y13393587D01*
X23614870Y13393580D01*
X23694059Y13202402D01*
X23728738Y13150500D01*
X23809023Y13030345D01*
X23955345Y12884023D01*
X24127402Y12769059D01*
X24318580Y12689870D01*
X24521535Y12649500D01*
X24521536Y12649500D01*
X25978464Y12649500D01*
X25978465Y12649500D01*
X26181420Y12689870D01*
X26372598Y12769059D01*
X26544655Y12884023D01*
X26690977Y13030345D01*
X26805941Y13202402D01*
X26885130Y13393580D01*
X26925500Y13596535D01*
X26925500Y13803465D01*
X26885130Y14006420D01*
X26805941Y14197598D01*
X26690977Y14369655D01*
X26544655Y14515977D01*
X26372598Y14630941D01*
X26181420Y14710130D01*
X26181413Y14710132D01*
X26028516Y14740545D01*
X25978465Y14750500D01*
X24521535Y14750500D01*
X24481385Y14742514D01*
X24318586Y14710132D01*
X24318579Y14710130D01*
X24127401Y14630941D01*
X23955345Y14515978D01*
X23955344Y14515976D01*
X23809024Y14369656D01*
X23809022Y14369655D01*
X23694059Y14197599D01*
X23614870Y14006421D01*
X23614868Y14006414D01*
X23574500Y13803465D01*
X21625500Y13803465D01*
X21585130Y14006420D01*
X21505941Y14197598D01*
X21390977Y14369655D01*
X21244655Y14515977D01*
X21072598Y14630941D01*
X20881420Y14710130D01*
X20881413Y14710132D01*
X20728516Y14740545D01*
X20678465Y14750500D01*
X19221535Y14750500D01*
X19181385Y14742514D01*
X19018586Y14710132D01*
X19018579Y14710130D01*
X18827401Y14630941D01*
X18655345Y14515978D01*
X18655344Y14515976D01*
X18509024Y14369656D01*
X18509022Y14369655D01*
X18394059Y14197599D01*
X18314870Y14006421D01*
X18314868Y14006414D01*
X18274500Y13803465D01*
X16325500Y13803465D01*
X16285130Y14006420D01*
X16205941Y14197598D01*
X16090977Y14369655D01*
X15944655Y14515977D01*
X15772598Y14630941D01*
X15581420Y14710130D01*
X15581413Y14710132D01*
X15428516Y14740545D01*
X15378465Y14750500D01*
X13921535Y14750500D01*
X13881385Y14742514D01*
X13718586Y14710132D01*
X13718579Y14710130D01*
X13527401Y14630941D01*
X13355345Y14515978D01*
X13355344Y14515976D01*
X13209024Y14369656D01*
X13209022Y14369655D01*
X13094059Y14197599D01*
X13014870Y14006421D01*
X13014868Y14006414D01*
X12974500Y13803465D01*
X400500Y13803465D01*
X400500Y17065895D01*
X30584500Y17065895D01*
X30584500Y16934106D01*
X30618606Y16806819D01*
X30618607Y16806816D01*
X30618608Y16806814D01*
X30684500Y16692686D01*
X30777686Y16599500D01*
X30891814Y16533608D01*
X31019105Y16499501D01*
X31019106Y16499500D01*
X31019108Y16499500D01*
X31150894Y16499500D01*
X31150894Y16499501D01*
X31278186Y16533608D01*
X31392314Y16599500D01*
X31485500Y16692686D01*
X31551392Y16806814D01*
X31585499Y16934106D01*
X31585500Y16934106D01*
X31585500Y17065894D01*
X31585499Y17065895D01*
X31551393Y17193182D01*
X31551392Y17193186D01*
X31485500Y17307314D01*
X31392314Y17400500D01*
X31278190Y17466390D01*
X31278181Y17466394D01*
X31150894Y17500500D01*
X31150892Y17500500D01*
X31019108Y17500500D01*
X31019106Y17500500D01*
X30891818Y17466394D01*
X30891809Y17466390D01*
X30777685Y17400500D01*
X30684500Y17307315D01*
X30618610Y17193191D01*
X30618606Y17193182D01*
X30584500Y17065895D01*
X400500Y17065895D01*
X400500Y19147522D01*
X422174Y19199848D01*
X474500Y19221522D01*
X497369Y19217900D01*
X530392Y19207170D01*
X1087570Y19764348D01*
X1119905Y19708343D01*
X1208343Y19619905D01*
X1264347Y19587572D01*
X654813Y18978037D01*
X685942Y18946908D01*
X798134Y18889743D01*
X891215Y18875000D01*
X2108785Y18875000D01*
X2201865Y18889743D01*
X2314057Y18946908D01*
X2345187Y18978037D01*
X1735652Y19587572D01*
X1791657Y19619905D01*
X1880095Y19708343D01*
X1912428Y19764348D01*
X2469606Y19207170D01*
X2475000Y19241217D01*
X2475000Y20758785D01*
X2469607Y20792833D01*
X1912428Y20235654D01*
X1880095Y20291657D01*
X1791657Y20380095D01*
X1735652Y20412429D01*
X2345187Y21021963D01*
X2345187Y21025500D01*
X2366861Y21077826D01*
X2419187Y21099500D01*
X2931063Y21099500D01*
X2983389Y21077826D01*
G37*
%TD.AperFunction*%
%TA.AperFunction,Conductor*%
G36*
X18929582Y3257938D02*
G01*
X18948529Y3254169D01*
X18954084Y3245855D01*
X18963053Y3241432D01*
X18969262Y3223140D01*
X18979996Y3207077D01*
X18981259Y3187803D01*
X18979845Y3166219D01*
X18979523Y3161302D01*
X18986915Y3105153D01*
X18986917Y3105146D01*
X19018961Y3010747D01*
X19023435Y3002997D01*
X19030825Y2985155D01*
X19042478Y2941670D01*
X19045000Y2922516D01*
X19045000Y2877487D01*
X19042478Y2858333D01*
X19030824Y2814844D01*
X19023432Y2796999D01*
X19000921Y2758008D01*
X18989161Y2742681D01*
X18957319Y2710839D01*
X18941992Y2699079D01*
X18903001Y2676568D01*
X18885157Y2669176D01*
X18864912Y2663751D01*
X18841664Y2657522D01*
X18822514Y2655000D01*
X18777485Y2655000D01*
X18758332Y2657522D01*
X18747089Y2660535D01*
X18714842Y2669176D01*
X18696997Y2676568D01*
X18658006Y2699079D01*
X18642679Y2710839D01*
X18610837Y2742681D01*
X18599077Y2758007D01*
X18599076Y2758008D01*
X18576565Y2796999D01*
X18569174Y2814844D01*
X18557521Y2858337D01*
X18555000Y2877488D01*
X18555000Y2922517D01*
X18557521Y2941668D01*
X18561986Y2958333D01*
X18569173Y2985160D01*
X18576561Y3002997D01*
X18599081Y3042002D01*
X18610834Y3057319D01*
X18642681Y3089166D01*
X18657998Y3100919D01*
X18723884Y3138958D01*
X18732538Y3143226D01*
X18741823Y3147071D01*
X18774990Y3166222D01*
X18827896Y3206821D01*
X18845890Y3233752D01*
X18854202Y3239306D01*
X18858625Y3248274D01*
X18876917Y3254484D01*
X18892980Y3265217D01*
X18902787Y3263267D01*
X18912257Y3266481D01*
X18929582Y3257938D01*
G37*
%TD.AperFunction*%
%TA.AperFunction,Conductor*%
G36*
X22541662Y3142479D02*
G01*
X22556299Y3138558D01*
X22585157Y3130825D01*
X22603000Y3123435D01*
X22641995Y3100921D01*
X22657320Y3089162D01*
X22689161Y3057321D01*
X22700919Y3041997D01*
X22700920Y3041996D01*
X22723432Y3003005D01*
X22730825Y2985157D01*
X22742478Y2941669D01*
X22745000Y2922516D01*
X22745000Y2877487D01*
X22742478Y2858333D01*
X22730824Y2814844D01*
X22723432Y2796999D01*
X22700921Y2758008D01*
X22689161Y2742681D01*
X22657319Y2710839D01*
X22641992Y2699079D01*
X22603001Y2676568D01*
X22585157Y2669176D01*
X22564912Y2663751D01*
X22541664Y2657522D01*
X22522514Y2655000D01*
X22477485Y2655000D01*
X22458332Y2657522D01*
X22447089Y2660535D01*
X22414842Y2669176D01*
X22396997Y2676568D01*
X22358006Y2699079D01*
X22342679Y2710839D01*
X22310837Y2742681D01*
X22299077Y2758007D01*
X22299076Y2758008D01*
X22276565Y2796999D01*
X22269174Y2814844D01*
X22257521Y2858337D01*
X22255000Y2877488D01*
X22255000Y2922517D01*
X22257521Y2941668D01*
X22261986Y2958333D01*
X22269173Y2985160D01*
X22276561Y3002997D01*
X22299081Y3042002D01*
X22310834Y3057319D01*
X22342680Y3089165D01*
X22358001Y3100920D01*
X22396997Y3123435D01*
X22414843Y3130828D01*
X22445159Y3138950D01*
X22458333Y3142479D01*
X22477483Y3145000D01*
X22522511Y3145000D01*
X22541662Y3142479D01*
G37*
%TD.AperFunction*%
%TA.AperFunction,Conductor*%
G36*
X9041662Y3242479D02*
G01*
X9045570Y3241432D01*
X9085157Y3230825D01*
X9103000Y3223435D01*
X9141995Y3200921D01*
X9157320Y3189162D01*
X9189161Y3157321D01*
X9200919Y3141997D01*
X9200920Y3141996D01*
X9223432Y3103005D01*
X9230824Y3085159D01*
X9235760Y3066740D01*
X9242478Y3041669D01*
X9245000Y3022516D01*
X9245000Y2977487D01*
X9242478Y2958333D01*
X9230824Y2914844D01*
X9223432Y2896999D01*
X9200921Y2858008D01*
X9189161Y2842681D01*
X9157319Y2810839D01*
X9141992Y2799079D01*
X9103001Y2776568D01*
X9085157Y2769176D01*
X9064912Y2763751D01*
X9041664Y2757522D01*
X9022514Y2755000D01*
X8977485Y2755000D01*
X8958332Y2757522D01*
X8947089Y2760535D01*
X8914842Y2769176D01*
X8896997Y2776568D01*
X8858006Y2799079D01*
X8842679Y2810839D01*
X8810838Y2842680D01*
X8799078Y2858006D01*
X8799077Y2858008D01*
X8776563Y2897004D01*
X8769172Y2914848D01*
X8767117Y2922517D01*
X8761986Y2941670D01*
X8757521Y2958335D01*
X8755000Y2977486D01*
X8755000Y3022517D01*
X8757521Y3041668D01*
X8761715Y3057323D01*
X8769173Y3085160D01*
X8776561Y3102997D01*
X8799081Y3142002D01*
X8810834Y3157319D01*
X8842680Y3189165D01*
X8858001Y3200920D01*
X8868665Y3207077D01*
X8896998Y3223436D01*
X8914843Y3230828D01*
X8946489Y3239306D01*
X8958333Y3242479D01*
X8977483Y3245000D01*
X9022511Y3245000D01*
X9041662Y3242479D01*
G37*
%TD.AperFunction*%
%TA.AperFunction,Conductor*%
G36*
X11541662Y3242479D02*
G01*
X11545570Y3241432D01*
X11585157Y3230825D01*
X11603000Y3223435D01*
X11641995Y3200921D01*
X11657320Y3189162D01*
X11689161Y3157321D01*
X11700921Y3141994D01*
X11723432Y3103003D01*
X11730824Y3085158D01*
X11730825Y3085156D01*
X11742477Y3041670D01*
X11742478Y3041669D01*
X11745000Y3022515D01*
X11745000Y2977487D01*
X11742478Y2958333D01*
X11730824Y2914844D01*
X11723432Y2896999D01*
X11700921Y2858008D01*
X11689161Y2842681D01*
X11657319Y2810839D01*
X11641992Y2799079D01*
X11603001Y2776568D01*
X11585157Y2769176D01*
X11564912Y2763751D01*
X11541664Y2757522D01*
X11522514Y2755000D01*
X11477485Y2755000D01*
X11458332Y2757522D01*
X11447089Y2760535D01*
X11414842Y2769176D01*
X11396997Y2776568D01*
X11358006Y2799079D01*
X11342679Y2810839D01*
X11310838Y2842680D01*
X11299078Y2858006D01*
X11299077Y2858008D01*
X11276563Y2897004D01*
X11269172Y2914848D01*
X11267117Y2922517D01*
X11261986Y2941670D01*
X11257521Y2958335D01*
X11255000Y2977486D01*
X11255000Y3022517D01*
X11257521Y3041668D01*
X11261715Y3057323D01*
X11269173Y3085160D01*
X11276561Y3102997D01*
X11299081Y3142002D01*
X11310834Y3157319D01*
X11342680Y3189165D01*
X11358001Y3200920D01*
X11368665Y3207077D01*
X11396998Y3223436D01*
X11414843Y3230828D01*
X11446489Y3239306D01*
X11458333Y3242479D01*
X11477483Y3245000D01*
X11522511Y3245000D01*
X11541662Y3242479D01*
G37*
%TD.AperFunction*%
%TA.AperFunction,Conductor*%
G36*
X13715814Y3290420D02*
G01*
X13716634Y3290460D01*
X13718579Y3289870D01*
X13755799Y3282467D01*
X13913964Y3251006D01*
X13961055Y3219542D01*
X13973369Y3183269D01*
X13979468Y3090221D01*
X13992479Y3041663D01*
X13995000Y3022511D01*
X13995000Y2977487D01*
X13992478Y2958333D01*
X13980824Y2914844D01*
X13973432Y2896999D01*
X13950921Y2858008D01*
X13939161Y2842681D01*
X13907319Y2810839D01*
X13891992Y2799079D01*
X13853001Y2776568D01*
X13835157Y2769176D01*
X13814912Y2763751D01*
X13791664Y2757522D01*
X13772514Y2755000D01*
X13727485Y2755000D01*
X13708332Y2757522D01*
X13697089Y2760535D01*
X13664842Y2769176D01*
X13646997Y2776568D01*
X13608006Y2799079D01*
X13592679Y2810839D01*
X13560838Y2842680D01*
X13549078Y2858006D01*
X13549077Y2858008D01*
X13526563Y2897004D01*
X13519172Y2914848D01*
X13517117Y2922517D01*
X13511986Y2941670D01*
X13507521Y2958335D01*
X13505000Y2977486D01*
X13505000Y3022519D01*
X13507521Y3041670D01*
X13519173Y3085160D01*
X13526566Y3103006D01*
X13527804Y3105149D01*
X13549078Y3141997D01*
X13560839Y3157324D01*
X13574677Y3171161D01*
X13591516Y3189740D01*
X13600719Y3200954D01*
X13615655Y3221094D01*
X13626785Y3247966D01*
X13666831Y3288013D01*
X13714974Y3290379D01*
X13715014Y3290579D01*
X13715814Y3290420D01*
G37*
%TD.AperFunction*%
%TA.AperFunction,Conductor*%
G36*
X22541662Y4492479D02*
G01*
X22556299Y4488558D01*
X22585157Y4480825D01*
X22603000Y4473435D01*
X22641995Y4450921D01*
X22657320Y4439162D01*
X22689161Y4407321D01*
X22700920Y4391996D01*
X22708827Y4378301D01*
X22708828Y4378299D01*
X22723431Y4353005D01*
X22730823Y4335159D01*
X22742478Y4291663D01*
X22745000Y4272510D01*
X22745000Y4227487D01*
X22742478Y4208333D01*
X22730824Y4164844D01*
X22723432Y4146999D01*
X22700921Y4108008D01*
X22689161Y4092681D01*
X22657319Y4060839D01*
X22641992Y4049079D01*
X22603001Y4026568D01*
X22585157Y4019176D01*
X22564912Y4013751D01*
X22541664Y4007522D01*
X22522514Y4005000D01*
X22477485Y4005000D01*
X22458332Y4007522D01*
X22447089Y4010535D01*
X22414842Y4019176D01*
X22396997Y4026568D01*
X22358006Y4049079D01*
X22342679Y4060839D01*
X22310837Y4092681D01*
X22299077Y4108007D01*
X22299076Y4108008D01*
X22276565Y4146999D01*
X22269174Y4164844D01*
X22257521Y4208337D01*
X22255000Y4227488D01*
X22255000Y4272517D01*
X22257521Y4291668D01*
X22260360Y4302268D01*
X22269173Y4335160D01*
X22276561Y4352997D01*
X22299081Y4392002D01*
X22310834Y4407319D01*
X22342680Y4439165D01*
X22358001Y4450920D01*
X22396997Y4473435D01*
X22414843Y4480828D01*
X22445159Y4488950D01*
X22458333Y4492479D01*
X22477483Y4495000D01*
X22522511Y4495000D01*
X22541662Y4492479D01*
G37*
%TD.AperFunction*%
%TA.AperFunction,Conductor*%
G36*
X5641662Y5742479D02*
G01*
X5656299Y5738558D01*
X5685157Y5730825D01*
X5703000Y5723435D01*
X5741995Y5700921D01*
X5757320Y5689162D01*
X5789160Y5657322D01*
X5800919Y5641997D01*
X5800920Y5641996D01*
X5823430Y5603007D01*
X5830822Y5585161D01*
X5842478Y5541663D01*
X5845000Y5522509D01*
X5845000Y5477487D01*
X5842478Y5458333D01*
X5830824Y5414844D01*
X5823432Y5396999D01*
X5800921Y5358008D01*
X5789161Y5342681D01*
X5757320Y5310840D01*
X5741995Y5299081D01*
X5689911Y5269010D01*
X5631465Y5221044D01*
X5630196Y5220660D01*
X5629533Y5219512D01*
X5603284Y5212496D01*
X5577266Y5204603D01*
X5576096Y5205229D01*
X5574817Y5204886D01*
X5551298Y5218484D01*
X5527317Y5231302D01*
X5525817Y5233193D01*
X5525082Y5234152D01*
X5522307Y5238783D01*
X5519926Y5240872D01*
X5462571Y5291171D01*
X5459037Y5294481D01*
X5410838Y5342680D01*
X5399078Y5358006D01*
X5381366Y5388684D01*
X5376563Y5397004D01*
X5369172Y5414848D01*
X5364827Y5431064D01*
X5360641Y5446688D01*
X5357521Y5458335D01*
X5355000Y5477486D01*
X5355000Y5522517D01*
X5357521Y5541668D01*
X5362657Y5560839D01*
X5369174Y5585161D01*
X5376561Y5602997D01*
X5399081Y5642002D01*
X5410834Y5657319D01*
X5442680Y5689165D01*
X5458001Y5700920D01*
X5496997Y5723435D01*
X5514843Y5730828D01*
X5545159Y5738950D01*
X5558333Y5742479D01*
X5577483Y5745000D01*
X5622511Y5745000D01*
X5641662Y5742479D01*
G37*
%TD.AperFunction*%
%TA.AperFunction,Conductor*%
G36*
X9291662Y5992479D02*
G01*
X9305539Y5988761D01*
X9335157Y5980825D01*
X9353000Y5973435D01*
X9391995Y5950921D01*
X9407320Y5939162D01*
X9439160Y5907322D01*
X9450920Y5891996D01*
X9473430Y5853007D01*
X9480822Y5835160D01*
X9492478Y5791661D01*
X9495000Y5772508D01*
X9495000Y5727487D01*
X9492478Y5708333D01*
X9480824Y5664844D01*
X9473432Y5646999D01*
X9450921Y5608008D01*
X9439161Y5592681D01*
X9407319Y5560839D01*
X9391992Y5549079D01*
X9353001Y5526568D01*
X9335157Y5519176D01*
X9314912Y5513751D01*
X9291664Y5507522D01*
X9272514Y5505000D01*
X9227485Y5505000D01*
X9208332Y5507522D01*
X9197089Y5510535D01*
X9164842Y5519176D01*
X9146997Y5526568D01*
X9108006Y5549079D01*
X9092679Y5560839D01*
X9060837Y5592681D01*
X9049078Y5608006D01*
X9026568Y5646993D01*
X9019175Y5664838D01*
X9002996Y5725220D01*
X9001277Y5733513D01*
X8999947Y5742479D01*
X8993999Y5782585D01*
X8991246Y5791661D01*
X8981531Y5823688D01*
X8981530Y5823691D01*
X8981528Y5823697D01*
X8981521Y5823712D01*
X8962838Y5863215D01*
X8960059Y5919784D01*
X8998094Y5961749D01*
X9037942Y5967992D01*
X9037944Y5968051D01*
X9038258Y5968041D01*
X9039396Y5968220D01*
X9041577Y5967932D01*
X9141055Y5974452D01*
X9208334Y5992480D01*
X9227486Y5995000D01*
X9272511Y5995000D01*
X9291662Y5992479D01*
G37*
%TD.AperFunction*%
%TA.AperFunction,Conductor*%
G36*
X11541662Y6492479D02*
G01*
X11556299Y6488558D01*
X11585157Y6480825D01*
X11603000Y6473435D01*
X11641995Y6450921D01*
X11657320Y6439162D01*
X11689161Y6407321D01*
X11700919Y6391997D01*
X11700920Y6391996D01*
X11723432Y6353005D01*
X11730824Y6335160D01*
X11737341Y6310839D01*
X11742478Y6291669D01*
X11745000Y6272516D01*
X11745000Y6227487D01*
X11742478Y6208333D01*
X11730824Y6164844D01*
X11723432Y6146999D01*
X11700921Y6108008D01*
X11689161Y6092681D01*
X11657319Y6060839D01*
X11641992Y6049079D01*
X11603001Y6026568D01*
X11585157Y6019176D01*
X11564912Y6013751D01*
X11541664Y6007522D01*
X11522514Y6005000D01*
X11477485Y6005000D01*
X11458332Y6007522D01*
X11447089Y6010535D01*
X11414842Y6019176D01*
X11396997Y6026568D01*
X11358006Y6049079D01*
X11342679Y6060839D01*
X11310838Y6092680D01*
X11299078Y6108006D01*
X11299077Y6108008D01*
X11276563Y6147004D01*
X11269172Y6164848D01*
X11257521Y6208335D01*
X11255000Y6227486D01*
X11255000Y6272517D01*
X11257521Y6291668D01*
X11262657Y6310839D01*
X11269173Y6335160D01*
X11276561Y6352997D01*
X11299081Y6392002D01*
X11310834Y6407319D01*
X11342680Y6439165D01*
X11358001Y6450920D01*
X11396997Y6473435D01*
X11414843Y6480828D01*
X11445159Y6488950D01*
X11458333Y6492479D01*
X11477483Y6495000D01*
X11522511Y6495000D01*
X11541662Y6492479D01*
G37*
%TD.AperFunction*%
%TA.AperFunction,Conductor*%
G36*
X12791662Y6492479D02*
G01*
X12806299Y6488558D01*
X12835157Y6480825D01*
X12853000Y6473435D01*
X12891995Y6450921D01*
X12907320Y6439162D01*
X12939160Y6407322D01*
X12950919Y6391997D01*
X12950920Y6391996D01*
X12973430Y6353007D01*
X12980822Y6335160D01*
X12992478Y6291661D01*
X12995000Y6272508D01*
X12995000Y6227487D01*
X12992478Y6208333D01*
X12980824Y6164844D01*
X12973432Y6146999D01*
X12950921Y6108008D01*
X12939161Y6092681D01*
X12907319Y6060839D01*
X12891992Y6049079D01*
X12853001Y6026568D01*
X12835157Y6019176D01*
X12814912Y6013751D01*
X12791664Y6007522D01*
X12772514Y6005000D01*
X12727485Y6005000D01*
X12708332Y6007522D01*
X12697089Y6010535D01*
X12664842Y6019176D01*
X12646997Y6026568D01*
X12608006Y6049079D01*
X12592679Y6060839D01*
X12560838Y6092680D01*
X12549078Y6108006D01*
X12549077Y6108008D01*
X12526563Y6147004D01*
X12519172Y6164848D01*
X12507521Y6208335D01*
X12505000Y6227486D01*
X12505000Y6272517D01*
X12507521Y6291668D01*
X12512657Y6310839D01*
X12519173Y6335160D01*
X12526561Y6352997D01*
X12549081Y6392002D01*
X12560834Y6407319D01*
X12592680Y6439165D01*
X12608001Y6450920D01*
X12646997Y6473435D01*
X12664843Y6480828D01*
X12695159Y6488950D01*
X12708333Y6492479D01*
X12727483Y6495000D01*
X12772511Y6495000D01*
X12791662Y6492479D01*
G37*
%TD.AperFunction*%
%TA.AperFunction,Conductor*%
G36*
X20041662Y6742479D02*
G01*
X20056299Y6738558D01*
X20085157Y6730825D01*
X20103000Y6723435D01*
X20141995Y6700921D01*
X20157320Y6689162D01*
X20189160Y6657322D01*
X20200919Y6641997D01*
X20223431Y6603006D01*
X20230811Y6585207D01*
X20231034Y6584375D01*
X20231036Y6584369D01*
X20242478Y6541669D01*
X20245000Y6522516D01*
X20245000Y6477487D01*
X20242478Y6458335D01*
X20242478Y6458333D01*
X20230824Y6414844D01*
X20223432Y6396999D01*
X20200921Y6358008D01*
X20189161Y6342681D01*
X20157319Y6310839D01*
X20141992Y6299079D01*
X20103001Y6276568D01*
X20085157Y6269176D01*
X20064912Y6263751D01*
X20041664Y6257522D01*
X20022514Y6255000D01*
X19977485Y6255000D01*
X19958332Y6257522D01*
X19947089Y6260535D01*
X19914842Y6269176D01*
X19896997Y6276568D01*
X19858006Y6299079D01*
X19842679Y6310839D01*
X19810838Y6342680D01*
X19799078Y6358006D01*
X19779454Y6391996D01*
X19776564Y6397001D01*
X19769172Y6414848D01*
X19757521Y6458335D01*
X19755000Y6477486D01*
X19755000Y6522517D01*
X19757521Y6541668D01*
X19762657Y6560839D01*
X19769173Y6585160D01*
X19776561Y6602997D01*
X19799081Y6642002D01*
X19810834Y6657319D01*
X19842680Y6689165D01*
X19858001Y6700920D01*
X19896997Y6723435D01*
X19914843Y6730828D01*
X19945159Y6738950D01*
X19958333Y6742479D01*
X19977483Y6745000D01*
X20022511Y6745000D01*
X20041662Y6742479D01*
G37*
%TD.AperFunction*%
%TA.AperFunction,Conductor*%
G36*
X25291662Y6992479D02*
G01*
X25306299Y6988558D01*
X25335157Y6980825D01*
X25353000Y6973435D01*
X25391995Y6950921D01*
X25407320Y6939162D01*
X25439161Y6907321D01*
X25450921Y6891994D01*
X25473430Y6853006D01*
X25480822Y6835162D01*
X25484209Y6822523D01*
X25492478Y6791662D01*
X25495000Y6772511D01*
X25495000Y6727487D01*
X25492478Y6708333D01*
X25480824Y6664844D01*
X25473432Y6646999D01*
X25450921Y6608008D01*
X25439161Y6592681D01*
X25407319Y6560839D01*
X25391992Y6549079D01*
X25353001Y6526568D01*
X25335157Y6519176D01*
X25314912Y6513751D01*
X25291664Y6507522D01*
X25272514Y6505000D01*
X25227485Y6505000D01*
X25208332Y6507522D01*
X25197089Y6510535D01*
X25164842Y6519176D01*
X25146997Y6526568D01*
X25108006Y6549079D01*
X25092679Y6560839D01*
X25060838Y6592680D01*
X25049078Y6608006D01*
X25047684Y6610421D01*
X25026563Y6647004D01*
X25019172Y6664848D01*
X25007521Y6708335D01*
X25005000Y6727486D01*
X25005000Y6772517D01*
X25007521Y6791668D01*
X25018997Y6834500D01*
X25019175Y6835162D01*
X25026561Y6852997D01*
X25049081Y6892002D01*
X25060834Y6907319D01*
X25092680Y6939165D01*
X25108001Y6950920D01*
X25146997Y6973435D01*
X25164843Y6980828D01*
X25195159Y6988950D01*
X25208333Y6992479D01*
X25227483Y6995000D01*
X25272511Y6995000D01*
X25291662Y6992479D01*
G37*
%TD.AperFunction*%
%TA.AperFunction,Conductor*%
G36*
X6441662Y7742479D02*
G01*
X6456299Y7738558D01*
X6485157Y7730825D01*
X6503000Y7723435D01*
X6541995Y7700921D01*
X6557320Y7689162D01*
X6589160Y7657322D01*
X6600919Y7641997D01*
X6600920Y7641996D01*
X6623430Y7603007D01*
X6630822Y7585160D01*
X6642478Y7541661D01*
X6645000Y7522508D01*
X6645000Y7477487D01*
X6642478Y7458333D01*
X6630824Y7414844D01*
X6623432Y7396999D01*
X6600921Y7358008D01*
X6589161Y7342681D01*
X6557319Y7310839D01*
X6541992Y7299079D01*
X6503001Y7276568D01*
X6485157Y7269176D01*
X6464912Y7263751D01*
X6441664Y7257522D01*
X6422514Y7255000D01*
X6377485Y7255000D01*
X6358332Y7257522D01*
X6347089Y7260535D01*
X6314842Y7269176D01*
X6296997Y7276568D01*
X6258006Y7299079D01*
X6242679Y7310839D01*
X6210838Y7342680D01*
X6199078Y7358006D01*
X6185222Y7382005D01*
X6176563Y7397004D01*
X6169172Y7414848D01*
X6157521Y7458335D01*
X6155000Y7477486D01*
X6155000Y7522517D01*
X6157521Y7541668D01*
X6164827Y7568937D01*
X6169173Y7585160D01*
X6176561Y7602997D01*
X6199081Y7642002D01*
X6210834Y7657319D01*
X6242680Y7689165D01*
X6258001Y7700920D01*
X6283411Y7715591D01*
X6296998Y7723436D01*
X6314843Y7730828D01*
X6345159Y7738950D01*
X6358333Y7742479D01*
X6377483Y7745000D01*
X6422511Y7745000D01*
X6441662Y7742479D01*
G37*
%TD.AperFunction*%
%TA.AperFunction,Conductor*%
G36*
X29541662Y8242479D02*
G01*
X29556299Y8238558D01*
X29585157Y8230825D01*
X29603000Y8223435D01*
X29641995Y8200921D01*
X29657320Y8189162D01*
X29689161Y8157321D01*
X29700919Y8141997D01*
X29700920Y8141996D01*
X29723432Y8103005D01*
X29730825Y8085157D01*
X29742478Y8041669D01*
X29745000Y8022516D01*
X29745000Y7977487D01*
X29742478Y7958333D01*
X29730824Y7914844D01*
X29723432Y7896999D01*
X29700921Y7858008D01*
X29689161Y7842681D01*
X29657319Y7810839D01*
X29641992Y7799079D01*
X29603001Y7776568D01*
X29585157Y7769176D01*
X29564912Y7763751D01*
X29541664Y7757522D01*
X29522514Y7755000D01*
X29477485Y7755000D01*
X29458332Y7757522D01*
X29447089Y7760535D01*
X29414842Y7769176D01*
X29396997Y7776568D01*
X29358006Y7799079D01*
X29342679Y7810839D01*
X29310837Y7842681D01*
X29299077Y7858007D01*
X29299076Y7858008D01*
X29276565Y7896999D01*
X29269174Y7914844D01*
X29257521Y7958337D01*
X29255000Y7977488D01*
X29255000Y8022517D01*
X29257521Y8041668D01*
X29265520Y8071523D01*
X29269173Y8085160D01*
X29276561Y8102997D01*
X29299081Y8142002D01*
X29310834Y8157319D01*
X29342680Y8189165D01*
X29358001Y8200920D01*
X29396997Y8223435D01*
X29414843Y8230828D01*
X29445159Y8238950D01*
X29458333Y8242479D01*
X29477483Y8245000D01*
X29522511Y8245000D01*
X29541662Y8242479D01*
G37*
%TD.AperFunction*%
%TA.AperFunction,Conductor*%
G36*
X12041662Y9242479D02*
G01*
X12056299Y9238558D01*
X12085157Y9230825D01*
X12103000Y9223435D01*
X12141995Y9200921D01*
X12157320Y9189162D01*
X12189161Y9157321D01*
X12200919Y9141997D01*
X12200920Y9141996D01*
X12223431Y9103007D01*
X12230824Y9085160D01*
X12232662Y9078301D01*
X12232662Y9078300D01*
X12242478Y9041668D01*
X12245000Y9022515D01*
X12245000Y8977487D01*
X12242478Y8958333D01*
X12230824Y8914844D01*
X12223432Y8896999D01*
X12200921Y8858008D01*
X12189161Y8842681D01*
X12157319Y8810839D01*
X12141992Y8799079D01*
X12103001Y8776568D01*
X12085157Y8769176D01*
X12064912Y8763751D01*
X12041664Y8757522D01*
X12022514Y8755000D01*
X11977485Y8755000D01*
X11958332Y8757522D01*
X11947089Y8760535D01*
X11914842Y8769176D01*
X11896997Y8776568D01*
X11858006Y8799079D01*
X11842679Y8810839D01*
X11810837Y8842681D01*
X11799077Y8858007D01*
X11799076Y8858008D01*
X11776565Y8896999D01*
X11769174Y8914844D01*
X11757521Y8958337D01*
X11755000Y8977488D01*
X11755000Y9022517D01*
X11757521Y9041668D01*
X11760360Y9052268D01*
X11769173Y9085160D01*
X11776561Y9102997D01*
X11799081Y9142002D01*
X11810834Y9157319D01*
X11842680Y9189165D01*
X11858001Y9200920D01*
X11896997Y9223435D01*
X11914843Y9230828D01*
X11945159Y9238950D01*
X11958333Y9242479D01*
X11977483Y9245000D01*
X12022511Y9245000D01*
X12041662Y9242479D01*
G37*
%TD.AperFunction*%
%TA.AperFunction,Conductor*%
G36*
X17541662Y9242479D02*
G01*
X17556299Y9238558D01*
X17585157Y9230825D01*
X17603000Y9223435D01*
X17641995Y9200921D01*
X17657320Y9189162D01*
X17689161Y9157321D01*
X17700919Y9141997D01*
X17700920Y9141996D01*
X17723431Y9103007D01*
X17730824Y9085160D01*
X17732662Y9078301D01*
X17732662Y9078300D01*
X17742478Y9041668D01*
X17745000Y9022515D01*
X17745000Y8977487D01*
X17742478Y8958333D01*
X17730824Y8914844D01*
X17723432Y8896999D01*
X17700921Y8858008D01*
X17689161Y8842681D01*
X17657319Y8810839D01*
X17641992Y8799079D01*
X17603001Y8776568D01*
X17585157Y8769176D01*
X17564912Y8763751D01*
X17541664Y8757522D01*
X17522514Y8755000D01*
X17477485Y8755000D01*
X17458332Y8757522D01*
X17447089Y8760535D01*
X17414842Y8769176D01*
X17396997Y8776568D01*
X17358006Y8799079D01*
X17342679Y8810839D01*
X17310837Y8842681D01*
X17299077Y8858007D01*
X17299076Y8858008D01*
X17276565Y8896999D01*
X17269174Y8914844D01*
X17257521Y8958337D01*
X17255000Y8977488D01*
X17255000Y9022517D01*
X17257521Y9041668D01*
X17260360Y9052268D01*
X17269173Y9085160D01*
X17276561Y9102997D01*
X17299081Y9142002D01*
X17310834Y9157319D01*
X17342680Y9189165D01*
X17358001Y9200920D01*
X17396997Y9223435D01*
X17414843Y9230828D01*
X17445159Y9238950D01*
X17458333Y9242479D01*
X17477483Y9245000D01*
X17522511Y9245000D01*
X17541662Y9242479D01*
G37*
%TD.AperFunction*%
%TA.AperFunction,Conductor*%
G36*
X22541662Y9242479D02*
G01*
X22556299Y9238558D01*
X22585157Y9230825D01*
X22603000Y9223435D01*
X22641995Y9200921D01*
X22657320Y9189162D01*
X22689161Y9157321D01*
X22700919Y9141997D01*
X22700920Y9141996D01*
X22723431Y9103007D01*
X22730824Y9085160D01*
X22732662Y9078301D01*
X22732662Y9078300D01*
X22742478Y9041668D01*
X22745000Y9022515D01*
X22745000Y8977487D01*
X22742478Y8958333D01*
X22730824Y8914844D01*
X22723432Y8896999D01*
X22700921Y8858008D01*
X22689161Y8842681D01*
X22657319Y8810839D01*
X22641992Y8799079D01*
X22603001Y8776568D01*
X22585157Y8769176D01*
X22564912Y8763751D01*
X22541664Y8757522D01*
X22522514Y8755000D01*
X22477485Y8755000D01*
X22458332Y8757522D01*
X22447089Y8760535D01*
X22414842Y8769176D01*
X22396997Y8776568D01*
X22358006Y8799079D01*
X22342679Y8810839D01*
X22310837Y8842681D01*
X22299077Y8858007D01*
X22299076Y8858008D01*
X22276565Y8896999D01*
X22269174Y8914844D01*
X22257521Y8958337D01*
X22255000Y8977488D01*
X22255000Y9022517D01*
X22257521Y9041668D01*
X22260360Y9052268D01*
X22269173Y9085160D01*
X22276561Y9102997D01*
X22299081Y9142002D01*
X22310834Y9157319D01*
X22342680Y9189165D01*
X22358001Y9200920D01*
X22396997Y9223435D01*
X22414843Y9230828D01*
X22445159Y9238950D01*
X22458333Y9242479D01*
X22477483Y9245000D01*
X22522511Y9245000D01*
X22541662Y9242479D01*
G37*
%TD.AperFunction*%
%TA.AperFunction,Conductor*%
G36*
X10291662Y10242479D02*
G01*
X10306299Y10238558D01*
X10335157Y10230825D01*
X10353000Y10223435D01*
X10391995Y10200921D01*
X10407320Y10189162D01*
X10439161Y10157321D01*
X10450919Y10141997D01*
X10450920Y10141996D01*
X10473432Y10103005D01*
X10480825Y10085157D01*
X10492478Y10041669D01*
X10495000Y10022516D01*
X10495000Y9977487D01*
X10492478Y9958333D01*
X10480824Y9914844D01*
X10473432Y9896999D01*
X10450921Y9858008D01*
X10439161Y9842681D01*
X10407319Y9810839D01*
X10391992Y9799079D01*
X10353001Y9776568D01*
X10335157Y9769176D01*
X10317518Y9764449D01*
X10291664Y9757522D01*
X10272514Y9755000D01*
X10227485Y9755000D01*
X10208332Y9757522D01*
X10197089Y9760535D01*
X10164842Y9769176D01*
X10146997Y9776568D01*
X10108006Y9799079D01*
X10092679Y9810839D01*
X10060838Y9842680D01*
X10049078Y9858006D01*
X10049077Y9858008D01*
X10026563Y9897004D01*
X10019172Y9914848D01*
X10007521Y9958335D01*
X10005000Y9977486D01*
X10005000Y10022517D01*
X10007521Y10041668D01*
X10014702Y10068469D01*
X10019173Y10085160D01*
X10026561Y10102997D01*
X10049081Y10142002D01*
X10060834Y10157319D01*
X10092680Y10189165D01*
X10108001Y10200920D01*
X10146997Y10223435D01*
X10164843Y10230828D01*
X10195159Y10238950D01*
X10208333Y10242479D01*
X10227483Y10245000D01*
X10272511Y10245000D01*
X10291662Y10242479D01*
G37*
%TD.AperFunction*%
%TA.AperFunction,Conductor*%
G36*
X29241664Y10442480D02*
G01*
X29315220Y10422770D01*
X29348004Y10416249D01*
X29367156Y10413728D01*
X29400499Y10411543D01*
X29400500Y10411544D01*
X29405340Y10411226D01*
X29456136Y10386175D01*
X29474500Y10337384D01*
X29474500Y10326084D01*
X29503810Y10178732D01*
X29492761Y10123183D01*
X29472345Y10102767D01*
X29402737Y10056255D01*
X29402732Y10056251D01*
X29357318Y10010838D01*
X29341992Y9999079D01*
X29303001Y9976568D01*
X29285157Y9969176D01*
X29264912Y9963751D01*
X29241664Y9957522D01*
X29222514Y9955000D01*
X29177485Y9955000D01*
X29158332Y9957522D01*
X29147089Y9960535D01*
X29114842Y9969176D01*
X29096997Y9976568D01*
X29058006Y9999079D01*
X29042679Y10010839D01*
X29010837Y10042681D01*
X28999077Y10058007D01*
X28976567Y10096995D01*
X28969174Y10114844D01*
X28957521Y10158337D01*
X28955000Y10177488D01*
X28955000Y10222517D01*
X28957521Y10241668D01*
X28960360Y10252268D01*
X28969173Y10285160D01*
X28976561Y10302997D01*
X28999081Y10342002D01*
X29010834Y10357319D01*
X29042680Y10389165D01*
X29058001Y10400920D01*
X29076400Y10411543D01*
X29096998Y10423436D01*
X29114843Y10430828D01*
X29145159Y10438950D01*
X29158333Y10442479D01*
X29177483Y10445000D01*
X29222513Y10445000D01*
X29241664Y10442480D01*
G37*
%TD.AperFunction*%
%TD*%
%TA.AperFunction,Conductor*%
%TO.N,+4V5*%
G36*
X6163860Y11378326D02*
G01*
X6192686Y11349500D01*
X6306814Y11283608D01*
X6434105Y11249501D01*
X6434106Y11249500D01*
X6434108Y11249500D01*
X6565894Y11249500D01*
X6565894Y11249501D01*
X6693186Y11283608D01*
X6807314Y11349500D01*
X6836140Y11378326D01*
X6888466Y11400000D01*
X11524840Y11400000D01*
X11577166Y11378326D01*
X11598840Y11326000D01*
X11588926Y11289000D01*
X11533610Y11193191D01*
X11533606Y11193182D01*
X11499500Y11065895D01*
X11499500Y10934106D01*
X11533606Y10806819D01*
X11533610Y10806810D01*
X11556946Y10766392D01*
X11599500Y10692686D01*
X11692686Y10599500D01*
X11806814Y10533608D01*
X11934105Y10499501D01*
X11934106Y10499500D01*
X11934108Y10499500D01*
X12065894Y10499500D01*
X12065894Y10499501D01*
X12193186Y10533608D01*
X12307314Y10599500D01*
X12400500Y10692686D01*
X12466392Y10806814D01*
X12500499Y10934106D01*
X12500500Y10934106D01*
X12500500Y11065894D01*
X12500499Y11065895D01*
X12491494Y11099501D01*
X12466392Y11193186D01*
X12433879Y11249500D01*
X12411074Y11289000D01*
X12403682Y11345153D01*
X12438160Y11390086D01*
X12475160Y11400000D01*
X17024840Y11400000D01*
X17077166Y11378326D01*
X17098840Y11326000D01*
X17088926Y11289000D01*
X17033610Y11193191D01*
X17033606Y11193182D01*
X16999500Y11065895D01*
X16999500Y10934106D01*
X17033606Y10806819D01*
X17033610Y10806810D01*
X17056946Y10766392D01*
X17099500Y10692686D01*
X17192686Y10599500D01*
X17306814Y10533608D01*
X17434105Y10499501D01*
X17434106Y10499500D01*
X17434108Y10499500D01*
X17565894Y10499500D01*
X17565894Y10499501D01*
X17693186Y10533608D01*
X17807314Y10599500D01*
X17900500Y10692686D01*
X17966392Y10806814D01*
X18000499Y10934106D01*
X18000500Y10934106D01*
X18000500Y11065894D01*
X18000499Y11065895D01*
X17991494Y11099501D01*
X17966392Y11193186D01*
X17933879Y11249500D01*
X17911074Y11289000D01*
X17903682Y11345153D01*
X17938160Y11390086D01*
X17975160Y11400000D01*
X24701857Y11400000D01*
X24754183Y11378326D01*
X24773334Y11345154D01*
X24773604Y11344151D01*
X24783608Y11306813D01*
X24816698Y11249500D01*
X24849500Y11192686D01*
X24942686Y11099500D01*
X25056814Y11033608D01*
X25184105Y10999501D01*
X25184106Y10999500D01*
X25184108Y10999500D01*
X25315894Y10999500D01*
X25315894Y10999501D01*
X25443186Y11033608D01*
X25557314Y11099500D01*
X25650500Y11192686D01*
X25716392Y11306814D01*
X25726664Y11345154D01*
X25761143Y11390086D01*
X25798143Y11400000D01*
X29400500Y11400000D01*
X29452826Y11378326D01*
X29474500Y11326000D01*
X29474500Y10741043D01*
X29452826Y10688717D01*
X29400500Y10667043D01*
X29381348Y10669564D01*
X29265892Y10700500D01*
X29134108Y10700500D01*
X29134106Y10700500D01*
X29006818Y10666394D01*
X29006809Y10666390D01*
X28892685Y10600500D01*
X28799500Y10507315D01*
X28733610Y10393191D01*
X28733606Y10393182D01*
X28699500Y10265895D01*
X28699500Y10134106D01*
X28733606Y10006819D01*
X28733607Y10006816D01*
X28733608Y10006814D01*
X28799500Y9892686D01*
X28892686Y9799500D01*
X29006814Y9733608D01*
X29134105Y9699501D01*
X29134106Y9699500D01*
X29134108Y9699500D01*
X29265894Y9699500D01*
X29265894Y9699501D01*
X29393186Y9733608D01*
X29507314Y9799500D01*
X29583398Y9875585D01*
X29635723Y9897258D01*
X29688049Y9875584D01*
X29746584Y9817049D01*
X29869505Y9734916D01*
X29955004Y9699501D01*
X30006087Y9678342D01*
X30151082Y9649500D01*
X30151084Y9649500D01*
X30298916Y9649500D01*
X30298918Y9649500D01*
X30443913Y9678342D01*
X30580495Y9734916D01*
X30703416Y9817049D01*
X30807951Y9921584D01*
X30890084Y10044505D01*
X30946658Y10181087D01*
X30975500Y10326082D01*
X30975500Y11326000D01*
X30997174Y11378326D01*
X31049500Y11400000D01*
X34926000Y11400000D01*
X34978326Y11378326D01*
X35000000Y11326000D01*
X35000000Y8071523D01*
X34978326Y8019197D01*
X34945153Y8000045D01*
X34819567Y7966394D01*
X34819558Y7966390D01*
X34705434Y7900500D01*
X34612249Y7807315D01*
X34546359Y7693191D01*
X34546355Y7693182D01*
X34512249Y7565895D01*
X34512249Y7434106D01*
X34546355Y7306819D01*
X34546359Y7306810D01*
X34553849Y7293837D01*
X34612249Y7192686D01*
X34705435Y7099500D01*
X34819563Y7033608D01*
X34819567Y7033607D01*
X34945153Y6999956D01*
X34990086Y6965478D01*
X35000000Y6928478D01*
X35000000Y2074000D01*
X34978326Y2021674D01*
X34926000Y2000000D01*
X28875160Y2000000D01*
X28822834Y2021674D01*
X28801160Y2074000D01*
X28811074Y2111000D01*
X28858235Y2192686D01*
X28866392Y2206814D01*
X28900499Y2334106D01*
X28900500Y2334106D01*
X28900500Y2465894D01*
X28900499Y2465895D01*
X28891494Y2499501D01*
X28866392Y2593186D01*
X28800500Y2707314D01*
X28707314Y2800500D01*
X28649107Y2834106D01*
X28593190Y2866390D01*
X28593181Y2866394D01*
X28465894Y2900500D01*
X28465892Y2900500D01*
X28334108Y2900500D01*
X28334106Y2900500D01*
X28206818Y2866394D01*
X28206809Y2866390D01*
X28092685Y2800500D01*
X27999500Y2707315D01*
X27933610Y2593191D01*
X27933606Y2593182D01*
X27899500Y2465895D01*
X27899500Y2334106D01*
X27933606Y2206819D01*
X27933610Y2206810D01*
X27988926Y2111000D01*
X27996318Y2054847D01*
X27961840Y2009914D01*
X27924840Y2000000D01*
X25675160Y2000000D01*
X25622834Y2021674D01*
X25601160Y2074000D01*
X25611074Y2111000D01*
X25658235Y2192686D01*
X25666392Y2206814D01*
X25700499Y2334106D01*
X25700500Y2334106D01*
X25700500Y2465894D01*
X25700499Y2465895D01*
X25691494Y2499501D01*
X25666392Y2593186D01*
X25600500Y2707314D01*
X25507314Y2800500D01*
X25449107Y2834106D01*
X25393190Y2866390D01*
X25393181Y2866394D01*
X25265894Y2900500D01*
X25265892Y2900500D01*
X25134108Y2900500D01*
X25134106Y2900500D01*
X25006818Y2866394D01*
X25006809Y2866390D01*
X24892685Y2800500D01*
X24799500Y2707315D01*
X24733610Y2593191D01*
X24733606Y2593182D01*
X24699500Y2465895D01*
X24699500Y2334106D01*
X24733606Y2206819D01*
X24733610Y2206810D01*
X24788926Y2111000D01*
X24796318Y2054847D01*
X24761840Y2009914D01*
X24724840Y2000000D01*
X8885948Y2000000D01*
X8833622Y2021674D01*
X8824419Y2032888D01*
X8793837Y2078658D01*
X8658657Y2213838D01*
X8499703Y2320047D01*
X8323088Y2393203D01*
X8323078Y2393206D01*
X8197518Y2418181D01*
X8135586Y2430500D01*
X7944414Y2430500D01*
X7891260Y2419928D01*
X7756921Y2393206D01*
X7756911Y2393203D01*
X7580296Y2320047D01*
X7421342Y2213838D01*
X7421341Y2213836D01*
X7286164Y2078659D01*
X7286162Y2078658D01*
X7255581Y2032888D01*
X7208489Y2001422D01*
X7194052Y2000000D01*
X3386466Y2000000D01*
X3334140Y2021674D01*
X3312466Y2074000D01*
X3334140Y2126326D01*
X3400500Y2192686D01*
X3466392Y2306814D01*
X3500499Y2434106D01*
X3500500Y2434106D01*
X3500500Y2565894D01*
X3500499Y2565895D01*
X3493320Y2592686D01*
X3466392Y2693186D01*
X3418137Y2776766D01*
X3410484Y2831915D01*
X3730207Y4095585D01*
X4529500Y4095585D01*
X4529500Y3904416D01*
X4566794Y3716922D01*
X4566797Y3716912D01*
X4639953Y3540297D01*
X4746162Y3381343D01*
X4881342Y3246163D01*
X5040296Y3139954D01*
X5153204Y3093186D01*
X5216916Y3066796D01*
X5404414Y3029500D01*
X5404416Y3029500D01*
X5595584Y3029500D01*
X5595586Y3029500D01*
X5783084Y3066796D01*
X5928215Y3126911D01*
X5984852Y3126911D01*
X6024900Y3086863D01*
X6028011Y3077699D01*
X6033607Y3056816D01*
X6033608Y3056813D01*
X6066121Y3000500D01*
X6099500Y2942686D01*
X6192686Y2849500D01*
X6306814Y2783608D01*
X6434105Y2749501D01*
X6434106Y2749500D01*
X6434108Y2749500D01*
X6565894Y2749500D01*
X6565894Y2749501D01*
X6693186Y2783608D01*
X6807314Y2849500D01*
X6900500Y2942686D01*
X6966392Y3056814D01*
X6968825Y3065895D01*
X8499500Y3065895D01*
X8499500Y2934106D01*
X8533606Y2806819D01*
X8533610Y2806810D01*
X8550956Y2776766D01*
X8599500Y2692686D01*
X8692686Y2599500D01*
X8806814Y2533608D01*
X8934105Y2499501D01*
X8934106Y2499500D01*
X8934108Y2499500D01*
X9065894Y2499500D01*
X9065894Y2499501D01*
X9193186Y2533608D01*
X9307314Y2599500D01*
X9400500Y2692686D01*
X9466392Y2806814D01*
X9500499Y2934106D01*
X9500500Y2934106D01*
X9500500Y3065894D01*
X9500499Y3065895D01*
X10999500Y3065895D01*
X10999500Y2934106D01*
X11033606Y2806819D01*
X11033610Y2806810D01*
X11050956Y2776766D01*
X11099500Y2692686D01*
X11192686Y2599500D01*
X11306814Y2533608D01*
X11434105Y2499501D01*
X11434106Y2499500D01*
X11434108Y2499500D01*
X11565894Y2499500D01*
X11565894Y2499501D01*
X11693186Y2533608D01*
X11807314Y2599500D01*
X11900500Y2692686D01*
X11966392Y2806814D01*
X12000499Y2934106D01*
X12000500Y2934106D01*
X12000500Y3065894D01*
X12000499Y3065895D01*
X12000257Y3066797D01*
X11966392Y3193186D01*
X11900500Y3307314D01*
X11807314Y3400500D01*
X11733380Y3443186D01*
X11693190Y3466390D01*
X11693181Y3466394D01*
X11565894Y3500500D01*
X11565892Y3500500D01*
X11434108Y3500500D01*
X11434106Y3500500D01*
X11306818Y3466394D01*
X11306809Y3466390D01*
X11192685Y3400500D01*
X11099500Y3307315D01*
X11033610Y3193191D01*
X11033606Y3193182D01*
X10999500Y3065895D01*
X9500499Y3065895D01*
X9500257Y3066797D01*
X9466392Y3193186D01*
X9400500Y3307314D01*
X9307314Y3400500D01*
X9233380Y3443186D01*
X9193190Y3466390D01*
X9193181Y3466394D01*
X9065894Y3500500D01*
X9065892Y3500500D01*
X8934108Y3500500D01*
X8934106Y3500500D01*
X8806818Y3466394D01*
X8806809Y3466390D01*
X8692685Y3400500D01*
X8599500Y3307315D01*
X8533610Y3193191D01*
X8533606Y3193182D01*
X8499500Y3065895D01*
X6968825Y3065895D01*
X7000499Y3184106D01*
X7000500Y3184106D01*
X7000500Y3315894D01*
X7000499Y3315895D01*
X6987866Y3363041D01*
X6966392Y3443186D01*
X6900500Y3557314D01*
X6807314Y3650500D01*
X6693190Y3716390D01*
X6693181Y3716394D01*
X6565894Y3750500D01*
X6565892Y3750500D01*
X6530053Y3750500D01*
X6477727Y3772174D01*
X6456053Y3824500D01*
X6457474Y3838932D01*
X6470500Y3904414D01*
X6470500Y4095586D01*
X6442557Y4236064D01*
X6453606Y4291612D01*
X6500698Y4323078D01*
X6515135Y4324500D01*
X6619111Y4324500D01*
X6619111Y4324501D01*
X6746403Y4358608D01*
X6824097Y4403465D01*
X12974500Y4403465D01*
X12974500Y4196536D01*
X13014868Y3993587D01*
X13014870Y3993580D01*
X13094059Y3802402D01*
X13209022Y3630346D01*
X13355344Y3484024D01*
X13355349Y3484020D01*
X13382796Y3465681D01*
X13414263Y3418590D01*
X13403214Y3363041D01*
X13394011Y3351827D01*
X13349501Y3307317D01*
X13283610Y3193191D01*
X13283606Y3193182D01*
X13249500Y3065895D01*
X13249500Y2934106D01*
X13283606Y2806819D01*
X13283610Y2806810D01*
X13300956Y2776766D01*
X13349500Y2692686D01*
X13442686Y2599500D01*
X13556814Y2533608D01*
X13684105Y2499501D01*
X13684106Y2499500D01*
X13684108Y2499500D01*
X13815894Y2499500D01*
X13815894Y2499501D01*
X13943186Y2533608D01*
X14057314Y2599500D01*
X14150500Y2692686D01*
X14216392Y2806814D01*
X14250499Y2934106D01*
X14250500Y2934106D01*
X14250500Y3065894D01*
X14250499Y3065895D01*
X14250257Y3066797D01*
X14226263Y3156347D01*
X14233655Y3212500D01*
X14278588Y3246978D01*
X14297741Y3249500D01*
X15378464Y3249500D01*
X15378465Y3249500D01*
X15581420Y3289870D01*
X15772598Y3369059D01*
X15944655Y3484023D01*
X16090977Y3630345D01*
X16205941Y3802402D01*
X16285130Y3993580D01*
X16325500Y4196535D01*
X16325500Y4403465D01*
X18274500Y4403465D01*
X18274500Y4196536D01*
X18314868Y3993587D01*
X18314870Y3993580D01*
X18394059Y3802402D01*
X18509022Y3630346D01*
X18647230Y3492138D01*
X18668904Y3439812D01*
X18647230Y3387486D01*
X18614063Y3368335D01*
X18606817Y3366393D01*
X18606809Y3366390D01*
X18492685Y3300500D01*
X18399500Y3207315D01*
X18333610Y3093191D01*
X18333606Y3093182D01*
X18299500Y2965895D01*
X18299500Y2834106D01*
X18333606Y2706819D01*
X18333607Y2706816D01*
X18333608Y2706814D01*
X18399500Y2592686D01*
X18492686Y2499500D01*
X18606814Y2433608D01*
X18734105Y2399501D01*
X18734106Y2399500D01*
X18734108Y2399500D01*
X18865894Y2399500D01*
X18865894Y2399501D01*
X18993186Y2433608D01*
X19107314Y2499500D01*
X19200500Y2592686D01*
X19266392Y2706814D01*
X19300499Y2834106D01*
X19300500Y2834106D01*
X19300500Y2965894D01*
X19300499Y2965895D01*
X21999500Y2965895D01*
X21999500Y2834106D01*
X22033606Y2706819D01*
X22033607Y2706816D01*
X22033608Y2706814D01*
X22099500Y2592686D01*
X22192686Y2499500D01*
X22306814Y2433608D01*
X22434105Y2399501D01*
X22434106Y2399500D01*
X22434108Y2399500D01*
X22565894Y2399500D01*
X22565894Y2399501D01*
X22693186Y2433608D01*
X22807314Y2499500D01*
X22900500Y2592686D01*
X22966392Y2706814D01*
X23000499Y2834106D01*
X23000500Y2834106D01*
X23000500Y2965894D01*
X23000499Y2965895D01*
X22973704Y3065895D01*
X22966392Y3093186D01*
X22900500Y3207314D01*
X22807314Y3300500D01*
X22780649Y3315895D01*
X22693190Y3366390D01*
X22693181Y3366394D01*
X22565894Y3400500D01*
X22565892Y3400500D01*
X22434108Y3400500D01*
X22434106Y3400500D01*
X22306818Y3366394D01*
X22306809Y3366390D01*
X22192685Y3300500D01*
X22099500Y3207315D01*
X22033610Y3093191D01*
X22033606Y3093182D01*
X21999500Y2965895D01*
X19300499Y2965895D01*
X19273704Y3065895D01*
X19266392Y3093186D01*
X19240230Y3138500D01*
X19232837Y3194653D01*
X19267316Y3239586D01*
X19304316Y3249500D01*
X20678464Y3249500D01*
X20678465Y3249500D01*
X20881420Y3289870D01*
X21072598Y3369059D01*
X21244655Y3484023D01*
X21390977Y3630345D01*
X21505941Y3802402D01*
X21585130Y3993580D01*
X21625500Y4196535D01*
X21625500Y4315895D01*
X21999500Y4315895D01*
X21999500Y4184106D01*
X22033606Y4056819D01*
X22033607Y4056816D01*
X22033608Y4056814D01*
X22099500Y3942686D01*
X22192686Y3849500D01*
X22306814Y3783608D01*
X22434105Y3749501D01*
X22434106Y3749500D01*
X22434108Y3749500D01*
X22565894Y3749500D01*
X22565894Y3749501D01*
X22693186Y3783608D01*
X22807314Y3849500D01*
X22900500Y3942686D01*
X22966392Y4056814D01*
X23000499Y4184106D01*
X23000500Y4184106D01*
X23000500Y4315894D01*
X23000499Y4315895D01*
X22998574Y4323078D01*
X22977035Y4403465D01*
X23574500Y4403465D01*
X23574500Y4196536D01*
X23614868Y3993587D01*
X23614870Y3993580D01*
X23694059Y3802402D01*
X23751528Y3716392D01*
X23809023Y3630345D01*
X23955345Y3484023D01*
X24127402Y3369059D01*
X24318580Y3289870D01*
X24521535Y3249500D01*
X24521536Y3249500D01*
X25978464Y3249500D01*
X25978465Y3249500D01*
X26181420Y3289870D01*
X26372598Y3369059D01*
X26544655Y3484023D01*
X26690977Y3630345D01*
X26805941Y3802402D01*
X26885130Y3993580D01*
X26925500Y4196535D01*
X26925500Y4403465D01*
X26885130Y4606420D01*
X26805941Y4797598D01*
X26690977Y4969655D01*
X26557167Y5103465D01*
X29949500Y5103465D01*
X29949500Y4896535D01*
X29952006Y4883935D01*
X29989868Y4693587D01*
X29989870Y4693580D01*
X30069059Y4502402D01*
X30108625Y4443186D01*
X30184023Y4330345D01*
X30330345Y4184023D01*
X30502402Y4069059D01*
X30693580Y3989870D01*
X30896535Y3949500D01*
X30896536Y3949500D01*
X31103464Y3949500D01*
X31103465Y3949500D01*
X31306420Y3989870D01*
X31497598Y4069059D01*
X31669655Y4184023D01*
X31815977Y4330345D01*
X31930941Y4502402D01*
X32010130Y4693580D01*
X32050500Y4896535D01*
X32050500Y5103465D01*
X32010130Y5306420D01*
X31930941Y5497598D01*
X31815977Y5669655D01*
X31669655Y5815977D01*
X31619482Y5849501D01*
X31497598Y5930941D01*
X31306420Y6010130D01*
X31306413Y6010132D01*
X31153516Y6040545D01*
X31103465Y6050500D01*
X30896535Y6050500D01*
X30856385Y6042514D01*
X30693586Y6010132D01*
X30693579Y6010130D01*
X30502401Y5930941D01*
X30330345Y5815978D01*
X30330344Y5815976D01*
X30184024Y5669656D01*
X30184022Y5669655D01*
X30069059Y5497599D01*
X29989870Y5306421D01*
X29989868Y5306414D01*
X29955238Y5132314D01*
X29949500Y5103465D01*
X26557167Y5103465D01*
X26544655Y5115977D01*
X26520203Y5132315D01*
X26372598Y5230941D01*
X26181420Y5310130D01*
X26181413Y5310132D01*
X26028516Y5340545D01*
X25978465Y5350500D01*
X24521535Y5350500D01*
X24481385Y5342514D01*
X24318586Y5310132D01*
X24318579Y5310130D01*
X24127401Y5230941D01*
X23955345Y5115978D01*
X23955344Y5115976D01*
X23809024Y4969656D01*
X23809022Y4969655D01*
X23694059Y4797599D01*
X23614870Y4606421D01*
X23614868Y4606414D01*
X23574500Y4403465D01*
X22977035Y4403465D01*
X22966392Y4443186D01*
X22900500Y4557314D01*
X22807314Y4650500D01*
X22693190Y4716390D01*
X22693181Y4716394D01*
X22565894Y4750500D01*
X22565892Y4750500D01*
X22434108Y4750500D01*
X22434106Y4750500D01*
X22306818Y4716394D01*
X22306809Y4716390D01*
X22192685Y4650500D01*
X22099500Y4557315D01*
X22033610Y4443191D01*
X22033606Y4443182D01*
X21999500Y4315895D01*
X21625500Y4315895D01*
X21625500Y4403465D01*
X21585130Y4606420D01*
X21505941Y4797598D01*
X21390977Y4969655D01*
X21244655Y5115977D01*
X21220203Y5132315D01*
X21072598Y5230941D01*
X20881420Y5310130D01*
X20881413Y5310132D01*
X20728516Y5340545D01*
X20678465Y5350500D01*
X19221535Y5350500D01*
X19181385Y5342514D01*
X19018586Y5310132D01*
X19018579Y5310130D01*
X18827401Y5230941D01*
X18655345Y5115978D01*
X18655344Y5115976D01*
X18509024Y4969656D01*
X18509022Y4969655D01*
X18394059Y4797599D01*
X18314870Y4606421D01*
X18314868Y4606414D01*
X18274500Y4403465D01*
X16325500Y4403465D01*
X16285130Y4606420D01*
X16205941Y4797598D01*
X16090977Y4969655D01*
X15944655Y5115977D01*
X15920203Y5132315D01*
X15772598Y5230941D01*
X15581420Y5310130D01*
X15581413Y5310132D01*
X15428516Y5340545D01*
X15378465Y5350500D01*
X13921535Y5350500D01*
X13881385Y5342514D01*
X13718586Y5310132D01*
X13718579Y5310130D01*
X13527401Y5230941D01*
X13355345Y5115978D01*
X13355344Y5115976D01*
X13209024Y4969656D01*
X13209022Y4969655D01*
X13094059Y4797599D01*
X13014870Y4606421D01*
X13014868Y4606414D01*
X12974500Y4403465D01*
X6824097Y4403465D01*
X6860531Y4424500D01*
X6953717Y4517686D01*
X7019609Y4631814D01*
X7053716Y4759106D01*
X7053717Y4759106D01*
X7053717Y4890894D01*
X7053716Y4890895D01*
X7042379Y4933204D01*
X7019609Y5018186D01*
X6953717Y5132314D01*
X6860531Y5225500D01*
X6759887Y5283607D01*
X6746407Y5291390D01*
X6746398Y5291394D01*
X6619111Y5325500D01*
X6619109Y5325500D01*
X6487325Y5325500D01*
X6487323Y5325500D01*
X6360035Y5291394D01*
X6360026Y5291390D01*
X6245902Y5225500D01*
X6152717Y5132315D01*
X6086827Y5018191D01*
X6086823Y5018182D01*
X6057824Y4909955D01*
X6054713Y4905901D01*
X6054713Y4900790D01*
X6037858Y4883935D01*
X6023346Y4865022D01*
X6018278Y4864355D01*
X6014665Y4860741D01*
X5990826Y4860741D01*
X5967193Y4857630D01*
X5958028Y4860741D01*
X5826343Y4915286D01*
X5786294Y4955334D01*
X5786294Y5011971D01*
X5817660Y5047739D01*
X5907314Y5099500D01*
X6000500Y5192686D01*
X6066392Y5306814D01*
X6100499Y5434106D01*
X6100500Y5434106D01*
X6100500Y5565894D01*
X6100499Y5565895D01*
X6099972Y5567860D01*
X6066392Y5693186D01*
X6000500Y5807314D01*
X5907314Y5900500D01*
X5833380Y5943186D01*
X5793190Y5966390D01*
X5793181Y5966394D01*
X5665894Y6000500D01*
X5665892Y6000500D01*
X5534108Y6000500D01*
X5534106Y6000500D01*
X5406818Y5966394D01*
X5406809Y5966390D01*
X5292685Y5900500D01*
X5199500Y5807315D01*
X5133610Y5693191D01*
X5133606Y5693182D01*
X5099500Y5565895D01*
X5099500Y5434106D01*
X5133606Y5306819D01*
X5133610Y5306810D01*
X5166698Y5249501D01*
X5199500Y5192686D01*
X5292686Y5099500D01*
X5317224Y5085333D01*
X5351703Y5040399D01*
X5344310Y4984247D01*
X5299376Y4949768D01*
X5294661Y4948669D01*
X5216921Y4933206D01*
X5216911Y4933203D01*
X5040296Y4860047D01*
X4881342Y4753838D01*
X4881341Y4753836D01*
X4746164Y4618659D01*
X4746162Y4618658D01*
X4639953Y4459704D01*
X4566797Y4283089D01*
X4566794Y4283079D01*
X4529500Y4095585D01*
X3730207Y4095585D01*
X3890808Y4730340D01*
X3924653Y4775748D01*
X3938732Y4781695D01*
X3938708Y4781754D01*
X3943176Y4783606D01*
X3943186Y4783608D01*
X4057314Y4849500D01*
X4150500Y4942686D01*
X4216392Y5056814D01*
X4250499Y5184106D01*
X4250500Y5184106D01*
X4250500Y5315894D01*
X4250499Y5315895D01*
X4247925Y5325500D01*
X4216392Y5443186D01*
X4150500Y5557314D01*
X4139954Y5567860D01*
X4118280Y5620186D01*
X4120539Y5638322D01*
X4372859Y6635586D01*
X7069500Y6635586D01*
X7069500Y6444414D01*
X7081819Y6382482D01*
X7106794Y6256922D01*
X7106797Y6256912D01*
X7179953Y6080297D01*
X7286162Y5921343D01*
X7421342Y5786163D01*
X7580296Y5679954D01*
X7724589Y5620186D01*
X7756916Y5606796D01*
X7944414Y5569500D01*
X7944416Y5569500D01*
X8135584Y5569500D01*
X8135586Y5569500D01*
X8323084Y5606796D01*
X8499704Y5679954D01*
X8634389Y5769948D01*
X8689937Y5780996D01*
X8737029Y5749530D01*
X8749500Y5708418D01*
X8749500Y5684106D01*
X8783606Y5556819D01*
X8783607Y5556816D01*
X8783608Y5556814D01*
X8849500Y5442686D01*
X8942686Y5349500D01*
X9056814Y5283608D01*
X9184105Y5249501D01*
X9184106Y5249500D01*
X9184108Y5249500D01*
X9315894Y5249500D01*
X9315894Y5249501D01*
X9443186Y5283608D01*
X9557314Y5349500D01*
X9650500Y5442686D01*
X9716392Y5556814D01*
X9750499Y5684106D01*
X9750500Y5684106D01*
X9750500Y5815894D01*
X9750499Y5815895D01*
X9741494Y5849501D01*
X9716392Y5943186D01*
X9650500Y6057314D01*
X9557314Y6150500D01*
X9499107Y6184106D01*
X9443190Y6216390D01*
X9443181Y6216394D01*
X9320507Y6249264D01*
X9315894Y6250500D01*
X9315892Y6250500D01*
X9184108Y6250500D01*
X9074928Y6221246D01*
X9018776Y6228639D01*
X8984297Y6273573D01*
X8983198Y6307160D01*
X8984936Y6315895D01*
X10999500Y6315895D01*
X10999500Y6184106D01*
X11033606Y6056819D01*
X11033610Y6056810D01*
X11060560Y6010132D01*
X11099500Y5942686D01*
X11192686Y5849500D01*
X11306814Y5783608D01*
X11434105Y5749501D01*
X11434106Y5749500D01*
X11434108Y5749500D01*
X11565894Y5749500D01*
X11565894Y5749501D01*
X11693186Y5783608D01*
X11807314Y5849500D01*
X11900500Y5942686D01*
X11966392Y6056814D01*
X12000499Y6184106D01*
X12000500Y6184106D01*
X12000500Y6315894D01*
X12000499Y6315895D01*
X12249500Y6315895D01*
X12249500Y6184106D01*
X12283606Y6056819D01*
X12283610Y6056810D01*
X12310560Y6010132D01*
X12349500Y5942686D01*
X12442686Y5849500D01*
X12556814Y5783608D01*
X12684105Y5749501D01*
X12684106Y5749500D01*
X12684108Y5749500D01*
X12815894Y5749500D01*
X12815894Y5749501D01*
X12943186Y5783608D01*
X13057314Y5849500D01*
X13150500Y5942686D01*
X13216392Y6056814D01*
X13250499Y6184106D01*
X13250500Y6184106D01*
X13250500Y6315894D01*
X13250499Y6315895D01*
X13241494Y6349501D01*
X13216392Y6443186D01*
X13150500Y6557314D01*
X13141919Y6565895D01*
X19499500Y6565895D01*
X19499500Y6434106D01*
X19533606Y6306819D01*
X19533610Y6306810D01*
X19578742Y6228639D01*
X19599500Y6192686D01*
X19692686Y6099500D01*
X19806814Y6033608D01*
X19934105Y5999501D01*
X19934106Y5999500D01*
X19934108Y5999500D01*
X20065894Y5999500D01*
X20065894Y5999501D01*
X20193186Y6033608D01*
X20307314Y6099500D01*
X20400500Y6192686D01*
X20466392Y6306814D01*
X20500499Y6434106D01*
X20500500Y6434106D01*
X20500500Y6565894D01*
X20500499Y6565895D01*
X20477829Y6650500D01*
X20466392Y6693186D01*
X20400500Y6807314D01*
X20391919Y6815895D01*
X24749500Y6815895D01*
X24749500Y6684106D01*
X24783606Y6556819D01*
X24783610Y6556810D01*
X24848501Y6444416D01*
X24849500Y6442686D01*
X24942686Y6349500D01*
X25056814Y6283608D01*
X25184105Y6249501D01*
X25184106Y6249500D01*
X25184108Y6249500D01*
X25315894Y6249500D01*
X25315894Y6249501D01*
X25443186Y6283608D01*
X25557314Y6349500D01*
X25650500Y6442686D01*
X25716392Y6556814D01*
X25750499Y6684106D01*
X25750500Y6684106D01*
X25750500Y6815894D01*
X25750499Y6815895D01*
X25748571Y6823089D01*
X25716392Y6943186D01*
X25650500Y7057314D01*
X25557314Y7150500D01*
X25484246Y7192686D01*
X25443190Y7216390D01*
X25443181Y7216394D01*
X25315894Y7250500D01*
X25315892Y7250500D01*
X25184108Y7250500D01*
X25184106Y7250500D01*
X25056818Y7216394D01*
X25056809Y7216390D01*
X24942685Y7150500D01*
X24849500Y7057315D01*
X24783610Y6943191D01*
X24783606Y6943182D01*
X24749500Y6815895D01*
X20391919Y6815895D01*
X20307314Y6900500D01*
X20233380Y6943186D01*
X20193190Y6966390D01*
X20193181Y6966394D01*
X20065894Y7000500D01*
X20065892Y7000500D01*
X19934108Y7000500D01*
X19934106Y7000500D01*
X19806818Y6966394D01*
X19806809Y6966390D01*
X19692685Y6900500D01*
X19599500Y6807315D01*
X19533610Y6693191D01*
X19533606Y6693182D01*
X19499500Y6565895D01*
X13141919Y6565895D01*
X13057314Y6650500D01*
X12999107Y6684106D01*
X12943190Y6716390D01*
X12943181Y6716394D01*
X12815894Y6750500D01*
X12815892Y6750500D01*
X12684108Y6750500D01*
X12684106Y6750500D01*
X12556818Y6716394D01*
X12556809Y6716390D01*
X12442685Y6650500D01*
X12349500Y6557315D01*
X12283610Y6443191D01*
X12283606Y6443182D01*
X12249500Y6315895D01*
X12000499Y6315895D01*
X11991494Y6349501D01*
X11966392Y6443186D01*
X11900500Y6557314D01*
X11807314Y6650500D01*
X11749107Y6684106D01*
X11693190Y6716390D01*
X11693181Y6716394D01*
X11565894Y6750500D01*
X11565892Y6750500D01*
X11434108Y6750500D01*
X11434106Y6750500D01*
X11306818Y6716394D01*
X11306809Y6716390D01*
X11192685Y6650500D01*
X11099500Y6557315D01*
X11033610Y6443191D01*
X11033606Y6443182D01*
X10999500Y6315895D01*
X8984936Y6315895D01*
X9010500Y6444414D01*
X9010500Y6635586D01*
X8973204Y6823084D01*
X8900046Y6999704D01*
X8793837Y7158658D01*
X8658658Y7293837D01*
X8639243Y7306810D01*
X8499703Y7400047D01*
X8323088Y7473203D01*
X8323078Y7473206D01*
X8190881Y7499501D01*
X8135586Y7510500D01*
X7944414Y7510500D01*
X7891260Y7499928D01*
X7756921Y7473206D01*
X7756911Y7473203D01*
X7580296Y7400047D01*
X7421342Y7293838D01*
X7421341Y7293836D01*
X7286164Y7158659D01*
X7286162Y7158658D01*
X7179953Y6999704D01*
X7106797Y6823089D01*
X7106794Y6823079D01*
X7079152Y6684108D01*
X7069500Y6635586D01*
X4372859Y6635586D01*
X4608238Y7565895D01*
X5899500Y7565895D01*
X5899500Y7434106D01*
X5933606Y7306819D01*
X5933610Y7306810D01*
X5941100Y7293837D01*
X5999500Y7192686D01*
X6092686Y7099500D01*
X6206814Y7033608D01*
X6334105Y6999501D01*
X6334106Y6999500D01*
X6334108Y6999500D01*
X6465894Y6999500D01*
X6465894Y6999501D01*
X6593186Y7033608D01*
X6707314Y7099500D01*
X6800500Y7192686D01*
X6866392Y7306814D01*
X6900499Y7434106D01*
X6900500Y7434106D01*
X6900500Y7565894D01*
X6900499Y7565895D01*
X6891494Y7599501D01*
X6866392Y7693186D01*
X6800500Y7807314D01*
X6707314Y7900500D01*
X6649107Y7934106D01*
X6593190Y7966390D01*
X6593181Y7966394D01*
X6465894Y8000500D01*
X6465892Y8000500D01*
X6334108Y8000500D01*
X6334106Y8000500D01*
X6206818Y7966394D01*
X6206809Y7966390D01*
X6092685Y7900500D01*
X5999500Y7807315D01*
X5933610Y7693191D01*
X5933606Y7693182D01*
X5899500Y7565895D01*
X4608238Y7565895D01*
X4987756Y9065895D01*
X11499500Y9065895D01*
X11499500Y8934106D01*
X11533606Y8806819D01*
X11533607Y8806816D01*
X11533608Y8806814D01*
X11599500Y8692686D01*
X11692686Y8599500D01*
X11806814Y8533608D01*
X11934105Y8499501D01*
X11934106Y8499500D01*
X11934108Y8499500D01*
X12065894Y8499500D01*
X12065894Y8499501D01*
X12193186Y8533608D01*
X12307314Y8599500D01*
X12400500Y8692686D01*
X12466392Y8806814D01*
X12500499Y8934106D01*
X12500500Y8934106D01*
X12500500Y9065894D01*
X12500499Y9065895D01*
X12494591Y9087947D01*
X12490433Y9103465D01*
X12974500Y9103465D01*
X12974500Y8896536D01*
X13014868Y8693587D01*
X13014870Y8693580D01*
X13094059Y8502402D01*
X13209023Y8330345D01*
X13355345Y8184023D01*
X13527402Y8069059D01*
X13718580Y7989870D01*
X13921535Y7949500D01*
X13921536Y7949500D01*
X15378464Y7949500D01*
X15378465Y7949500D01*
X15581420Y7989870D01*
X15772598Y8069059D01*
X15944655Y8184023D01*
X16090977Y8330345D01*
X16205941Y8502402D01*
X16285130Y8693580D01*
X16325500Y8896535D01*
X16325500Y9065895D01*
X16999500Y9065895D01*
X16999500Y8934106D01*
X17033606Y8806819D01*
X17033607Y8806816D01*
X17033608Y8806814D01*
X17099500Y8692686D01*
X17192686Y8599500D01*
X17306814Y8533608D01*
X17434105Y8499501D01*
X17434106Y8499500D01*
X17434108Y8499500D01*
X17565894Y8499500D01*
X17565894Y8499501D01*
X17693186Y8533608D01*
X17807314Y8599500D01*
X17900500Y8692686D01*
X17966392Y8806814D01*
X18000499Y8934106D01*
X18000500Y8934106D01*
X18000500Y9065894D01*
X18000499Y9065895D01*
X17994591Y9087947D01*
X17990433Y9103465D01*
X18274500Y9103465D01*
X18274500Y8896536D01*
X18314868Y8693587D01*
X18314870Y8693580D01*
X18394059Y8502402D01*
X18509023Y8330345D01*
X18655345Y8184023D01*
X18827402Y8069059D01*
X19018580Y7989870D01*
X19221535Y7949500D01*
X19221536Y7949500D01*
X20678464Y7949500D01*
X20678465Y7949500D01*
X20881420Y7989870D01*
X21072598Y8069059D01*
X21244655Y8184023D01*
X21390977Y8330345D01*
X21505941Y8502402D01*
X21585130Y8693580D01*
X21625500Y8896535D01*
X21625500Y9065895D01*
X21999500Y9065895D01*
X21999500Y8934106D01*
X22033606Y8806819D01*
X22033607Y8806816D01*
X22033608Y8806814D01*
X22099500Y8692686D01*
X22192686Y8599500D01*
X22306814Y8533608D01*
X22434105Y8499501D01*
X22434106Y8499500D01*
X22434108Y8499500D01*
X22565894Y8499500D01*
X22565894Y8499501D01*
X22693186Y8533608D01*
X22807314Y8599500D01*
X22900500Y8692686D01*
X22966392Y8806814D01*
X23000499Y8934106D01*
X23000500Y8934106D01*
X23000500Y9065894D01*
X23000499Y9065895D01*
X22994591Y9087947D01*
X22990433Y9103465D01*
X23574500Y9103465D01*
X23574500Y8896536D01*
X23614868Y8693587D01*
X23614870Y8693580D01*
X23694059Y8502402D01*
X23809023Y8330345D01*
X23955345Y8184023D01*
X24127402Y8069059D01*
X24318580Y7989870D01*
X24521535Y7949500D01*
X24521536Y7949500D01*
X25978464Y7949500D01*
X25978465Y7949500D01*
X26181420Y7989870D01*
X26364959Y8065895D01*
X28999500Y8065895D01*
X28999500Y7934106D01*
X29033606Y7806819D01*
X29033607Y7806816D01*
X29033608Y7806814D01*
X29099500Y7692686D01*
X29192686Y7599500D01*
X29306814Y7533608D01*
X29434105Y7499501D01*
X29434106Y7499500D01*
X29434108Y7499500D01*
X29565894Y7499500D01*
X29565894Y7499501D01*
X29693186Y7533608D01*
X29807314Y7599500D01*
X29900500Y7692686D01*
X29966392Y7806814D01*
X30000499Y7934106D01*
X30000500Y7934106D01*
X30000500Y8065894D01*
X30000499Y8065895D01*
X29966393Y8193182D01*
X29966392Y8193186D01*
X29900500Y8307314D01*
X29807314Y8400500D01*
X29693190Y8466390D01*
X29693181Y8466394D01*
X29565894Y8500500D01*
X29565892Y8500500D01*
X29434108Y8500500D01*
X29434106Y8500500D01*
X29306818Y8466394D01*
X29306809Y8466390D01*
X29192685Y8400500D01*
X29099500Y8307315D01*
X29033610Y8193191D01*
X29033606Y8193182D01*
X28999500Y8065895D01*
X26364959Y8065895D01*
X26372598Y8069059D01*
X26544655Y8184023D01*
X26690977Y8330345D01*
X26805941Y8502402D01*
X26885130Y8693580D01*
X26925500Y8896535D01*
X26925500Y9103465D01*
X26885130Y9306420D01*
X26805941Y9497598D01*
X26690977Y9669655D01*
X26544655Y9815977D01*
X26543049Y9817050D01*
X26372598Y9930941D01*
X26181420Y10010130D01*
X26181413Y10010132D01*
X26008599Y10044506D01*
X25978465Y10050500D01*
X24521535Y10050500D01*
X24491401Y10044506D01*
X24318586Y10010132D01*
X24318579Y10010130D01*
X24127401Y9930941D01*
X23955345Y9815978D01*
X23955344Y9815976D01*
X23809024Y9669656D01*
X23809022Y9669655D01*
X23694059Y9497599D01*
X23614870Y9306421D01*
X23614868Y9306414D01*
X23574500Y9103465D01*
X22990433Y9103465D01*
X22966393Y9193182D01*
X22966392Y9193186D01*
X22900500Y9307314D01*
X22807314Y9400500D01*
X22693190Y9466390D01*
X22693181Y9466394D01*
X22565894Y9500500D01*
X22565892Y9500500D01*
X22434108Y9500500D01*
X22434106Y9500500D01*
X22306818Y9466394D01*
X22306809Y9466390D01*
X22192685Y9400500D01*
X22099500Y9307315D01*
X22033610Y9193191D01*
X22033606Y9193182D01*
X21999500Y9065895D01*
X21625500Y9065895D01*
X21625500Y9103465D01*
X21585130Y9306420D01*
X21505941Y9497598D01*
X21390977Y9669655D01*
X21244655Y9815977D01*
X21243049Y9817050D01*
X21072598Y9930941D01*
X20881420Y10010130D01*
X20881413Y10010132D01*
X20708599Y10044506D01*
X20678465Y10050500D01*
X19221535Y10050500D01*
X19191401Y10044506D01*
X19018586Y10010132D01*
X19018579Y10010130D01*
X18827401Y9930941D01*
X18655345Y9815978D01*
X18655344Y9815976D01*
X18509024Y9669656D01*
X18509022Y9669655D01*
X18394059Y9497599D01*
X18314870Y9306421D01*
X18314868Y9306414D01*
X18274500Y9103465D01*
X17990433Y9103465D01*
X17966393Y9193182D01*
X17966392Y9193186D01*
X17900500Y9307314D01*
X17807314Y9400500D01*
X17693190Y9466390D01*
X17693181Y9466394D01*
X17565894Y9500500D01*
X17565892Y9500500D01*
X17434108Y9500500D01*
X17434106Y9500500D01*
X17306818Y9466394D01*
X17306809Y9466390D01*
X17192685Y9400500D01*
X17099500Y9307315D01*
X17033610Y9193191D01*
X17033606Y9193182D01*
X16999500Y9065895D01*
X16325500Y9065895D01*
X16325500Y9103465D01*
X16285130Y9306420D01*
X16205941Y9497598D01*
X16090977Y9669655D01*
X15944655Y9815977D01*
X15943049Y9817050D01*
X15772598Y9930941D01*
X15581420Y10010130D01*
X15581413Y10010132D01*
X15408599Y10044506D01*
X15378465Y10050500D01*
X13921535Y10050500D01*
X13891401Y10044506D01*
X13718586Y10010132D01*
X13718579Y10010130D01*
X13527401Y9930941D01*
X13355345Y9815978D01*
X13355344Y9815976D01*
X13209024Y9669656D01*
X13209022Y9669655D01*
X13094059Y9497599D01*
X13014870Y9306421D01*
X13014868Y9306414D01*
X12974500Y9103465D01*
X12490433Y9103465D01*
X12466393Y9193182D01*
X12466392Y9193186D01*
X12400500Y9307314D01*
X12307314Y9400500D01*
X12193190Y9466390D01*
X12193181Y9466394D01*
X12065894Y9500500D01*
X12065892Y9500500D01*
X11934108Y9500500D01*
X11934106Y9500500D01*
X11806818Y9466394D01*
X11806809Y9466390D01*
X11692685Y9400500D01*
X11599500Y9307315D01*
X11533610Y9193191D01*
X11533606Y9193182D01*
X11499500Y9065895D01*
X4987756Y9065895D01*
X5028853Y9228325D01*
X5062697Y9273733D01*
X5063528Y9274221D01*
X5107314Y9299500D01*
X5200500Y9392686D01*
X5266392Y9506814D01*
X5300499Y9634106D01*
X5300500Y9634106D01*
X5300500Y9765894D01*
X5300499Y9765895D01*
X5291494Y9799501D01*
X5266392Y9893186D01*
X5233216Y9950649D01*
X5225563Y10005799D01*
X5240768Y10065895D01*
X9749500Y10065895D01*
X9749500Y9934106D01*
X9783606Y9806819D01*
X9783610Y9806810D01*
X9807233Y9765894D01*
X9849500Y9692686D01*
X9942686Y9599500D01*
X10056814Y9533608D01*
X10184105Y9499501D01*
X10184106Y9499500D01*
X10184108Y9499500D01*
X10315894Y9499500D01*
X10315894Y9499501D01*
X10443186Y9533608D01*
X10557314Y9599500D01*
X10650500Y9692686D01*
X10716392Y9806814D01*
X10750499Y9934106D01*
X10750500Y9934106D01*
X10750500Y10065894D01*
X10750499Y10065895D01*
X10716393Y10193182D01*
X10716392Y10193186D01*
X10650500Y10307314D01*
X10591919Y10365895D01*
X21299500Y10365895D01*
X21299500Y10234106D01*
X21333606Y10106819D01*
X21333610Y10106810D01*
X21389429Y10010130D01*
X21399500Y9992686D01*
X21492686Y9899500D01*
X21606814Y9833608D01*
X21734105Y9799501D01*
X21734106Y9799500D01*
X21734108Y9799500D01*
X21865894Y9799500D01*
X21865894Y9799501D01*
X21993186Y9833608D01*
X22107314Y9899500D01*
X22200500Y9992686D01*
X22266392Y10106814D01*
X22300499Y10234106D01*
X22300500Y10234106D01*
X22300500Y10365894D01*
X22300499Y10365895D01*
X22293186Y10393186D01*
X22266392Y10493186D01*
X22200500Y10607314D01*
X22107314Y10700500D01*
X22037092Y10741043D01*
X21993190Y10766390D01*
X21993181Y10766394D01*
X21865894Y10800500D01*
X21865892Y10800500D01*
X21734108Y10800500D01*
X21734106Y10800500D01*
X21606818Y10766394D01*
X21606809Y10766390D01*
X21492685Y10700500D01*
X21399500Y10607315D01*
X21333610Y10493191D01*
X21333606Y10493182D01*
X21299500Y10365895D01*
X10591919Y10365895D01*
X10557314Y10400500D01*
X10443190Y10466390D01*
X10443181Y10466394D01*
X10315894Y10500500D01*
X10315892Y10500500D01*
X10184108Y10500500D01*
X10184106Y10500500D01*
X10056818Y10466394D01*
X10056809Y10466390D01*
X9942685Y10400500D01*
X9849500Y10307315D01*
X9783610Y10193191D01*
X9783606Y10193182D01*
X9749500Y10065895D01*
X5240768Y10065895D01*
X5493780Y11065894D01*
X5564183Y11344151D01*
X5598029Y11389562D01*
X5635922Y11400000D01*
X6111534Y11400000D01*
X6163860Y11378326D01*
G37*
%TD.AperFunction*%
%TD*%
D22*
X1000000Y21500000D02*
X39000000Y21500000D01*
X39000000Y0D02*
X1000000Y0D01*
X1000000Y0D02*
G75*
G02*
X0Y1000000I0J1000000D01*
G01*
X40000000Y20500000D02*
X40000000Y1000000D01*
X39000000Y21500000D02*
G75*
G02*
X40000000Y20500000I0J-1000000D01*
G01*
X0Y1000000D02*
X0Y20500000D01*
X0Y20500000D02*
G75*
G02*
X1000000Y21500000I1000000J0D01*
G01*
X40000000Y1000000D02*
G75*
G02*
X39000000Y0I-1000000J0D01*
G01*
M02*
