%TF.GenerationSoftware,KiCad,Pcbnew,9.0.2*%
%TF.CreationDate,2025-10-05T19:26:47-07:00*%
%TF.ProjectId,3pdt-pwr-breakout-neg-V2,33706474-2d70-4777-922d-627265616b6f,rev?*%
%TF.SameCoordinates,PX2d4cae0PY8d9ee20*%
%TF.FileFunction,Soldermask,Bot*%
%TF.FilePolarity,Negative*%
%FSLAX46Y46*%
G04 Gerber Fmt 4.6, Leading zero omitted, Abs format (unit mm)*
G04 Created by KiCad (PCBNEW 9.0.2) date 2025-10-05 19:26:47*
%MOMM*%
%LPD*%
G01*
G04 APERTURE LIST*
G04 Aperture macros list*
%AMRoundRect*
0 Rectangle with rounded corners*
0 $1 Rounding radius*
0 $2 $3 $4 $5 $6 $7 $8 $9 X,Y pos of 4 corners*
0 Add a 4 corners polygon primitive as box body*
4,1,4,$2,$3,$4,$5,$6,$7,$8,$9,$2,$3,0*
0 Add four circle primitives for the rounded corners*
1,1,$1+$1,$2,$3*
1,1,$1+$1,$4,$5*
1,1,$1+$1,$6,$7*
1,1,$1+$1,$8,$9*
0 Add four rect primitives between the rounded corners*
20,1,$1+$1,$2,$3,$4,$5,0*
20,1,$1+$1,$4,$5,$6,$7,0*
20,1,$1+$1,$6,$7,$8,$9,0*
20,1,$1+$1,$8,$9,$2,$3,0*%
G04 Aperture macros list end*
%ADD10RoundRect,0.225000X0.225000X0.250000X-0.225000X0.250000X-0.225000X-0.250000X0.225000X-0.250000X0*%
%ADD11RoundRect,0.100000X-0.225000X-0.100000X0.225000X-0.100000X0.225000X0.100000X-0.225000X0.100000X0*%
%ADD12RoundRect,0.135000X0.135000X0.185000X-0.135000X0.185000X-0.135000X-0.185000X0.135000X-0.185000X0*%
%ADD13RoundRect,0.225000X-0.250000X0.225000X-0.250000X-0.225000X0.250000X-0.225000X0.250000X0.225000X0*%
%ADD14RoundRect,0.200000X-0.200000X-0.275000X0.200000X-0.275000X0.200000X0.275000X-0.200000X0.275000X0*%
%ADD15RoundRect,0.150000X-0.512500X-0.150000X0.512500X-0.150000X0.512500X0.150000X-0.512500X0.150000X0*%
%ADD16RoundRect,0.250000X-0.325000X-0.650000X0.325000X-0.650000X0.325000X0.650000X-0.325000X0.650000X0*%
%ADD17RoundRect,0.225000X0.250000X-0.225000X0.250000X0.225000X-0.250000X0.225000X-0.250000X-0.225000X0*%
%ADD18RoundRect,0.250000X0.300000X0.300000X-0.300000X0.300000X-0.300000X-0.300000X0.300000X-0.300000X0*%
%ADD19RoundRect,0.250000X-0.325000X-1.100000X0.325000X-1.100000X0.325000X1.100000X-0.325000X1.100000X0*%
%ADD20RoundRect,0.150000X0.150000X-0.587500X0.150000X0.587500X-0.150000X0.587500X-0.150000X-0.587500X0*%
%ADD21RoundRect,0.250000X0.650000X-0.325000X0.650000X0.325000X-0.650000X0.325000X-0.650000X-0.325000X0*%
%ADD22RoundRect,0.135000X0.185000X-0.135000X0.185000X0.135000X-0.185000X0.135000X-0.185000X-0.135000X0*%
%ADD23RoundRect,0.135000X-0.185000X0.135000X-0.185000X-0.135000X0.185000X-0.135000X0.185000X0.135000X0*%
%ADD24RoundRect,0.200000X0.275000X-0.200000X0.275000X0.200000X-0.275000X0.200000X-0.275000X-0.200000X0*%
%ADD25RoundRect,0.250000X0.250000X0.475000X-0.250000X0.475000X-0.250000X-0.475000X0.250000X-0.475000X0*%
%ADD26O,2.850000X1.600000*%
%ADD27RoundRect,0.140000X-0.170000X0.140000X-0.170000X-0.140000X0.170000X-0.140000X0.170000X0.140000X0*%
%ADD28R,1.800000X1.800000*%
%ADD29C,1.800000*%
%ADD30RoundRect,0.150000X-0.150000X0.512500X-0.150000X-0.512500X0.150000X-0.512500X0.150000X0.512500X0*%
%ADD31C,1.600000*%
%ADD32O,1.600000X1.600000*%
%ADD33C,1.440000*%
%TA.AperFunction,Profile*%
%ADD34C,0.100000*%
%TD*%
G04 APERTURE END LIST*
D10*
%TO.C,C4*%
X32071165Y7071065D03*
X33621165Y7071065D03*
%TD*%
D11*
%TO.C,U1*%
X5800000Y9300000D03*
X5800000Y10600000D03*
X3900000Y10600000D03*
X3900000Y9950000D03*
X3900000Y9300000D03*
%TD*%
D12*
%TO.C,R9*%
X32150000Y16296750D03*
X31130000Y16296750D03*
%TD*%
D13*
%TO.C,C10*%
X7200000Y10900000D03*
X7200000Y9350000D03*
%TD*%
%TO.C,C6*%
X31000000Y14775000D03*
X31000000Y13225000D03*
%TD*%
D14*
%TO.C,R2*%
X33925000Y4950000D03*
X35575000Y4950000D03*
%TD*%
D15*
%TO.C,U3*%
X36500000Y13918250D03*
X36500000Y14868250D03*
X36500000Y15818250D03*
X38775000Y15818250D03*
X38775000Y14868250D03*
X38775000Y13918250D03*
%TD*%
D14*
%TO.C,R7*%
X3925000Y6500000D03*
X5575000Y6500000D03*
%TD*%
D10*
%TO.C,C7*%
X37862500Y17396750D03*
X36312500Y17396750D03*
%TD*%
D16*
%TO.C,C2*%
X5000000Y13000000D03*
X7950000Y13000000D03*
%TD*%
D17*
%TO.C,C5*%
X34679499Y9585000D03*
X34679499Y11135000D03*
%TD*%
D18*
%TO.C,D1*%
X4050000Y17250000D03*
X1250000Y17250000D03*
%TD*%
D19*
%TO.C,C9*%
X31085000Y19656750D03*
X34035000Y19656750D03*
%TD*%
D20*
%TO.C,Q1*%
X7750000Y15500000D03*
X5850000Y15500000D03*
X6800000Y17375000D03*
%TD*%
D21*
%TO.C,C8*%
X34206750Y14215000D03*
X34206750Y17165000D03*
%TD*%
D14*
%TO.C,R8*%
X3850000Y1500000D03*
X5500000Y1500000D03*
%TD*%
D22*
%TO.C,R4*%
X3750000Y3000000D03*
X3750000Y4020000D03*
%TD*%
D23*
%TO.C,R5*%
X9000000Y4770000D03*
X9000000Y3750000D03*
%TD*%
D24*
%TO.C,R6*%
X7480000Y3175000D03*
X7480000Y4825000D03*
%TD*%
D25*
%TO.C,C1*%
X3250000Y15000000D03*
X1350000Y15000000D03*
%TD*%
D26*
%TO.C,SW1*%
X14650000Y13700000D03*
X14650000Y9000000D03*
X14650000Y4300000D03*
X19950000Y13700000D03*
X19950000Y9000000D03*
X19950000Y4300000D03*
X25250000Y13700000D03*
X25250000Y9000000D03*
X25250000Y4300000D03*
%TD*%
D27*
%TO.C,C3*%
X9200000Y9300000D03*
X9200000Y8340000D03*
%TD*%
D28*
%TO.C,D2*%
X37000000Y10525000D03*
D29*
X37000000Y7985000D03*
%TD*%
D30*
%TO.C,U2*%
X31105999Y11487500D03*
X32055999Y11487500D03*
X33005999Y11487500D03*
X33005999Y9212500D03*
X32055999Y9212500D03*
X31105999Y9212500D03*
%TD*%
D22*
%TO.C,R3*%
X9100000Y16000000D03*
X9100000Y17020000D03*
%TD*%
D31*
%TO.C,R1*%
X31000000Y5000000D03*
D32*
X38500000Y5000000D03*
%TD*%
D33*
%TO.C,RV1*%
X8040000Y1460000D03*
X5500000Y4000000D03*
X8040000Y6540000D03*
%TD*%
D34*
X1000000Y21500000D02*
X39000000Y21500000D01*
X39000000Y0D02*
X1000000Y0D01*
X1000000Y0D02*
G75*
G02*
X0Y1000000I0J1000000D01*
G01*
X40000000Y20500000D02*
X40000000Y1000000D01*
X39000000Y21500000D02*
G75*
G02*
X40000000Y20500000I0J-1000000D01*
G01*
X0Y1000000D02*
X0Y20500000D01*
X0Y20500000D02*
G75*
G02*
X1000000Y21500000I1000000J0D01*
G01*
X40000000Y1000000D02*
G75*
G02*
X39000000Y0I-1000000J0D01*
G01*
M02*
