%TF.GenerationSoftware,KiCad,Pcbnew,9.0.2*%
%TF.CreationDate,2025-07-23T23:09:01-07:00*%
%TF.ProjectId,3pdt-pwr-breakout-neg-V2,33706474-2d70-4777-922d-627265616b6f,rev?*%
%TF.SameCoordinates,Original*%
%TF.FileFunction,Soldermask,Top*%
%TF.FilePolarity,Negative*%
%FSLAX46Y46*%
G04 Gerber Fmt 4.6, Leading zero omitted, Abs format (unit mm)*
G04 Created by KiCad (PCBNEW 9.0.2) date 2025-07-23 23:09:01*
%MOMM*%
%LPD*%
G01*
G04 APERTURE LIST*
G04 Aperture macros list*
%AMRoundRect*
0 Rectangle with rounded corners*
0 $1 Rounding radius*
0 $2 $3 $4 $5 $6 $7 $8 $9 X,Y pos of 4 corners*
0 Add a 4 corners polygon primitive as box body*
4,1,4,$2,$3,$4,$5,$6,$7,$8,$9,$2,$3,0*
0 Add four circle primitives for the rounded corners*
1,1,$1+$1,$2,$3*
1,1,$1+$1,$4,$5*
1,1,$1+$1,$6,$7*
1,1,$1+$1,$8,$9*
0 Add four rect primitives between the rounded corners*
20,1,$1+$1,$2,$3,$4,$5,0*
20,1,$1+$1,$4,$5,$6,$7,0*
20,1,$1+$1,$6,$7,$8,$9,0*
20,1,$1+$1,$8,$9,$2,$3,0*%
G04 Aperture macros list end*
%ADD10RoundRect,0.247500X0.577500X0.727500X-0.577500X0.727500X-0.577500X-0.727500X0.577500X-0.727500X0*%
%ADD11RoundRect,0.247500X0.727500X-0.577500X0.727500X0.577500X-0.727500X0.577500X-0.727500X-0.577500X0*%
%ADD12RoundRect,0.247500X-0.727500X0.577500X-0.727500X-0.577500X0.727500X-0.577500X0.727500X0.577500X0*%
%ADD13C,1.600000*%
%ADD14O,1.600000X1.600000*%
%ADD15C,1.440000*%
%ADD16R,1.800000X1.800000*%
%ADD17C,1.800000*%
%ADD18O,2.850000X1.600000*%
%TA.AperFunction,Profile*%
%ADD19C,0.100000*%
%TD*%
G04 APERTURE END LIST*
D10*
%TO.C,WP5*%
X77500000Y-71000000D03*
%TD*%
D11*
%TO.C,WP11*%
X86000000Y-63500000D03*
%TD*%
D10*
%TO.C,WP7*%
X68750000Y-71000000D03*
%TD*%
D12*
%TO.C,WP15*%
X86000000Y-52500000D03*
%TD*%
D11*
%TO.C,WP12*%
X86000000Y-61000000D03*
%TD*%
D10*
%TO.C,WP4*%
X51500000Y-71000000D03*
%TD*%
D13*
%TO.C,R1*%
X56500000Y-56000000D03*
D14*
X49000000Y-56000000D03*
%TD*%
D10*
%TO.C,WP3*%
X49000000Y-71000000D03*
%TD*%
D12*
%TO.C,WP14*%
X86000000Y-57500000D03*
%TD*%
%TO.C,WP13*%
X86000000Y-55000000D03*
%TD*%
D10*
%TO.C,WP2*%
X86000000Y-71000000D03*
%TD*%
%TO.C,WP6*%
X80000000Y-71000000D03*
%TD*%
%TO.C,WP8*%
X71250000Y-71000000D03*
%TD*%
%TO.C,WP9*%
X63750000Y-71000000D03*
%TD*%
%TO.C,WP1*%
X83500000Y-71000000D03*
%TD*%
D15*
%TO.C,RV1*%
X79460000Y-52460000D03*
X82000000Y-55000000D03*
X79460000Y-57540000D03*
%TD*%
D10*
%TO.C,WP10*%
X66250000Y-71000000D03*
%TD*%
D16*
%TO.C,D2*%
X50500000Y-61525000D03*
D17*
X50500000Y-58985000D03*
%TD*%
D18*
%TO.C,SW1*%
X72850000Y-64700000D03*
X72850000Y-60000000D03*
X72850000Y-55300000D03*
X67550000Y-64700000D03*
X67550000Y-60000000D03*
X67550000Y-55300000D03*
X62250000Y-64700000D03*
X62250000Y-60000000D03*
X62250000Y-55300000D03*
%TD*%
D19*
X87500000Y-71500000D02*
G75*
G02*
X86500000Y-72500000I-1000000J0D01*
G01*
X86500000Y-72500000D02*
X48500000Y-72500000D01*
X48500000Y-72500000D02*
G75*
G02*
X47500000Y-71500000I0J1000000D01*
G01*
X48500000Y-51000000D02*
X86500000Y-51000000D01*
X47500000Y-71500000D02*
X47500000Y-52000000D01*
X87500000Y-52000000D02*
X87500000Y-71500000D01*
X86500000Y-51000000D02*
G75*
G02*
X87500000Y-52000000I0J-1000000D01*
G01*
X47500000Y-52000000D02*
G75*
G02*
X48500000Y-51000000I1000000J0D01*
G01*
M02*
