%TF.GenerationSoftware,KiCad,Pcbnew,9.0.2*%
%TF.CreationDate,2025-07-23T23:09:01-07:00*%
%TF.ProjectId,3pdt-pwr-breakout-neg-V2,33706474-2d70-4777-922d-627265616b6f,rev?*%
%TF.SameCoordinates,Original*%
%TF.FileFunction,AssemblyDrawing,Top*%
%FSLAX46Y46*%
G04 Gerber Fmt 4.6, Leading zero omitted, Abs format (unit mm)*
G04 Created by KiCad (PCBNEW 9.0.2) date 2025-07-23 23:09:01*
%MOMM*%
%LPD*%
G01*
G04 APERTURE LIST*
%ADD10C,0.150000*%
%ADD11C,0.100000*%
%TA.AperFunction,Profile*%
%ADD12C,0.100000*%
%TD*%
G04 APERTURE END LIST*
D10*
X76095238Y-70454819D02*
X76333333Y-71454819D01*
X76333333Y-71454819D02*
X76523809Y-70740533D01*
X76523809Y-70740533D02*
X76714285Y-71454819D01*
X76714285Y-71454819D02*
X76952381Y-70454819D01*
X77333333Y-71454819D02*
X77333333Y-70454819D01*
X77333333Y-70454819D02*
X77714285Y-70454819D01*
X77714285Y-70454819D02*
X77809523Y-70502438D01*
X77809523Y-70502438D02*
X77857142Y-70550057D01*
X77857142Y-70550057D02*
X77904761Y-70645295D01*
X77904761Y-70645295D02*
X77904761Y-70788152D01*
X77904761Y-70788152D02*
X77857142Y-70883390D01*
X77857142Y-70883390D02*
X77809523Y-70931009D01*
X77809523Y-70931009D02*
X77714285Y-70978628D01*
X77714285Y-70978628D02*
X77333333Y-70978628D01*
X78809523Y-70454819D02*
X78333333Y-70454819D01*
X78333333Y-70454819D02*
X78285714Y-70931009D01*
X78285714Y-70931009D02*
X78333333Y-70883390D01*
X78333333Y-70883390D02*
X78428571Y-70835771D01*
X78428571Y-70835771D02*
X78666666Y-70835771D01*
X78666666Y-70835771D02*
X78761904Y-70883390D01*
X78761904Y-70883390D02*
X78809523Y-70931009D01*
X78809523Y-70931009D02*
X78857142Y-71026247D01*
X78857142Y-71026247D02*
X78857142Y-71264342D01*
X78857142Y-71264342D02*
X78809523Y-71359580D01*
X78809523Y-71359580D02*
X78761904Y-71407200D01*
X78761904Y-71407200D02*
X78666666Y-71454819D01*
X78666666Y-71454819D02*
X78428571Y-71454819D01*
X78428571Y-71454819D02*
X78333333Y-71407200D01*
X78333333Y-71407200D02*
X78285714Y-71359580D01*
X86545180Y-61619048D02*
X85545180Y-61857143D01*
X85545180Y-61857143D02*
X86259466Y-62047619D01*
X86259466Y-62047619D02*
X85545180Y-62238095D01*
X85545180Y-62238095D02*
X86545180Y-62476191D01*
X85545180Y-62857143D02*
X86545180Y-62857143D01*
X86545180Y-62857143D02*
X86545180Y-63238095D01*
X86545180Y-63238095D02*
X86497561Y-63333333D01*
X86497561Y-63333333D02*
X86449942Y-63380952D01*
X86449942Y-63380952D02*
X86354704Y-63428571D01*
X86354704Y-63428571D02*
X86211847Y-63428571D01*
X86211847Y-63428571D02*
X86116609Y-63380952D01*
X86116609Y-63380952D02*
X86068990Y-63333333D01*
X86068990Y-63333333D02*
X86021371Y-63238095D01*
X86021371Y-63238095D02*
X86021371Y-62857143D01*
X85545180Y-64380952D02*
X85545180Y-63809524D01*
X85545180Y-64095238D02*
X86545180Y-64095238D01*
X86545180Y-64095238D02*
X86402323Y-64000000D01*
X86402323Y-64000000D02*
X86307085Y-63904762D01*
X86307085Y-63904762D02*
X86259466Y-63809524D01*
X85545180Y-65333333D02*
X85545180Y-64761905D01*
X85545180Y-65047619D02*
X86545180Y-65047619D01*
X86545180Y-65047619D02*
X86402323Y-64952381D01*
X86402323Y-64952381D02*
X86307085Y-64857143D01*
X86307085Y-64857143D02*
X86259466Y-64761905D01*
X67345238Y-70454819D02*
X67583333Y-71454819D01*
X67583333Y-71454819D02*
X67773809Y-70740533D01*
X67773809Y-70740533D02*
X67964285Y-71454819D01*
X67964285Y-71454819D02*
X68202381Y-70454819D01*
X68583333Y-71454819D02*
X68583333Y-70454819D01*
X68583333Y-70454819D02*
X68964285Y-70454819D01*
X68964285Y-70454819D02*
X69059523Y-70502438D01*
X69059523Y-70502438D02*
X69107142Y-70550057D01*
X69107142Y-70550057D02*
X69154761Y-70645295D01*
X69154761Y-70645295D02*
X69154761Y-70788152D01*
X69154761Y-70788152D02*
X69107142Y-70883390D01*
X69107142Y-70883390D02*
X69059523Y-70931009D01*
X69059523Y-70931009D02*
X68964285Y-70978628D01*
X68964285Y-70978628D02*
X68583333Y-70978628D01*
X69488095Y-70454819D02*
X70154761Y-70454819D01*
X70154761Y-70454819D02*
X69726190Y-71454819D01*
X85454819Y-54380951D02*
X86454819Y-54142856D01*
X86454819Y-54142856D02*
X85740533Y-53952380D01*
X85740533Y-53952380D02*
X86454819Y-53761904D01*
X86454819Y-53761904D02*
X85454819Y-53523809D01*
X86454819Y-53142856D02*
X85454819Y-53142856D01*
X85454819Y-53142856D02*
X85454819Y-52761904D01*
X85454819Y-52761904D02*
X85502438Y-52666666D01*
X85502438Y-52666666D02*
X85550057Y-52619047D01*
X85550057Y-52619047D02*
X85645295Y-52571428D01*
X85645295Y-52571428D02*
X85788152Y-52571428D01*
X85788152Y-52571428D02*
X85883390Y-52619047D01*
X85883390Y-52619047D02*
X85931009Y-52666666D01*
X85931009Y-52666666D02*
X85978628Y-52761904D01*
X85978628Y-52761904D02*
X85978628Y-53142856D01*
X86454819Y-51619047D02*
X86454819Y-52190475D01*
X86454819Y-51904761D02*
X85454819Y-51904761D01*
X85454819Y-51904761D02*
X85597676Y-51999999D01*
X85597676Y-51999999D02*
X85692914Y-52095237D01*
X85692914Y-52095237D02*
X85740533Y-52190475D01*
X85454819Y-50714285D02*
X85454819Y-51190475D01*
X85454819Y-51190475D02*
X85931009Y-51238094D01*
X85931009Y-51238094D02*
X85883390Y-51190475D01*
X85883390Y-51190475D02*
X85835771Y-51095237D01*
X85835771Y-51095237D02*
X85835771Y-50857142D01*
X85835771Y-50857142D02*
X85883390Y-50761904D01*
X85883390Y-50761904D02*
X85931009Y-50714285D01*
X85931009Y-50714285D02*
X86026247Y-50666666D01*
X86026247Y-50666666D02*
X86264342Y-50666666D01*
X86264342Y-50666666D02*
X86359580Y-50714285D01*
X86359580Y-50714285D02*
X86407200Y-50761904D01*
X86407200Y-50761904D02*
X86454819Y-50857142D01*
X86454819Y-50857142D02*
X86454819Y-51095237D01*
X86454819Y-51095237D02*
X86407200Y-51190475D01*
X86407200Y-51190475D02*
X86359580Y-51238094D01*
X86545180Y-59119048D02*
X85545180Y-59357143D01*
X85545180Y-59357143D02*
X86259466Y-59547619D01*
X86259466Y-59547619D02*
X85545180Y-59738095D01*
X85545180Y-59738095D02*
X86545180Y-59976191D01*
X85545180Y-60357143D02*
X86545180Y-60357143D01*
X86545180Y-60357143D02*
X86545180Y-60738095D01*
X86545180Y-60738095D02*
X86497561Y-60833333D01*
X86497561Y-60833333D02*
X86449942Y-60880952D01*
X86449942Y-60880952D02*
X86354704Y-60928571D01*
X86354704Y-60928571D02*
X86211847Y-60928571D01*
X86211847Y-60928571D02*
X86116609Y-60880952D01*
X86116609Y-60880952D02*
X86068990Y-60833333D01*
X86068990Y-60833333D02*
X86021371Y-60738095D01*
X86021371Y-60738095D02*
X86021371Y-60357143D01*
X85545180Y-61880952D02*
X85545180Y-61309524D01*
X85545180Y-61595238D02*
X86545180Y-61595238D01*
X86545180Y-61595238D02*
X86402323Y-61500000D01*
X86402323Y-61500000D02*
X86307085Y-61404762D01*
X86307085Y-61404762D02*
X86259466Y-61309524D01*
X86449942Y-62261905D02*
X86497561Y-62309524D01*
X86497561Y-62309524D02*
X86545180Y-62404762D01*
X86545180Y-62404762D02*
X86545180Y-62642857D01*
X86545180Y-62642857D02*
X86497561Y-62738095D01*
X86497561Y-62738095D02*
X86449942Y-62785714D01*
X86449942Y-62785714D02*
X86354704Y-62833333D01*
X86354704Y-62833333D02*
X86259466Y-62833333D01*
X86259466Y-62833333D02*
X86116609Y-62785714D01*
X86116609Y-62785714D02*
X85545180Y-62214286D01*
X85545180Y-62214286D02*
X85545180Y-62833333D01*
X50095238Y-70454819D02*
X50333333Y-71454819D01*
X50333333Y-71454819D02*
X50523809Y-70740533D01*
X50523809Y-70740533D02*
X50714285Y-71454819D01*
X50714285Y-71454819D02*
X50952381Y-70454819D01*
X51333333Y-71454819D02*
X51333333Y-70454819D01*
X51333333Y-70454819D02*
X51714285Y-70454819D01*
X51714285Y-70454819D02*
X51809523Y-70502438D01*
X51809523Y-70502438D02*
X51857142Y-70550057D01*
X51857142Y-70550057D02*
X51904761Y-70645295D01*
X51904761Y-70645295D02*
X51904761Y-70788152D01*
X51904761Y-70788152D02*
X51857142Y-70883390D01*
X51857142Y-70883390D02*
X51809523Y-70931009D01*
X51809523Y-70931009D02*
X51714285Y-70978628D01*
X51714285Y-70978628D02*
X51333333Y-70978628D01*
X52761904Y-70788152D02*
X52761904Y-71454819D01*
X52523809Y-70407200D02*
X52285714Y-71121485D01*
X52285714Y-71121485D02*
X52904761Y-71121485D01*
X51237619Y-53084819D02*
X51856666Y-53084819D01*
X51856666Y-53084819D02*
X51523333Y-53465771D01*
X51523333Y-53465771D02*
X51666190Y-53465771D01*
X51666190Y-53465771D02*
X51761428Y-53513390D01*
X51761428Y-53513390D02*
X51809047Y-53561009D01*
X51809047Y-53561009D02*
X51856666Y-53656247D01*
X51856666Y-53656247D02*
X51856666Y-53894342D01*
X51856666Y-53894342D02*
X51809047Y-53989580D01*
X51809047Y-53989580D02*
X51761428Y-54037200D01*
X51761428Y-54037200D02*
X51666190Y-54084819D01*
X51666190Y-54084819D02*
X51380476Y-54084819D01*
X51380476Y-54084819D02*
X51285238Y-54037200D01*
X51285238Y-54037200D02*
X51237619Y-53989580D01*
X52285238Y-53989580D02*
X52332857Y-54037200D01*
X52332857Y-54037200D02*
X52285238Y-54084819D01*
X52285238Y-54084819D02*
X52237619Y-54037200D01*
X52237619Y-54037200D02*
X52285238Y-53989580D01*
X52285238Y-53989580D02*
X52285238Y-54084819D01*
X52666190Y-53084819D02*
X53285237Y-53084819D01*
X53285237Y-53084819D02*
X52951904Y-53465771D01*
X52951904Y-53465771D02*
X53094761Y-53465771D01*
X53094761Y-53465771D02*
X53189999Y-53513390D01*
X53189999Y-53513390D02*
X53237618Y-53561009D01*
X53237618Y-53561009D02*
X53285237Y-53656247D01*
X53285237Y-53656247D02*
X53285237Y-53894342D01*
X53285237Y-53894342D02*
X53237618Y-53989580D01*
X53237618Y-53989580D02*
X53189999Y-54037200D01*
X53189999Y-54037200D02*
X53094761Y-54084819D01*
X53094761Y-54084819D02*
X52809047Y-54084819D01*
X52809047Y-54084819D02*
X52713809Y-54037200D01*
X52713809Y-54037200D02*
X52666190Y-53989580D01*
X53713809Y-54084819D02*
X53713809Y-53084819D01*
X53809047Y-53703866D02*
X54094761Y-54084819D01*
X54094761Y-53418152D02*
X53713809Y-53799104D01*
X52583333Y-56454819D02*
X52250000Y-55978628D01*
X52011905Y-56454819D02*
X52011905Y-55454819D01*
X52011905Y-55454819D02*
X52392857Y-55454819D01*
X52392857Y-55454819D02*
X52488095Y-55502438D01*
X52488095Y-55502438D02*
X52535714Y-55550057D01*
X52535714Y-55550057D02*
X52583333Y-55645295D01*
X52583333Y-55645295D02*
X52583333Y-55788152D01*
X52583333Y-55788152D02*
X52535714Y-55883390D01*
X52535714Y-55883390D02*
X52488095Y-55931009D01*
X52488095Y-55931009D02*
X52392857Y-55978628D01*
X52392857Y-55978628D02*
X52011905Y-55978628D01*
X53535714Y-56454819D02*
X52964286Y-56454819D01*
X53250000Y-56454819D02*
X53250000Y-55454819D01*
X53250000Y-55454819D02*
X53154762Y-55597676D01*
X53154762Y-55597676D02*
X53059524Y-55692914D01*
X53059524Y-55692914D02*
X52964286Y-55740533D01*
X47595238Y-70454819D02*
X47833333Y-71454819D01*
X47833333Y-71454819D02*
X48023809Y-70740533D01*
X48023809Y-70740533D02*
X48214285Y-71454819D01*
X48214285Y-71454819D02*
X48452381Y-70454819D01*
X48833333Y-71454819D02*
X48833333Y-70454819D01*
X48833333Y-70454819D02*
X49214285Y-70454819D01*
X49214285Y-70454819D02*
X49309523Y-70502438D01*
X49309523Y-70502438D02*
X49357142Y-70550057D01*
X49357142Y-70550057D02*
X49404761Y-70645295D01*
X49404761Y-70645295D02*
X49404761Y-70788152D01*
X49404761Y-70788152D02*
X49357142Y-70883390D01*
X49357142Y-70883390D02*
X49309523Y-70931009D01*
X49309523Y-70931009D02*
X49214285Y-70978628D01*
X49214285Y-70978628D02*
X48833333Y-70978628D01*
X49738095Y-70454819D02*
X50357142Y-70454819D01*
X50357142Y-70454819D02*
X50023809Y-70835771D01*
X50023809Y-70835771D02*
X50166666Y-70835771D01*
X50166666Y-70835771D02*
X50261904Y-70883390D01*
X50261904Y-70883390D02*
X50309523Y-70931009D01*
X50309523Y-70931009D02*
X50357142Y-71026247D01*
X50357142Y-71026247D02*
X50357142Y-71264342D01*
X50357142Y-71264342D02*
X50309523Y-71359580D01*
X50309523Y-71359580D02*
X50261904Y-71407200D01*
X50261904Y-71407200D02*
X50166666Y-71454819D01*
X50166666Y-71454819D02*
X49880952Y-71454819D01*
X49880952Y-71454819D02*
X49785714Y-71407200D01*
X49785714Y-71407200D02*
X49738095Y-71359580D01*
X85454819Y-59380951D02*
X86454819Y-59142856D01*
X86454819Y-59142856D02*
X85740533Y-58952380D01*
X85740533Y-58952380D02*
X86454819Y-58761904D01*
X86454819Y-58761904D02*
X85454819Y-58523809D01*
X86454819Y-58142856D02*
X85454819Y-58142856D01*
X85454819Y-58142856D02*
X85454819Y-57761904D01*
X85454819Y-57761904D02*
X85502438Y-57666666D01*
X85502438Y-57666666D02*
X85550057Y-57619047D01*
X85550057Y-57619047D02*
X85645295Y-57571428D01*
X85645295Y-57571428D02*
X85788152Y-57571428D01*
X85788152Y-57571428D02*
X85883390Y-57619047D01*
X85883390Y-57619047D02*
X85931009Y-57666666D01*
X85931009Y-57666666D02*
X85978628Y-57761904D01*
X85978628Y-57761904D02*
X85978628Y-58142856D01*
X86454819Y-56619047D02*
X86454819Y-57190475D01*
X86454819Y-56904761D02*
X85454819Y-56904761D01*
X85454819Y-56904761D02*
X85597676Y-56999999D01*
X85597676Y-56999999D02*
X85692914Y-57095237D01*
X85692914Y-57095237D02*
X85740533Y-57190475D01*
X85788152Y-55761904D02*
X86454819Y-55761904D01*
X85407200Y-55999999D02*
X86121485Y-56238094D01*
X86121485Y-56238094D02*
X86121485Y-55619047D01*
X85454819Y-56880951D02*
X86454819Y-56642856D01*
X86454819Y-56642856D02*
X85740533Y-56452380D01*
X85740533Y-56452380D02*
X86454819Y-56261904D01*
X86454819Y-56261904D02*
X85454819Y-56023809D01*
X86454819Y-55642856D02*
X85454819Y-55642856D01*
X85454819Y-55642856D02*
X85454819Y-55261904D01*
X85454819Y-55261904D02*
X85502438Y-55166666D01*
X85502438Y-55166666D02*
X85550057Y-55119047D01*
X85550057Y-55119047D02*
X85645295Y-55071428D01*
X85645295Y-55071428D02*
X85788152Y-55071428D01*
X85788152Y-55071428D02*
X85883390Y-55119047D01*
X85883390Y-55119047D02*
X85931009Y-55166666D01*
X85931009Y-55166666D02*
X85978628Y-55261904D01*
X85978628Y-55261904D02*
X85978628Y-55642856D01*
X86454819Y-54119047D02*
X86454819Y-54690475D01*
X86454819Y-54404761D02*
X85454819Y-54404761D01*
X85454819Y-54404761D02*
X85597676Y-54499999D01*
X85597676Y-54499999D02*
X85692914Y-54595237D01*
X85692914Y-54595237D02*
X85740533Y-54690475D01*
X85454819Y-53785713D02*
X85454819Y-53166666D01*
X85454819Y-53166666D02*
X85835771Y-53499999D01*
X85835771Y-53499999D02*
X85835771Y-53357142D01*
X85835771Y-53357142D02*
X85883390Y-53261904D01*
X85883390Y-53261904D02*
X85931009Y-53214285D01*
X85931009Y-53214285D02*
X86026247Y-53166666D01*
X86026247Y-53166666D02*
X86264342Y-53166666D01*
X86264342Y-53166666D02*
X86359580Y-53214285D01*
X86359580Y-53214285D02*
X86407200Y-53261904D01*
X86407200Y-53261904D02*
X86454819Y-53357142D01*
X86454819Y-53357142D02*
X86454819Y-53642856D01*
X86454819Y-53642856D02*
X86407200Y-53738094D01*
X86407200Y-53738094D02*
X86359580Y-53785713D01*
X84595238Y-70454819D02*
X84833333Y-71454819D01*
X84833333Y-71454819D02*
X85023809Y-70740533D01*
X85023809Y-70740533D02*
X85214285Y-71454819D01*
X85214285Y-71454819D02*
X85452381Y-70454819D01*
X85833333Y-71454819D02*
X85833333Y-70454819D01*
X85833333Y-70454819D02*
X86214285Y-70454819D01*
X86214285Y-70454819D02*
X86309523Y-70502438D01*
X86309523Y-70502438D02*
X86357142Y-70550057D01*
X86357142Y-70550057D02*
X86404761Y-70645295D01*
X86404761Y-70645295D02*
X86404761Y-70788152D01*
X86404761Y-70788152D02*
X86357142Y-70883390D01*
X86357142Y-70883390D02*
X86309523Y-70931009D01*
X86309523Y-70931009D02*
X86214285Y-70978628D01*
X86214285Y-70978628D02*
X85833333Y-70978628D01*
X86785714Y-70550057D02*
X86833333Y-70502438D01*
X86833333Y-70502438D02*
X86928571Y-70454819D01*
X86928571Y-70454819D02*
X87166666Y-70454819D01*
X87166666Y-70454819D02*
X87261904Y-70502438D01*
X87261904Y-70502438D02*
X87309523Y-70550057D01*
X87309523Y-70550057D02*
X87357142Y-70645295D01*
X87357142Y-70645295D02*
X87357142Y-70740533D01*
X87357142Y-70740533D02*
X87309523Y-70883390D01*
X87309523Y-70883390D02*
X86738095Y-71454819D01*
X86738095Y-71454819D02*
X87357142Y-71454819D01*
X78595238Y-70454819D02*
X78833333Y-71454819D01*
X78833333Y-71454819D02*
X79023809Y-70740533D01*
X79023809Y-70740533D02*
X79214285Y-71454819D01*
X79214285Y-71454819D02*
X79452381Y-70454819D01*
X79833333Y-71454819D02*
X79833333Y-70454819D01*
X79833333Y-70454819D02*
X80214285Y-70454819D01*
X80214285Y-70454819D02*
X80309523Y-70502438D01*
X80309523Y-70502438D02*
X80357142Y-70550057D01*
X80357142Y-70550057D02*
X80404761Y-70645295D01*
X80404761Y-70645295D02*
X80404761Y-70788152D01*
X80404761Y-70788152D02*
X80357142Y-70883390D01*
X80357142Y-70883390D02*
X80309523Y-70931009D01*
X80309523Y-70931009D02*
X80214285Y-70978628D01*
X80214285Y-70978628D02*
X79833333Y-70978628D01*
X81261904Y-70454819D02*
X81071428Y-70454819D01*
X81071428Y-70454819D02*
X80976190Y-70502438D01*
X80976190Y-70502438D02*
X80928571Y-70550057D01*
X80928571Y-70550057D02*
X80833333Y-70692914D01*
X80833333Y-70692914D02*
X80785714Y-70883390D01*
X80785714Y-70883390D02*
X80785714Y-71264342D01*
X80785714Y-71264342D02*
X80833333Y-71359580D01*
X80833333Y-71359580D02*
X80880952Y-71407200D01*
X80880952Y-71407200D02*
X80976190Y-71454819D01*
X80976190Y-71454819D02*
X81166666Y-71454819D01*
X81166666Y-71454819D02*
X81261904Y-71407200D01*
X81261904Y-71407200D02*
X81309523Y-71359580D01*
X81309523Y-71359580D02*
X81357142Y-71264342D01*
X81357142Y-71264342D02*
X81357142Y-71026247D01*
X81357142Y-71026247D02*
X81309523Y-70931009D01*
X81309523Y-70931009D02*
X81261904Y-70883390D01*
X81261904Y-70883390D02*
X81166666Y-70835771D01*
X81166666Y-70835771D02*
X80976190Y-70835771D01*
X80976190Y-70835771D02*
X80880952Y-70883390D01*
X80880952Y-70883390D02*
X80833333Y-70931009D01*
X80833333Y-70931009D02*
X80785714Y-71026247D01*
X69845238Y-70454819D02*
X70083333Y-71454819D01*
X70083333Y-71454819D02*
X70273809Y-70740533D01*
X70273809Y-70740533D02*
X70464285Y-71454819D01*
X70464285Y-71454819D02*
X70702381Y-70454819D01*
X71083333Y-71454819D02*
X71083333Y-70454819D01*
X71083333Y-70454819D02*
X71464285Y-70454819D01*
X71464285Y-70454819D02*
X71559523Y-70502438D01*
X71559523Y-70502438D02*
X71607142Y-70550057D01*
X71607142Y-70550057D02*
X71654761Y-70645295D01*
X71654761Y-70645295D02*
X71654761Y-70788152D01*
X71654761Y-70788152D02*
X71607142Y-70883390D01*
X71607142Y-70883390D02*
X71559523Y-70931009D01*
X71559523Y-70931009D02*
X71464285Y-70978628D01*
X71464285Y-70978628D02*
X71083333Y-70978628D01*
X72226190Y-70883390D02*
X72130952Y-70835771D01*
X72130952Y-70835771D02*
X72083333Y-70788152D01*
X72083333Y-70788152D02*
X72035714Y-70692914D01*
X72035714Y-70692914D02*
X72035714Y-70645295D01*
X72035714Y-70645295D02*
X72083333Y-70550057D01*
X72083333Y-70550057D02*
X72130952Y-70502438D01*
X72130952Y-70502438D02*
X72226190Y-70454819D01*
X72226190Y-70454819D02*
X72416666Y-70454819D01*
X72416666Y-70454819D02*
X72511904Y-70502438D01*
X72511904Y-70502438D02*
X72559523Y-70550057D01*
X72559523Y-70550057D02*
X72607142Y-70645295D01*
X72607142Y-70645295D02*
X72607142Y-70692914D01*
X72607142Y-70692914D02*
X72559523Y-70788152D01*
X72559523Y-70788152D02*
X72511904Y-70835771D01*
X72511904Y-70835771D02*
X72416666Y-70883390D01*
X72416666Y-70883390D02*
X72226190Y-70883390D01*
X72226190Y-70883390D02*
X72130952Y-70931009D01*
X72130952Y-70931009D02*
X72083333Y-70978628D01*
X72083333Y-70978628D02*
X72035714Y-71073866D01*
X72035714Y-71073866D02*
X72035714Y-71264342D01*
X72035714Y-71264342D02*
X72083333Y-71359580D01*
X72083333Y-71359580D02*
X72130952Y-71407200D01*
X72130952Y-71407200D02*
X72226190Y-71454819D01*
X72226190Y-71454819D02*
X72416666Y-71454819D01*
X72416666Y-71454819D02*
X72511904Y-71407200D01*
X72511904Y-71407200D02*
X72559523Y-71359580D01*
X72559523Y-71359580D02*
X72607142Y-71264342D01*
X72607142Y-71264342D02*
X72607142Y-71073866D01*
X72607142Y-71073866D02*
X72559523Y-70978628D01*
X72559523Y-70978628D02*
X72511904Y-70931009D01*
X72511904Y-70931009D02*
X72416666Y-70883390D01*
X62345238Y-70454819D02*
X62583333Y-71454819D01*
X62583333Y-71454819D02*
X62773809Y-70740533D01*
X62773809Y-70740533D02*
X62964285Y-71454819D01*
X62964285Y-71454819D02*
X63202381Y-70454819D01*
X63583333Y-71454819D02*
X63583333Y-70454819D01*
X63583333Y-70454819D02*
X63964285Y-70454819D01*
X63964285Y-70454819D02*
X64059523Y-70502438D01*
X64059523Y-70502438D02*
X64107142Y-70550057D01*
X64107142Y-70550057D02*
X64154761Y-70645295D01*
X64154761Y-70645295D02*
X64154761Y-70788152D01*
X64154761Y-70788152D02*
X64107142Y-70883390D01*
X64107142Y-70883390D02*
X64059523Y-70931009D01*
X64059523Y-70931009D02*
X63964285Y-70978628D01*
X63964285Y-70978628D02*
X63583333Y-70978628D01*
X64630952Y-71454819D02*
X64821428Y-71454819D01*
X64821428Y-71454819D02*
X64916666Y-71407200D01*
X64916666Y-71407200D02*
X64964285Y-71359580D01*
X64964285Y-71359580D02*
X65059523Y-71216723D01*
X65059523Y-71216723D02*
X65107142Y-71026247D01*
X65107142Y-71026247D02*
X65107142Y-70645295D01*
X65107142Y-70645295D02*
X65059523Y-70550057D01*
X65059523Y-70550057D02*
X65011904Y-70502438D01*
X65011904Y-70502438D02*
X64916666Y-70454819D01*
X64916666Y-70454819D02*
X64726190Y-70454819D01*
X64726190Y-70454819D02*
X64630952Y-70502438D01*
X64630952Y-70502438D02*
X64583333Y-70550057D01*
X64583333Y-70550057D02*
X64535714Y-70645295D01*
X64535714Y-70645295D02*
X64535714Y-70883390D01*
X64535714Y-70883390D02*
X64583333Y-70978628D01*
X64583333Y-70978628D02*
X64630952Y-71026247D01*
X64630952Y-71026247D02*
X64726190Y-71073866D01*
X64726190Y-71073866D02*
X64916666Y-71073866D01*
X64916666Y-71073866D02*
X65011904Y-71026247D01*
X65011904Y-71026247D02*
X65059523Y-70978628D01*
X65059523Y-70978628D02*
X65107142Y-70883390D01*
X82095238Y-70454819D02*
X82333333Y-71454819D01*
X82333333Y-71454819D02*
X82523809Y-70740533D01*
X82523809Y-70740533D02*
X82714285Y-71454819D01*
X82714285Y-71454819D02*
X82952381Y-70454819D01*
X83333333Y-71454819D02*
X83333333Y-70454819D01*
X83333333Y-70454819D02*
X83714285Y-70454819D01*
X83714285Y-70454819D02*
X83809523Y-70502438D01*
X83809523Y-70502438D02*
X83857142Y-70550057D01*
X83857142Y-70550057D02*
X83904761Y-70645295D01*
X83904761Y-70645295D02*
X83904761Y-70788152D01*
X83904761Y-70788152D02*
X83857142Y-70883390D01*
X83857142Y-70883390D02*
X83809523Y-70931009D01*
X83809523Y-70931009D02*
X83714285Y-70978628D01*
X83714285Y-70978628D02*
X83333333Y-70978628D01*
X84857142Y-71454819D02*
X84285714Y-71454819D01*
X84571428Y-71454819D02*
X84571428Y-70454819D01*
X84571428Y-70454819D02*
X84476190Y-70597676D01*
X84476190Y-70597676D02*
X84380952Y-70692914D01*
X84380952Y-70692914D02*
X84285714Y-70740533D01*
X82866009Y-54106904D02*
X82913628Y-53964047D01*
X82913628Y-53964047D02*
X82961247Y-53916428D01*
X82961247Y-53916428D02*
X83056485Y-53868809D01*
X83056485Y-53868809D02*
X83199342Y-53868809D01*
X83199342Y-53868809D02*
X83294580Y-53916428D01*
X83294580Y-53916428D02*
X83342200Y-53964047D01*
X83342200Y-53964047D02*
X83389819Y-54059285D01*
X83389819Y-54059285D02*
X83389819Y-54440237D01*
X83389819Y-54440237D02*
X82389819Y-54440237D01*
X82389819Y-54440237D02*
X82389819Y-54106904D01*
X82389819Y-54106904D02*
X82437438Y-54011666D01*
X82437438Y-54011666D02*
X82485057Y-53964047D01*
X82485057Y-53964047D02*
X82580295Y-53916428D01*
X82580295Y-53916428D02*
X82675533Y-53916428D01*
X82675533Y-53916428D02*
X82770771Y-53964047D01*
X82770771Y-53964047D02*
X82818390Y-54011666D01*
X82818390Y-54011666D02*
X82866009Y-54106904D01*
X82866009Y-54106904D02*
X82866009Y-54440237D01*
X83389819Y-52916428D02*
X83389819Y-53487856D01*
X83389819Y-53202142D02*
X82389819Y-53202142D01*
X82389819Y-53202142D02*
X82532676Y-53297380D01*
X82532676Y-53297380D02*
X82627914Y-53392618D01*
X82627914Y-53392618D02*
X82675533Y-53487856D01*
X82389819Y-52297380D02*
X82389819Y-52202142D01*
X82389819Y-52202142D02*
X82437438Y-52106904D01*
X82437438Y-52106904D02*
X82485057Y-52059285D01*
X82485057Y-52059285D02*
X82580295Y-52011666D01*
X82580295Y-52011666D02*
X82770771Y-51964047D01*
X82770771Y-51964047D02*
X83008866Y-51964047D01*
X83008866Y-51964047D02*
X83199342Y-52011666D01*
X83199342Y-52011666D02*
X83294580Y-52059285D01*
X83294580Y-52059285D02*
X83342200Y-52106904D01*
X83342200Y-52106904D02*
X83389819Y-52202142D01*
X83389819Y-52202142D02*
X83389819Y-52297380D01*
X83389819Y-52297380D02*
X83342200Y-52392618D01*
X83342200Y-52392618D02*
X83294580Y-52440237D01*
X83294580Y-52440237D02*
X83199342Y-52487856D01*
X83199342Y-52487856D02*
X83008866Y-52535475D01*
X83008866Y-52535475D02*
X82770771Y-52535475D01*
X82770771Y-52535475D02*
X82580295Y-52487856D01*
X82580295Y-52487856D02*
X82485057Y-52440237D01*
X82485057Y-52440237D02*
X82437438Y-52392618D01*
X82437438Y-52392618D02*
X82389819Y-52297380D01*
X82389819Y-51344999D02*
X82389819Y-51249761D01*
X82389819Y-51249761D02*
X82437438Y-51154523D01*
X82437438Y-51154523D02*
X82485057Y-51106904D01*
X82485057Y-51106904D02*
X82580295Y-51059285D01*
X82580295Y-51059285D02*
X82770771Y-51011666D01*
X82770771Y-51011666D02*
X83008866Y-51011666D01*
X83008866Y-51011666D02*
X83199342Y-51059285D01*
X83199342Y-51059285D02*
X83294580Y-51106904D01*
X83294580Y-51106904D02*
X83342200Y-51154523D01*
X83342200Y-51154523D02*
X83389819Y-51249761D01*
X83389819Y-51249761D02*
X83389819Y-51344999D01*
X83389819Y-51344999D02*
X83342200Y-51440237D01*
X83342200Y-51440237D02*
X83294580Y-51487856D01*
X83294580Y-51487856D02*
X83199342Y-51535475D01*
X83199342Y-51535475D02*
X83008866Y-51583094D01*
X83008866Y-51583094D02*
X82770771Y-51583094D01*
X82770771Y-51583094D02*
X82580295Y-51535475D01*
X82580295Y-51535475D02*
X82485057Y-51487856D01*
X82485057Y-51487856D02*
X82437438Y-51440237D01*
X82437438Y-51440237D02*
X82389819Y-51344999D01*
X83389819Y-50583094D02*
X82389819Y-50583094D01*
X83008866Y-50487856D02*
X83389819Y-50202142D01*
X82723152Y-50202142D02*
X83104104Y-50583094D01*
X83364819Y-55280238D02*
X82888628Y-55613571D01*
X83364819Y-55851666D02*
X82364819Y-55851666D01*
X82364819Y-55851666D02*
X82364819Y-55470714D01*
X82364819Y-55470714D02*
X82412438Y-55375476D01*
X82412438Y-55375476D02*
X82460057Y-55327857D01*
X82460057Y-55327857D02*
X82555295Y-55280238D01*
X82555295Y-55280238D02*
X82698152Y-55280238D01*
X82698152Y-55280238D02*
X82793390Y-55327857D01*
X82793390Y-55327857D02*
X82841009Y-55375476D01*
X82841009Y-55375476D02*
X82888628Y-55470714D01*
X82888628Y-55470714D02*
X82888628Y-55851666D01*
X82364819Y-54994523D02*
X83364819Y-54661190D01*
X83364819Y-54661190D02*
X82364819Y-54327857D01*
X83364819Y-53470714D02*
X83364819Y-54042142D01*
X83364819Y-53756428D02*
X82364819Y-53756428D01*
X82364819Y-53756428D02*
X82507676Y-53851666D01*
X82507676Y-53851666D02*
X82602914Y-53946904D01*
X82602914Y-53946904D02*
X82650533Y-54042142D01*
X64369048Y-70454819D02*
X64607143Y-71454819D01*
X64607143Y-71454819D02*
X64797619Y-70740533D01*
X64797619Y-70740533D02*
X64988095Y-71454819D01*
X64988095Y-71454819D02*
X65226191Y-70454819D01*
X65607143Y-71454819D02*
X65607143Y-70454819D01*
X65607143Y-70454819D02*
X65988095Y-70454819D01*
X65988095Y-70454819D02*
X66083333Y-70502438D01*
X66083333Y-70502438D02*
X66130952Y-70550057D01*
X66130952Y-70550057D02*
X66178571Y-70645295D01*
X66178571Y-70645295D02*
X66178571Y-70788152D01*
X66178571Y-70788152D02*
X66130952Y-70883390D01*
X66130952Y-70883390D02*
X66083333Y-70931009D01*
X66083333Y-70931009D02*
X65988095Y-70978628D01*
X65988095Y-70978628D02*
X65607143Y-70978628D01*
X67130952Y-71454819D02*
X66559524Y-71454819D01*
X66845238Y-71454819D02*
X66845238Y-70454819D01*
X66845238Y-70454819D02*
X66750000Y-70597676D01*
X66750000Y-70597676D02*
X66654762Y-70692914D01*
X66654762Y-70692914D02*
X66559524Y-70740533D01*
X67750000Y-70454819D02*
X67845238Y-70454819D01*
X67845238Y-70454819D02*
X67940476Y-70502438D01*
X67940476Y-70502438D02*
X67988095Y-70550057D01*
X67988095Y-70550057D02*
X68035714Y-70645295D01*
X68035714Y-70645295D02*
X68083333Y-70835771D01*
X68083333Y-70835771D02*
X68083333Y-71073866D01*
X68083333Y-71073866D02*
X68035714Y-71264342D01*
X68035714Y-71264342D02*
X67988095Y-71359580D01*
X67988095Y-71359580D02*
X67940476Y-71407200D01*
X67940476Y-71407200D02*
X67845238Y-71454819D01*
X67845238Y-71454819D02*
X67750000Y-71454819D01*
X67750000Y-71454819D02*
X67654762Y-71407200D01*
X67654762Y-71407200D02*
X67607143Y-71359580D01*
X67607143Y-71359580D02*
X67559524Y-71264342D01*
X67559524Y-71264342D02*
X67511905Y-71073866D01*
X67511905Y-71073866D02*
X67511905Y-70835771D01*
X67511905Y-70835771D02*
X67559524Y-70645295D01*
X67559524Y-70645295D02*
X67607143Y-70550057D01*
X67607143Y-70550057D02*
X67654762Y-70502438D01*
X67654762Y-70502438D02*
X67750000Y-70454819D01*
D11*
%TO.C,R1*%
X56560000Y-56000000D02*
X55900000Y-56000000D01*
X55900000Y-57250000D02*
X55900000Y-54750000D01*
X55900000Y-54750000D02*
X49600000Y-54750000D01*
X49600000Y-57250000D02*
X55900000Y-57250000D01*
X49600000Y-54750000D02*
X49600000Y-57250000D01*
X48940000Y-56000000D02*
X49600000Y-56000000D01*
%TO.C,RV1*%
X75904000Y-58302000D02*
X82762000Y-58302000D01*
X82762000Y-58302000D02*
X82762000Y-51698000D01*
X78825000Y-55000000D02*
X80095000Y-55000000D01*
X79460000Y-54365000D02*
X79460000Y-55635000D01*
X75904000Y-51698000D02*
X75904000Y-58302000D01*
X82762000Y-51698000D02*
X75904000Y-51698000D01*
%TD*%
D12*
X87500000Y-71500000D02*
G75*
G02*
X86500000Y-72500000I-1000000J0D01*
G01*
X86500000Y-72500000D02*
X48500000Y-72500000D01*
X48500000Y-72500000D02*
G75*
G02*
X47500000Y-71500000I0J1000000D01*
G01*
X48500000Y-51000000D02*
X86500000Y-51000000D01*
X47500000Y-71500000D02*
X47500000Y-52000000D01*
X87500000Y-52000000D02*
X87500000Y-71500000D01*
X86500000Y-51000000D02*
G75*
G02*
X87500000Y-52000000I0J-1000000D01*
G01*
X47500000Y-52000000D02*
G75*
G02*
X48500000Y-51000000I1000000J0D01*
G01*
M02*
