%TF.GenerationSoftware,KiCad,Pcbnew,9.0.2*%
%TF.CreationDate,2025-07-23T23:09:01-07:00*%
%TF.ProjectId,3pdt-pwr-breakout-neg-V2,33706474-2d70-4777-922d-627265616b6f,rev?*%
%TF.SameCoordinates,Original*%
%TF.FileFunction,Legend,Top*%
%TF.FilePolarity,Positive*%
%FSLAX46Y46*%
G04 Gerber Fmt 4.6, Leading zero omitted, Abs format (unit mm)*
G04 Created by KiCad (PCBNEW 9.0.2) date 2025-07-23 23:09:01*
%MOMM*%
%LPD*%
G01*
G04 APERTURE LIST*
%ADD10C,0.200000*%
%ADD11C,0.150000*%
%ADD12C,0.120000*%
%TA.AperFunction,Profile*%
%ADD13C,0.100000*%
%TD*%
G04 APERTURE END LIST*
D10*
G36*
X76267635Y-62685303D02*
G01*
X76049037Y-62685303D01*
X76157237Y-62310146D01*
X76267635Y-62685303D01*
G37*
G36*
X76975892Y-62246778D02*
G01*
X77017851Y-62253360D01*
X77059833Y-62271821D01*
X77092687Y-62300865D01*
X77118183Y-62341211D01*
X77138605Y-62398562D01*
X77150272Y-62468099D01*
X77155018Y-62578203D01*
X77150353Y-62688955D01*
X77138605Y-62762972D01*
X77125482Y-62807080D01*
X77111269Y-62838644D01*
X77096253Y-62860364D01*
X77067548Y-62885246D01*
X77030942Y-62902313D01*
X76996195Y-62909050D01*
X76933148Y-62911960D01*
X76812345Y-62911960D01*
X76812345Y-62243712D01*
X76885032Y-62243712D01*
X76975892Y-62246778D01*
G37*
G36*
X77659971Y-60561232D02*
G01*
X77685976Y-60577392D01*
X77710817Y-60606027D01*
X77729027Y-60641815D01*
X77740736Y-60687857D01*
X77745011Y-60747016D01*
X77741151Y-60801035D01*
X77730709Y-60841920D01*
X77714676Y-60872679D01*
X77692618Y-60896658D01*
X77668071Y-60910662D01*
X77640084Y-60915422D01*
X77611085Y-60910451D01*
X77585913Y-60895877D01*
X77563538Y-60870969D01*
X77547665Y-60838979D01*
X77536999Y-60793944D01*
X77532959Y-60731629D01*
X77536761Y-60669947D01*
X77546651Y-60626643D01*
X77561096Y-60596990D01*
X77581676Y-60573986D01*
X77604947Y-60560503D01*
X77631877Y-60555896D01*
X77659971Y-60561232D01*
G37*
G36*
X80326394Y-63210650D02*
G01*
X75650453Y-63210650D01*
X75650453Y-63080000D01*
X75761564Y-63080000D01*
X75933169Y-63080000D01*
X75999309Y-62853342D01*
X76319512Y-62853342D01*
X76389463Y-63080000D01*
X76565464Y-63080000D01*
X76511791Y-62911960D01*
X76650607Y-62911960D01*
X76650607Y-63080000D01*
X76954983Y-63080000D01*
X77039992Y-63074009D01*
X77098158Y-63058750D01*
X77144414Y-63035995D01*
X77181873Y-63009172D01*
X77211829Y-62978578D01*
X77245277Y-62930228D01*
X77273934Y-62871616D01*
X77297656Y-62801196D01*
X77304148Y-62771277D01*
X77397014Y-62771277D01*
X77401882Y-62852392D01*
X77414852Y-62918532D01*
X77434848Y-62972400D01*
X77461494Y-63016130D01*
X77495399Y-63051417D01*
X77536117Y-63077299D01*
X77585033Y-63093690D01*
X77643992Y-63099539D01*
X77710239Y-63092962D01*
X77763696Y-63074756D01*
X77806853Y-63046355D01*
X77843952Y-63006759D01*
X77872134Y-62960044D01*
X77892094Y-62905183D01*
X77901023Y-62859547D01*
X77907228Y-62796850D01*
X77909582Y-62712903D01*
X77909582Y-62612641D01*
X78080356Y-62612641D01*
X78084987Y-62771305D01*
X78096183Y-62868119D01*
X78112627Y-62924292D01*
X78141564Y-62979738D01*
X78166526Y-63012163D01*
X78197471Y-63041012D01*
X78235255Y-63066261D01*
X78275886Y-63083250D01*
X78332474Y-63095045D01*
X78409351Y-63099539D01*
X78472660Y-63095644D01*
X78523295Y-63085026D01*
X78563420Y-63069009D01*
X78601149Y-63045551D01*
X78632300Y-63018182D01*
X78657697Y-62986943D01*
X78678414Y-62950705D01*
X78694561Y-62908884D01*
X78706058Y-62860608D01*
X78715177Y-62772466D01*
X78715486Y-62759553D01*
X78848598Y-62759553D01*
X78861464Y-62841537D01*
X78882254Y-62909641D01*
X78910365Y-62966138D01*
X78945855Y-63012711D01*
X78988002Y-63048712D01*
X79039580Y-63075790D01*
X79102524Y-63093247D01*
X79179205Y-63099539D01*
X79248497Y-63094997D01*
X79306002Y-63082394D01*
X79353545Y-63062964D01*
X79397196Y-63033801D01*
X79432947Y-62996677D01*
X79461745Y-62951100D01*
X79483140Y-62899248D01*
X79495767Y-62845732D01*
X79499993Y-62789656D01*
X79496143Y-62727353D01*
X79485273Y-62674673D01*
X79467998Y-62629921D01*
X79444116Y-62590069D01*
X79414809Y-62556224D01*
X79379484Y-62528011D01*
X79314623Y-62494167D01*
X79204899Y-62455287D01*
X79125006Y-62427694D01*
X79079273Y-62405373D01*
X79056253Y-62387693D01*
X79038075Y-62359382D01*
X79032219Y-62326693D01*
X79035107Y-62302306D01*
X79043509Y-62281888D01*
X79057914Y-62264412D01*
X79085961Y-62245182D01*
X79122054Y-62232668D01*
X79168312Y-62228080D01*
X79213199Y-62232488D01*
X79246443Y-62244234D01*
X79270747Y-62261847D01*
X79289846Y-62287315D01*
X79304871Y-62323265D01*
X79315297Y-62372672D01*
X79477083Y-62364856D01*
X79470333Y-62297213D01*
X79456003Y-62243712D01*
X79578591Y-62243712D01*
X79816337Y-62243712D01*
X79816337Y-63080000D01*
X79978074Y-63080000D01*
X79978074Y-62243712D01*
X80215283Y-62243712D01*
X80215283Y-62075673D01*
X79578591Y-62075673D01*
X79578591Y-62243712D01*
X79456003Y-62243712D01*
X79454675Y-62238752D01*
X79430403Y-62187783D01*
X79397021Y-62143145D01*
X79357543Y-62109002D01*
X79308068Y-62083071D01*
X79246417Y-62066181D01*
X79169924Y-62060041D01*
X79108808Y-62064312D01*
X79056703Y-62076325D01*
X79012289Y-62095151D01*
X78971385Y-62122755D01*
X78938370Y-62156753D01*
X78912247Y-62197428D01*
X78892842Y-62243691D01*
X78881396Y-62291472D01*
X78877565Y-62341592D01*
X78882212Y-62399430D01*
X78895830Y-62451782D01*
X78918556Y-62499916D01*
X78951326Y-62544680D01*
X78989222Y-62578170D01*
X79047834Y-62611872D01*
X79133873Y-62644881D01*
X79263371Y-62689333D01*
X79300763Y-62710653D01*
X79321598Y-62732076D01*
X79334003Y-62758917D01*
X79338256Y-62791610D01*
X79334038Y-62825725D01*
X79321276Y-62857092D01*
X79298640Y-62886864D01*
X79270354Y-62908212D01*
X79232092Y-62922326D01*
X79180866Y-62927592D01*
X79132936Y-62922033D01*
X79094522Y-62906595D01*
X79063629Y-62882224D01*
X79039115Y-62848410D01*
X79019711Y-62802095D01*
X79005988Y-62740013D01*
X78848598Y-62759553D01*
X78715486Y-62759553D01*
X78719198Y-62604459D01*
X78719198Y-62075673D01*
X78557411Y-62075673D01*
X78557411Y-62636332D01*
X78555249Y-62748046D01*
X78550279Y-62808463D01*
X78542535Y-62841001D01*
X78528721Y-62869911D01*
X78508221Y-62895901D01*
X78483275Y-62914555D01*
X78449548Y-62926895D01*
X78404418Y-62931500D01*
X78360123Y-62926804D01*
X78325142Y-62913894D01*
X78297537Y-62893825D01*
X78274709Y-62866000D01*
X78258350Y-62833036D01*
X78248102Y-62793930D01*
X78244058Y-62743914D01*
X78242094Y-62624548D01*
X78242094Y-62075673D01*
X78080356Y-62075673D01*
X78080356Y-62612641D01*
X77909582Y-62612641D01*
X77909582Y-62075673D01*
X77748381Y-62075673D01*
X77748381Y-62727313D01*
X77744974Y-62810147D01*
X77736732Y-62860517D01*
X77725960Y-62888757D01*
X77708688Y-62909392D01*
X77684070Y-62922640D01*
X77649463Y-62927592D01*
X77616197Y-62921338D01*
X77590212Y-62903571D01*
X77569693Y-62873553D01*
X77560755Y-62848513D01*
X77553629Y-62809551D01*
X77549470Y-62751737D01*
X77397014Y-62771277D01*
X77304148Y-62771277D01*
X77310806Y-62740596D01*
X77319231Y-62669848D01*
X77322226Y-62587423D01*
X77318960Y-62493424D01*
X77309902Y-62415058D01*
X77295995Y-62350080D01*
X77275398Y-62288101D01*
X77249892Y-62234157D01*
X77219498Y-62187353D01*
X77183670Y-62147461D01*
X77143608Y-62116772D01*
X77098695Y-62094846D01*
X77040268Y-62081249D01*
X76946239Y-62075673D01*
X76650607Y-62075673D01*
X76650607Y-62911960D01*
X76511791Y-62911960D01*
X76244676Y-62075673D01*
X76073608Y-62075673D01*
X75884196Y-62685303D01*
X75761564Y-63080000D01*
X75650453Y-63080000D01*
X75650453Y-61134263D01*
X77036658Y-61134263D01*
X77338298Y-61134263D01*
X77338298Y-60942777D01*
X77036658Y-60942777D01*
X77036658Y-61134263D01*
X75650453Y-61134263D01*
X75650453Y-60730957D01*
X77382115Y-60730957D01*
X77382158Y-60731629D01*
X77386733Y-60802371D01*
X77399932Y-60864282D01*
X77421204Y-60918360D01*
X77450698Y-60965858D01*
X77487379Y-61006030D01*
X77526318Y-61033848D01*
X77568151Y-61050462D01*
X77613803Y-61056106D01*
X77655748Y-61050774D01*
X77693265Y-61035216D01*
X77727347Y-61009341D01*
X77758639Y-60972086D01*
X77747807Y-61089886D01*
X77732818Y-61162201D01*
X77715995Y-61203079D01*
X77691252Y-61235250D01*
X77664664Y-61253324D01*
X77635150Y-61259316D01*
X77610905Y-61256015D01*
X77591000Y-61246683D01*
X77574480Y-61231533D01*
X77561819Y-61211172D01*
X77552177Y-61183347D01*
X77546050Y-61145987D01*
X77397404Y-61166870D01*
X77409052Y-61229368D01*
X77425574Y-61280640D01*
X77446502Y-61322464D01*
X77471752Y-61356219D01*
X77501963Y-61383200D01*
X77536748Y-61402883D01*
X77576956Y-61415204D01*
X77623671Y-61419539D01*
X77674991Y-61414462D01*
X77721049Y-61399746D01*
X77762762Y-61375712D01*
X77800837Y-61342062D01*
X77835723Y-61297906D01*
X77862230Y-61249513D01*
X77884393Y-61188417D01*
X77901648Y-61112090D01*
X77913014Y-61017553D01*
X77917153Y-60901439D01*
X77913154Y-60787092D01*
X77902192Y-60694326D01*
X77885592Y-60619750D01*
X77864334Y-60560354D01*
X77838995Y-60513581D01*
X77805401Y-60470504D01*
X77769110Y-60437851D01*
X77729730Y-60414657D01*
X77686624Y-60400528D01*
X77638960Y-60395673D01*
X77968200Y-60395673D01*
X78254550Y-61400000D01*
X78427230Y-61400000D01*
X78714166Y-60395673D01*
X78542561Y-60395673D01*
X78346385Y-61138171D01*
X78143615Y-60395673D01*
X77968200Y-60395673D01*
X77638960Y-60395673D01*
X77584137Y-60401735D01*
X77535891Y-60419218D01*
X77492979Y-60447759D01*
X77454508Y-60487936D01*
X77423387Y-60536644D01*
X77400943Y-60592403D01*
X77387002Y-60656567D01*
X77382115Y-60730957D01*
X75650453Y-60730957D01*
X75650453Y-60284562D01*
X80326394Y-60284562D01*
X80326394Y-63210650D01*
G37*
G36*
X48486598Y-66987646D02*
G01*
X48528829Y-67003866D01*
X48565717Y-67030253D01*
X48598150Y-67067412D01*
X48622856Y-67111634D01*
X48641699Y-67167668D01*
X48654028Y-67238166D01*
X48658527Y-67326371D01*
X48653932Y-67415450D01*
X48641310Y-67487028D01*
X48621954Y-67544278D01*
X48596489Y-67589787D01*
X48563118Y-67628373D01*
X48526108Y-67655459D01*
X48484694Y-67671910D01*
X48437732Y-67677592D01*
X48390806Y-67671890D01*
X48349251Y-67655349D01*
X48311947Y-67628059D01*
X48278143Y-67589115D01*
X48252189Y-67543151D01*
X48232602Y-67486154D01*
X48219917Y-67415777D01*
X48215324Y-67329118D01*
X48219870Y-67240658D01*
X48232343Y-67169763D01*
X48251442Y-67113231D01*
X48276531Y-67068450D01*
X48309414Y-67030756D01*
X48346598Y-67004055D01*
X48388950Y-66987686D01*
X48437732Y-66981988D01*
X48486598Y-66987646D01*
G37*
G36*
X51801981Y-67435303D02*
G01*
X51583384Y-67435303D01*
X51691584Y-67060146D01*
X51801981Y-67435303D01*
G37*
G36*
X53829422Y-67960650D02*
G01*
X47937542Y-67960650D01*
X47937542Y-67335957D01*
X48048653Y-67335957D01*
X48053395Y-67433092D01*
X48066887Y-67517686D01*
X48088332Y-67591541D01*
X48117376Y-67656176D01*
X48154117Y-67712763D01*
X48198257Y-67761111D01*
X48247837Y-67798844D01*
X48303626Y-67826385D01*
X48366675Y-67843547D01*
X48438269Y-67849539D01*
X48508864Y-67843552D01*
X48571238Y-67826375D01*
X48626633Y-67798750D01*
X48676066Y-67760814D01*
X48720272Y-67712091D01*
X48756925Y-67655302D01*
X48785958Y-67590201D01*
X48807436Y-67515570D01*
X48820971Y-67429835D01*
X48824215Y-67362641D01*
X48951032Y-67362641D01*
X48955663Y-67521305D01*
X48966859Y-67618119D01*
X48983303Y-67674292D01*
X49012240Y-67729738D01*
X49037202Y-67762163D01*
X49068147Y-67791012D01*
X49105931Y-67816261D01*
X49146562Y-67833250D01*
X49203150Y-67845045D01*
X49280027Y-67849539D01*
X49343336Y-67845644D01*
X49393971Y-67835026D01*
X49434096Y-67819009D01*
X49471825Y-67795551D01*
X49502976Y-67768182D01*
X49528374Y-67736943D01*
X49549090Y-67700705D01*
X49565237Y-67658884D01*
X49576734Y-67610608D01*
X49585853Y-67522466D01*
X49589874Y-67354459D01*
X49589874Y-66993712D01*
X49702861Y-66993712D01*
X49940607Y-66993712D01*
X49940607Y-67830000D01*
X50102344Y-67830000D01*
X50102344Y-67521277D01*
X50692923Y-67521277D01*
X50697792Y-67602392D01*
X50710762Y-67668532D01*
X50730758Y-67722400D01*
X50757404Y-67766130D01*
X50791309Y-67801417D01*
X50832026Y-67827299D01*
X50880943Y-67843690D01*
X50939902Y-67849539D01*
X51006149Y-67842962D01*
X51044208Y-67830000D01*
X51295910Y-67830000D01*
X51467515Y-67830000D01*
X51533656Y-67603342D01*
X51853859Y-67603342D01*
X51923810Y-67830000D01*
X52099811Y-67830000D01*
X51942245Y-67336690D01*
X52157062Y-67336690D01*
X52161676Y-67432389D01*
X52174814Y-67515914D01*
X52195709Y-67588995D01*
X52224008Y-67653093D01*
X52259790Y-67709344D01*
X52303192Y-67758425D01*
X52350454Y-67796144D01*
X52402133Y-67823246D01*
X52459032Y-67839888D01*
X52522156Y-67845631D01*
X52586467Y-67840179D01*
X52623183Y-67830000D01*
X52995840Y-67830000D01*
X53157578Y-67830000D01*
X53157578Y-67527260D01*
X53288736Y-67359405D01*
X53508995Y-67830000D01*
X53718311Y-67830000D01*
X53400209Y-67216095D01*
X53701898Y-66825673D01*
X53484375Y-66825673D01*
X53157578Y-67269279D01*
X53157578Y-66825673D01*
X52995840Y-66825673D01*
X52995840Y-67830000D01*
X52623183Y-67830000D01*
X52642574Y-67824624D01*
X52691739Y-67799752D01*
X52734989Y-67765764D01*
X52772417Y-67722657D01*
X52804940Y-67668710D01*
X52832581Y-67602292D01*
X52854961Y-67521277D01*
X52698108Y-67458750D01*
X52680336Y-67530581D01*
X52657892Y-67583661D01*
X52631430Y-67621844D01*
X52598492Y-67650621D01*
X52561900Y-67667799D01*
X52520495Y-67673684D01*
X52478098Y-67668448D01*
X52440947Y-67653315D01*
X52407951Y-67628414D01*
X52378394Y-67592901D01*
X52356763Y-67551468D01*
X52339641Y-67495205D01*
X52328064Y-67420171D01*
X52323733Y-67321669D01*
X52328031Y-67229465D01*
X52339620Y-67158057D01*
X52356962Y-67103408D01*
X52379176Y-67062161D01*
X52409088Y-67027024D01*
X52442603Y-67002292D01*
X52480461Y-66987215D01*
X52523768Y-66981988D01*
X52565480Y-66987233D01*
X52601615Y-67002332D01*
X52633335Y-67027112D01*
X52659663Y-67060316D01*
X52679382Y-67100823D01*
X52692637Y-67150027D01*
X52852763Y-67103133D01*
X52830248Y-67025696D01*
X52802782Y-66965165D01*
X52770795Y-66918668D01*
X52722480Y-66871958D01*
X52667489Y-66838265D01*
X52604549Y-66817357D01*
X52531974Y-66810041D01*
X52465044Y-66815975D01*
X52405443Y-66833072D01*
X52352026Y-66860728D01*
X52303870Y-66898960D01*
X52260327Y-66948405D01*
X52224684Y-67005240D01*
X52196285Y-67070979D01*
X52175160Y-67146957D01*
X52161786Y-67234866D01*
X52157062Y-67336690D01*
X51942245Y-67336690D01*
X51779023Y-66825673D01*
X51607955Y-66825673D01*
X51418543Y-67435303D01*
X51295910Y-67830000D01*
X51044208Y-67830000D01*
X51059606Y-67824756D01*
X51102763Y-67796355D01*
X51139862Y-67756759D01*
X51168044Y-67710044D01*
X51188004Y-67655183D01*
X51196933Y-67609547D01*
X51203138Y-67546850D01*
X51205491Y-67462903D01*
X51205491Y-66825673D01*
X51044291Y-66825673D01*
X51044291Y-67477313D01*
X51040884Y-67560147D01*
X51032642Y-67610517D01*
X51021870Y-67638757D01*
X51004598Y-67659392D01*
X50979979Y-67672640D01*
X50945373Y-67677592D01*
X50912107Y-67671338D01*
X50886122Y-67653571D01*
X50865603Y-67623553D01*
X50856665Y-67598513D01*
X50849539Y-67559551D01*
X50845380Y-67501737D01*
X50692923Y-67521277D01*
X50102344Y-67521277D01*
X50102344Y-66993712D01*
X50339553Y-66993712D01*
X50339553Y-66825673D01*
X49702861Y-66825673D01*
X49702861Y-66993712D01*
X49589874Y-66993712D01*
X49589874Y-66825673D01*
X49428087Y-66825673D01*
X49428087Y-67386332D01*
X49425925Y-67498046D01*
X49420956Y-67558463D01*
X49413211Y-67591001D01*
X49399397Y-67619911D01*
X49378897Y-67645901D01*
X49353951Y-67664555D01*
X49320224Y-67676895D01*
X49275094Y-67681500D01*
X49230799Y-67676804D01*
X49195818Y-67663894D01*
X49168213Y-67643825D01*
X49145385Y-67616000D01*
X49129026Y-67583036D01*
X49118778Y-67543930D01*
X49114734Y-67493914D01*
X49112770Y-67374548D01*
X49112770Y-66825673D01*
X48951032Y-66825673D01*
X48951032Y-67362641D01*
X48824215Y-67362641D01*
X48825736Y-67331133D01*
X48820926Y-67231580D01*
X48807272Y-67145223D01*
X48785617Y-67070160D01*
X48756362Y-67004785D01*
X48719441Y-66947855D01*
X48674902Y-66898984D01*
X48625165Y-66860941D01*
X48569498Y-66833249D01*
X48506895Y-66816038D01*
X48436120Y-66810041D01*
X48371494Y-66814750D01*
X48314270Y-66828232D01*
X48263440Y-66849792D01*
X48227468Y-66872533D01*
X48193000Y-66902503D01*
X48159832Y-66940345D01*
X48117533Y-67005381D01*
X48085289Y-67078159D01*
X48065759Y-67149124D01*
X48053170Y-67234196D01*
X48048957Y-67329118D01*
X48048653Y-67335957D01*
X47937542Y-67335957D01*
X47937542Y-66698930D01*
X53829422Y-66698930D01*
X53829422Y-67960650D01*
G37*
G36*
X82419199Y-66996778D02*
G01*
X82461158Y-67003360D01*
X82503140Y-67021821D01*
X82535994Y-67050865D01*
X82561490Y-67091211D01*
X82581912Y-67148562D01*
X82593579Y-67218099D01*
X82598325Y-67328203D01*
X82593660Y-67438955D01*
X82581912Y-67512972D01*
X82568789Y-67557080D01*
X82554576Y-67588644D01*
X82539560Y-67610364D01*
X82510855Y-67635246D01*
X82474250Y-67652313D01*
X82439502Y-67659050D01*
X82376455Y-67661960D01*
X82255652Y-67661960D01*
X82255652Y-66993712D01*
X82328339Y-66993712D01*
X82419199Y-66996778D01*
G37*
G36*
X85068597Y-67435303D02*
G01*
X84850000Y-67435303D01*
X84958199Y-67060146D01*
X85068597Y-67435303D01*
G37*
G36*
X87096038Y-67960650D02*
G01*
X81982804Y-67960650D01*
X81982804Y-67661960D01*
X82093915Y-67661960D01*
X82093915Y-67830000D01*
X82398290Y-67830000D01*
X82483299Y-67824009D01*
X82541465Y-67808750D01*
X82587721Y-67785995D01*
X82625180Y-67759172D01*
X82655136Y-67728578D01*
X82688584Y-67680228D01*
X82717241Y-67621616D01*
X82740963Y-67551196D01*
X82754113Y-67490596D01*
X82762538Y-67419848D01*
X82765534Y-67337423D01*
X82765509Y-67336690D01*
X82874173Y-67336690D01*
X82878788Y-67432389D01*
X82891926Y-67515914D01*
X82912821Y-67588995D01*
X82941120Y-67653093D01*
X82976901Y-67709344D01*
X83020303Y-67758425D01*
X83067565Y-67796144D01*
X83119244Y-67823246D01*
X83176144Y-67839888D01*
X83239267Y-67845631D01*
X83303579Y-67840179D01*
X83359685Y-67824624D01*
X83408850Y-67799752D01*
X83452100Y-67765764D01*
X83489529Y-67722657D01*
X83522051Y-67668710D01*
X83549692Y-67602292D01*
X83572072Y-67521277D01*
X83959539Y-67521277D01*
X83964408Y-67602392D01*
X83977378Y-67668532D01*
X83997373Y-67722400D01*
X84024019Y-67766130D01*
X84057925Y-67801417D01*
X84098642Y-67827299D01*
X84147559Y-67843690D01*
X84206518Y-67849539D01*
X84272765Y-67842962D01*
X84310824Y-67830000D01*
X84562526Y-67830000D01*
X84734131Y-67830000D01*
X84800272Y-67603342D01*
X85120474Y-67603342D01*
X85190426Y-67830000D01*
X85366427Y-67830000D01*
X85208860Y-67336690D01*
X85423677Y-67336690D01*
X85428292Y-67432389D01*
X85441430Y-67515914D01*
X85462325Y-67588995D01*
X85490624Y-67653093D01*
X85526406Y-67709344D01*
X85569808Y-67758425D01*
X85617070Y-67796144D01*
X85668749Y-67823246D01*
X85725648Y-67839888D01*
X85788772Y-67845631D01*
X85853083Y-67840179D01*
X85889799Y-67830000D01*
X86262456Y-67830000D01*
X86424194Y-67830000D01*
X86424194Y-67527260D01*
X86555352Y-67359405D01*
X86775610Y-67830000D01*
X86984927Y-67830000D01*
X86666825Y-67216095D01*
X86968513Y-66825673D01*
X86750991Y-66825673D01*
X86424194Y-67269279D01*
X86424194Y-66825673D01*
X86262456Y-66825673D01*
X86262456Y-67830000D01*
X85889799Y-67830000D01*
X85909190Y-67824624D01*
X85958354Y-67799752D01*
X86001605Y-67765764D01*
X86039033Y-67722657D01*
X86071555Y-67668710D01*
X86099197Y-67602292D01*
X86121577Y-67521277D01*
X85964724Y-67458750D01*
X85946952Y-67530581D01*
X85924508Y-67583661D01*
X85898046Y-67621844D01*
X85865108Y-67650621D01*
X85828516Y-67667799D01*
X85787111Y-67673684D01*
X85744714Y-67668448D01*
X85707563Y-67653315D01*
X85674567Y-67628414D01*
X85645010Y-67592901D01*
X85623378Y-67551468D01*
X85606257Y-67495205D01*
X85594680Y-67420171D01*
X85590349Y-67321669D01*
X85594647Y-67229465D01*
X85606236Y-67158057D01*
X85623578Y-67103408D01*
X85645792Y-67062161D01*
X85675704Y-67027024D01*
X85709219Y-67002292D01*
X85747076Y-66987215D01*
X85790384Y-66981988D01*
X85832096Y-66987233D01*
X85868231Y-67002332D01*
X85899951Y-67027112D01*
X85926279Y-67060316D01*
X85945998Y-67100823D01*
X85959253Y-67150027D01*
X86119379Y-67103133D01*
X86096863Y-67025696D01*
X86069398Y-66965165D01*
X86037411Y-66918668D01*
X85989096Y-66871958D01*
X85934105Y-66838265D01*
X85871165Y-66817357D01*
X85798590Y-66810041D01*
X85731660Y-66815975D01*
X85672059Y-66833072D01*
X85618642Y-66860728D01*
X85570486Y-66898960D01*
X85526943Y-66948405D01*
X85491300Y-67005240D01*
X85462901Y-67070979D01*
X85441776Y-67146957D01*
X85428401Y-67234866D01*
X85423677Y-67336690D01*
X85208860Y-67336690D01*
X85045638Y-66825673D01*
X84874571Y-66825673D01*
X84685159Y-67435303D01*
X84562526Y-67830000D01*
X84310824Y-67830000D01*
X84326222Y-67824756D01*
X84369379Y-67796355D01*
X84406478Y-67756759D01*
X84434660Y-67710044D01*
X84454620Y-67655183D01*
X84463548Y-67609547D01*
X84469753Y-67546850D01*
X84472107Y-67462903D01*
X84472107Y-66825673D01*
X84310907Y-66825673D01*
X84310907Y-67477313D01*
X84307500Y-67560147D01*
X84299258Y-67610517D01*
X84288486Y-67638757D01*
X84271214Y-67659392D01*
X84246595Y-67672640D01*
X84211989Y-67677592D01*
X84178723Y-67671338D01*
X84152737Y-67653571D01*
X84132219Y-67623553D01*
X84123281Y-67598513D01*
X84116155Y-67559551D01*
X84111996Y-67501737D01*
X83959539Y-67521277D01*
X83572072Y-67521277D01*
X83415220Y-67458750D01*
X83397447Y-67530581D01*
X83375003Y-67583661D01*
X83348541Y-67621844D01*
X83315603Y-67650621D01*
X83279011Y-67667799D01*
X83237606Y-67673684D01*
X83195210Y-67668448D01*
X83158058Y-67653315D01*
X83125062Y-67628414D01*
X83095506Y-67592901D01*
X83073874Y-67551468D01*
X83056752Y-67495205D01*
X83045175Y-67420171D01*
X83040844Y-67321669D01*
X83045143Y-67229465D01*
X83056731Y-67158057D01*
X83074073Y-67103408D01*
X83096287Y-67062161D01*
X83126199Y-67027024D01*
X83159714Y-67002292D01*
X83197572Y-66987215D01*
X83240879Y-66981988D01*
X83282591Y-66987233D01*
X83318727Y-67002332D01*
X83350446Y-67027112D01*
X83376774Y-67060316D01*
X83396493Y-67100823D01*
X83409749Y-67150027D01*
X83569874Y-67103133D01*
X83547359Y-67025696D01*
X83519894Y-66965165D01*
X83487906Y-66918668D01*
X83439592Y-66871958D01*
X83384600Y-66838265D01*
X83321661Y-66817357D01*
X83249086Y-66810041D01*
X83182155Y-66815975D01*
X83122554Y-66833072D01*
X83069137Y-66860728D01*
X83020982Y-66898960D01*
X82977439Y-66948405D01*
X82941795Y-67005240D01*
X82913396Y-67070979D01*
X82892271Y-67146957D01*
X82878897Y-67234866D01*
X82874173Y-67336690D01*
X82765509Y-67336690D01*
X82762268Y-67243424D01*
X82753209Y-67165058D01*
X82739302Y-67100080D01*
X82718705Y-67038101D01*
X82693200Y-66984157D01*
X82662805Y-66937353D01*
X82626978Y-66897461D01*
X82586915Y-66866772D01*
X82542003Y-66844846D01*
X82483576Y-66831249D01*
X82389546Y-66825673D01*
X82093915Y-66825673D01*
X82093915Y-67661960D01*
X81982804Y-67661960D01*
X81982804Y-66698930D01*
X87096038Y-66698930D01*
X87096038Y-67960650D01*
G37*
G36*
X69052007Y-66995938D02*
G01*
X69088213Y-67000673D01*
X69113136Y-67009825D01*
X69134617Y-67024799D01*
X69153231Y-67045858D01*
X69167288Y-67071582D01*
X69175903Y-67101770D01*
X69178925Y-67137632D01*
X69174235Y-67180514D01*
X69160607Y-67216889D01*
X69138984Y-67246222D01*
X69110048Y-67266898D01*
X69069914Y-67277802D01*
X68982163Y-67282896D01*
X68893649Y-67282896D01*
X68893649Y-66993712D01*
X68971807Y-66993712D01*
X69052007Y-66995938D01*
G37*
G36*
X70680241Y-67397035D02*
G01*
X70722833Y-67406788D01*
X70752417Y-67425893D01*
X70773391Y-67452889D01*
X70786322Y-67487149D01*
X70790879Y-67529886D01*
X70788128Y-67564619D01*
X70780437Y-67592703D01*
X70768164Y-67615554D01*
X70742414Y-67641401D01*
X70709448Y-67655793D01*
X70678145Y-67659906D01*
X70598513Y-67661960D01*
X70448792Y-67661960D01*
X70448792Y-67392316D01*
X70579413Y-67392316D01*
X70680241Y-67397035D01*
G37*
G36*
X70679944Y-66997131D02*
G01*
X70705874Y-67004231D01*
X70725763Y-67016036D01*
X70740858Y-67032180D01*
X70756005Y-67064531D01*
X70761374Y-67107285D01*
X70758570Y-67138249D01*
X70750606Y-67163818D01*
X70737585Y-67185198D01*
X70710323Y-67208379D01*
X70672323Y-67220858D01*
X70554794Y-67224277D01*
X70448792Y-67224277D01*
X70448792Y-66993712D01*
X70541702Y-66993712D01*
X70679944Y-66997131D01*
G37*
G36*
X71069199Y-67956742D02*
G01*
X63957130Y-67956742D01*
X63957130Y-67830000D01*
X64068241Y-67830000D01*
X64677578Y-67830000D01*
X64815722Y-67830000D01*
X64977508Y-67830000D01*
X65499602Y-67830000D01*
X65661388Y-67830000D01*
X66182407Y-67830000D01*
X66791744Y-67830000D01*
X66791744Y-67661960D01*
X66344145Y-67661960D01*
X66344145Y-67384501D01*
X66746364Y-67384501D01*
X66746364Y-67336690D01*
X66900383Y-67336690D01*
X66904998Y-67432389D01*
X66918136Y-67515914D01*
X66939031Y-67588995D01*
X66967330Y-67653093D01*
X67003112Y-67709344D01*
X67046514Y-67758425D01*
X67093776Y-67796144D01*
X67145455Y-67823246D01*
X67202354Y-67839888D01*
X67265478Y-67845631D01*
X67329789Y-67840179D01*
X67385896Y-67824624D01*
X67435060Y-67799752D01*
X67478311Y-67765764D01*
X67515739Y-67722657D01*
X67548261Y-67668710D01*
X67575903Y-67602292D01*
X67598283Y-67521277D01*
X67441430Y-67458750D01*
X67423658Y-67530581D01*
X67401214Y-67583661D01*
X67374752Y-67621844D01*
X67341814Y-67650621D01*
X67305222Y-67667799D01*
X67263817Y-67673684D01*
X67221420Y-67668448D01*
X67184269Y-67653315D01*
X67151273Y-67628414D01*
X67121716Y-67592901D01*
X67100084Y-67551468D01*
X67082963Y-67495205D01*
X67071386Y-67420171D01*
X67067055Y-67321669D01*
X67071353Y-67229465D01*
X67082942Y-67158057D01*
X67100284Y-67103408D01*
X67122498Y-67062161D01*
X67152410Y-67027024D01*
X67185925Y-67002292D01*
X67223782Y-66987215D01*
X67267090Y-66981988D01*
X67308802Y-66987233D01*
X67344937Y-67002332D01*
X67376657Y-67027112D01*
X67402985Y-67060316D01*
X67422704Y-67100823D01*
X67435959Y-67150027D01*
X67596085Y-67103133D01*
X67573569Y-67025696D01*
X67559057Y-66993712D01*
X67679567Y-66993712D01*
X67917313Y-66993712D01*
X67917313Y-67830000D01*
X68079051Y-67830000D01*
X68079051Y-67282896D01*
X68731912Y-67282896D01*
X68731912Y-67830000D01*
X68893649Y-67830000D01*
X68893649Y-67450935D01*
X68999113Y-67450935D01*
X69102484Y-67446746D01*
X69166908Y-67436524D01*
X69208470Y-67419250D01*
X69250830Y-67388958D01*
X69276280Y-67362537D01*
X69294170Y-67336690D01*
X69449888Y-67336690D01*
X69454503Y-67432389D01*
X69467641Y-67515914D01*
X69488536Y-67588995D01*
X69516835Y-67653093D01*
X69552617Y-67709344D01*
X69596018Y-67758425D01*
X69643280Y-67796144D01*
X69694959Y-67823246D01*
X69751859Y-67839888D01*
X69814982Y-67845631D01*
X69879294Y-67840179D01*
X69935400Y-67824624D01*
X69984565Y-67799752D01*
X70027815Y-67765764D01*
X70065244Y-67722657D01*
X70097766Y-67668710D01*
X70125407Y-67602292D01*
X70147787Y-67521277D01*
X69990935Y-67458750D01*
X69973162Y-67530581D01*
X69950718Y-67583661D01*
X69924256Y-67621844D01*
X69891319Y-67650621D01*
X69854727Y-67667799D01*
X69813321Y-67673684D01*
X69770925Y-67668448D01*
X69733773Y-67653315D01*
X69700777Y-67628414D01*
X69671221Y-67592901D01*
X69649589Y-67551468D01*
X69632467Y-67495205D01*
X69620890Y-67420171D01*
X69616559Y-67321669D01*
X69620858Y-67229465D01*
X69621700Y-67224277D01*
X70287006Y-67224277D01*
X70287006Y-67661960D01*
X70287006Y-67830000D01*
X70559679Y-67830000D01*
X70700495Y-67827051D01*
X70754780Y-67823161D01*
X70796784Y-67813480D01*
X70832635Y-67797473D01*
X70863272Y-67775533D01*
X70890316Y-67747082D01*
X70913396Y-67712785D01*
X70932686Y-67671974D01*
X70946912Y-67627916D01*
X70955301Y-67583623D01*
X70958088Y-67538618D01*
X70953573Y-67482245D01*
X70940447Y-67432202D01*
X70918716Y-67387126D01*
X70889528Y-67349151D01*
X70852499Y-67318744D01*
X70806168Y-67295901D01*
X70838563Y-67272856D01*
X70865806Y-67243581D01*
X70888429Y-67207608D01*
X70905306Y-67166996D01*
X70915366Y-67124126D01*
X70918764Y-67078220D01*
X70915952Y-67035715D01*
X70907726Y-66996828D01*
X70894145Y-66960861D01*
X70866177Y-66913273D01*
X70832693Y-66877025D01*
X70793650Y-66851072D01*
X70749065Y-66835626D01*
X70696290Y-66828609D01*
X70607257Y-66825673D01*
X70287006Y-66825673D01*
X70287006Y-67224277D01*
X69621700Y-67224277D01*
X69632446Y-67158057D01*
X69649788Y-67103408D01*
X69672002Y-67062161D01*
X69701914Y-67027024D01*
X69735429Y-67002292D01*
X69773287Y-66987215D01*
X69816594Y-66981988D01*
X69858306Y-66987233D01*
X69894442Y-67002332D01*
X69926162Y-67027112D01*
X69952490Y-67060316D01*
X69972208Y-67100823D01*
X69985464Y-67150027D01*
X70145589Y-67103133D01*
X70123074Y-67025696D01*
X70095609Y-66965165D01*
X70063621Y-66918668D01*
X70015307Y-66871958D01*
X69960315Y-66838265D01*
X69897376Y-66817357D01*
X69824801Y-66810041D01*
X69757870Y-66815975D01*
X69698269Y-66833072D01*
X69644852Y-66860728D01*
X69596697Y-66898960D01*
X69553154Y-66948405D01*
X69517510Y-67005240D01*
X69489111Y-67070979D01*
X69467986Y-67146957D01*
X69454612Y-67234866D01*
X69449888Y-67336690D01*
X69294170Y-67336690D01*
X69298935Y-67329805D01*
X69318876Y-67289979D01*
X69333245Y-67246722D01*
X69342388Y-67195429D01*
X69345645Y-67134518D01*
X69340030Y-67056553D01*
X69324272Y-66992310D01*
X69299190Y-66939063D01*
X69265165Y-66893884D01*
X69226971Y-66861514D01*
X69183859Y-66840755D01*
X69126413Y-66830581D01*
X68991493Y-66825673D01*
X68731912Y-66825673D01*
X68731912Y-67282896D01*
X68079051Y-67282896D01*
X68079051Y-66993712D01*
X68316259Y-66993712D01*
X68316259Y-66825673D01*
X67679567Y-66825673D01*
X67679567Y-66993712D01*
X67559057Y-66993712D01*
X67546104Y-66965165D01*
X67514117Y-66918668D01*
X67465802Y-66871958D01*
X67410811Y-66838265D01*
X67347871Y-66817357D01*
X67275296Y-66810041D01*
X67208366Y-66815975D01*
X67148765Y-66833072D01*
X67095348Y-66860728D01*
X67047192Y-66898960D01*
X67003649Y-66948405D01*
X66968006Y-67005240D01*
X66939607Y-67070979D01*
X66918482Y-67146957D01*
X66905107Y-67234866D01*
X66900383Y-67336690D01*
X66746364Y-67336690D01*
X66746364Y-67216461D01*
X66344145Y-67216461D01*
X66344145Y-66993712D01*
X66776455Y-66993712D01*
X66776455Y-66825673D01*
X66182407Y-66825673D01*
X66182407Y-67830000D01*
X65661388Y-67830000D01*
X65661388Y-67404040D01*
X65995854Y-67404040D01*
X65995854Y-67236001D01*
X65661388Y-67236001D01*
X65661388Y-66993712D01*
X66048855Y-66993712D01*
X66048855Y-66825673D01*
X65499602Y-66825673D01*
X65499602Y-67830000D01*
X64977508Y-67830000D01*
X64977508Y-67404040D01*
X65311974Y-67404040D01*
X65311974Y-67236001D01*
X64977508Y-67236001D01*
X64977508Y-66993712D01*
X65364975Y-66993712D01*
X65364975Y-66825673D01*
X64815722Y-66825673D01*
X64815722Y-67830000D01*
X64677578Y-67830000D01*
X64677578Y-67661960D01*
X64229979Y-67661960D01*
X64229979Y-67384501D01*
X64632198Y-67384501D01*
X64632198Y-67216461D01*
X64229979Y-67216461D01*
X64229979Y-66993712D01*
X64662289Y-66993712D01*
X64662289Y-66825673D01*
X64068241Y-66825673D01*
X64068241Y-67830000D01*
X63957130Y-67830000D01*
X63957130Y-66698930D01*
X71069199Y-66698930D01*
X71069199Y-67956742D01*
G37*
G36*
X79070056Y-67435303D02*
G01*
X78851459Y-67435303D01*
X78959658Y-67060146D01*
X79070056Y-67435303D01*
G37*
G36*
X81097497Y-67960650D02*
G01*
X76476949Y-67960650D01*
X76476949Y-67830000D01*
X76588060Y-67830000D01*
X76749847Y-67830000D01*
X76905723Y-67830000D01*
X77055981Y-67830000D01*
X77055981Y-67167674D01*
X77378968Y-67830000D01*
X77541291Y-67830000D01*
X77541291Y-67521277D01*
X77960998Y-67521277D01*
X77965867Y-67602392D01*
X77978837Y-67668532D01*
X77998832Y-67722400D01*
X78025478Y-67766130D01*
X78059383Y-67801417D01*
X78100101Y-67827299D01*
X78149018Y-67843690D01*
X78207977Y-67849539D01*
X78274224Y-67842962D01*
X78312283Y-67830000D01*
X78563985Y-67830000D01*
X78735590Y-67830000D01*
X78801731Y-67603342D01*
X79121933Y-67603342D01*
X79191885Y-67830000D01*
X79367886Y-67830000D01*
X79210319Y-67336690D01*
X79425136Y-67336690D01*
X79429751Y-67432389D01*
X79442889Y-67515914D01*
X79463784Y-67588995D01*
X79492083Y-67653093D01*
X79527865Y-67709344D01*
X79571267Y-67758425D01*
X79618529Y-67796144D01*
X79670208Y-67823246D01*
X79727107Y-67839888D01*
X79790231Y-67845631D01*
X79854542Y-67840179D01*
X79891258Y-67830000D01*
X80263915Y-67830000D01*
X80425653Y-67830000D01*
X80425653Y-67527260D01*
X80556811Y-67359405D01*
X80777069Y-67830000D01*
X80986386Y-67830000D01*
X80668284Y-67216095D01*
X80969972Y-66825673D01*
X80752450Y-66825673D01*
X80425653Y-67269279D01*
X80425653Y-66825673D01*
X80263915Y-66825673D01*
X80263915Y-67830000D01*
X79891258Y-67830000D01*
X79910649Y-67824624D01*
X79959813Y-67799752D01*
X80003064Y-67765764D01*
X80040492Y-67722657D01*
X80073014Y-67668710D01*
X80100656Y-67602292D01*
X80123036Y-67521277D01*
X79966183Y-67458750D01*
X79948411Y-67530581D01*
X79925967Y-67583661D01*
X79899505Y-67621844D01*
X79866567Y-67650621D01*
X79829975Y-67667799D01*
X79788570Y-67673684D01*
X79746173Y-67668448D01*
X79709022Y-67653315D01*
X79676026Y-67628414D01*
X79646469Y-67592901D01*
X79624837Y-67551468D01*
X79607716Y-67495205D01*
X79596139Y-67420171D01*
X79591808Y-67321669D01*
X79596106Y-67229465D01*
X79607695Y-67158057D01*
X79625037Y-67103408D01*
X79647251Y-67062161D01*
X79677163Y-67027024D01*
X79710678Y-67002292D01*
X79748535Y-66987215D01*
X79791843Y-66981988D01*
X79833555Y-66987233D01*
X79869690Y-67002332D01*
X79901410Y-67027112D01*
X79927738Y-67060316D01*
X79947457Y-67100823D01*
X79960712Y-67150027D01*
X80120838Y-67103133D01*
X80098322Y-67025696D01*
X80070857Y-66965165D01*
X80038870Y-66918668D01*
X79990555Y-66871958D01*
X79935564Y-66838265D01*
X79872624Y-66817357D01*
X79800049Y-66810041D01*
X79733119Y-66815975D01*
X79673518Y-66833072D01*
X79620101Y-66860728D01*
X79571945Y-66898960D01*
X79528402Y-66948405D01*
X79492759Y-67005240D01*
X79464360Y-67070979D01*
X79443235Y-67146957D01*
X79429860Y-67234866D01*
X79425136Y-67336690D01*
X79210319Y-67336690D01*
X79047097Y-66825673D01*
X78876030Y-66825673D01*
X78686618Y-67435303D01*
X78563985Y-67830000D01*
X78312283Y-67830000D01*
X78327681Y-67824756D01*
X78370838Y-67796355D01*
X78407937Y-67756759D01*
X78436119Y-67710044D01*
X78456079Y-67655183D01*
X78465007Y-67609547D01*
X78471212Y-67546850D01*
X78473566Y-67462903D01*
X78473566Y-66825673D01*
X78312366Y-66825673D01*
X78312366Y-67477313D01*
X78308959Y-67560147D01*
X78300717Y-67610517D01*
X78289945Y-67638757D01*
X78272673Y-67659392D01*
X78248054Y-67672640D01*
X78213448Y-67677592D01*
X78180182Y-67671338D01*
X78154196Y-67653571D01*
X78133678Y-67623553D01*
X78124740Y-67598513D01*
X78117614Y-67559551D01*
X78113455Y-67501737D01*
X77960998Y-67521277D01*
X77541291Y-67521277D01*
X77541291Y-66825673D01*
X77390984Y-66825673D01*
X77390984Y-67498012D01*
X77063113Y-66825673D01*
X76905723Y-66825673D01*
X76905723Y-67830000D01*
X76749847Y-67830000D01*
X76749847Y-66825673D01*
X76588060Y-66825673D01*
X76588060Y-67830000D01*
X76476949Y-67830000D01*
X76476949Y-66698930D01*
X81097497Y-66698930D01*
X81097497Y-67960650D01*
G37*
D11*
X78750000Y-60000000D02*
X78750000Y-59750000D01*
X83750000Y-59250000D02*
X84500000Y-58500000D01*
X79250000Y-59250000D02*
X83750000Y-59250000D01*
X78000000Y-59950000D02*
X78000000Y-58750000D01*
X78750000Y-59750000D02*
X79250000Y-59250000D01*
D10*
G36*
X52932355Y-59751281D02*
G01*
X52986766Y-59770539D01*
X53021951Y-59797812D01*
X53048980Y-59837607D01*
X53065084Y-59884510D01*
X53070678Y-59940816D01*
X53064946Y-60001646D01*
X53048593Y-60051637D01*
X53021493Y-60093346D01*
X52985827Y-60122189D01*
X52931742Y-60142294D01*
X52852416Y-60150132D01*
X52615745Y-60150132D01*
X52615745Y-59743712D01*
X52851409Y-59743712D01*
X52932355Y-59751281D01*
G37*
G36*
X52890620Y-58992341D02*
G01*
X52937916Y-59009597D01*
X52968737Y-59034187D01*
X52991998Y-59070033D01*
X53006201Y-59114170D01*
X53011235Y-59169131D01*
X53006083Y-59228632D01*
X52991765Y-59275074D01*
X52968737Y-59311524D01*
X52937822Y-59336326D01*
X52889673Y-59353842D01*
X52817612Y-59360739D01*
X52615745Y-59360739D01*
X52615745Y-58985582D01*
X52820634Y-58985582D01*
X52890620Y-58992341D01*
G37*
G36*
X56005347Y-59821870D02*
G01*
X55674429Y-59821870D01*
X55839384Y-59099766D01*
X56005347Y-59821870D01*
G37*
G36*
X60222039Y-60833485D02*
G01*
X51925218Y-60833485D01*
X51925218Y-59360739D01*
X52147440Y-59360739D01*
X52147440Y-60150132D01*
X52147440Y-60580000D01*
X52948770Y-60580000D01*
X53778952Y-60580000D01*
X54967620Y-60580000D01*
X55026788Y-60580000D01*
X55501230Y-60580000D01*
X55574045Y-60251737D01*
X56102708Y-60251737D01*
X56176531Y-60580000D01*
X56662238Y-60580000D01*
X56378564Y-59574818D01*
X56718567Y-59574818D01*
X56726454Y-59762012D01*
X56748774Y-59923663D01*
X56783983Y-60063365D01*
X56831224Y-60184204D01*
X56893081Y-60298847D01*
X56958227Y-60390814D01*
X57026790Y-60462785D01*
X57099219Y-60516741D01*
X57205165Y-60566643D01*
X57336802Y-60599352D01*
X57499381Y-60611263D01*
X57633358Y-60601547D01*
X57721417Y-60580000D01*
X58407506Y-60580000D01*
X58871598Y-60580000D01*
X58871598Y-60091392D01*
X59111383Y-59757023D01*
X59428014Y-60580000D01*
X59999817Y-60580000D01*
X59428014Y-59333872D01*
X59975179Y-58579162D01*
X59358405Y-58579162D01*
X58871598Y-59335216D01*
X58871598Y-58579162D01*
X58407506Y-58579162D01*
X58407506Y-60580000D01*
X57721417Y-60580000D01*
X57742840Y-60574758D01*
X57831856Y-60533715D01*
X57914320Y-60473577D01*
X57986949Y-60397245D01*
X58050667Y-60303639D01*
X58102682Y-60197291D01*
X58145924Y-60071658D01*
X58179811Y-59923841D01*
X57772963Y-59759344D01*
X57746362Y-59883438D01*
X57713045Y-59978555D01*
X57674045Y-60050115D01*
X57623855Y-60103822D01*
X57558330Y-60137770D01*
X57472728Y-60150132D01*
X57405505Y-60141807D01*
X57348850Y-60118188D01*
X57300684Y-60080138D01*
X57259595Y-60026912D01*
X57230486Y-59964248D01*
X57206660Y-59873472D01*
X57190086Y-59745933D01*
X57183758Y-59571399D01*
X57192391Y-59393084D01*
X57214859Y-59266080D01*
X57247322Y-59177923D01*
X57294349Y-59103515D01*
X57349152Y-59051684D01*
X57413212Y-59020082D01*
X57489122Y-59009030D01*
X57556240Y-59018817D01*
X57615152Y-59047254D01*
X57666953Y-59093409D01*
X57710498Y-59156552D01*
X57731759Y-59206016D01*
X57755561Y-59290397D01*
X58165431Y-59168886D01*
X58118260Y-59014264D01*
X58062117Y-58886990D01*
X57997462Y-58783322D01*
X57924088Y-58700429D01*
X57841377Y-58637359D01*
X57741669Y-58589669D01*
X57621754Y-58558933D01*
X57477857Y-58547899D01*
X57330728Y-58559980D01*
X57203794Y-58594210D01*
X57094074Y-58648401D01*
X56999067Y-58721548D01*
X56916861Y-58813879D01*
X56848357Y-58923780D01*
X56793868Y-59051693D01*
X56753342Y-59200363D01*
X56727656Y-59373336D01*
X56718567Y-59574818D01*
X56378564Y-59574818D01*
X56097579Y-58579162D01*
X55591447Y-58579162D01*
X55240741Y-59821870D01*
X55026788Y-60580000D01*
X54967620Y-60580000D01*
X54967620Y-60087606D01*
X54243135Y-60087606D01*
X54243135Y-58579162D01*
X53778952Y-58579162D01*
X53778952Y-60580000D01*
X52948770Y-60580000D01*
X53156773Y-60552644D01*
X53266241Y-60523465D01*
X53332995Y-60486943D01*
X53391586Y-60432666D01*
X53440853Y-60367353D01*
X53481555Y-60290083D01*
X53511478Y-60204501D01*
X53529646Y-60111598D01*
X53535869Y-60009692D01*
X53526825Y-59885612D01*
X53501111Y-59780920D01*
X53459482Y-59691688D01*
X53402578Y-59619026D01*
X53324883Y-59559121D01*
X53221345Y-59513147D01*
X53289861Y-59474395D01*
X53342983Y-59429744D01*
X53383278Y-59379668D01*
X53429229Y-59290094D01*
X53456787Y-59189960D01*
X53466260Y-59076074D01*
X53458830Y-58973763D01*
X53437174Y-58882068D01*
X53401292Y-58798717D01*
X53349939Y-58722166D01*
X53289204Y-58662469D01*
X53215284Y-58617951D01*
X53125474Y-58589415D01*
X53016364Y-58579162D01*
X52147440Y-58579162D01*
X52147440Y-59360739D01*
X51925218Y-59360739D01*
X51925218Y-58325677D01*
X60222039Y-58325677D01*
X60222039Y-60833485D01*
G37*
G36*
X60261269Y-65842064D02*
G01*
X49556519Y-65842064D01*
X49556519Y-65588579D01*
X49778741Y-65588579D01*
X51045262Y-65588579D01*
X51297138Y-65588579D01*
X51763336Y-65588579D01*
X52696649Y-65588579D01*
X53162848Y-65588579D01*
X54093046Y-65588579D01*
X55359568Y-65588579D01*
X55359568Y-65135264D01*
X54558237Y-65135264D01*
X54558237Y-64744475D01*
X55280616Y-64744475D01*
X55280616Y-64583397D01*
X55555023Y-64583397D01*
X55562911Y-64770591D01*
X55585230Y-64932242D01*
X55620440Y-65071944D01*
X55667680Y-65192783D01*
X55729537Y-65307426D01*
X55794683Y-65399393D01*
X55863246Y-65471364D01*
X55935676Y-65525320D01*
X56041621Y-65575222D01*
X56173259Y-65607931D01*
X56335837Y-65619842D01*
X56469814Y-65610126D01*
X56579296Y-65583337D01*
X56668313Y-65542294D01*
X56750776Y-65482156D01*
X56823406Y-65405824D01*
X56887124Y-65312218D01*
X56939138Y-65205870D01*
X56982380Y-65080237D01*
X57016267Y-64932420D01*
X56609419Y-64767923D01*
X56582818Y-64892017D01*
X56549501Y-64987134D01*
X56510501Y-65058694D01*
X56460311Y-65112401D01*
X56394786Y-65146349D01*
X56309184Y-65158711D01*
X56241961Y-65150386D01*
X56185306Y-65126767D01*
X56137140Y-65088717D01*
X56096052Y-65035491D01*
X56066942Y-64972827D01*
X56043116Y-64882051D01*
X56026543Y-64754512D01*
X56020214Y-64579978D01*
X56028847Y-64401663D01*
X56051315Y-64274659D01*
X56083778Y-64186502D01*
X56130806Y-64112094D01*
X56185608Y-64060263D01*
X56249668Y-64028661D01*
X56325579Y-64017609D01*
X56392696Y-64027396D01*
X56451608Y-64055833D01*
X56503409Y-64101988D01*
X56546954Y-64165131D01*
X56568215Y-64214595D01*
X56592017Y-64298976D01*
X57001887Y-64177465D01*
X56972194Y-64080135D01*
X57136343Y-64080135D01*
X57609686Y-64080135D01*
X57609686Y-65588579D01*
X58073869Y-65588579D01*
X58073869Y-64922162D01*
X58676172Y-64922162D01*
X58694573Y-65070783D01*
X58728659Y-65202077D01*
X58778015Y-65318769D01*
X58843234Y-65422860D01*
X58902704Y-65486294D01*
X58980882Y-65539627D01*
X59081965Y-65581572D01*
X59211055Y-65609540D01*
X59374004Y-65619842D01*
X59518837Y-65609408D01*
X59638028Y-65580549D01*
X59735697Y-65536188D01*
X59825562Y-65470591D01*
X59899400Y-65389012D01*
X59959088Y-65290602D01*
X60003680Y-65178771D01*
X60030139Y-65061556D01*
X60039047Y-64936816D01*
X60032223Y-64830303D01*
X60012212Y-64732507D01*
X59979055Y-64641649D01*
X59933279Y-64561440D01*
X59870447Y-64487804D01*
X59787446Y-64420609D01*
X59696044Y-64368826D01*
X59555710Y-64310128D01*
X59351473Y-64244510D01*
X59240853Y-64204175D01*
X59195676Y-64171115D01*
X59169852Y-64129530D01*
X59161879Y-64085630D01*
X59171886Y-64025986D01*
X59202821Y-63974988D01*
X59250507Y-63942114D01*
X59324820Y-63929437D01*
X59388869Y-63937125D01*
X59439315Y-63958288D01*
X59479059Y-63991352D01*
X59510374Y-64037609D01*
X59535086Y-64102013D01*
X59552332Y-64189555D01*
X59989863Y-64155117D01*
X59966108Y-64001637D01*
X59927663Y-63877838D01*
X59875733Y-63778402D01*
X59809978Y-63699604D01*
X59733265Y-63641361D01*
X59637320Y-63596544D01*
X59518126Y-63567170D01*
X59370982Y-63556478D01*
X59214390Y-63566707D01*
X59093517Y-63594144D01*
X59001595Y-63634758D01*
X58916780Y-63695572D01*
X58850371Y-63767158D01*
X58799728Y-63849692D01*
X58762038Y-63944016D01*
X58739946Y-64040304D01*
X58732592Y-64140218D01*
X58741022Y-64253531D01*
X58765489Y-64353787D01*
X58805914Y-64443758D01*
X58863750Y-64525267D01*
X58929924Y-64589205D01*
X59020625Y-64651606D01*
X59141543Y-64711496D01*
X59299174Y-64767312D01*
X59424855Y-64811058D01*
X59498477Y-64849618D01*
X59536945Y-64882717D01*
X59566205Y-64926918D01*
X59582712Y-64972607D01*
X59588144Y-65021324D01*
X59582390Y-65072473D01*
X59565003Y-65119665D01*
X59534289Y-65164573D01*
X59495835Y-65197406D01*
X59445878Y-65218600D01*
X59381148Y-65226366D01*
X59316050Y-65218119D01*
X59261493Y-65194754D01*
X59215363Y-65157115D01*
X59176259Y-65104367D01*
X59151807Y-65051097D01*
X59131959Y-64979550D01*
X59117824Y-64885159D01*
X58676172Y-64922162D01*
X58073869Y-64922162D01*
X58073869Y-64080135D01*
X58547303Y-64080135D01*
X58547303Y-63587741D01*
X57136343Y-63587741D01*
X57136343Y-64080135D01*
X56972194Y-64080135D01*
X56954716Y-64022843D01*
X56898573Y-63895569D01*
X56833918Y-63791901D01*
X56760545Y-63709008D01*
X56677834Y-63645938D01*
X56578125Y-63598248D01*
X56458210Y-63567512D01*
X56314313Y-63556478D01*
X56167184Y-63568559D01*
X56040250Y-63602789D01*
X55930530Y-63656980D01*
X55835523Y-63730127D01*
X55753318Y-63822458D01*
X55684813Y-63932359D01*
X55630324Y-64060272D01*
X55589799Y-64208942D01*
X55564112Y-64381915D01*
X55555023Y-64583397D01*
X55280616Y-64583397D01*
X55280616Y-64338055D01*
X54558237Y-64338055D01*
X54558237Y-64017609D01*
X55337036Y-64017609D01*
X55337036Y-63587741D01*
X54093046Y-63587741D01*
X54093046Y-65588579D01*
X53162848Y-65588579D01*
X53162848Y-64767923D01*
X53744817Y-64767923D01*
X53744817Y-64361502D01*
X53162848Y-64361502D01*
X53162848Y-64017609D01*
X53844285Y-64017609D01*
X53844285Y-63587741D01*
X52696649Y-63587741D01*
X52696649Y-65588579D01*
X51763336Y-65588579D01*
X51763336Y-64767923D01*
X52345306Y-64767923D01*
X52345306Y-64361502D01*
X51763336Y-64361502D01*
X51763336Y-64017609D01*
X52444774Y-64017609D01*
X52444774Y-63587741D01*
X51297138Y-63587741D01*
X51297138Y-65588579D01*
X51045262Y-65588579D01*
X51045262Y-65135264D01*
X50243932Y-65135264D01*
X50243932Y-64744475D01*
X50966311Y-64744475D01*
X50966311Y-64338055D01*
X50243932Y-64338055D01*
X50243932Y-64017609D01*
X51022731Y-64017609D01*
X51022731Y-63587741D01*
X49778741Y-63587741D01*
X49778741Y-65588579D01*
X49556519Y-65588579D01*
X49556519Y-63334256D01*
X60261269Y-63334256D01*
X60261269Y-65842064D01*
G37*
G36*
X76861317Y-64084767D02*
G01*
X76886472Y-64099360D01*
X76908821Y-64124303D01*
X76924700Y-64156350D01*
X76935392Y-64201656D01*
X76939449Y-64264560D01*
X76935614Y-64325866D01*
X76925630Y-64368937D01*
X76911019Y-64398466D01*
X76890275Y-64421338D01*
X76866916Y-64434741D01*
X76839993Y-64439316D01*
X76812226Y-64434032D01*
X76786296Y-64417971D01*
X76761298Y-64389429D01*
X76742983Y-64353753D01*
X76731179Y-64307547D01*
X76726860Y-64247829D01*
X76730754Y-64193755D01*
X76741281Y-64152949D01*
X76757439Y-64122349D01*
X76779666Y-64098469D01*
X76804316Y-64084525D01*
X76832324Y-64079790D01*
X76861317Y-64084767D01*
G37*
G36*
X78437640Y-63741232D02*
G01*
X78463644Y-63757392D01*
X78488486Y-63786027D01*
X78506696Y-63821815D01*
X78518405Y-63867857D01*
X78522680Y-63927016D01*
X78518819Y-63981035D01*
X78508378Y-64021920D01*
X78492345Y-64052679D01*
X78470287Y-64076658D01*
X78445740Y-64090662D01*
X78417753Y-64095422D01*
X78388754Y-64090451D01*
X78363581Y-64075877D01*
X78341207Y-64050969D01*
X78325334Y-64018979D01*
X78314668Y-63973944D01*
X78310628Y-63911629D01*
X78314429Y-63849947D01*
X78324320Y-63806643D01*
X78338765Y-63776990D01*
X78359345Y-63753986D01*
X78382616Y-63740503D01*
X78409546Y-63735896D01*
X78437640Y-63741232D01*
G37*
G36*
X79411603Y-64084767D02*
G01*
X79436759Y-64099360D01*
X79459107Y-64124303D01*
X79474986Y-64156350D01*
X79485678Y-64201656D01*
X79489735Y-64264560D01*
X79485901Y-64325866D01*
X79475916Y-64368937D01*
X79461305Y-64398466D01*
X79440561Y-64421338D01*
X79417202Y-64434741D01*
X79390279Y-64439316D01*
X79362512Y-64434032D01*
X79336582Y-64417971D01*
X79311584Y-64389429D01*
X79293269Y-64353753D01*
X79281466Y-64307547D01*
X79277146Y-64247829D01*
X79281041Y-64193755D01*
X79291567Y-64152949D01*
X79307725Y-64122349D01*
X79329952Y-64098469D01*
X79354602Y-64084525D01*
X79382610Y-64079790D01*
X79411603Y-64084767D01*
G37*
G36*
X80536149Y-64710650D02*
G01*
X75504932Y-64710650D01*
X75504932Y-64310416D01*
X75616043Y-64310416D01*
X75625853Y-64373320D01*
X75642970Y-64428386D01*
X75667255Y-64476859D01*
X75699086Y-64519610D01*
X75736587Y-64554112D01*
X75778549Y-64578912D01*
X75825813Y-64594216D01*
X75879483Y-64599539D01*
X75935679Y-64593459D01*
X75973898Y-64580000D01*
X76276476Y-64580000D01*
X76430007Y-64580000D01*
X76430007Y-64388513D01*
X76276476Y-64388513D01*
X76276476Y-64580000D01*
X75973898Y-64580000D01*
X75985648Y-64575862D01*
X76030558Y-64547058D01*
X76071263Y-64506482D01*
X76105357Y-64456854D01*
X76129146Y-64403465D01*
X76143457Y-64345403D01*
X76148346Y-64281352D01*
X76143566Y-64222524D01*
X76129773Y-64171299D01*
X76107069Y-64126074D01*
X76081821Y-64094811D01*
X76554717Y-64094811D01*
X76558709Y-64208599D01*
X76563356Y-64247829D01*
X76569657Y-64301017D01*
X76586248Y-64375412D01*
X76607510Y-64434755D01*
X76632875Y-64481570D01*
X76666482Y-64524710D01*
X76702727Y-64557384D01*
X76741998Y-64580576D01*
X76784922Y-64594691D01*
X76832324Y-64599539D01*
X76887770Y-64593469D01*
X76936335Y-64576003D01*
X76979305Y-64547566D01*
X77017606Y-64507643D01*
X77048558Y-64459111D01*
X77070932Y-64403274D01*
X77084863Y-64338725D01*
X77086456Y-64314263D01*
X77503259Y-64314263D01*
X77804899Y-64314263D01*
X77804899Y-64122777D01*
X77503259Y-64122777D01*
X77503259Y-64314263D01*
X77086456Y-64314263D01*
X77089756Y-64263583D01*
X77085157Y-64192900D01*
X77071989Y-64131368D01*
X77050721Y-64077378D01*
X77021172Y-64029720D01*
X76984493Y-63989483D01*
X76945295Y-63961544D01*
X76902919Y-63944807D01*
X76856406Y-63939106D01*
X76815373Y-63944445D01*
X76778513Y-63960065D01*
X76744853Y-63986144D01*
X76713768Y-64023859D01*
X76723826Y-63910957D01*
X78159784Y-63910957D01*
X78159827Y-63911629D01*
X78164402Y-63982371D01*
X78177601Y-64044282D01*
X78198872Y-64098360D01*
X78228367Y-64145858D01*
X78265048Y-64186030D01*
X78303987Y-64213848D01*
X78345820Y-64230462D01*
X78391472Y-64236106D01*
X78433416Y-64230774D01*
X78470934Y-64215216D01*
X78505016Y-64189341D01*
X78536308Y-64152086D01*
X78525476Y-64269886D01*
X78510487Y-64342201D01*
X78493663Y-64383079D01*
X78468921Y-64415250D01*
X78442333Y-64433324D01*
X78412819Y-64439316D01*
X78388574Y-64436015D01*
X78368668Y-64426683D01*
X78352149Y-64411533D01*
X78339488Y-64391172D01*
X78329846Y-64363347D01*
X78323719Y-64325987D01*
X78175073Y-64346870D01*
X78186721Y-64409368D01*
X78203243Y-64460640D01*
X78224171Y-64502464D01*
X78249421Y-64536219D01*
X78279632Y-64563200D01*
X78314417Y-64582883D01*
X78354625Y-64595204D01*
X78401340Y-64599539D01*
X78452660Y-64594462D01*
X78497923Y-64580000D01*
X78826762Y-64580000D01*
X78980293Y-64580000D01*
X78980293Y-64388513D01*
X78826762Y-64388513D01*
X78826762Y-64580000D01*
X78497923Y-64580000D01*
X78498718Y-64579746D01*
X78540431Y-64555712D01*
X78578506Y-64522062D01*
X78613391Y-64477906D01*
X78639899Y-64429513D01*
X78662062Y-64368417D01*
X78679317Y-64292090D01*
X78690683Y-64197553D01*
X78694345Y-64094811D01*
X79105003Y-64094811D01*
X79108995Y-64208599D01*
X79113642Y-64247829D01*
X79119943Y-64301017D01*
X79136534Y-64375412D01*
X79157796Y-64434755D01*
X79183161Y-64481570D01*
X79216769Y-64524710D01*
X79253013Y-64557384D01*
X79292284Y-64580576D01*
X79335208Y-64594691D01*
X79382610Y-64599539D01*
X79438056Y-64593469D01*
X79486621Y-64576003D01*
X79529591Y-64547566D01*
X79567892Y-64507643D01*
X79598844Y-64459111D01*
X79621218Y-64403274D01*
X79635149Y-64338725D01*
X79640042Y-64263583D01*
X79635443Y-64192900D01*
X79622275Y-64131368D01*
X79601007Y-64077378D01*
X79571458Y-64029720D01*
X79534779Y-63989483D01*
X79495581Y-63961544D01*
X79453205Y-63944807D01*
X79406692Y-63939106D01*
X79365659Y-63944445D01*
X79328800Y-63960065D01*
X79295139Y-63986144D01*
X79264054Y-64023859D01*
X79274593Y-63905562D01*
X79289512Y-63833052D01*
X79306406Y-63792133D01*
X79331354Y-63760054D01*
X79358404Y-63741932D01*
X79388667Y-63735896D01*
X79412165Y-63739151D01*
X79431725Y-63748413D01*
X79448213Y-63763557D01*
X79460853Y-63783778D01*
X79470501Y-63811618D01*
X79476643Y-63849225D01*
X79625289Y-63828464D01*
X79613643Y-63767632D01*
X79596860Y-63717000D01*
X79575324Y-63675004D01*
X79549037Y-63640458D01*
X79517800Y-63612581D01*
X79482716Y-63592464D01*
X79443072Y-63580011D01*
X79397948Y-63575673D01*
X79679072Y-63575673D01*
X79965422Y-64580000D01*
X80138102Y-64580000D01*
X80425038Y-63575673D01*
X80253433Y-63575673D01*
X80057257Y-64318171D01*
X79854487Y-63575673D01*
X79679072Y-63575673D01*
X79397948Y-63575673D01*
X79346871Y-63580746D01*
X79300981Y-63595456D01*
X79259369Y-63619501D01*
X79221334Y-63653189D01*
X79186434Y-63697428D01*
X79159943Y-63745831D01*
X79137782Y-63807001D01*
X79120522Y-63883487D01*
X79109147Y-63978293D01*
X79105003Y-64094811D01*
X78694345Y-64094811D01*
X78694822Y-64081439D01*
X78690823Y-63967092D01*
X78679861Y-63874326D01*
X78663261Y-63799750D01*
X78642003Y-63740354D01*
X78616664Y-63693581D01*
X78583070Y-63650504D01*
X78546779Y-63617851D01*
X78507398Y-63594657D01*
X78464293Y-63580528D01*
X78416629Y-63575673D01*
X78361806Y-63581735D01*
X78313560Y-63599218D01*
X78270647Y-63627759D01*
X78232177Y-63667936D01*
X78201056Y-63716644D01*
X78178612Y-63772403D01*
X78164670Y-63836567D01*
X78159784Y-63910957D01*
X76723826Y-63910957D01*
X76724307Y-63905562D01*
X76739226Y-63833052D01*
X76756120Y-63792133D01*
X76781068Y-63760054D01*
X76808118Y-63741932D01*
X76838381Y-63735896D01*
X76861879Y-63739151D01*
X76881439Y-63748413D01*
X76897927Y-63763557D01*
X76910567Y-63783778D01*
X76920215Y-63811618D01*
X76926357Y-63849225D01*
X77075003Y-63828464D01*
X77063357Y-63767632D01*
X77046574Y-63717000D01*
X77025038Y-63675004D01*
X76998751Y-63640458D01*
X76967514Y-63612581D01*
X76932430Y-63592464D01*
X76892786Y-63580011D01*
X76847662Y-63575673D01*
X76796585Y-63580746D01*
X76750695Y-63595456D01*
X76709082Y-63619501D01*
X76671048Y-63653189D01*
X76636148Y-63697428D01*
X76609657Y-63745831D01*
X76587496Y-63807001D01*
X76570236Y-63883487D01*
X76558861Y-63978293D01*
X76554717Y-64094811D01*
X76081821Y-64094811D01*
X76076743Y-64088523D01*
X76040425Y-64061048D01*
X75996964Y-64043276D01*
X76041121Y-64007100D01*
X76073104Y-63968414D01*
X76094948Y-63927034D01*
X76107898Y-63882219D01*
X76112296Y-63832739D01*
X76108839Y-63787817D01*
X76098559Y-63745526D01*
X76081204Y-63705083D01*
X76056022Y-63665921D01*
X76019633Y-63626933D01*
X75978010Y-63599001D01*
X75930125Y-63581722D01*
X75874550Y-63575673D01*
X75831024Y-63579300D01*
X75791408Y-63589837D01*
X75755115Y-63606997D01*
X75721615Y-63630963D01*
X75694169Y-63659542D01*
X75672072Y-63692909D01*
X75654848Y-63730840D01*
X75639847Y-63778879D01*
X75627523Y-63838967D01*
X75769086Y-63868764D01*
X75776024Y-63826797D01*
X75787455Y-63794457D01*
X75802938Y-63769785D01*
X75822881Y-63750906D01*
X75845050Y-63739719D01*
X75870202Y-63735896D01*
X75895791Y-63739448D01*
X75916746Y-63749489D01*
X75934096Y-63765816D01*
X75947222Y-63787415D01*
X75955311Y-63813673D01*
X75958178Y-63845928D01*
X75954373Y-63883460D01*
X75943477Y-63914538D01*
X75925352Y-63940694D01*
X75901855Y-63959370D01*
X75870919Y-63970968D01*
X75830293Y-63974277D01*
X75813342Y-64129310D01*
X75853161Y-64118208D01*
X75883831Y-64114961D01*
X75912250Y-64119694D01*
X75937258Y-64133614D01*
X75959791Y-64157398D01*
X75976622Y-64187830D01*
X75987174Y-64225491D01*
X75990956Y-64272376D01*
X75987008Y-64321948D01*
X75975989Y-64361863D01*
X75958423Y-64394192D01*
X75934836Y-64419463D01*
X75908488Y-64434271D01*
X75878360Y-64439316D01*
X75850148Y-64434914D01*
X75825299Y-64422015D01*
X75802938Y-64400176D01*
X75785576Y-64371770D01*
X75772660Y-64334733D01*
X75764689Y-64286908D01*
X75616043Y-64310416D01*
X75504932Y-64310416D01*
X75504932Y-63464562D01*
X80536149Y-63464562D01*
X80536149Y-64710650D01*
G37*
G36*
X50607568Y-52484883D02*
G01*
X50648111Y-52511904D01*
X50683821Y-52557980D01*
X50709263Y-52616991D01*
X50726229Y-52698615D01*
X50732612Y-52809947D01*
X50726096Y-52916009D01*
X50708536Y-52995742D01*
X50681706Y-53055228D01*
X50644655Y-53101748D01*
X50603574Y-53128838D01*
X50556876Y-53138026D01*
X50513568Y-53129134D01*
X50475457Y-53102829D01*
X50441023Y-53057335D01*
X50416756Y-52999386D01*
X50400336Y-52917156D01*
X50394091Y-52802711D01*
X50400235Y-52693996D01*
X50416563Y-52614190D01*
X50441023Y-52556423D01*
X50475546Y-52511190D01*
X50514796Y-52484700D01*
X50560467Y-52475640D01*
X50607568Y-52484883D01*
G37*
G36*
X49757987Y-52482985D02*
G01*
X49792463Y-52504577D01*
X49823543Y-52541402D01*
X49846609Y-52588892D01*
X49862054Y-52651496D01*
X49868743Y-52733560D01*
X49567473Y-52733560D01*
X49572322Y-52656344D01*
X49586701Y-52594635D01*
X49609788Y-52545066D01*
X49641152Y-52506381D01*
X49677000Y-52483505D01*
X49718845Y-52475640D01*
X49757987Y-52482985D01*
G37*
G36*
X51550575Y-52908408D02*
G01*
X51548089Y-53004066D01*
X51542689Y-53049458D01*
X51525240Y-53101067D01*
X51494604Y-53145170D01*
X51460261Y-53174294D01*
X51425828Y-53191105D01*
X51390611Y-53196645D01*
X51359354Y-53191505D01*
X51332941Y-53176760D01*
X51310277Y-53152406D01*
X51292580Y-53120662D01*
X51282234Y-53086032D01*
X51278733Y-53047351D01*
X51283013Y-53009018D01*
X51295754Y-52975563D01*
X51318163Y-52945502D01*
X51351701Y-52923763D01*
X51427926Y-52895035D01*
X51550575Y-52850797D01*
X51550575Y-52908408D01*
G37*
G36*
X54002830Y-52482985D02*
G01*
X54037306Y-52504577D01*
X54068386Y-52541402D01*
X54091452Y-52588892D01*
X54106897Y-52651496D01*
X54113586Y-52733560D01*
X53812316Y-52733560D01*
X53817165Y-52656344D01*
X53831544Y-52594635D01*
X53854631Y-52545066D01*
X53885994Y-52506381D01*
X53921843Y-52483505D01*
X53963688Y-52475640D01*
X54002830Y-52482985D01*
G37*
G36*
X56342798Y-52497134D02*
G01*
X56386331Y-52525849D01*
X56425272Y-52575016D01*
X56453685Y-52637729D01*
X56472021Y-52719335D01*
X56478743Y-52825243D01*
X56471963Y-52934044D01*
X56453574Y-53016935D01*
X56425272Y-53079774D01*
X56386335Y-53128886D01*
X56342802Y-53157573D01*
X56292941Y-53167336D01*
X56243065Y-53157585D01*
X56199397Y-53128904D01*
X56160225Y-53079774D01*
X56131685Y-53016933D01*
X56113219Y-52934665D01*
X56106434Y-52827349D01*
X56113221Y-52720035D01*
X56131687Y-52637801D01*
X56160225Y-52575016D01*
X56199402Y-52525831D01*
X56243069Y-52497123D01*
X56292941Y-52487363D01*
X56342798Y-52497134D01*
G37*
G36*
X58900094Y-52482985D02*
G01*
X58934570Y-52504577D01*
X58965651Y-52541402D01*
X58988716Y-52588892D01*
X59004162Y-52651496D01*
X59010851Y-52733560D01*
X58709580Y-52733560D01*
X58714430Y-52656344D01*
X58728808Y-52594635D01*
X58751895Y-52545066D01*
X58783259Y-52506381D01*
X58819107Y-52483505D01*
X58860953Y-52475640D01*
X58900094Y-52482985D01*
G37*
G36*
X60777345Y-52482985D02*
G01*
X60811821Y-52504577D01*
X60842901Y-52541402D01*
X60865967Y-52588892D01*
X60881412Y-52651496D01*
X60888101Y-52733560D01*
X60586831Y-52733560D01*
X60591680Y-52656344D01*
X60606059Y-52594635D01*
X60629146Y-52545066D01*
X60660509Y-52506381D01*
X60696358Y-52483505D01*
X60738203Y-52475640D01*
X60777345Y-52482985D01*
G37*
G36*
X68368412Y-52482985D02*
G01*
X68402888Y-52504577D01*
X68433969Y-52541402D01*
X68457035Y-52588892D01*
X68472480Y-52651496D01*
X68479169Y-52733560D01*
X68177899Y-52733560D01*
X68182748Y-52656344D01*
X68197127Y-52594635D01*
X68220214Y-52545066D01*
X68251577Y-52506381D01*
X68287425Y-52483505D01*
X68329271Y-52475640D01*
X68368412Y-52482985D01*
G37*
G36*
X69263408Y-52908408D02*
G01*
X69260922Y-53004066D01*
X69255522Y-53049458D01*
X69238073Y-53101067D01*
X69207437Y-53145170D01*
X69173094Y-53174294D01*
X69138662Y-53191105D01*
X69103445Y-53196645D01*
X69072187Y-53191505D01*
X69045775Y-53176760D01*
X69023110Y-53152406D01*
X69005413Y-53120662D01*
X68995067Y-53086032D01*
X68991566Y-53047351D01*
X68995847Y-53009018D01*
X69008587Y-52975563D01*
X69030996Y-52945502D01*
X69064535Y-52923763D01*
X69140759Y-52895035D01*
X69263408Y-52850797D01*
X69263408Y-52908408D01*
G37*
G36*
X70872511Y-52497134D02*
G01*
X70916045Y-52525849D01*
X70954986Y-52575016D01*
X70983398Y-52637729D01*
X71001734Y-52719335D01*
X71008456Y-52825243D01*
X71001676Y-52934044D01*
X70983287Y-53016935D01*
X70954986Y-53079774D01*
X70916049Y-53128886D01*
X70872516Y-53157573D01*
X70822655Y-53167336D01*
X70772779Y-53157585D01*
X70729111Y-53128904D01*
X70689939Y-53079774D01*
X70661399Y-53016933D01*
X70642933Y-52934665D01*
X70636148Y-52827349D01*
X70642935Y-52720035D01*
X70661401Y-52637801D01*
X70689939Y-52575016D01*
X70729116Y-52525831D01*
X70772783Y-52497123D01*
X70822655Y-52487363D01*
X70872511Y-52497134D01*
G37*
G36*
X63469822Y-52121408D02*
G01*
X63517342Y-52128510D01*
X63550053Y-52142238D01*
X63578247Y-52164698D01*
X63602677Y-52196287D01*
X63621127Y-52234874D01*
X63632435Y-52280155D01*
X63636401Y-52333948D01*
X63630246Y-52398271D01*
X63612359Y-52452834D01*
X63583979Y-52496833D01*
X63546001Y-52527847D01*
X63493324Y-52544203D01*
X63378151Y-52551844D01*
X63261977Y-52551844D01*
X63261977Y-52118068D01*
X63364559Y-52118068D01*
X63469822Y-52121408D01*
G37*
G36*
X64455585Y-52122667D02*
G01*
X64510656Y-52132540D01*
X64565758Y-52160232D01*
X64608879Y-52203797D01*
X64642342Y-52264316D01*
X64669146Y-52350343D01*
X64684459Y-52454649D01*
X64690688Y-52619804D01*
X64684565Y-52785933D01*
X64669146Y-52896959D01*
X64651922Y-52963120D01*
X64633267Y-53010466D01*
X64613559Y-53043046D01*
X64575883Y-53080369D01*
X64527839Y-53105969D01*
X64482232Y-53116076D01*
X64399483Y-53120441D01*
X64240930Y-53120441D01*
X64240930Y-52118068D01*
X64336331Y-52118068D01*
X64455585Y-52122667D01*
G37*
G36*
X66912747Y-52723053D02*
G01*
X66968649Y-52737682D01*
X67007478Y-52766340D01*
X67035007Y-52806833D01*
X67051979Y-52858224D01*
X67057960Y-52922329D01*
X67054349Y-52974428D01*
X67044254Y-53016555D01*
X67028147Y-53050832D01*
X66994350Y-53089602D01*
X66951082Y-53111190D01*
X66909997Y-53117359D01*
X66805480Y-53120441D01*
X66608971Y-53120441D01*
X66608971Y-52715975D01*
X66780411Y-52715975D01*
X66912747Y-52723053D01*
G37*
G36*
X66912357Y-52123197D02*
G01*
X66946391Y-52133846D01*
X66972495Y-52151554D01*
X66992307Y-52175771D01*
X67012188Y-52224297D01*
X67019235Y-52288428D01*
X67015554Y-52334874D01*
X67005101Y-52373228D01*
X66988012Y-52405298D01*
X66952230Y-52440068D01*
X66902356Y-52458787D01*
X66748098Y-52463916D01*
X66608971Y-52463916D01*
X66608971Y-52118068D01*
X66730915Y-52118068D01*
X66912357Y-52123197D01*
G37*
G36*
X74952962Y-53984665D02*
G01*
X48192390Y-53984665D01*
X48192390Y-53372500D01*
X48359057Y-53372500D01*
X48556271Y-53372500D01*
X48556271Y-52379011D01*
X48980191Y-53372500D01*
X49193241Y-53372500D01*
X49193241Y-52835593D01*
X49357308Y-52835593D01*
X49362469Y-52949969D01*
X49377184Y-53049876D01*
X49400667Y-53137461D01*
X49432642Y-53214505D01*
X49473788Y-53280450D01*
X49522419Y-53331829D01*
X49579605Y-53369559D01*
X49646988Y-53393367D01*
X49726667Y-53401809D01*
X49808548Y-53391755D01*
X49877422Y-53363340D01*
X49935742Y-53317911D01*
X49985494Y-53255054D01*
X50026225Y-53174622D01*
X50058071Y-53073546D01*
X49857267Y-53026652D01*
X49835689Y-53098526D01*
X49808476Y-53142972D01*
X49773179Y-53169701D01*
X49728847Y-53179059D01*
X49684616Y-53171016D01*
X49646393Y-53147595D01*
X49612673Y-53108076D01*
X49587435Y-53056959D01*
X49570877Y-52991999D01*
X49563883Y-52909415D01*
X50068842Y-52909415D01*
X50066816Y-52818923D01*
X50187517Y-52818923D01*
X50192314Y-52928725D01*
X50206024Y-53025276D01*
X50227937Y-53110480D01*
X50257786Y-53185928D01*
X50297286Y-53254646D01*
X50340671Y-53306226D01*
X50388410Y-53342662D01*
X50441415Y-53364847D01*
X50500969Y-53372500D01*
X50566298Y-53361458D01*
X50625030Y-53328943D01*
X50678944Y-53273865D01*
X50729022Y-53192615D01*
X50729022Y-53353449D01*
X50726119Y-53443357D01*
X50719725Y-53487355D01*
X50702311Y-53532154D01*
X50679526Y-53560994D01*
X50652044Y-53578589D01*
X50613661Y-53590659D01*
X50561172Y-53595249D01*
X50504665Y-53585853D01*
X50470836Y-53562368D01*
X50454688Y-53532567D01*
X50444293Y-53478012D01*
X50214060Y-53442841D01*
X50213355Y-53478196D01*
X50218506Y-53549324D01*
X50233511Y-53612569D01*
X50258453Y-53669695D01*
X50294395Y-53721828D01*
X50335820Y-53759712D01*
X50392531Y-53789855D01*
X50468662Y-53810321D01*
X50569122Y-53817998D01*
X50666966Y-53809496D01*
X50738703Y-53787132D01*
X50800673Y-53749043D01*
X50845901Y-53701769D01*
X50880646Y-53639274D01*
X50908348Y-53551560D01*
X50919564Y-53486418D01*
X50927526Y-53392705D01*
X50930595Y-53262499D01*
X50930595Y-53078309D01*
X51077223Y-53078309D01*
X51081630Y-53146628D01*
X51094385Y-53207078D01*
X51115323Y-53261216D01*
X51144992Y-53310126D01*
X51180565Y-53349002D01*
X51222447Y-53377486D01*
X51271865Y-53395442D01*
X51330409Y-53401809D01*
X51395467Y-53392561D01*
X51455943Y-53365172D01*
X51512134Y-53320224D01*
X51566411Y-53255263D01*
X51573592Y-53288602D01*
X51592954Y-53372500D01*
X51792348Y-53372500D01*
X51769511Y-53294540D01*
X51756124Y-53225587D01*
X51749319Y-53147519D01*
X51746443Y-53012730D01*
X51748558Y-52674576D01*
X51744589Y-52547098D01*
X51734763Y-52464964D01*
X51721631Y-52415281D01*
X51700477Y-52372699D01*
X51670133Y-52333902D01*
X51628730Y-52298777D01*
X51596364Y-52282199D01*
X51863643Y-52282199D01*
X51863643Y-52510811D01*
X51956159Y-52510811D01*
X51956159Y-52989374D01*
X51958233Y-53130634D01*
X51962634Y-53194080D01*
X51974293Y-53260534D01*
X51990908Y-53307195D01*
X52016015Y-53343931D01*
X52055086Y-53375430D01*
X52100720Y-53394988D01*
X52153373Y-53401809D01*
X52212082Y-53396736D01*
X52264899Y-53382100D01*
X52284304Y-53372500D01*
X52436178Y-53372500D01*
X52637688Y-53372500D01*
X52637688Y-52282199D01*
X52746874Y-52282199D01*
X53053850Y-53372500D01*
X53235356Y-53372500D01*
X53384408Y-52835593D01*
X53602151Y-52835593D01*
X53607312Y-52949969D01*
X53622027Y-53049876D01*
X53645510Y-53137461D01*
X53677485Y-53214505D01*
X53718631Y-53280450D01*
X53767262Y-53331829D01*
X53824448Y-53369559D01*
X53891831Y-53393367D01*
X53971510Y-53401809D01*
X54053391Y-53391755D01*
X54122265Y-53363340D01*
X54180585Y-53317911D01*
X54230337Y-53255054D01*
X54271068Y-53174622D01*
X54302914Y-53073546D01*
X54102110Y-53026652D01*
X54080532Y-53098526D01*
X54053319Y-53142972D01*
X54018022Y-53169701D01*
X53973690Y-53179059D01*
X53929459Y-53171016D01*
X53891236Y-53147595D01*
X53857516Y-53108076D01*
X53832278Y-53056959D01*
X53815720Y-52991999D01*
X53808726Y-52909415D01*
X54313685Y-52909415D01*
X54310574Y-52770449D01*
X54298456Y-52654757D01*
X54293886Y-52632535D01*
X54849933Y-52632535D01*
X54855990Y-52776083D01*
X54873233Y-52901371D01*
X54900658Y-53010992D01*
X54937800Y-53107140D01*
X54984764Y-53191516D01*
X55041729Y-53265137D01*
X55103760Y-53321717D01*
X55171589Y-53362370D01*
X55246269Y-53387333D01*
X55329119Y-53395947D01*
X55413528Y-53387768D01*
X55487168Y-53364436D01*
X55551696Y-53327128D01*
X55608463Y-53276146D01*
X55657587Y-53211486D01*
X55700273Y-53130565D01*
X55736552Y-53030938D01*
X55765926Y-52909415D01*
X55560057Y-52815626D01*
X55536731Y-52923372D01*
X55507273Y-53002992D01*
X55472541Y-53060266D01*
X55429310Y-53103432D01*
X55381283Y-53129198D01*
X55326939Y-53138026D01*
X55271293Y-53130173D01*
X55222532Y-53107473D01*
X55179225Y-53070121D01*
X55140432Y-53016851D01*
X55112040Y-52954703D01*
X55089568Y-52870308D01*
X55081666Y-52811779D01*
X55899859Y-52811779D01*
X55900605Y-52827349D01*
X55905833Y-52936505D01*
X55922692Y-53042661D01*
X55949355Y-53133264D01*
X55987448Y-53214192D01*
X56035264Y-53280512D01*
X56093868Y-53333482D01*
X56158626Y-53371581D01*
X56224965Y-53394228D01*
X56293646Y-53401809D01*
X56376313Y-53391122D01*
X56449536Y-53360198D01*
X56515153Y-53309488D01*
X56574464Y-53237769D01*
X56622962Y-53151091D01*
X56657504Y-53054681D01*
X56678682Y-52946608D01*
X56686022Y-52824235D01*
X56678745Y-52702874D01*
X56657761Y-52595842D01*
X56623556Y-52500499D01*
X56575554Y-52414915D01*
X56516856Y-52344449D01*
X56451100Y-52294323D01*
X56421839Y-52282199D01*
X56842652Y-52282199D01*
X56842652Y-53372500D01*
X57044226Y-53372500D01*
X57044226Y-52877175D01*
X57049039Y-52708245D01*
X57059613Y-52625941D01*
X57081563Y-52564768D01*
X57116674Y-52516856D01*
X57160769Y-52486028D01*
X57210601Y-52475640D01*
X57249179Y-52483119D01*
X57280549Y-52504491D01*
X57305321Y-52538689D01*
X57322479Y-52585366D01*
X57331190Y-52652708D01*
X57335430Y-52814435D01*
X57335430Y-53372500D01*
X57537004Y-53372500D01*
X57537004Y-52692069D01*
X57533773Y-52572633D01*
X57525848Y-52497255D01*
X57510350Y-52432527D01*
X57486418Y-52375622D01*
X57452665Y-52328137D01*
X57402814Y-52287420D01*
X57391162Y-52282199D01*
X57644138Y-52282199D01*
X57951115Y-53372500D01*
X58132621Y-53372500D01*
X58281673Y-52835593D01*
X58499415Y-52835593D01*
X58504576Y-52949969D01*
X58519291Y-53049876D01*
X58542774Y-53137461D01*
X58574749Y-53214505D01*
X58615895Y-53280450D01*
X58664526Y-53331829D01*
X58721712Y-53369559D01*
X58789095Y-53393367D01*
X58868775Y-53401809D01*
X58950655Y-53391755D01*
X59019530Y-53363340D01*
X59077850Y-53317911D01*
X59127602Y-53255054D01*
X59168332Y-53174622D01*
X59200179Y-53073546D01*
X58999375Y-53026652D01*
X58977797Y-53098526D01*
X58950584Y-53142972D01*
X58915287Y-53169701D01*
X58870955Y-53179059D01*
X58826723Y-53171016D01*
X58788501Y-53147595D01*
X58754781Y-53108076D01*
X58729542Y-53056959D01*
X58712984Y-52991999D01*
X58705990Y-52909415D01*
X59210950Y-52909415D01*
X59207838Y-52770449D01*
X59195721Y-52654757D01*
X59175991Y-52558823D01*
X59149590Y-52479572D01*
X59116959Y-52414457D01*
X59064121Y-52344568D01*
X59003014Y-52294639D01*
X58974425Y-52282199D01*
X59366169Y-52282199D01*
X59366169Y-53372500D01*
X59567743Y-53372500D01*
X59567743Y-53033613D01*
X59573195Y-52777316D01*
X59584605Y-52665783D01*
X59606237Y-52587315D01*
X59630831Y-52544425D01*
X59662953Y-52519463D01*
X59702574Y-52510811D01*
X59746146Y-52521607D01*
X59797270Y-52557889D01*
X59859653Y-52307112D01*
X59823870Y-52282199D01*
X59862987Y-52282199D01*
X59862987Y-52510811D01*
X59955503Y-52510811D01*
X59955503Y-52989374D01*
X59957577Y-53130634D01*
X59961978Y-53194080D01*
X59973637Y-53260534D01*
X59990252Y-53307195D01*
X60015359Y-53343931D01*
X60054430Y-53375430D01*
X60100064Y-53394988D01*
X60152717Y-53401809D01*
X60211426Y-53396736D01*
X60264243Y-53382100D01*
X60311975Y-53358486D01*
X60294793Y-53133813D01*
X60244322Y-53155770D01*
X60213753Y-53161474D01*
X60194829Y-53157714D01*
X60179644Y-53147002D01*
X60168087Y-53130419D01*
X60161693Y-53110274D01*
X60157782Y-52953562D01*
X60157782Y-52835593D01*
X60376666Y-52835593D01*
X60381827Y-52949969D01*
X60396542Y-53049876D01*
X60420025Y-53137461D01*
X60452000Y-53214505D01*
X60493146Y-53280450D01*
X60541777Y-53331829D01*
X60598963Y-53369559D01*
X60666346Y-53393367D01*
X60746025Y-53401809D01*
X60827906Y-53391755D01*
X60896780Y-53363340D01*
X60955100Y-53317911D01*
X61004852Y-53255054D01*
X61045583Y-53174622D01*
X61077429Y-53073546D01*
X60876625Y-53026652D01*
X60855047Y-53098526D01*
X60827834Y-53142972D01*
X60792537Y-53169701D01*
X60748205Y-53179059D01*
X60703974Y-53171016D01*
X60665751Y-53147595D01*
X60632031Y-53108076D01*
X60606793Y-53056959D01*
X60590235Y-52991999D01*
X60583241Y-52909415D01*
X61088200Y-52909415D01*
X61085089Y-52770449D01*
X61072971Y-52654757D01*
X61053241Y-52558823D01*
X61026841Y-52479572D01*
X60994210Y-52414457D01*
X60941372Y-52344568D01*
X60880265Y-52294639D01*
X60851676Y-52282199D01*
X61243420Y-52282199D01*
X61243420Y-53372500D01*
X61444993Y-53372500D01*
X61444993Y-53033613D01*
X61446386Y-52968125D01*
X62181468Y-52968125D01*
X62194343Y-53062480D01*
X62216809Y-53145079D01*
X62248684Y-53217788D01*
X62290461Y-53281916D01*
X62339682Y-53333668D01*
X62394757Y-53370868D01*
X62456791Y-53393825D01*
X62527233Y-53401809D01*
X62600990Y-53392689D01*
X62666574Y-53366293D01*
X62725519Y-53323087D01*
X62778944Y-53262224D01*
X62823693Y-53187782D01*
X62854915Y-53107698D01*
X62873698Y-53020604D01*
X62880116Y-52924528D01*
X62873842Y-52836286D01*
X62855738Y-52759449D01*
X62825939Y-52691612D01*
X62786137Y-52635285D01*
X62738469Y-52594073D01*
X62681427Y-52567414D01*
X62698057Y-52551844D01*
X63049696Y-52551844D01*
X63049696Y-53372500D01*
X63261977Y-53372500D01*
X63261977Y-53120441D01*
X64028649Y-53120441D01*
X64028649Y-53372500D01*
X64428142Y-53372500D01*
X64539716Y-53363514D01*
X64616059Y-53340626D01*
X64676770Y-53306492D01*
X64725935Y-53266259D01*
X64765252Y-53220367D01*
X64809153Y-53147842D01*
X64846765Y-53059924D01*
X64877900Y-52954295D01*
X64895160Y-52863394D01*
X64906218Y-52757272D01*
X64910149Y-52633634D01*
X64905862Y-52492637D01*
X64893973Y-52375088D01*
X64875720Y-52277620D01*
X64848687Y-52184651D01*
X64821140Y-52118068D01*
X65014719Y-52118068D01*
X65326760Y-52118068D01*
X65326760Y-53372500D01*
X65539041Y-53372500D01*
X65539041Y-52463916D01*
X66396626Y-52463916D01*
X66396626Y-53120441D01*
X66396626Y-53372500D01*
X66754509Y-53372500D01*
X66939330Y-53368077D01*
X67010580Y-53362241D01*
X67065710Y-53347720D01*
X67112764Y-53323710D01*
X67152976Y-53290800D01*
X67188471Y-53248124D01*
X67218763Y-53196678D01*
X67244082Y-53135462D01*
X67262754Y-53069375D01*
X67273764Y-53002935D01*
X67277421Y-52935427D01*
X67271495Y-52850868D01*
X67254268Y-52775804D01*
X67225745Y-52708189D01*
X67187437Y-52651227D01*
X67138836Y-52605616D01*
X67078027Y-52571352D01*
X67120544Y-52536785D01*
X67156301Y-52492872D01*
X67185995Y-52438912D01*
X67208145Y-52377994D01*
X67221349Y-52313689D01*
X67223389Y-52282199D01*
X67446553Y-52282199D01*
X67446553Y-53372500D01*
X67648127Y-53372500D01*
X67648127Y-53033613D01*
X67652339Y-52835593D01*
X67967734Y-52835593D01*
X67972894Y-52949969D01*
X67987610Y-53049876D01*
X68011092Y-53137461D01*
X68043067Y-53214505D01*
X68084213Y-53280450D01*
X68132844Y-53331829D01*
X68190031Y-53369559D01*
X68257413Y-53393367D01*
X68337093Y-53401809D01*
X68418973Y-53391755D01*
X68487848Y-53363340D01*
X68546168Y-53317911D01*
X68595920Y-53255054D01*
X68636650Y-53174622D01*
X68666996Y-53078309D01*
X68790057Y-53078309D01*
X68794463Y-53146628D01*
X68807218Y-53207078D01*
X68828156Y-53261216D01*
X68857825Y-53310126D01*
X68893398Y-53349002D01*
X68935281Y-53377486D01*
X68984698Y-53395442D01*
X69043242Y-53401809D01*
X69108300Y-53392561D01*
X69168777Y-53365172D01*
X69224968Y-53320224D01*
X69279245Y-53255263D01*
X69286425Y-53288602D01*
X69305788Y-53372500D01*
X69505181Y-53372500D01*
X69652515Y-53372500D01*
X69854024Y-53372500D01*
X69854024Y-53023446D01*
X69948015Y-52880747D01*
X70139523Y-53372500D01*
X70356868Y-53372500D01*
X70130709Y-52811779D01*
X70429573Y-52811779D01*
X70430319Y-52827349D01*
X70435547Y-52936505D01*
X70452406Y-53042661D01*
X70479069Y-53133264D01*
X70517161Y-53214192D01*
X70564978Y-53280512D01*
X70623582Y-53333482D01*
X70688340Y-53371581D01*
X70754679Y-53394228D01*
X70823360Y-53401809D01*
X70906027Y-53391122D01*
X70979250Y-53360198D01*
X71044867Y-53309488D01*
X71104178Y-53237769D01*
X71152676Y-53151091D01*
X71187218Y-53054681D01*
X71202833Y-52974994D01*
X71369481Y-52974994D01*
X71373053Y-53078175D01*
X71382613Y-53157388D01*
X71396729Y-53217253D01*
X71418575Y-53271201D01*
X71447710Y-53316280D01*
X71484950Y-53353357D01*
X71526762Y-53379983D01*
X71572418Y-53396228D01*
X71622730Y-53401809D01*
X71671992Y-53395987D01*
X71719466Y-53378587D01*
X71765768Y-53349235D01*
X71808441Y-53309953D01*
X71844732Y-53263528D01*
X71875210Y-53209559D01*
X71875210Y-53372500D01*
X72062422Y-53372500D01*
X72062422Y-52282199D01*
X72188213Y-52282199D01*
X72188213Y-52510811D01*
X72280730Y-52510811D01*
X72280730Y-52989374D01*
X72282804Y-53130634D01*
X72287205Y-53194080D01*
X72298863Y-53260534D01*
X72315479Y-53307195D01*
X72340585Y-53343931D01*
X72379657Y-53375430D01*
X72425291Y-53394988D01*
X72477943Y-53401809D01*
X72536653Y-53396736D01*
X72589470Y-53382100D01*
X72637202Y-53358486D01*
X72620020Y-53133813D01*
X72569549Y-53155770D01*
X72538980Y-53161474D01*
X72520056Y-53157714D01*
X72504871Y-53147002D01*
X72493314Y-53130419D01*
X72486919Y-53110274D01*
X72483008Y-52953562D01*
X72483008Y-52510811D01*
X72620725Y-52510811D01*
X72620725Y-52282199D01*
X72483008Y-52282199D01*
X72483008Y-51901181D01*
X72280730Y-52071174D01*
X72280730Y-52282199D01*
X72188213Y-52282199D01*
X72062422Y-52282199D01*
X71860849Y-52282199D01*
X71860849Y-52742994D01*
X71855790Y-52956204D01*
X71845782Y-53037643D01*
X71824634Y-53092256D01*
X71789811Y-53138484D01*
X71746481Y-53168819D01*
X71697295Y-53179059D01*
X71654993Y-53171049D01*
X71622666Y-53148743D01*
X71597975Y-53113198D01*
X71582146Y-53066402D01*
X71574870Y-52992951D01*
X71571055Y-52784118D01*
X71571055Y-52282199D01*
X71369481Y-52282199D01*
X71369481Y-52974994D01*
X71202833Y-52974994D01*
X71208396Y-52946608D01*
X71215736Y-52824235D01*
X71208459Y-52702874D01*
X71187475Y-52595842D01*
X71153270Y-52500499D01*
X71105268Y-52414915D01*
X71046570Y-52344449D01*
X70980814Y-52294323D01*
X70906596Y-52263571D01*
X70821950Y-52252890D01*
X70748628Y-52261069D01*
X70681445Y-52284974D01*
X70619286Y-52324331D01*
X70563503Y-52378942D01*
X70517006Y-52447434D01*
X70479069Y-52531327D01*
X70451333Y-52623739D01*
X70435000Y-52716851D01*
X70429573Y-52811779D01*
X70130709Y-52811779D01*
X70077845Y-52680712D01*
X70338211Y-52282199D01*
X70090027Y-52282199D01*
X69854024Y-52666149D01*
X69854024Y-51866010D01*
X73062853Y-51866010D01*
X73438688Y-53372500D01*
X73665330Y-53372500D01*
X74079825Y-53372500D01*
X74786295Y-53372500D01*
X74786295Y-53102855D01*
X74386097Y-53102855D01*
X74427322Y-53023171D01*
X74548176Y-52857758D01*
X74635056Y-52738637D01*
X74680122Y-52666699D01*
X74729289Y-52565605D01*
X74760842Y-52475273D01*
X74779889Y-52381759D01*
X74786295Y-52282749D01*
X74780578Y-52196345D01*
X74763951Y-52119183D01*
X74736499Y-52049352D01*
X74697369Y-51985536D01*
X74650736Y-51934958D01*
X74595611Y-51897812D01*
X74530337Y-51874345D01*
X74452775Y-51866010D01*
X74382145Y-51873027D01*
X74319983Y-51893136D01*
X74264978Y-51925459D01*
X74216067Y-51969874D01*
X74175705Y-52026299D01*
X74143201Y-52099629D01*
X74118734Y-52193354D01*
X74103483Y-52312150D01*
X74304288Y-52340818D01*
X74312666Y-52258428D01*
X74327488Y-52200402D01*
X74347308Y-52160658D01*
X74374336Y-52131050D01*
X74407239Y-52112812D01*
X74447710Y-52106345D01*
X74488817Y-52112604D01*
X74521555Y-52130057D01*
X74547792Y-52158002D01*
X74567235Y-52195479D01*
X74579546Y-52243641D01*
X74584016Y-52305647D01*
X74579684Y-52361899D01*
X74566229Y-52420087D01*
X74542406Y-52481410D01*
X74496950Y-52557492D01*
X74375326Y-52726691D01*
X74264073Y-52882153D01*
X74191723Y-52999292D01*
X74148684Y-53085911D01*
X74115301Y-53178684D01*
X74092493Y-53273909D01*
X74079825Y-53372500D01*
X73665330Y-53372500D01*
X74041934Y-51866010D01*
X73816703Y-51866010D01*
X73559222Y-52979757D01*
X73293086Y-51866010D01*
X73062853Y-51866010D01*
X69854024Y-51866010D01*
X69652515Y-51866010D01*
X69652515Y-53372500D01*
X69505181Y-53372500D01*
X69482345Y-53294540D01*
X69468957Y-53225587D01*
X69462153Y-53147519D01*
X69459276Y-53012730D01*
X69461392Y-52674576D01*
X69457422Y-52547098D01*
X69447596Y-52464964D01*
X69434464Y-52415281D01*
X69413310Y-52372699D01*
X69382966Y-52333902D01*
X69341563Y-52298777D01*
X69296114Y-52275498D01*
X69231095Y-52259170D01*
X69140759Y-52252890D01*
X69064655Y-52258752D01*
X69003663Y-52274775D01*
X68955169Y-52299076D01*
X68916938Y-52330468D01*
X68873129Y-52389018D01*
X68837680Y-52467239D01*
X68810829Y-52569429D01*
X68993746Y-52616324D01*
X69016697Y-52546632D01*
X69042472Y-52506872D01*
X69076513Y-52484218D01*
X69126397Y-52475640D01*
X69179420Y-52480859D01*
X69213670Y-52493906D01*
X69234685Y-52512001D01*
X69249703Y-52539177D01*
X69259642Y-52578330D01*
X69263408Y-52633726D01*
X69263408Y-52663218D01*
X69197657Y-52693602D01*
X69067605Y-52734293D01*
X68969549Y-52768006D01*
X68907321Y-52801796D01*
X68872718Y-52831599D01*
X68844117Y-52868489D01*
X68820895Y-52912987D01*
X68803924Y-52963018D01*
X68793602Y-53017763D01*
X68791870Y-53047351D01*
X68790057Y-53078309D01*
X68666996Y-53078309D01*
X68668497Y-53073546D01*
X68467693Y-53026652D01*
X68446115Y-53098526D01*
X68418902Y-53142972D01*
X68383605Y-53169701D01*
X68339273Y-53179059D01*
X68295041Y-53171016D01*
X68256819Y-53147595D01*
X68223099Y-53108076D01*
X68197860Y-53056959D01*
X68181302Y-52991999D01*
X68174308Y-52909415D01*
X68679268Y-52909415D01*
X68676157Y-52770449D01*
X68664039Y-52654757D01*
X68644309Y-52558823D01*
X68617908Y-52479572D01*
X68585277Y-52414457D01*
X68532439Y-52344568D01*
X68471332Y-52294639D01*
X68400318Y-52263738D01*
X68317025Y-52252890D01*
X68243481Y-52262892D01*
X68178299Y-52291896D01*
X68119770Y-52339671D01*
X68066725Y-52407679D01*
X68025012Y-52488517D01*
X67994221Y-52584649D01*
X67974690Y-52699070D01*
X67972933Y-52733560D01*
X67967734Y-52835593D01*
X67652339Y-52835593D01*
X67653579Y-52777316D01*
X67664989Y-52665783D01*
X67686621Y-52587315D01*
X67711215Y-52544425D01*
X67743337Y-52519463D01*
X67782958Y-52510811D01*
X67826530Y-52521607D01*
X67877654Y-52557889D01*
X67940037Y-52307112D01*
X67896249Y-52276626D01*
X67852228Y-52258796D01*
X67807321Y-52252890D01*
X67760909Y-52262301D01*
X67720191Y-52290076D01*
X67683223Y-52339014D01*
X67633765Y-52436897D01*
X67633765Y-52282199D01*
X67446553Y-52282199D01*
X67223389Y-52282199D01*
X67225809Y-52244830D01*
X67222119Y-52181073D01*
X67211322Y-52122743D01*
X67193496Y-52068792D01*
X67156789Y-51997409D01*
X67112841Y-51943038D01*
X67061596Y-51904109D01*
X67003078Y-51880939D01*
X66933812Y-51870414D01*
X66816956Y-51866010D01*
X66396626Y-51866010D01*
X66396626Y-52463916D01*
X65539041Y-52463916D01*
X65539041Y-52118068D01*
X65850377Y-52118068D01*
X65850377Y-51866010D01*
X65014719Y-51866010D01*
X65014719Y-52118068D01*
X64821140Y-52118068D01*
X64815210Y-52103735D01*
X64775318Y-52033530D01*
X64728294Y-51973691D01*
X64675712Y-51927659D01*
X64616765Y-51894769D01*
X64540079Y-51874374D01*
X64416666Y-51866010D01*
X64028649Y-51866010D01*
X64028649Y-53120441D01*
X63261977Y-53120441D01*
X63261977Y-52803902D01*
X63400399Y-52803902D01*
X63536073Y-52797619D01*
X63620629Y-52782287D01*
X63675180Y-52756375D01*
X63730777Y-52710937D01*
X63764180Y-52671306D01*
X63793914Y-52622208D01*
X63820087Y-52562468D01*
X63838947Y-52497584D01*
X63850947Y-52420644D01*
X63855221Y-52329277D01*
X63847852Y-52212330D01*
X63827170Y-52115965D01*
X63794249Y-52036094D01*
X63749591Y-51968326D01*
X63699462Y-51919771D01*
X63642877Y-51888633D01*
X63567479Y-51873372D01*
X63390397Y-51866010D01*
X63049696Y-51866010D01*
X63049696Y-52551844D01*
X62698057Y-52551844D01*
X62739383Y-52513151D01*
X62781360Y-52455121D01*
X62810031Y-52393051D01*
X62827027Y-52325828D01*
X62832800Y-52251608D01*
X62828262Y-52184226D01*
X62814770Y-52120789D01*
X62791992Y-52060124D01*
X62758941Y-52001381D01*
X62711180Y-51942900D01*
X62656549Y-51901002D01*
X62593701Y-51875083D01*
X62520758Y-51866010D01*
X62463630Y-51871450D01*
X62411634Y-51887255D01*
X62364000Y-51912996D01*
X62320031Y-51948945D01*
X62284008Y-51991813D01*
X62255006Y-52041864D01*
X62232400Y-52098760D01*
X62212710Y-52170819D01*
X62196535Y-52260950D01*
X62382336Y-52305647D01*
X62391442Y-52242695D01*
X62406446Y-52194185D01*
X62426767Y-52157178D01*
X62452943Y-52128859D01*
X62482039Y-52112079D01*
X62515052Y-52106345D01*
X62548637Y-52111672D01*
X62576140Y-52126734D01*
X62598913Y-52151224D01*
X62616141Y-52183622D01*
X62626757Y-52223010D01*
X62630521Y-52271392D01*
X62625526Y-52327691D01*
X62611225Y-52374307D01*
X62587436Y-52413541D01*
X62556596Y-52441555D01*
X62515992Y-52458953D01*
X62462671Y-52463916D01*
X62440423Y-52696466D01*
X62492686Y-52679813D01*
X62532940Y-52674942D01*
X62570240Y-52682041D01*
X62603062Y-52702922D01*
X62632636Y-52738598D01*
X62654728Y-52784245D01*
X62668578Y-52840736D01*
X62673541Y-52911064D01*
X62668360Y-52985422D01*
X62653897Y-53045294D01*
X62630841Y-53093788D01*
X62599883Y-53131695D01*
X62565302Y-53153907D01*
X62525759Y-53161474D01*
X62488731Y-53154871D01*
X62456116Y-53135523D01*
X62426767Y-53102764D01*
X62403980Y-53060155D01*
X62387028Y-53004599D01*
X62376566Y-52932862D01*
X62181468Y-52968125D01*
X61446386Y-52968125D01*
X61450446Y-52777316D01*
X61461855Y-52665783D01*
X61483488Y-52587315D01*
X61508081Y-52544425D01*
X61540204Y-52519463D01*
X61579825Y-52510811D01*
X61623397Y-52521607D01*
X61674521Y-52557889D01*
X61736903Y-52307112D01*
X61693115Y-52276626D01*
X61649094Y-52258796D01*
X61604188Y-52252890D01*
X61557776Y-52262301D01*
X61517057Y-52290076D01*
X61480089Y-52339014D01*
X61430632Y-52436897D01*
X61430632Y-52282199D01*
X61243420Y-52282199D01*
X60851676Y-52282199D01*
X60809250Y-52263738D01*
X60725958Y-52252890D01*
X60652413Y-52262892D01*
X60587231Y-52291896D01*
X60528702Y-52339671D01*
X60475658Y-52407679D01*
X60433944Y-52488517D01*
X60403154Y-52584649D01*
X60383622Y-52699070D01*
X60381865Y-52733560D01*
X60376666Y-52835593D01*
X60157782Y-52835593D01*
X60157782Y-52510811D01*
X60295498Y-52510811D01*
X60295498Y-52282199D01*
X60157782Y-52282199D01*
X60157782Y-51901181D01*
X59955503Y-52071174D01*
X59955503Y-52282199D01*
X59862987Y-52282199D01*
X59823870Y-52282199D01*
X59815865Y-52276626D01*
X59771844Y-52258796D01*
X59726937Y-52252890D01*
X59680525Y-52262301D01*
X59639807Y-52290076D01*
X59602839Y-52339014D01*
X59553381Y-52436897D01*
X59553381Y-52282199D01*
X59366169Y-52282199D01*
X58974425Y-52282199D01*
X58931999Y-52263738D01*
X58848707Y-52252890D01*
X58775162Y-52262892D01*
X58709981Y-52291896D01*
X58651451Y-52339671D01*
X58598407Y-52407679D01*
X58556693Y-52488517D01*
X58525903Y-52584649D01*
X58506372Y-52699070D01*
X58504614Y-52733560D01*
X58499415Y-52835593D01*
X58281673Y-52835593D01*
X58435302Y-52282199D01*
X58228022Y-52282199D01*
X58083125Y-52838615D01*
X58061583Y-52931031D01*
X58040810Y-53024453D01*
X57999200Y-52838615D01*
X57855713Y-52282199D01*
X57644138Y-52282199D01*
X57391162Y-52282199D01*
X57345500Y-52261739D01*
X57280934Y-52252890D01*
X57222538Y-52260433D01*
X57169157Y-52282546D01*
X57119714Y-52319273D01*
X57073425Y-52371730D01*
X57029864Y-52442026D01*
X57029864Y-52282199D01*
X56842652Y-52282199D01*
X56421839Y-52282199D01*
X56376882Y-52263571D01*
X56292236Y-52252890D01*
X56218914Y-52261069D01*
X56151731Y-52284974D01*
X56089572Y-52324331D01*
X56033789Y-52378942D01*
X55987292Y-52447434D01*
X55949355Y-52531327D01*
X55921619Y-52623739D01*
X55905286Y-52716851D01*
X55899859Y-52811779D01*
X55081666Y-52811779D01*
X55074373Y-52757757D01*
X55068689Y-52610004D01*
X55074330Y-52471698D01*
X55089540Y-52364586D01*
X55112302Y-52282613D01*
X55141458Y-52220742D01*
X55180717Y-52168036D01*
X55224706Y-52130938D01*
X55274394Y-52108322D01*
X55331235Y-52100483D01*
X55385982Y-52108350D01*
X55433409Y-52130999D01*
X55475042Y-52168169D01*
X55509597Y-52217975D01*
X55535478Y-52278735D01*
X55552876Y-52352541D01*
X55763041Y-52282199D01*
X55733489Y-52166044D01*
X55697441Y-52075247D01*
X55655458Y-52005503D01*
X55592045Y-51935437D01*
X55519869Y-51884897D01*
X55437260Y-51853536D01*
X55342006Y-51842562D01*
X55254159Y-51851463D01*
X55175933Y-51877108D01*
X55105823Y-51918592D01*
X55042619Y-51975940D01*
X54985469Y-52050108D01*
X54938687Y-52135360D01*
X54901414Y-52233969D01*
X54873687Y-52347936D01*
X54856133Y-52479799D01*
X54849933Y-52632535D01*
X54293886Y-52632535D01*
X54278726Y-52558823D01*
X54252326Y-52479572D01*
X54219695Y-52414457D01*
X54166857Y-52344568D01*
X54105750Y-52294639D01*
X54034735Y-52263738D01*
X53951443Y-52252890D01*
X53877898Y-52262892D01*
X53812716Y-52291896D01*
X53754187Y-52339671D01*
X53701143Y-52407679D01*
X53659429Y-52488517D01*
X53628639Y-52584649D01*
X53609107Y-52699070D01*
X53607350Y-52733560D01*
X53602151Y-52835593D01*
X53384408Y-52835593D01*
X53538037Y-52282199D01*
X53330758Y-52282199D01*
X53185860Y-52838615D01*
X53164318Y-52931031D01*
X53143545Y-53024453D01*
X53101936Y-52838615D01*
X52958449Y-52282199D01*
X52746874Y-52282199D01*
X52637688Y-52282199D01*
X52436178Y-52282199D01*
X52436178Y-53372500D01*
X52284304Y-53372500D01*
X52312631Y-53358486D01*
X52295449Y-53133813D01*
X52244978Y-53155770D01*
X52214409Y-53161474D01*
X52195485Y-53157714D01*
X52180300Y-53147002D01*
X52168743Y-53130419D01*
X52162349Y-53110274D01*
X52158438Y-52953562D01*
X52158438Y-52510811D01*
X52296154Y-52510811D01*
X52296154Y-52282199D01*
X52158438Y-52282199D01*
X52158438Y-52129792D01*
X52436178Y-52129792D01*
X52637688Y-52129792D01*
X52637688Y-51866010D01*
X52436178Y-51866010D01*
X52436178Y-52129792D01*
X52158438Y-52129792D01*
X52158438Y-51901181D01*
X51956159Y-52071174D01*
X51956159Y-52282199D01*
X51863643Y-52282199D01*
X51596364Y-52282199D01*
X51583281Y-52275498D01*
X51518262Y-52259170D01*
X51427926Y-52252890D01*
X51351821Y-52258752D01*
X51290830Y-52274775D01*
X51242336Y-52299076D01*
X51204105Y-52330468D01*
X51160296Y-52389018D01*
X51124846Y-52467239D01*
X51097996Y-52569429D01*
X51280913Y-52616324D01*
X51303864Y-52546632D01*
X51329639Y-52506872D01*
X51363679Y-52484218D01*
X51413564Y-52475640D01*
X51466587Y-52480859D01*
X51500837Y-52493906D01*
X51521852Y-52512001D01*
X51536870Y-52539177D01*
X51546809Y-52578330D01*
X51550575Y-52633726D01*
X51550575Y-52663218D01*
X51484824Y-52693602D01*
X51354772Y-52734293D01*
X51256716Y-52768006D01*
X51194487Y-52801796D01*
X51159885Y-52831599D01*
X51131283Y-52868489D01*
X51108062Y-52912987D01*
X51091090Y-52963018D01*
X51080768Y-53017763D01*
X51079036Y-53047351D01*
X51077223Y-53078309D01*
X50930595Y-53078309D01*
X50930595Y-52282199D01*
X50741973Y-52282199D01*
X50741973Y-52432134D01*
X50691241Y-52351496D01*
X50636295Y-52296562D01*
X50576106Y-52263986D01*
X50508855Y-52252890D01*
X50442485Y-52262168D01*
X50383080Y-52289209D01*
X50329138Y-52334032D01*
X50279648Y-52398245D01*
X50241352Y-52473945D01*
X50212652Y-52566769D01*
X50194176Y-52680280D01*
X50188296Y-52802711D01*
X50187517Y-52818923D01*
X50066816Y-52818923D01*
X50065731Y-52770449D01*
X50053613Y-52654757D01*
X50033883Y-52558823D01*
X50007483Y-52479572D01*
X49974852Y-52414457D01*
X49922014Y-52344568D01*
X49860907Y-52294639D01*
X49789892Y-52263738D01*
X49706600Y-52252890D01*
X49633055Y-52262892D01*
X49567873Y-52291896D01*
X49509344Y-52339671D01*
X49456300Y-52407679D01*
X49414586Y-52488517D01*
X49383796Y-52584649D01*
X49364264Y-52699070D01*
X49362507Y-52733560D01*
X49357308Y-52835593D01*
X49193241Y-52835593D01*
X49193241Y-51866010D01*
X48995963Y-51866010D01*
X48995963Y-52874519D01*
X48565631Y-51866010D01*
X48359057Y-51866010D01*
X48359057Y-53372500D01*
X48192390Y-53372500D01*
X48192390Y-51675895D01*
X74952962Y-51675895D01*
X74952962Y-53984665D01*
G37*
G36*
X57669352Y-61525545D02*
G01*
X57730730Y-61550354D01*
X57783702Y-61590476D01*
X57829658Y-61646660D01*
X57864205Y-61713647D01*
X57890938Y-61801031D01*
X57908666Y-61913735D01*
X57915204Y-62057721D01*
X57908485Y-62232300D01*
X57890770Y-62361539D01*
X57865052Y-62455084D01*
X57833230Y-62521050D01*
X57789020Y-62576538D01*
X57736869Y-62616442D01*
X57675187Y-62641332D01*
X57601688Y-62650132D01*
X57530528Y-62641329D01*
X57469700Y-62616207D01*
X57417187Y-62575510D01*
X57371611Y-62518363D01*
X57337922Y-62450608D01*
X57311462Y-62359892D01*
X57293689Y-62240321D01*
X57287073Y-62084832D01*
X57293744Y-61927859D01*
X57311640Y-61807482D01*
X57338244Y-61716457D01*
X57372069Y-61648736D01*
X57417944Y-61591161D01*
X57469903Y-61550456D01*
X57529171Y-61525524D01*
X57597567Y-61516845D01*
X57669352Y-61525545D01*
G37*
G36*
X56034728Y-62251281D02*
G01*
X56089139Y-62270539D01*
X56124324Y-62297812D01*
X56151353Y-62337607D01*
X56167457Y-62384510D01*
X56173051Y-62440816D01*
X56167319Y-62501646D01*
X56150966Y-62551637D01*
X56123866Y-62593346D01*
X56088200Y-62622189D01*
X56034115Y-62642294D01*
X55954789Y-62650132D01*
X55718118Y-62650132D01*
X55718118Y-62243712D01*
X55953782Y-62243712D01*
X56034728Y-62251281D01*
G37*
G36*
X55992993Y-61492341D02*
G01*
X56040289Y-61509597D01*
X56071110Y-61534187D01*
X56094371Y-61570033D01*
X56108574Y-61614170D01*
X56113608Y-61669131D01*
X56108456Y-61728632D01*
X56094138Y-61775074D01*
X56071110Y-61811524D01*
X56040195Y-61836326D01*
X55992046Y-61853842D01*
X55919985Y-61860739D01*
X55718118Y-61860739D01*
X55718118Y-61485582D01*
X55923007Y-61485582D01*
X55992993Y-61492341D01*
G37*
G36*
X60226069Y-63333485D02*
G01*
X55027591Y-63333485D01*
X55027591Y-61860739D01*
X55249813Y-61860739D01*
X55249813Y-62650132D01*
X55249813Y-63080000D01*
X56051143Y-63080000D01*
X56259146Y-63052644D01*
X56368614Y-63023465D01*
X56435368Y-62986943D01*
X56493959Y-62932666D01*
X56543226Y-62867353D01*
X56583928Y-62790083D01*
X56613851Y-62704501D01*
X56632019Y-62611598D01*
X56638242Y-62509692D01*
X56629198Y-62385612D01*
X56603484Y-62280920D01*
X56561855Y-62191688D01*
X56504951Y-62119026D01*
X56455534Y-62080924D01*
X56822889Y-62080924D01*
X56823048Y-62084832D01*
X56830071Y-62257074D01*
X56850490Y-62410956D01*
X56882843Y-62545551D01*
X56926387Y-62663443D01*
X56983419Y-62774265D01*
X57047198Y-62866872D01*
X57117983Y-62943008D01*
X57196398Y-63003796D01*
X57310273Y-63060944D01*
X57448835Y-63097925D01*
X57616984Y-63111263D01*
X57743141Y-63102597D01*
X57844371Y-63080000D01*
X58370595Y-63080000D01*
X58889001Y-63080000D01*
X59186214Y-62437152D01*
X59482328Y-63080000D01*
X60003847Y-63080000D01*
X59492586Y-62048196D01*
X59959792Y-61079162D01*
X59453660Y-61079162D01*
X59195464Y-61694654D01*
X58929026Y-61079162D01*
X58417673Y-61079162D01*
X58889001Y-62037327D01*
X58370595Y-63080000D01*
X57844371Y-63080000D01*
X57853461Y-63077971D01*
X57949996Y-63039005D01*
X58034548Y-62986699D01*
X58113938Y-62917681D01*
X58182571Y-62837079D01*
X58241337Y-62744311D01*
X58290728Y-62638286D01*
X58327542Y-62525969D01*
X58355323Y-62394918D01*
X58373082Y-62242212D01*
X58379388Y-62064560D01*
X58370238Y-61869602D01*
X58344259Y-61700721D01*
X58303019Y-61554067D01*
X58247191Y-61426421D01*
X58176514Y-61315345D01*
X58092669Y-61222878D01*
X57995291Y-61149368D01*
X57882330Y-61094734D01*
X57751138Y-61060134D01*
X57598574Y-61047899D01*
X57450541Y-61060160D01*
X57322065Y-61095000D01*
X57210283Y-61150336D01*
X57112797Y-61225263D01*
X57027779Y-61320108D01*
X56956411Y-61433075D01*
X56900023Y-61562802D01*
X56858368Y-61711753D01*
X56832128Y-61883170D01*
X56822889Y-62080924D01*
X56455534Y-62080924D01*
X56427256Y-62059121D01*
X56323718Y-62013147D01*
X56392234Y-61974395D01*
X56445356Y-61929744D01*
X56485651Y-61879668D01*
X56531602Y-61790094D01*
X56559160Y-61689960D01*
X56568633Y-61576074D01*
X56561203Y-61473763D01*
X56539547Y-61382068D01*
X56503665Y-61298717D01*
X56452312Y-61222166D01*
X56391577Y-61162469D01*
X56317657Y-61117951D01*
X56227847Y-61089415D01*
X56118737Y-61079162D01*
X55249813Y-61079162D01*
X55249813Y-61860739D01*
X55027591Y-61860739D01*
X55027591Y-60825677D01*
X60226069Y-60825677D01*
X60226069Y-63333485D01*
G37*
G36*
X82180514Y-62866176D02*
G01*
X82216889Y-62879804D01*
X82246222Y-62901426D01*
X82266898Y-62930362D01*
X82277802Y-62970496D01*
X82282896Y-63058248D01*
X82282896Y-63146761D01*
X81993712Y-63146761D01*
X81993712Y-63068603D01*
X81995938Y-62988403D01*
X82000673Y-62952197D01*
X82009825Y-62927275D01*
X82024799Y-62905793D01*
X82045858Y-62887180D01*
X82071582Y-62873123D01*
X82101770Y-62864507D01*
X82137632Y-62861486D01*
X82180514Y-62866176D01*
G37*
G36*
X82435303Y-62438897D02*
G01*
X82060146Y-62330697D01*
X82435303Y-62220299D01*
X82435303Y-62438897D01*
G37*
G36*
X82162912Y-61352002D02*
G01*
X82196189Y-61364081D01*
X82222054Y-61383474D01*
X82239176Y-61409413D01*
X82247425Y-61449018D01*
X82251632Y-61554786D01*
X82251632Y-61674465D01*
X81993712Y-61674465D01*
X81993712Y-61548241D01*
X81997192Y-61430174D01*
X82011782Y-61394573D01*
X82037065Y-61369259D01*
X82059468Y-61357572D01*
X82086666Y-61350270D01*
X82119924Y-61347668D01*
X82162912Y-61352002D01*
G37*
G36*
X82960650Y-64207000D02*
G01*
X81698930Y-64207000D01*
X81698930Y-63774563D01*
X81810041Y-63774563D01*
X81814312Y-63835679D01*
X81826325Y-63887784D01*
X81845151Y-63932197D01*
X81872755Y-63973101D01*
X81906753Y-64006117D01*
X81947428Y-64032239D01*
X81993691Y-64051645D01*
X82041472Y-64063091D01*
X82091592Y-64066922D01*
X82149430Y-64062275D01*
X82201782Y-64048656D01*
X82249916Y-64025931D01*
X82294680Y-63993160D01*
X82328170Y-63955265D01*
X82361872Y-63896653D01*
X82394881Y-63810613D01*
X82439333Y-63681116D01*
X82460653Y-63643724D01*
X82482076Y-63622888D01*
X82508917Y-63610484D01*
X82541610Y-63606231D01*
X82575725Y-63610449D01*
X82607092Y-63623211D01*
X82636864Y-63645847D01*
X82658212Y-63674132D01*
X82672326Y-63712394D01*
X82677592Y-63763621D01*
X82672033Y-63811551D01*
X82656595Y-63849964D01*
X82632224Y-63880857D01*
X82598410Y-63905372D01*
X82552095Y-63924775D01*
X82490013Y-63938499D01*
X82509553Y-64095889D01*
X82591537Y-64083022D01*
X82659641Y-64062233D01*
X82716138Y-64034121D01*
X82762711Y-63998631D01*
X82798712Y-63956485D01*
X82825790Y-63904906D01*
X82843247Y-63841963D01*
X82849539Y-63765282D01*
X82844997Y-63695989D01*
X82832394Y-63638485D01*
X82812964Y-63590941D01*
X82783801Y-63547291D01*
X82746677Y-63511539D01*
X82701100Y-63482742D01*
X82649248Y-63461347D01*
X82595732Y-63448719D01*
X82539656Y-63444493D01*
X82477353Y-63448344D01*
X82424673Y-63459214D01*
X82379921Y-63476489D01*
X82340069Y-63500370D01*
X82306224Y-63529678D01*
X82278011Y-63565003D01*
X82244167Y-63629863D01*
X82205287Y-63739587D01*
X82177694Y-63819481D01*
X82155373Y-63865214D01*
X82137693Y-63888234D01*
X82109382Y-63906412D01*
X82076693Y-63912267D01*
X82052306Y-63909380D01*
X82031888Y-63900977D01*
X82014412Y-63886573D01*
X81995182Y-63858525D01*
X81982668Y-63822433D01*
X81978080Y-63776175D01*
X81982488Y-63731288D01*
X81994234Y-63698043D01*
X82011847Y-63673740D01*
X82037315Y-63654640D01*
X82073265Y-63639615D01*
X82122672Y-63629190D01*
X82114856Y-63467403D01*
X82047213Y-63474154D01*
X81988752Y-63489812D01*
X81937783Y-63514083D01*
X81893145Y-63547466D01*
X81859002Y-63586944D01*
X81833071Y-63636419D01*
X81816181Y-63698070D01*
X81810041Y-63774563D01*
X81698930Y-63774563D01*
X81698930Y-63048917D01*
X81825673Y-63048917D01*
X81825673Y-63068603D01*
X81825673Y-63308499D01*
X82830000Y-63308499D01*
X82830000Y-63146761D01*
X82450935Y-63146761D01*
X82450935Y-63041297D01*
X82446746Y-62937926D01*
X82436524Y-62873502D01*
X82419250Y-62831940D01*
X82388958Y-62789580D01*
X82362537Y-62764131D01*
X82329805Y-62741475D01*
X82289979Y-62721534D01*
X82246722Y-62707165D01*
X82195429Y-62698022D01*
X82134518Y-62694765D01*
X82056553Y-62700380D01*
X81992310Y-62716138D01*
X81939063Y-62741220D01*
X81893884Y-62775245D01*
X81861514Y-62813439D01*
X81840755Y-62856552D01*
X81830581Y-62913997D01*
X81825673Y-63048917D01*
X81698930Y-63048917D01*
X81698930Y-62243258D01*
X81825673Y-62243258D01*
X81825673Y-62330697D01*
X81825673Y-62414326D01*
X82830000Y-62726370D01*
X82830000Y-62554765D01*
X82603342Y-62488624D01*
X82603342Y-62168422D01*
X82830000Y-62098471D01*
X82830000Y-61922469D01*
X81825673Y-62243258D01*
X81698930Y-62243258D01*
X81698930Y-61495777D01*
X81825673Y-61495777D01*
X81825673Y-61548241D01*
X81825673Y-61836252D01*
X82830000Y-61836252D01*
X82830000Y-61674465D01*
X82411856Y-61674465D01*
X82411856Y-61641688D01*
X82415230Y-61589738D01*
X82423152Y-61560257D01*
X82438630Y-61535877D01*
X82464734Y-61511604D01*
X82506484Y-61484774D01*
X82611769Y-61426363D01*
X82830000Y-61309420D01*
X82830000Y-61115980D01*
X82634605Y-61213774D01*
X82527770Y-61270204D01*
X82472001Y-61305903D01*
X82429120Y-61343563D01*
X82387920Y-61392511D01*
X82373810Y-61340063D01*
X82353246Y-61297136D01*
X82326900Y-61262197D01*
X82294924Y-61234047D01*
X82256254Y-61211174D01*
X82212826Y-61194713D01*
X82163744Y-61184540D01*
X82107834Y-61180997D01*
X82049599Y-61185017D01*
X81997109Y-61196718D01*
X81949260Y-61215973D01*
X81907234Y-61242243D01*
X81875411Y-61273115D01*
X81852784Y-61309176D01*
X81839276Y-61349087D01*
X81829501Y-61409180D01*
X81825673Y-61495777D01*
X81698930Y-61495777D01*
X81698930Y-60434591D01*
X81825673Y-60434591D01*
X81825673Y-61028638D01*
X82830000Y-61028638D01*
X82830000Y-60419301D01*
X82661960Y-60419301D01*
X82661960Y-60866901D01*
X82384501Y-60866901D01*
X82384501Y-60464682D01*
X82216461Y-60464682D01*
X82216461Y-60866901D01*
X81993712Y-60866901D01*
X81993712Y-60434591D01*
X81825673Y-60434591D01*
X81698930Y-60434591D01*
X81698930Y-60308190D01*
X82960650Y-60308190D01*
X82960650Y-64207000D01*
G37*
D11*
X77107143Y-69454819D02*
X77107143Y-68454819D01*
X77464286Y-69454819D02*
X77464286Y-68454819D01*
X77464286Y-68454819D02*
X77892857Y-69454819D01*
X77892857Y-69454819D02*
X77892857Y-68454819D01*
X84073866Y-64464285D02*
X84073866Y-63892857D01*
X84454819Y-64178571D02*
X83692914Y-64178571D01*
X84454819Y-63500000D02*
X84454819Y-63357143D01*
X84454819Y-63357143D02*
X84407200Y-63285714D01*
X84407200Y-63285714D02*
X84359580Y-63250000D01*
X84359580Y-63250000D02*
X84216723Y-63178571D01*
X84216723Y-63178571D02*
X84026247Y-63142857D01*
X84026247Y-63142857D02*
X83645295Y-63142857D01*
X83645295Y-63142857D02*
X83550057Y-63178571D01*
X83550057Y-63178571D02*
X83502438Y-63214286D01*
X83502438Y-63214286D02*
X83454819Y-63285714D01*
X83454819Y-63285714D02*
X83454819Y-63428571D01*
X83454819Y-63428571D02*
X83502438Y-63500000D01*
X83502438Y-63500000D02*
X83550057Y-63535714D01*
X83550057Y-63535714D02*
X83645295Y-63571428D01*
X83645295Y-63571428D02*
X83883390Y-63571428D01*
X83883390Y-63571428D02*
X83978628Y-63535714D01*
X83978628Y-63535714D02*
X84026247Y-63500000D01*
X84026247Y-63500000D02*
X84073866Y-63428571D01*
X84073866Y-63428571D02*
X84073866Y-63285714D01*
X84073866Y-63285714D02*
X84026247Y-63214286D01*
X84026247Y-63214286D02*
X83978628Y-63178571D01*
X83978628Y-63178571D02*
X83883390Y-63142857D01*
X83454819Y-62928571D02*
X84454819Y-62678571D01*
X84454819Y-62678571D02*
X83454819Y-62428571D01*
X68303571Y-69454819D02*
X68053571Y-68978628D01*
X67875000Y-69454819D02*
X67875000Y-68454819D01*
X67875000Y-68454819D02*
X68160714Y-68454819D01*
X68160714Y-68454819D02*
X68232143Y-68502438D01*
X68232143Y-68502438D02*
X68267857Y-68550057D01*
X68267857Y-68550057D02*
X68303571Y-68645295D01*
X68303571Y-68645295D02*
X68303571Y-68788152D01*
X68303571Y-68788152D02*
X68267857Y-68883390D01*
X68267857Y-68883390D02*
X68232143Y-68931009D01*
X68232143Y-68931009D02*
X68160714Y-68978628D01*
X68160714Y-68978628D02*
X67875000Y-68978628D01*
X68517857Y-68454819D02*
X68946429Y-68454819D01*
X68732143Y-69454819D02*
X68732143Y-68454819D01*
X69196429Y-69454819D02*
X69196429Y-68454819D01*
X69196429Y-68454819D02*
X69625000Y-69454819D01*
X69625000Y-69454819D02*
X69625000Y-68454819D01*
X83454819Y-53261904D02*
X83454819Y-52690476D01*
X84454819Y-52976190D02*
X83454819Y-52976190D01*
X83550057Y-52404761D02*
X83502438Y-52357142D01*
X83502438Y-52357142D02*
X83454819Y-52261904D01*
X83454819Y-52261904D02*
X83454819Y-52023809D01*
X83454819Y-52023809D02*
X83502438Y-51928571D01*
X83502438Y-51928571D02*
X83550057Y-51880952D01*
X83550057Y-51880952D02*
X83645295Y-51833333D01*
X83645295Y-51833333D02*
X83740533Y-51833333D01*
X83740533Y-51833333D02*
X83883390Y-51880952D01*
X83883390Y-51880952D02*
X84454819Y-52452380D01*
X84454819Y-52452380D02*
X84454819Y-51833333D01*
X83502438Y-61571428D02*
X83454819Y-61642857D01*
X83454819Y-61642857D02*
X83454819Y-61749999D01*
X83454819Y-61749999D02*
X83502438Y-61857142D01*
X83502438Y-61857142D02*
X83597676Y-61928571D01*
X83597676Y-61928571D02*
X83692914Y-61964285D01*
X83692914Y-61964285D02*
X83883390Y-61999999D01*
X83883390Y-61999999D02*
X84026247Y-61999999D01*
X84026247Y-61999999D02*
X84216723Y-61964285D01*
X84216723Y-61964285D02*
X84311961Y-61928571D01*
X84311961Y-61928571D02*
X84407200Y-61857142D01*
X84407200Y-61857142D02*
X84454819Y-61749999D01*
X84454819Y-61749999D02*
X84454819Y-61678571D01*
X84454819Y-61678571D02*
X84407200Y-61571428D01*
X84407200Y-61571428D02*
X84359580Y-61535714D01*
X84359580Y-61535714D02*
X84026247Y-61535714D01*
X84026247Y-61535714D02*
X84026247Y-61678571D01*
X84454819Y-61214285D02*
X83454819Y-61214285D01*
X83454819Y-61214285D02*
X84454819Y-60785714D01*
X84454819Y-60785714D02*
X83454819Y-60785714D01*
X84454819Y-60428571D02*
X83454819Y-60428571D01*
X83454819Y-60428571D02*
X83454819Y-60250000D01*
X83454819Y-60250000D02*
X83502438Y-60142857D01*
X83502438Y-60142857D02*
X83597676Y-60071428D01*
X83597676Y-60071428D02*
X83692914Y-60035714D01*
X83692914Y-60035714D02*
X83883390Y-60000000D01*
X83883390Y-60000000D02*
X84026247Y-60000000D01*
X84026247Y-60000000D02*
X84216723Y-60035714D01*
X84216723Y-60035714D02*
X84311961Y-60071428D01*
X84311961Y-60071428D02*
X84407200Y-60142857D01*
X84407200Y-60142857D02*
X84454819Y-60250000D01*
X84454819Y-60250000D02*
X84454819Y-60428571D01*
X50928571Y-68502438D02*
X50857143Y-68454819D01*
X50857143Y-68454819D02*
X50750000Y-68454819D01*
X50750000Y-68454819D02*
X50642857Y-68502438D01*
X50642857Y-68502438D02*
X50571428Y-68597676D01*
X50571428Y-68597676D02*
X50535714Y-68692914D01*
X50535714Y-68692914D02*
X50500000Y-68883390D01*
X50500000Y-68883390D02*
X50500000Y-69026247D01*
X50500000Y-69026247D02*
X50535714Y-69216723D01*
X50535714Y-69216723D02*
X50571428Y-69311961D01*
X50571428Y-69311961D02*
X50642857Y-69407200D01*
X50642857Y-69407200D02*
X50750000Y-69454819D01*
X50750000Y-69454819D02*
X50821428Y-69454819D01*
X50821428Y-69454819D02*
X50928571Y-69407200D01*
X50928571Y-69407200D02*
X50964285Y-69359580D01*
X50964285Y-69359580D02*
X50964285Y-69026247D01*
X50964285Y-69026247D02*
X50821428Y-69026247D01*
X51285714Y-69454819D02*
X51285714Y-68454819D01*
X51285714Y-68454819D02*
X51714285Y-69454819D01*
X51714285Y-69454819D02*
X51714285Y-68454819D01*
X52071428Y-69454819D02*
X52071428Y-68454819D01*
X52071428Y-68454819D02*
X52249999Y-68454819D01*
X52249999Y-68454819D02*
X52357142Y-68502438D01*
X52357142Y-68502438D02*
X52428571Y-68597676D01*
X52428571Y-68597676D02*
X52464285Y-68692914D01*
X52464285Y-68692914D02*
X52499999Y-68883390D01*
X52499999Y-68883390D02*
X52499999Y-69026247D01*
X52499999Y-69026247D02*
X52464285Y-69216723D01*
X52464285Y-69216723D02*
X52428571Y-69311961D01*
X52428571Y-69311961D02*
X52357142Y-69407200D01*
X52357142Y-69407200D02*
X52249999Y-69454819D01*
X52249999Y-69454819D02*
X52071428Y-69454819D01*
X55454819Y-56166666D02*
X54978628Y-56499999D01*
X55454819Y-56738094D02*
X54454819Y-56738094D01*
X54454819Y-56738094D02*
X54454819Y-56357142D01*
X54454819Y-56357142D02*
X54502438Y-56261904D01*
X54502438Y-56261904D02*
X54550057Y-56214285D01*
X54550057Y-56214285D02*
X54645295Y-56166666D01*
X54645295Y-56166666D02*
X54788152Y-56166666D01*
X54788152Y-56166666D02*
X54883390Y-56214285D01*
X54883390Y-56214285D02*
X54931009Y-56261904D01*
X54931009Y-56261904D02*
X54978628Y-56357142D01*
X54978628Y-56357142D02*
X54978628Y-56738094D01*
X55454819Y-55214285D02*
X55454819Y-55785713D01*
X55454819Y-55499999D02*
X54454819Y-55499999D01*
X54454819Y-55499999D02*
X54597676Y-55595237D01*
X54597676Y-55595237D02*
X54692914Y-55690475D01*
X54692914Y-55690475D02*
X54740533Y-55785713D01*
X48250000Y-68454819D02*
X48392857Y-68454819D01*
X48392857Y-68454819D02*
X48464286Y-68502438D01*
X48464286Y-68502438D02*
X48535714Y-68597676D01*
X48535714Y-68597676D02*
X48571429Y-68788152D01*
X48571429Y-68788152D02*
X48571429Y-69121485D01*
X48571429Y-69121485D02*
X48535714Y-69311961D01*
X48535714Y-69311961D02*
X48464286Y-69407200D01*
X48464286Y-69407200D02*
X48392857Y-69454819D01*
X48392857Y-69454819D02*
X48250000Y-69454819D01*
X48250000Y-69454819D02*
X48178572Y-69407200D01*
X48178572Y-69407200D02*
X48107143Y-69311961D01*
X48107143Y-69311961D02*
X48071429Y-69121485D01*
X48071429Y-69121485D02*
X48071429Y-68788152D01*
X48071429Y-68788152D02*
X48107143Y-68597676D01*
X48107143Y-68597676D02*
X48178572Y-68502438D01*
X48178572Y-68502438D02*
X48250000Y-68454819D01*
X48892857Y-68454819D02*
X48892857Y-69264342D01*
X48892857Y-69264342D02*
X48928571Y-69359580D01*
X48928571Y-69359580D02*
X48964286Y-69407200D01*
X48964286Y-69407200D02*
X49035714Y-69454819D01*
X49035714Y-69454819D02*
X49178571Y-69454819D01*
X49178571Y-69454819D02*
X49250000Y-69407200D01*
X49250000Y-69407200D02*
X49285714Y-69359580D01*
X49285714Y-69359580D02*
X49321428Y-69264342D01*
X49321428Y-69264342D02*
X49321428Y-68454819D01*
X49571428Y-68454819D02*
X50000000Y-68454819D01*
X49785714Y-69454819D02*
X49785714Y-68454819D01*
X83454819Y-58261904D02*
X83454819Y-57690476D01*
X84454819Y-57976190D02*
X83454819Y-57976190D01*
X84454819Y-56833333D02*
X84454819Y-57404761D01*
X84454819Y-57119047D02*
X83454819Y-57119047D01*
X83454819Y-57119047D02*
X83597676Y-57214285D01*
X83597676Y-57214285D02*
X83692914Y-57309523D01*
X83692914Y-57309523D02*
X83740533Y-57404761D01*
X84454819Y-55261904D02*
X83454819Y-55261904D01*
X83454819Y-55261904D02*
X83454819Y-54880952D01*
X83454819Y-54880952D02*
X83502438Y-54785714D01*
X83502438Y-54785714D02*
X83550057Y-54738095D01*
X83550057Y-54738095D02*
X83645295Y-54690476D01*
X83645295Y-54690476D02*
X83788152Y-54690476D01*
X83788152Y-54690476D02*
X83883390Y-54738095D01*
X83883390Y-54738095D02*
X83931009Y-54785714D01*
X83931009Y-54785714D02*
X83978628Y-54880952D01*
X83978628Y-54880952D02*
X83978628Y-55261904D01*
X85428571Y-68502438D02*
X85357143Y-68454819D01*
X85357143Y-68454819D02*
X85250000Y-68454819D01*
X85250000Y-68454819D02*
X85142857Y-68502438D01*
X85142857Y-68502438D02*
X85071428Y-68597676D01*
X85071428Y-68597676D02*
X85035714Y-68692914D01*
X85035714Y-68692914D02*
X85000000Y-68883390D01*
X85000000Y-68883390D02*
X85000000Y-69026247D01*
X85000000Y-69026247D02*
X85035714Y-69216723D01*
X85035714Y-69216723D02*
X85071428Y-69311961D01*
X85071428Y-69311961D02*
X85142857Y-69407200D01*
X85142857Y-69407200D02*
X85250000Y-69454819D01*
X85250000Y-69454819D02*
X85321428Y-69454819D01*
X85321428Y-69454819D02*
X85428571Y-69407200D01*
X85428571Y-69407200D02*
X85464285Y-69359580D01*
X85464285Y-69359580D02*
X85464285Y-69026247D01*
X85464285Y-69026247D02*
X85321428Y-69026247D01*
X85785714Y-69454819D02*
X85785714Y-68454819D01*
X85785714Y-68454819D02*
X86214285Y-69454819D01*
X86214285Y-69454819D02*
X86214285Y-68454819D01*
X86571428Y-69454819D02*
X86571428Y-68454819D01*
X86571428Y-68454819D02*
X86749999Y-68454819D01*
X86749999Y-68454819D02*
X86857142Y-68502438D01*
X86857142Y-68502438D02*
X86928571Y-68597676D01*
X86928571Y-68597676D02*
X86964285Y-68692914D01*
X86964285Y-68692914D02*
X86999999Y-68883390D01*
X86999999Y-68883390D02*
X86999999Y-69026247D01*
X86999999Y-69026247D02*
X86964285Y-69216723D01*
X86964285Y-69216723D02*
X86928571Y-69311961D01*
X86928571Y-69311961D02*
X86857142Y-69407200D01*
X86857142Y-69407200D02*
X86749999Y-69454819D01*
X86749999Y-69454819D02*
X86571428Y-69454819D01*
X79428571Y-68502438D02*
X79357143Y-68454819D01*
X79357143Y-68454819D02*
X79250000Y-68454819D01*
X79250000Y-68454819D02*
X79142857Y-68502438D01*
X79142857Y-68502438D02*
X79071428Y-68597676D01*
X79071428Y-68597676D02*
X79035714Y-68692914D01*
X79035714Y-68692914D02*
X79000000Y-68883390D01*
X79000000Y-68883390D02*
X79000000Y-69026247D01*
X79000000Y-69026247D02*
X79035714Y-69216723D01*
X79035714Y-69216723D02*
X79071428Y-69311961D01*
X79071428Y-69311961D02*
X79142857Y-69407200D01*
X79142857Y-69407200D02*
X79250000Y-69454819D01*
X79250000Y-69454819D02*
X79321428Y-69454819D01*
X79321428Y-69454819D02*
X79428571Y-69407200D01*
X79428571Y-69407200D02*
X79464285Y-69359580D01*
X79464285Y-69359580D02*
X79464285Y-69026247D01*
X79464285Y-69026247D02*
X79321428Y-69026247D01*
X79785714Y-69454819D02*
X79785714Y-68454819D01*
X79785714Y-68454819D02*
X80214285Y-69454819D01*
X80214285Y-69454819D02*
X80214285Y-68454819D01*
X80571428Y-69454819D02*
X80571428Y-68454819D01*
X80571428Y-68454819D02*
X80749999Y-68454819D01*
X80749999Y-68454819D02*
X80857142Y-68502438D01*
X80857142Y-68502438D02*
X80928571Y-68597676D01*
X80928571Y-68597676D02*
X80964285Y-68692914D01*
X80964285Y-68692914D02*
X80999999Y-68883390D01*
X80999999Y-68883390D02*
X80999999Y-69026247D01*
X80999999Y-69026247D02*
X80964285Y-69216723D01*
X80964285Y-69216723D02*
X80928571Y-69311961D01*
X80928571Y-69311961D02*
X80857142Y-69407200D01*
X80857142Y-69407200D02*
X80749999Y-69454819D01*
X80749999Y-69454819D02*
X80571428Y-69454819D01*
X70267857Y-69407200D02*
X70375000Y-69454819D01*
X70375000Y-69454819D02*
X70553571Y-69454819D01*
X70553571Y-69454819D02*
X70625000Y-69407200D01*
X70625000Y-69407200D02*
X70660714Y-69359580D01*
X70660714Y-69359580D02*
X70696428Y-69264342D01*
X70696428Y-69264342D02*
X70696428Y-69169104D01*
X70696428Y-69169104D02*
X70660714Y-69073866D01*
X70660714Y-69073866D02*
X70625000Y-69026247D01*
X70625000Y-69026247D02*
X70553571Y-68978628D01*
X70553571Y-68978628D02*
X70410714Y-68931009D01*
X70410714Y-68931009D02*
X70339285Y-68883390D01*
X70339285Y-68883390D02*
X70303571Y-68835771D01*
X70303571Y-68835771D02*
X70267857Y-68740533D01*
X70267857Y-68740533D02*
X70267857Y-68645295D01*
X70267857Y-68645295D02*
X70303571Y-68550057D01*
X70303571Y-68550057D02*
X70339285Y-68502438D01*
X70339285Y-68502438D02*
X70410714Y-68454819D01*
X70410714Y-68454819D02*
X70589285Y-68454819D01*
X70589285Y-68454819D02*
X70696428Y-68502438D01*
X71017857Y-69454819D02*
X71017857Y-68454819D01*
X71017857Y-68454819D02*
X71446428Y-69454819D01*
X71446428Y-69454819D02*
X71446428Y-68454819D01*
X71803571Y-69454819D02*
X71803571Y-68454819D01*
X71803571Y-68454819D02*
X71982142Y-68454819D01*
X71982142Y-68454819D02*
X72089285Y-68502438D01*
X72089285Y-68502438D02*
X72160714Y-68597676D01*
X72160714Y-68597676D02*
X72196428Y-68692914D01*
X72196428Y-68692914D02*
X72232142Y-68883390D01*
X72232142Y-68883390D02*
X72232142Y-69026247D01*
X72232142Y-69026247D02*
X72196428Y-69216723D01*
X72196428Y-69216723D02*
X72160714Y-69311961D01*
X72160714Y-69311961D02*
X72089285Y-69407200D01*
X72089285Y-69407200D02*
X71982142Y-69454819D01*
X71982142Y-69454819D02*
X71803571Y-69454819D01*
X62535714Y-69073866D02*
X63107143Y-69073866D01*
X63499999Y-69454819D02*
X63642856Y-69454819D01*
X63642856Y-69454819D02*
X63714285Y-69407200D01*
X63714285Y-69407200D02*
X63749999Y-69359580D01*
X63749999Y-69359580D02*
X63821428Y-69216723D01*
X63821428Y-69216723D02*
X63857142Y-69026247D01*
X63857142Y-69026247D02*
X63857142Y-68645295D01*
X63857142Y-68645295D02*
X63821428Y-68550057D01*
X63821428Y-68550057D02*
X63785714Y-68502438D01*
X63785714Y-68502438D02*
X63714285Y-68454819D01*
X63714285Y-68454819D02*
X63571428Y-68454819D01*
X63571428Y-68454819D02*
X63499999Y-68502438D01*
X63499999Y-68502438D02*
X63464285Y-68550057D01*
X63464285Y-68550057D02*
X63428571Y-68645295D01*
X63428571Y-68645295D02*
X63428571Y-68883390D01*
X63428571Y-68883390D02*
X63464285Y-68978628D01*
X63464285Y-68978628D02*
X63499999Y-69026247D01*
X63499999Y-69026247D02*
X63571428Y-69073866D01*
X63571428Y-69073866D02*
X63714285Y-69073866D01*
X63714285Y-69073866D02*
X63785714Y-69026247D01*
X63785714Y-69026247D02*
X63821428Y-68978628D01*
X63821428Y-68978628D02*
X63857142Y-68883390D01*
X64071428Y-68454819D02*
X64321428Y-69454819D01*
X64321428Y-69454819D02*
X64571428Y-68454819D01*
X82464285Y-69454819D02*
X82607142Y-69454819D01*
X82607142Y-69454819D02*
X82678571Y-69407200D01*
X82678571Y-69407200D02*
X82714285Y-69359580D01*
X82714285Y-69359580D02*
X82785714Y-69216723D01*
X82785714Y-69216723D02*
X82821428Y-69026247D01*
X82821428Y-69026247D02*
X82821428Y-68645295D01*
X82821428Y-68645295D02*
X82785714Y-68550057D01*
X82785714Y-68550057D02*
X82750000Y-68502438D01*
X82750000Y-68502438D02*
X82678571Y-68454819D01*
X82678571Y-68454819D02*
X82535714Y-68454819D01*
X82535714Y-68454819D02*
X82464285Y-68502438D01*
X82464285Y-68502438D02*
X82428571Y-68550057D01*
X82428571Y-68550057D02*
X82392857Y-68645295D01*
X82392857Y-68645295D02*
X82392857Y-68883390D01*
X82392857Y-68883390D02*
X82428571Y-68978628D01*
X82428571Y-68978628D02*
X82464285Y-69026247D01*
X82464285Y-69026247D02*
X82535714Y-69073866D01*
X82535714Y-69073866D02*
X82678571Y-69073866D01*
X82678571Y-69073866D02*
X82750000Y-69026247D01*
X82750000Y-69026247D02*
X82785714Y-68978628D01*
X82785714Y-68978628D02*
X82821428Y-68883390D01*
X83035714Y-68454819D02*
X83285714Y-69454819D01*
X83285714Y-69454819D02*
X83535714Y-68454819D01*
X83785714Y-69454819D02*
X83785714Y-68454819D01*
X84142857Y-69454819D02*
X84142857Y-68454819D01*
X84142857Y-68454819D02*
X84571428Y-69454819D01*
X84571428Y-69454819D02*
X84571428Y-68454819D01*
X75454819Y-57845238D02*
X74978628Y-58178571D01*
X75454819Y-58416666D02*
X74454819Y-58416666D01*
X74454819Y-58416666D02*
X74454819Y-58035714D01*
X74454819Y-58035714D02*
X74502438Y-57940476D01*
X74502438Y-57940476D02*
X74550057Y-57892857D01*
X74550057Y-57892857D02*
X74645295Y-57845238D01*
X74645295Y-57845238D02*
X74788152Y-57845238D01*
X74788152Y-57845238D02*
X74883390Y-57892857D01*
X74883390Y-57892857D02*
X74931009Y-57940476D01*
X74931009Y-57940476D02*
X74978628Y-58035714D01*
X74978628Y-58035714D02*
X74978628Y-58416666D01*
X74454819Y-57559523D02*
X75454819Y-57226190D01*
X75454819Y-57226190D02*
X74454819Y-56892857D01*
X75454819Y-56035714D02*
X75454819Y-56607142D01*
X75454819Y-56321428D02*
X74454819Y-56321428D01*
X74454819Y-56321428D02*
X74597676Y-56416666D01*
X74597676Y-56416666D02*
X74692914Y-56511904D01*
X74692914Y-56511904D02*
X74740533Y-56607142D01*
X65678571Y-68502438D02*
X65607143Y-68454819D01*
X65607143Y-68454819D02*
X65500000Y-68454819D01*
X65500000Y-68454819D02*
X65392857Y-68502438D01*
X65392857Y-68502438D02*
X65321428Y-68597676D01*
X65321428Y-68597676D02*
X65285714Y-68692914D01*
X65285714Y-68692914D02*
X65250000Y-68883390D01*
X65250000Y-68883390D02*
X65250000Y-69026247D01*
X65250000Y-69026247D02*
X65285714Y-69216723D01*
X65285714Y-69216723D02*
X65321428Y-69311961D01*
X65321428Y-69311961D02*
X65392857Y-69407200D01*
X65392857Y-69407200D02*
X65500000Y-69454819D01*
X65500000Y-69454819D02*
X65571428Y-69454819D01*
X65571428Y-69454819D02*
X65678571Y-69407200D01*
X65678571Y-69407200D02*
X65714285Y-69359580D01*
X65714285Y-69359580D02*
X65714285Y-69026247D01*
X65714285Y-69026247D02*
X65571428Y-69026247D01*
X66035714Y-69454819D02*
X66035714Y-68454819D01*
X66035714Y-68454819D02*
X66464285Y-69454819D01*
X66464285Y-69454819D02*
X66464285Y-68454819D01*
X66821428Y-69454819D02*
X66821428Y-68454819D01*
X66821428Y-68454819D02*
X66999999Y-68454819D01*
X66999999Y-68454819D02*
X67107142Y-68502438D01*
X67107142Y-68502438D02*
X67178571Y-68597676D01*
X67178571Y-68597676D02*
X67214285Y-68692914D01*
X67214285Y-68692914D02*
X67249999Y-68883390D01*
X67249999Y-68883390D02*
X67249999Y-69026247D01*
X67249999Y-69026247D02*
X67214285Y-69216723D01*
X67214285Y-69216723D02*
X67178571Y-69311961D01*
X67178571Y-69311961D02*
X67107142Y-69407200D01*
X67107142Y-69407200D02*
X66999999Y-69454819D01*
X66999999Y-69454819D02*
X66821428Y-69454819D01*
%TO.C,WP5*%
X76450000Y-72200000D02*
X76450000Y-69800000D01*
X78550000Y-69800000D02*
X76450000Y-69800000D01*
X78550000Y-72200000D02*
X76450000Y-72200000D01*
X78550000Y-72200000D02*
X78550000Y-69800000D01*
%TO.C,WP11*%
X84800000Y-62450000D02*
X87200000Y-62450000D01*
X87200000Y-64550000D02*
X87200000Y-62450000D01*
X84800000Y-64550000D02*
X84800000Y-62450000D01*
X84800000Y-64550000D02*
X87200000Y-64550000D01*
%TO.C,WP7*%
X67700000Y-72200000D02*
X67700000Y-69800000D01*
X69800000Y-69800000D02*
X67700000Y-69800000D01*
X69800000Y-72200000D02*
X67700000Y-72200000D01*
X69800000Y-72200000D02*
X69800000Y-69800000D01*
%TO.C,WP15*%
X87200000Y-53550000D02*
X84800000Y-53550000D01*
X84800000Y-51450000D02*
X84800000Y-53550000D01*
X87200000Y-51450000D02*
X87200000Y-53550000D01*
X87200000Y-51450000D02*
X84800000Y-51450000D01*
%TO.C,WP12*%
X84800000Y-59950000D02*
X87200000Y-59950000D01*
X87200000Y-62050000D02*
X87200000Y-59950000D01*
X84800000Y-62050000D02*
X84800000Y-59950000D01*
X84800000Y-62050000D02*
X87200000Y-62050000D01*
%TO.C,WP4*%
X50450000Y-72200000D02*
X50450000Y-69800000D01*
X52550000Y-69800000D02*
X50450000Y-69800000D01*
X52550000Y-72200000D02*
X50450000Y-72200000D01*
X52550000Y-72200000D02*
X52550000Y-69800000D01*
D12*
%TO.C,R1*%
X56020000Y-57370000D02*
X49480000Y-57370000D01*
X56020000Y-57040000D02*
X56020000Y-57370000D01*
X56020000Y-54960000D02*
X56020000Y-54630000D01*
X56020000Y-54630000D02*
X49480000Y-54630000D01*
X49480000Y-57370000D02*
X49480000Y-57040000D01*
X49480000Y-54630000D02*
X49480000Y-54960000D01*
D11*
%TO.C,WP3*%
X47950000Y-72200000D02*
X47950000Y-69800000D01*
X50050000Y-69800000D02*
X47950000Y-69800000D01*
X50050000Y-72200000D02*
X47950000Y-72200000D01*
X50050000Y-72200000D02*
X50050000Y-69800000D01*
%TO.C,WP14*%
X87200000Y-58550000D02*
X84800000Y-58550000D01*
X84800000Y-56450000D02*
X84800000Y-58550000D01*
X87200000Y-56450000D02*
X87200000Y-58550000D01*
X87200000Y-56450000D02*
X84800000Y-56450000D01*
%TO.C,WP13*%
X87200000Y-56050000D02*
X84800000Y-56050000D01*
X84800000Y-53950000D02*
X84800000Y-56050000D01*
X87200000Y-53950000D02*
X87200000Y-56050000D01*
X87200000Y-53950000D02*
X84800000Y-53950000D01*
%TO.C,WP2*%
X84950000Y-72200000D02*
X84950000Y-69800000D01*
X87050000Y-69800000D02*
X84950000Y-69800000D01*
X87050000Y-72200000D02*
X84950000Y-72200000D01*
X87050000Y-72200000D02*
X87050000Y-69800000D01*
%TO.C,WP6*%
X78950000Y-72200000D02*
X78950000Y-69800000D01*
X81050000Y-69800000D02*
X78950000Y-69800000D01*
X81050000Y-72200000D02*
X78950000Y-72200000D01*
X81050000Y-72200000D02*
X81050000Y-69800000D01*
%TO.C,WP8*%
X70200000Y-72200000D02*
X70200000Y-69800000D01*
X72300000Y-69800000D02*
X70200000Y-69800000D01*
X72300000Y-72200000D02*
X70200000Y-72200000D01*
X72300000Y-72200000D02*
X72300000Y-69800000D01*
%TO.C,WP9*%
X62700000Y-72200000D02*
X62700000Y-69800000D01*
X64800000Y-69800000D02*
X62700000Y-69800000D01*
X64800000Y-72200000D02*
X62700000Y-72200000D01*
X64800000Y-72200000D02*
X64800000Y-69800000D01*
%TO.C,WP1*%
X82450000Y-72200000D02*
X82450000Y-69800000D01*
X84550000Y-69800000D02*
X82450000Y-69800000D01*
X84550000Y-72200000D02*
X82450000Y-72200000D01*
X84550000Y-72200000D02*
X84550000Y-69800000D01*
D12*
%TO.C,RV1*%
X75777000Y-58429000D02*
X75777000Y-51571000D01*
X82889000Y-58429000D02*
X75777000Y-58429000D01*
X82889000Y-58429000D02*
X82889000Y-51571000D01*
X82889000Y-51571000D02*
X75777000Y-51571000D01*
D11*
%TO.C,WP10*%
X65200000Y-72200000D02*
X65200000Y-69800000D01*
X67300000Y-69800000D02*
X65200000Y-69800000D01*
X67300000Y-72200000D02*
X65200000Y-72200000D01*
X67300000Y-72200000D02*
X67300000Y-69800000D01*
%TD*%
D13*
X87500000Y-71500000D02*
G75*
G02*
X86500000Y-72500000I-1000000J0D01*
G01*
X86500000Y-72500000D02*
X48500000Y-72500000D01*
X48500000Y-72500000D02*
G75*
G02*
X47500000Y-71500000I0J1000000D01*
G01*
X48500000Y-51000000D02*
X86500000Y-51000000D01*
X47500000Y-71500000D02*
X47500000Y-52000000D01*
X87500000Y-52000000D02*
X87500000Y-71500000D01*
X86500000Y-51000000D02*
G75*
G02*
X87500000Y-52000000I0J-1000000D01*
G01*
X47500000Y-52000000D02*
G75*
G02*
X48500000Y-51000000I1000000J0D01*
G01*
M02*
