%TF.GenerationSoftware,KiCad,Pcbnew,9.0.2*%
%TF.CreationDate,2025-07-23T23:09:01-07:00*%
%TF.ProjectId,3pdt-pwr-breakout-neg-V2,33706474-2d70-4777-922d-627265616b6f,rev?*%
%TF.SameCoordinates,Original*%
%TF.FileFunction,AssemblyDrawing,Bot*%
%FSLAX46Y46*%
G04 Gerber Fmt 4.6, Leading zero omitted, Abs format (unit mm)*
G04 Created by KiCad (PCBNEW 9.0.2) date 2025-07-23 23:09:01*
%MOMM*%
%LPD*%
G01*
G04 APERTURE LIST*
%ADD10C,0.150000*%
%ADD11C,0.080000*%
%ADD12C,0.040000*%
%ADD13C,0.060000*%
%ADD14C,0.050000*%
%ADD15C,0.120000*%
%ADD16C,0.100000*%
%TA.AperFunction,Profile*%
%ADD17C,0.100000*%
%TD*%
G04 APERTURE END LIST*
D10*
X88178571Y-58504819D02*
X87607143Y-58504819D01*
X87892857Y-59504819D02*
X87892857Y-58504819D01*
X86797619Y-59504819D02*
X87273809Y-59504819D01*
X87273809Y-59504819D02*
X87273809Y-58504819D01*
X86607142Y-58504819D02*
X86273809Y-59504819D01*
X86273809Y-59504819D02*
X85940476Y-58504819D01*
X85702380Y-58504819D02*
X85035714Y-58504819D01*
X85035714Y-58504819D02*
X85464285Y-59504819D01*
X84226190Y-58504819D02*
X84416666Y-58504819D01*
X84416666Y-58504819D02*
X84511904Y-58552438D01*
X84511904Y-58552438D02*
X84559523Y-58600057D01*
X84559523Y-58600057D02*
X84654761Y-58742914D01*
X84654761Y-58742914D02*
X84702380Y-58933390D01*
X84702380Y-58933390D02*
X84702380Y-59314342D01*
X84702380Y-59314342D02*
X84654761Y-59409580D01*
X84654761Y-59409580D02*
X84607142Y-59457200D01*
X84607142Y-59457200D02*
X84511904Y-59504819D01*
X84511904Y-59504819D02*
X84321428Y-59504819D01*
X84321428Y-59504819D02*
X84226190Y-59457200D01*
X84226190Y-59457200D02*
X84178571Y-59409580D01*
X84178571Y-59409580D02*
X84130952Y-59314342D01*
X84130952Y-59314342D02*
X84130952Y-59076247D01*
X84130952Y-59076247D02*
X84178571Y-58981009D01*
X84178571Y-58981009D02*
X84226190Y-58933390D01*
X84226190Y-58933390D02*
X84321428Y-58885771D01*
X84321428Y-58885771D02*
X84511904Y-58885771D01*
X84511904Y-58885771D02*
X84607142Y-58933390D01*
X84607142Y-58933390D02*
X84654761Y-58981009D01*
X84654761Y-58981009D02*
X84702380Y-59076247D01*
X83797618Y-58504819D02*
X83130952Y-58504819D01*
X83130952Y-58504819D02*
X83559523Y-59504819D01*
X82559523Y-58504819D02*
X82464285Y-58504819D01*
X82464285Y-58504819D02*
X82369047Y-58552438D01*
X82369047Y-58552438D02*
X82321428Y-58600057D01*
X82321428Y-58600057D02*
X82273809Y-58695295D01*
X82273809Y-58695295D02*
X82226190Y-58885771D01*
X82226190Y-58885771D02*
X82226190Y-59123866D01*
X82226190Y-59123866D02*
X82273809Y-59314342D01*
X82273809Y-59314342D02*
X82321428Y-59409580D01*
X82321428Y-59409580D02*
X82369047Y-59457200D01*
X82369047Y-59457200D02*
X82464285Y-59504819D01*
X82464285Y-59504819D02*
X82559523Y-59504819D01*
X82559523Y-59504819D02*
X82654761Y-59457200D01*
X82654761Y-59457200D02*
X82702380Y-59409580D01*
X82702380Y-59409580D02*
X82749999Y-59314342D01*
X82749999Y-59314342D02*
X82797618Y-59123866D01*
X82797618Y-59123866D02*
X82797618Y-58885771D01*
X82797618Y-58885771D02*
X82749999Y-58695295D01*
X82749999Y-58695295D02*
X82702380Y-58600057D01*
X82702380Y-58600057D02*
X82654761Y-58552438D01*
X82654761Y-58552438D02*
X82559523Y-58504819D01*
X81273809Y-59504819D02*
X81845237Y-59504819D01*
X81559523Y-59504819D02*
X81559523Y-58504819D01*
X81559523Y-58504819D02*
X81654761Y-58647676D01*
X81654761Y-58647676D02*
X81749999Y-58742914D01*
X81749999Y-58742914D02*
X81845237Y-58790533D01*
X80845237Y-59504819D02*
X80845237Y-58504819D01*
X80845237Y-58504819D02*
X80607142Y-58504819D01*
X80607142Y-58504819D02*
X80464285Y-58552438D01*
X80464285Y-58552438D02*
X80369047Y-58647676D01*
X80369047Y-58647676D02*
X80321428Y-58742914D01*
X80321428Y-58742914D02*
X80273809Y-58933390D01*
X80273809Y-58933390D02*
X80273809Y-59076247D01*
X80273809Y-59076247D02*
X80321428Y-59266723D01*
X80321428Y-59266723D02*
X80369047Y-59361961D01*
X80369047Y-59361961D02*
X80464285Y-59457200D01*
X80464285Y-59457200D02*
X80607142Y-59504819D01*
X80607142Y-59504819D02*
X80845237Y-59504819D01*
X79273809Y-59504819D02*
X79607142Y-59028628D01*
X79845237Y-59504819D02*
X79845237Y-58504819D01*
X79845237Y-58504819D02*
X79464285Y-58504819D01*
X79464285Y-58504819D02*
X79369047Y-58552438D01*
X79369047Y-58552438D02*
X79321428Y-58600057D01*
X79321428Y-58600057D02*
X79273809Y-58695295D01*
X79273809Y-58695295D02*
X79273809Y-58838152D01*
X79273809Y-58838152D02*
X79321428Y-58933390D01*
X79321428Y-58933390D02*
X79369047Y-58981009D01*
X79369047Y-58981009D02*
X79464285Y-59028628D01*
X79464285Y-59028628D02*
X79845237Y-59028628D01*
X78988094Y-58504819D02*
X78654761Y-59504819D01*
X78654761Y-59504819D02*
X78321428Y-58504819D01*
X77416666Y-59504819D02*
X77749999Y-59028628D01*
X77988094Y-59504819D02*
X77988094Y-58504819D01*
X77988094Y-58504819D02*
X77607142Y-58504819D01*
X77607142Y-58504819D02*
X77511904Y-58552438D01*
X77511904Y-58552438D02*
X77464285Y-58600057D01*
X77464285Y-58600057D02*
X77416666Y-58695295D01*
X77416666Y-58695295D02*
X77416666Y-58838152D01*
X77416666Y-58838152D02*
X77464285Y-58933390D01*
X77464285Y-58933390D02*
X77511904Y-58981009D01*
X77511904Y-58981009D02*
X77607142Y-59028628D01*
X77607142Y-59028628D02*
X77988094Y-59028628D01*
D11*
X83130952Y-60727149D02*
X83130952Y-61131911D01*
X83130952Y-61131911D02*
X83107142Y-61179530D01*
X83107142Y-61179530D02*
X83083333Y-61203340D01*
X83083333Y-61203340D02*
X83035714Y-61227149D01*
X83035714Y-61227149D02*
X82940476Y-61227149D01*
X82940476Y-61227149D02*
X82892857Y-61203340D01*
X82892857Y-61203340D02*
X82869047Y-61179530D01*
X82869047Y-61179530D02*
X82845238Y-61131911D01*
X82845238Y-61131911D02*
X82845238Y-60727149D01*
X82345237Y-61227149D02*
X82630951Y-61227149D01*
X82488094Y-61227149D02*
X82488094Y-60727149D01*
X82488094Y-60727149D02*
X82535713Y-60798578D01*
X82535713Y-60798578D02*
X82583332Y-60846197D01*
X82583332Y-60846197D02*
X82630951Y-60870006D01*
D10*
X56050476Y-66581569D02*
X56621904Y-66581569D01*
X56336190Y-66581569D02*
X56336190Y-65581569D01*
X56336190Y-65581569D02*
X56431428Y-65724426D01*
X56431428Y-65724426D02*
X56526666Y-65819664D01*
X56526666Y-65819664D02*
X56621904Y-65867283D01*
X55431428Y-65581569D02*
X55336190Y-65581569D01*
X55336190Y-65581569D02*
X55240952Y-65629188D01*
X55240952Y-65629188D02*
X55193333Y-65676807D01*
X55193333Y-65676807D02*
X55145714Y-65772045D01*
X55145714Y-65772045D02*
X55098095Y-65962521D01*
X55098095Y-65962521D02*
X55098095Y-66200616D01*
X55098095Y-66200616D02*
X55145714Y-66391092D01*
X55145714Y-66391092D02*
X55193333Y-66486330D01*
X55193333Y-66486330D02*
X55240952Y-66533950D01*
X55240952Y-66533950D02*
X55336190Y-66581569D01*
X55336190Y-66581569D02*
X55431428Y-66581569D01*
X55431428Y-66581569D02*
X55526666Y-66533950D01*
X55526666Y-66533950D02*
X55574285Y-66486330D01*
X55574285Y-66486330D02*
X55621904Y-66391092D01*
X55621904Y-66391092D02*
X55669523Y-66200616D01*
X55669523Y-66200616D02*
X55669523Y-65962521D01*
X55669523Y-65962521D02*
X55621904Y-65772045D01*
X55621904Y-65772045D02*
X55574285Y-65676807D01*
X55574285Y-65676807D02*
X55526666Y-65629188D01*
X55526666Y-65629188D02*
X55431428Y-65581569D01*
D12*
X55903332Y-67414950D02*
X55989999Y-67291141D01*
X56051904Y-67414950D02*
X56051904Y-67154950D01*
X56051904Y-67154950D02*
X55952856Y-67154950D01*
X55952856Y-67154950D02*
X55928094Y-67167331D01*
X55928094Y-67167331D02*
X55915713Y-67179712D01*
X55915713Y-67179712D02*
X55903332Y-67204474D01*
X55903332Y-67204474D02*
X55903332Y-67241617D01*
X55903332Y-67241617D02*
X55915713Y-67266379D01*
X55915713Y-67266379D02*
X55928094Y-67278760D01*
X55928094Y-67278760D02*
X55952856Y-67291141D01*
X55952856Y-67291141D02*
X56051904Y-67291141D01*
X55779523Y-67414950D02*
X55729999Y-67414950D01*
X55729999Y-67414950D02*
X55705237Y-67402570D01*
X55705237Y-67402570D02*
X55692856Y-67390189D01*
X55692856Y-67390189D02*
X55668094Y-67353046D01*
X55668094Y-67353046D02*
X55655713Y-67303522D01*
X55655713Y-67303522D02*
X55655713Y-67204474D01*
X55655713Y-67204474D02*
X55668094Y-67179712D01*
X55668094Y-67179712D02*
X55680475Y-67167331D01*
X55680475Y-67167331D02*
X55705237Y-67154950D01*
X55705237Y-67154950D02*
X55754761Y-67154950D01*
X55754761Y-67154950D02*
X55779523Y-67167331D01*
X55779523Y-67167331D02*
X55791904Y-67179712D01*
X55791904Y-67179712D02*
X55804285Y-67204474D01*
X55804285Y-67204474D02*
X55804285Y-67266379D01*
X55804285Y-67266379D02*
X55791904Y-67291141D01*
X55791904Y-67291141D02*
X55779523Y-67303522D01*
X55779523Y-67303522D02*
X55754761Y-67315903D01*
X55754761Y-67315903D02*
X55705237Y-67315903D01*
X55705237Y-67315903D02*
X55680475Y-67303522D01*
X55680475Y-67303522D02*
X55668094Y-67291141D01*
X55668094Y-67291141D02*
X55655713Y-67266379D01*
D10*
X56124404Y-68723069D02*
X56600594Y-68723069D01*
X56600594Y-68723069D02*
X56600594Y-67723069D01*
X55791070Y-68723069D02*
X55791070Y-67723069D01*
X55791070Y-67723069D02*
X55457737Y-68437354D01*
X55457737Y-68437354D02*
X55124404Y-67723069D01*
X55124404Y-67723069D02*
X55124404Y-68723069D01*
X54695832Y-67818307D02*
X54648213Y-67770688D01*
X54648213Y-67770688D02*
X54552975Y-67723069D01*
X54552975Y-67723069D02*
X54314880Y-67723069D01*
X54314880Y-67723069D02*
X54219642Y-67770688D01*
X54219642Y-67770688D02*
X54172023Y-67818307D01*
X54172023Y-67818307D02*
X54124404Y-67913545D01*
X54124404Y-67913545D02*
X54124404Y-68008783D01*
X54124404Y-68008783D02*
X54172023Y-68151640D01*
X54172023Y-68151640D02*
X54743451Y-68723069D01*
X54743451Y-68723069D02*
X54124404Y-68723069D01*
X53267261Y-67723069D02*
X53457737Y-67723069D01*
X53457737Y-67723069D02*
X53552975Y-67770688D01*
X53552975Y-67770688D02*
X53600594Y-67818307D01*
X53600594Y-67818307D02*
X53695832Y-67961164D01*
X53695832Y-67961164D02*
X53743451Y-68151640D01*
X53743451Y-68151640D02*
X53743451Y-68532592D01*
X53743451Y-68532592D02*
X53695832Y-68627830D01*
X53695832Y-68627830D02*
X53648213Y-68675450D01*
X53648213Y-68675450D02*
X53552975Y-68723069D01*
X53552975Y-68723069D02*
X53362499Y-68723069D01*
X53362499Y-68723069D02*
X53267261Y-68675450D01*
X53267261Y-68675450D02*
X53219642Y-68627830D01*
X53219642Y-68627830D02*
X53172023Y-68532592D01*
X53172023Y-68532592D02*
X53172023Y-68294497D01*
X53172023Y-68294497D02*
X53219642Y-68199259D01*
X53219642Y-68199259D02*
X53267261Y-68151640D01*
X53267261Y-68151640D02*
X53362499Y-68104021D01*
X53362499Y-68104021D02*
X53552975Y-68104021D01*
X53552975Y-68104021D02*
X53648213Y-68151640D01*
X53648213Y-68151640D02*
X53695832Y-68199259D01*
X53695832Y-68199259D02*
X53743451Y-68294497D01*
X52314880Y-67723069D02*
X52505356Y-67723069D01*
X52505356Y-67723069D02*
X52600594Y-67770688D01*
X52600594Y-67770688D02*
X52648213Y-67818307D01*
X52648213Y-67818307D02*
X52743451Y-67961164D01*
X52743451Y-67961164D02*
X52791070Y-68151640D01*
X52791070Y-68151640D02*
X52791070Y-68532592D01*
X52791070Y-68532592D02*
X52743451Y-68627830D01*
X52743451Y-68627830D02*
X52695832Y-68675450D01*
X52695832Y-68675450D02*
X52600594Y-68723069D01*
X52600594Y-68723069D02*
X52410118Y-68723069D01*
X52410118Y-68723069D02*
X52314880Y-68675450D01*
X52314880Y-68675450D02*
X52267261Y-68627830D01*
X52267261Y-68627830D02*
X52219642Y-68532592D01*
X52219642Y-68532592D02*
X52219642Y-68294497D01*
X52219642Y-68294497D02*
X52267261Y-68199259D01*
X52267261Y-68199259D02*
X52314880Y-68151640D01*
X52314880Y-68151640D02*
X52410118Y-68104021D01*
X52410118Y-68104021D02*
X52600594Y-68104021D01*
X52600594Y-68104021D02*
X52695832Y-68151640D01*
X52695832Y-68151640D02*
X52743451Y-68199259D01*
X52743451Y-68199259D02*
X52791070Y-68294497D01*
X51362499Y-68056402D02*
X51362499Y-68723069D01*
X51600594Y-67675450D02*
X51838689Y-68389735D01*
X51838689Y-68389735D02*
X51219642Y-68389735D01*
X50838689Y-68723069D02*
X50838689Y-67723069D01*
X50838689Y-67723069D02*
X50505356Y-68437354D01*
X50505356Y-68437354D02*
X50172023Y-67723069D01*
X50172023Y-67723069D02*
X50172023Y-68723069D01*
X49267261Y-67723069D02*
X49457737Y-67723069D01*
X49457737Y-67723069D02*
X49552975Y-67770688D01*
X49552975Y-67770688D02*
X49600594Y-67818307D01*
X49600594Y-67818307D02*
X49695832Y-67961164D01*
X49695832Y-67961164D02*
X49743451Y-68151640D01*
X49743451Y-68151640D02*
X49743451Y-68532592D01*
X49743451Y-68532592D02*
X49695832Y-68627830D01*
X49695832Y-68627830D02*
X49648213Y-68675450D01*
X49648213Y-68675450D02*
X49552975Y-68723069D01*
X49552975Y-68723069D02*
X49362499Y-68723069D01*
X49362499Y-68723069D02*
X49267261Y-68675450D01*
X49267261Y-68675450D02*
X49219642Y-68627830D01*
X49219642Y-68627830D02*
X49172023Y-68532592D01*
X49172023Y-68532592D02*
X49172023Y-68294497D01*
X49172023Y-68294497D02*
X49219642Y-68199259D01*
X49219642Y-68199259D02*
X49267261Y-68151640D01*
X49267261Y-68151640D02*
X49362499Y-68104021D01*
X49362499Y-68104021D02*
X49552975Y-68104021D01*
X49552975Y-68104021D02*
X49648213Y-68151640D01*
X49648213Y-68151640D02*
X49695832Y-68199259D01*
X49695832Y-68199259D02*
X49743451Y-68294497D01*
X48838689Y-67723069D02*
X48172023Y-68723069D01*
X48172023Y-67723069D02*
X48838689Y-68723069D01*
X47076785Y-67675450D02*
X47933927Y-68961164D01*
X46743451Y-68723069D02*
X46743451Y-67723069D01*
X46743451Y-67723069D02*
X46172023Y-68723069D01*
X46172023Y-68723069D02*
X46172023Y-67723069D01*
X45505356Y-67723069D02*
X45314880Y-67723069D01*
X45314880Y-67723069D02*
X45219642Y-67770688D01*
X45219642Y-67770688D02*
X45124404Y-67865926D01*
X45124404Y-67865926D02*
X45076785Y-68056402D01*
X45076785Y-68056402D02*
X45076785Y-68389735D01*
X45076785Y-68389735D02*
X45124404Y-68580211D01*
X45124404Y-68580211D02*
X45219642Y-68675450D01*
X45219642Y-68675450D02*
X45314880Y-68723069D01*
X45314880Y-68723069D02*
X45505356Y-68723069D01*
X45505356Y-68723069D02*
X45600594Y-68675450D01*
X45600594Y-68675450D02*
X45695832Y-68580211D01*
X45695832Y-68580211D02*
X45743451Y-68389735D01*
X45743451Y-68389735D02*
X45743451Y-68056402D01*
X45743451Y-68056402D02*
X45695832Y-67865926D01*
X45695832Y-67865926D02*
X45600594Y-67770688D01*
X45600594Y-67770688D02*
X45505356Y-67723069D01*
X44648213Y-68723069D02*
X44648213Y-67723069D01*
X44648213Y-67723069D02*
X44267261Y-67723069D01*
X44267261Y-67723069D02*
X44172023Y-67770688D01*
X44172023Y-67770688D02*
X44124404Y-67818307D01*
X44124404Y-67818307D02*
X44076785Y-67913545D01*
X44076785Y-67913545D02*
X44076785Y-68056402D01*
X44076785Y-68056402D02*
X44124404Y-68151640D01*
X44124404Y-68151640D02*
X44172023Y-68199259D01*
X44172023Y-68199259D02*
X44267261Y-68246878D01*
X44267261Y-68246878D02*
X44648213Y-68246878D01*
X43314880Y-68199259D02*
X43172023Y-68246878D01*
X43172023Y-68246878D02*
X43124404Y-68294497D01*
X43124404Y-68294497D02*
X43076785Y-68389735D01*
X43076785Y-68389735D02*
X43076785Y-68532592D01*
X43076785Y-68532592D02*
X43124404Y-68627830D01*
X43124404Y-68627830D02*
X43172023Y-68675450D01*
X43172023Y-68675450D02*
X43267261Y-68723069D01*
X43267261Y-68723069D02*
X43648213Y-68723069D01*
X43648213Y-68723069D02*
X43648213Y-67723069D01*
X43648213Y-67723069D02*
X43314880Y-67723069D01*
X43314880Y-67723069D02*
X43219642Y-67770688D01*
X43219642Y-67770688D02*
X43172023Y-67818307D01*
X43172023Y-67818307D02*
X43124404Y-67913545D01*
X43124404Y-67913545D02*
X43124404Y-68008783D01*
X43124404Y-68008783D02*
X43172023Y-68104021D01*
X43172023Y-68104021D02*
X43219642Y-68151640D01*
X43219642Y-68151640D02*
X43314880Y-68199259D01*
X43314880Y-68199259D02*
X43648213Y-68199259D01*
D13*
X50167261Y-65650177D02*
X50167261Y-65973987D01*
X50167261Y-65973987D02*
X50148214Y-66012082D01*
X50148214Y-66012082D02*
X50129166Y-66031130D01*
X50129166Y-66031130D02*
X50091071Y-66050177D01*
X50091071Y-66050177D02*
X50014880Y-66050177D01*
X50014880Y-66050177D02*
X49976785Y-66031130D01*
X49976785Y-66031130D02*
X49957738Y-66012082D01*
X49957738Y-66012082D02*
X49938690Y-65973987D01*
X49938690Y-65973987D02*
X49938690Y-65650177D01*
X49786309Y-65650177D02*
X49538690Y-65650177D01*
X49538690Y-65650177D02*
X49672023Y-65802558D01*
X49672023Y-65802558D02*
X49614880Y-65802558D01*
X49614880Y-65802558D02*
X49576785Y-65821606D01*
X49576785Y-65821606D02*
X49557737Y-65840653D01*
X49557737Y-65840653D02*
X49538690Y-65878749D01*
X49538690Y-65878749D02*
X49538690Y-65973987D01*
X49538690Y-65973987D02*
X49557737Y-66012082D01*
X49557737Y-66012082D02*
X49576785Y-66031130D01*
X49576785Y-66031130D02*
X49614880Y-66050177D01*
X49614880Y-66050177D02*
X49729166Y-66050177D01*
X49729166Y-66050177D02*
X49767261Y-66031130D01*
X49767261Y-66031130D02*
X49786309Y-66012082D01*
D10*
X88635713Y-66557200D02*
X88492856Y-66604819D01*
X88492856Y-66604819D02*
X88254761Y-66604819D01*
X88254761Y-66604819D02*
X88159523Y-66557200D01*
X88159523Y-66557200D02*
X88111904Y-66509580D01*
X88111904Y-66509580D02*
X88064285Y-66414342D01*
X88064285Y-66414342D02*
X88064285Y-66319104D01*
X88064285Y-66319104D02*
X88111904Y-66223866D01*
X88111904Y-66223866D02*
X88159523Y-66176247D01*
X88159523Y-66176247D02*
X88254761Y-66128628D01*
X88254761Y-66128628D02*
X88445237Y-66081009D01*
X88445237Y-66081009D02*
X88540475Y-66033390D01*
X88540475Y-66033390D02*
X88588094Y-65985771D01*
X88588094Y-65985771D02*
X88635713Y-65890533D01*
X88635713Y-65890533D02*
X88635713Y-65795295D01*
X88635713Y-65795295D02*
X88588094Y-65700057D01*
X88588094Y-65700057D02*
X88540475Y-65652438D01*
X88540475Y-65652438D02*
X88445237Y-65604819D01*
X88445237Y-65604819D02*
X88207142Y-65604819D01*
X88207142Y-65604819D02*
X88064285Y-65652438D01*
X87635713Y-66604819D02*
X87635713Y-65604819D01*
X87635713Y-65604819D02*
X87302380Y-66319104D01*
X87302380Y-66319104D02*
X86969047Y-65604819D01*
X86969047Y-65604819D02*
X86969047Y-66604819D01*
X86159523Y-66081009D02*
X86492856Y-66081009D01*
X86492856Y-66604819D02*
X86492856Y-65604819D01*
X86492856Y-65604819D02*
X86016666Y-65604819D01*
X85207142Y-65938152D02*
X85207142Y-66604819D01*
X85445237Y-65557200D02*
X85683332Y-66271485D01*
X85683332Y-66271485D02*
X85064285Y-66271485D01*
X84207142Y-66604819D02*
X84683332Y-66604819D01*
X84683332Y-66604819D02*
X84683332Y-65604819D01*
X83826189Y-66604819D02*
X83635713Y-66604819D01*
X83635713Y-66604819D02*
X83540475Y-66557200D01*
X83540475Y-66557200D02*
X83492856Y-66509580D01*
X83492856Y-66509580D02*
X83397618Y-66366723D01*
X83397618Y-66366723D02*
X83349999Y-66176247D01*
X83349999Y-66176247D02*
X83349999Y-65795295D01*
X83349999Y-65795295D02*
X83397618Y-65700057D01*
X83397618Y-65700057D02*
X83445237Y-65652438D01*
X83445237Y-65652438D02*
X83540475Y-65604819D01*
X83540475Y-65604819D02*
X83730951Y-65604819D01*
X83730951Y-65604819D02*
X83826189Y-65652438D01*
X83826189Y-65652438D02*
X83873808Y-65700057D01*
X83873808Y-65700057D02*
X83921427Y-65795295D01*
X83921427Y-65795295D02*
X83921427Y-66033390D01*
X83921427Y-66033390D02*
X83873808Y-66128628D01*
X83873808Y-66128628D02*
X83826189Y-66176247D01*
X83826189Y-66176247D02*
X83730951Y-66223866D01*
X83730951Y-66223866D02*
X83540475Y-66223866D01*
X83540475Y-66223866D02*
X83445237Y-66176247D01*
X83445237Y-66176247D02*
X83397618Y-66128628D01*
X83397618Y-66128628D02*
X83349999Y-66033390D01*
X82921427Y-66509580D02*
X82873808Y-66557200D01*
X82873808Y-66557200D02*
X82921427Y-66604819D01*
X82921427Y-66604819D02*
X82969046Y-66557200D01*
X82969046Y-66557200D02*
X82921427Y-66509580D01*
X82921427Y-66509580D02*
X82921427Y-66604819D01*
X82254761Y-65604819D02*
X82159523Y-65604819D01*
X82159523Y-65604819D02*
X82064285Y-65652438D01*
X82064285Y-65652438D02*
X82016666Y-65700057D01*
X82016666Y-65700057D02*
X81969047Y-65795295D01*
X81969047Y-65795295D02*
X81921428Y-65985771D01*
X81921428Y-65985771D02*
X81921428Y-66223866D01*
X81921428Y-66223866D02*
X81969047Y-66414342D01*
X81969047Y-66414342D02*
X82016666Y-66509580D01*
X82016666Y-66509580D02*
X82064285Y-66557200D01*
X82064285Y-66557200D02*
X82159523Y-66604819D01*
X82159523Y-66604819D02*
X82254761Y-66604819D01*
X82254761Y-66604819D02*
X82349999Y-66557200D01*
X82349999Y-66557200D02*
X82397618Y-66509580D01*
X82397618Y-66509580D02*
X82445237Y-66414342D01*
X82445237Y-66414342D02*
X82492856Y-66223866D01*
X82492856Y-66223866D02*
X82492856Y-65985771D01*
X82492856Y-65985771D02*
X82445237Y-65795295D01*
X82445237Y-65795295D02*
X82397618Y-65700057D01*
X82397618Y-65700057D02*
X82349999Y-65652438D01*
X82349999Y-65652438D02*
X82254761Y-65604819D01*
X81540475Y-66319104D02*
X81064285Y-66319104D01*
X81635713Y-66604819D02*
X81302380Y-65604819D01*
X81302380Y-65604819D02*
X80969047Y-66604819D01*
X85461094Y-70609819D02*
X85461094Y-69609819D01*
X85461094Y-69609819D02*
X85222999Y-69609819D01*
X85222999Y-69609819D02*
X85080142Y-69657438D01*
X85080142Y-69657438D02*
X84984904Y-69752676D01*
X84984904Y-69752676D02*
X84937285Y-69847914D01*
X84937285Y-69847914D02*
X84889666Y-70038390D01*
X84889666Y-70038390D02*
X84889666Y-70181247D01*
X84889666Y-70181247D02*
X84937285Y-70371723D01*
X84937285Y-70371723D02*
X84984904Y-70466961D01*
X84984904Y-70466961D02*
X85080142Y-70562200D01*
X85080142Y-70562200D02*
X85222999Y-70609819D01*
X85222999Y-70609819D02*
X85461094Y-70609819D01*
X83937285Y-70609819D02*
X84508713Y-70609819D01*
X84222999Y-70609819D02*
X84222999Y-69609819D01*
X84222999Y-69609819D02*
X84318237Y-69752676D01*
X84318237Y-69752676D02*
X84413475Y-69847914D01*
X84413475Y-69847914D02*
X84508713Y-69895533D01*
X82384819Y-60808333D02*
X82384819Y-60236905D01*
X82384819Y-60522619D02*
X81384819Y-60522619D01*
X81384819Y-60522619D02*
X81527676Y-60427381D01*
X81527676Y-60427381D02*
X81622914Y-60332143D01*
X81622914Y-60332143D02*
X81670533Y-60236905D01*
X81718152Y-61665476D02*
X82384819Y-61665476D01*
X81718152Y-61236905D02*
X82241961Y-61236905D01*
X82241961Y-61236905D02*
X82337200Y-61284524D01*
X82337200Y-61284524D02*
X82384819Y-61379762D01*
X82384819Y-61379762D02*
X82384819Y-61522619D01*
X82384819Y-61522619D02*
X82337200Y-61617857D01*
X82337200Y-61617857D02*
X82289580Y-61665476D01*
D13*
X80643832Y-60717857D02*
X80662880Y-60698809D01*
X80662880Y-60698809D02*
X80681927Y-60641667D01*
X80681927Y-60641667D02*
X80681927Y-60603571D01*
X80681927Y-60603571D02*
X80662880Y-60546428D01*
X80662880Y-60546428D02*
X80624784Y-60508333D01*
X80624784Y-60508333D02*
X80586689Y-60489286D01*
X80586689Y-60489286D02*
X80510499Y-60470238D01*
X80510499Y-60470238D02*
X80453356Y-60470238D01*
X80453356Y-60470238D02*
X80377165Y-60489286D01*
X80377165Y-60489286D02*
X80339070Y-60508333D01*
X80339070Y-60508333D02*
X80300975Y-60546428D01*
X80300975Y-60546428D02*
X80281927Y-60603571D01*
X80281927Y-60603571D02*
X80281927Y-60641667D01*
X80281927Y-60641667D02*
X80300975Y-60698809D01*
X80300975Y-60698809D02*
X80320022Y-60717857D01*
X80681927Y-61098809D02*
X80681927Y-60870238D01*
X80681927Y-60984524D02*
X80281927Y-60984524D01*
X80281927Y-60984524D02*
X80339070Y-60946428D01*
X80339070Y-60946428D02*
X80377165Y-60908333D01*
X80377165Y-60908333D02*
X80396213Y-60870238D01*
X80281927Y-61346428D02*
X80281927Y-61384523D01*
X80281927Y-61384523D02*
X80300975Y-61422619D01*
X80300975Y-61422619D02*
X80320022Y-61441666D01*
X80320022Y-61441666D02*
X80358118Y-61460714D01*
X80358118Y-61460714D02*
X80434308Y-61479761D01*
X80434308Y-61479761D02*
X80529546Y-61479761D01*
X80529546Y-61479761D02*
X80605737Y-61460714D01*
X80605737Y-61460714D02*
X80643832Y-61441666D01*
X80643832Y-61441666D02*
X80662880Y-61422619D01*
X80662880Y-61422619D02*
X80681927Y-61384523D01*
X80681927Y-61384523D02*
X80681927Y-61346428D01*
X80681927Y-61346428D02*
X80662880Y-61308333D01*
X80662880Y-61308333D02*
X80643832Y-61289285D01*
X80643832Y-61289285D02*
X80605737Y-61270238D01*
X80605737Y-61270238D02*
X80529546Y-61251190D01*
X80529546Y-61251190D02*
X80434308Y-61251190D01*
X80434308Y-61251190D02*
X80358118Y-61270238D01*
X80358118Y-61270238D02*
X80320022Y-61289285D01*
X80320022Y-61289285D02*
X80300975Y-61308333D01*
X80300975Y-61308333D02*
X80281927Y-61346428D01*
D10*
X83554819Y-63794643D02*
X82554819Y-63794643D01*
X82554819Y-63794643D02*
X82554819Y-64032738D01*
X82554819Y-64032738D02*
X82602438Y-64175595D01*
X82602438Y-64175595D02*
X82697676Y-64270833D01*
X82697676Y-64270833D02*
X82792914Y-64318452D01*
X82792914Y-64318452D02*
X82983390Y-64366071D01*
X82983390Y-64366071D02*
X83126247Y-64366071D01*
X83126247Y-64366071D02*
X83316723Y-64318452D01*
X83316723Y-64318452D02*
X83411961Y-64270833D01*
X83411961Y-64270833D02*
X83507200Y-64175595D01*
X83507200Y-64175595D02*
X83554819Y-64032738D01*
X83554819Y-64032738D02*
X83554819Y-63794643D01*
X83554819Y-64794643D02*
X82554819Y-64794643D01*
X82554819Y-64794643D02*
X83269104Y-65127976D01*
X83269104Y-65127976D02*
X82554819Y-65461309D01*
X82554819Y-65461309D02*
X83554819Y-65461309D01*
X83554819Y-65937500D02*
X82554819Y-65937500D01*
X82554819Y-65937500D02*
X82554819Y-66318452D01*
X82554819Y-66318452D02*
X82602438Y-66413690D01*
X82602438Y-66413690D02*
X82650057Y-66461309D01*
X82650057Y-66461309D02*
X82745295Y-66508928D01*
X82745295Y-66508928D02*
X82888152Y-66508928D01*
X82888152Y-66508928D02*
X82983390Y-66461309D01*
X82983390Y-66461309D02*
X83031009Y-66413690D01*
X83031009Y-66413690D02*
X83078628Y-66318452D01*
X83078628Y-66318452D02*
X83078628Y-65937500D01*
X82554819Y-66842262D02*
X82554819Y-67461309D01*
X82554819Y-67461309D02*
X82935771Y-67127976D01*
X82935771Y-67127976D02*
X82935771Y-67270833D01*
X82935771Y-67270833D02*
X82983390Y-67366071D01*
X82983390Y-67366071D02*
X83031009Y-67413690D01*
X83031009Y-67413690D02*
X83126247Y-67461309D01*
X83126247Y-67461309D02*
X83364342Y-67461309D01*
X83364342Y-67461309D02*
X83459580Y-67413690D01*
X83459580Y-67413690D02*
X83507200Y-67366071D01*
X83507200Y-67366071D02*
X83554819Y-67270833D01*
X83554819Y-67270833D02*
X83554819Y-66985119D01*
X83554819Y-66985119D02*
X83507200Y-66889881D01*
X83507200Y-66889881D02*
X83459580Y-66842262D01*
X82554819Y-68080357D02*
X82554819Y-68175595D01*
X82554819Y-68175595D02*
X82602438Y-68270833D01*
X82602438Y-68270833D02*
X82650057Y-68318452D01*
X82650057Y-68318452D02*
X82745295Y-68366071D01*
X82745295Y-68366071D02*
X82935771Y-68413690D01*
X82935771Y-68413690D02*
X83173866Y-68413690D01*
X83173866Y-68413690D02*
X83364342Y-68366071D01*
X83364342Y-68366071D02*
X83459580Y-68318452D01*
X83459580Y-68318452D02*
X83507200Y-68270833D01*
X83507200Y-68270833D02*
X83554819Y-68175595D01*
X83554819Y-68175595D02*
X83554819Y-68080357D01*
X83554819Y-68080357D02*
X83507200Y-67985119D01*
X83507200Y-67985119D02*
X83459580Y-67937500D01*
X83459580Y-67937500D02*
X83364342Y-67889881D01*
X83364342Y-67889881D02*
X83173866Y-67842262D01*
X83173866Y-67842262D02*
X82935771Y-67842262D01*
X82935771Y-67842262D02*
X82745295Y-67889881D01*
X82745295Y-67889881D02*
X82650057Y-67937500D01*
X82650057Y-67937500D02*
X82602438Y-67985119D01*
X82602438Y-67985119D02*
X82554819Y-68080357D01*
X83554819Y-68889881D02*
X83554819Y-69080357D01*
X83554819Y-69080357D02*
X83507200Y-69175595D01*
X83507200Y-69175595D02*
X83459580Y-69223214D01*
X83459580Y-69223214D02*
X83316723Y-69318452D01*
X83316723Y-69318452D02*
X83126247Y-69366071D01*
X83126247Y-69366071D02*
X82745295Y-69366071D01*
X82745295Y-69366071D02*
X82650057Y-69318452D01*
X82650057Y-69318452D02*
X82602438Y-69270833D01*
X82602438Y-69270833D02*
X82554819Y-69175595D01*
X82554819Y-69175595D02*
X82554819Y-68985119D01*
X82554819Y-68985119D02*
X82602438Y-68889881D01*
X82602438Y-68889881D02*
X82650057Y-68842262D01*
X82650057Y-68842262D02*
X82745295Y-68794643D01*
X82745295Y-68794643D02*
X82983390Y-68794643D01*
X82983390Y-68794643D02*
X83078628Y-68842262D01*
X83078628Y-68842262D02*
X83126247Y-68889881D01*
X83126247Y-68889881D02*
X83173866Y-68985119D01*
X83173866Y-68985119D02*
X83173866Y-69175595D01*
X83173866Y-69175595D02*
X83126247Y-69270833D01*
X83126247Y-69270833D02*
X83078628Y-69318452D01*
X83078628Y-69318452D02*
X82983390Y-69366071D01*
X83554819Y-69842262D02*
X83554819Y-70032738D01*
X83554819Y-70032738D02*
X83507200Y-70127976D01*
X83507200Y-70127976D02*
X83459580Y-70175595D01*
X83459580Y-70175595D02*
X83316723Y-70270833D01*
X83316723Y-70270833D02*
X83126247Y-70318452D01*
X83126247Y-70318452D02*
X82745295Y-70318452D01*
X82745295Y-70318452D02*
X82650057Y-70270833D01*
X82650057Y-70270833D02*
X82602438Y-70223214D01*
X82602438Y-70223214D02*
X82554819Y-70127976D01*
X82554819Y-70127976D02*
X82554819Y-69937500D01*
X82554819Y-69937500D02*
X82602438Y-69842262D01*
X82602438Y-69842262D02*
X82650057Y-69794643D01*
X82650057Y-69794643D02*
X82745295Y-69747024D01*
X82745295Y-69747024D02*
X82983390Y-69747024D01*
X82983390Y-69747024D02*
X83078628Y-69794643D01*
X83078628Y-69794643D02*
X83126247Y-69842262D01*
X83126247Y-69842262D02*
X83173866Y-69937500D01*
X83173866Y-69937500D02*
X83173866Y-70127976D01*
X83173866Y-70127976D02*
X83126247Y-70223214D01*
X83126247Y-70223214D02*
X83078628Y-70270833D01*
X83078628Y-70270833D02*
X82983390Y-70318452D01*
X83554819Y-71223214D02*
X83554819Y-70747024D01*
X83554819Y-70747024D02*
X82554819Y-70747024D01*
D14*
X80875914Y-67407023D02*
X80860676Y-67376547D01*
X80860676Y-67376547D02*
X80830200Y-67346071D01*
X80830200Y-67346071D02*
X80784485Y-67300357D01*
X80784485Y-67300357D02*
X80769247Y-67269880D01*
X80769247Y-67269880D02*
X80769247Y-67239404D01*
X80845438Y-67254642D02*
X80830200Y-67224166D01*
X80830200Y-67224166D02*
X80799723Y-67193690D01*
X80799723Y-67193690D02*
X80738771Y-67178452D01*
X80738771Y-67178452D02*
X80632104Y-67178452D01*
X80632104Y-67178452D02*
X80571152Y-67193690D01*
X80571152Y-67193690D02*
X80540676Y-67224166D01*
X80540676Y-67224166D02*
X80525438Y-67254642D01*
X80525438Y-67254642D02*
X80525438Y-67315595D01*
X80525438Y-67315595D02*
X80540676Y-67346071D01*
X80540676Y-67346071D02*
X80571152Y-67376547D01*
X80571152Y-67376547D02*
X80632104Y-67391785D01*
X80632104Y-67391785D02*
X80738771Y-67391785D01*
X80738771Y-67391785D02*
X80799723Y-67376547D01*
X80799723Y-67376547D02*
X80830200Y-67346071D01*
X80830200Y-67346071D02*
X80845438Y-67315595D01*
X80845438Y-67315595D02*
X80845438Y-67254642D01*
X80845438Y-67696547D02*
X80845438Y-67513690D01*
X80845438Y-67605118D02*
X80525438Y-67605118D01*
X80525438Y-67605118D02*
X80571152Y-67574642D01*
X80571152Y-67574642D02*
X80601628Y-67544166D01*
X80601628Y-67544166D02*
X80616866Y-67513690D01*
D10*
X49854819Y-57846428D02*
X49854819Y-57370238D01*
X49854819Y-57370238D02*
X48854819Y-57370238D01*
X49331009Y-58179762D02*
X49331009Y-58513095D01*
X49854819Y-58655952D02*
X49854819Y-58179762D01*
X49854819Y-58179762D02*
X48854819Y-58179762D01*
X48854819Y-58179762D02*
X48854819Y-58655952D01*
X49854819Y-59084524D02*
X48854819Y-59084524D01*
X48854819Y-59084524D02*
X48854819Y-59322619D01*
X48854819Y-59322619D02*
X48902438Y-59465476D01*
X48902438Y-59465476D02*
X48997676Y-59560714D01*
X48997676Y-59560714D02*
X49092914Y-59608333D01*
X49092914Y-59608333D02*
X49283390Y-59655952D01*
X49283390Y-59655952D02*
X49426247Y-59655952D01*
X49426247Y-59655952D02*
X49616723Y-59608333D01*
X49616723Y-59608333D02*
X49711961Y-59560714D01*
X49711961Y-59560714D02*
X49807200Y-59465476D01*
X49807200Y-59465476D02*
X49854819Y-59322619D01*
X49854819Y-59322619D02*
X49854819Y-59084524D01*
X49950057Y-59846429D02*
X49950057Y-60608333D01*
X49854819Y-60846429D02*
X48854819Y-60846429D01*
X48854819Y-60846429D02*
X48854819Y-61227381D01*
X48854819Y-61227381D02*
X48902438Y-61322619D01*
X48902438Y-61322619D02*
X48950057Y-61370238D01*
X48950057Y-61370238D02*
X49045295Y-61417857D01*
X49045295Y-61417857D02*
X49188152Y-61417857D01*
X49188152Y-61417857D02*
X49283390Y-61370238D01*
X49283390Y-61370238D02*
X49331009Y-61322619D01*
X49331009Y-61322619D02*
X49378628Y-61227381D01*
X49378628Y-61227381D02*
X49378628Y-60846429D01*
X48854819Y-61703572D02*
X48854819Y-62275000D01*
X49854819Y-61989286D02*
X48854819Y-61989286D01*
X49854819Y-62608334D02*
X48854819Y-62608334D01*
X49331009Y-62608334D02*
X49331009Y-63179762D01*
X49854819Y-63179762D02*
X48854819Y-63179762D01*
D15*
X50863855Y-59664524D02*
X50063855Y-59664524D01*
X50063855Y-59664524D02*
X50063855Y-59855000D01*
X50063855Y-59855000D02*
X50101950Y-59969286D01*
X50101950Y-59969286D02*
X50178140Y-60045476D01*
X50178140Y-60045476D02*
X50254331Y-60083571D01*
X50254331Y-60083571D02*
X50406712Y-60121667D01*
X50406712Y-60121667D02*
X50520998Y-60121667D01*
X50520998Y-60121667D02*
X50673379Y-60083571D01*
X50673379Y-60083571D02*
X50749569Y-60045476D01*
X50749569Y-60045476D02*
X50825760Y-59969286D01*
X50825760Y-59969286D02*
X50863855Y-59855000D01*
X50863855Y-59855000D02*
X50863855Y-59664524D01*
X50140045Y-60426428D02*
X50101950Y-60464524D01*
X50101950Y-60464524D02*
X50063855Y-60540714D01*
X50063855Y-60540714D02*
X50063855Y-60731190D01*
X50063855Y-60731190D02*
X50101950Y-60807381D01*
X50101950Y-60807381D02*
X50140045Y-60845476D01*
X50140045Y-60845476D02*
X50216236Y-60883571D01*
X50216236Y-60883571D02*
X50292426Y-60883571D01*
X50292426Y-60883571D02*
X50406712Y-60845476D01*
X50406712Y-60845476D02*
X50863855Y-60388333D01*
X50863855Y-60388333D02*
X50863855Y-60883571D01*
D10*
X76880057Y-54093333D02*
X76832438Y-54140952D01*
X76832438Y-54140952D02*
X76784819Y-54236190D01*
X76784819Y-54236190D02*
X76784819Y-54474285D01*
X76784819Y-54474285D02*
X76832438Y-54569523D01*
X76832438Y-54569523D02*
X76880057Y-54617142D01*
X76880057Y-54617142D02*
X76975295Y-54664761D01*
X76975295Y-54664761D02*
X77070533Y-54664761D01*
X77070533Y-54664761D02*
X77213390Y-54617142D01*
X77213390Y-54617142D02*
X77784819Y-54045714D01*
X77784819Y-54045714D02*
X77784819Y-54664761D01*
X76784819Y-54998095D02*
X76784819Y-55664761D01*
X76784819Y-55664761D02*
X77784819Y-55236190D01*
X77784819Y-56045714D02*
X76784819Y-56045714D01*
X77403866Y-56140952D02*
X77784819Y-56426666D01*
X77118152Y-56426666D02*
X77499104Y-56045714D01*
D12*
X78618200Y-55216667D02*
X78494391Y-55130000D01*
X78618200Y-55068095D02*
X78358200Y-55068095D01*
X78358200Y-55068095D02*
X78358200Y-55167143D01*
X78358200Y-55167143D02*
X78370581Y-55191905D01*
X78370581Y-55191905D02*
X78382962Y-55204286D01*
X78382962Y-55204286D02*
X78407724Y-55216667D01*
X78407724Y-55216667D02*
X78444867Y-55216667D01*
X78444867Y-55216667D02*
X78469629Y-55204286D01*
X78469629Y-55204286D02*
X78482010Y-55191905D01*
X78482010Y-55191905D02*
X78494391Y-55167143D01*
X78494391Y-55167143D02*
X78494391Y-55068095D01*
X78358200Y-55451905D02*
X78358200Y-55328095D01*
X78358200Y-55328095D02*
X78482010Y-55315714D01*
X78482010Y-55315714D02*
X78469629Y-55328095D01*
X78469629Y-55328095D02*
X78457248Y-55352857D01*
X78457248Y-55352857D02*
X78457248Y-55414762D01*
X78457248Y-55414762D02*
X78469629Y-55439524D01*
X78469629Y-55439524D02*
X78482010Y-55451905D01*
X78482010Y-55451905D02*
X78506772Y-55464286D01*
X78506772Y-55464286D02*
X78568677Y-55464286D01*
X78568677Y-55464286D02*
X78593439Y-55451905D01*
X78593439Y-55451905D02*
X78605820Y-55439524D01*
X78605820Y-55439524D02*
X78618200Y-55414762D01*
X78618200Y-55414762D02*
X78618200Y-55352857D01*
X78618200Y-55352857D02*
X78605820Y-55328095D01*
X78605820Y-55328095D02*
X78593439Y-55315714D01*
D10*
X54705320Y-61193333D02*
X54705320Y-60621905D01*
X54705320Y-60907619D02*
X53705320Y-60907619D01*
X53705320Y-60907619D02*
X53848177Y-60812381D01*
X53848177Y-60812381D02*
X53943415Y-60717143D01*
X53943415Y-60717143D02*
X53991034Y-60621905D01*
X54038653Y-62050476D02*
X54705320Y-62050476D01*
X54038653Y-61621905D02*
X54562462Y-61621905D01*
X54562462Y-61621905D02*
X54657701Y-61669524D01*
X54657701Y-61669524D02*
X54705320Y-61764762D01*
X54705320Y-61764762D02*
X54705320Y-61907619D01*
X54705320Y-61907619D02*
X54657701Y-62002857D01*
X54657701Y-62002857D02*
X54610081Y-62050476D01*
D13*
X52964333Y-61293333D02*
X52983381Y-61274285D01*
X52983381Y-61274285D02*
X53002428Y-61217143D01*
X53002428Y-61217143D02*
X53002428Y-61179047D01*
X53002428Y-61179047D02*
X52983381Y-61121904D01*
X52983381Y-61121904D02*
X52945285Y-61083809D01*
X52945285Y-61083809D02*
X52907190Y-61064762D01*
X52907190Y-61064762D02*
X52831000Y-61045714D01*
X52831000Y-61045714D02*
X52773857Y-61045714D01*
X52773857Y-61045714D02*
X52697666Y-61064762D01*
X52697666Y-61064762D02*
X52659571Y-61083809D01*
X52659571Y-61083809D02*
X52621476Y-61121904D01*
X52621476Y-61121904D02*
X52602428Y-61179047D01*
X52602428Y-61179047D02*
X52602428Y-61217143D01*
X52602428Y-61217143D02*
X52621476Y-61274285D01*
X52621476Y-61274285D02*
X52640523Y-61293333D01*
X52602428Y-61655238D02*
X52602428Y-61464762D01*
X52602428Y-61464762D02*
X52792904Y-61445714D01*
X52792904Y-61445714D02*
X52773857Y-61464762D01*
X52773857Y-61464762D02*
X52754809Y-61502857D01*
X52754809Y-61502857D02*
X52754809Y-61598095D01*
X52754809Y-61598095D02*
X52773857Y-61636190D01*
X52773857Y-61636190D02*
X52792904Y-61655238D01*
X52792904Y-61655238D02*
X52831000Y-61674285D01*
X52831000Y-61674285D02*
X52926238Y-61674285D01*
X52926238Y-61674285D02*
X52964333Y-61655238D01*
X52964333Y-61655238D02*
X52983381Y-61636190D01*
X52983381Y-61636190D02*
X53002428Y-61598095D01*
X53002428Y-61598095D02*
X53002428Y-61502857D01*
X53002428Y-61502857D02*
X52983381Y-61464762D01*
X52983381Y-61464762D02*
X52964333Y-61445714D01*
D10*
X70545237Y-58207200D02*
X70402380Y-58254819D01*
X70402380Y-58254819D02*
X70164285Y-58254819D01*
X70164285Y-58254819D02*
X70069047Y-58207200D01*
X70069047Y-58207200D02*
X70021428Y-58159580D01*
X70021428Y-58159580D02*
X69973809Y-58064342D01*
X69973809Y-58064342D02*
X69973809Y-57969104D01*
X69973809Y-57969104D02*
X70021428Y-57873866D01*
X70021428Y-57873866D02*
X70069047Y-57826247D01*
X70069047Y-57826247D02*
X70164285Y-57778628D01*
X70164285Y-57778628D02*
X70354761Y-57731009D01*
X70354761Y-57731009D02*
X70449999Y-57683390D01*
X70449999Y-57683390D02*
X70497618Y-57635771D01*
X70497618Y-57635771D02*
X70545237Y-57540533D01*
X70545237Y-57540533D02*
X70545237Y-57445295D01*
X70545237Y-57445295D02*
X70497618Y-57350057D01*
X70497618Y-57350057D02*
X70449999Y-57302438D01*
X70449999Y-57302438D02*
X70354761Y-57254819D01*
X70354761Y-57254819D02*
X70116666Y-57254819D01*
X70116666Y-57254819D02*
X69973809Y-57302438D01*
X69640475Y-57254819D02*
X69402380Y-58254819D01*
X69402380Y-58254819D02*
X69211904Y-57540533D01*
X69211904Y-57540533D02*
X69021428Y-58254819D01*
X69021428Y-58254819D02*
X68783333Y-57254819D01*
X68640476Y-58350057D02*
X67878571Y-58350057D01*
X67735713Y-57254819D02*
X67116666Y-57254819D01*
X67116666Y-57254819D02*
X67449999Y-57635771D01*
X67449999Y-57635771D02*
X67307142Y-57635771D01*
X67307142Y-57635771D02*
X67211904Y-57683390D01*
X67211904Y-57683390D02*
X67164285Y-57731009D01*
X67164285Y-57731009D02*
X67116666Y-57826247D01*
X67116666Y-57826247D02*
X67116666Y-58064342D01*
X67116666Y-58064342D02*
X67164285Y-58159580D01*
X67164285Y-58159580D02*
X67211904Y-58207200D01*
X67211904Y-58207200D02*
X67307142Y-58254819D01*
X67307142Y-58254819D02*
X67592856Y-58254819D01*
X67592856Y-58254819D02*
X67688094Y-58207200D01*
X67688094Y-58207200D02*
X67735713Y-58159580D01*
X66688094Y-58254819D02*
X66688094Y-57254819D01*
X66688094Y-57254819D02*
X66307142Y-57254819D01*
X66307142Y-57254819D02*
X66211904Y-57302438D01*
X66211904Y-57302438D02*
X66164285Y-57350057D01*
X66164285Y-57350057D02*
X66116666Y-57445295D01*
X66116666Y-57445295D02*
X66116666Y-57588152D01*
X66116666Y-57588152D02*
X66164285Y-57683390D01*
X66164285Y-57683390D02*
X66211904Y-57731009D01*
X66211904Y-57731009D02*
X66307142Y-57778628D01*
X66307142Y-57778628D02*
X66688094Y-57778628D01*
X65688094Y-58254819D02*
X65688094Y-57254819D01*
X65688094Y-57254819D02*
X65449999Y-57254819D01*
X65449999Y-57254819D02*
X65307142Y-57302438D01*
X65307142Y-57302438D02*
X65211904Y-57397676D01*
X65211904Y-57397676D02*
X65164285Y-57492914D01*
X65164285Y-57492914D02*
X65116666Y-57683390D01*
X65116666Y-57683390D02*
X65116666Y-57826247D01*
X65116666Y-57826247D02*
X65164285Y-58016723D01*
X65164285Y-58016723D02*
X65211904Y-58111961D01*
X65211904Y-58111961D02*
X65307142Y-58207200D01*
X65307142Y-58207200D02*
X65449999Y-58254819D01*
X65449999Y-58254819D02*
X65688094Y-58254819D01*
X64830951Y-57254819D02*
X64259523Y-57254819D01*
X64545237Y-58254819D02*
X64545237Y-57254819D01*
X72683332Y-63207200D02*
X72540475Y-63254819D01*
X72540475Y-63254819D02*
X72302380Y-63254819D01*
X72302380Y-63254819D02*
X72207142Y-63207200D01*
X72207142Y-63207200D02*
X72159523Y-63159580D01*
X72159523Y-63159580D02*
X72111904Y-63064342D01*
X72111904Y-63064342D02*
X72111904Y-62969104D01*
X72111904Y-62969104D02*
X72159523Y-62873866D01*
X72159523Y-62873866D02*
X72207142Y-62826247D01*
X72207142Y-62826247D02*
X72302380Y-62778628D01*
X72302380Y-62778628D02*
X72492856Y-62731009D01*
X72492856Y-62731009D02*
X72588094Y-62683390D01*
X72588094Y-62683390D02*
X72635713Y-62635771D01*
X72635713Y-62635771D02*
X72683332Y-62540533D01*
X72683332Y-62540533D02*
X72683332Y-62445295D01*
X72683332Y-62445295D02*
X72635713Y-62350057D01*
X72635713Y-62350057D02*
X72588094Y-62302438D01*
X72588094Y-62302438D02*
X72492856Y-62254819D01*
X72492856Y-62254819D02*
X72254761Y-62254819D01*
X72254761Y-62254819D02*
X72111904Y-62302438D01*
X71778570Y-62254819D02*
X71540475Y-63254819D01*
X71540475Y-63254819D02*
X71349999Y-62540533D01*
X71349999Y-62540533D02*
X71159523Y-63254819D01*
X71159523Y-63254819D02*
X70921428Y-62254819D01*
X70016666Y-63254819D02*
X70588094Y-63254819D01*
X70302380Y-63254819D02*
X70302380Y-62254819D01*
X70302380Y-62254819D02*
X70397618Y-62397676D01*
X70397618Y-62397676D02*
X70492856Y-62492914D01*
X70492856Y-62492914D02*
X70588094Y-62540533D01*
X54693307Y-65237619D02*
X54645688Y-65285238D01*
X54645688Y-65285238D02*
X54598069Y-65380476D01*
X54598069Y-65380476D02*
X54598069Y-65618571D01*
X54598069Y-65618571D02*
X54645688Y-65713809D01*
X54645688Y-65713809D02*
X54693307Y-65761428D01*
X54693307Y-65761428D02*
X54788545Y-65809047D01*
X54788545Y-65809047D02*
X54883783Y-65809047D01*
X54883783Y-65809047D02*
X55026640Y-65761428D01*
X55026640Y-65761428D02*
X55598069Y-65190000D01*
X55598069Y-65190000D02*
X55598069Y-65809047D01*
X55502830Y-66237619D02*
X55550450Y-66285238D01*
X55550450Y-66285238D02*
X55598069Y-66237619D01*
X55598069Y-66237619D02*
X55550450Y-66190000D01*
X55550450Y-66190000D02*
X55502830Y-66237619D01*
X55502830Y-66237619D02*
X55598069Y-66237619D01*
X54693307Y-66666190D02*
X54645688Y-66713809D01*
X54645688Y-66713809D02*
X54598069Y-66809047D01*
X54598069Y-66809047D02*
X54598069Y-67047142D01*
X54598069Y-67047142D02*
X54645688Y-67142380D01*
X54645688Y-67142380D02*
X54693307Y-67189999D01*
X54693307Y-67189999D02*
X54788545Y-67237618D01*
X54788545Y-67237618D02*
X54883783Y-67237618D01*
X54883783Y-67237618D02*
X55026640Y-67189999D01*
X55026640Y-67189999D02*
X55598069Y-66618571D01*
X55598069Y-66618571D02*
X55598069Y-67237618D01*
X54931402Y-68094761D02*
X55598069Y-68094761D01*
X54931402Y-67666190D02*
X55455211Y-67666190D01*
X55455211Y-67666190D02*
X55550450Y-67713809D01*
X55550450Y-67713809D02*
X55598069Y-67809047D01*
X55598069Y-67809047D02*
X55598069Y-67951904D01*
X55598069Y-67951904D02*
X55550450Y-68047142D01*
X55550450Y-68047142D02*
X55502830Y-68094761D01*
D15*
X53580914Y-66556667D02*
X53619010Y-66518571D01*
X53619010Y-66518571D02*
X53657105Y-66404286D01*
X53657105Y-66404286D02*
X53657105Y-66328095D01*
X53657105Y-66328095D02*
X53619010Y-66213809D01*
X53619010Y-66213809D02*
X53542819Y-66137619D01*
X53542819Y-66137619D02*
X53466629Y-66099524D01*
X53466629Y-66099524D02*
X53314248Y-66061428D01*
X53314248Y-66061428D02*
X53199962Y-66061428D01*
X53199962Y-66061428D02*
X53047581Y-66099524D01*
X53047581Y-66099524D02*
X52971390Y-66137619D01*
X52971390Y-66137619D02*
X52895200Y-66213809D01*
X52895200Y-66213809D02*
X52857105Y-66328095D01*
X52857105Y-66328095D02*
X52857105Y-66404286D01*
X52857105Y-66404286D02*
X52895200Y-66518571D01*
X52895200Y-66518571D02*
X52933295Y-66556667D01*
X53199962Y-67013809D02*
X53161867Y-66937619D01*
X53161867Y-66937619D02*
X53123771Y-66899524D01*
X53123771Y-66899524D02*
X53047581Y-66861428D01*
X53047581Y-66861428D02*
X53009486Y-66861428D01*
X53009486Y-66861428D02*
X52933295Y-66899524D01*
X52933295Y-66899524D02*
X52895200Y-66937619D01*
X52895200Y-66937619D02*
X52857105Y-67013809D01*
X52857105Y-67013809D02*
X52857105Y-67166190D01*
X52857105Y-67166190D02*
X52895200Y-67242381D01*
X52895200Y-67242381D02*
X52933295Y-67280476D01*
X52933295Y-67280476D02*
X53009486Y-67318571D01*
X53009486Y-67318571D02*
X53047581Y-67318571D01*
X53047581Y-67318571D02*
X53123771Y-67280476D01*
X53123771Y-67280476D02*
X53161867Y-67242381D01*
X53161867Y-67242381D02*
X53199962Y-67166190D01*
X53199962Y-67166190D02*
X53199962Y-67013809D01*
X53199962Y-67013809D02*
X53238057Y-66937619D01*
X53238057Y-66937619D02*
X53276152Y-66899524D01*
X53276152Y-66899524D02*
X53352343Y-66861428D01*
X53352343Y-66861428D02*
X53504724Y-66861428D01*
X53504724Y-66861428D02*
X53580914Y-66899524D01*
X53580914Y-66899524D02*
X53619010Y-66937619D01*
X53619010Y-66937619D02*
X53657105Y-67013809D01*
X53657105Y-67013809D02*
X53657105Y-67166190D01*
X53657105Y-67166190D02*
X53619010Y-67242381D01*
X53619010Y-67242381D02*
X53580914Y-67280476D01*
X53580914Y-67280476D02*
X53504724Y-67318571D01*
X53504724Y-67318571D02*
X53352343Y-67318571D01*
X53352343Y-67318571D02*
X53276152Y-67280476D01*
X53276152Y-67280476D02*
X53238057Y-67242381D01*
X53238057Y-67242381D02*
X53199962Y-67166190D01*
D10*
X80024819Y-66438571D02*
X80024819Y-65867143D01*
X80024819Y-66152857D02*
X79024819Y-66152857D01*
X79024819Y-66152857D02*
X79167676Y-66057619D01*
X79167676Y-66057619D02*
X79262914Y-65962381D01*
X79262914Y-65962381D02*
X79310533Y-65867143D01*
X79024819Y-67057619D02*
X79024819Y-67152857D01*
X79024819Y-67152857D02*
X79072438Y-67248095D01*
X79072438Y-67248095D02*
X79120057Y-67295714D01*
X79120057Y-67295714D02*
X79215295Y-67343333D01*
X79215295Y-67343333D02*
X79405771Y-67390952D01*
X79405771Y-67390952D02*
X79643866Y-67390952D01*
X79643866Y-67390952D02*
X79834342Y-67343333D01*
X79834342Y-67343333D02*
X79929580Y-67295714D01*
X79929580Y-67295714D02*
X79977200Y-67248095D01*
X79977200Y-67248095D02*
X80024819Y-67152857D01*
X80024819Y-67152857D02*
X80024819Y-67057619D01*
X80024819Y-67057619D02*
X79977200Y-66962381D01*
X79977200Y-66962381D02*
X79929580Y-66914762D01*
X79929580Y-66914762D02*
X79834342Y-66867143D01*
X79834342Y-66867143D02*
X79643866Y-66819524D01*
X79643866Y-66819524D02*
X79405771Y-66819524D01*
X79405771Y-66819524D02*
X79215295Y-66867143D01*
X79215295Y-66867143D02*
X79120057Y-66914762D01*
X79120057Y-66914762D02*
X79072438Y-66962381D01*
X79072438Y-66962381D02*
X79024819Y-67057619D01*
X79024819Y-68010000D02*
X79024819Y-68105238D01*
X79024819Y-68105238D02*
X79072438Y-68200476D01*
X79072438Y-68200476D02*
X79120057Y-68248095D01*
X79120057Y-68248095D02*
X79215295Y-68295714D01*
X79215295Y-68295714D02*
X79405771Y-68343333D01*
X79405771Y-68343333D02*
X79643866Y-68343333D01*
X79643866Y-68343333D02*
X79834342Y-68295714D01*
X79834342Y-68295714D02*
X79929580Y-68248095D01*
X79929580Y-68248095D02*
X79977200Y-68200476D01*
X79977200Y-68200476D02*
X80024819Y-68105238D01*
X80024819Y-68105238D02*
X80024819Y-68010000D01*
X80024819Y-68010000D02*
X79977200Y-67914762D01*
X79977200Y-67914762D02*
X79929580Y-67867143D01*
X79929580Y-67867143D02*
X79834342Y-67819524D01*
X79834342Y-67819524D02*
X79643866Y-67771905D01*
X79643866Y-67771905D02*
X79405771Y-67771905D01*
X79405771Y-67771905D02*
X79215295Y-67819524D01*
X79215295Y-67819524D02*
X79120057Y-67867143D01*
X79120057Y-67867143D02*
X79072438Y-67914762D01*
X79072438Y-67914762D02*
X79024819Y-68010000D01*
X80024819Y-68771905D02*
X79024819Y-68771905D01*
X79643866Y-68867143D02*
X80024819Y-69152857D01*
X79358152Y-69152857D02*
X79739104Y-68771905D01*
D12*
X78518200Y-67466667D02*
X78394391Y-67380000D01*
X78518200Y-67318095D02*
X78258200Y-67318095D01*
X78258200Y-67318095D02*
X78258200Y-67417143D01*
X78258200Y-67417143D02*
X78270581Y-67441905D01*
X78270581Y-67441905D02*
X78282962Y-67454286D01*
X78282962Y-67454286D02*
X78307724Y-67466667D01*
X78307724Y-67466667D02*
X78344867Y-67466667D01*
X78344867Y-67466667D02*
X78369629Y-67454286D01*
X78369629Y-67454286D02*
X78382010Y-67441905D01*
X78382010Y-67441905D02*
X78394391Y-67417143D01*
X78394391Y-67417143D02*
X78394391Y-67318095D01*
X78258200Y-67553333D02*
X78258200Y-67714286D01*
X78258200Y-67714286D02*
X78357248Y-67627619D01*
X78357248Y-67627619D02*
X78357248Y-67664762D01*
X78357248Y-67664762D02*
X78369629Y-67689524D01*
X78369629Y-67689524D02*
X78382010Y-67701905D01*
X78382010Y-67701905D02*
X78406772Y-67714286D01*
X78406772Y-67714286D02*
X78468677Y-67714286D01*
X78468677Y-67714286D02*
X78493439Y-67701905D01*
X78493439Y-67701905D02*
X78505820Y-67689524D01*
X78505820Y-67689524D02*
X78518200Y-67664762D01*
X78518200Y-67664762D02*
X78518200Y-67590476D01*
X78518200Y-67590476D02*
X78505820Y-67565714D01*
X78505820Y-67565714D02*
X78493439Y-67553333D01*
D10*
X54202380Y-56834819D02*
X53583333Y-56834819D01*
X53583333Y-56834819D02*
X53916666Y-57215771D01*
X53916666Y-57215771D02*
X53773809Y-57215771D01*
X53773809Y-57215771D02*
X53678571Y-57263390D01*
X53678571Y-57263390D02*
X53630952Y-57311009D01*
X53630952Y-57311009D02*
X53583333Y-57406247D01*
X53583333Y-57406247D02*
X53583333Y-57644342D01*
X53583333Y-57644342D02*
X53630952Y-57739580D01*
X53630952Y-57739580D02*
X53678571Y-57787200D01*
X53678571Y-57787200D02*
X53773809Y-57834819D01*
X53773809Y-57834819D02*
X54059523Y-57834819D01*
X54059523Y-57834819D02*
X54154761Y-57787200D01*
X54154761Y-57787200D02*
X54202380Y-57739580D01*
X53154761Y-57739580D02*
X53107142Y-57787200D01*
X53107142Y-57787200D02*
X53154761Y-57834819D01*
X53154761Y-57834819D02*
X53202380Y-57787200D01*
X53202380Y-57787200D02*
X53154761Y-57739580D01*
X53154761Y-57739580D02*
X53154761Y-57834819D01*
X52773809Y-56834819D02*
X52154762Y-56834819D01*
X52154762Y-56834819D02*
X52488095Y-57215771D01*
X52488095Y-57215771D02*
X52345238Y-57215771D01*
X52345238Y-57215771D02*
X52250000Y-57263390D01*
X52250000Y-57263390D02*
X52202381Y-57311009D01*
X52202381Y-57311009D02*
X52154762Y-57406247D01*
X52154762Y-57406247D02*
X52154762Y-57644342D01*
X52154762Y-57644342D02*
X52202381Y-57739580D01*
X52202381Y-57739580D02*
X52250000Y-57787200D01*
X52250000Y-57787200D02*
X52345238Y-57834819D01*
X52345238Y-57834819D02*
X52630952Y-57834819D01*
X52630952Y-57834819D02*
X52726190Y-57787200D01*
X52726190Y-57787200D02*
X52773809Y-57739580D01*
X51726190Y-57834819D02*
X51726190Y-56834819D01*
X51630952Y-57453866D02*
X51345238Y-57834819D01*
X51345238Y-57168152D02*
X51726190Y-57549104D01*
D13*
X52816666Y-56131927D02*
X52949999Y-55941451D01*
X53045237Y-56131927D02*
X53045237Y-55731927D01*
X53045237Y-55731927D02*
X52892856Y-55731927D01*
X52892856Y-55731927D02*
X52854761Y-55750975D01*
X52854761Y-55750975D02*
X52835714Y-55770022D01*
X52835714Y-55770022D02*
X52816666Y-55808118D01*
X52816666Y-55808118D02*
X52816666Y-55865260D01*
X52816666Y-55865260D02*
X52835714Y-55903356D01*
X52835714Y-55903356D02*
X52854761Y-55922403D01*
X52854761Y-55922403D02*
X52892856Y-55941451D01*
X52892856Y-55941451D02*
X53045237Y-55941451D01*
X52664285Y-55770022D02*
X52645237Y-55750975D01*
X52645237Y-55750975D02*
X52607142Y-55731927D01*
X52607142Y-55731927D02*
X52511904Y-55731927D01*
X52511904Y-55731927D02*
X52473809Y-55750975D01*
X52473809Y-55750975D02*
X52454761Y-55770022D01*
X52454761Y-55770022D02*
X52435714Y-55808118D01*
X52435714Y-55808118D02*
X52435714Y-55846213D01*
X52435714Y-55846213D02*
X52454761Y-55903356D01*
X52454761Y-55903356D02*
X52683333Y-56131927D01*
X52683333Y-56131927D02*
X52435714Y-56131927D01*
D10*
X81904819Y-53928571D02*
X81904819Y-53357143D01*
X81904819Y-53642857D02*
X80904819Y-53642857D01*
X80904819Y-53642857D02*
X81047676Y-53547619D01*
X81047676Y-53547619D02*
X81142914Y-53452381D01*
X81142914Y-53452381D02*
X81190533Y-53357143D01*
X80904819Y-54547619D02*
X80904819Y-54642857D01*
X80904819Y-54642857D02*
X80952438Y-54738095D01*
X80952438Y-54738095D02*
X81000057Y-54785714D01*
X81000057Y-54785714D02*
X81095295Y-54833333D01*
X81095295Y-54833333D02*
X81285771Y-54880952D01*
X81285771Y-54880952D02*
X81523866Y-54880952D01*
X81523866Y-54880952D02*
X81714342Y-54833333D01*
X81714342Y-54833333D02*
X81809580Y-54785714D01*
X81809580Y-54785714D02*
X81857200Y-54738095D01*
X81857200Y-54738095D02*
X81904819Y-54642857D01*
X81904819Y-54642857D02*
X81904819Y-54547619D01*
X81904819Y-54547619D02*
X81857200Y-54452381D01*
X81857200Y-54452381D02*
X81809580Y-54404762D01*
X81809580Y-54404762D02*
X81714342Y-54357143D01*
X81714342Y-54357143D02*
X81523866Y-54309524D01*
X81523866Y-54309524D02*
X81285771Y-54309524D01*
X81285771Y-54309524D02*
X81095295Y-54357143D01*
X81095295Y-54357143D02*
X81000057Y-54404762D01*
X81000057Y-54404762D02*
X80952438Y-54452381D01*
X80952438Y-54452381D02*
X80904819Y-54547619D01*
X80904819Y-55500000D02*
X80904819Y-55595238D01*
X80904819Y-55595238D02*
X80952438Y-55690476D01*
X80952438Y-55690476D02*
X81000057Y-55738095D01*
X81000057Y-55738095D02*
X81095295Y-55785714D01*
X81095295Y-55785714D02*
X81285771Y-55833333D01*
X81285771Y-55833333D02*
X81523866Y-55833333D01*
X81523866Y-55833333D02*
X81714342Y-55785714D01*
X81714342Y-55785714D02*
X81809580Y-55738095D01*
X81809580Y-55738095D02*
X81857200Y-55690476D01*
X81857200Y-55690476D02*
X81904819Y-55595238D01*
X81904819Y-55595238D02*
X81904819Y-55500000D01*
X81904819Y-55500000D02*
X81857200Y-55404762D01*
X81857200Y-55404762D02*
X81809580Y-55357143D01*
X81809580Y-55357143D02*
X81714342Y-55309524D01*
X81714342Y-55309524D02*
X81523866Y-55261905D01*
X81523866Y-55261905D02*
X81285771Y-55261905D01*
X81285771Y-55261905D02*
X81095295Y-55309524D01*
X81095295Y-55309524D02*
X81000057Y-55357143D01*
X81000057Y-55357143D02*
X80952438Y-55404762D01*
X80952438Y-55404762D02*
X80904819Y-55500000D01*
X81904819Y-56261905D02*
X80904819Y-56261905D01*
X81523866Y-56357143D02*
X81904819Y-56642857D01*
X81238152Y-56642857D02*
X81619104Y-56261905D01*
D13*
X80201927Y-54933333D02*
X80011451Y-54800000D01*
X80201927Y-54704762D02*
X79801927Y-54704762D01*
X79801927Y-54704762D02*
X79801927Y-54857143D01*
X79801927Y-54857143D02*
X79820975Y-54895238D01*
X79820975Y-54895238D02*
X79840022Y-54914285D01*
X79840022Y-54914285D02*
X79878118Y-54933333D01*
X79878118Y-54933333D02*
X79935260Y-54933333D01*
X79935260Y-54933333D02*
X79973356Y-54914285D01*
X79973356Y-54914285D02*
X79992403Y-54895238D01*
X79992403Y-54895238D02*
X80011451Y-54857143D01*
X80011451Y-54857143D02*
X80011451Y-54704762D01*
X79801927Y-55276190D02*
X79801927Y-55200000D01*
X79801927Y-55200000D02*
X79820975Y-55161904D01*
X79820975Y-55161904D02*
X79840022Y-55142857D01*
X79840022Y-55142857D02*
X79897165Y-55104762D01*
X79897165Y-55104762D02*
X79973356Y-55085714D01*
X79973356Y-55085714D02*
X80125737Y-55085714D01*
X80125737Y-55085714D02*
X80163832Y-55104762D01*
X80163832Y-55104762D02*
X80182880Y-55123809D01*
X80182880Y-55123809D02*
X80201927Y-55161904D01*
X80201927Y-55161904D02*
X80201927Y-55238095D01*
X80201927Y-55238095D02*
X80182880Y-55276190D01*
X80182880Y-55276190D02*
X80163832Y-55295238D01*
X80163832Y-55295238D02*
X80125737Y-55314285D01*
X80125737Y-55314285D02*
X80030499Y-55314285D01*
X80030499Y-55314285D02*
X79992403Y-55295238D01*
X79992403Y-55295238D02*
X79973356Y-55276190D01*
X79973356Y-55276190D02*
X79954308Y-55238095D01*
X79954308Y-55238095D02*
X79954308Y-55161904D01*
X79954308Y-55161904D02*
X79973356Y-55123809D01*
X79973356Y-55123809D02*
X79992403Y-55104762D01*
X79992403Y-55104762D02*
X80030499Y-55085714D01*
D10*
X84374819Y-53295714D02*
X84374819Y-53914761D01*
X84374819Y-53914761D02*
X84755771Y-53581428D01*
X84755771Y-53581428D02*
X84755771Y-53724285D01*
X84755771Y-53724285D02*
X84803390Y-53819523D01*
X84803390Y-53819523D02*
X84851009Y-53867142D01*
X84851009Y-53867142D02*
X84946247Y-53914761D01*
X84946247Y-53914761D02*
X85184342Y-53914761D01*
X85184342Y-53914761D02*
X85279580Y-53867142D01*
X85279580Y-53867142D02*
X85327200Y-53819523D01*
X85327200Y-53819523D02*
X85374819Y-53724285D01*
X85374819Y-53724285D02*
X85374819Y-53438571D01*
X85374819Y-53438571D02*
X85327200Y-53343333D01*
X85327200Y-53343333D02*
X85279580Y-53295714D01*
X84374819Y-54771904D02*
X84374819Y-54581428D01*
X84374819Y-54581428D02*
X84422438Y-54486190D01*
X84422438Y-54486190D02*
X84470057Y-54438571D01*
X84470057Y-54438571D02*
X84612914Y-54343333D01*
X84612914Y-54343333D02*
X84803390Y-54295714D01*
X84803390Y-54295714D02*
X85184342Y-54295714D01*
X85184342Y-54295714D02*
X85279580Y-54343333D01*
X85279580Y-54343333D02*
X85327200Y-54390952D01*
X85327200Y-54390952D02*
X85374819Y-54486190D01*
X85374819Y-54486190D02*
X85374819Y-54676666D01*
X85374819Y-54676666D02*
X85327200Y-54771904D01*
X85327200Y-54771904D02*
X85279580Y-54819523D01*
X85279580Y-54819523D02*
X85184342Y-54867142D01*
X85184342Y-54867142D02*
X84946247Y-54867142D01*
X84946247Y-54867142D02*
X84851009Y-54819523D01*
X84851009Y-54819523D02*
X84803390Y-54771904D01*
X84803390Y-54771904D02*
X84755771Y-54676666D01*
X84755771Y-54676666D02*
X84755771Y-54486190D01*
X84755771Y-54486190D02*
X84803390Y-54390952D01*
X84803390Y-54390952D02*
X84851009Y-54343333D01*
X84851009Y-54343333D02*
X84946247Y-54295714D01*
X85374819Y-55295714D02*
X84374819Y-55295714D01*
X84993866Y-55390952D02*
X85374819Y-55676666D01*
X84708152Y-55676666D02*
X85089104Y-55295714D01*
D12*
X83868200Y-54466667D02*
X83744391Y-54380000D01*
X83868200Y-54318095D02*
X83608200Y-54318095D01*
X83608200Y-54318095D02*
X83608200Y-54417143D01*
X83608200Y-54417143D02*
X83620581Y-54441905D01*
X83620581Y-54441905D02*
X83632962Y-54454286D01*
X83632962Y-54454286D02*
X83657724Y-54466667D01*
X83657724Y-54466667D02*
X83694867Y-54466667D01*
X83694867Y-54466667D02*
X83719629Y-54454286D01*
X83719629Y-54454286D02*
X83732010Y-54441905D01*
X83732010Y-54441905D02*
X83744391Y-54417143D01*
X83744391Y-54417143D02*
X83744391Y-54318095D01*
X83694867Y-54689524D02*
X83868200Y-54689524D01*
X83595820Y-54627619D02*
X83781534Y-54565714D01*
X83781534Y-54565714D02*
X83781534Y-54726667D01*
D10*
X54620057Y-63547619D02*
X54572438Y-63595238D01*
X54572438Y-63595238D02*
X54524819Y-63690476D01*
X54524819Y-63690476D02*
X54524819Y-63928571D01*
X54524819Y-63928571D02*
X54572438Y-64023809D01*
X54572438Y-64023809D02*
X54620057Y-64071428D01*
X54620057Y-64071428D02*
X54715295Y-64119047D01*
X54715295Y-64119047D02*
X54810533Y-64119047D01*
X54810533Y-64119047D02*
X54953390Y-64071428D01*
X54953390Y-64071428D02*
X55524819Y-63500000D01*
X55524819Y-63500000D02*
X55524819Y-64119047D01*
X55429580Y-64547619D02*
X55477200Y-64595238D01*
X55477200Y-64595238D02*
X55524819Y-64547619D01*
X55524819Y-64547619D02*
X55477200Y-64500000D01*
X55477200Y-64500000D02*
X55429580Y-64547619D01*
X55429580Y-64547619D02*
X55524819Y-64547619D01*
X54620057Y-64976190D02*
X54572438Y-65023809D01*
X54572438Y-65023809D02*
X54524819Y-65119047D01*
X54524819Y-65119047D02*
X54524819Y-65357142D01*
X54524819Y-65357142D02*
X54572438Y-65452380D01*
X54572438Y-65452380D02*
X54620057Y-65499999D01*
X54620057Y-65499999D02*
X54715295Y-65547618D01*
X54715295Y-65547618D02*
X54810533Y-65547618D01*
X54810533Y-65547618D02*
X54953390Y-65499999D01*
X54953390Y-65499999D02*
X55524819Y-64928571D01*
X55524819Y-64928571D02*
X55524819Y-65547618D01*
X54858152Y-66404761D02*
X55524819Y-66404761D01*
X54858152Y-65976190D02*
X55381961Y-65976190D01*
X55381961Y-65976190D02*
X55477200Y-66023809D01*
X55477200Y-66023809D02*
X55524819Y-66119047D01*
X55524819Y-66119047D02*
X55524819Y-66261904D01*
X55524819Y-66261904D02*
X55477200Y-66357142D01*
X55477200Y-66357142D02*
X55429580Y-66404761D01*
D13*
X56643832Y-64933333D02*
X56662880Y-64914285D01*
X56662880Y-64914285D02*
X56681927Y-64857143D01*
X56681927Y-64857143D02*
X56681927Y-64819047D01*
X56681927Y-64819047D02*
X56662880Y-64761904D01*
X56662880Y-64761904D02*
X56624784Y-64723809D01*
X56624784Y-64723809D02*
X56586689Y-64704762D01*
X56586689Y-64704762D02*
X56510499Y-64685714D01*
X56510499Y-64685714D02*
X56453356Y-64685714D01*
X56453356Y-64685714D02*
X56377165Y-64704762D01*
X56377165Y-64704762D02*
X56339070Y-64723809D01*
X56339070Y-64723809D02*
X56300975Y-64761904D01*
X56300975Y-64761904D02*
X56281927Y-64819047D01*
X56281927Y-64819047D02*
X56281927Y-64857143D01*
X56281927Y-64857143D02*
X56300975Y-64914285D01*
X56300975Y-64914285D02*
X56320022Y-64933333D01*
X56281927Y-65276190D02*
X56281927Y-65200000D01*
X56281927Y-65200000D02*
X56300975Y-65161904D01*
X56300975Y-65161904D02*
X56320022Y-65142857D01*
X56320022Y-65142857D02*
X56377165Y-65104762D01*
X56377165Y-65104762D02*
X56453356Y-65085714D01*
X56453356Y-65085714D02*
X56605737Y-65085714D01*
X56605737Y-65085714D02*
X56643832Y-65104762D01*
X56643832Y-65104762D02*
X56662880Y-65123809D01*
X56662880Y-65123809D02*
X56681927Y-65161904D01*
X56681927Y-65161904D02*
X56681927Y-65238095D01*
X56681927Y-65238095D02*
X56662880Y-65276190D01*
X56662880Y-65276190D02*
X56643832Y-65295238D01*
X56643832Y-65295238D02*
X56605737Y-65314285D01*
X56605737Y-65314285D02*
X56510499Y-65314285D01*
X56510499Y-65314285D02*
X56472403Y-65295238D01*
X56472403Y-65295238D02*
X56453356Y-65276190D01*
X56453356Y-65276190D02*
X56434308Y-65238095D01*
X56434308Y-65238095D02*
X56434308Y-65161904D01*
X56434308Y-65161904D02*
X56453356Y-65123809D01*
X56453356Y-65123809D02*
X56472403Y-65104762D01*
X56472403Y-65104762D02*
X56510499Y-65085714D01*
D10*
X85366666Y-64774819D02*
X85938094Y-64774819D01*
X85652380Y-64774819D02*
X85652380Y-63774819D01*
X85652380Y-63774819D02*
X85747618Y-63917676D01*
X85747618Y-63917676D02*
X85842856Y-64012914D01*
X85842856Y-64012914D02*
X85938094Y-64060533D01*
X84509523Y-64108152D02*
X84509523Y-64774819D01*
X84938094Y-64108152D02*
X84938094Y-64631961D01*
X84938094Y-64631961D02*
X84890475Y-64727200D01*
X84890475Y-64727200D02*
X84795237Y-64774819D01*
X84795237Y-64774819D02*
X84652380Y-64774819D01*
X84652380Y-64774819D02*
X84557142Y-64727200D01*
X84557142Y-64727200D02*
X84509523Y-64679580D01*
D11*
X85283333Y-66179530D02*
X85307142Y-66203340D01*
X85307142Y-66203340D02*
X85378571Y-66227149D01*
X85378571Y-66227149D02*
X85426190Y-66227149D01*
X85426190Y-66227149D02*
X85497618Y-66203340D01*
X85497618Y-66203340D02*
X85545237Y-66155720D01*
X85545237Y-66155720D02*
X85569047Y-66108101D01*
X85569047Y-66108101D02*
X85592856Y-66012863D01*
X85592856Y-66012863D02*
X85592856Y-65941435D01*
X85592856Y-65941435D02*
X85569047Y-65846197D01*
X85569047Y-65846197D02*
X85545237Y-65798578D01*
X85545237Y-65798578D02*
X85497618Y-65750959D01*
X85497618Y-65750959D02*
X85426190Y-65727149D01*
X85426190Y-65727149D02*
X85378571Y-65727149D01*
X85378571Y-65727149D02*
X85307142Y-65750959D01*
X85307142Y-65750959D02*
X85283333Y-65774768D01*
X84807142Y-66227149D02*
X85092856Y-66227149D01*
X84949999Y-66227149D02*
X84949999Y-65727149D01*
X84949999Y-65727149D02*
X84997618Y-65798578D01*
X84997618Y-65798578D02*
X85045237Y-65846197D01*
X85045237Y-65846197D02*
X85092856Y-65870006D01*
D10*
X82464285Y-59384819D02*
X83035713Y-59384819D01*
X82749999Y-59384819D02*
X82749999Y-58384819D01*
X82749999Y-58384819D02*
X82845237Y-58527676D01*
X82845237Y-58527676D02*
X82940475Y-58622914D01*
X82940475Y-58622914D02*
X83035713Y-58670533D01*
D13*
X82816666Y-57681927D02*
X82949999Y-57491451D01*
X83045237Y-57681927D02*
X83045237Y-57281927D01*
X83045237Y-57281927D02*
X82892856Y-57281927D01*
X82892856Y-57281927D02*
X82854761Y-57300975D01*
X82854761Y-57300975D02*
X82835714Y-57320022D01*
X82835714Y-57320022D02*
X82816666Y-57358118D01*
X82816666Y-57358118D02*
X82816666Y-57415260D01*
X82816666Y-57415260D02*
X82835714Y-57453356D01*
X82835714Y-57453356D02*
X82854761Y-57472403D01*
X82854761Y-57472403D02*
X82892856Y-57491451D01*
X82892856Y-57491451D02*
X83045237Y-57491451D01*
X82683333Y-57281927D02*
X82416666Y-57281927D01*
X82416666Y-57281927D02*
X82588095Y-57681927D01*
D10*
X82477380Y-65400057D02*
X82429761Y-65352438D01*
X82429761Y-65352438D02*
X82334523Y-65304819D01*
X82334523Y-65304819D02*
X82096428Y-65304819D01*
X82096428Y-65304819D02*
X82001190Y-65352438D01*
X82001190Y-65352438D02*
X81953571Y-65400057D01*
X81953571Y-65400057D02*
X81905952Y-65495295D01*
X81905952Y-65495295D02*
X81905952Y-65590533D01*
X81905952Y-65590533D02*
X81953571Y-65733390D01*
X81953571Y-65733390D02*
X82524999Y-66304819D01*
X82524999Y-66304819D02*
X81905952Y-66304819D01*
X81477380Y-66209580D02*
X81429761Y-66257200D01*
X81429761Y-66257200D02*
X81477380Y-66304819D01*
X81477380Y-66304819D02*
X81524999Y-66257200D01*
X81524999Y-66257200D02*
X81477380Y-66209580D01*
X81477380Y-66209580D02*
X81477380Y-66304819D01*
X81048809Y-65400057D02*
X81001190Y-65352438D01*
X81001190Y-65352438D02*
X80905952Y-65304819D01*
X80905952Y-65304819D02*
X80667857Y-65304819D01*
X80667857Y-65304819D02*
X80572619Y-65352438D01*
X80572619Y-65352438D02*
X80525000Y-65400057D01*
X80525000Y-65400057D02*
X80477381Y-65495295D01*
X80477381Y-65495295D02*
X80477381Y-65590533D01*
X80477381Y-65590533D02*
X80525000Y-65733390D01*
X80525000Y-65733390D02*
X81096428Y-66304819D01*
X81096428Y-66304819D02*
X80477381Y-66304819D01*
X79620238Y-65638152D02*
X79620238Y-66304819D01*
X80048809Y-65638152D02*
X80048809Y-66161961D01*
X80048809Y-66161961D02*
X80001190Y-66257200D01*
X80001190Y-66257200D02*
X79905952Y-66304819D01*
X79905952Y-66304819D02*
X79763095Y-66304819D01*
X79763095Y-66304819D02*
X79667857Y-66257200D01*
X79667857Y-66257200D02*
X79620238Y-66209580D01*
D15*
X81158332Y-64287664D02*
X81196428Y-64325760D01*
X81196428Y-64325760D02*
X81310713Y-64363855D01*
X81310713Y-64363855D02*
X81386904Y-64363855D01*
X81386904Y-64363855D02*
X81501190Y-64325760D01*
X81501190Y-64325760D02*
X81577380Y-64249569D01*
X81577380Y-64249569D02*
X81615475Y-64173379D01*
X81615475Y-64173379D02*
X81653571Y-64020998D01*
X81653571Y-64020998D02*
X81653571Y-63906712D01*
X81653571Y-63906712D02*
X81615475Y-63754331D01*
X81615475Y-63754331D02*
X81577380Y-63678140D01*
X81577380Y-63678140D02*
X81501190Y-63601950D01*
X81501190Y-63601950D02*
X81386904Y-63563855D01*
X81386904Y-63563855D02*
X81310713Y-63563855D01*
X81310713Y-63563855D02*
X81196428Y-63601950D01*
X81196428Y-63601950D02*
X81158332Y-63640045D01*
X80853571Y-63640045D02*
X80815475Y-63601950D01*
X80815475Y-63601950D02*
X80739285Y-63563855D01*
X80739285Y-63563855D02*
X80548809Y-63563855D01*
X80548809Y-63563855D02*
X80472618Y-63601950D01*
X80472618Y-63601950D02*
X80434523Y-63640045D01*
X80434523Y-63640045D02*
X80396428Y-63716236D01*
X80396428Y-63716236D02*
X80396428Y-63792426D01*
X80396428Y-63792426D02*
X80434523Y-63906712D01*
X80434523Y-63906712D02*
X80891666Y-64363855D01*
X80891666Y-64363855D02*
X80396428Y-64363855D01*
D10*
X55582857Y-73411569D02*
X56154285Y-73411569D01*
X55868571Y-73411569D02*
X55868571Y-72411569D01*
X55868571Y-72411569D02*
X55963809Y-72554426D01*
X55963809Y-72554426D02*
X56059047Y-72649664D01*
X56059047Y-72649664D02*
X56154285Y-72697283D01*
X54963809Y-72411569D02*
X54868571Y-72411569D01*
X54868571Y-72411569D02*
X54773333Y-72459188D01*
X54773333Y-72459188D02*
X54725714Y-72506807D01*
X54725714Y-72506807D02*
X54678095Y-72602045D01*
X54678095Y-72602045D02*
X54630476Y-72792521D01*
X54630476Y-72792521D02*
X54630476Y-73030616D01*
X54630476Y-73030616D02*
X54678095Y-73221092D01*
X54678095Y-73221092D02*
X54725714Y-73316330D01*
X54725714Y-73316330D02*
X54773333Y-73363950D01*
X54773333Y-73363950D02*
X54868571Y-73411569D01*
X54868571Y-73411569D02*
X54963809Y-73411569D01*
X54963809Y-73411569D02*
X55059047Y-73363950D01*
X55059047Y-73363950D02*
X55106666Y-73316330D01*
X55106666Y-73316330D02*
X55154285Y-73221092D01*
X55154285Y-73221092D02*
X55201904Y-73030616D01*
X55201904Y-73030616D02*
X55201904Y-72792521D01*
X55201904Y-72792521D02*
X55154285Y-72602045D01*
X55154285Y-72602045D02*
X55106666Y-72506807D01*
X55106666Y-72506807D02*
X55059047Y-72459188D01*
X55059047Y-72459188D02*
X54963809Y-72411569D01*
X53773333Y-72744902D02*
X53773333Y-73411569D01*
X54201904Y-72744902D02*
X54201904Y-73268711D01*
X54201904Y-73268711D02*
X54154285Y-73363950D01*
X54154285Y-73363950D02*
X54059047Y-73411569D01*
X54059047Y-73411569D02*
X53916190Y-73411569D01*
X53916190Y-73411569D02*
X53820952Y-73363950D01*
X53820952Y-73363950D02*
X53773333Y-73316330D01*
D15*
X55073332Y-70944414D02*
X55111428Y-70982510D01*
X55111428Y-70982510D02*
X55225713Y-71020605D01*
X55225713Y-71020605D02*
X55301904Y-71020605D01*
X55301904Y-71020605D02*
X55416190Y-70982510D01*
X55416190Y-70982510D02*
X55492380Y-70906319D01*
X55492380Y-70906319D02*
X55530475Y-70830129D01*
X55530475Y-70830129D02*
X55568571Y-70677748D01*
X55568571Y-70677748D02*
X55568571Y-70563462D01*
X55568571Y-70563462D02*
X55530475Y-70411081D01*
X55530475Y-70411081D02*
X55492380Y-70334890D01*
X55492380Y-70334890D02*
X55416190Y-70258700D01*
X55416190Y-70258700D02*
X55301904Y-70220605D01*
X55301904Y-70220605D02*
X55225713Y-70220605D01*
X55225713Y-70220605D02*
X55111428Y-70258700D01*
X55111428Y-70258700D02*
X55073332Y-70296795D01*
X54692380Y-71020605D02*
X54539999Y-71020605D01*
X54539999Y-71020605D02*
X54463809Y-70982510D01*
X54463809Y-70982510D02*
X54425713Y-70944414D01*
X54425713Y-70944414D02*
X54349523Y-70830129D01*
X54349523Y-70830129D02*
X54311428Y-70677748D01*
X54311428Y-70677748D02*
X54311428Y-70372986D01*
X54311428Y-70372986D02*
X54349523Y-70296795D01*
X54349523Y-70296795D02*
X54387618Y-70258700D01*
X54387618Y-70258700D02*
X54463809Y-70220605D01*
X54463809Y-70220605D02*
X54616190Y-70220605D01*
X54616190Y-70220605D02*
X54692380Y-70258700D01*
X54692380Y-70258700D02*
X54730475Y-70296795D01*
X54730475Y-70296795D02*
X54768571Y-70372986D01*
X54768571Y-70372986D02*
X54768571Y-70563462D01*
X54768571Y-70563462D02*
X54730475Y-70639652D01*
X54730475Y-70639652D02*
X54692380Y-70677748D01*
X54692380Y-70677748D02*
X54616190Y-70715843D01*
X54616190Y-70715843D02*
X54463809Y-70715843D01*
X54463809Y-70715843D02*
X54387618Y-70677748D01*
X54387618Y-70677748D02*
X54349523Y-70639652D01*
X54349523Y-70639652D02*
X54311428Y-70563462D01*
D10*
X53498820Y-55088095D02*
X53498820Y-54611905D01*
X53498820Y-54611905D02*
X52498820Y-54611905D01*
X53498820Y-55421429D02*
X52498820Y-55421429D01*
X52498820Y-55421429D02*
X53213105Y-55754762D01*
X53213105Y-55754762D02*
X52498820Y-56088095D01*
X52498820Y-56088095D02*
X53498820Y-56088095D01*
X52594058Y-56516667D02*
X52546439Y-56564286D01*
X52546439Y-56564286D02*
X52498820Y-56659524D01*
X52498820Y-56659524D02*
X52498820Y-56897619D01*
X52498820Y-56897619D02*
X52546439Y-56992857D01*
X52546439Y-56992857D02*
X52594058Y-57040476D01*
X52594058Y-57040476D02*
X52689296Y-57088095D01*
X52689296Y-57088095D02*
X52784534Y-57088095D01*
X52784534Y-57088095D02*
X52927391Y-57040476D01*
X52927391Y-57040476D02*
X53498820Y-56469048D01*
X53498820Y-56469048D02*
X53498820Y-57088095D01*
X52498820Y-57945238D02*
X52498820Y-57754762D01*
X52498820Y-57754762D02*
X52546439Y-57659524D01*
X52546439Y-57659524D02*
X52594058Y-57611905D01*
X52594058Y-57611905D02*
X52736915Y-57516667D01*
X52736915Y-57516667D02*
X52927391Y-57469048D01*
X52927391Y-57469048D02*
X53308343Y-57469048D01*
X53308343Y-57469048D02*
X53403581Y-57516667D01*
X53403581Y-57516667D02*
X53451201Y-57564286D01*
X53451201Y-57564286D02*
X53498820Y-57659524D01*
X53498820Y-57659524D02*
X53498820Y-57850000D01*
X53498820Y-57850000D02*
X53451201Y-57945238D01*
X53451201Y-57945238D02*
X53403581Y-57992857D01*
X53403581Y-57992857D02*
X53308343Y-58040476D01*
X53308343Y-58040476D02*
X53070248Y-58040476D01*
X53070248Y-58040476D02*
X52975010Y-57992857D01*
X52975010Y-57992857D02*
X52927391Y-57945238D01*
X52927391Y-57945238D02*
X52879772Y-57850000D01*
X52879772Y-57850000D02*
X52879772Y-57659524D01*
X52879772Y-57659524D02*
X52927391Y-57564286D01*
X52927391Y-57564286D02*
X52975010Y-57516667D01*
X52975010Y-57516667D02*
X53070248Y-57469048D01*
X52498820Y-58897619D02*
X52498820Y-58707143D01*
X52498820Y-58707143D02*
X52546439Y-58611905D01*
X52546439Y-58611905D02*
X52594058Y-58564286D01*
X52594058Y-58564286D02*
X52736915Y-58469048D01*
X52736915Y-58469048D02*
X52927391Y-58421429D01*
X52927391Y-58421429D02*
X53308343Y-58421429D01*
X53308343Y-58421429D02*
X53403581Y-58469048D01*
X53403581Y-58469048D02*
X53451201Y-58516667D01*
X53451201Y-58516667D02*
X53498820Y-58611905D01*
X53498820Y-58611905D02*
X53498820Y-58802381D01*
X53498820Y-58802381D02*
X53451201Y-58897619D01*
X53451201Y-58897619D02*
X53403581Y-58945238D01*
X53403581Y-58945238D02*
X53308343Y-58992857D01*
X53308343Y-58992857D02*
X53070248Y-58992857D01*
X53070248Y-58992857D02*
X52975010Y-58945238D01*
X52975010Y-58945238D02*
X52927391Y-58897619D01*
X52927391Y-58897619D02*
X52879772Y-58802381D01*
X52879772Y-58802381D02*
X52879772Y-58611905D01*
X52879772Y-58611905D02*
X52927391Y-58516667D01*
X52927391Y-58516667D02*
X52975010Y-58469048D01*
X52975010Y-58469048D02*
X53070248Y-58421429D01*
X52832153Y-59850000D02*
X53498820Y-59850000D01*
X52451201Y-59611905D02*
X53165486Y-59373810D01*
X53165486Y-59373810D02*
X53165486Y-59992857D01*
X53498820Y-60373810D02*
X52498820Y-60373810D01*
X52498820Y-60373810D02*
X53213105Y-60707143D01*
X53213105Y-60707143D02*
X52498820Y-61040476D01*
X52498820Y-61040476D02*
X53498820Y-61040476D01*
X52498820Y-61945238D02*
X52498820Y-61754762D01*
X52498820Y-61754762D02*
X52546439Y-61659524D01*
X52546439Y-61659524D02*
X52594058Y-61611905D01*
X52594058Y-61611905D02*
X52736915Y-61516667D01*
X52736915Y-61516667D02*
X52927391Y-61469048D01*
X52927391Y-61469048D02*
X53308343Y-61469048D01*
X53308343Y-61469048D02*
X53403581Y-61516667D01*
X53403581Y-61516667D02*
X53451201Y-61564286D01*
X53451201Y-61564286D02*
X53498820Y-61659524D01*
X53498820Y-61659524D02*
X53498820Y-61850000D01*
X53498820Y-61850000D02*
X53451201Y-61945238D01*
X53451201Y-61945238D02*
X53403581Y-61992857D01*
X53403581Y-61992857D02*
X53308343Y-62040476D01*
X53308343Y-62040476D02*
X53070248Y-62040476D01*
X53070248Y-62040476D02*
X52975010Y-61992857D01*
X52975010Y-61992857D02*
X52927391Y-61945238D01*
X52927391Y-61945238D02*
X52879772Y-61850000D01*
X52879772Y-61850000D02*
X52879772Y-61659524D01*
X52879772Y-61659524D02*
X52927391Y-61564286D01*
X52927391Y-61564286D02*
X52975010Y-61516667D01*
X52975010Y-61516667D02*
X53070248Y-61469048D01*
X52498820Y-62373810D02*
X53498820Y-63040476D01*
X52498820Y-63040476D02*
X53498820Y-62373810D01*
X52451201Y-64135714D02*
X53736915Y-63278572D01*
X53498820Y-64469048D02*
X52498820Y-64469048D01*
X52498820Y-64469048D02*
X53498820Y-65040476D01*
X53498820Y-65040476D02*
X52498820Y-65040476D01*
X52498820Y-65707143D02*
X52498820Y-65897619D01*
X52498820Y-65897619D02*
X52546439Y-65992857D01*
X52546439Y-65992857D02*
X52641677Y-66088095D01*
X52641677Y-66088095D02*
X52832153Y-66135714D01*
X52832153Y-66135714D02*
X53165486Y-66135714D01*
X53165486Y-66135714D02*
X53355962Y-66088095D01*
X53355962Y-66088095D02*
X53451201Y-65992857D01*
X53451201Y-65992857D02*
X53498820Y-65897619D01*
X53498820Y-65897619D02*
X53498820Y-65707143D01*
X53498820Y-65707143D02*
X53451201Y-65611905D01*
X53451201Y-65611905D02*
X53355962Y-65516667D01*
X53355962Y-65516667D02*
X53165486Y-65469048D01*
X53165486Y-65469048D02*
X52832153Y-65469048D01*
X52832153Y-65469048D02*
X52641677Y-65516667D01*
X52641677Y-65516667D02*
X52546439Y-65611905D01*
X52546439Y-65611905D02*
X52498820Y-65707143D01*
X53498820Y-66564286D02*
X52498820Y-66564286D01*
X52498820Y-66564286D02*
X52498820Y-66945238D01*
X52498820Y-66945238D02*
X52546439Y-67040476D01*
X52546439Y-67040476D02*
X52594058Y-67088095D01*
X52594058Y-67088095D02*
X52689296Y-67135714D01*
X52689296Y-67135714D02*
X52832153Y-67135714D01*
X52832153Y-67135714D02*
X52927391Y-67088095D01*
X52927391Y-67088095D02*
X52975010Y-67040476D01*
X52975010Y-67040476D02*
X53022629Y-66945238D01*
X53022629Y-66945238D02*
X53022629Y-66564286D01*
X52975010Y-67897619D02*
X53022629Y-68040476D01*
X53022629Y-68040476D02*
X53070248Y-68088095D01*
X53070248Y-68088095D02*
X53165486Y-68135714D01*
X53165486Y-68135714D02*
X53308343Y-68135714D01*
X53308343Y-68135714D02*
X53403581Y-68088095D01*
X53403581Y-68088095D02*
X53451201Y-68040476D01*
X53451201Y-68040476D02*
X53498820Y-67945238D01*
X53498820Y-67945238D02*
X53498820Y-67564286D01*
X53498820Y-67564286D02*
X52498820Y-67564286D01*
X52498820Y-67564286D02*
X52498820Y-67897619D01*
X52498820Y-67897619D02*
X52546439Y-67992857D01*
X52546439Y-67992857D02*
X52594058Y-68040476D01*
X52594058Y-68040476D02*
X52689296Y-68088095D01*
X52689296Y-68088095D02*
X52784534Y-68088095D01*
X52784534Y-68088095D02*
X52879772Y-68040476D01*
X52879772Y-68040476D02*
X52927391Y-67992857D01*
X52927391Y-67992857D02*
X52975010Y-67897619D01*
X52975010Y-67897619D02*
X52975010Y-67564286D01*
D13*
X55225928Y-61045238D02*
X55549738Y-61045238D01*
X55549738Y-61045238D02*
X55587833Y-61064285D01*
X55587833Y-61064285D02*
X55606881Y-61083333D01*
X55606881Y-61083333D02*
X55625928Y-61121428D01*
X55625928Y-61121428D02*
X55625928Y-61197619D01*
X55625928Y-61197619D02*
X55606881Y-61235714D01*
X55606881Y-61235714D02*
X55587833Y-61254761D01*
X55587833Y-61254761D02*
X55549738Y-61273809D01*
X55549738Y-61273809D02*
X55225928Y-61273809D01*
X55264023Y-61445238D02*
X55244976Y-61464286D01*
X55244976Y-61464286D02*
X55225928Y-61502381D01*
X55225928Y-61502381D02*
X55225928Y-61597619D01*
X55225928Y-61597619D02*
X55244976Y-61635714D01*
X55244976Y-61635714D02*
X55264023Y-61654762D01*
X55264023Y-61654762D02*
X55302119Y-61673809D01*
X55302119Y-61673809D02*
X55340214Y-61673809D01*
X55340214Y-61673809D02*
X55397357Y-61654762D01*
X55397357Y-61654762D02*
X55625928Y-61426190D01*
X55625928Y-61426190D02*
X55625928Y-61673809D01*
D10*
X54628917Y-57524819D02*
X55200345Y-57524819D01*
X54914631Y-57524819D02*
X54914631Y-56524819D01*
X54914631Y-56524819D02*
X55009869Y-56667676D01*
X55009869Y-56667676D02*
X55105107Y-56762914D01*
X55105107Y-56762914D02*
X55200345Y-56810533D01*
X53771774Y-56858152D02*
X53771774Y-57524819D01*
X54200345Y-56858152D02*
X54200345Y-57381961D01*
X54200345Y-57381961D02*
X54152726Y-57477200D01*
X54152726Y-57477200D02*
X54057488Y-57524819D01*
X54057488Y-57524819D02*
X53914631Y-57524819D01*
X53914631Y-57524819D02*
X53819393Y-57477200D01*
X53819393Y-57477200D02*
X53771774Y-57429580D01*
D13*
X54528917Y-58643832D02*
X54547965Y-58662880D01*
X54547965Y-58662880D02*
X54605107Y-58681927D01*
X54605107Y-58681927D02*
X54643203Y-58681927D01*
X54643203Y-58681927D02*
X54700346Y-58662880D01*
X54700346Y-58662880D02*
X54738441Y-58624784D01*
X54738441Y-58624784D02*
X54757488Y-58586689D01*
X54757488Y-58586689D02*
X54776536Y-58510499D01*
X54776536Y-58510499D02*
X54776536Y-58453356D01*
X54776536Y-58453356D02*
X54757488Y-58377165D01*
X54757488Y-58377165D02*
X54738441Y-58339070D01*
X54738441Y-58339070D02*
X54700346Y-58300975D01*
X54700346Y-58300975D02*
X54643203Y-58281927D01*
X54643203Y-58281927D02*
X54605107Y-58281927D01*
X54605107Y-58281927D02*
X54547965Y-58300975D01*
X54547965Y-58300975D02*
X54528917Y-58320022D01*
X54186060Y-58415260D02*
X54186060Y-58681927D01*
X54281298Y-58262880D02*
X54376536Y-58548594D01*
X54376536Y-58548594D02*
X54128917Y-58548594D01*
D10*
X83801190Y-53813390D02*
X83896428Y-53765771D01*
X83896428Y-53765771D02*
X83944047Y-53718152D01*
X83944047Y-53718152D02*
X83991666Y-53622914D01*
X83991666Y-53622914D02*
X83991666Y-53575295D01*
X83991666Y-53575295D02*
X83944047Y-53480057D01*
X83944047Y-53480057D02*
X83896428Y-53432438D01*
X83896428Y-53432438D02*
X83801190Y-53384819D01*
X83801190Y-53384819D02*
X83610714Y-53384819D01*
X83610714Y-53384819D02*
X83515476Y-53432438D01*
X83515476Y-53432438D02*
X83467857Y-53480057D01*
X83467857Y-53480057D02*
X83420238Y-53575295D01*
X83420238Y-53575295D02*
X83420238Y-53622914D01*
X83420238Y-53622914D02*
X83467857Y-53718152D01*
X83467857Y-53718152D02*
X83515476Y-53765771D01*
X83515476Y-53765771D02*
X83610714Y-53813390D01*
X83610714Y-53813390D02*
X83801190Y-53813390D01*
X83801190Y-53813390D02*
X83896428Y-53861009D01*
X83896428Y-53861009D02*
X83944047Y-53908628D01*
X83944047Y-53908628D02*
X83991666Y-54003866D01*
X83991666Y-54003866D02*
X83991666Y-54194342D01*
X83991666Y-54194342D02*
X83944047Y-54289580D01*
X83944047Y-54289580D02*
X83896428Y-54337200D01*
X83896428Y-54337200D02*
X83801190Y-54384819D01*
X83801190Y-54384819D02*
X83610714Y-54384819D01*
X83610714Y-54384819D02*
X83515476Y-54337200D01*
X83515476Y-54337200D02*
X83467857Y-54289580D01*
X83467857Y-54289580D02*
X83420238Y-54194342D01*
X83420238Y-54194342D02*
X83420238Y-54003866D01*
X83420238Y-54003866D02*
X83467857Y-53908628D01*
X83467857Y-53908628D02*
X83515476Y-53861009D01*
X83515476Y-53861009D02*
X83610714Y-53813390D01*
X83039285Y-53480057D02*
X82991666Y-53432438D01*
X82991666Y-53432438D02*
X82896428Y-53384819D01*
X82896428Y-53384819D02*
X82658333Y-53384819D01*
X82658333Y-53384819D02*
X82563095Y-53432438D01*
X82563095Y-53432438D02*
X82515476Y-53480057D01*
X82515476Y-53480057D02*
X82467857Y-53575295D01*
X82467857Y-53575295D02*
X82467857Y-53670533D01*
X82467857Y-53670533D02*
X82515476Y-53813390D01*
X82515476Y-53813390D02*
X83086904Y-54384819D01*
X83086904Y-54384819D02*
X82467857Y-54384819D01*
X82039285Y-54384819D02*
X82039285Y-53384819D01*
X81944047Y-54003866D02*
X81658333Y-54384819D01*
X81658333Y-53718152D02*
X82039285Y-54099104D01*
D13*
X82891666Y-52681927D02*
X83024999Y-52491451D01*
X83120237Y-52681927D02*
X83120237Y-52281927D01*
X83120237Y-52281927D02*
X82967856Y-52281927D01*
X82967856Y-52281927D02*
X82929761Y-52300975D01*
X82929761Y-52300975D02*
X82910714Y-52320022D01*
X82910714Y-52320022D02*
X82891666Y-52358118D01*
X82891666Y-52358118D02*
X82891666Y-52415260D01*
X82891666Y-52415260D02*
X82910714Y-52453356D01*
X82910714Y-52453356D02*
X82929761Y-52472403D01*
X82929761Y-52472403D02*
X82967856Y-52491451D01*
X82967856Y-52491451D02*
X83120237Y-52491451D01*
X82663095Y-52453356D02*
X82701190Y-52434308D01*
X82701190Y-52434308D02*
X82720237Y-52415260D01*
X82720237Y-52415260D02*
X82739285Y-52377165D01*
X82739285Y-52377165D02*
X82739285Y-52358118D01*
X82739285Y-52358118D02*
X82720237Y-52320022D01*
X82720237Y-52320022D02*
X82701190Y-52300975D01*
X82701190Y-52300975D02*
X82663095Y-52281927D01*
X82663095Y-52281927D02*
X82586904Y-52281927D01*
X82586904Y-52281927D02*
X82548809Y-52300975D01*
X82548809Y-52300975D02*
X82529761Y-52320022D01*
X82529761Y-52320022D02*
X82510714Y-52358118D01*
X82510714Y-52358118D02*
X82510714Y-52377165D01*
X82510714Y-52377165D02*
X82529761Y-52415260D01*
X82529761Y-52415260D02*
X82548809Y-52434308D01*
X82548809Y-52434308D02*
X82586904Y-52453356D01*
X82586904Y-52453356D02*
X82663095Y-52453356D01*
X82663095Y-52453356D02*
X82701190Y-52472403D01*
X82701190Y-52472403D02*
X82720237Y-52491451D01*
X82720237Y-52491451D02*
X82739285Y-52529546D01*
X82739285Y-52529546D02*
X82739285Y-52605737D01*
X82739285Y-52605737D02*
X82720237Y-52643832D01*
X82720237Y-52643832D02*
X82701190Y-52662880D01*
X82701190Y-52662880D02*
X82663095Y-52681927D01*
X82663095Y-52681927D02*
X82586904Y-52681927D01*
X82586904Y-52681927D02*
X82548809Y-52662880D01*
X82548809Y-52662880D02*
X82529761Y-52643832D01*
X82529761Y-52643832D02*
X82510714Y-52605737D01*
X82510714Y-52605737D02*
X82510714Y-52529546D01*
X82510714Y-52529546D02*
X82529761Y-52491451D01*
X82529761Y-52491451D02*
X82548809Y-52472403D01*
X82548809Y-52472403D02*
X82586904Y-52453356D01*
D10*
X79849047Y-59044819D02*
X80420475Y-59044819D01*
X80134761Y-59044819D02*
X80134761Y-58044819D01*
X80134761Y-58044819D02*
X80229999Y-58187676D01*
X80229999Y-58187676D02*
X80325237Y-58282914D01*
X80325237Y-58282914D02*
X80420475Y-58330533D01*
X79229999Y-58044819D02*
X79134761Y-58044819D01*
X79134761Y-58044819D02*
X79039523Y-58092438D01*
X79039523Y-58092438D02*
X78991904Y-58140057D01*
X78991904Y-58140057D02*
X78944285Y-58235295D01*
X78944285Y-58235295D02*
X78896666Y-58425771D01*
X78896666Y-58425771D02*
X78896666Y-58663866D01*
X78896666Y-58663866D02*
X78944285Y-58854342D01*
X78944285Y-58854342D02*
X78991904Y-58949580D01*
X78991904Y-58949580D02*
X79039523Y-58997200D01*
X79039523Y-58997200D02*
X79134761Y-59044819D01*
X79134761Y-59044819D02*
X79229999Y-59044819D01*
X79229999Y-59044819D02*
X79325237Y-58997200D01*
X79325237Y-58997200D02*
X79372856Y-58949580D01*
X79372856Y-58949580D02*
X79420475Y-58854342D01*
X79420475Y-58854342D02*
X79468094Y-58663866D01*
X79468094Y-58663866D02*
X79468094Y-58425771D01*
X79468094Y-58425771D02*
X79420475Y-58235295D01*
X79420475Y-58235295D02*
X79372856Y-58140057D01*
X79372856Y-58140057D02*
X79325237Y-58092438D01*
X79325237Y-58092438D02*
X79229999Y-58044819D01*
X78277618Y-58044819D02*
X78182380Y-58044819D01*
X78182380Y-58044819D02*
X78087142Y-58092438D01*
X78087142Y-58092438D02*
X78039523Y-58140057D01*
X78039523Y-58140057D02*
X77991904Y-58235295D01*
X77991904Y-58235295D02*
X77944285Y-58425771D01*
X77944285Y-58425771D02*
X77944285Y-58663866D01*
X77944285Y-58663866D02*
X77991904Y-58854342D01*
X77991904Y-58854342D02*
X78039523Y-58949580D01*
X78039523Y-58949580D02*
X78087142Y-58997200D01*
X78087142Y-58997200D02*
X78182380Y-59044819D01*
X78182380Y-59044819D02*
X78277618Y-59044819D01*
X78277618Y-59044819D02*
X78372856Y-58997200D01*
X78372856Y-58997200D02*
X78420475Y-58949580D01*
X78420475Y-58949580D02*
X78468094Y-58854342D01*
X78468094Y-58854342D02*
X78515713Y-58663866D01*
X78515713Y-58663866D02*
X78515713Y-58425771D01*
X78515713Y-58425771D02*
X78468094Y-58235295D01*
X78468094Y-58235295D02*
X78420475Y-58140057D01*
X78420475Y-58140057D02*
X78372856Y-58092438D01*
X78372856Y-58092438D02*
X78277618Y-58044819D01*
X77515713Y-58378152D02*
X77515713Y-59378152D01*
X77515713Y-58425771D02*
X77420475Y-58378152D01*
X77420475Y-58378152D02*
X77229999Y-58378152D01*
X77229999Y-58378152D02*
X77134761Y-58425771D01*
X77134761Y-58425771D02*
X77087142Y-58473390D01*
X77087142Y-58473390D02*
X77039523Y-58568628D01*
X77039523Y-58568628D02*
X77039523Y-58854342D01*
X77039523Y-58854342D02*
X77087142Y-58949580D01*
X77087142Y-58949580D02*
X77134761Y-58997200D01*
X77134761Y-58997200D02*
X77229999Y-59044819D01*
X77229999Y-59044819D02*
X77420475Y-59044819D01*
X77420475Y-59044819D02*
X77515713Y-58997200D01*
D12*
X78771666Y-59839765D02*
X78783570Y-59851670D01*
X78783570Y-59851670D02*
X78819285Y-59863574D01*
X78819285Y-59863574D02*
X78843094Y-59863574D01*
X78843094Y-59863574D02*
X78878808Y-59851670D01*
X78878808Y-59851670D02*
X78902618Y-59827860D01*
X78902618Y-59827860D02*
X78914523Y-59804050D01*
X78914523Y-59804050D02*
X78926427Y-59756431D01*
X78926427Y-59756431D02*
X78926427Y-59720717D01*
X78926427Y-59720717D02*
X78914523Y-59673098D01*
X78914523Y-59673098D02*
X78902618Y-59649289D01*
X78902618Y-59649289D02*
X78878808Y-59625479D01*
X78878808Y-59625479D02*
X78843094Y-59613574D01*
X78843094Y-59613574D02*
X78819285Y-59613574D01*
X78819285Y-59613574D02*
X78783570Y-59625479D01*
X78783570Y-59625479D02*
X78771666Y-59637384D01*
X78688332Y-59613574D02*
X78533570Y-59613574D01*
X78533570Y-59613574D02*
X78616904Y-59708812D01*
X78616904Y-59708812D02*
X78581189Y-59708812D01*
X78581189Y-59708812D02*
X78557380Y-59720717D01*
X78557380Y-59720717D02*
X78545475Y-59732622D01*
X78545475Y-59732622D02*
X78533570Y-59756431D01*
X78533570Y-59756431D02*
X78533570Y-59815955D01*
X78533570Y-59815955D02*
X78545475Y-59839765D01*
X78545475Y-59839765D02*
X78557380Y-59851670D01*
X78557380Y-59851670D02*
X78581189Y-59863574D01*
X78581189Y-59863574D02*
X78652618Y-59863574D01*
X78652618Y-59863574D02*
X78676427Y-59851670D01*
X78676427Y-59851670D02*
X78688332Y-59839765D01*
D10*
X50579166Y-67421569D02*
X51150594Y-67421569D01*
X50864880Y-67421569D02*
X50864880Y-66421569D01*
X50864880Y-66421569D02*
X50960118Y-66564426D01*
X50960118Y-66564426D02*
X51055356Y-66659664D01*
X51055356Y-66659664D02*
X51150594Y-66707283D01*
X49722023Y-66754902D02*
X49722023Y-67421569D01*
X50150594Y-66754902D02*
X50150594Y-67278711D01*
X50150594Y-67278711D02*
X50102975Y-67373950D01*
X50102975Y-67373950D02*
X50007737Y-67421569D01*
X50007737Y-67421569D02*
X49864880Y-67421569D01*
X49864880Y-67421569D02*
X49769642Y-67373950D01*
X49769642Y-67373950D02*
X49722023Y-67326330D01*
D13*
X50479166Y-68540582D02*
X50498214Y-68559630D01*
X50498214Y-68559630D02*
X50555356Y-68578677D01*
X50555356Y-68578677D02*
X50593452Y-68578677D01*
X50593452Y-68578677D02*
X50650595Y-68559630D01*
X50650595Y-68559630D02*
X50688690Y-68521534D01*
X50688690Y-68521534D02*
X50707737Y-68483439D01*
X50707737Y-68483439D02*
X50726785Y-68407249D01*
X50726785Y-68407249D02*
X50726785Y-68350106D01*
X50726785Y-68350106D02*
X50707737Y-68273915D01*
X50707737Y-68273915D02*
X50688690Y-68235820D01*
X50688690Y-68235820D02*
X50650595Y-68197725D01*
X50650595Y-68197725D02*
X50593452Y-68178677D01*
X50593452Y-68178677D02*
X50555356Y-68178677D01*
X50555356Y-68178677D02*
X50498214Y-68197725D01*
X50498214Y-68197725D02*
X50479166Y-68216772D01*
X50345833Y-68178677D02*
X50079166Y-68178677D01*
X50079166Y-68178677D02*
X50250595Y-68578677D01*
D16*
%TO.C,U1*%
X83750000Y-62000000D02*
X82250000Y-62000000D01*
X81750000Y-61500000D01*
X81750000Y-60000000D01*
X83750000Y-60000000D01*
X83750000Y-62000000D01*
%TO.C,R9*%
X55335000Y-67566750D02*
X56385000Y-67566750D01*
X55335000Y-67026750D02*
X55335000Y-67566750D01*
X56385000Y-67566750D02*
X56385000Y-67026750D01*
X56385000Y-67026750D02*
X55335000Y-67026750D01*
%TO.C,U3*%
X50662500Y-64818250D02*
X50262500Y-64418250D01*
X50662500Y-67318250D02*
X50662500Y-64818250D01*
X50262500Y-64418250D02*
X49062500Y-64418250D01*
X49062500Y-64418250D02*
X49062500Y-67318250D01*
X49062500Y-67318250D02*
X50662500Y-67318250D01*
%TO.C,D1*%
X83450000Y-69150000D02*
X86250000Y-69150000D01*
X83450000Y-67350000D02*
X83450000Y-69150000D01*
X84100000Y-68250000D02*
X84500000Y-68250000D01*
X84500000Y-68250000D02*
X84500000Y-68800000D01*
X84500000Y-68250000D02*
X84500000Y-67700000D01*
X84500000Y-68250000D02*
X85100000Y-68650000D01*
X85100000Y-68650000D02*
X85100000Y-67850000D01*
X85100000Y-68250000D02*
X85600000Y-68250000D01*
X85100000Y-67850000D02*
X84500000Y-68250000D01*
X86250000Y-69150000D02*
X86250000Y-67350000D01*
X86250000Y-67350000D02*
X83450000Y-67350000D01*
%TO.C,C10*%
X80100000Y-60175000D02*
X80100000Y-61775000D01*
X80900000Y-60175000D02*
X80100000Y-60175000D01*
X80100000Y-61775000D02*
X80900000Y-61775000D01*
X80900000Y-61775000D02*
X80900000Y-60175000D01*
%TO.C,Q1*%
X79575000Y-66787500D02*
X79250000Y-67112500D01*
X82150000Y-66787500D02*
X79575000Y-66787500D01*
X79250000Y-67112500D02*
X79250000Y-68087500D01*
X79250000Y-68087500D02*
X82150000Y-68087500D01*
X82150000Y-68087500D02*
X82150000Y-66787500D01*
%TO.C,D2*%
X51600000Y-62625000D02*
X49400000Y-62625000D01*
X51600000Y-62625000D02*
X51600000Y-57925000D01*
X49400000Y-57925000D02*
X49400000Y-62625000D01*
X49400000Y-57925000D02*
X51600000Y-57925000D01*
%TO.C,R5*%
X78770000Y-55785000D02*
X78770000Y-54735000D01*
X78230000Y-55785000D02*
X78770000Y-55785000D01*
X78770000Y-54735000D02*
X78230000Y-54735000D01*
X78230000Y-54735000D02*
X78230000Y-55785000D01*
%TO.C,C5*%
X52420501Y-60560000D02*
X52420501Y-62160000D01*
X53220501Y-60560000D02*
X52420501Y-60560000D01*
X52420501Y-62160000D02*
X53220501Y-62160000D01*
X53220501Y-62160000D02*
X53220501Y-60560000D01*
%TO.C,SW1*%
X77350000Y-51500000D02*
X57750000Y-51500000D01*
X77350000Y-68500000D02*
X77350000Y-51500000D01*
X57750000Y-51500000D02*
X57750000Y-68500000D01*
X57750000Y-68500000D02*
X77350000Y-68500000D01*
%TO.C,C8*%
X52493250Y-65090000D02*
X52493250Y-68290000D01*
X54093250Y-65090000D02*
X52493250Y-65090000D01*
X52493250Y-68290000D02*
X54093250Y-68290000D01*
X54093250Y-68290000D02*
X54093250Y-65090000D01*
%TO.C,R3*%
X78130000Y-66985000D02*
X78130000Y-68035000D01*
X78670000Y-66985000D02*
X78130000Y-66985000D01*
X78130000Y-68035000D02*
X78670000Y-68035000D01*
X78670000Y-68035000D02*
X78670000Y-66985000D01*
%TO.C,R2*%
X53550000Y-55537500D02*
X51950000Y-55537500D01*
X53550000Y-56362500D02*
X53550000Y-55537500D01*
X51950000Y-55537500D02*
X51950000Y-56362500D01*
X51950000Y-56362500D02*
X53550000Y-56362500D01*
%TO.C,R6*%
X79607500Y-54200000D02*
X79607500Y-55800000D01*
X80432500Y-54200000D02*
X79607500Y-54200000D01*
X79607500Y-55800000D02*
X80432500Y-55800000D01*
X80432500Y-55800000D02*
X80432500Y-54200000D01*
%TO.C,R4*%
X83480000Y-53985000D02*
X83480000Y-55035000D01*
X84020000Y-53985000D02*
X83480000Y-53985000D01*
X83480000Y-55035000D02*
X84020000Y-55035000D01*
X84020000Y-55035000D02*
X84020000Y-53985000D01*
%TO.C,C6*%
X56900000Y-65800000D02*
X56900000Y-64200000D01*
X56100000Y-65800000D02*
X56900000Y-65800000D01*
X56900000Y-64200000D02*
X56100000Y-64200000D01*
X56100000Y-64200000D02*
X56100000Y-65800000D01*
%TO.C,C1*%
X84200000Y-66625000D02*
X86200000Y-66625000D01*
X84200000Y-65375000D02*
X84200000Y-66625000D01*
X86200000Y-66625000D02*
X86200000Y-65375000D01*
X86200000Y-65375000D02*
X84200000Y-65375000D01*
%TO.C,R7*%
X83550000Y-57087500D02*
X81950000Y-57087500D01*
X83550000Y-57912500D02*
X83550000Y-57087500D01*
X81950000Y-57087500D02*
X81950000Y-57912500D01*
X81950000Y-57912500D02*
X83550000Y-57912500D01*
%TO.C,C2*%
X82625000Y-63200000D02*
X79425000Y-63200000D01*
X82625000Y-64800000D02*
X82625000Y-63200000D01*
X79425000Y-63200000D02*
X79425000Y-64800000D01*
X79425000Y-64800000D02*
X82625000Y-64800000D01*
%TO.C,C9*%
X56540000Y-69406750D02*
X53340000Y-69406750D01*
X56540000Y-71906750D02*
X56540000Y-69406750D01*
X53340000Y-69406750D02*
X53340000Y-71906750D01*
X53340000Y-71906750D02*
X56540000Y-71906750D01*
%TO.C,U2*%
X56494001Y-62150000D02*
X56894001Y-61750000D01*
X53994001Y-62150000D02*
X56494001Y-62150000D01*
X56894001Y-61750000D02*
X56894001Y-60550000D01*
X56894001Y-60550000D02*
X53994001Y-60550000D01*
X53994001Y-60550000D02*
X53994001Y-62150000D01*
%TO.C,C4*%
X53662251Y-58900000D02*
X55262251Y-58900000D01*
X53662251Y-58100000D02*
X53662251Y-58900000D01*
X55262251Y-58900000D02*
X55262251Y-58100000D01*
X55262251Y-58100000D02*
X53662251Y-58100000D01*
%TO.C,R8*%
X83625000Y-52087500D02*
X82025000Y-52087500D01*
X83625000Y-52912500D02*
X83625000Y-52087500D01*
X82025000Y-52087500D02*
X82025000Y-52912500D01*
X82025000Y-52912500D02*
X83625000Y-52912500D01*
%TO.C,C3*%
X78230000Y-60000000D02*
X79230000Y-60000000D01*
X78230000Y-59500000D02*
X78230000Y-60000000D01*
X79230000Y-60000000D02*
X79230000Y-59500000D01*
X79230000Y-59500000D02*
X78230000Y-59500000D01*
%TO.C,C7*%
X49612500Y-68796750D02*
X51212500Y-68796750D01*
X49612500Y-67996750D02*
X49612500Y-68796750D01*
X51212500Y-68796750D02*
X51212500Y-67996750D01*
X51212500Y-67996750D02*
X49612500Y-67996750D01*
%TD*%
D17*
X87500000Y-71500000D02*
G75*
G02*
X86500000Y-72500000I-1000000J0D01*
G01*
X86500000Y-72500000D02*
X48500000Y-72500000D01*
X48500000Y-72500000D02*
G75*
G02*
X47500000Y-71500000I0J1000000D01*
G01*
X48500000Y-51000000D02*
X86500000Y-51000000D01*
X47500000Y-71500000D02*
X47500000Y-52000000D01*
X87500000Y-52000000D02*
X87500000Y-71500000D01*
X86500000Y-51000000D02*
G75*
G02*
X87500000Y-52000000I0J-1000000D01*
G01*
X47500000Y-52000000D02*
G75*
G02*
X48500000Y-51000000I1000000J0D01*
G01*
M02*
