%TF.GenerationSoftware,KiCad,Pcbnew,9.0.2*%
%TF.CreationDate,2025-07-23T23:09:00-07:00*%
%TF.ProjectId,3pdt-pwr-breakout-neg-V2,33706474-2d70-4777-922d-627265616b6f,rev?*%
%TF.SameCoordinates,Original*%
%TF.FileFunction,Copper,L2,Bot*%
%TF.FilePolarity,Positive*%
%FSLAX46Y46*%
G04 Gerber Fmt 4.6, Leading zero omitted, Abs format (unit mm)*
G04 Created by KiCad (PCBNEW 9.0.2) date 2025-07-23 23:09:00*
%MOMM*%
%LPD*%
G01*
G04 APERTURE LIST*
G04 Aperture macros list*
%AMRoundRect*
0 Rectangle with rounded corners*
0 $1 Rounding radius*
0 $2 $3 $4 $5 $6 $7 $8 $9 X,Y pos of 4 corners*
0 Add a 4 corners polygon primitive as box body*
4,1,4,$2,$3,$4,$5,$6,$7,$8,$9,$2,$3,0*
0 Add four circle primitives for the rounded corners*
1,1,$1+$1,$2,$3*
1,1,$1+$1,$4,$5*
1,1,$1+$1,$6,$7*
1,1,$1+$1,$8,$9*
0 Add four rect primitives between the rounded corners*
20,1,$1+$1,$2,$3,$4,$5,0*
20,1,$1+$1,$4,$5,$6,$7,0*
20,1,$1+$1,$6,$7,$8,$9,0*
20,1,$1+$1,$8,$9,$2,$3,0*%
G04 Aperture macros list end*
%TA.AperFunction,SMDPad,CuDef*%
%ADD10RoundRect,0.093750X-0.093750X-0.106250X0.093750X-0.106250X0.093750X0.106250X-0.093750X0.106250X0*%
%TD*%
%TA.AperFunction,HeatsinkPad*%
%ADD11R,1.000000X1.600000*%
%TD*%
%TA.AperFunction,ComponentPad*%
%ADD12RoundRect,0.247500X0.577500X0.727500X-0.577500X0.727500X-0.577500X-0.727500X0.577500X-0.727500X0*%
%TD*%
%TA.AperFunction,ComponentPad*%
%ADD13RoundRect,0.247500X0.727500X-0.577500X0.727500X0.577500X-0.727500X0.577500X-0.727500X-0.577500X0*%
%TD*%
%TA.AperFunction,ComponentPad*%
%ADD14RoundRect,0.247500X-0.727500X0.577500X-0.727500X-0.577500X0.727500X-0.577500X0.727500X0.577500X0*%
%TD*%
%TA.AperFunction,ComponentPad*%
%ADD15C,1.600000*%
%TD*%
%TA.AperFunction,ComponentPad*%
%ADD16O,1.600000X1.600000*%
%TD*%
%TA.AperFunction,ComponentPad*%
%ADD17C,1.440000*%
%TD*%
%TA.AperFunction,SMDPad,CuDef*%
%ADD18RoundRect,0.135000X-0.135000X-0.185000X0.135000X-0.185000X0.135000X0.185000X-0.135000X0.185000X0*%
%TD*%
%TA.AperFunction,SMDPad,CuDef*%
%ADD19RoundRect,0.150000X0.512500X0.150000X-0.512500X0.150000X-0.512500X-0.150000X0.512500X-0.150000X0*%
%TD*%
%TA.AperFunction,SMDPad,CuDef*%
%ADD20RoundRect,0.250000X-0.300000X-0.300000X0.300000X-0.300000X0.300000X0.300000X-0.300000X0.300000X0*%
%TD*%
%TA.AperFunction,SMDPad,CuDef*%
%ADD21RoundRect,0.225000X-0.250000X0.225000X-0.250000X-0.225000X0.250000X-0.225000X0.250000X0.225000X0*%
%TD*%
%TA.AperFunction,SMDPad,CuDef*%
%ADD22RoundRect,0.150000X-0.150000X0.587500X-0.150000X-0.587500X0.150000X-0.587500X0.150000X0.587500X0*%
%TD*%
%TA.AperFunction,ComponentPad*%
%ADD23R,1.800000X1.800000*%
%TD*%
%TA.AperFunction,ComponentPad*%
%ADD24C,1.800000*%
%TD*%
%TA.AperFunction,SMDPad,CuDef*%
%ADD25RoundRect,0.135000X0.185000X-0.135000X0.185000X0.135000X-0.185000X0.135000X-0.185000X-0.135000X0*%
%TD*%
%TA.AperFunction,ComponentPad*%
%ADD26O,2.850000X1.600000*%
%TD*%
%TA.AperFunction,SMDPad,CuDef*%
%ADD27RoundRect,0.250000X-0.650000X0.325000X-0.650000X-0.325000X0.650000X-0.325000X0.650000X0.325000X0*%
%TD*%
%TA.AperFunction,SMDPad,CuDef*%
%ADD28RoundRect,0.135000X-0.185000X0.135000X-0.185000X-0.135000X0.185000X-0.135000X0.185000X0.135000X0*%
%TD*%
%TA.AperFunction,SMDPad,CuDef*%
%ADD29RoundRect,0.200000X0.200000X0.275000X-0.200000X0.275000X-0.200000X-0.275000X0.200000X-0.275000X0*%
%TD*%
%TA.AperFunction,SMDPad,CuDef*%
%ADD30RoundRect,0.200000X-0.275000X0.200000X-0.275000X-0.200000X0.275000X-0.200000X0.275000X0.200000X0*%
%TD*%
%TA.AperFunction,SMDPad,CuDef*%
%ADD31RoundRect,0.225000X0.250000X-0.225000X0.250000X0.225000X-0.250000X0.225000X-0.250000X-0.225000X0*%
%TD*%
%TA.AperFunction,SMDPad,CuDef*%
%ADD32RoundRect,0.250000X-0.250000X-0.475000X0.250000X-0.475000X0.250000X0.475000X-0.250000X0.475000X0*%
%TD*%
%TA.AperFunction,SMDPad,CuDef*%
%ADD33RoundRect,0.250000X0.325000X0.650000X-0.325000X0.650000X-0.325000X-0.650000X0.325000X-0.650000X0*%
%TD*%
%TA.AperFunction,SMDPad,CuDef*%
%ADD34RoundRect,0.250000X0.325000X1.100000X-0.325000X1.100000X-0.325000X-1.100000X0.325000X-1.100000X0*%
%TD*%
%TA.AperFunction,SMDPad,CuDef*%
%ADD35RoundRect,0.150000X0.150000X-0.512500X0.150000X0.512500X-0.150000X0.512500X-0.150000X-0.512500X0*%
%TD*%
%TA.AperFunction,SMDPad,CuDef*%
%ADD36RoundRect,0.225000X-0.225000X-0.250000X0.225000X-0.250000X0.225000X0.250000X-0.225000X0.250000X0*%
%TD*%
%TA.AperFunction,SMDPad,CuDef*%
%ADD37RoundRect,0.140000X-0.140000X-0.170000X0.140000X-0.170000X0.140000X0.170000X-0.140000X0.170000X0*%
%TD*%
%TA.AperFunction,ViaPad*%
%ADD38C,0.500000*%
%TD*%
%TA.AperFunction,Conductor*%
%ADD39C,0.200000*%
%TD*%
%TA.AperFunction,Conductor*%
%ADD40C,0.500000*%
%TD*%
%TA.AperFunction,Conductor*%
%ADD41C,0.250000*%
%TD*%
%TA.AperFunction,Conductor*%
%ADD42C,1.000000*%
%TD*%
%TA.AperFunction,Conductor*%
%ADD43C,0.300000*%
%TD*%
%TA.AperFunction,Profile*%
%ADD44C,0.100000*%
%TD*%
G04 APERTURE END LIST*
D10*
%TO.P,U1,1,OUT*%
%TO.N,+4V5*%
X81862500Y-61650000D03*
%TO.P,U1,2,FB*%
%TO.N,/FB*%
X81862500Y-61000000D03*
%TO.P,U1,3,GND*%
%TO.N,GND*%
X81862500Y-60350000D03*
%TO.P,U1,4,EN*%
%TO.N,unconnected-(U1-EN-Pad4)*%
X83637500Y-60350000D03*
%TO.P,U1,5,GND*%
%TO.N,GND*%
X83637500Y-61000000D03*
%TO.P,U1,6,IN*%
%TO.N,+9V*%
X83637500Y-61650000D03*
D11*
%TO.P,U1,7,PAD*%
%TO.N,GND*%
X82750000Y-61000000D03*
%TD*%
D12*
%TO.P,WP5,1,1*%
%TO.N,/IN*%
X77500000Y-71000000D03*
%TD*%
D13*
%TO.P,WP11,1,1*%
%TO.N,+9V*%
X86000000Y-63500000D03*
%TD*%
D12*
%TO.P,WP7,1,1*%
%TO.N,/RETURN*%
X68750000Y-71000000D03*
%TD*%
D14*
%TO.P,WP15,1,1*%
%TO.N,Net-(R8-Pad1)*%
X86000000Y-52500000D03*
%TD*%
D13*
%TO.P,WP12,1,1*%
%TO.N,GND*%
X86000000Y-61000000D03*
%TD*%
D12*
%TO.P,WP4,1,1*%
%TO.N,GND*%
X51500000Y-71000000D03*
%TD*%
D15*
%TO.P,R1,1*%
%TO.N,+9V*%
X56500000Y-56000000D03*
D16*
%TO.P,R1,2*%
%TO.N,/LED+*%
X49000000Y-56000000D03*
%TD*%
D12*
%TO.P,WP3,1,1*%
%TO.N,/OUT*%
X49000000Y-71000000D03*
%TD*%
D14*
%TO.P,WP14,1,1*%
%TO.N,Net-(R7-Pad1)*%
X86000000Y-57500000D03*
%TD*%
%TO.P,WP13,1,1*%
%TO.N,/FB_A*%
X86000000Y-55000000D03*
%TD*%
D12*
%TO.P,WP2,1,1*%
%TO.N,GND*%
X86000000Y-71000000D03*
%TD*%
%TO.P,WP6,1,1*%
%TO.N,GND*%
X80000000Y-71000000D03*
%TD*%
%TO.P,WP8,1,1*%
%TO.N,/SEND*%
X71250000Y-71000000D03*
%TD*%
%TO.P,WP9,1,1*%
%TO.N,-9V*%
X63750000Y-71000000D03*
%TD*%
%TO.P,WP1,1,1*%
%TO.N,+9VIN*%
X83500000Y-71000000D03*
%TD*%
D17*
%TO.P,RV1,1,1*%
%TO.N,/FB_A*%
X79460000Y-52460000D03*
%TO.P,RV1,2,2*%
X82000000Y-55000000D03*
%TO.P,RV1,3,3*%
%TO.N,/FB*%
X79460000Y-57540000D03*
%TD*%
D12*
%TO.P,WP10,1,1*%
%TO.N,GND*%
X66250000Y-71000000D03*
%TD*%
D18*
%TO.P,R9,1*%
%TO.N,-9V_PRE*%
X55350000Y-67296750D03*
%TO.P,R9,2*%
%TO.N,-9V*%
X56370000Y-67296750D03*
%TD*%
D19*
%TO.P,U3,1,GND*%
%TO.N,-4V5*%
X51000000Y-64918250D03*
%TO.P,U3,2,OUT*%
%TO.N,-9V_PRE*%
X51000000Y-65868250D03*
%TO.P,U3,3,CAP-*%
%TO.N,/-CAP_B*%
X51000000Y-66818250D03*
%TO.P,U3,4,nSD*%
%TO.N,GND*%
X48725000Y-66818250D03*
%TO.P,U3,5,V+*%
X48725000Y-65868250D03*
%TO.P,U3,6,CAP+*%
%TO.N,/+CAP_B*%
X48725000Y-64918250D03*
%TD*%
D20*
%TO.P,D1,1,A1*%
%TO.N,+9VIN*%
X83450000Y-68250000D03*
%TO.P,D1,2,A2*%
%TO.N,GND*%
X86250000Y-68250000D03*
%TD*%
D21*
%TO.P,C10,1*%
%TO.N,GND*%
X80500000Y-60200000D03*
%TO.P,C10,2*%
%TO.N,+4V5*%
X80500000Y-61750000D03*
%TD*%
D22*
%TO.P,Q1,1,G*%
%TO.N,/Q1_G*%
X79750000Y-66500000D03*
%TO.P,Q1,2,S*%
%TO.N,+9V*%
X81650000Y-66500000D03*
%TO.P,Q1,3,D*%
%TO.N,+9VIN*%
X80700000Y-68375000D03*
%TD*%
D23*
%TO.P,D2,1,K*%
%TO.N,/LED-*%
X50500000Y-61525000D03*
D24*
%TO.P,D2,2,A*%
%TO.N,/LED+*%
X50500000Y-58985000D03*
%TD*%
D25*
%TO.P,R5,1*%
%TO.N,/FB*%
X78500000Y-55770000D03*
%TO.P,R5,2*%
%TO.N,GND*%
X78500000Y-54750000D03*
%TD*%
D21*
%TO.P,C5,1*%
%TO.N,/+CAP_A*%
X52820501Y-60585000D03*
%TO.P,C5,2*%
%TO.N,/-CAP_A*%
X52820501Y-62135000D03*
%TD*%
D26*
%TO.P,SW1,1,A*%
%TO.N,/IN*%
X72850000Y-64700000D03*
%TO.P,SW1,2,B*%
%TO.N,/OUT*%
X72850000Y-60000000D03*
%TO.P,SW1,3,C*%
%TO.N,/RETURN*%
X72850000Y-55300000D03*
%TO.P,SW1,4,A*%
%TO.N,/GND_SW*%
X67550000Y-64700000D03*
%TO.P,SW1,5,B*%
%TO.N,/SEND*%
X67550000Y-60000000D03*
%TO.P,SW1,6,C*%
%TO.N,/IN*%
X67550000Y-55300000D03*
%TO.P,SW1,7,A*%
%TO.N,/GND_SW*%
X62250000Y-64700000D03*
%TO.P,SW1,8,B*%
%TO.N,GND*%
X62250000Y-60000000D03*
%TO.P,SW1,9,C*%
%TO.N,/LED-*%
X62250000Y-55300000D03*
%TD*%
D27*
%TO.P,C8,1*%
%TO.N,-9V_PRE*%
X53293250Y-65215000D03*
%TO.P,C8,2*%
%TO.N,GND*%
X53293250Y-68165000D03*
%TD*%
D28*
%TO.P,R3,1*%
%TO.N,/Q1_G*%
X78400000Y-67000000D03*
%TO.P,R3,2*%
%TO.N,GND*%
X78400000Y-68020000D03*
%TD*%
D29*
%TO.P,R2,1*%
%TO.N,+9V*%
X53575000Y-55950000D03*
%TO.P,R2,2*%
%TO.N,/LED+*%
X51925000Y-55950000D03*
%TD*%
D30*
%TO.P,R6,1*%
%TO.N,/FB_A*%
X80020000Y-54175000D03*
%TO.P,R6,2*%
%TO.N,/FB*%
X80020000Y-55825000D03*
%TD*%
D28*
%TO.P,R4,1*%
%TO.N,+4V5*%
X83750000Y-54000000D03*
%TO.P,R4,2*%
%TO.N,/FB_A*%
X83750000Y-55020000D03*
%TD*%
D31*
%TO.P,C6,1*%
%TO.N,GND*%
X56500000Y-65775000D03*
%TO.P,C6,2*%
%TO.N,-4V5*%
X56500000Y-64225000D03*
%TD*%
D32*
%TO.P,C1,1*%
%TO.N,+9VIN*%
X84250000Y-66000000D03*
%TO.P,C1,2*%
%TO.N,GND*%
X86150000Y-66000000D03*
%TD*%
D29*
%TO.P,R7,1*%
%TO.N,Net-(R7-Pad1)*%
X83575000Y-57500000D03*
%TO.P,R7,2*%
%TO.N,/FB*%
X81925000Y-57500000D03*
%TD*%
D33*
%TO.P,C2,1*%
%TO.N,+9V*%
X82500000Y-64000000D03*
%TO.P,C2,2*%
%TO.N,GND*%
X79550000Y-64000000D03*
%TD*%
D34*
%TO.P,C9,1*%
%TO.N,-9V*%
X56415000Y-70656750D03*
%TO.P,C9,2*%
%TO.N,GND*%
X53465000Y-70656750D03*
%TD*%
D35*
%TO.P,U2,1,GND*%
%TO.N,GND*%
X56394001Y-62487500D03*
%TO.P,U2,2,OUT*%
%TO.N,-4V5*%
X55444001Y-62487500D03*
%TO.P,U2,3,CAP-*%
%TO.N,/-CAP_A*%
X54494001Y-62487500D03*
%TO.P,U2,4,nSD*%
%TO.N,+4V5*%
X54494001Y-60212500D03*
%TO.P,U2,5,V+*%
X55444001Y-60212500D03*
%TO.P,U2,6,CAP+*%
%TO.N,/+CAP_A*%
X56394001Y-60212500D03*
%TD*%
D36*
%TO.P,C4,1*%
%TO.N,GND*%
X53687251Y-58500000D03*
%TO.P,C4,2*%
%TO.N,+4V5*%
X55237251Y-58500000D03*
%TD*%
D29*
%TO.P,R8,1*%
%TO.N,Net-(R8-Pad1)*%
X83650000Y-52500000D03*
%TO.P,R8,2*%
%TO.N,/FB*%
X82000000Y-52500000D03*
%TD*%
D37*
%TO.P,C3,1*%
%TO.N,+4V5*%
X78250000Y-59750000D03*
%TO.P,C3,2*%
%TO.N,/FB*%
X79210000Y-59750000D03*
%TD*%
D36*
%TO.P,C7,1*%
%TO.N,/+CAP_B*%
X49637500Y-68396750D03*
%TO.P,C7,2*%
%TO.N,/-CAP_B*%
X51187500Y-68396750D03*
%TD*%
D38*
%TO.N,GND*%
X71250000Y-69000000D03*
X52250000Y-63250000D03*
X59750000Y-69000000D03*
X75500000Y-62000000D03*
X52250000Y-51750000D03*
X83750000Y-56250000D03*
X63250000Y-66250000D03*
X84500000Y-53500000D03*
X48250000Y-53750000D03*
X77250000Y-65000000D03*
X77250000Y-61000000D03*
X84250000Y-64500000D03*
X82500000Y-59500000D03*
X65000000Y-55250000D03*
X54250000Y-66750000D03*
X78500000Y-54000000D03*
X81750000Y-59500000D03*
X50250000Y-63250000D03*
X53500000Y-63250000D03*
X55000000Y-68500000D03*
X54250000Y-51750000D03*
X76000000Y-54000000D03*
X58000000Y-65000000D03*
X58000000Y-61000000D03*
X69000000Y-63000000D03*
X52487251Y-58500000D03*
X65250000Y-69000000D03*
X73250000Y-69000000D03*
X79250000Y-69000000D03*
X65500000Y-65750000D03*
X75500000Y-66000000D03*
X70000000Y-62000000D03*
X80500000Y-65250000D03*
X75250000Y-69000000D03*
X58000000Y-63000000D03*
X58000000Y-59000000D03*
X61250000Y-67000000D03*
X48250000Y-57250000D03*
X77900000Y-51800000D03*
X77250000Y-67000000D03*
X82500000Y-53750000D03*
X56250000Y-51750000D03*
X69250000Y-69000000D03*
X83000000Y-62500000D03*
X85000000Y-67500000D03*
X63250000Y-69000000D03*
X61250000Y-69000000D03*
X75500000Y-60000000D03*
X68700000Y-53900000D03*
X84500000Y-51750000D03*
X58000000Y-67000000D03*
X59100000Y-53400000D03*
X48250000Y-63250000D03*
X83250000Y-59500000D03*
X81000000Y-62750000D03*
X48500000Y-52000000D03*
X58000000Y-69000000D03*
X78250000Y-56750000D03*
X77250000Y-63000000D03*
X48250000Y-61250000D03*
X48250000Y-68000000D03*
X62250000Y-57750000D03*
X74750000Y-57250000D03*
X48250000Y-59250000D03*
X70000000Y-60000000D03*
X70000000Y-64750000D03*
X48250000Y-69000000D03*
X71250000Y-63000000D03*
X80750000Y-56750000D03*
X52500000Y-66750000D03*
X50250000Y-51750000D03*
X67250000Y-69000000D03*
X82000000Y-62500000D03*
X65000000Y-53900000D03*
X67500000Y-57500000D03*
X77250000Y-69000000D03*
X62250000Y-62500000D03*
X85000000Y-69250000D03*
X73750000Y-54000000D03*
X62300000Y-53400000D03*
X65000000Y-60000000D03*
X76000000Y-57250000D03*
%TO.N,/SEND*%
X70750000Y-63750000D03*
X67750000Y-62000000D03*
%TO.N,+4V5*%
X76750000Y-53250000D03*
X80849727Y-53250000D03*
%TO.N,/FB*%
X80946783Y-55825000D03*
X81000000Y-54250000D03*
X77750000Y-58750000D03*
%TD*%
D39*
%TO.N,Net-(R8-Pad1)*%
X83650000Y-52500000D02*
X86000000Y-52500000D01*
%TO.N,Net-(R7-Pad1)*%
X83575000Y-57500000D02*
X86000000Y-57500000D01*
D40*
%TO.N,GND*%
X48725000Y-67525000D02*
X48250000Y-68000000D01*
X48725000Y-65868250D02*
X48725000Y-67525000D01*
D41*
%TO.N,+9V*%
X56500000Y-52500000D02*
X56500000Y-56000000D01*
X57250000Y-51750000D02*
X56500000Y-52500000D01*
X76500000Y-51750000D02*
X57250000Y-51750000D01*
X77500000Y-57173416D02*
X77500000Y-52750000D01*
X77500000Y-52750000D02*
X76500000Y-51750000D01*
X79076584Y-58750000D02*
X77500000Y-57173416D01*
X81564588Y-58750000D02*
X81264588Y-59050000D01*
X80550000Y-59050000D02*
X80250000Y-58750000D01*
X83750000Y-58750000D02*
X81564588Y-58750000D01*
X84500000Y-59500000D02*
X83750000Y-58750000D01*
X81264588Y-59050000D02*
X80550000Y-59050000D01*
X84500000Y-62000000D02*
X84500000Y-59500000D01*
X84000000Y-62500000D02*
X84500000Y-62000000D01*
X80250000Y-58750000D02*
X79076584Y-58750000D01*
D42*
%TO.N,-9V*%
X63250000Y-71000000D02*
X56758250Y-71000000D01*
D39*
%TO.N,GND*%
X78500000Y-54750000D02*
X78500000Y-54000000D01*
D40*
X86250000Y-70750000D02*
X86000000Y-71000000D01*
X53465000Y-68336750D02*
X53293250Y-68165000D01*
X53465000Y-70656750D02*
X53465000Y-68336750D01*
X53687251Y-58500000D02*
X52487251Y-58500000D01*
D42*
X86250000Y-68250000D02*
X86250000Y-70750000D01*
D43*
%TO.N,+9V*%
X84000000Y-63500000D02*
X84000000Y-62500000D01*
D40*
X82500000Y-64000000D02*
X83500000Y-64000000D01*
X83500000Y-64000000D02*
X84000000Y-63500000D01*
X81650000Y-66500000D02*
X81650000Y-65400000D01*
X81250000Y-65000000D02*
X81250000Y-64250000D01*
X81650000Y-65400000D02*
X81250000Y-65000000D01*
X81500000Y-64000000D02*
X82500000Y-64000000D01*
D39*
X53575000Y-55950000D02*
X56450000Y-55950000D01*
D43*
X84000000Y-62500000D02*
X83637500Y-62137500D01*
D40*
X56450000Y-55950000D02*
X56500000Y-56000000D01*
D43*
X83637500Y-62137500D02*
X83637500Y-61650000D01*
D40*
X81250000Y-64250000D02*
X81500000Y-64000000D01*
X84000000Y-63500000D02*
X86000000Y-63500000D01*
D39*
%TO.N,/LED+*%
X51875000Y-56000000D02*
X51925000Y-55950000D01*
X49000000Y-56000000D02*
X51875000Y-56000000D01*
%TO.N,/SEND*%
X69000000Y-62000000D02*
X67750000Y-62000000D01*
X70750000Y-63750000D02*
X69000000Y-62000000D01*
%TO.N,+4V5*%
X81276000Y-51724000D02*
X81250000Y-51750000D01*
X82724000Y-51724000D02*
X81276000Y-51724000D01*
X81250000Y-51750000D02*
X80849727Y-52150273D01*
D40*
X76000000Y-52500000D02*
X58750000Y-52500000D01*
D39*
X82750000Y-53000000D02*
X82750000Y-51750000D01*
D40*
X79000000Y-61750000D02*
X80500000Y-61750000D01*
X78250000Y-59750000D02*
X77333088Y-59750000D01*
X58000000Y-53250000D02*
X58000000Y-56750000D01*
X58750000Y-52500000D02*
X58000000Y-53250000D01*
X58000000Y-56750000D02*
X56250000Y-58500000D01*
D39*
X82750000Y-51750000D02*
X82724000Y-51724000D01*
X80849727Y-53250000D02*
X80849727Y-53301263D01*
D40*
X77333088Y-59750000D02*
X76750000Y-59166912D01*
X76750000Y-59166912D02*
X76750000Y-53250000D01*
X78250000Y-59750000D02*
X78250000Y-61000000D01*
D39*
X80849727Y-52150273D02*
X80849727Y-53250000D01*
X83500000Y-54000000D02*
X83750000Y-54000000D01*
D40*
X55444001Y-58706750D02*
X55237251Y-58500000D01*
X76750000Y-53250000D02*
X76000000Y-52500000D01*
D43*
X81862500Y-61650000D02*
X80600000Y-61650000D01*
D39*
X83750000Y-54000000D02*
X82750000Y-53000000D01*
D40*
X56250000Y-58500000D02*
X55237251Y-58500000D01*
X55444001Y-60212500D02*
X55444001Y-58706750D01*
X78250000Y-61000000D02*
X79000000Y-61750000D01*
X55444001Y-60212500D02*
X54494001Y-60212500D01*
D43*
X80600000Y-61650000D02*
X80500000Y-61750000D01*
D40*
%TO.N,-4V5*%
X51250000Y-64000000D02*
X55000000Y-64000000D01*
X55000000Y-64000000D02*
X55000000Y-63500000D01*
X56500000Y-64225000D02*
X55225000Y-64225000D01*
X50947500Y-64918250D02*
X50947500Y-64302500D01*
X55225000Y-64225000D02*
X55000000Y-64000000D01*
X55000000Y-63500000D02*
X55444001Y-63055999D01*
X55444001Y-63055999D02*
X55444001Y-62487500D01*
X50947500Y-64302500D02*
X51250000Y-64000000D01*
%TO.N,-9V_PRE*%
X53008250Y-65500000D02*
X52250000Y-65500000D01*
X54465000Y-65215000D02*
X53293250Y-65215000D01*
X51881750Y-65868250D02*
X50947500Y-65868250D01*
X55350000Y-66100000D02*
X54465000Y-65215000D01*
X55350000Y-67296750D02*
X55350000Y-66100000D01*
X53293250Y-65215000D02*
X53008250Y-65500000D01*
X52250000Y-65500000D02*
X51881750Y-65868250D01*
%TO.N,-9V*%
X56415000Y-67341750D02*
X56370000Y-67296750D01*
X56758250Y-71000000D02*
X56415000Y-70656750D01*
X56415000Y-70656750D02*
X56415000Y-67341750D01*
%TO.N,+9VIN*%
X84250000Y-66000000D02*
X83250000Y-66000000D01*
X83450000Y-67450000D02*
X83450000Y-68250000D01*
D42*
X83500000Y-71000000D02*
X83500000Y-68300000D01*
D40*
X83250000Y-66000000D02*
X83000000Y-66250000D01*
X83500000Y-68300000D02*
X83450000Y-68250000D01*
X80825000Y-68250000D02*
X80700000Y-68375000D01*
X83000000Y-66250000D02*
X83000000Y-67000000D01*
X83450000Y-68250000D02*
X80825000Y-68250000D01*
X83000000Y-67000000D02*
X83450000Y-67450000D01*
D39*
%TO.N,/FB*%
X80020000Y-55825000D02*
X78555000Y-55825000D01*
X79500000Y-57500000D02*
X79500000Y-56345000D01*
X78186826Y-58750000D02*
X79000000Y-59563174D01*
X79000000Y-59563174D02*
X79000000Y-60500000D01*
X80020000Y-55825000D02*
X80020000Y-55770000D01*
X78555000Y-55825000D02*
X78500000Y-55770000D01*
X82000000Y-53250000D02*
X82000000Y-52500000D01*
X79500000Y-56345000D02*
X80020000Y-55825000D01*
X79500000Y-57500000D02*
X79460000Y-57540000D01*
X80020000Y-55825000D02*
X80825000Y-55825000D01*
X81000000Y-54250000D02*
X82000000Y-53250000D01*
X79000000Y-60500000D02*
X79500000Y-61000000D01*
X79500000Y-61000000D02*
X81612500Y-61000000D01*
X79460000Y-57460000D02*
X79460000Y-57540000D01*
X77750000Y-58750000D02*
X78186826Y-58750000D01*
X81675000Y-57500000D02*
X79500000Y-57500000D01*
%TO.N,/-CAP_A*%
X53622251Y-62135000D02*
X53974751Y-62487500D01*
X53974751Y-62487500D02*
X54494001Y-62487500D01*
X52820501Y-62135000D02*
X53622251Y-62135000D01*
%TO.N,/+CAP_A*%
X52820501Y-60585000D02*
X52822251Y-60585000D01*
X52822251Y-60585000D02*
X53737251Y-61500000D01*
X56394001Y-61105999D02*
X56394001Y-60212500D01*
X53737251Y-61500000D02*
X56000000Y-61500000D01*
X56000000Y-61500000D02*
X56394001Y-61105999D01*
%TO.N,/-CAP_B*%
X51187500Y-68396750D02*
X51187500Y-67005750D01*
X51187500Y-67005750D02*
X51000000Y-66818250D01*
%TO.N,/+CAP_B*%
X49387499Y-64918250D02*
X48725000Y-64918250D01*
X49637500Y-68396750D02*
X49750000Y-68284250D01*
X49750000Y-65280751D02*
X49387499Y-64918250D01*
X49750000Y-68284250D02*
X49750000Y-65280751D01*
%TO.N,/FB_A*%
X80020000Y-54175000D02*
X80020000Y-54770000D01*
X82000000Y-55000000D02*
X86000000Y-55000000D01*
X80020000Y-54770000D02*
X80250000Y-55000000D01*
X80250000Y-53945000D02*
X80250000Y-53250000D01*
X80250000Y-55000000D02*
X82000000Y-55000000D01*
X79955000Y-54240000D02*
X80020000Y-54175000D01*
X80250000Y-53250000D02*
X79460000Y-52460000D01*
X80020000Y-54175000D02*
X80250000Y-53945000D01*
%TO.N,/Q1_G*%
X79000000Y-67000000D02*
X79750000Y-67000000D01*
X78500000Y-67000000D02*
X79000000Y-67000000D01*
D40*
%TO.N,/GND_SW*%
X67550000Y-64700000D02*
X62250000Y-64700000D01*
%TD*%
%TA.AperFunction,Conductor*%
%TO.N,GND*%
G36*
X54412684Y-65871563D02*
G01*
X54420663Y-65878477D01*
X54827826Y-66285640D01*
X54849500Y-66337966D01*
X54849500Y-66964534D01*
X54841982Y-66997032D01*
X54840419Y-67000228D01*
X54840418Y-67000231D01*
X54829500Y-67075163D01*
X54829500Y-67518336D01*
X54832032Y-67535711D01*
X54840418Y-67593268D01*
X54896924Y-67708852D01*
X54987898Y-67799826D01*
X55103482Y-67856332D01*
X55178418Y-67867250D01*
X55178424Y-67867250D01*
X55521576Y-67867250D01*
X55521582Y-67867250D01*
X55596518Y-67856332D01*
X55712102Y-67799826D01*
X55788174Y-67723754D01*
X55840500Y-67702080D01*
X55892826Y-67723754D01*
X55914500Y-67776080D01*
X55914500Y-69036647D01*
X55892826Y-69088973D01*
X55866362Y-69105981D01*
X55847669Y-69112953D01*
X55732454Y-69199204D01*
X55646203Y-69314419D01*
X55646202Y-69314420D01*
X55595910Y-69449262D01*
X55595909Y-69449267D01*
X55589500Y-69508876D01*
X55589500Y-71804623D01*
X55595909Y-71864235D01*
X55646412Y-71999640D01*
X55644391Y-72056241D01*
X55602938Y-72094834D01*
X55577078Y-72099500D01*
X54185048Y-72099500D01*
X54132722Y-72077826D01*
X54111048Y-72025500D01*
X54119114Y-71991904D01*
X54175164Y-71881900D01*
X54175164Y-71881898D01*
X54190000Y-71788231D01*
X54190000Y-70781750D01*
X52740001Y-70781750D01*
X52740001Y-71788232D01*
X52754834Y-71881898D01*
X52754835Y-71881900D01*
X52810886Y-71991904D01*
X52815330Y-72048367D01*
X52778548Y-72091434D01*
X52744952Y-72099500D01*
X52419187Y-72099500D01*
X52366861Y-72077826D01*
X52345187Y-72025500D01*
X52345187Y-72021963D01*
X51735652Y-71412428D01*
X51791657Y-71380095D01*
X51880095Y-71291657D01*
X51912428Y-71235652D01*
X52469606Y-71792830D01*
X52475000Y-71758783D01*
X52475000Y-70241215D01*
X52469607Y-70207167D01*
X51912428Y-70764346D01*
X51880095Y-70708343D01*
X51791657Y-70619905D01*
X51735652Y-70587571D01*
X52345187Y-69978037D01*
X52314057Y-69946907D01*
X52201865Y-69889742D01*
X52108785Y-69875000D01*
X50891215Y-69875000D01*
X50798134Y-69889742D01*
X50685942Y-69946907D01*
X50654813Y-69978037D01*
X51264347Y-70587571D01*
X51208343Y-70619905D01*
X51119905Y-70708343D01*
X51087571Y-70764347D01*
X50530392Y-70207168D01*
X50530391Y-70207168D01*
X50525000Y-70241214D01*
X50525000Y-71758786D01*
X50530391Y-71792830D01*
X50530392Y-71792830D01*
X51087570Y-71235651D01*
X51119905Y-71291657D01*
X51208343Y-71380095D01*
X51264347Y-71412428D01*
X50654813Y-72021963D01*
X50654813Y-72025500D01*
X50633139Y-72077826D01*
X50580813Y-72099500D01*
X50068937Y-72099500D01*
X50016611Y-72077826D01*
X49994937Y-72025500D01*
X50009697Y-71981153D01*
X50011251Y-71979075D01*
X50019079Y-71968620D01*
X50069123Y-71834446D01*
X50075500Y-71775132D01*
X50075500Y-70224868D01*
X50069123Y-70165554D01*
X50060249Y-70141764D01*
X50019080Y-70031381D01*
X50019079Y-70031380D01*
X49989399Y-69991732D01*
X49975837Y-69973617D01*
X49933260Y-69916740D01*
X49818620Y-69830921D01*
X49818619Y-69830920D01*
X49818618Y-69830919D01*
X49684450Y-69780878D01*
X49684447Y-69780877D01*
X49684446Y-69780877D01*
X49654789Y-69777688D01*
X49625133Y-69774500D01*
X49625132Y-69774500D01*
X48374868Y-69774500D01*
X48374867Y-69774500D01*
X48315554Y-69780877D01*
X48315549Y-69780878D01*
X48181381Y-69830919D01*
X48181380Y-69830920D01*
X48066740Y-69916740D01*
X48033740Y-69960822D01*
X47985030Y-69989722D01*
X47930153Y-69975715D01*
X47901253Y-69927005D01*
X47900500Y-69916475D01*
X47900500Y-69525268D01*
X52740000Y-69525268D01*
X52740000Y-70531750D01*
X53340000Y-70531750D01*
X53590000Y-70531750D01*
X54189999Y-70531750D01*
X54189999Y-69525267D01*
X54175165Y-69431601D01*
X54175164Y-69431600D01*
X54117639Y-69318703D01*
X54028046Y-69229110D01*
X53915149Y-69171585D01*
X53821482Y-69156750D01*
X53590000Y-69156750D01*
X53590000Y-70531750D01*
X53340000Y-70531750D01*
X53340000Y-69156750D01*
X53108518Y-69156750D01*
X53014851Y-69171584D01*
X53014850Y-69171585D01*
X52901953Y-69229110D01*
X52812360Y-69318703D01*
X52754835Y-69431600D01*
X52754835Y-69431601D01*
X52740000Y-69525268D01*
X47900500Y-69525268D01*
X47900500Y-67259167D01*
X47922174Y-67206841D01*
X47974500Y-67185167D01*
X48026826Y-67206841D01*
X48040021Y-67220036D01*
X48142624Y-67265339D01*
X48142623Y-67265339D01*
X48167710Y-67268249D01*
X48600000Y-67268249D01*
X48600000Y-65942250D01*
X48621674Y-65889924D01*
X48674000Y-65868250D01*
X48776000Y-65868250D01*
X48828326Y-65889924D01*
X48850000Y-65942250D01*
X48850000Y-67268249D01*
X49282292Y-67268249D01*
X49312906Y-67264699D01*
X49313126Y-67266598D01*
X49362244Y-67272865D01*
X49396901Y-67317660D01*
X49399500Y-67337098D01*
X49399500Y-67601287D01*
X49377826Y-67653613D01*
X49333410Y-67674863D01*
X49310385Y-67677338D01*
X49182274Y-67725121D01*
X49072813Y-67807063D01*
X48990871Y-67916524D01*
X48943088Y-68044634D01*
X48943088Y-68044637D01*
X48937000Y-68101263D01*
X48937000Y-68692234D01*
X48937001Y-68692235D01*
X48943088Y-68748864D01*
X48990871Y-68876975D01*
X48990872Y-68876976D01*
X49072813Y-68986437D01*
X49182274Y-69068378D01*
X49182273Y-69068378D01*
X49230057Y-69086200D01*
X49310386Y-69116162D01*
X49367015Y-69122250D01*
X49907984Y-69122249D01*
X49964614Y-69116162D01*
X50092726Y-69068378D01*
X50202187Y-68986437D01*
X50284128Y-68876976D01*
X50331912Y-68748864D01*
X50338000Y-68692235D01*
X50337999Y-68101266D01*
X50331912Y-68044636D01*
X50284128Y-67916524D01*
X50202187Y-67807063D01*
X50202185Y-67807062D01*
X50202185Y-67807061D01*
X50130153Y-67753139D01*
X50101253Y-67704430D01*
X50100500Y-67693899D01*
X50100500Y-67326294D01*
X50122174Y-67273968D01*
X50174500Y-67252294D01*
X50226826Y-67273968D01*
X50249158Y-67296300D01*
X50362196Y-67353896D01*
X50455981Y-67368750D01*
X50763000Y-67368749D01*
X50815326Y-67390423D01*
X50837000Y-67442749D01*
X50837000Y-67634681D01*
X50815326Y-67687007D01*
X50788862Y-67704015D01*
X50732271Y-67725123D01*
X50622813Y-67807063D01*
X50540871Y-67916524D01*
X50493088Y-68044634D01*
X50493088Y-68044637D01*
X50487000Y-68101263D01*
X50487000Y-68692234D01*
X50487001Y-68692235D01*
X50493088Y-68748864D01*
X50540871Y-68876975D01*
X50540872Y-68876976D01*
X50622813Y-68986437D01*
X50732274Y-69068378D01*
X50732273Y-69068378D01*
X50780057Y-69086200D01*
X50860386Y-69116162D01*
X50917015Y-69122250D01*
X51457984Y-69122249D01*
X51514614Y-69116162D01*
X51642726Y-69068378D01*
X51752187Y-68986437D01*
X51834128Y-68876976D01*
X51881912Y-68748864D01*
X51888000Y-68692235D01*
X51888000Y-68521482D01*
X52243251Y-68521482D01*
X52258084Y-68615148D01*
X52258085Y-68615149D01*
X52315610Y-68728046D01*
X52405203Y-68817639D01*
X52518100Y-68875164D01*
X52611768Y-68889999D01*
X53168250Y-68889999D01*
X53418250Y-68889999D01*
X53974731Y-68889999D01*
X54068398Y-68875165D01*
X54068399Y-68875164D01*
X54181296Y-68817639D01*
X54270889Y-68728046D01*
X54328414Y-68615149D01*
X54328414Y-68615148D01*
X54343250Y-68521481D01*
X54343250Y-68290000D01*
X53418250Y-68290000D01*
X53418250Y-68889999D01*
X53168250Y-68889999D01*
X53168250Y-68290000D01*
X52243251Y-68290000D01*
X52243251Y-68521482D01*
X51888000Y-68521482D01*
X51887999Y-68101266D01*
X51881912Y-68044636D01*
X51834128Y-67916524D01*
X51753276Y-67808518D01*
X52243250Y-67808518D01*
X52243250Y-68040000D01*
X53168250Y-68040000D01*
X53418250Y-68040000D01*
X54343249Y-68040000D01*
X54343249Y-67808517D01*
X54328415Y-67714851D01*
X54328414Y-67714850D01*
X54270889Y-67601953D01*
X54181296Y-67512360D01*
X54068399Y-67454835D01*
X53974732Y-67440000D01*
X53418250Y-67440000D01*
X53418250Y-68040000D01*
X53168250Y-68040000D01*
X53168250Y-67440000D01*
X52611768Y-67440000D01*
X52518101Y-67454834D01*
X52518100Y-67454835D01*
X52405203Y-67512360D01*
X52315610Y-67601953D01*
X52258085Y-67714850D01*
X52258085Y-67714851D01*
X52243250Y-67808518D01*
X51753276Y-67808518D01*
X51752187Y-67807063D01*
X51680153Y-67753139D01*
X51642728Y-67725123D01*
X51642726Y-67725122D01*
X51595929Y-67707667D01*
X51586138Y-67704015D01*
X51544687Y-67665420D01*
X51538000Y-67634681D01*
X51538000Y-67432904D01*
X51559674Y-67380578D01*
X51600424Y-67359815D01*
X51637804Y-67353896D01*
X51750842Y-67296300D01*
X51840550Y-67206592D01*
X51898146Y-67093554D01*
X51913000Y-66999769D01*
X51912999Y-66636732D01*
X51907205Y-66600149D01*
X51898146Y-66542945D01*
X51898144Y-66542941D01*
X51864212Y-66476345D01*
X51859768Y-66419883D01*
X51896551Y-66376816D01*
X51930146Y-66368750D01*
X51947644Y-66368750D01*
X51947644Y-66368749D01*
X52074936Y-66334642D01*
X52189064Y-66268750D01*
X52420533Y-66037279D01*
X52472858Y-66015606D01*
X52498714Y-66020270D01*
X52535767Y-66034091D01*
X52595377Y-66040500D01*
X53991122Y-66040499D01*
X54050733Y-66034091D01*
X54132342Y-66003653D01*
X54185579Y-65983797D01*
X54185579Y-65983796D01*
X54185581Y-65983796D01*
X54300796Y-65897546D01*
X54309098Y-65886455D01*
X54357806Y-65857556D01*
X54412684Y-65871563D01*
G37*
%TD.AperFunction*%
%TA.AperFunction,Conductor*%
G36*
X75814360Y-53022174D02*
G01*
X76227826Y-53435640D01*
X76249500Y-53487966D01*
X76249500Y-59232806D01*
X76283606Y-59360093D01*
X76283610Y-59360102D01*
X76335838Y-59450563D01*
X76349500Y-59474226D01*
X77025774Y-60150500D01*
X77139902Y-60216392D01*
X77267193Y-60250499D01*
X77267194Y-60250500D01*
X77267196Y-60250500D01*
X77398980Y-60250500D01*
X77675500Y-60250500D01*
X77727826Y-60272174D01*
X77749500Y-60324500D01*
X77749500Y-61065894D01*
X77783606Y-61193181D01*
X77783610Y-61193190D01*
X77820718Y-61257462D01*
X77849500Y-61307314D01*
X78692686Y-62150500D01*
X78806814Y-62216392D01*
X78806815Y-62216392D01*
X78806817Y-62216393D01*
X78859701Y-62230563D01*
X78934104Y-62250499D01*
X78934105Y-62250500D01*
X78934107Y-62250500D01*
X78934108Y-62250500D01*
X79825221Y-62250500D01*
X79877547Y-62272174D01*
X79884461Y-62280153D01*
X79910311Y-62314685D01*
X79910312Y-62314685D01*
X79910313Y-62314687D01*
X80019774Y-62396628D01*
X80019773Y-62396628D01*
X80043520Y-62405485D01*
X80147886Y-62444412D01*
X80204515Y-62450500D01*
X80795484Y-62450499D01*
X80852114Y-62444412D01*
X80980226Y-62396628D01*
X81089687Y-62314687D01*
X81171628Y-62205226D01*
X81192040Y-62150500D01*
X81211384Y-62098639D01*
X81249978Y-62057187D01*
X81280718Y-62050500D01*
X81568799Y-62050500D01*
X81600072Y-62057433D01*
X81635137Y-62073783D01*
X81678277Y-62093900D01*
X81728409Y-62100500D01*
X81996590Y-62100499D01*
X82046723Y-62093900D01*
X82156750Y-62042594D01*
X82242594Y-61956750D01*
X82293900Y-61846723D01*
X82300500Y-61796591D01*
X82300499Y-61503410D01*
X82293900Y-61453277D01*
X82248665Y-61356271D01*
X82246196Y-61299690D01*
X82248653Y-61293755D01*
X82293900Y-61196723D01*
X82300500Y-61146591D01*
X82300499Y-60853410D01*
X82293900Y-60803277D01*
X82242594Y-60693250D01*
X82194690Y-60645346D01*
X82173016Y-60593020D01*
X82183553Y-60558290D01*
X82183068Y-60558090D01*
X82185110Y-60553159D01*
X82185492Y-60551901D01*
X82185857Y-60551354D01*
X82200000Y-60480253D01*
X82200000Y-60475000D01*
X81525001Y-60475000D01*
X81525001Y-60480253D01*
X81540564Y-60558505D01*
X81537410Y-60559132D01*
X81537420Y-60603805D01*
X81497380Y-60643861D01*
X81469047Y-60649500D01*
X81176208Y-60649500D01*
X81123882Y-60627826D01*
X81102208Y-60575500D01*
X81109727Y-60543000D01*
X81114379Y-60533483D01*
X81124999Y-60460592D01*
X81125000Y-60460581D01*
X81125000Y-60325000D01*
X79875000Y-60325000D01*
X79875000Y-60460592D01*
X79885620Y-60533483D01*
X79890273Y-60543000D01*
X79891320Y-60559876D01*
X79897792Y-60575500D01*
X79893007Y-60587050D01*
X79893782Y-60599528D01*
X79882589Y-60612202D01*
X79876118Y-60627826D01*
X79864566Y-60632610D01*
X79856292Y-60641981D01*
X79823792Y-60649500D01*
X79675834Y-60649500D01*
X79623508Y-60627826D01*
X79419070Y-60423388D01*
X79397396Y-60371062D01*
X79419070Y-60318736D01*
X79459822Y-60297973D01*
X79472175Y-60296017D01*
X79582391Y-60239859D01*
X79602504Y-60219746D01*
X81525000Y-60219746D01*
X81525000Y-60225000D01*
X81737500Y-60225000D01*
X81987500Y-60225000D01*
X82199999Y-60225000D01*
X82199999Y-60219746D01*
X82185858Y-60148645D01*
X82131984Y-60068016D01*
X82131983Y-60068015D01*
X82051356Y-60014143D01*
X81987500Y-60001441D01*
X81987500Y-60225000D01*
X81737500Y-60225000D01*
X81737500Y-60001441D01*
X81673643Y-60014143D01*
X81593016Y-60068015D01*
X81593015Y-60068016D01*
X81539143Y-60148643D01*
X81525000Y-60219746D01*
X79602504Y-60219746D01*
X79669859Y-60152391D01*
X79726017Y-60042175D01*
X79727883Y-60030392D01*
X79727911Y-60030218D01*
X79757504Y-59981927D01*
X79812576Y-59968705D01*
X79860867Y-59998298D01*
X79875000Y-60041794D01*
X79875000Y-60075000D01*
X80375000Y-60075000D01*
X80625000Y-60075000D01*
X81125000Y-60075000D01*
X81125000Y-59939418D01*
X81124999Y-59939407D01*
X81114379Y-59866517D01*
X81059412Y-59754082D01*
X80970917Y-59665587D01*
X80858482Y-59610620D01*
X80785592Y-59600000D01*
X80625000Y-59600000D01*
X80625000Y-60075000D01*
X80375000Y-60075000D01*
X80375000Y-59600000D01*
X80214407Y-59600000D01*
X80141517Y-59610620D01*
X80029082Y-59665587D01*
X79940587Y-59754082D01*
X79885618Y-59866522D01*
X79885199Y-59867879D01*
X79884605Y-59868594D01*
X79883096Y-59871682D01*
X79882347Y-59871316D01*
X79849039Y-59911471D01*
X79792647Y-59916727D01*
X79749055Y-59880567D01*
X79740499Y-59846029D01*
X79740499Y-59549266D01*
X79726017Y-59457825D01*
X79726016Y-59457823D01*
X79726016Y-59457822D01*
X79682261Y-59371950D01*
X79669859Y-59347609D01*
X79582391Y-59260141D01*
X79582390Y-59260140D01*
X79581327Y-59259368D01*
X79580866Y-59258616D01*
X79578273Y-59256023D01*
X79578895Y-59255400D01*
X79551733Y-59211078D01*
X79564954Y-59156005D01*
X79613244Y-59126411D01*
X79624822Y-59125500D01*
X80063811Y-59125500D01*
X80116137Y-59147174D01*
X80249525Y-59280562D01*
X80319438Y-59350475D01*
X80405062Y-59399910D01*
X80452813Y-59412705D01*
X80476688Y-59419102D01*
X80500563Y-59425500D01*
X80500564Y-59425500D01*
X81314024Y-59425500D01*
X81361774Y-59412705D01*
X81409526Y-59399910D01*
X81495150Y-59350475D01*
X81565063Y-59280562D01*
X81698451Y-59147174D01*
X81750777Y-59125500D01*
X83563811Y-59125500D01*
X83616137Y-59147174D01*
X84102826Y-59633863D01*
X84124500Y-59686189D01*
X84124500Y-59971504D01*
X84102826Y-60023830D01*
X84050500Y-60045504D01*
X83998174Y-60023830D01*
X83931748Y-59957404D01*
X83821723Y-59906100D01*
X83821721Y-59906099D01*
X83784789Y-59901237D01*
X83771591Y-59899500D01*
X83771589Y-59899500D01*
X83503410Y-59899500D01*
X83453278Y-59906099D01*
X83453275Y-59906100D01*
X83343249Y-59957406D01*
X83257404Y-60043251D01*
X83206100Y-60153276D01*
X83206099Y-60153278D01*
X83199500Y-60203410D01*
X83199500Y-60496589D01*
X83206099Y-60546721D01*
X83206100Y-60546724D01*
X83257406Y-60656750D01*
X83305309Y-60704653D01*
X83326983Y-60756979D01*
X83316449Y-60791712D01*
X83316932Y-60791912D01*
X83314902Y-60796810D01*
X83314517Y-60798083D01*
X83314145Y-60798639D01*
X83314142Y-60798645D01*
X83300000Y-60869746D01*
X83300000Y-60875000D01*
X83974999Y-60875000D01*
X83974999Y-60869746D01*
X83960858Y-60798645D01*
X83960489Y-60798093D01*
X83960359Y-60797440D01*
X83958069Y-60791912D01*
X83959168Y-60791456D01*
X83949437Y-60742545D01*
X83969689Y-60704654D01*
X83998175Y-60676169D01*
X84050501Y-60654496D01*
X84102827Y-60676171D01*
X84124500Y-60728496D01*
X84124500Y-61271504D01*
X84102826Y-61323830D01*
X84050500Y-61345504D01*
X83998174Y-61323830D01*
X83969690Y-61295346D01*
X83948016Y-61243020D01*
X83958553Y-61208290D01*
X83958068Y-61208090D01*
X83960110Y-61203159D01*
X83960492Y-61201901D01*
X83960857Y-61201354D01*
X83975000Y-61130253D01*
X83975000Y-61125000D01*
X83300001Y-61125000D01*
X83300001Y-61130253D01*
X83314141Y-61201350D01*
X83314143Y-61201355D01*
X83314515Y-61201912D01*
X83314645Y-61202567D01*
X83316931Y-61208085D01*
X83315832Y-61208539D01*
X83325560Y-61257462D01*
X83305309Y-61295345D01*
X83257409Y-61343245D01*
X83257404Y-61343251D01*
X83206100Y-61453276D01*
X83206099Y-61453278D01*
X83199500Y-61503410D01*
X83199500Y-61796589D01*
X83206099Y-61846721D01*
X83206100Y-61846723D01*
X83230067Y-61898120D01*
X83237000Y-61929394D01*
X83237000Y-62084773D01*
X83237000Y-62190227D01*
X83253150Y-62250500D01*
X83264293Y-62292088D01*
X83264295Y-62292092D01*
X83317017Y-62383409D01*
X83317018Y-62383410D01*
X83317020Y-62383413D01*
X83577826Y-62644219D01*
X83599500Y-62696544D01*
X83599500Y-63162033D01*
X83577826Y-63214359D01*
X83450842Y-63341343D01*
X83398516Y-63363017D01*
X83346190Y-63341343D01*
X83324940Y-63296927D01*
X83320087Y-63251786D01*
X83319091Y-63242517D01*
X83309384Y-63216491D01*
X83268797Y-63107670D01*
X83268796Y-63107669D01*
X83240503Y-63069875D01*
X83182546Y-62992454D01*
X83067331Y-62906204D01*
X83067330Y-62906203D01*
X83067329Y-62906202D01*
X82932487Y-62855910D01*
X82932484Y-62855909D01*
X82932483Y-62855909D01*
X82872873Y-62849500D01*
X82127126Y-62849500D01*
X82067514Y-62855909D01*
X81932670Y-62906202D01*
X81932669Y-62906203D01*
X81817454Y-62992454D01*
X81731203Y-63107669D01*
X81731202Y-63107670D01*
X81680910Y-63242512D01*
X81680909Y-63242517D01*
X81674500Y-63302126D01*
X81674500Y-63425500D01*
X81652826Y-63477826D01*
X81600500Y-63499500D01*
X81565892Y-63499500D01*
X81434107Y-63499500D01*
X81340806Y-63524499D01*
X81306816Y-63533607D01*
X81306809Y-63533610D01*
X81192685Y-63599500D01*
X80849500Y-63942685D01*
X80783610Y-64056809D01*
X80783606Y-64056818D01*
X80749500Y-64184105D01*
X80749500Y-65065894D01*
X80783606Y-65193181D01*
X80783610Y-65193190D01*
X80849500Y-65307314D01*
X81127826Y-65585640D01*
X81149500Y-65637966D01*
X81149500Y-65700451D01*
X81141435Y-65734046D01*
X81114354Y-65787195D01*
X81099500Y-65880980D01*
X81099500Y-67119019D01*
X81114353Y-67212804D01*
X81114354Y-67212806D01*
X81162509Y-67307314D01*
X81171950Y-67325842D01*
X81261658Y-67415550D01*
X81374696Y-67473146D01*
X81468481Y-67488000D01*
X81831518Y-67487999D01*
X81831519Y-67487999D01*
X81925304Y-67473146D01*
X81925306Y-67473145D01*
X81927419Y-67472068D01*
X82038342Y-67415550D01*
X82128050Y-67325842D01*
X82185646Y-67212804D01*
X82200500Y-67119019D01*
X82200499Y-65880982D01*
X82200102Y-65878477D01*
X82185646Y-65787196D01*
X82158565Y-65734046D01*
X82150500Y-65700451D01*
X82150500Y-65334109D01*
X82148566Y-65326892D01*
X82126262Y-65243651D01*
X82133655Y-65187499D01*
X82178589Y-65153020D01*
X82197734Y-65150499D01*
X82872872Y-65150499D01*
X82932483Y-65144091D01*
X83051317Y-65099769D01*
X83067329Y-65093797D01*
X83067329Y-65093796D01*
X83067331Y-65093796D01*
X83182546Y-65007546D01*
X83268796Y-64892331D01*
X83319091Y-64757483D01*
X83325500Y-64697873D01*
X83325500Y-64574500D01*
X83347174Y-64522174D01*
X83399500Y-64500500D01*
X83565894Y-64500500D01*
X83565894Y-64500499D01*
X83693186Y-64466392D01*
X83807314Y-64400500D01*
X84185640Y-64022174D01*
X84237966Y-64000500D01*
X84700500Y-64000500D01*
X84752826Y-64022174D01*
X84774500Y-64074500D01*
X84774500Y-64125132D01*
X84780877Y-64184445D01*
X84780878Y-64184450D01*
X84830919Y-64318618D01*
X84830920Y-64318619D01*
X84830921Y-64318620D01*
X84916740Y-64433260D01*
X85031380Y-64519079D01*
X85031381Y-64519080D01*
X85129785Y-64555782D01*
X85165554Y-64569123D01*
X85215567Y-64574500D01*
X85224867Y-64575500D01*
X85224868Y-64575500D01*
X86775133Y-64575500D01*
X86780381Y-64574935D01*
X86834446Y-64569123D01*
X86939592Y-64529906D01*
X86968618Y-64519080D01*
X86968620Y-64519079D01*
X86981151Y-64509697D01*
X87036028Y-64495689D01*
X87084738Y-64524587D01*
X87099500Y-64568936D01*
X87099500Y-70147519D01*
X87077826Y-70199845D01*
X87025500Y-70221519D01*
X87002634Y-70217898D01*
X86969607Y-70207167D01*
X86412428Y-70764346D01*
X86380095Y-70708343D01*
X86291657Y-70619905D01*
X86235652Y-70587571D01*
X86845187Y-69978037D01*
X86814057Y-69946907D01*
X86701865Y-69889742D01*
X86608785Y-69875000D01*
X85391215Y-69875000D01*
X85298134Y-69889742D01*
X85185942Y-69946907D01*
X85154813Y-69978037D01*
X85764347Y-70587571D01*
X85708343Y-70619905D01*
X85619905Y-70708343D01*
X85587571Y-70764347D01*
X85030392Y-70207168D01*
X85030391Y-70207168D01*
X85025000Y-70241214D01*
X85025000Y-71758786D01*
X85030391Y-71792830D01*
X85030392Y-71792830D01*
X85587570Y-71235651D01*
X85619905Y-71291657D01*
X85708343Y-71380095D01*
X85764347Y-71412428D01*
X85154813Y-72021963D01*
X85154813Y-72025500D01*
X85133139Y-72077826D01*
X85080813Y-72099500D01*
X84568937Y-72099500D01*
X84516611Y-72077826D01*
X84494937Y-72025500D01*
X84509697Y-71981153D01*
X84511251Y-71979075D01*
X84519079Y-71968620D01*
X84569123Y-71834446D01*
X84575500Y-71775132D01*
X84575500Y-70224868D01*
X84569123Y-70165554D01*
X84560249Y-70141764D01*
X84519080Y-70031381D01*
X84519079Y-70031380D01*
X84489399Y-69991732D01*
X84475837Y-69973617D01*
X84433260Y-69916740D01*
X84318620Y-69830921D01*
X84318616Y-69830918D01*
X84298638Y-69823466D01*
X84257186Y-69784872D01*
X84250500Y-69754133D01*
X84250500Y-68581482D01*
X85550001Y-68581482D01*
X85564834Y-68675148D01*
X85564835Y-68675149D01*
X85622360Y-68788046D01*
X85711953Y-68877639D01*
X85824850Y-68935164D01*
X85918518Y-68949999D01*
X86125000Y-68949999D01*
X86375000Y-68949999D01*
X86581481Y-68949999D01*
X86675148Y-68935165D01*
X86675149Y-68935164D01*
X86788046Y-68877639D01*
X86877639Y-68788046D01*
X86935164Y-68675149D01*
X86935164Y-68675148D01*
X86950000Y-68581481D01*
X86950000Y-68375000D01*
X86375000Y-68375000D01*
X86375000Y-68949999D01*
X86125000Y-68949999D01*
X86125000Y-68375000D01*
X85550001Y-68375000D01*
X85550001Y-68581482D01*
X84250500Y-68581482D01*
X84250500Y-68344349D01*
X84250500Y-68290000D01*
X84250500Y-68226082D01*
X84250499Y-68226079D01*
X84250499Y-67918518D01*
X85550000Y-67918518D01*
X85550000Y-68125000D01*
X86125000Y-68125000D01*
X86375000Y-68125000D01*
X86949999Y-68125000D01*
X86949999Y-67918517D01*
X86935165Y-67824851D01*
X86935164Y-67824850D01*
X86877639Y-67711953D01*
X86788046Y-67622360D01*
X86675149Y-67564835D01*
X86581482Y-67550000D01*
X86375000Y-67550000D01*
X86375000Y-68125000D01*
X86125000Y-68125000D01*
X86125000Y-67550000D01*
X85918518Y-67550000D01*
X85824851Y-67564834D01*
X85824850Y-67564835D01*
X85711953Y-67622360D01*
X85622360Y-67711953D01*
X85564835Y-67824850D01*
X85564835Y-67824851D01*
X85550000Y-67918518D01*
X84250499Y-67918518D01*
X84250499Y-67902128D01*
X84244091Y-67842517D01*
X84230867Y-67807061D01*
X84193797Y-67707670D01*
X84193796Y-67707669D01*
X84166533Y-67671251D01*
X84107546Y-67592454D01*
X83992331Y-67506204D01*
X83992328Y-67506203D01*
X83989036Y-67504405D01*
X83985217Y-67499667D01*
X83979345Y-67498082D01*
X83972140Y-67483438D01*
X83953498Y-67460305D01*
X83951116Y-67448982D01*
X83950500Y-67444236D01*
X83950500Y-67384108D01*
X83936635Y-67332364D01*
X83916392Y-67256814D01*
X83850500Y-67142686D01*
X83789187Y-67081373D01*
X83767513Y-67029047D01*
X83789187Y-66976721D01*
X83841513Y-66955047D01*
X83867372Y-66959712D01*
X83892517Y-66969091D01*
X83952127Y-66975500D01*
X84547872Y-66975499D01*
X84607483Y-66969091D01*
X84674907Y-66943943D01*
X84742329Y-66918797D01*
X84742329Y-66918796D01*
X84742331Y-66918796D01*
X84857546Y-66832546D01*
X84943796Y-66717331D01*
X84994091Y-66582483D01*
X85000500Y-66522873D01*
X85000500Y-66506482D01*
X85500001Y-66506482D01*
X85514834Y-66600148D01*
X85514835Y-66600149D01*
X85572360Y-66713046D01*
X85661953Y-66802639D01*
X85774850Y-66860164D01*
X85868518Y-66874999D01*
X86025000Y-66874999D01*
X86275000Y-66874999D01*
X86431481Y-66874999D01*
X86525148Y-66860165D01*
X86525149Y-66860164D01*
X86638046Y-66802639D01*
X86727639Y-66713046D01*
X86785164Y-66600149D01*
X86785164Y-66600148D01*
X86800000Y-66506481D01*
X86800000Y-66125000D01*
X86275000Y-66125000D01*
X86275000Y-66874999D01*
X86025000Y-66874999D01*
X86025000Y-66125000D01*
X85500001Y-66125000D01*
X85500001Y-66506482D01*
X85000500Y-66506482D01*
X85000499Y-65983797D01*
X85000499Y-65493518D01*
X85500000Y-65493518D01*
X85500000Y-65875000D01*
X86025000Y-65875000D01*
X86275000Y-65875000D01*
X86799999Y-65875000D01*
X86799999Y-65493517D01*
X86785165Y-65399851D01*
X86785164Y-65399850D01*
X86727639Y-65286953D01*
X86638046Y-65197360D01*
X86525149Y-65139835D01*
X86431482Y-65125000D01*
X86275000Y-65125000D01*
X86275000Y-65875000D01*
X86025000Y-65875000D01*
X86025000Y-65125000D01*
X85868518Y-65125000D01*
X85868517Y-65125001D01*
X85774851Y-65139834D01*
X85774850Y-65139835D01*
X85661953Y-65197360D01*
X85572360Y-65286953D01*
X85514835Y-65399850D01*
X85514835Y-65399851D01*
X85500000Y-65493518D01*
X85000499Y-65493518D01*
X85000499Y-65490612D01*
X85000499Y-65477126D01*
X84998955Y-65462766D01*
X84994091Y-65417517D01*
X84976240Y-65369655D01*
X84943797Y-65282670D01*
X84943796Y-65282669D01*
X84912293Y-65240587D01*
X84857546Y-65167454D01*
X84742331Y-65081204D01*
X84742330Y-65081203D01*
X84742329Y-65081202D01*
X84607487Y-65030910D01*
X84607484Y-65030909D01*
X84607483Y-65030909D01*
X84547873Y-65024500D01*
X83952126Y-65024500D01*
X83892514Y-65030909D01*
X83757670Y-65081202D01*
X83757669Y-65081203D01*
X83642454Y-65167454D01*
X83556203Y-65282669D01*
X83556202Y-65282670D01*
X83505910Y-65417512D01*
X83505909Y-65417517D01*
X83504200Y-65433412D01*
X83477055Y-65483120D01*
X83430624Y-65499500D01*
X83184105Y-65499500D01*
X83056817Y-65533606D01*
X83056812Y-65533608D01*
X82942685Y-65599500D01*
X82599500Y-65942685D01*
X82533610Y-66056809D01*
X82533606Y-66056818D01*
X82499500Y-66184105D01*
X82499500Y-67065894D01*
X82533606Y-67193181D01*
X82533610Y-67193190D01*
X82599500Y-67307314D01*
X82786579Y-67494393D01*
X82808253Y-67546719D01*
X82793493Y-67591066D01*
X82706205Y-67707667D01*
X82704405Y-67710964D01*
X82660305Y-67746502D01*
X82639456Y-67749500D01*
X81312675Y-67749500D01*
X81260349Y-67727826D01*
X81239586Y-67687075D01*
X81237080Y-67671250D01*
X81235646Y-67662196D01*
X81235645Y-67662194D01*
X81235644Y-67662191D01*
X81200525Y-67593268D01*
X81178050Y-67549158D01*
X81088342Y-67459450D01*
X80975304Y-67401854D01*
X80975302Y-67401853D01*
X80975301Y-67401853D01*
X80881519Y-67387000D01*
X80518480Y-67387000D01*
X80424695Y-67401853D01*
X80424693Y-67401854D01*
X80311657Y-67459450D01*
X80221951Y-67549156D01*
X80164353Y-67662198D01*
X80149500Y-67755980D01*
X80149500Y-68994019D01*
X80164353Y-69087804D01*
X80164354Y-69087806D01*
X80221115Y-69199204D01*
X80221950Y-69200842D01*
X80311658Y-69290550D01*
X80424696Y-69348146D01*
X80518481Y-69363000D01*
X80881518Y-69362999D01*
X80881519Y-69362999D01*
X80975304Y-69348146D01*
X80975306Y-69348145D01*
X80977419Y-69347068D01*
X81088342Y-69290550D01*
X81178050Y-69200842D01*
X81235646Y-69087804D01*
X81250500Y-68994019D01*
X81250500Y-68824500D01*
X81272174Y-68772174D01*
X81324500Y-68750500D01*
X82639456Y-68750500D01*
X82645322Y-68752930D01*
X82651507Y-68751488D01*
X82665053Y-68761102D01*
X82691782Y-68772174D01*
X82699605Y-68781394D01*
X82704859Y-68788725D01*
X82706204Y-68792331D01*
X82735225Y-68831098D01*
X82735649Y-68831689D01*
X82736811Y-68836673D01*
X82749500Y-68874795D01*
X82749500Y-69754133D01*
X82727826Y-69806459D01*
X82701362Y-69823466D01*
X82681383Y-69830918D01*
X82566740Y-69916740D01*
X82480920Y-70031380D01*
X82480919Y-70031381D01*
X82430878Y-70165549D01*
X82430877Y-70165554D01*
X82424500Y-70224867D01*
X82424500Y-71775132D01*
X82430877Y-71834445D01*
X82430878Y-71834450D01*
X82480919Y-71968618D01*
X82480920Y-71968619D01*
X82490303Y-71981153D01*
X82504310Y-72036031D01*
X82475410Y-72084740D01*
X82431063Y-72099500D01*
X80919187Y-72099500D01*
X80866861Y-72077826D01*
X80845187Y-72025500D01*
X80845187Y-72021963D01*
X80235652Y-71412428D01*
X80291657Y-71380095D01*
X80380095Y-71291657D01*
X80412428Y-71235652D01*
X80969606Y-71792830D01*
X80975000Y-71758783D01*
X80975000Y-70241215D01*
X80969607Y-70207167D01*
X80412428Y-70764346D01*
X80380095Y-70708343D01*
X80291657Y-70619905D01*
X80235652Y-70587571D01*
X80845187Y-69978037D01*
X80814057Y-69946907D01*
X80701865Y-69889742D01*
X80608785Y-69875000D01*
X79391215Y-69875000D01*
X79298134Y-69889742D01*
X79185942Y-69946907D01*
X79154813Y-69978037D01*
X79764347Y-70587571D01*
X79708343Y-70619905D01*
X79619905Y-70708343D01*
X79587571Y-70764347D01*
X79030392Y-70207168D01*
X79030391Y-70207168D01*
X79025000Y-70241214D01*
X79025000Y-71758786D01*
X79030391Y-71792830D01*
X79030392Y-71792830D01*
X79587570Y-71235651D01*
X79619905Y-71291657D01*
X79708343Y-71380095D01*
X79764347Y-71412428D01*
X79154813Y-72021963D01*
X79154813Y-72025500D01*
X79133139Y-72077826D01*
X79080813Y-72099500D01*
X78568937Y-72099500D01*
X78516611Y-72077826D01*
X78494937Y-72025500D01*
X78509697Y-71981153D01*
X78511251Y-71979075D01*
X78519079Y-71968620D01*
X78569123Y-71834446D01*
X78575500Y-71775132D01*
X78575500Y-70224868D01*
X78569123Y-70165554D01*
X78560249Y-70141764D01*
X78519080Y-70031381D01*
X78519079Y-70031380D01*
X78489399Y-69991732D01*
X78475837Y-69973617D01*
X78433260Y-69916740D01*
X78318620Y-69830921D01*
X78318619Y-69830920D01*
X78318618Y-69830919D01*
X78184450Y-69780878D01*
X78184447Y-69780877D01*
X78184446Y-69780877D01*
X78154789Y-69777688D01*
X78125133Y-69774500D01*
X78125132Y-69774500D01*
X76874868Y-69774500D01*
X76874867Y-69774500D01*
X76815554Y-69780877D01*
X76815549Y-69780878D01*
X76681381Y-69830919D01*
X76681380Y-69830920D01*
X76566740Y-69916740D01*
X76480920Y-70031380D01*
X76480919Y-70031381D01*
X76430878Y-70165549D01*
X76430877Y-70165554D01*
X76424500Y-70224867D01*
X76424500Y-71775132D01*
X76430877Y-71834445D01*
X76430878Y-71834450D01*
X76480919Y-71968618D01*
X76480920Y-71968619D01*
X76490303Y-71981153D01*
X76504310Y-72036031D01*
X76475410Y-72084740D01*
X76431063Y-72099500D01*
X72318937Y-72099500D01*
X72266611Y-72077826D01*
X72244937Y-72025500D01*
X72259697Y-71981153D01*
X72261251Y-71979075D01*
X72269079Y-71968620D01*
X72319123Y-71834446D01*
X72325500Y-71775132D01*
X72325500Y-70224868D01*
X72319123Y-70165554D01*
X72310249Y-70141764D01*
X72269080Y-70031381D01*
X72269079Y-70031380D01*
X72183260Y-69916740D01*
X72068620Y-69830921D01*
X72068619Y-69830920D01*
X72068618Y-69830919D01*
X71934450Y-69780878D01*
X71934447Y-69780877D01*
X71934446Y-69780877D01*
X71904789Y-69777688D01*
X71875133Y-69774500D01*
X71875132Y-69774500D01*
X70624868Y-69774500D01*
X70624867Y-69774500D01*
X70565554Y-69780877D01*
X70565549Y-69780878D01*
X70431381Y-69830919D01*
X70431380Y-69830920D01*
X70316740Y-69916740D01*
X70230920Y-70031380D01*
X70230919Y-70031381D01*
X70180878Y-70165549D01*
X70180877Y-70165554D01*
X70174500Y-70224867D01*
X70174500Y-71775132D01*
X70180877Y-71834445D01*
X70180878Y-71834450D01*
X70230919Y-71968618D01*
X70230920Y-71968619D01*
X70240303Y-71981153D01*
X70254310Y-72036031D01*
X70225410Y-72084740D01*
X70181063Y-72099500D01*
X69818937Y-72099500D01*
X69766611Y-72077826D01*
X69744937Y-72025500D01*
X69759697Y-71981153D01*
X69761251Y-71979075D01*
X69769079Y-71968620D01*
X69819123Y-71834446D01*
X69825500Y-71775132D01*
X69825500Y-70224868D01*
X69819123Y-70165554D01*
X69810249Y-70141764D01*
X69769080Y-70031381D01*
X69769079Y-70031380D01*
X69683260Y-69916740D01*
X69568620Y-69830921D01*
X69568619Y-69830920D01*
X69568618Y-69830919D01*
X69434450Y-69780878D01*
X69434447Y-69780877D01*
X69434446Y-69780877D01*
X69404789Y-69777688D01*
X69375133Y-69774500D01*
X69375132Y-69774500D01*
X68124868Y-69774500D01*
X68124867Y-69774500D01*
X68065554Y-69780877D01*
X68065549Y-69780878D01*
X67931381Y-69830919D01*
X67931380Y-69830920D01*
X67816740Y-69916740D01*
X67730920Y-70031380D01*
X67730919Y-70031381D01*
X67680878Y-70165549D01*
X67680877Y-70165554D01*
X67674500Y-70224867D01*
X67674500Y-71775132D01*
X67680877Y-71834445D01*
X67680878Y-71834450D01*
X67730919Y-71968618D01*
X67730920Y-71968619D01*
X67740303Y-71981153D01*
X67754310Y-72036031D01*
X67725410Y-72084740D01*
X67681063Y-72099500D01*
X67169187Y-72099500D01*
X67116861Y-72077826D01*
X67095187Y-72025500D01*
X67095187Y-72021963D01*
X66485652Y-71412428D01*
X66541657Y-71380095D01*
X66630095Y-71291657D01*
X66662428Y-71235652D01*
X67219606Y-71792830D01*
X67225000Y-71758783D01*
X67225000Y-70241215D01*
X67219607Y-70207167D01*
X66662428Y-70764346D01*
X66630095Y-70708343D01*
X66541657Y-70619905D01*
X66485652Y-70587571D01*
X67095187Y-69978037D01*
X67064057Y-69946907D01*
X66951865Y-69889742D01*
X66858785Y-69875000D01*
X65641215Y-69875000D01*
X65548134Y-69889742D01*
X65435942Y-69946907D01*
X65404813Y-69978037D01*
X66014347Y-70587571D01*
X65958343Y-70619905D01*
X65869905Y-70708343D01*
X65837571Y-70764347D01*
X65280392Y-70207168D01*
X65280391Y-70207168D01*
X65275000Y-70241214D01*
X65275000Y-71758786D01*
X65280391Y-71792830D01*
X65280392Y-71792830D01*
X65837570Y-71235651D01*
X65869905Y-71291657D01*
X65958343Y-71380095D01*
X66014347Y-71412428D01*
X65404813Y-72021963D01*
X65404813Y-72025500D01*
X65383139Y-72077826D01*
X65330813Y-72099500D01*
X64818937Y-72099500D01*
X64766611Y-72077826D01*
X64744937Y-72025500D01*
X64759697Y-71981153D01*
X64761251Y-71979075D01*
X64769079Y-71968620D01*
X64819123Y-71834446D01*
X64825500Y-71775132D01*
X64825500Y-70224868D01*
X64819123Y-70165554D01*
X64810249Y-70141764D01*
X64769080Y-70031381D01*
X64769079Y-70031380D01*
X64739399Y-69991732D01*
X64725837Y-69973617D01*
X64683260Y-69916740D01*
X64568620Y-69830921D01*
X64568619Y-69830920D01*
X64568618Y-69830919D01*
X64434450Y-69780878D01*
X64434447Y-69780877D01*
X64434446Y-69780877D01*
X64404789Y-69777688D01*
X64375133Y-69774500D01*
X64375132Y-69774500D01*
X63124868Y-69774500D01*
X63124867Y-69774500D01*
X63065554Y-69780877D01*
X63065549Y-69780878D01*
X62931381Y-69830919D01*
X62931380Y-69830920D01*
X62816740Y-69916740D01*
X62730920Y-70031380D01*
X62730919Y-70031381D01*
X62680878Y-70165549D01*
X62680877Y-70165554D01*
X62678957Y-70183412D01*
X62651813Y-70233120D01*
X62605381Y-70249500D01*
X57314499Y-70249500D01*
X57262173Y-70227826D01*
X57240499Y-70175500D01*
X57240499Y-69508876D01*
X57238955Y-69494516D01*
X57234091Y-69449267D01*
X57201916Y-69363000D01*
X57183797Y-69314420D01*
X57183796Y-69314419D01*
X57097546Y-69199204D01*
X56994746Y-69122248D01*
X56982330Y-69112953D01*
X56963638Y-69105981D01*
X56922187Y-69067386D01*
X56915500Y-69036647D01*
X56915500Y-68197555D01*
X77930000Y-68197555D01*
X77932763Y-68221377D01*
X77932763Y-68221379D01*
X77975804Y-68318855D01*
X78051144Y-68394195D01*
X78148621Y-68437236D01*
X78172444Y-68440000D01*
X78275000Y-68440000D01*
X78525000Y-68440000D01*
X78627556Y-68440000D01*
X78651377Y-68437236D01*
X78651379Y-68437236D01*
X78748855Y-68394195D01*
X78824195Y-68318855D01*
X78867236Y-68221379D01*
X78867236Y-68221377D01*
X78870000Y-68197555D01*
X78870000Y-68145000D01*
X78525000Y-68145000D01*
X78525000Y-68440000D01*
X78275000Y-68440000D01*
X78275000Y-68145000D01*
X77930000Y-68145000D01*
X77930000Y-68197555D01*
X56915500Y-68197555D01*
X56915500Y-67275859D01*
X56914993Y-67273968D01*
X56893021Y-67191963D01*
X56890500Y-67172811D01*
X56890500Y-67075174D01*
X56890500Y-67075168D01*
X56879582Y-67000232D01*
X56823076Y-66884648D01*
X56766841Y-66828413D01*
X77829500Y-66828413D01*
X77829500Y-67171586D01*
X77840418Y-67246518D01*
X77896924Y-67362102D01*
X77987898Y-67453076D01*
X78028952Y-67473146D01*
X78082082Y-67499120D01*
X78119572Y-67541574D01*
X78116062Y-67598102D01*
X78079472Y-67633295D01*
X78051146Y-67645802D01*
X77975804Y-67721144D01*
X77932763Y-67818620D01*
X77932763Y-67818622D01*
X77930000Y-67842444D01*
X77930000Y-67895000D01*
X78870000Y-67895000D01*
X78870000Y-67842444D01*
X78867236Y-67818622D01*
X78867236Y-67818620D01*
X78824195Y-67721144D01*
X78748854Y-67645803D01*
X78720528Y-67633296D01*
X78681415Y-67592333D01*
X78682723Y-67535711D01*
X78717915Y-67499121D01*
X78812102Y-67453076D01*
X78893004Y-67372174D01*
X78945330Y-67350500D01*
X78953856Y-67350500D01*
X79265956Y-67350500D01*
X79318282Y-67372174D01*
X79361658Y-67415550D01*
X79474696Y-67473146D01*
X79568481Y-67488000D01*
X79931518Y-67487999D01*
X79931519Y-67487999D01*
X80025304Y-67473146D01*
X80025306Y-67473145D01*
X80027419Y-67472068D01*
X80138342Y-67415550D01*
X80228050Y-67325842D01*
X80285646Y-67212804D01*
X80300500Y-67119019D01*
X80300499Y-65880982D01*
X80300102Y-65878477D01*
X80285646Y-65787195D01*
X80285645Y-65787193D01*
X80228049Y-65674157D01*
X80138343Y-65584451D01*
X80138342Y-65584450D01*
X80025304Y-65526854D01*
X80025302Y-65526853D01*
X80025301Y-65526853D01*
X79931519Y-65512000D01*
X79568480Y-65512000D01*
X79474695Y-65526853D01*
X79474693Y-65526854D01*
X79361657Y-65584450D01*
X79271951Y-65674156D01*
X79214353Y-65787198D01*
X79199500Y-65880980D01*
X79199500Y-65880981D01*
X79199500Y-66257156D01*
X79199501Y-66575500D01*
X79177827Y-66627826D01*
X79125501Y-66649500D01*
X78945330Y-66649500D01*
X78893004Y-66627826D01*
X78812102Y-66546924D01*
X78696518Y-66490418D01*
X78621586Y-66479500D01*
X78621582Y-66479500D01*
X78178418Y-66479500D01*
X78178413Y-66479500D01*
X78103481Y-66490418D01*
X77987897Y-66546924D01*
X77896924Y-66637897D01*
X77840418Y-66753481D01*
X77829500Y-66828413D01*
X56766841Y-66828413D01*
X56732102Y-66793674D01*
X56616518Y-66737168D01*
X56541586Y-66726250D01*
X56541582Y-66726250D01*
X56198418Y-66726250D01*
X56198413Y-66726250D01*
X56123481Y-66737168D01*
X56007897Y-66793674D01*
X55976826Y-66824746D01*
X55924500Y-66846420D01*
X55872174Y-66824746D01*
X55850500Y-66772420D01*
X55850500Y-66309482D01*
X55872174Y-66257156D01*
X55924500Y-66235482D01*
X55976826Y-66257156D01*
X56029082Y-66309412D01*
X56141517Y-66364379D01*
X56214407Y-66374999D01*
X56214418Y-66375000D01*
X56375000Y-66375000D01*
X56625000Y-66375000D01*
X56785582Y-66375000D01*
X56785592Y-66374999D01*
X56858482Y-66364379D01*
X56970917Y-66309412D01*
X57059412Y-66220917D01*
X57114379Y-66108482D01*
X57124999Y-66035592D01*
X57125000Y-66035581D01*
X57125000Y-65900000D01*
X56625000Y-65900000D01*
X56625000Y-66375000D01*
X56375000Y-66375000D01*
X56375000Y-65900000D01*
X55855182Y-65900000D01*
X55802856Y-65878326D01*
X55791096Y-65863000D01*
X55750499Y-65792685D01*
X55472221Y-65514407D01*
X55875000Y-65514407D01*
X55875000Y-65650000D01*
X56375000Y-65650000D01*
X56625000Y-65650000D01*
X57125000Y-65650000D01*
X57125000Y-65514418D01*
X57124999Y-65514407D01*
X57114379Y-65441517D01*
X57059412Y-65329082D01*
X56970917Y-65240587D01*
X56858482Y-65185620D01*
X56785592Y-65175000D01*
X56625000Y-65175000D01*
X56625000Y-65650000D01*
X56375000Y-65650000D01*
X56375000Y-65175000D01*
X56214407Y-65175000D01*
X56141517Y-65185620D01*
X56029082Y-65240587D01*
X55940587Y-65329082D01*
X55885620Y-65441517D01*
X55875000Y-65514407D01*
X55472221Y-65514407D01*
X54772314Y-64814500D01*
X54658190Y-64748610D01*
X54658181Y-64748606D01*
X54530894Y-64714500D01*
X54530892Y-64714500D01*
X54463352Y-64714500D01*
X54411026Y-64692826D01*
X54399492Y-64677889D01*
X54396255Y-64672360D01*
X54387046Y-64647669D01*
X54362963Y-64615499D01*
X54360850Y-64611889D01*
X54357510Y-64587662D01*
X54351463Y-64563969D01*
X54353720Y-64560164D01*
X54353116Y-64555782D01*
X54367885Y-64536289D01*
X54380363Y-64515260D01*
X54384986Y-64513721D01*
X54387321Y-64510640D01*
X54399138Y-64509011D01*
X54424710Y-64500500D01*
X54762034Y-64500500D01*
X54814360Y-64522174D01*
X54917686Y-64625500D01*
X55031814Y-64691392D01*
X55159105Y-64725499D01*
X55159106Y-64725500D01*
X55159108Y-64725500D01*
X55290892Y-64725500D01*
X55825221Y-64725500D01*
X55877547Y-64747174D01*
X55884461Y-64755153D01*
X55910311Y-64789685D01*
X55910312Y-64789685D01*
X55910313Y-64789687D01*
X56019774Y-64871628D01*
X56019773Y-64871628D01*
X56063792Y-64888046D01*
X56147886Y-64919412D01*
X56204515Y-64925500D01*
X56795484Y-64925499D01*
X56852114Y-64919412D01*
X56980226Y-64871628D01*
X57089687Y-64789687D01*
X57171628Y-64680226D01*
X57183772Y-64647669D01*
X57202844Y-64596535D01*
X60574500Y-64596535D01*
X60574500Y-64803464D01*
X60614868Y-65006413D01*
X60614870Y-65006420D01*
X60694059Y-65197598D01*
X60809023Y-65369655D01*
X60955345Y-65515977D01*
X61127402Y-65630941D01*
X61318580Y-65710130D01*
X61521535Y-65750500D01*
X61521536Y-65750500D01*
X62978464Y-65750500D01*
X62978465Y-65750500D01*
X63181420Y-65710130D01*
X63372598Y-65630941D01*
X63544655Y-65515977D01*
X63690977Y-65369655D01*
X63782027Y-65233387D01*
X63829119Y-65201922D01*
X63843556Y-65200500D01*
X65956444Y-65200500D01*
X66008770Y-65222174D01*
X66017972Y-65233387D01*
X66109023Y-65369655D01*
X66255345Y-65515977D01*
X66427402Y-65630941D01*
X66618580Y-65710130D01*
X66821535Y-65750500D01*
X66821536Y-65750500D01*
X68278464Y-65750500D01*
X68278465Y-65750500D01*
X68481420Y-65710130D01*
X68672598Y-65630941D01*
X68844655Y-65515977D01*
X68990977Y-65369655D01*
X69105941Y-65197598D01*
X69185130Y-65006420D01*
X69225500Y-64803465D01*
X69225500Y-64596535D01*
X71174500Y-64596535D01*
X71174500Y-64803464D01*
X71214868Y-65006413D01*
X71214870Y-65006420D01*
X71294059Y-65197598D01*
X71409023Y-65369655D01*
X71555345Y-65515977D01*
X71727402Y-65630941D01*
X71918580Y-65710130D01*
X72121535Y-65750500D01*
X72121536Y-65750500D01*
X73578464Y-65750500D01*
X73578465Y-65750500D01*
X73781420Y-65710130D01*
X73972598Y-65630941D01*
X74144655Y-65515977D01*
X74290977Y-65369655D01*
X74405941Y-65197598D01*
X74485130Y-65006420D01*
X74525500Y-64803465D01*
X74525500Y-64681482D01*
X78825001Y-64681482D01*
X78839834Y-64775148D01*
X78839835Y-64775149D01*
X78897360Y-64888046D01*
X78986953Y-64977639D01*
X79099850Y-65035164D01*
X79193518Y-65049999D01*
X79425000Y-65049999D01*
X79675000Y-65049999D01*
X79906481Y-65049999D01*
X80000148Y-65035165D01*
X80000149Y-65035164D01*
X80113046Y-64977639D01*
X80202639Y-64888046D01*
X80260164Y-64775149D01*
X80260164Y-64775148D01*
X80275000Y-64681481D01*
X80275000Y-64125000D01*
X79675000Y-64125000D01*
X79675000Y-65049999D01*
X79425000Y-65049999D01*
X79425000Y-64125000D01*
X78825001Y-64125000D01*
X78825001Y-64681482D01*
X74525500Y-64681482D01*
X74525500Y-64596535D01*
X74485130Y-64393580D01*
X74405941Y-64202402D01*
X74290977Y-64030345D01*
X74144655Y-63884023D01*
X74092987Y-63849500D01*
X73972598Y-63769059D01*
X73781420Y-63689870D01*
X73781413Y-63689868D01*
X73628516Y-63659455D01*
X73578465Y-63649500D01*
X72121535Y-63649500D01*
X72081385Y-63657486D01*
X71918586Y-63689868D01*
X71918579Y-63689870D01*
X71727401Y-63769059D01*
X71555345Y-63884022D01*
X71555344Y-63884024D01*
X71409024Y-64030344D01*
X71409022Y-64030345D01*
X71294059Y-64202401D01*
X71214870Y-64393579D01*
X71214868Y-64393586D01*
X71174500Y-64596535D01*
X69225500Y-64596535D01*
X69185130Y-64393580D01*
X69105941Y-64202402D01*
X68990977Y-64030345D01*
X68844655Y-63884023D01*
X68792987Y-63849500D01*
X68672598Y-63769059D01*
X68481420Y-63689870D01*
X68481413Y-63689868D01*
X68328516Y-63659455D01*
X68278465Y-63649500D01*
X66821535Y-63649500D01*
X66781385Y-63657486D01*
X66618586Y-63689868D01*
X66618579Y-63689870D01*
X66427401Y-63769059D01*
X66255345Y-63884022D01*
X66255344Y-63884024D01*
X66109024Y-64030344D01*
X66109022Y-64030345D01*
X66017973Y-64166612D01*
X65970881Y-64198078D01*
X65956444Y-64199500D01*
X63843556Y-64199500D01*
X63791230Y-64177826D01*
X63782027Y-64166612D01*
X63690977Y-64030345D01*
X63544654Y-63884022D01*
X63372598Y-63769059D01*
X63181420Y-63689870D01*
X63181413Y-63689868D01*
X63028516Y-63659455D01*
X62978465Y-63649500D01*
X61521535Y-63649500D01*
X61481385Y-63657486D01*
X61318586Y-63689868D01*
X61318579Y-63689870D01*
X61127401Y-63769059D01*
X60955345Y-63884022D01*
X60955344Y-63884024D01*
X60809024Y-64030344D01*
X60809022Y-64030345D01*
X60694059Y-64202401D01*
X60614870Y-64393579D01*
X60614868Y-64393586D01*
X60574500Y-64596535D01*
X57202844Y-64596535D01*
X57213845Y-64567040D01*
X57213845Y-64567039D01*
X57216409Y-64560164D01*
X57219412Y-64552114D01*
X57225500Y-64495485D01*
X57225499Y-63954516D01*
X57219412Y-63897886D01*
X57171628Y-63769774D01*
X57089687Y-63660313D01*
X56980226Y-63578372D01*
X56980225Y-63578371D01*
X56980226Y-63578371D01*
X56852114Y-63530588D01*
X56795486Y-63524500D01*
X56204515Y-63524500D01*
X56204514Y-63524501D01*
X56147885Y-63530588D01*
X56019774Y-63578371D01*
X55910311Y-63660314D01*
X55884461Y-63694847D01*
X55861358Y-63708554D01*
X55838873Y-63723230D01*
X55836205Y-63723478D01*
X55835752Y-63723747D01*
X55835101Y-63723580D01*
X55825221Y-63724500D01*
X55661965Y-63724500D01*
X55609639Y-63702826D01*
X55587965Y-63650500D01*
X55609639Y-63598174D01*
X55677225Y-63530588D01*
X55751313Y-63456500D01*
X55751315Y-63456499D01*
X55844501Y-63363313D01*
X55904409Y-63259547D01*
X55910691Y-63250345D01*
X55913255Y-63247136D01*
X55922051Y-63238342D01*
X55925153Y-63232252D01*
X55929857Y-63226369D01*
X55948549Y-63216066D01*
X55964775Y-63202202D01*
X55972592Y-63202815D01*
X55979459Y-63199031D01*
X55999961Y-63204963D01*
X56021239Y-63206633D01*
X56031506Y-63214090D01*
X56033865Y-63214773D01*
X56034812Y-63216491D01*
X56039985Y-63220249D01*
X56071522Y-63251786D01*
X56174125Y-63297089D01*
X56174124Y-63297089D01*
X56199211Y-63299999D01*
X56269000Y-63299999D01*
X56519001Y-63299999D01*
X56588793Y-63299999D01*
X56613869Y-63297091D01*
X56613875Y-63297089D01*
X56716479Y-63251786D01*
X56795787Y-63172478D01*
X56841090Y-63069875D01*
X56844001Y-63044789D01*
X56844001Y-62612500D01*
X56519001Y-62612500D01*
X56519001Y-63299999D01*
X56269000Y-63299999D01*
X56269001Y-63299998D01*
X56269001Y-62561500D01*
X56290675Y-62509174D01*
X56343001Y-62487500D01*
X56394001Y-62487500D01*
X56394001Y-62436500D01*
X56415675Y-62384174D01*
X56468001Y-62362500D01*
X56844000Y-62362500D01*
X56844000Y-61934105D01*
X67249500Y-61934105D01*
X67249500Y-62065894D01*
X67283606Y-62193181D01*
X67283610Y-62193190D01*
X67340709Y-62292088D01*
X67349500Y-62307314D01*
X67442686Y-62400500D01*
X67556814Y-62466392D01*
X67684105Y-62500499D01*
X67684106Y-62500500D01*
X67684108Y-62500500D01*
X67815894Y-62500500D01*
X67815894Y-62500499D01*
X67943186Y-62466392D01*
X68057314Y-62400500D01*
X68085640Y-62372174D01*
X68137966Y-62350500D01*
X68824166Y-62350500D01*
X68876492Y-62372174D01*
X70227826Y-63723508D01*
X70249500Y-63775834D01*
X70249500Y-63815894D01*
X70283606Y-63943181D01*
X70283607Y-63943184D01*
X70283608Y-63943186D01*
X70349500Y-64057314D01*
X70442686Y-64150500D01*
X70556814Y-64216392D01*
X70684105Y-64250499D01*
X70684106Y-64250500D01*
X70684108Y-64250500D01*
X70815894Y-64250500D01*
X70815894Y-64250499D01*
X70943186Y-64216392D01*
X71057314Y-64150500D01*
X71150500Y-64057314D01*
X71216392Y-63943186D01*
X71250499Y-63815894D01*
X71250500Y-63815894D01*
X71250500Y-63684106D01*
X71250499Y-63684105D01*
X71227829Y-63599500D01*
X71216392Y-63556814D01*
X71150500Y-63442686D01*
X71057314Y-63349500D01*
X71003652Y-63318518D01*
X78825000Y-63318518D01*
X78825000Y-63875000D01*
X79425000Y-63875000D01*
X79675000Y-63875000D01*
X80274999Y-63875000D01*
X80274999Y-63318517D01*
X80260165Y-63224851D01*
X80260164Y-63224850D01*
X80202639Y-63111953D01*
X80113046Y-63022360D01*
X80000149Y-62964835D01*
X79906482Y-62950000D01*
X79675000Y-62950000D01*
X79675000Y-63875000D01*
X79425000Y-63875000D01*
X79425000Y-62950000D01*
X79193518Y-62950000D01*
X79099851Y-62964834D01*
X79099850Y-62964835D01*
X78986953Y-63022360D01*
X78897360Y-63111953D01*
X78839835Y-63224850D01*
X78839835Y-63224851D01*
X78825000Y-63318518D01*
X71003652Y-63318518D01*
X71003650Y-63318517D01*
X70943190Y-63283610D01*
X70943181Y-63283606D01*
X70815894Y-63249500D01*
X70815892Y-63249500D01*
X70775834Y-63249500D01*
X70723508Y-63227826D01*
X69215212Y-61719530D01*
X69135289Y-61673386D01*
X69135284Y-61673384D01*
X69046146Y-61649500D01*
X69046144Y-61649500D01*
X68137966Y-61649500D01*
X68085640Y-61627826D01*
X68057314Y-61599500D01*
X67943190Y-61533610D01*
X67943181Y-61533606D01*
X67815894Y-61499500D01*
X67815892Y-61499500D01*
X67684108Y-61499500D01*
X67684106Y-61499500D01*
X67556818Y-61533606D01*
X67556809Y-61533610D01*
X67442685Y-61599500D01*
X67349500Y-61692685D01*
X67283610Y-61806809D01*
X67283606Y-61806818D01*
X67249500Y-61934105D01*
X56844000Y-61934105D01*
X56844000Y-61930207D01*
X56841092Y-61905131D01*
X56841090Y-61905125D01*
X56795787Y-61802521D01*
X56716479Y-61723213D01*
X56613876Y-61677910D01*
X56613877Y-61677910D01*
X56588790Y-61675000D01*
X56499333Y-61675000D01*
X56447007Y-61653326D01*
X56425333Y-61601000D01*
X56447006Y-61548675D01*
X56674471Y-61321211D01*
X56720615Y-61241287D01*
X56729457Y-61208290D01*
X56732557Y-61196722D01*
X56744501Y-61152142D01*
X56744501Y-61117678D01*
X56766175Y-61065352D01*
X56777896Y-61056838D01*
X56777631Y-61056474D01*
X56782341Y-61053051D01*
X56782340Y-61053051D01*
X56782343Y-61053050D01*
X56872051Y-60963342D01*
X56929647Y-60850304D01*
X56944501Y-60756519D01*
X56944500Y-59874999D01*
X60681252Y-59874999D01*
X60681252Y-59875000D01*
X61140856Y-59875000D01*
X61125000Y-59934174D01*
X61125000Y-60065826D01*
X61140856Y-60125000D01*
X60681252Y-60125000D01*
X60711506Y-60277099D01*
X60711509Y-60277109D01*
X60783119Y-60449991D01*
X60887086Y-60605589D01*
X61019410Y-60737913D01*
X61175008Y-60841880D01*
X61347890Y-60913490D01*
X61347900Y-60913493D01*
X61531435Y-60950000D01*
X62125000Y-60950000D01*
X62125000Y-60500000D01*
X62375000Y-60500000D01*
X62375000Y-60950000D01*
X62968565Y-60950000D01*
X63152099Y-60913493D01*
X63152109Y-60913490D01*
X63324991Y-60841880D01*
X63480589Y-60737913D01*
X63480591Y-60737912D01*
X63612912Y-60605591D01*
X63612913Y-60605589D01*
X63716880Y-60449991D01*
X63788490Y-60277109D01*
X63788493Y-60277099D01*
X63818747Y-60125000D01*
X63359144Y-60125000D01*
X63375000Y-60065826D01*
X63375000Y-59934174D01*
X63364914Y-59896535D01*
X65874500Y-59896535D01*
X65874500Y-60103465D01*
X65880872Y-60135500D01*
X65914868Y-60306413D01*
X65914870Y-60306420D01*
X65994059Y-60497598D01*
X66035671Y-60559876D01*
X66109023Y-60669655D01*
X66255345Y-60815977D01*
X66427402Y-60930941D01*
X66618580Y-61010130D01*
X66821535Y-61050500D01*
X66821536Y-61050500D01*
X68278464Y-61050500D01*
X68278465Y-61050500D01*
X68481420Y-61010130D01*
X68672598Y-60930941D01*
X68844655Y-60815977D01*
X68990977Y-60669655D01*
X69105941Y-60497598D01*
X69185130Y-60306420D01*
X69225500Y-60103465D01*
X69225500Y-59896535D01*
X71174500Y-59896535D01*
X71174500Y-60103465D01*
X71180872Y-60135500D01*
X71214868Y-60306413D01*
X71214870Y-60306420D01*
X71294059Y-60497598D01*
X71335671Y-60559876D01*
X71409023Y-60669655D01*
X71555345Y-60815977D01*
X71727402Y-60930941D01*
X71918580Y-61010130D01*
X72121535Y-61050500D01*
X72121536Y-61050500D01*
X73578464Y-61050500D01*
X73578465Y-61050500D01*
X73781420Y-61010130D01*
X73972598Y-60930941D01*
X74144655Y-60815977D01*
X74290977Y-60669655D01*
X74405941Y-60497598D01*
X74485130Y-60306420D01*
X74525500Y-60103465D01*
X74525500Y-59896535D01*
X74485130Y-59693580D01*
X74405941Y-59502402D01*
X74290977Y-59330345D01*
X74144655Y-59184023D01*
X74133514Y-59176579D01*
X73972598Y-59069059D01*
X73781420Y-58989870D01*
X73781413Y-58989868D01*
X73628516Y-58959455D01*
X73578465Y-58949500D01*
X72121535Y-58949500D01*
X72081385Y-58957486D01*
X71918586Y-58989868D01*
X71918579Y-58989870D01*
X71727401Y-59069059D01*
X71555345Y-59184022D01*
X71555344Y-59184024D01*
X71409024Y-59330344D01*
X71409022Y-59330345D01*
X71294059Y-59502401D01*
X71214870Y-59693579D01*
X71214868Y-59693586D01*
X71177676Y-59880567D01*
X71174500Y-59896535D01*
X69225500Y-59896535D01*
X69185130Y-59693580D01*
X69105941Y-59502402D01*
X68990977Y-59330345D01*
X68844655Y-59184023D01*
X68833514Y-59176579D01*
X68672598Y-59069059D01*
X68481420Y-58989870D01*
X68481413Y-58989868D01*
X68328516Y-58959455D01*
X68278465Y-58949500D01*
X66821535Y-58949500D01*
X66781385Y-58957486D01*
X66618586Y-58989868D01*
X66618579Y-58989870D01*
X66427401Y-59069059D01*
X66255345Y-59184022D01*
X66255344Y-59184024D01*
X66109024Y-59330344D01*
X66109022Y-59330345D01*
X65994059Y-59502401D01*
X65914870Y-59693579D01*
X65914868Y-59693586D01*
X65877676Y-59880567D01*
X65874500Y-59896535D01*
X63364914Y-59896535D01*
X63359144Y-59875000D01*
X63818748Y-59875000D01*
X63818747Y-59874999D01*
X63788493Y-59722900D01*
X63788490Y-59722890D01*
X63716880Y-59550008D01*
X63612913Y-59394410D01*
X63480589Y-59262086D01*
X63324991Y-59158119D01*
X63152109Y-59086509D01*
X63152099Y-59086506D01*
X62968565Y-59050000D01*
X62375000Y-59050000D01*
X62375000Y-59500000D01*
X62125000Y-59500000D01*
X62125000Y-59050000D01*
X61531435Y-59050000D01*
X61347900Y-59086506D01*
X61347890Y-59086509D01*
X61175008Y-59158119D01*
X61019410Y-59262086D01*
X61019409Y-59262088D01*
X60887088Y-59394409D01*
X60887086Y-59394410D01*
X60783119Y-59550008D01*
X60711509Y-59722890D01*
X60711506Y-59722900D01*
X60681252Y-59874999D01*
X56944500Y-59874999D01*
X56944500Y-59668482D01*
X56939017Y-59633863D01*
X56929647Y-59574695D01*
X56929646Y-59574693D01*
X56891587Y-59500000D01*
X56872051Y-59461658D01*
X56782343Y-59371950D01*
X56669305Y-59314354D01*
X56669303Y-59314353D01*
X56669302Y-59314353D01*
X56575520Y-59299500D01*
X56212481Y-59299500D01*
X56118696Y-59314353D01*
X56118692Y-59314355D01*
X56052096Y-59348288D01*
X55995634Y-59352732D01*
X55952567Y-59315949D01*
X55944501Y-59282354D01*
X55944501Y-59074500D01*
X55966175Y-59022174D01*
X56018501Y-59000500D01*
X56315894Y-59000500D01*
X56315894Y-59000499D01*
X56443186Y-58966392D01*
X56557314Y-58900500D01*
X58400500Y-57057314D01*
X58466392Y-56943186D01*
X58500499Y-56815894D01*
X58500500Y-56815894D01*
X58500500Y-55196535D01*
X60574500Y-55196535D01*
X60574500Y-55403465D01*
X60580375Y-55433001D01*
X60614868Y-55606413D01*
X60614870Y-55606420D01*
X60694059Y-55797598D01*
X60756395Y-55890892D01*
X60809023Y-55969655D01*
X60955345Y-56115977D01*
X61127402Y-56230941D01*
X61318580Y-56310130D01*
X61521535Y-56350500D01*
X61521536Y-56350500D01*
X62978464Y-56350500D01*
X62978465Y-56350500D01*
X63181420Y-56310130D01*
X63372598Y-56230941D01*
X63544655Y-56115977D01*
X63690977Y-55969655D01*
X63805941Y-55797598D01*
X63885130Y-55606420D01*
X63925500Y-55403465D01*
X63925500Y-55196535D01*
X65874500Y-55196535D01*
X65874500Y-55403465D01*
X65880375Y-55433001D01*
X65914868Y-55606413D01*
X65914870Y-55606420D01*
X65994059Y-55797598D01*
X66056395Y-55890892D01*
X66109023Y-55969655D01*
X66255345Y-56115977D01*
X66427402Y-56230941D01*
X66618580Y-56310130D01*
X66821535Y-56350500D01*
X66821536Y-56350500D01*
X68278464Y-56350500D01*
X68278465Y-56350500D01*
X68481420Y-56310130D01*
X68672598Y-56230941D01*
X68844655Y-56115977D01*
X68990977Y-55969655D01*
X69105941Y-55797598D01*
X69185130Y-55606420D01*
X69225500Y-55403465D01*
X69225500Y-55196535D01*
X71174500Y-55196535D01*
X71174500Y-55403465D01*
X71180375Y-55433001D01*
X71214868Y-55606413D01*
X71214870Y-55606420D01*
X71294059Y-55797598D01*
X71356395Y-55890892D01*
X71409023Y-55969655D01*
X71555345Y-56115977D01*
X71727402Y-56230941D01*
X71918580Y-56310130D01*
X72121535Y-56350500D01*
X72121536Y-56350500D01*
X73578464Y-56350500D01*
X73578465Y-56350500D01*
X73781420Y-56310130D01*
X73972598Y-56230941D01*
X74144655Y-56115977D01*
X74290977Y-55969655D01*
X74405941Y-55797598D01*
X74485130Y-55606420D01*
X74525500Y-55403465D01*
X74525500Y-55196535D01*
X74485130Y-54993580D01*
X74405941Y-54802402D01*
X74290977Y-54630345D01*
X74144655Y-54484023D01*
X74119184Y-54467004D01*
X73972598Y-54369059D01*
X73781420Y-54289870D01*
X73781413Y-54289868D01*
X73628516Y-54259455D01*
X73578465Y-54249500D01*
X72121535Y-54249500D01*
X72081385Y-54257486D01*
X71918586Y-54289868D01*
X71918579Y-54289870D01*
X71727401Y-54369059D01*
X71555345Y-54484022D01*
X71555344Y-54484024D01*
X71409024Y-54630344D01*
X71409022Y-54630345D01*
X71294059Y-54802401D01*
X71214870Y-54993579D01*
X71214868Y-54993586D01*
X71203875Y-55048855D01*
X71174500Y-55196535D01*
X69225500Y-55196535D01*
X69185130Y-54993580D01*
X69105941Y-54802402D01*
X68990977Y-54630345D01*
X68844655Y-54484023D01*
X68819184Y-54467004D01*
X68672598Y-54369059D01*
X68481420Y-54289870D01*
X68481413Y-54289868D01*
X68328516Y-54259455D01*
X68278465Y-54249500D01*
X66821535Y-54249500D01*
X66781385Y-54257486D01*
X66618586Y-54289868D01*
X66618579Y-54289870D01*
X66427401Y-54369059D01*
X66255345Y-54484022D01*
X66255344Y-54484024D01*
X66109024Y-54630344D01*
X66109022Y-54630345D01*
X65994059Y-54802401D01*
X65914870Y-54993579D01*
X65914868Y-54993586D01*
X65903875Y-55048855D01*
X65874500Y-55196535D01*
X63925500Y-55196535D01*
X63885130Y-54993580D01*
X63805941Y-54802402D01*
X63690977Y-54630345D01*
X63544655Y-54484023D01*
X63519184Y-54467004D01*
X63372598Y-54369059D01*
X63181420Y-54289870D01*
X63181413Y-54289868D01*
X63028516Y-54259455D01*
X62978465Y-54249500D01*
X61521535Y-54249500D01*
X61481385Y-54257486D01*
X61318586Y-54289868D01*
X61318579Y-54289870D01*
X61127401Y-54369059D01*
X60955345Y-54484022D01*
X60955344Y-54484024D01*
X60809024Y-54630344D01*
X60809022Y-54630345D01*
X60694059Y-54802401D01*
X60614870Y-54993579D01*
X60614868Y-54993586D01*
X60603875Y-55048855D01*
X60574500Y-55196535D01*
X58500500Y-55196535D01*
X58500500Y-53487966D01*
X58522174Y-53435640D01*
X58935640Y-53022174D01*
X58987966Y-53000500D01*
X75762034Y-53000500D01*
X75814360Y-53022174D01*
G37*
%TD.AperFunction*%
%TA.AperFunction,Conductor*%
G36*
X56942137Y-51422174D02*
G01*
X56963811Y-51474500D01*
X56942137Y-51526826D01*
X56199525Y-52269437D01*
X56150090Y-52355062D01*
X56124785Y-52449503D01*
X56124779Y-52449523D01*
X56124500Y-52450563D01*
X56124500Y-54969038D01*
X56102826Y-55021364D01*
X56078819Y-55037405D01*
X56002401Y-55069059D01*
X55830345Y-55184022D01*
X55830344Y-55184024D01*
X55684024Y-55330344D01*
X55684022Y-55330345D01*
X55569057Y-55502405D01*
X55547761Y-55553819D01*
X55507712Y-55593867D01*
X55479394Y-55599500D01*
X54278371Y-55599500D01*
X54226045Y-55577826D01*
X54208524Y-55549941D01*
X54177793Y-55462118D01*
X54177792Y-55462116D01*
X54097153Y-55352853D01*
X54097146Y-55352846D01*
X53987883Y-55272207D01*
X53987881Y-55272206D01*
X53859704Y-55227355D01*
X53859705Y-55227355D01*
X53859700Y-55227354D01*
X53859699Y-55227354D01*
X53829266Y-55224500D01*
X53320734Y-55224500D01*
X53290301Y-55227354D01*
X53290299Y-55227354D01*
X53290295Y-55227355D01*
X53162118Y-55272206D01*
X53162116Y-55272207D01*
X53052853Y-55352846D01*
X53052846Y-55352853D01*
X52972207Y-55462116D01*
X52972206Y-55462118D01*
X52927355Y-55590295D01*
X52927354Y-55590299D01*
X52927354Y-55590301D01*
X52924500Y-55620734D01*
X52924500Y-56279266D01*
X52927354Y-56309699D01*
X52927354Y-56309701D01*
X52927355Y-56309704D01*
X52972206Y-56437881D01*
X52972207Y-56437883D01*
X53052846Y-56547146D01*
X53052853Y-56547153D01*
X53162116Y-56627792D01*
X53162118Y-56627793D01*
X53290295Y-56672644D01*
X53290301Y-56672646D01*
X53320734Y-56675500D01*
X53320741Y-56675500D01*
X53829258Y-56675500D01*
X53829266Y-56675500D01*
X53859699Y-56672646D01*
X53987882Y-56627793D01*
X54097150Y-56547150D01*
X54177793Y-56437882D01*
X54192384Y-56396182D01*
X54208524Y-56350059D01*
X54246264Y-56307828D01*
X54278371Y-56300500D01*
X55437973Y-56300500D01*
X55490299Y-56322174D01*
X55506339Y-56346179D01*
X55559906Y-56475500D01*
X55569059Y-56497598D01*
X55671750Y-56651288D01*
X55684023Y-56669655D01*
X55830345Y-56815977D01*
X56002402Y-56930941D01*
X56193580Y-57010130D01*
X56396535Y-57050500D01*
X56396536Y-57050500D01*
X56603464Y-57050500D01*
X56603465Y-57050500D01*
X56806420Y-57010130D01*
X56847901Y-56992948D01*
X56904536Y-56992948D01*
X56944585Y-57032996D01*
X56944585Y-57089633D01*
X56928544Y-57113641D01*
X56064360Y-57977826D01*
X56012034Y-57999500D01*
X55905743Y-57999500D01*
X55853417Y-57977826D01*
X55846503Y-57969846D01*
X55801938Y-57910313D01*
X55700663Y-57834500D01*
X55692476Y-57828371D01*
X55692477Y-57828371D01*
X55564365Y-57780588D01*
X55507737Y-57774500D01*
X54966766Y-57774500D01*
X54966765Y-57774501D01*
X54910136Y-57780588D01*
X54782025Y-57828371D01*
X54672564Y-57910313D01*
X54590622Y-58019774D01*
X54542839Y-58147884D01*
X54542839Y-58147887D01*
X54536751Y-58204513D01*
X54536751Y-58795484D01*
X54536752Y-58795485D01*
X54542839Y-58852114D01*
X54590622Y-58980225D01*
X54590623Y-58980226D01*
X54672564Y-59089687D01*
X54749358Y-59147174D01*
X54786262Y-59174800D01*
X54784930Y-59176579D01*
X54815631Y-59214663D01*
X54809586Y-59270976D01*
X54765492Y-59306522D01*
X54733057Y-59308612D01*
X54675522Y-59299500D01*
X54312481Y-59299500D01*
X54218696Y-59314353D01*
X54218694Y-59314354D01*
X54105658Y-59371950D01*
X54015952Y-59461656D01*
X53958354Y-59574698D01*
X53943501Y-59668480D01*
X53943501Y-60756519D01*
X53958354Y-60850304D01*
X53958355Y-60850306D01*
X54015951Y-60963342D01*
X54075783Y-61023174D01*
X54097457Y-61075500D01*
X54075783Y-61127826D01*
X54023457Y-61149500D01*
X53913084Y-61149500D01*
X53860758Y-61127826D01*
X53567674Y-60834742D01*
X53546000Y-60782416D01*
X53546000Y-60314515D01*
X53545999Y-60314514D01*
X53539913Y-60257886D01*
X53492129Y-60129774D01*
X53410188Y-60020313D01*
X53317242Y-59950735D01*
X53300726Y-59938371D01*
X53300727Y-59938371D01*
X53172615Y-59890588D01*
X53115987Y-59884500D01*
X52525016Y-59884500D01*
X52525015Y-59884501D01*
X52468386Y-59890588D01*
X52340275Y-59938371D01*
X52230814Y-60020313D01*
X52148872Y-60129774D01*
X52101089Y-60257884D01*
X52101089Y-60257887D01*
X52095001Y-60314513D01*
X52095001Y-60855484D01*
X52095002Y-60855485D01*
X52101089Y-60912114D01*
X52148872Y-61040225D01*
X52165573Y-61062535D01*
X52230814Y-61149687D01*
X52340275Y-61231628D01*
X52340274Y-61231628D01*
X52388058Y-61249450D01*
X52468387Y-61279412D01*
X52525016Y-61285500D01*
X52996416Y-61285499D01*
X53048742Y-61307173D01*
X53049743Y-61308174D01*
X53071417Y-61360500D01*
X53049743Y-61412826D01*
X52997417Y-61434500D01*
X52525016Y-61434500D01*
X52525015Y-61434501D01*
X52468386Y-61440588D01*
X52340275Y-61488371D01*
X52230814Y-61570313D01*
X52148872Y-61679774D01*
X52101089Y-61807884D01*
X52101089Y-61807887D01*
X52095001Y-61864513D01*
X52095001Y-62405484D01*
X52095002Y-62405485D01*
X52101089Y-62462114D01*
X52148872Y-62590225D01*
X52161664Y-62607313D01*
X52230814Y-62699687D01*
X52340275Y-62781628D01*
X52340274Y-62781628D01*
X52388058Y-62799450D01*
X52468387Y-62829412D01*
X52525016Y-62835500D01*
X53115985Y-62835499D01*
X53172615Y-62829412D01*
X53300727Y-62781628D01*
X53410188Y-62699687D01*
X53479338Y-62607312D01*
X53528045Y-62578412D01*
X53582923Y-62592419D01*
X53590898Y-62599329D01*
X53694282Y-62702712D01*
X53759539Y-62767969D01*
X53759541Y-62767970D01*
X53759542Y-62767971D01*
X53839461Y-62814113D01*
X53839463Y-62814114D01*
X53888655Y-62827295D01*
X53933588Y-62861773D01*
X53943502Y-62898773D01*
X53943502Y-63031519D01*
X53958354Y-63125304D01*
X53958355Y-63125306D01*
X53997849Y-63202815D01*
X54015951Y-63238342D01*
X54105659Y-63328050D01*
X54167513Y-63359566D01*
X54204295Y-63402633D01*
X54199852Y-63459095D01*
X54156784Y-63495878D01*
X54133917Y-63499500D01*
X51184106Y-63499500D01*
X51056818Y-63533606D01*
X51056809Y-63533610D01*
X50942685Y-63599500D01*
X50547000Y-63995185D01*
X50481110Y-64109309D01*
X50481106Y-64109318D01*
X50447000Y-64236605D01*
X50447000Y-64305970D01*
X50425326Y-64358296D01*
X50384577Y-64379059D01*
X50362194Y-64382604D01*
X50362193Y-64382604D01*
X50249157Y-64440200D01*
X50159451Y-64529906D01*
X50101853Y-64642948D01*
X50087000Y-64736730D01*
X50087000Y-64943417D01*
X50065326Y-64995743D01*
X50013000Y-65017417D01*
X49960674Y-64995743D01*
X49643020Y-64678089D01*
X49627599Y-64647619D01*
X49624944Y-64648482D01*
X49623144Y-64642941D01*
X49585531Y-64569123D01*
X49565550Y-64529908D01*
X49475842Y-64440200D01*
X49362804Y-64382604D01*
X49362802Y-64382603D01*
X49362801Y-64382603D01*
X49269019Y-64367750D01*
X48180980Y-64367750D01*
X48087195Y-64382603D01*
X48087191Y-64382605D01*
X48008095Y-64422907D01*
X47951633Y-64427351D01*
X47908566Y-64390568D01*
X47900500Y-64356973D01*
X47900500Y-60600326D01*
X49349500Y-60600326D01*
X49349500Y-62449674D01*
X49364034Y-62522740D01*
X49419399Y-62605601D01*
X49502260Y-62660966D01*
X49575326Y-62675500D01*
X49575328Y-62675500D01*
X51424672Y-62675500D01*
X51424674Y-62675500D01*
X51497740Y-62660966D01*
X51580601Y-62605601D01*
X51635966Y-62522740D01*
X51650500Y-62449674D01*
X51650500Y-60600326D01*
X51635966Y-60527260D01*
X51580601Y-60444399D01*
X51549155Y-60423388D01*
X51497740Y-60389034D01*
X51424674Y-60374500D01*
X49575326Y-60374500D01*
X49526615Y-60384189D01*
X49502259Y-60389034D01*
X49419399Y-60444398D01*
X49419398Y-60444399D01*
X49364034Y-60527259D01*
X49358882Y-60553159D01*
X49349500Y-60600326D01*
X47900500Y-60600326D01*
X47900500Y-58894453D01*
X49349500Y-58894453D01*
X49349500Y-59075546D01*
X49377828Y-59254406D01*
X49377831Y-59254419D01*
X49433787Y-59426635D01*
X49433788Y-59426638D01*
X49433789Y-59426639D01*
X49509229Y-59574698D01*
X49516005Y-59587995D01*
X49516005Y-59587996D01*
X49560420Y-59649128D01*
X49622447Y-59734501D01*
X49750499Y-59862553D01*
X49897006Y-59968996D01*
X50058361Y-60051211D01*
X50058364Y-60051212D01*
X50058363Y-60051212D01*
X50230580Y-60107168D01*
X50230586Y-60107169D01*
X50230591Y-60107171D01*
X50343159Y-60125000D01*
X50409453Y-60135500D01*
X50409454Y-60135500D01*
X50590547Y-60135500D01*
X50635261Y-60128417D01*
X50769409Y-60107171D01*
X50769416Y-60107168D01*
X50769419Y-60107168D01*
X50868423Y-60075000D01*
X50941639Y-60051211D01*
X51102994Y-59968996D01*
X51249501Y-59862553D01*
X51377553Y-59734501D01*
X51483996Y-59587994D01*
X51566211Y-59426639D01*
X51622171Y-59254409D01*
X51650500Y-59075546D01*
X51650500Y-58894454D01*
X51633258Y-58785592D01*
X53087251Y-58785592D01*
X53097871Y-58858482D01*
X53152838Y-58970917D01*
X53241333Y-59059412D01*
X53353768Y-59114379D01*
X53426658Y-59124999D01*
X53426669Y-59125000D01*
X53562251Y-59125000D01*
X53812251Y-59125000D01*
X53947833Y-59125000D01*
X53947843Y-59124999D01*
X54020733Y-59114379D01*
X54133168Y-59059412D01*
X54221663Y-58970917D01*
X54276630Y-58858482D01*
X54287250Y-58785592D01*
X54287251Y-58785581D01*
X54287251Y-58625000D01*
X53812251Y-58625000D01*
X53812251Y-59125000D01*
X53562251Y-59125000D01*
X53562251Y-58625000D01*
X53087251Y-58625000D01*
X53087251Y-58785592D01*
X51633258Y-58785592D01*
X51622171Y-58715591D01*
X51622169Y-58715586D01*
X51622168Y-58715580D01*
X51590208Y-58617215D01*
X51566212Y-58543364D01*
X51566211Y-58543363D01*
X51566211Y-58543361D01*
X51483996Y-58382006D01*
X51377553Y-58235499D01*
X51356461Y-58214407D01*
X53087251Y-58214407D01*
X53087251Y-58375000D01*
X53562251Y-58375000D01*
X53812251Y-58375000D01*
X54287251Y-58375000D01*
X54287251Y-58214418D01*
X54287250Y-58214407D01*
X54276630Y-58141517D01*
X54221663Y-58029082D01*
X54133168Y-57940587D01*
X54020733Y-57885620D01*
X53947843Y-57875000D01*
X53812251Y-57875000D01*
X53812251Y-58375000D01*
X53562251Y-58375000D01*
X53562251Y-57875000D01*
X53426658Y-57875000D01*
X53353768Y-57885620D01*
X53241333Y-57940587D01*
X53152838Y-58029082D01*
X53097871Y-58141517D01*
X53087251Y-58214407D01*
X51356461Y-58214407D01*
X51249501Y-58107447D01*
X51128829Y-58019774D01*
X51102996Y-58001005D01*
X50941635Y-57918787D01*
X50941636Y-57918787D01*
X50769419Y-57862831D01*
X50769406Y-57862828D01*
X50590547Y-57834500D01*
X50590546Y-57834500D01*
X50409454Y-57834500D01*
X50409453Y-57834500D01*
X50230593Y-57862828D01*
X50230580Y-57862831D01*
X50058364Y-57918787D01*
X49897004Y-58001005D01*
X49897003Y-58001005D01*
X49750503Y-58107444D01*
X49750499Y-58107447D01*
X49622447Y-58235499D01*
X49622444Y-58235502D01*
X49622444Y-58235503D01*
X49516005Y-58382003D01*
X49516005Y-58382004D01*
X49433787Y-58543364D01*
X49377831Y-58715580D01*
X49377828Y-58715593D01*
X49349500Y-58894453D01*
X47900500Y-58894453D01*
X47900500Y-56462683D01*
X47922174Y-56410357D01*
X47974500Y-56388683D01*
X48026826Y-56410357D01*
X48042867Y-56434365D01*
X48069058Y-56497597D01*
X48171751Y-56651288D01*
X48184023Y-56669655D01*
X48330345Y-56815977D01*
X48502402Y-56930941D01*
X48693580Y-57010130D01*
X48896535Y-57050500D01*
X48896536Y-57050500D01*
X49103464Y-57050500D01*
X49103465Y-57050500D01*
X49306420Y-57010130D01*
X49497598Y-56930941D01*
X49669655Y-56815977D01*
X49815977Y-56669655D01*
X49930941Y-56497598D01*
X49972949Y-56396182D01*
X50012997Y-56356133D01*
X50041316Y-56350500D01*
X51239125Y-56350500D01*
X51291451Y-56372174D01*
X51308972Y-56400058D01*
X51322207Y-56437881D01*
X51322208Y-56437884D01*
X51402846Y-56547146D01*
X51402853Y-56547153D01*
X51512116Y-56627792D01*
X51512118Y-56627793D01*
X51640295Y-56672644D01*
X51640301Y-56672646D01*
X51670734Y-56675500D01*
X51670741Y-56675500D01*
X52179258Y-56675500D01*
X52179266Y-56675500D01*
X52209699Y-56672646D01*
X52337882Y-56627793D01*
X52447150Y-56547150D01*
X52527793Y-56437882D01*
X52572646Y-56309699D01*
X52575500Y-56279266D01*
X52575500Y-55620734D01*
X52572646Y-55590301D01*
X52559880Y-55553819D01*
X52527793Y-55462118D01*
X52527792Y-55462116D01*
X52447153Y-55352853D01*
X52447146Y-55352846D01*
X52337883Y-55272207D01*
X52337881Y-55272206D01*
X52209704Y-55227355D01*
X52209705Y-55227355D01*
X52209700Y-55227354D01*
X52209699Y-55227354D01*
X52179266Y-55224500D01*
X51670734Y-55224500D01*
X51640301Y-55227354D01*
X51640299Y-55227354D01*
X51640295Y-55227355D01*
X51512118Y-55272206D01*
X51512116Y-55272207D01*
X51402853Y-55352846D01*
X51402846Y-55352853D01*
X51322207Y-55462116D01*
X51322206Y-55462118D01*
X51277353Y-55590299D01*
X51277138Y-55591287D01*
X51276876Y-55591662D01*
X51275866Y-55594551D01*
X51275063Y-55594270D01*
X51244800Y-55637784D01*
X51204842Y-55649500D01*
X50041316Y-55649500D01*
X49988990Y-55627826D01*
X49972949Y-55603818D01*
X49930941Y-55502402D01*
X49815977Y-55330345D01*
X49669654Y-55184022D01*
X49497598Y-55069059D01*
X49306420Y-54989870D01*
X49306413Y-54989868D01*
X49112901Y-54951377D01*
X49103465Y-54949500D01*
X48896535Y-54949500D01*
X48887099Y-54951377D01*
X48693586Y-54989868D01*
X48693579Y-54989870D01*
X48502401Y-55069059D01*
X48330345Y-55184022D01*
X48330344Y-55184024D01*
X48184024Y-55330344D01*
X48184022Y-55330345D01*
X48069059Y-55502401D01*
X48042867Y-55565635D01*
X48002818Y-55605683D01*
X47946181Y-55605683D01*
X47906133Y-55565634D01*
X47900500Y-55537316D01*
X47900500Y-52004159D01*
X47900965Y-51995874D01*
X47907817Y-51935060D01*
X47914598Y-51874871D01*
X47918282Y-51858736D01*
X47957115Y-51747755D01*
X47964303Y-51732830D01*
X48026859Y-51633272D01*
X48037183Y-51620326D01*
X48120326Y-51537183D01*
X48133272Y-51526859D01*
X48232831Y-51464302D01*
X48247755Y-51457115D01*
X48358736Y-51418282D01*
X48374871Y-51414598D01*
X48484018Y-51402300D01*
X48495874Y-51400965D01*
X48504159Y-51400500D01*
X48557583Y-51400500D01*
X56889811Y-51400500D01*
X56942137Y-51422174D01*
G37*
%TD.AperFunction*%
%TA.AperFunction,Conductor*%
G36*
X87021963Y-61845187D02*
G01*
X87025500Y-61845187D01*
X87077826Y-61866861D01*
X87099500Y-61919187D01*
X87099500Y-62431063D01*
X87077826Y-62483389D01*
X87025500Y-62505063D01*
X86981153Y-62490303D01*
X86968619Y-62480920D01*
X86968618Y-62480919D01*
X86834450Y-62430878D01*
X86834447Y-62430877D01*
X86834446Y-62430877D01*
X86804789Y-62427688D01*
X86775133Y-62424500D01*
X86775132Y-62424500D01*
X85224868Y-62424500D01*
X85224867Y-62424500D01*
X85165554Y-62430877D01*
X85165549Y-62430878D01*
X85031381Y-62480919D01*
X85031380Y-62480920D01*
X84916740Y-62566740D01*
X84830920Y-62681380D01*
X84830919Y-62681381D01*
X84780878Y-62815549D01*
X84780877Y-62815554D01*
X84774500Y-62874867D01*
X84774500Y-62925500D01*
X84752826Y-62977826D01*
X84700500Y-62999500D01*
X84474500Y-62999500D01*
X84422174Y-62977826D01*
X84400500Y-62925500D01*
X84400500Y-62661189D01*
X84422174Y-62608863D01*
X84600160Y-62430877D01*
X84800475Y-62230563D01*
X84849911Y-62144937D01*
X84875500Y-62049436D01*
X84875500Y-61950564D01*
X84875500Y-61919187D01*
X84897174Y-61866861D01*
X84949500Y-61845187D01*
X84978037Y-61845187D01*
X85587571Y-61235652D01*
X85619905Y-61291657D01*
X85708343Y-61380095D01*
X85764346Y-61412428D01*
X85207167Y-61969607D01*
X85241215Y-61975000D01*
X86758783Y-61975000D01*
X86792830Y-61969606D01*
X86235652Y-61412428D01*
X86291657Y-61380095D01*
X86380095Y-61291657D01*
X86412428Y-61235652D01*
X87021963Y-61845187D01*
G37*
%TD.AperFunction*%
%TA.AperFunction,Conductor*%
G36*
X83238596Y-55372174D02*
G01*
X83246498Y-55381505D01*
X83246924Y-55382102D01*
X83337898Y-55473076D01*
X83453482Y-55529582D01*
X83528418Y-55540500D01*
X83528424Y-55540500D01*
X83971576Y-55540500D01*
X83971582Y-55540500D01*
X84046518Y-55529582D01*
X84162102Y-55473076D01*
X84253076Y-55382102D01*
X84253078Y-55382097D01*
X84253502Y-55381505D01*
X84253957Y-55381220D01*
X84257412Y-55377766D01*
X84258210Y-55378564D01*
X84301545Y-55351510D01*
X84313730Y-55350500D01*
X84700500Y-55350500D01*
X84752826Y-55372174D01*
X84774500Y-55424500D01*
X84774500Y-55625132D01*
X84780877Y-55684445D01*
X84780878Y-55684450D01*
X84830919Y-55818618D01*
X84830920Y-55818619D01*
X84830921Y-55818620D01*
X84916740Y-55933260D01*
X85000135Y-55995689D01*
X85031380Y-56019079D01*
X85031381Y-56019080D01*
X85141764Y-56060249D01*
X85165554Y-56069123D01*
X85219109Y-56074880D01*
X85224867Y-56075500D01*
X85224868Y-56075500D01*
X86775133Y-56075500D01*
X86780381Y-56074935D01*
X86834446Y-56069123D01*
X86923895Y-56035760D01*
X86968618Y-56019080D01*
X86968620Y-56019079D01*
X86981151Y-56009698D01*
X87036028Y-55995689D01*
X87084738Y-56024587D01*
X87099500Y-56068936D01*
X87099500Y-56431063D01*
X87077826Y-56483389D01*
X87025500Y-56505063D01*
X86981153Y-56490303D01*
X86968619Y-56480920D01*
X86968618Y-56480919D01*
X86834450Y-56430878D01*
X86834447Y-56430877D01*
X86834446Y-56430877D01*
X86804789Y-56427688D01*
X86775133Y-56424500D01*
X86775132Y-56424500D01*
X85224868Y-56424500D01*
X85224867Y-56424500D01*
X85165554Y-56430877D01*
X85165549Y-56430878D01*
X85031381Y-56480919D01*
X85031380Y-56480920D01*
X84916740Y-56566740D01*
X84830920Y-56681380D01*
X84830919Y-56681381D01*
X84780878Y-56815549D01*
X84780877Y-56815554D01*
X84774500Y-56874867D01*
X84774500Y-57075500D01*
X84752826Y-57127826D01*
X84700500Y-57149500D01*
X84278371Y-57149500D01*
X84226045Y-57127826D01*
X84208524Y-57099941D01*
X84177793Y-57012118D01*
X84177792Y-57012116D01*
X84097153Y-56902853D01*
X84097146Y-56902846D01*
X83987883Y-56822207D01*
X83987881Y-56822206D01*
X83859704Y-56777355D01*
X83859705Y-56777355D01*
X83859700Y-56777354D01*
X83859699Y-56777354D01*
X83829266Y-56774500D01*
X83320734Y-56774500D01*
X83290301Y-56777354D01*
X83290299Y-56777354D01*
X83290295Y-56777355D01*
X83162118Y-56822206D01*
X83162116Y-56822207D01*
X83052853Y-56902846D01*
X83052846Y-56902853D01*
X82972207Y-57012116D01*
X82972206Y-57012118D01*
X82927355Y-57140295D01*
X82927354Y-57140299D01*
X82927354Y-57140301D01*
X82924500Y-57170734D01*
X82924500Y-57829266D01*
X82927354Y-57859699D01*
X82927354Y-57859701D01*
X82927355Y-57859704D01*
X82972206Y-57987881D01*
X82972207Y-57987883D01*
X83052846Y-58097146D01*
X83052853Y-58097153D01*
X83162116Y-58177792D01*
X83162118Y-58177793D01*
X83290295Y-58222644D01*
X83290301Y-58222646D01*
X83320734Y-58225500D01*
X83320741Y-58225500D01*
X83829258Y-58225500D01*
X83829266Y-58225500D01*
X83859699Y-58222646D01*
X83987882Y-58177793D01*
X84097150Y-58097150D01*
X84177793Y-57987882D01*
X84194342Y-57940587D01*
X84208524Y-57900059D01*
X84246264Y-57857828D01*
X84278371Y-57850500D01*
X84700500Y-57850500D01*
X84752826Y-57872174D01*
X84774500Y-57924500D01*
X84774500Y-58125132D01*
X84778104Y-58158658D01*
X84780877Y-58184445D01*
X84780878Y-58184450D01*
X84830919Y-58318618D01*
X84830920Y-58318619D01*
X84830921Y-58318620D01*
X84916740Y-58433260D01*
X85000135Y-58495689D01*
X85031380Y-58519079D01*
X85031381Y-58519080D01*
X85132552Y-58556814D01*
X85165554Y-58569123D01*
X85219109Y-58574880D01*
X85224867Y-58575500D01*
X85224868Y-58575500D01*
X86775133Y-58575500D01*
X86780381Y-58574935D01*
X86834446Y-58569123D01*
X86923895Y-58535760D01*
X86968618Y-58519080D01*
X86968620Y-58519079D01*
X86981151Y-58509698D01*
X87036028Y-58495689D01*
X87084738Y-58524587D01*
X87099500Y-58568936D01*
X87099500Y-60080813D01*
X87077826Y-60133139D01*
X87025500Y-60154813D01*
X87021963Y-60154813D01*
X86412428Y-60764347D01*
X86380095Y-60708343D01*
X86291657Y-60619905D01*
X86235651Y-60587570D01*
X86792830Y-60030392D01*
X86792830Y-60030391D01*
X86758786Y-60025000D01*
X85241215Y-60025000D01*
X85207168Y-60030391D01*
X85207168Y-60030392D01*
X85764347Y-60587571D01*
X85708343Y-60619905D01*
X85619905Y-60708343D01*
X85587571Y-60764347D01*
X84978037Y-60154813D01*
X84949500Y-60154813D01*
X84897174Y-60133139D01*
X84875500Y-60080813D01*
X84875500Y-59450563D01*
X84875499Y-59450562D01*
X84849911Y-59355065D01*
X84849909Y-59355060D01*
X84800474Y-59269437D01*
X83980562Y-58449525D01*
X83894939Y-58400090D01*
X83876855Y-58395244D01*
X83827448Y-58382006D01*
X83813442Y-58378253D01*
X83799437Y-58374500D01*
X83799436Y-58374500D01*
X83799435Y-58374500D01*
X81614024Y-58374500D01*
X81515152Y-58374500D01*
X81515151Y-58374500D01*
X81501146Y-58378253D01*
X81487140Y-58382006D01*
X81448173Y-58392447D01*
X81419648Y-58400090D01*
X81334025Y-58449525D01*
X81130725Y-58652826D01*
X81078399Y-58674500D01*
X80736189Y-58674500D01*
X80683863Y-58652826D01*
X80480562Y-58449525D01*
X80394939Y-58400090D01*
X80376855Y-58395244D01*
X80327448Y-58382006D01*
X80313442Y-58378253D01*
X80299437Y-58374500D01*
X80299436Y-58374500D01*
X80299435Y-58374500D01*
X80176647Y-58374500D01*
X80124321Y-58352826D01*
X80102647Y-58300500D01*
X80124321Y-58248174D01*
X80213836Y-58158659D01*
X80213837Y-58158658D01*
X80320046Y-57999704D01*
X80362926Y-57896182D01*
X80402974Y-57856133D01*
X80431293Y-57850500D01*
X81221629Y-57850500D01*
X81273955Y-57872174D01*
X81291476Y-57900059D01*
X81322206Y-57987881D01*
X81322207Y-57987883D01*
X81402846Y-58097146D01*
X81402853Y-58097153D01*
X81512116Y-58177792D01*
X81512118Y-58177793D01*
X81640295Y-58222644D01*
X81640301Y-58222646D01*
X81670734Y-58225500D01*
X81670741Y-58225500D01*
X82179258Y-58225500D01*
X82179266Y-58225500D01*
X82209699Y-58222646D01*
X82337882Y-58177793D01*
X82447150Y-58097150D01*
X82527793Y-57987882D01*
X82572646Y-57859699D01*
X82575500Y-57829266D01*
X82575500Y-57170734D01*
X82572646Y-57140301D01*
X82558523Y-57099941D01*
X82527793Y-57012118D01*
X82527792Y-57012116D01*
X82447153Y-56902853D01*
X82447146Y-56902846D01*
X82337883Y-56822207D01*
X82337881Y-56822206D01*
X82209704Y-56777355D01*
X82209705Y-56777355D01*
X82209700Y-56777354D01*
X82209699Y-56777354D01*
X82179266Y-56774500D01*
X81670734Y-56774500D01*
X81640301Y-56777354D01*
X81640299Y-56777354D01*
X81640295Y-56777355D01*
X81512118Y-56822206D01*
X81512116Y-56822207D01*
X81402853Y-56902846D01*
X81402846Y-56902853D01*
X81322207Y-57012116D01*
X81322206Y-57012118D01*
X81291476Y-57099941D01*
X81253736Y-57142172D01*
X81221629Y-57149500D01*
X80398156Y-57149500D01*
X80345830Y-57127826D01*
X80329790Y-57103822D01*
X80320046Y-57080296D01*
X80213837Y-56921342D01*
X80078658Y-56786163D01*
X80065474Y-56777354D01*
X80026382Y-56751234D01*
X79919704Y-56679954D01*
X79919701Y-56679952D01*
X79919697Y-56679950D01*
X79896179Y-56670208D01*
X79885772Y-56659800D01*
X79872174Y-56654168D01*
X79866540Y-56640567D01*
X79856132Y-56630158D01*
X79850500Y-56601842D01*
X79850500Y-56549500D01*
X79872174Y-56497174D01*
X79924500Y-56475500D01*
X80349258Y-56475500D01*
X80349266Y-56475500D01*
X80379699Y-56472646D01*
X80507882Y-56427793D01*
X80617150Y-56347150D01*
X80647503Y-56306021D01*
X80696013Y-56276790D01*
X80744043Y-56285877D01*
X80753591Y-56291389D01*
X80753593Y-56291390D01*
X80753594Y-56291390D01*
X80753597Y-56291392D01*
X80880891Y-56325500D01*
X80880892Y-56325500D01*
X81012677Y-56325500D01*
X81012677Y-56325499D01*
X81139969Y-56291392D01*
X81254097Y-56225500D01*
X81347283Y-56132314D01*
X81413175Y-56018186D01*
X81442175Y-55909952D01*
X81476653Y-55865021D01*
X81532805Y-55857628D01*
X81541971Y-55860740D01*
X81664677Y-55911566D01*
X81716916Y-55933204D01*
X81716920Y-55933204D01*
X81716921Y-55933205D01*
X81717198Y-55933260D01*
X81904414Y-55970500D01*
X81904416Y-55970500D01*
X82095584Y-55970500D01*
X82095586Y-55970500D01*
X82283084Y-55933204D01*
X82459704Y-55860046D01*
X82618658Y-55753837D01*
X82753837Y-55618658D01*
X82860046Y-55459704D01*
X82886358Y-55396180D01*
X82926406Y-55356133D01*
X82954725Y-55350500D01*
X83186270Y-55350500D01*
X83238596Y-55372174D01*
G37*
%TD.AperFunction*%
%TA.AperFunction,Conductor*%
G36*
X78001826Y-56137004D02*
G01*
X78087898Y-56223076D01*
X78203482Y-56279582D01*
X78278418Y-56290500D01*
X78278424Y-56290500D01*
X78721576Y-56290500D01*
X78721582Y-56290500D01*
X78796518Y-56279582D01*
X78912102Y-56223076D01*
X78938004Y-56197174D01*
X78990330Y-56175500D01*
X79086114Y-56175500D01*
X79138440Y-56197174D01*
X79160114Y-56249500D01*
X79157593Y-56268652D01*
X79149500Y-56298856D01*
X79149500Y-56568706D01*
X79127826Y-56621032D01*
X79103819Y-56637073D01*
X79000295Y-56679954D01*
X78841342Y-56786162D01*
X78841341Y-56786164D01*
X78706164Y-56921341D01*
X78706162Y-56921342D01*
X78599953Y-57080296D01*
X78526797Y-57256911D01*
X78526794Y-57256921D01*
X78489500Y-57444415D01*
X78489500Y-57453227D01*
X78467826Y-57505553D01*
X78415500Y-57527227D01*
X78363174Y-57505553D01*
X77897174Y-57039553D01*
X77875500Y-56987227D01*
X77875500Y-56189330D01*
X77897174Y-56137004D01*
X77949500Y-56115330D01*
X78001826Y-56137004D01*
G37*
%TD.AperFunction*%
%TA.AperFunction,Conductor*%
G36*
X79162125Y-51422174D02*
G01*
X79183799Y-51474500D01*
X79162125Y-51526826D01*
X79138117Y-51542867D01*
X79000296Y-51599953D01*
X78841342Y-51706162D01*
X78841341Y-51706164D01*
X78706164Y-51841341D01*
X78706162Y-51841342D01*
X78599953Y-52000296D01*
X78526797Y-52176911D01*
X78526794Y-52176921D01*
X78507528Y-52273780D01*
X78489500Y-52364414D01*
X78489500Y-52555586D01*
X78501819Y-52617518D01*
X78526794Y-52743078D01*
X78526797Y-52743088D01*
X78599953Y-52919703D01*
X78653940Y-53000500D01*
X78706163Y-53078658D01*
X78841342Y-53213837D01*
X79000296Y-53320046D01*
X79176916Y-53393204D01*
X79364414Y-53430500D01*
X79364416Y-53430500D01*
X79501858Y-53430500D01*
X79554184Y-53452174D01*
X79575858Y-53504500D01*
X79554184Y-53556826D01*
X79536439Y-53569923D01*
X79532114Y-53572208D01*
X79422853Y-53652846D01*
X79422846Y-53652853D01*
X79342207Y-53762116D01*
X79342206Y-53762118D01*
X79297355Y-53890295D01*
X79297354Y-53890299D01*
X79297354Y-53890301D01*
X79294500Y-53920734D01*
X79294500Y-54429266D01*
X79297354Y-54459699D01*
X79297354Y-54459701D01*
X79297355Y-54459704D01*
X79342206Y-54587881D01*
X79342207Y-54587883D01*
X79422846Y-54697146D01*
X79422853Y-54697153D01*
X79532116Y-54777792D01*
X79532118Y-54777793D01*
X79635459Y-54813954D01*
X79677690Y-54851694D01*
X79682496Y-54864648D01*
X79693384Y-54905283D01*
X79693386Y-54905288D01*
X79739530Y-54985212D01*
X79802492Y-55048174D01*
X79824166Y-55100500D01*
X79802492Y-55152826D01*
X79750166Y-55174500D01*
X79690734Y-55174500D01*
X79660301Y-55177354D01*
X79660299Y-55177354D01*
X79660295Y-55177355D01*
X79532118Y-55222206D01*
X79532116Y-55222207D01*
X79422853Y-55302846D01*
X79422846Y-55302853D01*
X79342207Y-55412116D01*
X79338632Y-55422332D01*
X79337875Y-55424500D01*
X79337721Y-55424939D01*
X79299982Y-55467171D01*
X79267873Y-55474500D01*
X79081829Y-55474500D01*
X79029503Y-55452826D01*
X79015348Y-55433001D01*
X79005138Y-55412116D01*
X79003076Y-55407898D01*
X78912102Y-55316924D01*
X78883320Y-55302853D01*
X78817917Y-55270879D01*
X78780427Y-55228425D01*
X78783937Y-55171897D01*
X78820529Y-55136703D01*
X78848853Y-55124197D01*
X78924195Y-55048855D01*
X78967236Y-54951379D01*
X78967236Y-54951377D01*
X78970000Y-54927555D01*
X78970000Y-54875000D01*
X78030000Y-54875000D01*
X78030000Y-54927555D01*
X78032763Y-54951377D01*
X78032763Y-54951379D01*
X78075804Y-55048855D01*
X78151146Y-55124197D01*
X78179470Y-55136703D01*
X78218584Y-55177665D01*
X78217276Y-55234287D01*
X78182082Y-55270879D01*
X78087897Y-55316924D01*
X78001826Y-55402996D01*
X77949500Y-55424670D01*
X77897174Y-55402996D01*
X77875500Y-55350670D01*
X77875500Y-54572444D01*
X78030000Y-54572444D01*
X78030000Y-54625000D01*
X78375000Y-54625000D01*
X78625000Y-54625000D01*
X78970000Y-54625000D01*
X78970000Y-54572444D01*
X78967236Y-54548622D01*
X78967236Y-54548620D01*
X78924195Y-54451144D01*
X78848855Y-54375804D01*
X78751378Y-54332763D01*
X78727556Y-54330000D01*
X78625000Y-54330000D01*
X78625000Y-54625000D01*
X78375000Y-54625000D01*
X78375000Y-54330000D01*
X78272444Y-54330000D01*
X78248622Y-54332763D01*
X78248620Y-54332763D01*
X78151144Y-54375804D01*
X78075804Y-54451144D01*
X78032763Y-54548620D01*
X78032763Y-54548622D01*
X78030000Y-54572444D01*
X77875500Y-54572444D01*
X77875500Y-52700564D01*
X77868707Y-52675211D01*
X77868707Y-52675210D01*
X77849912Y-52605067D01*
X77849911Y-52605063D01*
X77800475Y-52519438D01*
X76807863Y-51526826D01*
X76786189Y-51474500D01*
X76807863Y-51422174D01*
X76860189Y-51400500D01*
X79109799Y-51400500D01*
X79162125Y-51422174D01*
G37*
%TD.AperFunction*%
%TA.AperFunction,Conductor*%
G36*
X82430779Y-53203433D02*
G01*
X82437415Y-53201969D01*
X82456216Y-53213970D01*
X82476824Y-53222506D01*
X82811144Y-53556826D01*
X83131688Y-53877370D01*
X83153362Y-53929696D01*
X83150843Y-53948840D01*
X83149500Y-53953853D01*
X83149500Y-54046146D01*
X83173384Y-54135285D01*
X83173865Y-54136444D01*
X83174354Y-54138902D01*
X83174641Y-54139973D01*
X83174570Y-54139991D01*
X83179500Y-54164767D01*
X83179500Y-54171586D01*
X83190418Y-54246518D01*
X83246924Y-54362102D01*
X83342234Y-54457412D01*
X83339667Y-54459978D01*
X83363280Y-54497910D01*
X83350446Y-54553074D01*
X83342558Y-54562367D01*
X83338085Y-54566832D01*
X83337898Y-54566924D01*
X83278208Y-54626613D01*
X83277584Y-54627237D01*
X83276996Y-54627826D01*
X83276994Y-54627826D01*
X83276954Y-54627867D01*
X83251237Y-54638495D01*
X83224670Y-54649500D01*
X82954725Y-54649500D01*
X82902399Y-54627826D01*
X82886358Y-54603819D01*
X82873362Y-54572444D01*
X82860046Y-54540296D01*
X82753837Y-54381342D01*
X82618658Y-54246163D01*
X82521705Y-54181381D01*
X82459703Y-54139953D01*
X82283088Y-54066797D01*
X82283078Y-54066794D01*
X82157518Y-54041819D01*
X82095586Y-54029500D01*
X81904414Y-54029500D01*
X81904407Y-54029500D01*
X81901429Y-54029793D01*
X81847232Y-54013347D01*
X81820539Y-53963395D01*
X81836985Y-53909198D01*
X81841844Y-53903836D01*
X82280470Y-53465212D01*
X82326614Y-53385288D01*
X82336764Y-53347407D01*
X82350500Y-53296144D01*
X82350500Y-53268326D01*
X82351636Y-53261918D01*
X82363637Y-53243116D01*
X82372174Y-53222507D01*
X82378452Y-53219906D01*
X82382109Y-53214178D01*
X82403890Y-53209369D01*
X82424500Y-53200833D01*
X82430779Y-53203433D01*
G37*
%TD.AperFunction*%
%TA.AperFunction,Conductor*%
G36*
X84752826Y-52872174D02*
G01*
X84774500Y-52924500D01*
X84774500Y-53125132D01*
X84780877Y-53184445D01*
X84780878Y-53184450D01*
X84830919Y-53318618D01*
X84830920Y-53318619D01*
X84830921Y-53318620D01*
X84916740Y-53433260D01*
X84993094Y-53490418D01*
X85031380Y-53519079D01*
X85031381Y-53519080D01*
X85132584Y-53556826D01*
X85165554Y-53569123D01*
X85219109Y-53574880D01*
X85224867Y-53575500D01*
X85224868Y-53575500D01*
X86775133Y-53575500D01*
X86780381Y-53574935D01*
X86834446Y-53569123D01*
X86946434Y-53527354D01*
X86968618Y-53519080D01*
X86968620Y-53519079D01*
X86981151Y-53509698D01*
X87036028Y-53495689D01*
X87084738Y-53524587D01*
X87099500Y-53568936D01*
X87099500Y-53931063D01*
X87077826Y-53983389D01*
X87025500Y-54005063D01*
X86981153Y-53990303D01*
X86968619Y-53980920D01*
X86968618Y-53980919D01*
X86834450Y-53930878D01*
X86834447Y-53930877D01*
X86834446Y-53930877D01*
X86804789Y-53927688D01*
X86775133Y-53924500D01*
X86775132Y-53924500D01*
X85224868Y-53924500D01*
X85224867Y-53924500D01*
X85165554Y-53930877D01*
X85165549Y-53930878D01*
X85031381Y-53980919D01*
X85031380Y-53980920D01*
X84916740Y-54066740D01*
X84830920Y-54181380D01*
X84830919Y-54181381D01*
X84780878Y-54315549D01*
X84780877Y-54315554D01*
X84774500Y-54374867D01*
X84774500Y-54575500D01*
X84752826Y-54627826D01*
X84700500Y-54649500D01*
X84275330Y-54649500D01*
X84223046Y-54627868D01*
X84223004Y-54627826D01*
X84162102Y-54566924D01*
X84161910Y-54566830D01*
X84157441Y-54562368D01*
X84148744Y-54541420D01*
X84136735Y-54522184D01*
X84138174Y-54515959D01*
X84135725Y-54510059D01*
X84144387Y-54489097D01*
X84149498Y-54467004D01*
X84156350Y-54460151D01*
X84157357Y-54457716D01*
X84157860Y-54457506D01*
X84157766Y-54457412D01*
X84185919Y-54429259D01*
X84253076Y-54362102D01*
X84309582Y-54246518D01*
X84320500Y-54171582D01*
X84320500Y-53828418D01*
X84309582Y-53753482D01*
X84253076Y-53637898D01*
X84162102Y-53546924D01*
X84046518Y-53490418D01*
X83971586Y-53479500D01*
X83971582Y-53479500D01*
X83755834Y-53479500D01*
X83703508Y-53457826D01*
X83597508Y-53351826D01*
X83575834Y-53299500D01*
X83597508Y-53247174D01*
X83649834Y-53225500D01*
X83904258Y-53225500D01*
X83904266Y-53225500D01*
X83934699Y-53222646D01*
X84062882Y-53177793D01*
X84172150Y-53097150D01*
X84252793Y-52987882D01*
X84269496Y-52940148D01*
X84283524Y-52900059D01*
X84321264Y-52857828D01*
X84353371Y-52850500D01*
X84700500Y-52850500D01*
X84752826Y-52872174D01*
G37*
%TD.AperFunction*%
%TA.AperFunction,Conductor*%
G36*
X84968802Y-51422174D02*
G01*
X84990476Y-51474500D01*
X84968802Y-51526826D01*
X84960825Y-51533737D01*
X84916740Y-51566740D01*
X84830920Y-51681380D01*
X84830919Y-51681381D01*
X84780878Y-51815549D01*
X84780877Y-51815554D01*
X84774500Y-51874867D01*
X84774500Y-52075500D01*
X84752826Y-52127826D01*
X84700500Y-52149500D01*
X84353371Y-52149500D01*
X84301045Y-52127826D01*
X84283524Y-52099941D01*
X84252793Y-52012118D01*
X84252792Y-52012116D01*
X84172153Y-51902853D01*
X84172146Y-51902846D01*
X84062883Y-51822207D01*
X84062881Y-51822206D01*
X83934704Y-51777355D01*
X83934705Y-51777355D01*
X83934700Y-51777354D01*
X83934699Y-51777354D01*
X83904266Y-51774500D01*
X83395734Y-51774500D01*
X83365301Y-51777354D01*
X83365299Y-51777354D01*
X83365295Y-51777355D01*
X83237118Y-51822206D01*
X83237117Y-51822206D01*
X83218441Y-51835990D01*
X83163469Y-51849622D01*
X83114959Y-51820390D01*
X83100500Y-51776449D01*
X83100500Y-51703854D01*
X83100499Y-51703853D01*
X83094477Y-51681380D01*
X83076614Y-51614712D01*
X83071043Y-51605063D01*
X83030470Y-51534788D01*
X83016915Y-51521233D01*
X83012631Y-51514585D01*
X83008874Y-51493912D01*
X83000834Y-51474500D01*
X83003971Y-51466925D01*
X83002506Y-51458861D01*
X83014466Y-51441588D01*
X83022508Y-51422174D01*
X83030082Y-51419036D01*
X83034749Y-51412297D01*
X83055421Y-51408540D01*
X83074834Y-51400500D01*
X84916476Y-51400500D01*
X84968802Y-51422174D01*
G37*
%TD.AperFunction*%
%TD*%
D44*
X87500000Y-71500000D02*
G75*
G02*
X86500000Y-72500000I-1000000J0D01*
G01*
X86500000Y-72500000D02*
X48500000Y-72500000D01*
X48500000Y-72500000D02*
G75*
G02*
X47500000Y-71500000I0J1000000D01*
G01*
X48500000Y-51000000D02*
X86500000Y-51000000D01*
X47500000Y-71500000D02*
X47500000Y-52000000D01*
X87500000Y-52000000D02*
X87500000Y-71500000D01*
X86500000Y-51000000D02*
G75*
G02*
X87500000Y-52000000I0J-1000000D01*
G01*
X47500000Y-52000000D02*
G75*
G02*
X48500000Y-51000000I1000000J0D01*
G01*
M02*
