%TF.GenerationSoftware,KiCad,Pcbnew,9.0.2*%
%TF.CreationDate,2025-10-05T19:26:47-07:00*%
%TF.ProjectId,3pdt-pwr-breakout-neg-V2,33706474-2d70-4777-922d-627265616b6f,rev?*%
%TF.SameCoordinates,PX2d4cae0PY8d9ee20*%
%TF.FileFunction,Legend,Top*%
%TF.FilePolarity,Positive*%
%FSLAX46Y46*%
G04 Gerber Fmt 4.6, Leading zero omitted, Abs format (unit mm)*
G04 Created by KiCad (PCBNEW 9.0.2) date 2025-10-05 19:26:47*
%MOMM*%
%LPD*%
G01*
G04 APERTURE LIST*
%ADD10C,0.150000*%
%ADD11C,0.200000*%
%ADD12C,0.120000*%
%TA.AperFunction,Profile*%
%ADD13C,0.100000*%
%TD*%
G04 APERTURE END LIST*
D10*
X8750000Y8750000D02*
X8250000Y8250000D01*
X3750000Y8250000D02*
X3000000Y7500000D01*
X9500000Y8950000D02*
X9500000Y7750000D01*
X8750000Y9000000D02*
X8750000Y8750000D01*
D11*
G36*
X15719471Y7141330D02*
G01*
X15780299Y7116208D01*
X15832812Y7075511D01*
X15878388Y7018364D01*
X15912077Y6950609D01*
X15938537Y6859893D01*
X15956310Y6740322D01*
X15962926Y6584833D01*
X15956255Y6427860D01*
X15938359Y6307483D01*
X15911755Y6216458D01*
X15877930Y6148737D01*
X15832055Y6091162D01*
X15780096Y6050457D01*
X15720828Y6025525D01*
X15652432Y6016846D01*
X15580647Y6025546D01*
X15519269Y6050355D01*
X15466297Y6090477D01*
X15420341Y6146661D01*
X15385794Y6213648D01*
X15359061Y6301032D01*
X15341333Y6413736D01*
X15334795Y6557722D01*
X15341514Y6732301D01*
X15359229Y6861540D01*
X15384947Y6955085D01*
X15416769Y7021051D01*
X15460979Y7076539D01*
X15513130Y7116443D01*
X15574812Y7141333D01*
X15648311Y7150133D01*
X15719471Y7141330D01*
G37*
G36*
X17531881Y5985583D02*
G01*
X17326992Y5985583D01*
X17257006Y5992342D01*
X17209710Y6009598D01*
X17178889Y6034188D01*
X17155628Y6070034D01*
X17141425Y6114171D01*
X17136391Y6169132D01*
X17141543Y6228633D01*
X17155861Y6275075D01*
X17178889Y6311525D01*
X17209804Y6336327D01*
X17257953Y6353843D01*
X17330014Y6360740D01*
X17531881Y6360740D01*
X17531881Y5985583D01*
G37*
G36*
X17531881Y6743713D02*
G01*
X17296217Y6743713D01*
X17215271Y6751282D01*
X17160860Y6770540D01*
X17125675Y6797813D01*
X17098646Y6837608D01*
X17082542Y6884511D01*
X17076948Y6940817D01*
X17082680Y7001647D01*
X17099033Y7051638D01*
X17126133Y7093347D01*
X17161799Y7122190D01*
X17215884Y7142295D01*
X17295210Y7150133D01*
X17531881Y7150133D01*
X17531881Y6743713D01*
G37*
G36*
X18222408Y5325678D02*
G01*
X13023930Y5325678D01*
X13023930Y7580000D01*
X13246152Y7580000D01*
X13757413Y6548197D01*
X13290207Y5579163D01*
X13796339Y5579163D01*
X14054535Y6194655D01*
X14320973Y5579163D01*
X14832326Y5579163D01*
X14360998Y6537328D01*
X14374538Y6564561D01*
X14870611Y6564561D01*
X14870932Y6557722D01*
X14879761Y6369603D01*
X14905740Y6200722D01*
X14946980Y6054068D01*
X15002808Y5926422D01*
X15073485Y5815346D01*
X15157330Y5722879D01*
X15254708Y5649369D01*
X15367669Y5594735D01*
X15498861Y5560135D01*
X15651425Y5547900D01*
X15799458Y5560161D01*
X15927934Y5595001D01*
X16039716Y5650337D01*
X16137202Y5725264D01*
X16222220Y5820109D01*
X16293588Y5933076D01*
X16349976Y6062803D01*
X16391631Y6211754D01*
X16417871Y6383171D01*
X16427110Y6580925D01*
X16419928Y6757075D01*
X16399509Y6910957D01*
X16375776Y7009693D01*
X16611757Y7009693D01*
X16616777Y6940817D01*
X16620801Y6885613D01*
X16646515Y6780921D01*
X16688144Y6691689D01*
X16745048Y6619027D01*
X16822743Y6559122D01*
X16926281Y6513148D01*
X16857765Y6474396D01*
X16804643Y6429745D01*
X16764348Y6379669D01*
X16718397Y6290095D01*
X16690839Y6189961D01*
X16689106Y6169132D01*
X16681366Y6076075D01*
X16688796Y5973764D01*
X16710452Y5882069D01*
X16746334Y5798718D01*
X16797687Y5722167D01*
X16858422Y5662470D01*
X16932342Y5617952D01*
X17022152Y5589416D01*
X17131262Y5579163D01*
X18000186Y5579163D01*
X18000186Y7580000D01*
X17198856Y7580000D01*
X16990853Y7552645D01*
X16881385Y7523466D01*
X16814631Y7486944D01*
X16756040Y7432667D01*
X16706773Y7367354D01*
X16666071Y7290084D01*
X16636148Y7204502D01*
X16617980Y7111599D01*
X16611757Y7009693D01*
X16375776Y7009693D01*
X16367156Y7045552D01*
X16323612Y7163444D01*
X16266580Y7274266D01*
X16202801Y7366873D01*
X16132016Y7443009D01*
X16053601Y7503797D01*
X15939726Y7560945D01*
X15801164Y7597926D01*
X15633015Y7611264D01*
X15506858Y7602598D01*
X15396538Y7577972D01*
X15300003Y7539006D01*
X15215451Y7486700D01*
X15136061Y7417682D01*
X15067428Y7337080D01*
X15008662Y7244312D01*
X14959271Y7138287D01*
X14922457Y7025970D01*
X14894676Y6894919D01*
X14876917Y6742213D01*
X14870611Y6564561D01*
X14374538Y6564561D01*
X14879404Y7580000D01*
X14360998Y7580000D01*
X14063785Y6937153D01*
X13767671Y7580000D01*
X13246152Y7580000D01*
X13023930Y7580000D01*
X13023930Y7833486D01*
X18222408Y7833486D01*
X18222408Y5325678D01*
G37*
G36*
X22910615Y6099767D02*
G01*
X22744652Y6821871D01*
X23075570Y6821871D01*
X22910615Y6099767D01*
G37*
G36*
X26134254Y5985583D02*
G01*
X25929365Y5985583D01*
X25859379Y5992342D01*
X25812083Y6009598D01*
X25781262Y6034188D01*
X25758001Y6070034D01*
X25743798Y6114171D01*
X25738764Y6169132D01*
X25743916Y6228633D01*
X25758234Y6275075D01*
X25781262Y6311525D01*
X25812177Y6336327D01*
X25860326Y6353843D01*
X25932387Y6360740D01*
X26134254Y6360740D01*
X26134254Y5985583D01*
G37*
G36*
X26134254Y6743713D02*
G01*
X25898590Y6743713D01*
X25817644Y6751282D01*
X25763233Y6770540D01*
X25728048Y6797813D01*
X25701019Y6837608D01*
X25684915Y6884511D01*
X25679321Y6940817D01*
X25685053Y7001647D01*
X25701406Y7051638D01*
X25728506Y7093347D01*
X25764172Y7122190D01*
X25818257Y7142295D01*
X25897583Y7150133D01*
X26134254Y7150133D01*
X26134254Y6743713D01*
G37*
G36*
X26824781Y5325678D02*
G01*
X18527960Y5325678D01*
X18527960Y7580000D01*
X18750182Y7580000D01*
X19321985Y6333873D01*
X18774820Y5579163D01*
X19391594Y5579163D01*
X19878401Y6335217D01*
X19878401Y5579163D01*
X20342493Y5579163D01*
X20342493Y6923842D01*
X20570188Y6923842D01*
X20977036Y6759345D01*
X21003637Y6883439D01*
X21036954Y6978556D01*
X21075954Y7050116D01*
X21126144Y7103823D01*
X21191669Y7137771D01*
X21277271Y7150133D01*
X21344494Y7141808D01*
X21401149Y7118189D01*
X21449315Y7080139D01*
X21490404Y7026913D01*
X21519513Y6964249D01*
X21543339Y6873473D01*
X21559913Y6745934D01*
X21566241Y6571400D01*
X21557608Y6393085D01*
X21535140Y6266081D01*
X21502677Y6177924D01*
X21455650Y6103516D01*
X21400847Y6051685D01*
X21336787Y6020083D01*
X21260877Y6009031D01*
X21193759Y6018818D01*
X21134847Y6047255D01*
X21083046Y6093410D01*
X21039501Y6156553D01*
X21018240Y6206017D01*
X20994438Y6290398D01*
X20584568Y6168887D01*
X20631739Y6014265D01*
X20687882Y5886991D01*
X20752537Y5783323D01*
X20825911Y5700430D01*
X20908622Y5637360D01*
X21008330Y5589670D01*
X21128245Y5558934D01*
X21272142Y5547900D01*
X21419271Y5559981D01*
X21546205Y5594211D01*
X21655925Y5648402D01*
X21750932Y5721549D01*
X21833138Y5813880D01*
X21901642Y5923781D01*
X21956131Y6051694D01*
X21996657Y6200364D01*
X22022343Y6373337D01*
X22031432Y6574819D01*
X22023545Y6762013D01*
X22001225Y6923664D01*
X21966016Y7063366D01*
X21918775Y7184205D01*
X21856918Y7298848D01*
X21791772Y7390815D01*
X21723209Y7462786D01*
X21650780Y7516742D01*
X21544834Y7566644D01*
X21491083Y7580000D01*
X22087761Y7580000D01*
X22301714Y6821871D01*
X22652420Y5579163D01*
X23158552Y5579163D01*
X23584252Y7087607D01*
X23782379Y7087607D01*
X24506864Y7087607D01*
X24506864Y5579163D01*
X24971047Y5579163D01*
X24971047Y7009693D01*
X25214130Y7009693D01*
X25219150Y6940817D01*
X25223174Y6885613D01*
X25248888Y6780921D01*
X25290517Y6691689D01*
X25347421Y6619027D01*
X25425116Y6559122D01*
X25528654Y6513148D01*
X25460138Y6474396D01*
X25407016Y6429745D01*
X25366721Y6379669D01*
X25320770Y6290095D01*
X25293212Y6189961D01*
X25291479Y6169132D01*
X25283739Y6076075D01*
X25291169Y5973764D01*
X25312825Y5882069D01*
X25348707Y5798718D01*
X25400060Y5722167D01*
X25460795Y5662470D01*
X25534715Y5617952D01*
X25624525Y5589416D01*
X25733635Y5579163D01*
X26602559Y5579163D01*
X26602559Y7580000D01*
X25801229Y7580000D01*
X25593226Y7552645D01*
X25483758Y7523466D01*
X25417004Y7486944D01*
X25358413Y7432667D01*
X25309146Y7367354D01*
X25268444Y7290084D01*
X25238521Y7204502D01*
X25220353Y7111599D01*
X25214130Y7009693D01*
X24971047Y7009693D01*
X24971047Y7580000D01*
X23782379Y7580000D01*
X23782379Y7087607D01*
X23584252Y7087607D01*
X23723211Y7580000D01*
X23248769Y7580000D01*
X23175954Y7251738D01*
X22647291Y7251738D01*
X22573468Y7580000D01*
X22087761Y7580000D01*
X21491083Y7580000D01*
X21413197Y7599353D01*
X21250618Y7611264D01*
X21116641Y7601548D01*
X21007159Y7574759D01*
X20918143Y7533716D01*
X20835679Y7473578D01*
X20763050Y7397246D01*
X20699332Y7303640D01*
X20647317Y7197292D01*
X20604075Y7071659D01*
X20570188Y6923842D01*
X20342493Y6923842D01*
X20342493Y7580000D01*
X19878401Y7580000D01*
X19878401Y7091393D01*
X19638616Y6757024D01*
X19321985Y7580000D01*
X18750182Y7580000D01*
X18527960Y7580000D01*
X18527960Y7833486D01*
X26824781Y7833486D01*
X26824781Y5325678D01*
G37*
G36*
X25315875Y10075678D02*
G01*
X14611125Y10075678D01*
X14611125Y11678238D01*
X14833347Y11678238D01*
X14840171Y11571725D01*
X14860182Y11473929D01*
X14893339Y11383071D01*
X14939115Y11302862D01*
X15001947Y11229226D01*
X15084948Y11162031D01*
X15176350Y11110248D01*
X15316684Y11051550D01*
X15520921Y10985932D01*
X15631541Y10945597D01*
X15676718Y10912537D01*
X15702542Y10870952D01*
X15710515Y10827052D01*
X15700508Y10767408D01*
X15669573Y10716410D01*
X15621887Y10683536D01*
X15547574Y10670859D01*
X15483525Y10678547D01*
X15433079Y10699710D01*
X15393335Y10732774D01*
X15362020Y10779031D01*
X15337308Y10843435D01*
X15320062Y10930977D01*
X14882531Y10896539D01*
X14906286Y10743059D01*
X14944731Y10619260D01*
X14996661Y10519824D01*
X15062416Y10441026D01*
X15139129Y10382783D01*
X15235074Y10337966D01*
X15354268Y10308592D01*
X15501412Y10297900D01*
X15658004Y10308129D01*
X15778877Y10335566D01*
X15870799Y10376180D01*
X15955614Y10436994D01*
X16022023Y10508580D01*
X16072666Y10591114D01*
X16110356Y10685438D01*
X16132448Y10781726D01*
X16135380Y10821557D01*
X16325091Y10821557D01*
X16325091Y10329163D01*
X17736051Y10329163D01*
X17736051Y10821557D01*
X17262708Y10821557D01*
X17262708Y11673842D01*
X17856127Y11673842D01*
X18262975Y11509345D01*
X18289576Y11633439D01*
X18322893Y11728556D01*
X18361893Y11800116D01*
X18412083Y11853823D01*
X18477608Y11887771D01*
X18563210Y11900133D01*
X18630433Y11891808D01*
X18687088Y11868189D01*
X18735254Y11830139D01*
X18776342Y11776913D01*
X18805452Y11714249D01*
X18829278Y11623473D01*
X18845851Y11495934D01*
X18852180Y11321400D01*
X18843547Y11143085D01*
X18821079Y11016081D01*
X18788616Y10927924D01*
X18741588Y10853516D01*
X18686786Y10801685D01*
X18622726Y10770083D01*
X18546815Y10759031D01*
X18479698Y10768818D01*
X18420786Y10797255D01*
X18368985Y10843410D01*
X18325440Y10906553D01*
X18304179Y10956017D01*
X18280377Y11040398D01*
X17870507Y10918887D01*
X17917678Y10764265D01*
X17973821Y10636991D01*
X18038476Y10533323D01*
X18111849Y10450430D01*
X18194560Y10387360D01*
X18294269Y10339670D01*
X18414184Y10308934D01*
X18558081Y10297900D01*
X18705210Y10309981D01*
X18832144Y10344211D01*
X18941864Y10398402D01*
X19036871Y10471549D01*
X19119076Y10563880D01*
X19187581Y10673781D01*
X19242070Y10801694D01*
X19282595Y10950364D01*
X19308282Y11123337D01*
X19317371Y11324819D01*
X19309483Y11512013D01*
X19287164Y11673664D01*
X19251954Y11813366D01*
X19227200Y11876686D01*
X19512826Y11876686D01*
X20314157Y11876686D01*
X20314157Y11485897D01*
X19591778Y11485897D01*
X19591778Y11079477D01*
X20314157Y11079477D01*
X20314157Y10759031D01*
X19535358Y10759031D01*
X19535358Y10329163D01*
X20779348Y10329163D01*
X20779348Y10759031D01*
X21028109Y10759031D01*
X21028109Y10329163D01*
X22175745Y10329163D01*
X22175745Y10759031D01*
X22427620Y10759031D01*
X22427620Y10329163D01*
X23575256Y10329163D01*
X23575256Y11876686D01*
X23827132Y11876686D01*
X24628462Y11876686D01*
X24628462Y11485897D01*
X23906083Y11485897D01*
X23906083Y11079477D01*
X24628462Y11079477D01*
X24628462Y10759031D01*
X23849663Y10759031D01*
X23849663Y10329163D01*
X25093653Y10329163D01*
X25093653Y12330000D01*
X23827132Y12330000D01*
X23827132Y11876686D01*
X23575256Y11876686D01*
X23575256Y12330000D01*
X23109058Y12330000D01*
X23109058Y11509345D01*
X22527088Y11509345D01*
X22527088Y11102924D01*
X23109058Y11102924D01*
X23109058Y10759031D01*
X22427620Y10759031D01*
X22175745Y10759031D01*
X22175745Y12330000D01*
X21709546Y12330000D01*
X21709546Y11509345D01*
X21127577Y11509345D01*
X21127577Y11102924D01*
X21709546Y11102924D01*
X21709546Y10759031D01*
X21028109Y10759031D01*
X20779348Y10759031D01*
X20779348Y12330000D01*
X19512826Y12330000D01*
X19512826Y11876686D01*
X19227200Y11876686D01*
X19204714Y11934205D01*
X19142857Y12048848D01*
X19077711Y12140815D01*
X19009148Y12212786D01*
X18936718Y12266742D01*
X18830773Y12316644D01*
X18699135Y12349353D01*
X18536557Y12361264D01*
X18402580Y12351548D01*
X18293098Y12324759D01*
X18204081Y12283716D01*
X18121618Y12223578D01*
X18048988Y12147246D01*
X17985270Y12053640D01*
X17933256Y11947292D01*
X17890014Y11821659D01*
X17856127Y11673842D01*
X17262708Y11673842D01*
X17262708Y12330000D01*
X16798525Y12330000D01*
X16798525Y10821557D01*
X16325091Y10821557D01*
X16135380Y10821557D01*
X16139802Y10881640D01*
X16131372Y10994953D01*
X16106905Y11095209D01*
X16066480Y11185180D01*
X16008644Y11266689D01*
X15942470Y11330627D01*
X15851769Y11393028D01*
X15730851Y11452918D01*
X15573220Y11508734D01*
X15447539Y11552480D01*
X15373917Y11591040D01*
X15335449Y11624139D01*
X15306189Y11668340D01*
X15289682Y11714029D01*
X15284250Y11762746D01*
X15290004Y11813895D01*
X15307391Y11861087D01*
X15338105Y11905995D01*
X15376559Y11938828D01*
X15426516Y11960022D01*
X15491246Y11967788D01*
X15556344Y11959541D01*
X15610901Y11936176D01*
X15657031Y11898537D01*
X15696135Y11845789D01*
X15720587Y11792519D01*
X15740435Y11720972D01*
X15754570Y11626581D01*
X16196222Y11663584D01*
X16177821Y11812205D01*
X16143735Y11943499D01*
X16094379Y12060191D01*
X16029160Y12164282D01*
X15969690Y12227716D01*
X15891512Y12281049D01*
X15790429Y12322994D01*
X15661339Y12350962D01*
X15498390Y12361264D01*
X15353557Y12350830D01*
X15234366Y12321971D01*
X15136697Y12277610D01*
X15046832Y12212013D01*
X14972994Y12130434D01*
X14913306Y12032024D01*
X14868714Y11920193D01*
X14842255Y11802978D01*
X14833347Y11678238D01*
X14611125Y11678238D01*
X14611125Y12583486D01*
X25315875Y12583486D01*
X25315875Y10075678D01*
G37*
G36*
X2541800Y16060147D02*
G01*
X2431402Y16435304D01*
X2649999Y16435304D01*
X2541800Y16060147D01*
G37*
G36*
X5244347Y15993713D02*
G01*
X5171660Y15993713D01*
X5080800Y15996779D01*
X5038841Y16003361D01*
X4996859Y16021822D01*
X4964005Y16050866D01*
X4938509Y16091212D01*
X4918087Y16148563D01*
X4906420Y16218100D01*
X4901674Y16328204D01*
X4906339Y16438956D01*
X4918087Y16512973D01*
X4931210Y16557081D01*
X4945423Y16588645D01*
X4960439Y16610365D01*
X4989144Y16635247D01*
X5025749Y16652314D01*
X5060497Y16659051D01*
X5123544Y16661961D01*
X5244347Y16661961D01*
X5244347Y15993713D01*
G37*
G36*
X5517195Y15698931D02*
G01*
X403961Y15698931D01*
X403961Y16830000D01*
X515072Y16830000D01*
X833174Y16216096D01*
X531486Y15825674D01*
X749008Y15825674D01*
X1075805Y16269280D01*
X1075805Y15825674D01*
X1237543Y15825674D01*
X1237543Y16521278D01*
X1378422Y16521278D01*
X1535275Y16458751D01*
X1553047Y16530582D01*
X1575491Y16583662D01*
X1601953Y16621845D01*
X1634891Y16650622D01*
X1671483Y16667800D01*
X1712888Y16673685D01*
X1755285Y16668449D01*
X1792436Y16653316D01*
X1825432Y16628415D01*
X1854989Y16592902D01*
X1876621Y16551469D01*
X1893742Y16495206D01*
X1905319Y16420172D01*
X1909650Y16321670D01*
X1905352Y16229466D01*
X1893763Y16158058D01*
X1876421Y16103409D01*
X1854207Y16062162D01*
X1824295Y16027025D01*
X1790780Y16002293D01*
X1752923Y15987216D01*
X1709615Y15981989D01*
X1667903Y15987234D01*
X1631768Y16002333D01*
X1600048Y16027113D01*
X1573720Y16060317D01*
X1554001Y16100824D01*
X1540746Y16150028D01*
X1380620Y16103134D01*
X1403136Y16025697D01*
X1430601Y15965166D01*
X1462588Y15918669D01*
X1510903Y15871959D01*
X1565894Y15838266D01*
X1628834Y15817358D01*
X1701409Y15810042D01*
X1768339Y15815976D01*
X1827940Y15833073D01*
X1881357Y15860729D01*
X1929513Y15898961D01*
X1973056Y15948406D01*
X2008699Y16005241D01*
X2037098Y16070980D01*
X2058223Y16146958D01*
X2071598Y16234867D01*
X2076322Y16336691D01*
X2071707Y16432390D01*
X2058569Y16515915D01*
X2037674Y16588996D01*
X2009375Y16653094D01*
X1973593Y16709345D01*
X1930191Y16758426D01*
X1882929Y16796145D01*
X1831250Y16823247D01*
X1808161Y16830000D01*
X2133572Y16830000D01*
X2259641Y16435304D01*
X2454361Y15825674D01*
X2625428Y15825674D01*
X2823416Y16462904D01*
X3027892Y16462904D01*
X3027892Y15825674D01*
X3189092Y15825674D01*
X3189092Y16477314D01*
X3192499Y16560148D01*
X3200741Y16610518D01*
X3211513Y16638758D01*
X3228785Y16659393D01*
X3253404Y16672641D01*
X3288010Y16677593D01*
X3321276Y16671339D01*
X3347262Y16653572D01*
X3367780Y16623554D01*
X3376718Y16598514D01*
X3383844Y16559552D01*
X3388003Y16501738D01*
X3540460Y16521278D01*
X3927927Y16521278D01*
X4084779Y16458751D01*
X4102552Y16530582D01*
X4124996Y16583662D01*
X4151458Y16621845D01*
X4184396Y16650622D01*
X4220988Y16667800D01*
X4262393Y16673685D01*
X4304789Y16668449D01*
X4341941Y16653316D01*
X4374937Y16628415D01*
X4404493Y16592902D01*
X4426125Y16551469D01*
X4443247Y16495206D01*
X4454824Y16420172D01*
X4459155Y16321670D01*
X4454856Y16229466D01*
X4443268Y16158058D01*
X4425926Y16103409D01*
X4403712Y16062162D01*
X4373800Y16027025D01*
X4340285Y16002293D01*
X4302427Y15987216D01*
X4259120Y15981989D01*
X4217408Y15987234D01*
X4181272Y16002333D01*
X4149553Y16027113D01*
X4123225Y16060317D01*
X4103506Y16100824D01*
X4090250Y16150028D01*
X3930125Y16103134D01*
X3952640Y16025697D01*
X3980105Y15965166D01*
X4012093Y15918669D01*
X4060407Y15871959D01*
X4115399Y15838266D01*
X4178338Y15817358D01*
X4250913Y15810042D01*
X4317844Y15815976D01*
X4377445Y15833073D01*
X4430862Y15860729D01*
X4479017Y15898961D01*
X4522560Y15948406D01*
X4558204Y16005241D01*
X4586603Y16070980D01*
X4607728Y16146958D01*
X4621102Y16234867D01*
X4625826Y16336691D01*
X4625791Y16337424D01*
X4734465Y16337424D01*
X4734785Y16328204D01*
X4737731Y16243425D01*
X4746790Y16165059D01*
X4760697Y16100081D01*
X4781294Y16038102D01*
X4806799Y15984158D01*
X4837194Y15937354D01*
X4873021Y15897462D01*
X4913084Y15866773D01*
X4957996Y15844847D01*
X5016423Y15831250D01*
X5110453Y15825674D01*
X5406084Y15825674D01*
X5406084Y16830000D01*
X5101709Y16830000D01*
X5016700Y16824010D01*
X4958534Y16808751D01*
X4912278Y16785996D01*
X4874819Y16759173D01*
X4844863Y16728579D01*
X4811415Y16680229D01*
X4782758Y16621617D01*
X4759036Y16551197D01*
X4745886Y16490597D01*
X4737461Y16419849D01*
X4734465Y16337424D01*
X4625791Y16337424D01*
X4621211Y16432390D01*
X4608073Y16515915D01*
X4587178Y16588996D01*
X4558879Y16653094D01*
X4523098Y16709345D01*
X4479696Y16758426D01*
X4432434Y16796145D01*
X4380755Y16823247D01*
X4323855Y16839889D01*
X4260732Y16845632D01*
X4196420Y16840180D01*
X4140314Y16824625D01*
X4091149Y16799753D01*
X4047899Y16765765D01*
X4010470Y16722658D01*
X3977948Y16668711D01*
X3950307Y16602293D01*
X3927927Y16521278D01*
X3540460Y16521278D01*
X3535591Y16602393D01*
X3522621Y16668533D01*
X3502626Y16722401D01*
X3475980Y16766131D01*
X3442074Y16801418D01*
X3401357Y16827300D01*
X3352440Y16843691D01*
X3293481Y16849540D01*
X3227234Y16842963D01*
X3173777Y16824757D01*
X3130620Y16796356D01*
X3093521Y16756760D01*
X3065339Y16710045D01*
X3045379Y16655184D01*
X3036451Y16609548D01*
X3030246Y16546851D01*
X3027892Y16462904D01*
X2823416Y16462904D01*
X2937473Y16830000D01*
X2765868Y16830000D01*
X2699727Y16603343D01*
X2379525Y16603343D01*
X2309573Y16830000D01*
X2133572Y16830000D01*
X1808161Y16830000D01*
X1774351Y16839889D01*
X1711227Y16845632D01*
X1646916Y16840180D01*
X1590809Y16824625D01*
X1541645Y16799753D01*
X1498394Y16765765D01*
X1460966Y16722658D01*
X1428444Y16668711D01*
X1400802Y16602293D01*
X1378422Y16521278D01*
X1237543Y16521278D01*
X1237543Y16830000D01*
X1075805Y16830000D01*
X1075805Y16527261D01*
X944647Y16359406D01*
X724389Y16830000D01*
X515072Y16830000D01*
X403961Y16830000D01*
X403961Y16960651D01*
X5517195Y16960651D01*
X5517195Y15698931D01*
G37*
G36*
X8137487Y13434033D02*
G01*
X8163417Y13417972D01*
X8188415Y13389430D01*
X8206730Y13353754D01*
X8218533Y13307548D01*
X8222853Y13247830D01*
X8218958Y13193756D01*
X8208432Y13152950D01*
X8192274Y13122350D01*
X8170047Y13098470D01*
X8145397Y13084526D01*
X8117389Y13079791D01*
X8088396Y13084768D01*
X8063240Y13099361D01*
X8040892Y13124304D01*
X8025013Y13156351D01*
X8014321Y13201657D01*
X8010264Y13264561D01*
X8014098Y13325867D01*
X8024083Y13368938D01*
X8038694Y13398467D01*
X8059438Y13421339D01*
X8082797Y13434742D01*
X8109720Y13439317D01*
X8137487Y13434033D01*
G37*
G36*
X9111245Y13090452D02*
G01*
X9136418Y13075878D01*
X9158792Y13050970D01*
X9174665Y13018980D01*
X9185331Y12973945D01*
X9189371Y12911630D01*
X9185570Y12849948D01*
X9175679Y12806644D01*
X9161234Y12776991D01*
X9140654Y12753987D01*
X9117383Y12740504D01*
X9090453Y12735897D01*
X9062359Y12741233D01*
X9036355Y12757393D01*
X9011513Y12786028D01*
X8993303Y12821816D01*
X8981594Y12867858D01*
X8977319Y12927017D01*
X8981180Y12981036D01*
X8991621Y13021921D01*
X9007654Y13052680D01*
X9029712Y13076659D01*
X9054259Y13090663D01*
X9082246Y13095423D01*
X9111245Y13090452D01*
G37*
G36*
X10687773Y13434033D02*
G01*
X10713703Y13417972D01*
X10738701Y13389430D01*
X10757016Y13353754D01*
X10768820Y13307548D01*
X10773139Y13247830D01*
X10769245Y13193756D01*
X10758718Y13152950D01*
X10742560Y13122350D01*
X10720333Y13098470D01*
X10695683Y13084526D01*
X10667675Y13079791D01*
X10638682Y13084768D01*
X10613527Y13099361D01*
X10591178Y13124304D01*
X10575299Y13156351D01*
X10564607Y13201657D01*
X10560550Y13264561D01*
X10564385Y13325867D01*
X10574369Y13368938D01*
X10588980Y13398467D01*
X10609724Y13421339D01*
X10633083Y13434742D01*
X10660006Y13439317D01*
X10687773Y13434033D01*
G37*
G36*
X11995067Y12464563D02*
G01*
X6963850Y12464563D01*
X6963850Y12575674D01*
X7074961Y12575674D01*
X7246566Y12575674D01*
X7442742Y13318172D01*
X7645512Y12575674D01*
X7820927Y12575674D01*
X7624792Y13263584D01*
X7859957Y13263584D01*
X7864556Y13192901D01*
X7877724Y13131369D01*
X7898992Y13077379D01*
X7928541Y13029721D01*
X7965220Y12989484D01*
X8004418Y12961545D01*
X8046794Y12944808D01*
X8093307Y12939107D01*
X8134340Y12944446D01*
X8171199Y12960066D01*
X8204860Y12986145D01*
X8235945Y13023860D01*
X8225406Y12905563D01*
X8210487Y12833053D01*
X8193593Y12792134D01*
X8168645Y12760055D01*
X8141595Y12741933D01*
X8111332Y12735897D01*
X8087834Y12739152D01*
X8068274Y12748414D01*
X8051786Y12763558D01*
X8039146Y12783779D01*
X8029498Y12811619D01*
X8023356Y12849226D01*
X7874710Y12828465D01*
X7886356Y12767633D01*
X7903139Y12717001D01*
X7924675Y12675005D01*
X7950962Y12640459D01*
X7982199Y12612582D01*
X8017283Y12592465D01*
X8056927Y12580012D01*
X8102051Y12575674D01*
X8153128Y12580747D01*
X8199018Y12595457D01*
X8240630Y12619502D01*
X8278665Y12653190D01*
X8313565Y12697429D01*
X8340056Y12745832D01*
X8362217Y12807002D01*
X8379477Y12883488D01*
X8390852Y12978294D01*
X8394520Y13081440D01*
X8805177Y13081440D01*
X8809176Y12967093D01*
X8813912Y12927017D01*
X8820138Y12874327D01*
X8836738Y12799751D01*
X8857996Y12740355D01*
X8883335Y12693582D01*
X8916929Y12650505D01*
X8953220Y12617852D01*
X8992601Y12594658D01*
X9035706Y12580529D01*
X9083370Y12575674D01*
X9138193Y12581736D01*
X9186439Y12599219D01*
X9229352Y12627760D01*
X9267822Y12667937D01*
X9298943Y12716645D01*
X9321387Y12772404D01*
X9335329Y12836568D01*
X9340215Y12910958D01*
X9335597Y12982372D01*
X9322398Y13044283D01*
X9301127Y13098361D01*
X9285965Y13122778D01*
X9695100Y13122778D01*
X9996740Y13122778D01*
X9996740Y13263584D01*
X10410243Y13263584D01*
X10414842Y13192901D01*
X10428010Y13131369D01*
X10449278Y13077379D01*
X10478827Y13029721D01*
X10515506Y12989484D01*
X10554704Y12961545D01*
X10597080Y12944808D01*
X10643593Y12939107D01*
X10684626Y12944446D01*
X10721486Y12960066D01*
X10755146Y12986145D01*
X10786231Y13023860D01*
X10775692Y12905563D01*
X10760773Y12833053D01*
X10743879Y12792134D01*
X10718931Y12760055D01*
X10691881Y12741933D01*
X10661618Y12735897D01*
X10638120Y12739152D01*
X10618560Y12748414D01*
X10602072Y12763558D01*
X10589432Y12783779D01*
X10579784Y12811619D01*
X10573642Y12849226D01*
X10424996Y12828465D01*
X10436642Y12767633D01*
X10453425Y12717001D01*
X10474961Y12675005D01*
X10501248Y12640459D01*
X10532485Y12612582D01*
X10567569Y12592465D01*
X10607213Y12580012D01*
X10652337Y12575674D01*
X10703414Y12580747D01*
X10749304Y12595457D01*
X10790917Y12619502D01*
X10828951Y12653190D01*
X10863851Y12697429D01*
X10890342Y12745832D01*
X10912503Y12807002D01*
X10929763Y12883488D01*
X10941138Y12978294D01*
X10945282Y13094812D01*
X10941290Y13208600D01*
X10932672Y13281353D01*
X11351653Y13281353D01*
X11356433Y13222525D01*
X11370226Y13171300D01*
X11392930Y13126075D01*
X11423256Y13088524D01*
X11459574Y13061049D01*
X11503035Y13043277D01*
X11458878Y13007101D01*
X11426895Y12968415D01*
X11405051Y12927035D01*
X11392101Y12882220D01*
X11387703Y12832740D01*
X11391160Y12787818D01*
X11401440Y12745527D01*
X11418795Y12705084D01*
X11443977Y12665922D01*
X11480366Y12626934D01*
X11521989Y12599002D01*
X11569874Y12581723D01*
X11625449Y12575674D01*
X11668975Y12579301D01*
X11708591Y12589838D01*
X11744884Y12606998D01*
X11778384Y12630964D01*
X11805830Y12659543D01*
X11827927Y12692910D01*
X11845151Y12730841D01*
X11860152Y12778880D01*
X11872476Y12838968D01*
X11730913Y12868765D01*
X11723975Y12826798D01*
X11712544Y12794458D01*
X11697061Y12769786D01*
X11677118Y12750907D01*
X11654949Y12739720D01*
X11629797Y12735897D01*
X11604208Y12739449D01*
X11583253Y12749490D01*
X11565903Y12765817D01*
X11552777Y12787416D01*
X11544688Y12813674D01*
X11541821Y12845929D01*
X11545626Y12883461D01*
X11556522Y12914539D01*
X11574647Y12940695D01*
X11598144Y12959371D01*
X11629080Y12970969D01*
X11669706Y12974278D01*
X11686657Y13129311D01*
X11646838Y13118209D01*
X11616168Y13114962D01*
X11587749Y13119695D01*
X11562741Y13133615D01*
X11540208Y13157399D01*
X11523377Y13187831D01*
X11512825Y13225492D01*
X11509043Y13272377D01*
X11512991Y13321949D01*
X11524010Y13361864D01*
X11541576Y13394193D01*
X11565163Y13419464D01*
X11591511Y13434272D01*
X11621639Y13439317D01*
X11649851Y13434915D01*
X11674700Y13422016D01*
X11697061Y13400177D01*
X11714423Y13371771D01*
X11727339Y13334734D01*
X11735310Y13286909D01*
X11883956Y13310417D01*
X11874146Y13373321D01*
X11857029Y13428387D01*
X11832744Y13476860D01*
X11800913Y13519611D01*
X11763412Y13554113D01*
X11721450Y13578913D01*
X11674186Y13594217D01*
X11620516Y13599540D01*
X11564320Y13593460D01*
X11514351Y13575863D01*
X11469441Y13547059D01*
X11428736Y13506483D01*
X11394642Y13456855D01*
X11370853Y13403466D01*
X11356542Y13345404D01*
X11351653Y13281353D01*
X10932672Y13281353D01*
X10930342Y13301018D01*
X10913751Y13375413D01*
X10909057Y13388514D01*
X11069992Y13388514D01*
X11223523Y13388514D01*
X11223523Y13580000D01*
X11069992Y13580000D01*
X11069992Y13388514D01*
X10909057Y13388514D01*
X10892489Y13434756D01*
X10867124Y13481571D01*
X10833517Y13524711D01*
X10797272Y13557385D01*
X10758001Y13580577D01*
X10715077Y13594692D01*
X10667675Y13599540D01*
X10612229Y13593470D01*
X10563664Y13576004D01*
X10520694Y13547567D01*
X10482393Y13507644D01*
X10451441Y13459112D01*
X10429067Y13403275D01*
X10415136Y13338726D01*
X10410307Y13264561D01*
X10410243Y13263584D01*
X9996740Y13263584D01*
X9996740Y13314264D01*
X9695100Y13314264D01*
X9695100Y13122778D01*
X9285965Y13122778D01*
X9271632Y13145859D01*
X9234951Y13186031D01*
X9196012Y13213849D01*
X9154179Y13230463D01*
X9108527Y13236107D01*
X9066583Y13230775D01*
X9029065Y13215217D01*
X8994983Y13189342D01*
X8963691Y13152087D01*
X8974523Y13269887D01*
X8989512Y13342202D01*
X9006336Y13383080D01*
X9031078Y13415251D01*
X9057666Y13433325D01*
X9087180Y13439317D01*
X9111425Y13436016D01*
X9131331Y13426684D01*
X9147850Y13411534D01*
X9160511Y13391173D01*
X9170153Y13363348D01*
X9176280Y13325988D01*
X9324926Y13346871D01*
X9313278Y13409369D01*
X9296756Y13460641D01*
X9275828Y13502465D01*
X9250578Y13536220D01*
X9220367Y13563201D01*
X9185582Y13582884D01*
X9145374Y13595205D01*
X9098659Y13599540D01*
X9047339Y13594463D01*
X9001281Y13579747D01*
X8959568Y13555713D01*
X8921493Y13522063D01*
X8886608Y13477907D01*
X8860100Y13429514D01*
X8837937Y13368418D01*
X8820682Y13292091D01*
X8809316Y13197554D01*
X8805177Y13081440D01*
X8394520Y13081440D01*
X8394996Y13094812D01*
X8391004Y13208600D01*
X8380056Y13301018D01*
X8363465Y13375413D01*
X8358771Y13388514D01*
X8519706Y13388514D01*
X8673237Y13388514D01*
X8673237Y13580000D01*
X8519706Y13580000D01*
X8519706Y13388514D01*
X8358771Y13388514D01*
X8342203Y13434756D01*
X8316838Y13481571D01*
X8283230Y13524711D01*
X8246986Y13557385D01*
X8207715Y13580577D01*
X8164791Y13594692D01*
X8117389Y13599540D01*
X8061943Y13593470D01*
X8013378Y13576004D01*
X7970408Y13547567D01*
X7932107Y13507644D01*
X7901155Y13459112D01*
X7878781Y13403275D01*
X7864850Y13338726D01*
X7860021Y13264561D01*
X7859957Y13263584D01*
X7624792Y13263584D01*
X7534577Y13580000D01*
X7361897Y13580000D01*
X7074961Y12575674D01*
X6963850Y12575674D01*
X6963850Y13710651D01*
X11995067Y13710651D01*
X11995067Y12464563D01*
G37*
G36*
X39109193Y16671891D02*
G01*
X39150748Y16655350D01*
X39188052Y16628060D01*
X39221856Y16589116D01*
X39247810Y16543152D01*
X39267397Y16486155D01*
X39280082Y16415778D01*
X39284675Y16329119D01*
X39280129Y16240659D01*
X39267656Y16169764D01*
X39248557Y16113232D01*
X39223468Y16068451D01*
X39190585Y16030757D01*
X39153401Y16004056D01*
X39111049Y15987687D01*
X39062267Y15981989D01*
X39013401Y15987647D01*
X38971170Y16003867D01*
X38934282Y16030254D01*
X38901849Y16067413D01*
X38877143Y16111635D01*
X38858300Y16167669D01*
X38845971Y16238167D01*
X38841472Y16326372D01*
X38846067Y16415451D01*
X38858689Y16487029D01*
X38878045Y16544279D01*
X38903510Y16589788D01*
X38936881Y16628374D01*
X38973891Y16655460D01*
X39015305Y16671911D01*
X39062267Y16677593D01*
X39109193Y16671891D01*
G37*
G36*
X35808415Y16060147D02*
G01*
X35698018Y16435304D01*
X35916615Y16435304D01*
X35808415Y16060147D01*
G37*
G36*
X39562457Y15698931D02*
G01*
X33670577Y15698931D01*
X33670577Y16830000D01*
X33781688Y16830000D01*
X34099790Y16216096D01*
X33798101Y15825674D01*
X34015624Y15825674D01*
X34342421Y16269280D01*
X34342421Y15825674D01*
X34504159Y15825674D01*
X34504159Y16521278D01*
X34645038Y16521278D01*
X34801891Y16458751D01*
X34819663Y16530582D01*
X34842107Y16583662D01*
X34868569Y16621845D01*
X34901507Y16650622D01*
X34938099Y16667800D01*
X34979504Y16673685D01*
X35021901Y16668449D01*
X35059052Y16653316D01*
X35092048Y16628415D01*
X35121605Y16592902D01*
X35143236Y16551469D01*
X35160358Y16495206D01*
X35171935Y16420172D01*
X35176266Y16321670D01*
X35171968Y16229466D01*
X35160379Y16158058D01*
X35143037Y16103409D01*
X35120823Y16062162D01*
X35090911Y16027025D01*
X35057396Y16002293D01*
X35019538Y15987216D01*
X34976231Y15981989D01*
X34934519Y15987234D01*
X34898384Y16002333D01*
X34866664Y16027113D01*
X34840336Y16060317D01*
X34820617Y16100824D01*
X34807362Y16150028D01*
X34647236Y16103134D01*
X34669751Y16025697D01*
X34697217Y15965166D01*
X34729204Y15918669D01*
X34777519Y15871959D01*
X34832510Y15838266D01*
X34895450Y15817358D01*
X34968025Y15810042D01*
X35034955Y15815976D01*
X35094556Y15833073D01*
X35147973Y15860729D01*
X35196129Y15898961D01*
X35239672Y15948406D01*
X35275315Y16005241D01*
X35303714Y16070980D01*
X35324839Y16146958D01*
X35338213Y16234867D01*
X35342937Y16336691D01*
X35338323Y16432390D01*
X35325185Y16515915D01*
X35304290Y16588996D01*
X35275991Y16653094D01*
X35240209Y16709345D01*
X35196807Y16758426D01*
X35149545Y16796145D01*
X35097866Y16823247D01*
X35074777Y16830000D01*
X35400188Y16830000D01*
X35526256Y16435304D01*
X35720976Y15825674D01*
X35892044Y15825674D01*
X36090032Y16462904D01*
X36294508Y16462904D01*
X36294508Y15825674D01*
X36455708Y15825674D01*
X36455708Y15993713D01*
X37160446Y15993713D01*
X37160446Y15825674D01*
X37797138Y15825674D01*
X37797138Y15993713D01*
X37559392Y15993713D01*
X37559392Y16354460D01*
X37910125Y16354460D01*
X37910125Y15825674D01*
X38071912Y15825674D01*
X38071912Y16386333D01*
X38074074Y16498047D01*
X38079043Y16558464D01*
X38086788Y16591002D01*
X38100602Y16619912D01*
X38121102Y16645902D01*
X38146048Y16664556D01*
X38179775Y16676896D01*
X38224905Y16681501D01*
X38269200Y16676805D01*
X38304181Y16663895D01*
X38331786Y16643826D01*
X38354614Y16616001D01*
X38370973Y16583037D01*
X38381221Y16543931D01*
X38385265Y16493915D01*
X38387229Y16374549D01*
X38387229Y15825674D01*
X38548967Y15825674D01*
X38548967Y16331134D01*
X38674263Y16331134D01*
X38674493Y16326372D01*
X38679073Y16231581D01*
X38692727Y16145224D01*
X38714382Y16070161D01*
X38743637Y16004786D01*
X38780558Y15947856D01*
X38825097Y15898985D01*
X38874834Y15860942D01*
X38930501Y15833250D01*
X38993104Y15816039D01*
X39063879Y15810042D01*
X39128505Y15814751D01*
X39185729Y15828233D01*
X39236559Y15849793D01*
X39272531Y15872534D01*
X39306999Y15902504D01*
X39340167Y15940346D01*
X39382466Y16005382D01*
X39414710Y16078160D01*
X39434240Y16149125D01*
X39446829Y16234197D01*
X39451346Y16335958D01*
X39446604Y16433093D01*
X39433112Y16517687D01*
X39411667Y16591542D01*
X39382623Y16656177D01*
X39345882Y16712764D01*
X39301742Y16761112D01*
X39252162Y16798845D01*
X39196373Y16826386D01*
X39133324Y16843548D01*
X39061730Y16849540D01*
X38991135Y16843553D01*
X38928761Y16826376D01*
X38873366Y16798751D01*
X38823933Y16760815D01*
X38779727Y16712092D01*
X38743074Y16655303D01*
X38714041Y16590202D01*
X38692563Y16515571D01*
X38679028Y16429836D01*
X38674263Y16331134D01*
X38548967Y16331134D01*
X38548967Y16362642D01*
X38544336Y16521306D01*
X38533140Y16618120D01*
X38516696Y16674293D01*
X38487759Y16729739D01*
X38462797Y16762164D01*
X38431852Y16791013D01*
X38394068Y16816262D01*
X38353437Y16833251D01*
X38296849Y16845046D01*
X38219972Y16849540D01*
X38156663Y16845645D01*
X38106028Y16835027D01*
X38065903Y16819010D01*
X38028174Y16795552D01*
X37997023Y16768183D01*
X37971625Y16736944D01*
X37950909Y16700706D01*
X37934762Y16658885D01*
X37923265Y16610609D01*
X37914146Y16522467D01*
X37910125Y16354460D01*
X37559392Y16354460D01*
X37559392Y16830000D01*
X37397655Y16830000D01*
X37397655Y15993713D01*
X37160446Y15993713D01*
X36455708Y15993713D01*
X36455708Y16477314D01*
X36459115Y16560148D01*
X36467357Y16610518D01*
X36478129Y16638758D01*
X36495401Y16659393D01*
X36520020Y16672641D01*
X36554626Y16677593D01*
X36587892Y16671339D01*
X36613877Y16653572D01*
X36634396Y16623554D01*
X36643334Y16598514D01*
X36650460Y16559552D01*
X36654619Y16501738D01*
X36807076Y16521278D01*
X36802207Y16602393D01*
X36789237Y16668533D01*
X36769241Y16722401D01*
X36742595Y16766131D01*
X36708690Y16801418D01*
X36667973Y16827300D01*
X36619056Y16843691D01*
X36560097Y16849540D01*
X36493850Y16842963D01*
X36440393Y16824757D01*
X36397236Y16796356D01*
X36360137Y16756760D01*
X36331955Y16710045D01*
X36311995Y16655184D01*
X36303066Y16609548D01*
X36296861Y16546851D01*
X36294508Y16462904D01*
X36090032Y16462904D01*
X36204089Y16830000D01*
X36032484Y16830000D01*
X35966343Y16603343D01*
X35646140Y16603343D01*
X35576189Y16830000D01*
X35400188Y16830000D01*
X35074777Y16830000D01*
X35040967Y16839889D01*
X34977843Y16845632D01*
X34913532Y16840180D01*
X34857425Y16824625D01*
X34808260Y16799753D01*
X34765010Y16765765D01*
X34727582Y16722658D01*
X34695059Y16668711D01*
X34667418Y16602293D01*
X34645038Y16521278D01*
X34504159Y16521278D01*
X34504159Y16830000D01*
X34342421Y16830000D01*
X34342421Y16527261D01*
X34211263Y16359406D01*
X33991004Y16830000D01*
X33781688Y16830000D01*
X33670577Y16830000D01*
X33670577Y16960651D01*
X39562457Y16960651D01*
X39562457Y15698931D01*
G37*
G36*
X5506287Y10548242D02*
G01*
X5502807Y10430175D01*
X5488217Y10394574D01*
X5462934Y10369260D01*
X5440531Y10357573D01*
X5413333Y10350271D01*
X5380075Y10347669D01*
X5337087Y10352003D01*
X5303810Y10364082D01*
X5277945Y10383475D01*
X5260823Y10409414D01*
X5252574Y10449019D01*
X5248367Y10554787D01*
X5248367Y10674466D01*
X5506287Y10674466D01*
X5506287Y10548242D01*
G37*
G36*
X5439853Y11330698D02*
G01*
X5064696Y11220300D01*
X5064696Y11438898D01*
X5439853Y11330698D01*
G37*
G36*
X5506287Y12068604D02*
G01*
X5504061Y11988404D01*
X5499326Y11952198D01*
X5490174Y11927276D01*
X5475200Y11905794D01*
X5454141Y11887181D01*
X5428417Y11873124D01*
X5398229Y11864508D01*
X5362367Y11861487D01*
X5319485Y11866177D01*
X5283110Y11879805D01*
X5253777Y11901427D01*
X5233101Y11930363D01*
X5222197Y11970497D01*
X5217103Y12058249D01*
X5217103Y12146762D01*
X5506287Y12146762D01*
X5506287Y12068604D01*
G37*
G36*
X5801069Y9308191D02*
G01*
X4539349Y9308191D01*
X4539349Y9419302D01*
X4670000Y9419302D01*
X4838039Y9419302D01*
X4838039Y9866902D01*
X5115498Y9866902D01*
X5115498Y9464683D01*
X5283538Y9464683D01*
X5283538Y9866902D01*
X5506287Y9866902D01*
X5506287Y9434592D01*
X5674326Y9434592D01*
X5674326Y10028639D01*
X4670000Y10028639D01*
X4670000Y9419302D01*
X4539349Y9419302D01*
X4539349Y10674466D01*
X4670000Y10674466D01*
X5088143Y10674466D01*
X5088143Y10641689D01*
X5084769Y10589739D01*
X5076847Y10560258D01*
X5073374Y10554787D01*
X5061369Y10535878D01*
X5035265Y10511605D01*
X4993515Y10484775D01*
X4888230Y10426364D01*
X4670000Y10309421D01*
X4670000Y10115981D01*
X4865394Y10213775D01*
X4972229Y10270205D01*
X5027998Y10305904D01*
X5070879Y10343564D01*
X5112079Y10392512D01*
X5126189Y10340064D01*
X5146753Y10297137D01*
X5173099Y10262198D01*
X5205075Y10234048D01*
X5243745Y10211175D01*
X5287173Y10194714D01*
X5336255Y10184541D01*
X5392165Y10180998D01*
X5450400Y10185018D01*
X5502890Y10196719D01*
X5550739Y10215974D01*
X5592765Y10242244D01*
X5624588Y10273116D01*
X5647215Y10309177D01*
X5660723Y10349088D01*
X5670498Y10409181D01*
X5674326Y10495778D01*
X5674326Y10836253D01*
X4670000Y10836253D01*
X4670000Y10674466D01*
X4539349Y10674466D01*
X4539349Y11554766D01*
X4670000Y11554766D01*
X4896657Y11488625D01*
X4896657Y11220300D01*
X4896657Y11168423D01*
X4670000Y11098472D01*
X4670000Y10922470D01*
X5674326Y11243259D01*
X5674326Y11414327D01*
X4670000Y11726371D01*
X4670000Y11554766D01*
X4539349Y11554766D01*
X4539349Y12146762D01*
X4670000Y12146762D01*
X5049064Y12146762D01*
X5049064Y12058249D01*
X5049064Y12041298D01*
X5053253Y11937927D01*
X5063475Y11873503D01*
X5080749Y11831941D01*
X5111041Y11789581D01*
X5137462Y11764132D01*
X5170194Y11741476D01*
X5210020Y11721535D01*
X5253277Y11707166D01*
X5304570Y11698023D01*
X5365481Y11694766D01*
X5443446Y11700381D01*
X5507689Y11716139D01*
X5560936Y11741221D01*
X5606115Y11775246D01*
X5638485Y11813440D01*
X5659244Y11856553D01*
X5669418Y11913998D01*
X5674326Y12048918D01*
X5674326Y12308500D01*
X4670000Y12308500D01*
X4670000Y12146762D01*
X4539349Y12146762D01*
X4539349Y12765283D01*
X4650460Y12765283D01*
X4655002Y12695990D01*
X4667605Y12638486D01*
X4687035Y12590942D01*
X4716198Y12547292D01*
X4753322Y12511540D01*
X4798899Y12482743D01*
X4850751Y12461348D01*
X4904267Y12448720D01*
X4960343Y12444494D01*
X5022646Y12448345D01*
X5075326Y12459215D01*
X5120078Y12476490D01*
X5159930Y12500371D01*
X5193775Y12529679D01*
X5221988Y12565004D01*
X5255832Y12629864D01*
X5294712Y12739588D01*
X5322305Y12819482D01*
X5344626Y12865215D01*
X5362306Y12888235D01*
X5390617Y12906413D01*
X5423306Y12912268D01*
X5447693Y12909381D01*
X5468111Y12900978D01*
X5485587Y12886574D01*
X5504817Y12858526D01*
X5517331Y12822434D01*
X5521919Y12776176D01*
X5517511Y12731289D01*
X5505765Y12698044D01*
X5488152Y12673741D01*
X5462684Y12654641D01*
X5426734Y12639616D01*
X5377327Y12629191D01*
X5385143Y12467404D01*
X5452786Y12474155D01*
X5511247Y12489813D01*
X5562216Y12514084D01*
X5606854Y12547467D01*
X5640997Y12586945D01*
X5666928Y12636420D01*
X5683818Y12698071D01*
X5689958Y12774564D01*
X5685687Y12835680D01*
X5673674Y12887785D01*
X5654848Y12932198D01*
X5627244Y12973102D01*
X5593246Y13006118D01*
X5552571Y13032240D01*
X5506308Y13051646D01*
X5458527Y13063092D01*
X5408407Y13066923D01*
X5350569Y13062276D01*
X5298217Y13048657D01*
X5250083Y13025932D01*
X5205319Y12993161D01*
X5171829Y12955266D01*
X5138127Y12896654D01*
X5105118Y12810614D01*
X5060666Y12681117D01*
X5039346Y12643725D01*
X5017923Y12622889D01*
X4991082Y12610485D01*
X4958389Y12606232D01*
X4924274Y12610450D01*
X4892907Y12623212D01*
X4863135Y12645848D01*
X4841787Y12674133D01*
X4827673Y12712395D01*
X4822407Y12763622D01*
X4827966Y12811552D01*
X4843404Y12849965D01*
X4867775Y12880858D01*
X4901589Y12905373D01*
X4947904Y12924776D01*
X5009986Y12938500D01*
X4990446Y13095890D01*
X4908462Y13083023D01*
X4840358Y13062234D01*
X4783861Y13034122D01*
X4737288Y12998632D01*
X4701287Y12956486D01*
X4674209Y12904907D01*
X4656752Y12841964D01*
X4650460Y12765283D01*
X4539349Y12765283D01*
X4539349Y13207001D01*
X5801069Y13207001D01*
X5801069Y9308191D01*
G37*
G36*
X20891028Y1118069D02*
G01*
X20769084Y1118069D01*
X20587642Y1123198D01*
X20553608Y1133847D01*
X20527504Y1151555D01*
X20507692Y1175772D01*
X20487811Y1224298D01*
X20480764Y1288429D01*
X20484445Y1334875D01*
X20494898Y1373229D01*
X20511987Y1405299D01*
X20547769Y1440069D01*
X20597643Y1458788D01*
X20751901Y1463917D01*
X20891028Y1463917D01*
X20891028Y1118069D01*
G37*
G36*
X20891028Y1715976D02*
G01*
X20719588Y1715976D01*
X20587252Y1723054D01*
X20531350Y1737683D01*
X20492521Y1766341D01*
X20464992Y1806834D01*
X20448020Y1858225D01*
X20442039Y1922330D01*
X20445650Y1974429D01*
X20455745Y2016556D01*
X20471852Y2050833D01*
X20505649Y2089603D01*
X20548917Y2111191D01*
X20590002Y2117360D01*
X20694519Y2120442D01*
X20891028Y2120442D01*
X20891028Y1715976D01*
G37*
G36*
X23259069Y1118069D02*
G01*
X23163668Y1118069D01*
X23044414Y1122668D01*
X22989343Y1132541D01*
X22934241Y1160233D01*
X22891120Y1203798D01*
X22857657Y1264317D01*
X22830853Y1350344D01*
X22815540Y1454650D01*
X22809311Y1619805D01*
X22815434Y1785934D01*
X22830853Y1896960D01*
X22848077Y1963121D01*
X22866732Y2010467D01*
X22886440Y2043047D01*
X22924116Y2080370D01*
X22972160Y2105970D01*
X23017767Y2116077D01*
X23100516Y2120442D01*
X23259069Y2120442D01*
X23259069Y1118069D01*
G37*
G36*
X24238022Y1118069D02*
G01*
X24135440Y1118069D01*
X24030177Y1121409D01*
X23982657Y1128511D01*
X23949946Y1142239D01*
X23921752Y1164699D01*
X23897322Y1196288D01*
X23878872Y1234875D01*
X23867564Y1280156D01*
X23863598Y1333949D01*
X23869753Y1398272D01*
X23887640Y1452835D01*
X23916020Y1496834D01*
X23953998Y1527848D01*
X24006675Y1544204D01*
X24121848Y1551845D01*
X24238022Y1551845D01*
X24238022Y1118069D01*
G37*
G36*
X16727220Y2157586D02*
G01*
X16770888Y2128905D01*
X16810060Y2079775D01*
X16838600Y2016934D01*
X16857066Y1934666D01*
X16863851Y1827350D01*
X16857064Y1720036D01*
X16838598Y1637802D01*
X16810060Y1575017D01*
X16770883Y1525832D01*
X16727216Y1497124D01*
X16677344Y1487364D01*
X16627488Y1497135D01*
X16583954Y1525850D01*
X16545013Y1575017D01*
X16516601Y1637730D01*
X16498265Y1719336D01*
X16491543Y1825244D01*
X16498323Y1934045D01*
X16516712Y2016936D01*
X16545013Y2079775D01*
X16583950Y2128887D01*
X16627483Y2157574D01*
X16677344Y2167337D01*
X16727220Y2157586D01*
G37*
G36*
X18427812Y2191506D02*
G01*
X18454224Y2176761D01*
X18476889Y2152407D01*
X18494586Y2120663D01*
X18504932Y2086033D01*
X18508433Y2047352D01*
X18504152Y2009019D01*
X18491412Y1975564D01*
X18469003Y1945503D01*
X18435464Y1923764D01*
X18359240Y1895036D01*
X18236591Y1850798D01*
X18236591Y1908409D01*
X18239077Y2004067D01*
X18244477Y2049459D01*
X18261926Y2101068D01*
X18292562Y2145171D01*
X18326905Y2174295D01*
X18361337Y2191106D01*
X18396554Y2196646D01*
X18427812Y2191506D01*
G37*
G36*
X19317251Y1656345D02*
G01*
X19302872Y1594636D01*
X19279785Y1545067D01*
X19248422Y1506382D01*
X19212574Y1483506D01*
X19170728Y1475641D01*
X19131587Y1482986D01*
X19097111Y1504578D01*
X19066030Y1541403D01*
X19042964Y1588893D01*
X19027519Y1651497D01*
X19020830Y1733561D01*
X19322100Y1733561D01*
X19317251Y1656345D01*
G37*
G36*
X26908319Y1656345D02*
G01*
X26893940Y1594636D01*
X26870853Y1545067D01*
X26839490Y1506382D01*
X26803641Y1483506D01*
X26761796Y1475641D01*
X26722654Y1482986D01*
X26688178Y1504578D01*
X26657098Y1541403D01*
X26634032Y1588893D01*
X26618587Y1651497D01*
X26611898Y1733561D01*
X26913168Y1733561D01*
X26908319Y1656345D01*
G37*
G36*
X28785569Y1656345D02*
G01*
X28771191Y1594636D01*
X28748104Y1545067D01*
X28716740Y1506382D01*
X28680892Y1483506D01*
X28639046Y1475641D01*
X28599905Y1482986D01*
X28565429Y1504578D01*
X28534348Y1541403D01*
X28511283Y1588893D01*
X28495837Y1651497D01*
X28489148Y1733561D01*
X28790419Y1733561D01*
X28785569Y1656345D01*
G37*
G36*
X31256934Y2157586D02*
G01*
X31300602Y2128905D01*
X31339774Y2079775D01*
X31368314Y2016934D01*
X31386780Y1934666D01*
X31393565Y1827350D01*
X31386778Y1720036D01*
X31368312Y1637802D01*
X31339774Y1575017D01*
X31300597Y1525832D01*
X31256930Y1497124D01*
X31207058Y1487364D01*
X31157201Y1497135D01*
X31113668Y1525850D01*
X31074727Y1575017D01*
X31046314Y1637730D01*
X31027978Y1719336D01*
X31021256Y1825244D01*
X31028036Y1934045D01*
X31046425Y2016936D01*
X31074727Y2079775D01*
X31113664Y2128887D01*
X31157197Y2157574D01*
X31207058Y2167337D01*
X31256934Y2157586D01*
G37*
G36*
X33682834Y1656345D02*
G01*
X33668455Y1594636D01*
X33645368Y1545067D01*
X33614005Y1506382D01*
X33578156Y1483506D01*
X33536311Y1475641D01*
X33497169Y1482986D01*
X33462693Y1504578D01*
X33431613Y1541403D01*
X33408547Y1588893D01*
X33393102Y1651497D01*
X33386413Y1733561D01*
X33687683Y1733561D01*
X33682834Y1656345D01*
G37*
G36*
X36140645Y2191506D02*
G01*
X36167058Y2176761D01*
X36189722Y2152407D01*
X36207419Y2120663D01*
X36217765Y2086033D01*
X36221266Y2047352D01*
X36216986Y2009019D01*
X36204245Y1975564D01*
X36181836Y1945503D01*
X36148298Y1923764D01*
X36072073Y1895036D01*
X35949424Y1850798D01*
X35949424Y1908409D01*
X35951910Y2004067D01*
X35957310Y2049459D01*
X35974759Y2101068D01*
X36005395Y2145171D01*
X36039738Y2174295D01*
X36074171Y2191106D01*
X36109388Y2196646D01*
X36140645Y2191506D01*
G37*
G36*
X36986431Y2129135D02*
G01*
X37024542Y2102830D01*
X37058976Y2057336D01*
X37083243Y1999387D01*
X37099663Y1917157D01*
X37105908Y1802712D01*
X37099764Y1693997D01*
X37083436Y1614191D01*
X37058976Y1556424D01*
X37024453Y1511191D01*
X36985203Y1484701D01*
X36939532Y1475641D01*
X36892431Y1484884D01*
X36851888Y1511905D01*
X36816178Y1557981D01*
X36790736Y1616992D01*
X36773770Y1698616D01*
X36767387Y1809948D01*
X36773903Y1916010D01*
X36791463Y1995743D01*
X36818293Y2055229D01*
X36855344Y2101749D01*
X36896425Y2128839D01*
X36943123Y2138027D01*
X36986431Y2129135D01*
G37*
G36*
X37927677Y1656345D02*
G01*
X37913298Y1594636D01*
X37890211Y1545067D01*
X37858847Y1506382D01*
X37822999Y1483506D01*
X37781154Y1475641D01*
X37742012Y1482986D01*
X37707536Y1504578D01*
X37676456Y1541403D01*
X37653390Y1588893D01*
X37637945Y1651497D01*
X37631256Y1733561D01*
X37932526Y1733561D01*
X37927677Y1656345D01*
G37*
G36*
X39307609Y675896D02*
G01*
X12547037Y675896D01*
X12547037Y2102856D01*
X12713704Y2102856D01*
X13113902Y2102856D01*
X13072677Y2023172D01*
X12951823Y1857759D01*
X12864943Y1738638D01*
X12819877Y1666700D01*
X12770710Y1565606D01*
X12739157Y1475274D01*
X12720110Y1381760D01*
X12713704Y1282750D01*
X12719421Y1196346D01*
X12736048Y1119184D01*
X12763500Y1049353D01*
X12802630Y985537D01*
X12849263Y934959D01*
X12904388Y897813D01*
X12969662Y874346D01*
X13047224Y866011D01*
X13458065Y866011D01*
X13683296Y866011D01*
X13940777Y1979758D01*
X14206913Y866011D01*
X14437146Y866011D01*
X14064807Y2358487D01*
X14862797Y2358487D01*
X14879979Y2133814D01*
X14930450Y2155771D01*
X14961019Y2161475D01*
X14979943Y2157715D01*
X14995128Y2147003D01*
X15006685Y2130420D01*
X15013080Y2110275D01*
X15016991Y1953563D01*
X15016991Y1510812D01*
X14879274Y1510812D01*
X14879274Y1282200D01*
X15016991Y1282200D01*
X15016991Y901182D01*
X15219269Y1071175D01*
X15219269Y1282200D01*
X15311786Y1282200D01*
X15311786Y1510812D01*
X15219269Y1510812D01*
X15219269Y1989375D01*
X15217195Y2130635D01*
X15212794Y2194081D01*
X15201136Y2260535D01*
X15184520Y2307196D01*
X15159414Y2343932D01*
X15123978Y2372500D01*
X15437577Y2372500D01*
X15437577Y1282200D01*
X15639150Y1282200D01*
X15639150Y1742995D01*
X15644209Y1956205D01*
X15654217Y2037644D01*
X15675365Y2092257D01*
X15710188Y2138485D01*
X15753518Y2168820D01*
X15802704Y2179060D01*
X15845006Y2171050D01*
X15877333Y2148744D01*
X15902024Y2113199D01*
X15917853Y2066403D01*
X15925129Y1992952D01*
X15928944Y1784119D01*
X15928944Y1282200D01*
X16130518Y1282200D01*
X16130518Y1824236D01*
X16284263Y1824236D01*
X16291540Y1702875D01*
X16312524Y1595843D01*
X16346729Y1500500D01*
X16394731Y1414916D01*
X16453429Y1344450D01*
X16519185Y1294324D01*
X16593403Y1263572D01*
X16678049Y1252891D01*
X16751371Y1261070D01*
X16818554Y1284975D01*
X16880713Y1324332D01*
X16936496Y1378943D01*
X16982993Y1447435D01*
X17020930Y1531328D01*
X17048666Y1623740D01*
X17064999Y1716852D01*
X17070426Y1811780D01*
X17064452Y1936506D01*
X17047593Y2042662D01*
X17020930Y2133265D01*
X16982838Y2214193D01*
X16935021Y2280513D01*
X16876417Y2333483D01*
X16811659Y2371582D01*
X16808970Y2372500D01*
X17143131Y2372500D01*
X17422154Y1680713D01*
X17161788Y1282200D01*
X17409972Y1282200D01*
X17645975Y1666150D01*
X17645975Y866011D01*
X17847484Y866011D01*
X17847484Y2372500D01*
X17994818Y2372500D01*
X18017654Y2294541D01*
X18031042Y2225588D01*
X18037846Y2147520D01*
X18040723Y2012731D01*
X18040070Y1908409D01*
X18038607Y1674577D01*
X18042577Y1547099D01*
X18052403Y1464965D01*
X18065535Y1415282D01*
X18086689Y1372700D01*
X18117033Y1333903D01*
X18158436Y1298778D01*
X18203885Y1275499D01*
X18268904Y1259171D01*
X18359240Y1252891D01*
X18435344Y1258753D01*
X18496336Y1274776D01*
X18544830Y1299077D01*
X18583061Y1330469D01*
X18626870Y1389019D01*
X18662319Y1467240D01*
X18689170Y1569430D01*
X18506253Y1616325D01*
X18483302Y1546633D01*
X18457527Y1506873D01*
X18423486Y1484219D01*
X18373602Y1475641D01*
X18320579Y1480860D01*
X18286329Y1493907D01*
X18265314Y1512002D01*
X18250296Y1539178D01*
X18240357Y1578331D01*
X18236591Y1633727D01*
X18236591Y1663219D01*
X18302342Y1693603D01*
X18432394Y1734294D01*
X18530450Y1768007D01*
X18592678Y1801797D01*
X18627281Y1831600D01*
X18655882Y1868490D01*
X18677240Y1909416D01*
X18820731Y1909416D01*
X18823842Y1770450D01*
X18827706Y1733561D01*
X18835960Y1654758D01*
X18855690Y1558824D01*
X18882091Y1479573D01*
X18914722Y1414458D01*
X18967560Y1344569D01*
X19028667Y1294640D01*
X19099681Y1263739D01*
X19182974Y1252891D01*
X19256518Y1262893D01*
X19321700Y1291897D01*
X19340341Y1307113D01*
X19559962Y1307113D01*
X19603750Y1276627D01*
X19647771Y1258797D01*
X19692678Y1252891D01*
X19739090Y1262302D01*
X19779808Y1290077D01*
X19816776Y1339015D01*
X19866234Y1436898D01*
X19866234Y1282200D01*
X20053446Y1282200D01*
X20053446Y1935428D01*
X20222578Y1935428D01*
X20223496Y1922330D01*
X20228504Y1850869D01*
X20245731Y1775805D01*
X20274254Y1708190D01*
X20312562Y1651228D01*
X20361163Y1605617D01*
X20421972Y1571353D01*
X20379455Y1536786D01*
X20343698Y1492873D01*
X20314004Y1438913D01*
X20291854Y1377995D01*
X20278650Y1313690D01*
X20277014Y1288429D01*
X20274190Y1244831D01*
X20277880Y1181074D01*
X20288677Y1122744D01*
X20306503Y1068793D01*
X20343210Y997410D01*
X20387158Y943039D01*
X20438403Y904110D01*
X20496921Y880940D01*
X20566187Y870415D01*
X20683043Y866011D01*
X21103373Y866011D01*
X21103373Y1118069D01*
X21649622Y1118069D01*
X21649622Y866011D01*
X22485280Y866011D01*
X22485280Y1118069D01*
X22173239Y1118069D01*
X22173239Y1633635D01*
X22589850Y1633635D01*
X22590270Y1619805D01*
X22594137Y1492638D01*
X22606026Y1375089D01*
X22624279Y1277621D01*
X22651312Y1184652D01*
X22684789Y1103736D01*
X22724681Y1033531D01*
X22771705Y973692D01*
X22824287Y927660D01*
X22883234Y894770D01*
X22959920Y874375D01*
X23083333Y866011D01*
X23471350Y866011D01*
X23471350Y1329278D01*
X23644778Y1329278D01*
X23652147Y1212331D01*
X23672829Y1115966D01*
X23705750Y1036095D01*
X23750408Y968327D01*
X23800537Y919772D01*
X23857122Y888634D01*
X23932520Y873373D01*
X24109602Y866011D01*
X24450303Y866011D01*
X24450303Y1924529D01*
X24619883Y1924529D01*
X24626157Y1836287D01*
X24644261Y1759450D01*
X24674060Y1691613D01*
X24713862Y1635286D01*
X24761530Y1594074D01*
X24818572Y1567415D01*
X24760616Y1513152D01*
X24718639Y1455122D01*
X24689968Y1393052D01*
X24672972Y1325829D01*
X24667199Y1251609D01*
X24671737Y1184227D01*
X24685229Y1120790D01*
X24708007Y1060125D01*
X24741058Y1001382D01*
X24788819Y942901D01*
X24843450Y901003D01*
X24906298Y875084D01*
X24979241Y866011D01*
X25036369Y871451D01*
X25088365Y887256D01*
X25135999Y912997D01*
X25179968Y948946D01*
X25215991Y991814D01*
X25244993Y1041865D01*
X25267599Y1098761D01*
X25287289Y1170820D01*
X25303464Y1260951D01*
X25117663Y1305648D01*
X25108557Y1242696D01*
X25093553Y1194186D01*
X25073232Y1157179D01*
X25047056Y1128860D01*
X25017960Y1112080D01*
X24984947Y1106346D01*
X24951362Y1111673D01*
X24923859Y1126735D01*
X24901086Y1151225D01*
X24883858Y1183623D01*
X24873242Y1223011D01*
X24869478Y1271393D01*
X24872647Y1307113D01*
X25763096Y1307113D01*
X25806884Y1276627D01*
X25850905Y1258797D01*
X25895811Y1252891D01*
X25942223Y1262302D01*
X25982942Y1290077D01*
X26019910Y1339015D01*
X26069367Y1436898D01*
X26069367Y1282200D01*
X26256579Y1282200D01*
X26256579Y1909416D01*
X26411799Y1909416D01*
X26414910Y1770450D01*
X26418774Y1733561D01*
X26427028Y1654758D01*
X26446758Y1558824D01*
X26473158Y1479573D01*
X26505789Y1414458D01*
X26558627Y1344569D01*
X26619734Y1294640D01*
X26690749Y1263739D01*
X26774041Y1252891D01*
X26847586Y1262893D01*
X26912768Y1291897D01*
X26971297Y1339672D01*
X27024341Y1407680D01*
X27066055Y1488518D01*
X27096845Y1584650D01*
X27116377Y1699071D01*
X27123333Y1835594D01*
X27118172Y1949970D01*
X27103457Y2049877D01*
X27079974Y2137462D01*
X27047999Y2214506D01*
X27006853Y2280451D01*
X26958222Y2331830D01*
X26917819Y2358487D01*
X27188024Y2358487D01*
X27205206Y2133814D01*
X27255677Y2155771D01*
X27286246Y2161475D01*
X27305170Y2157715D01*
X27320355Y2147003D01*
X27331912Y2130420D01*
X27338306Y2110275D01*
X27342217Y1953563D01*
X27342217Y1510812D01*
X27204501Y1510812D01*
X27204501Y1282200D01*
X27342217Y1282200D01*
X27342217Y901182D01*
X27544496Y1071175D01*
X27544496Y1282200D01*
X27637012Y1282200D01*
X27637012Y1307113D01*
X27640346Y1307113D01*
X27684134Y1276627D01*
X27728155Y1258797D01*
X27773062Y1252891D01*
X27819474Y1262302D01*
X27860192Y1290077D01*
X27897160Y1339015D01*
X27946618Y1436898D01*
X27946618Y1282200D01*
X28133830Y1282200D01*
X28133830Y1909416D01*
X28289049Y1909416D01*
X28292161Y1770450D01*
X28296025Y1733561D01*
X28304278Y1654758D01*
X28324008Y1558824D01*
X28350409Y1479573D01*
X28383040Y1414458D01*
X28435878Y1344569D01*
X28496985Y1294640D01*
X28568000Y1263739D01*
X28651292Y1252891D01*
X28724837Y1262893D01*
X28768226Y1282200D01*
X29064697Y1282200D01*
X29271977Y1282200D01*
X29416874Y1838616D01*
X29438416Y1931032D01*
X29459189Y2024454D01*
X29500799Y1838616D01*
X29644286Y1282200D01*
X29855861Y1282200D01*
X29740461Y1692070D01*
X29962995Y1692070D01*
X29966226Y1572634D01*
X29974151Y1497256D01*
X29989649Y1432528D01*
X30013581Y1375623D01*
X30047334Y1328138D01*
X30097185Y1287421D01*
X30154499Y1261740D01*
X30219065Y1252891D01*
X30277461Y1260434D01*
X30330842Y1282547D01*
X30380285Y1319274D01*
X30426574Y1371731D01*
X30470135Y1442027D01*
X30470135Y1282200D01*
X30657347Y1282200D01*
X30657347Y1824236D01*
X30813977Y1824236D01*
X30821254Y1702875D01*
X30842238Y1595843D01*
X30876443Y1500500D01*
X30924445Y1414916D01*
X30983143Y1344450D01*
X31048899Y1294324D01*
X31123117Y1263572D01*
X31207763Y1252891D01*
X31281085Y1261070D01*
X31348268Y1284975D01*
X31410427Y1324332D01*
X31466210Y1378943D01*
X31512707Y1447435D01*
X31550644Y1531328D01*
X31578380Y1623740D01*
X31594713Y1716852D01*
X31600140Y1811780D01*
X31595464Y1909416D01*
X31734073Y1909416D01*
X31939942Y1815627D01*
X31963268Y1923373D01*
X31992726Y2002993D01*
X32027458Y2060267D01*
X32070689Y2103433D01*
X32118716Y2129199D01*
X32173060Y2138027D01*
X32228706Y2130174D01*
X32277467Y2107474D01*
X32320774Y2070122D01*
X32359567Y2016852D01*
X32387959Y1954704D01*
X32410431Y1870309D01*
X32425626Y1757758D01*
X32431310Y1610005D01*
X32425669Y1471699D01*
X32410459Y1364587D01*
X32387697Y1282614D01*
X32358541Y1220743D01*
X32319282Y1168037D01*
X32275293Y1130939D01*
X32225605Y1108323D01*
X32168764Y1100484D01*
X32114017Y1108351D01*
X32066590Y1131000D01*
X32024957Y1168170D01*
X31990402Y1217976D01*
X31964521Y1278736D01*
X31947123Y1352542D01*
X31736958Y1282200D01*
X31766510Y1166045D01*
X31802558Y1075248D01*
X31844541Y1005504D01*
X31907954Y935438D01*
X31980130Y884898D01*
X32062739Y853537D01*
X32157993Y842563D01*
X32245840Y851464D01*
X32290213Y866011D01*
X34862311Y866011D01*
X35063821Y866011D01*
X38306758Y866011D01*
X38504036Y866011D01*
X38504036Y1874520D01*
X38934368Y866011D01*
X39140942Y866011D01*
X39140942Y2372500D01*
X38943728Y2372500D01*
X38943728Y1379012D01*
X38519808Y2372500D01*
X38306758Y2372500D01*
X38306758Y866011D01*
X35063821Y866011D01*
X35063821Y1129793D01*
X34862311Y1129793D01*
X34862311Y866011D01*
X32290213Y866011D01*
X32324066Y877109D01*
X32394176Y918593D01*
X32457380Y975941D01*
X32514530Y1050109D01*
X32561312Y1135361D01*
X32598585Y1233970D01*
X32626312Y1347937D01*
X32643866Y1479800D01*
X32650066Y1632536D01*
X32644009Y1776084D01*
X32626766Y1901372D01*
X32624754Y1909416D01*
X33186314Y1909416D01*
X33189425Y1770450D01*
X33193289Y1733561D01*
X33201543Y1654758D01*
X33221273Y1558824D01*
X33247673Y1479573D01*
X33280304Y1414458D01*
X33333142Y1344569D01*
X33394249Y1294640D01*
X33465264Y1263739D01*
X33548556Y1252891D01*
X33622101Y1262893D01*
X33665490Y1282200D01*
X33961962Y1282200D01*
X34169241Y1282200D01*
X34314139Y1838616D01*
X34335681Y1931032D01*
X34356454Y2024454D01*
X34398063Y1838616D01*
X34541550Y1282200D01*
X34753125Y1282200D01*
X34862311Y1282200D01*
X35063821Y1282200D01*
X35063821Y2358487D01*
X35187368Y2358487D01*
X35204550Y2133814D01*
X35255021Y2155771D01*
X35285590Y2161475D01*
X35304514Y2157715D01*
X35319699Y2147003D01*
X35331256Y2130420D01*
X35337650Y2110275D01*
X35341561Y1953563D01*
X35341561Y1510812D01*
X35203845Y1510812D01*
X35203845Y1282200D01*
X35341561Y1282200D01*
X35341561Y901182D01*
X35543840Y1071175D01*
X35543840Y1282200D01*
X35636356Y1282200D01*
X35636356Y1510812D01*
X35543840Y1510812D01*
X35543840Y1989375D01*
X35541766Y2130635D01*
X35537365Y2194081D01*
X35525706Y2260535D01*
X35509091Y2307196D01*
X35483984Y2343932D01*
X35448549Y2372500D01*
X35707651Y2372500D01*
X35730488Y2294541D01*
X35743875Y2225588D01*
X35750680Y2147520D01*
X35753556Y2012731D01*
X35752904Y1908409D01*
X35751441Y1674577D01*
X35755410Y1547099D01*
X35765236Y1464965D01*
X35778368Y1415282D01*
X35799522Y1372700D01*
X35829866Y1333903D01*
X35871269Y1298778D01*
X35916718Y1275499D01*
X35981737Y1259171D01*
X36072073Y1252891D01*
X36148178Y1258753D01*
X36209169Y1274776D01*
X36257663Y1299077D01*
X36295894Y1330469D01*
X36339703Y1389019D01*
X36375153Y1467240D01*
X36402003Y1569430D01*
X36219086Y1616325D01*
X36196135Y1546633D01*
X36170360Y1506873D01*
X36136320Y1484219D01*
X36086435Y1475641D01*
X36033412Y1480860D01*
X35999162Y1493907D01*
X35978147Y1512002D01*
X35963129Y1539178D01*
X35953190Y1578331D01*
X35949424Y1633727D01*
X35949424Y1663219D01*
X36015175Y1693603D01*
X36145227Y1734294D01*
X36243283Y1768007D01*
X36305512Y1801797D01*
X36340114Y1831600D01*
X36368716Y1868490D01*
X36391937Y1912988D01*
X36408909Y1963019D01*
X36419231Y2017764D01*
X36422776Y2078310D01*
X36418369Y2146629D01*
X36405614Y2207079D01*
X36384676Y2261217D01*
X36383898Y2262500D01*
X36569404Y2262500D01*
X36569404Y1809948D01*
X36569404Y1282200D01*
X36758026Y1282200D01*
X36758026Y1432135D01*
X36808758Y1351497D01*
X36863704Y1296563D01*
X36923893Y1263987D01*
X36991144Y1252891D01*
X37057514Y1262169D01*
X37116919Y1289210D01*
X37170861Y1334033D01*
X37220351Y1398246D01*
X37258647Y1473946D01*
X37287347Y1566770D01*
X37305823Y1680281D01*
X37312482Y1818924D01*
X37308529Y1909416D01*
X37431157Y1909416D01*
X37434268Y1770450D01*
X37438132Y1733561D01*
X37446386Y1654758D01*
X37466116Y1558824D01*
X37492516Y1479573D01*
X37525147Y1414458D01*
X37577985Y1344569D01*
X37639092Y1294640D01*
X37710107Y1263739D01*
X37793399Y1252891D01*
X37866944Y1262893D01*
X37932126Y1291897D01*
X37990655Y1339672D01*
X38043699Y1407680D01*
X38085413Y1488518D01*
X38116203Y1584650D01*
X38135735Y1699071D01*
X38142691Y1835594D01*
X38137530Y1949970D01*
X38122815Y2049877D01*
X38099332Y2137462D01*
X38067357Y2214506D01*
X38026211Y2280451D01*
X37977580Y2331830D01*
X37920394Y2369560D01*
X37853011Y2393368D01*
X37773332Y2401810D01*
X37691451Y2391756D01*
X37622577Y2363341D01*
X37564257Y2317912D01*
X37514505Y2255055D01*
X37473774Y2174623D01*
X37441928Y2073547D01*
X37642732Y2026653D01*
X37664310Y2098527D01*
X37691523Y2142973D01*
X37726820Y2169702D01*
X37771152Y2179060D01*
X37815383Y2171017D01*
X37853606Y2147596D01*
X37887326Y2108077D01*
X37912564Y2056960D01*
X37929122Y1992000D01*
X37936116Y1909416D01*
X37431157Y1909416D01*
X37308529Y1909416D01*
X37307685Y1928726D01*
X37293975Y2025277D01*
X37272062Y2110481D01*
X37242213Y2185929D01*
X37202713Y2254647D01*
X37159328Y2306227D01*
X37111589Y2342663D01*
X37058584Y2364848D01*
X36999030Y2372500D01*
X36933701Y2361459D01*
X36874969Y2328944D01*
X36821055Y2273866D01*
X36770977Y2192616D01*
X36770977Y2353450D01*
X36773880Y2443358D01*
X36780274Y2487356D01*
X36797688Y2532155D01*
X36820473Y2560995D01*
X36847955Y2578590D01*
X36886338Y2590660D01*
X36938827Y2595250D01*
X36995334Y2585854D01*
X37029163Y2562369D01*
X37045311Y2532568D01*
X37055706Y2478013D01*
X37285939Y2442842D01*
X37286644Y2478197D01*
X37281493Y2549325D01*
X37266488Y2612570D01*
X37241546Y2669696D01*
X37205604Y2721829D01*
X37164179Y2759713D01*
X37107468Y2789856D01*
X37031337Y2810322D01*
X36930877Y2817999D01*
X36833033Y2809497D01*
X36761296Y2787133D01*
X36699326Y2749044D01*
X36654098Y2701770D01*
X36619353Y2639275D01*
X36591651Y2551561D01*
X36580435Y2486419D01*
X36572473Y2392706D01*
X36569404Y2262500D01*
X36383898Y2262500D01*
X36355007Y2310127D01*
X36319434Y2349003D01*
X36277552Y2377487D01*
X36228134Y2395443D01*
X36169590Y2401810D01*
X36104532Y2392562D01*
X36044056Y2365173D01*
X35987865Y2320225D01*
X35933588Y2255264D01*
X35926407Y2288603D01*
X35907045Y2372500D01*
X35707651Y2372500D01*
X35448549Y2372500D01*
X35444913Y2375431D01*
X35399279Y2394989D01*
X35346626Y2401810D01*
X35287917Y2396737D01*
X35235100Y2382101D01*
X35187368Y2358487D01*
X35063821Y2358487D01*
X35063821Y2372500D01*
X34862311Y2372500D01*
X34862311Y1282200D01*
X34753125Y1282200D01*
X34446149Y2372500D01*
X34264643Y2372500D01*
X33961962Y1282200D01*
X33665490Y1282200D01*
X33687283Y1291897D01*
X33745812Y1339672D01*
X33798856Y1407680D01*
X33840570Y1488518D01*
X33871360Y1584650D01*
X33890892Y1699071D01*
X33897848Y1835594D01*
X33892687Y1949970D01*
X33877972Y2049877D01*
X33854489Y2137462D01*
X33822514Y2214506D01*
X33781368Y2280451D01*
X33732737Y2331830D01*
X33675551Y2369560D01*
X33608168Y2393368D01*
X33528489Y2401810D01*
X33446608Y2391756D01*
X33377734Y2363341D01*
X33319414Y2317912D01*
X33269662Y2255055D01*
X33228931Y2174623D01*
X33197085Y2073547D01*
X33397889Y2026653D01*
X33419467Y2098527D01*
X33446680Y2142973D01*
X33481977Y2169702D01*
X33526309Y2179060D01*
X33570540Y2171017D01*
X33608763Y2147596D01*
X33642483Y2108077D01*
X33667721Y2056960D01*
X33684279Y1992000D01*
X33691273Y1909416D01*
X33186314Y1909416D01*
X32624754Y1909416D01*
X32599341Y2010993D01*
X32562199Y2107141D01*
X32515235Y2191517D01*
X32458270Y2265138D01*
X32396239Y2321718D01*
X32328410Y2362371D01*
X32253730Y2387334D01*
X32170880Y2395948D01*
X32086471Y2387769D01*
X32012831Y2364437D01*
X31948303Y2327129D01*
X31891536Y2276147D01*
X31842412Y2211487D01*
X31799726Y2130566D01*
X31763447Y2030939D01*
X31734073Y1909416D01*
X31595464Y1909416D01*
X31594166Y1936506D01*
X31577307Y2042662D01*
X31550644Y2133265D01*
X31512551Y2214193D01*
X31464735Y2280513D01*
X31406131Y2333483D01*
X31341373Y2371582D01*
X31275034Y2394229D01*
X31206353Y2401810D01*
X31123686Y2391123D01*
X31050463Y2360199D01*
X30984846Y2309489D01*
X30925535Y2237770D01*
X30877037Y2151092D01*
X30842495Y2054682D01*
X30821317Y1946609D01*
X30814037Y1825244D01*
X30813977Y1824236D01*
X30657347Y1824236D01*
X30657347Y2372500D01*
X30455773Y2372500D01*
X30455773Y1877176D01*
X30450960Y1708246D01*
X30440386Y1625942D01*
X30418436Y1564769D01*
X30383325Y1516857D01*
X30339230Y1486029D01*
X30289398Y1475641D01*
X30250820Y1483120D01*
X30219450Y1504492D01*
X30194678Y1538690D01*
X30177520Y1585367D01*
X30168809Y1652709D01*
X30164569Y1814436D01*
X30164569Y2372500D01*
X29962995Y2372500D01*
X29962995Y1692070D01*
X29740461Y1692070D01*
X29548884Y2372500D01*
X29367378Y2372500D01*
X29064697Y1282200D01*
X28768226Y1282200D01*
X28790018Y1291897D01*
X28848548Y1339672D01*
X28901592Y1407680D01*
X28943306Y1488518D01*
X28974096Y1584650D01*
X28993627Y1699071D01*
X29000584Y1835594D01*
X28995423Y1949970D01*
X28980708Y2049877D01*
X28957225Y2137462D01*
X28925250Y2214506D01*
X28884104Y2280451D01*
X28835473Y2331830D01*
X28778287Y2369560D01*
X28710904Y2393368D01*
X28631224Y2401810D01*
X28549344Y2391756D01*
X28480469Y2363341D01*
X28422149Y2317912D01*
X28372397Y2255055D01*
X28331667Y2174623D01*
X28299820Y2073547D01*
X28500625Y2026653D01*
X28522202Y2098527D01*
X28549415Y2142973D01*
X28584712Y2169702D01*
X28629044Y2179060D01*
X28673276Y2171017D01*
X28711498Y2147596D01*
X28745218Y2108077D01*
X28770457Y2056960D01*
X28787015Y1992000D01*
X28794009Y1909416D01*
X28289049Y1909416D01*
X28133830Y1909416D01*
X28133830Y2372500D01*
X27932256Y2372500D01*
X27932256Y2033614D01*
X27926804Y1777317D01*
X27915394Y1665784D01*
X27893762Y1587316D01*
X27869168Y1544426D01*
X27837046Y1519464D01*
X27797425Y1510812D01*
X27753853Y1521608D01*
X27702729Y1557890D01*
X27640346Y1307113D01*
X27637012Y1307113D01*
X27637012Y1510812D01*
X27544496Y1510812D01*
X27544496Y1989375D01*
X27542422Y2130635D01*
X27538021Y2194081D01*
X27526362Y2260535D01*
X27509747Y2307196D01*
X27484640Y2343932D01*
X27445569Y2375431D01*
X27399935Y2394989D01*
X27347282Y2401810D01*
X27288573Y2396737D01*
X27235756Y2382101D01*
X27188024Y2358487D01*
X26917819Y2358487D01*
X26901036Y2369560D01*
X26833653Y2393368D01*
X26753974Y2401810D01*
X26672093Y2391756D01*
X26603219Y2363341D01*
X26544899Y2317912D01*
X26495147Y2255055D01*
X26454416Y2174623D01*
X26422570Y2073547D01*
X26623374Y2026653D01*
X26644952Y2098527D01*
X26672165Y2142973D01*
X26707462Y2169702D01*
X26751794Y2179060D01*
X26796025Y2171017D01*
X26834248Y2147596D01*
X26867968Y2108077D01*
X26893206Y2056960D01*
X26909764Y1992000D01*
X26916758Y1909416D01*
X26411799Y1909416D01*
X26256579Y1909416D01*
X26256579Y2372500D01*
X26055006Y2372500D01*
X26055006Y2033614D01*
X26049553Y1777317D01*
X26038144Y1665784D01*
X26016511Y1587316D01*
X25991918Y1544426D01*
X25959795Y1519464D01*
X25920174Y1510812D01*
X25876602Y1521608D01*
X25825478Y1557890D01*
X25763096Y1307113D01*
X24872647Y1307113D01*
X24874473Y1327692D01*
X24888774Y1374308D01*
X24912563Y1413542D01*
X24943403Y1441556D01*
X24984007Y1458954D01*
X25037328Y1463917D01*
X25059576Y1696467D01*
X25007313Y1679814D01*
X24967059Y1674943D01*
X24929759Y1682042D01*
X24896937Y1702923D01*
X24867363Y1738599D01*
X24845271Y1784246D01*
X24831421Y1840737D01*
X24826458Y1911065D01*
X24831639Y1985423D01*
X24846102Y2045295D01*
X24869158Y2093789D01*
X24900116Y2131696D01*
X24934697Y2153908D01*
X24974240Y2161475D01*
X25011268Y2154872D01*
X25043883Y2135524D01*
X25073232Y2102765D01*
X25096019Y2060156D01*
X25112971Y2004600D01*
X25123433Y1932863D01*
X25318531Y1968126D01*
X25305656Y2062481D01*
X25283190Y2145080D01*
X25251315Y2217789D01*
X25209538Y2281917D01*
X25160317Y2333669D01*
X25105242Y2370869D01*
X25043208Y2393826D01*
X24972766Y2401810D01*
X24899009Y2392690D01*
X24833425Y2366294D01*
X24774480Y2323088D01*
X24721055Y2262225D01*
X24676306Y2187783D01*
X24645084Y2107699D01*
X24626301Y2020605D01*
X24619883Y1924529D01*
X24450303Y1924529D01*
X24450303Y2372500D01*
X24238022Y2372500D01*
X24238022Y1803903D01*
X24099600Y1803903D01*
X23963926Y1797620D01*
X23879370Y1782288D01*
X23824819Y1756376D01*
X23769222Y1710938D01*
X23735819Y1671307D01*
X23706085Y1622209D01*
X23679912Y1562469D01*
X23661052Y1497585D01*
X23649052Y1420645D01*
X23644997Y1333949D01*
X23644778Y1329278D01*
X23471350Y1329278D01*
X23471350Y2372500D01*
X23071857Y2372500D01*
X22960283Y2363515D01*
X22883940Y2340627D01*
X22823229Y2306493D01*
X22774064Y2266260D01*
X22734747Y2220368D01*
X22690846Y2147843D01*
X22653234Y2059925D01*
X22622099Y1954296D01*
X22604839Y1863395D01*
X22593781Y1757273D01*
X22589850Y1633635D01*
X22173239Y1633635D01*
X22173239Y2372500D01*
X21960958Y2372500D01*
X21960958Y1118069D01*
X21649622Y1118069D01*
X21103373Y1118069D01*
X21103373Y2372500D01*
X20745490Y2372500D01*
X20560669Y2368078D01*
X20489419Y2362242D01*
X20434289Y2347721D01*
X20387235Y2323711D01*
X20347023Y2290801D01*
X20311528Y2248125D01*
X20281236Y2196679D01*
X20255917Y2135463D01*
X20237245Y2069376D01*
X20226235Y2002936D01*
X20222578Y1935428D01*
X20053446Y1935428D01*
X20053446Y2372500D01*
X19851872Y2372500D01*
X19851872Y2033614D01*
X19846420Y1777317D01*
X19835010Y1665784D01*
X19813378Y1587316D01*
X19788784Y1544426D01*
X19756662Y1519464D01*
X19717041Y1510812D01*
X19673469Y1521608D01*
X19622345Y1557890D01*
X19559962Y1307113D01*
X19340341Y1307113D01*
X19380229Y1339672D01*
X19433274Y1407680D01*
X19474987Y1488518D01*
X19505778Y1584650D01*
X19525309Y1699071D01*
X19532265Y1835594D01*
X19527105Y1949970D01*
X19512389Y2049877D01*
X19488907Y2137462D01*
X19456932Y2214506D01*
X19415786Y2280451D01*
X19367155Y2331830D01*
X19309968Y2369560D01*
X19242586Y2393368D01*
X19162906Y2401810D01*
X19081026Y2391756D01*
X19012151Y2363341D01*
X18953831Y2317912D01*
X18904079Y2255055D01*
X18863349Y2174623D01*
X18831502Y2073547D01*
X19032306Y2026653D01*
X19053884Y2098527D01*
X19081097Y2142973D01*
X19116394Y2169702D01*
X19160726Y2179060D01*
X19204958Y2171017D01*
X19243180Y2147596D01*
X19276900Y2108077D01*
X19302139Y2056960D01*
X19318697Y1992000D01*
X19325691Y1909416D01*
X18820731Y1909416D01*
X18677240Y1909416D01*
X18679104Y1912988D01*
X18696075Y1963019D01*
X18706397Y2017764D01*
X18709942Y2078310D01*
X18705536Y2146629D01*
X18692781Y2207079D01*
X18671843Y2261217D01*
X18642174Y2310127D01*
X18606601Y2349003D01*
X18564718Y2377487D01*
X18515301Y2395443D01*
X18456757Y2401810D01*
X18391699Y2392562D01*
X18331222Y2365173D01*
X18275031Y2320225D01*
X18220754Y2255264D01*
X18213574Y2288603D01*
X18194211Y2372500D01*
X17994818Y2372500D01*
X17847484Y2372500D01*
X17645975Y2372500D01*
X17645975Y2023447D01*
X17551984Y1880748D01*
X17360476Y2372500D01*
X17143131Y2372500D01*
X16808970Y2372500D01*
X16745320Y2394229D01*
X16676639Y2401810D01*
X16593972Y2391123D01*
X16520749Y2360199D01*
X16455132Y2309489D01*
X16395821Y2237770D01*
X16347323Y2151092D01*
X16312781Y2054682D01*
X16291603Y1946609D01*
X16284323Y1825244D01*
X16284263Y1824236D01*
X16130518Y1824236D01*
X16130518Y1974995D01*
X16126946Y2078176D01*
X16117386Y2157389D01*
X16103270Y2217254D01*
X16081424Y2271202D01*
X16052289Y2316281D01*
X16015049Y2353358D01*
X15973237Y2379984D01*
X15927581Y2396229D01*
X15877269Y2401810D01*
X15828007Y2395988D01*
X15780533Y2378588D01*
X15734231Y2349236D01*
X15691558Y2309954D01*
X15655267Y2263529D01*
X15624789Y2209560D01*
X15624789Y2372500D01*
X15437577Y2372500D01*
X15123978Y2372500D01*
X15120342Y2375431D01*
X15074708Y2394989D01*
X15022056Y2401810D01*
X14963346Y2396737D01*
X14910529Y2382101D01*
X14862797Y2358487D01*
X14064807Y2358487D01*
X14061311Y2372500D01*
X13834669Y2372500D01*
X13458065Y866011D01*
X13047224Y866011D01*
X13117854Y873028D01*
X13180016Y893137D01*
X13235021Y925460D01*
X13283932Y969875D01*
X13324294Y1026300D01*
X13356798Y1099630D01*
X13381265Y1193355D01*
X13396516Y1312151D01*
X13195711Y1340819D01*
X13187333Y1258429D01*
X13172511Y1200403D01*
X13152691Y1160659D01*
X13125663Y1131051D01*
X13092760Y1112813D01*
X13052289Y1106346D01*
X13011182Y1112605D01*
X12978444Y1130058D01*
X12952207Y1158003D01*
X12932764Y1195480D01*
X12920453Y1243642D01*
X12915983Y1305648D01*
X12920315Y1361900D01*
X12933770Y1420088D01*
X12957593Y1481411D01*
X13003049Y1557493D01*
X13124673Y1726692D01*
X13235926Y1882154D01*
X13308276Y1999293D01*
X13351315Y2085912D01*
X13384698Y2178685D01*
X13407506Y2273910D01*
X13420174Y2372500D01*
X12713704Y2372500D01*
X12713704Y2102856D01*
X12547037Y2102856D01*
X12547037Y2984666D01*
X39307609Y2984666D01*
X39307609Y675896D01*
G37*
G36*
X9888914Y9910452D02*
G01*
X9914086Y9895878D01*
X9936461Y9870970D01*
X9952334Y9838980D01*
X9963000Y9793945D01*
X9967040Y9731630D01*
X9963238Y9669948D01*
X9953348Y9626644D01*
X9938903Y9596991D01*
X9918323Y9573987D01*
X9895052Y9560504D01*
X9868122Y9555897D01*
X9840028Y9561233D01*
X9814023Y9577393D01*
X9789182Y9606028D01*
X9770972Y9641816D01*
X9759263Y9687858D01*
X9754988Y9747017D01*
X9758848Y9801036D01*
X9769290Y9841921D01*
X9785323Y9872680D01*
X9807381Y9896659D01*
X9831928Y9910663D01*
X9859915Y9915423D01*
X9888914Y9910452D01*
G37*
G36*
X10687654Y11243713D02*
G01*
X10614967Y11243713D01*
X10524107Y11246779D01*
X10482148Y11253361D01*
X10440166Y11271822D01*
X10407312Y11300866D01*
X10381816Y11341212D01*
X10361394Y11398563D01*
X10349727Y11468100D01*
X10344981Y11578204D01*
X10349646Y11688956D01*
X10361394Y11762973D01*
X10374517Y11807081D01*
X10388730Y11838645D01*
X10403746Y11860365D01*
X10432451Y11885247D01*
X10469057Y11902314D01*
X10503804Y11909051D01*
X10566851Y11911961D01*
X10687654Y11911961D01*
X10687654Y11243713D01*
G37*
G36*
X11342762Y11310147D02*
G01*
X11232364Y11685304D01*
X11450962Y11685304D01*
X11342762Y11310147D01*
G37*
G36*
X11849547Y9284563D02*
G01*
X7173605Y9284563D01*
X7173605Y9395674D01*
X8785833Y9395674D01*
X8957438Y9395674D01*
X9153614Y10138172D01*
X9356384Y9395674D01*
X9531799Y9395674D01*
X9387597Y9901440D01*
X9582846Y9901440D01*
X9586845Y9787093D01*
X9591581Y9747017D01*
X9597807Y9694327D01*
X9614407Y9619751D01*
X9635665Y9560355D01*
X9661004Y9513582D01*
X9694598Y9470505D01*
X9730889Y9437852D01*
X9770269Y9414658D01*
X9813375Y9400529D01*
X9861039Y9395674D01*
X9915862Y9401736D01*
X9964108Y9419219D01*
X10007020Y9447760D01*
X10045491Y9487937D01*
X10076612Y9536645D01*
X10099056Y9592404D01*
X10112997Y9656568D01*
X10117884Y9730958D01*
X10113266Y9802372D01*
X10100067Y9864283D01*
X10078795Y9918361D01*
X10063633Y9942778D01*
X10161701Y9942778D01*
X10463341Y9942778D01*
X10463341Y10134264D01*
X10161701Y10134264D01*
X10161701Y9942778D01*
X10063633Y9942778D01*
X10049301Y9965859D01*
X10012620Y10006031D01*
X9973681Y10033849D01*
X9931848Y10050463D01*
X9886196Y10056107D01*
X9844251Y10050775D01*
X9806734Y10035217D01*
X9772652Y10009342D01*
X9741360Y9972087D01*
X9752192Y10089887D01*
X9767181Y10162202D01*
X9784004Y10203080D01*
X9808747Y10235251D01*
X9835335Y10253325D01*
X9864849Y10259317D01*
X9889094Y10256016D01*
X9908999Y10246684D01*
X9925519Y10231534D01*
X9938180Y10211173D01*
X9947822Y10183348D01*
X9953949Y10145988D01*
X10102595Y10166871D01*
X10090947Y10229369D01*
X10074425Y10280641D01*
X10053497Y10322465D01*
X10028247Y10356220D01*
X9998036Y10383201D01*
X9963251Y10402884D01*
X9923043Y10415205D01*
X9876328Y10419540D01*
X9825008Y10414463D01*
X9778950Y10399747D01*
X9737237Y10375713D01*
X9699162Y10342063D01*
X9664276Y10297907D01*
X9637769Y10249514D01*
X9615606Y10188418D01*
X9598351Y10112091D01*
X9586985Y10017554D01*
X9582846Y9901440D01*
X9387597Y9901440D01*
X9245449Y10400000D01*
X9072769Y10400000D01*
X8785833Y9395674D01*
X7173605Y9395674D01*
X7173605Y11243713D01*
X7284716Y11243713D01*
X7284716Y11075674D01*
X7921408Y11075674D01*
X7921408Y11243713D01*
X7683662Y11243713D01*
X7683662Y11789657D01*
X8000006Y11789657D01*
X8003856Y11727354D01*
X8014726Y11674674D01*
X8032001Y11629922D01*
X8055883Y11590070D01*
X8085190Y11556225D01*
X8120515Y11528012D01*
X8185376Y11494168D01*
X8295100Y11455288D01*
X8374993Y11427695D01*
X8420726Y11405374D01*
X8443746Y11387694D01*
X8461924Y11359383D01*
X8467780Y11326694D01*
X8464892Y11302307D01*
X8456490Y11281889D01*
X8442085Y11264413D01*
X8414038Y11245183D01*
X8377945Y11232669D01*
X8331687Y11228081D01*
X8286800Y11232489D01*
X8253556Y11244235D01*
X8229252Y11261848D01*
X8210153Y11287316D01*
X8195128Y11323266D01*
X8184702Y11372673D01*
X8022916Y11364857D01*
X8029666Y11297214D01*
X8045324Y11238753D01*
X8069596Y11187784D01*
X8102978Y11143146D01*
X8142456Y11109003D01*
X8191931Y11083072D01*
X8253582Y11066182D01*
X8330075Y11060042D01*
X8391191Y11064313D01*
X8443296Y11076326D01*
X8487710Y11095152D01*
X8528614Y11122756D01*
X8561629Y11156754D01*
X8587752Y11197429D01*
X8607157Y11243692D01*
X8618603Y11291473D01*
X8622434Y11341593D01*
X8617787Y11399431D01*
X8604169Y11451783D01*
X8581443Y11499917D01*
X8548673Y11544681D01*
X8510777Y11578171D01*
X8465057Y11604460D01*
X8780801Y11604460D01*
X8780801Y11075674D01*
X8942588Y11075674D01*
X8942588Y11636333D01*
X8944750Y11748047D01*
X8949720Y11808464D01*
X8957464Y11841002D01*
X8971278Y11869912D01*
X8991778Y11895902D01*
X9016724Y11914556D01*
X9050451Y11926896D01*
X9095581Y11931501D01*
X9139876Y11926805D01*
X9174857Y11913895D01*
X9202462Y11893826D01*
X9225290Y11866001D01*
X9241649Y11833037D01*
X9251897Y11793931D01*
X9255941Y11743915D01*
X9257905Y11624549D01*
X9257905Y11075674D01*
X9419643Y11075674D01*
X9419643Y11612642D01*
X9416717Y11712904D01*
X9590417Y11712904D01*
X9590417Y11075674D01*
X9751618Y11075674D01*
X9751618Y11587424D01*
X10177773Y11587424D01*
X10178093Y11578204D01*
X10181039Y11493425D01*
X10190097Y11415059D01*
X10204004Y11350081D01*
X10224601Y11288102D01*
X10250107Y11234158D01*
X10280501Y11187354D01*
X10316329Y11147462D01*
X10356391Y11116773D01*
X10401304Y11094847D01*
X10459731Y11081250D01*
X10553760Y11075674D01*
X10849392Y11075674D01*
X10849392Y12080000D01*
X10934535Y12080000D01*
X11060603Y11685304D01*
X11255323Y11075674D01*
X11426391Y11075674D01*
X11738436Y12080000D01*
X11566830Y12080000D01*
X11500690Y11853343D01*
X11180487Y11853343D01*
X11110536Y12080000D01*
X10934535Y12080000D01*
X10849392Y12080000D01*
X10545016Y12080000D01*
X10460007Y12074010D01*
X10401841Y12058751D01*
X10355585Y12035996D01*
X10318126Y12009173D01*
X10288170Y11978579D01*
X10254722Y11930229D01*
X10226065Y11871617D01*
X10202343Y11801197D01*
X10189193Y11740597D01*
X10180768Y11669849D01*
X10177773Y11587424D01*
X9751618Y11587424D01*
X9751618Y11727314D01*
X9755025Y11810148D01*
X9763267Y11860518D01*
X9774039Y11888758D01*
X9791311Y11909393D01*
X9815929Y11922641D01*
X9850536Y11927593D01*
X9883802Y11921339D01*
X9909787Y11903572D01*
X9930306Y11873554D01*
X9939244Y11848514D01*
X9946370Y11809552D01*
X9950529Y11751738D01*
X10102985Y11771278D01*
X10098117Y11852393D01*
X10085147Y11918533D01*
X10065151Y11972401D01*
X10038505Y12016131D01*
X10004600Y12051418D01*
X9963882Y12077300D01*
X9914966Y12093691D01*
X9856007Y12099540D01*
X9789760Y12092963D01*
X9736303Y12074757D01*
X9693146Y12046356D01*
X9656047Y12006760D01*
X9627865Y11960045D01*
X9607905Y11905184D01*
X9598976Y11859548D01*
X9592771Y11796851D01*
X9590417Y11712904D01*
X9416717Y11712904D01*
X9415012Y11771306D01*
X9403816Y11868120D01*
X9387372Y11924293D01*
X9358436Y11979739D01*
X9333473Y12012164D01*
X9302528Y12041013D01*
X9264744Y12066262D01*
X9224113Y12083251D01*
X9167525Y12095046D01*
X9090648Y12099540D01*
X9027339Y12095645D01*
X8976704Y12085027D01*
X8936579Y12069010D01*
X8898850Y12045552D01*
X8867699Y12018183D01*
X8842302Y11986944D01*
X8821585Y11950706D01*
X8805438Y11908885D01*
X8793941Y11860609D01*
X8784822Y11772467D01*
X8780801Y11604460D01*
X8465057Y11604460D01*
X8452165Y11611873D01*
X8366126Y11644882D01*
X8236628Y11689334D01*
X8199236Y11710654D01*
X8178401Y11732077D01*
X8165996Y11758918D01*
X8161743Y11791611D01*
X8165961Y11825726D01*
X8178723Y11857093D01*
X8201359Y11886865D01*
X8229645Y11908213D01*
X8267907Y11922327D01*
X8319133Y11927593D01*
X8367063Y11922034D01*
X8405477Y11906596D01*
X8436370Y11882225D01*
X8460884Y11848411D01*
X8480288Y11802096D01*
X8494011Y11740014D01*
X8651401Y11759554D01*
X8638535Y11841538D01*
X8617745Y11909642D01*
X8589634Y11966139D01*
X8554144Y12012712D01*
X8511997Y12048713D01*
X8460419Y12075791D01*
X8397475Y12093248D01*
X8320794Y12099540D01*
X8251502Y12094998D01*
X8193997Y12082395D01*
X8146454Y12062965D01*
X8102803Y12033802D01*
X8067052Y11996678D01*
X8038254Y11951101D01*
X8016859Y11899249D01*
X8004232Y11845733D01*
X8000006Y11789657D01*
X7683662Y11789657D01*
X7683662Y12080000D01*
X7521925Y12080000D01*
X7521925Y11243713D01*
X7284716Y11243713D01*
X7173605Y11243713D01*
X7173605Y12210651D01*
X11849547Y12210651D01*
X11849547Y9284563D01*
G37*
G36*
X8540341Y16060147D02*
G01*
X8429943Y16435304D01*
X8648540Y16435304D01*
X8540341Y16060147D01*
G37*
G36*
X11023050Y15698931D02*
G01*
X6402502Y15698931D01*
X6402502Y16830000D01*
X6513613Y16830000D01*
X6831715Y16216096D01*
X6530027Y15825674D01*
X6747549Y15825674D01*
X7074346Y16269280D01*
X7074346Y15825674D01*
X7236084Y15825674D01*
X7236084Y16521278D01*
X7376963Y16521278D01*
X7533816Y16458751D01*
X7551588Y16530582D01*
X7574032Y16583662D01*
X7600494Y16621845D01*
X7633432Y16650622D01*
X7670024Y16667800D01*
X7711429Y16673685D01*
X7753826Y16668449D01*
X7790977Y16653316D01*
X7823973Y16628415D01*
X7853530Y16592902D01*
X7875162Y16551469D01*
X7892283Y16495206D01*
X7903860Y16420172D01*
X7908191Y16321670D01*
X7903893Y16229466D01*
X7892304Y16158058D01*
X7874962Y16103409D01*
X7852748Y16062162D01*
X7822836Y16027025D01*
X7789321Y16002293D01*
X7751464Y15987216D01*
X7708156Y15981989D01*
X7666444Y15987234D01*
X7630309Y16002333D01*
X7598589Y16027113D01*
X7572261Y16060317D01*
X7552542Y16100824D01*
X7539287Y16150028D01*
X7379161Y16103134D01*
X7401677Y16025697D01*
X7429142Y15965166D01*
X7461129Y15918669D01*
X7509444Y15871959D01*
X7564435Y15838266D01*
X7627375Y15817358D01*
X7699950Y15810042D01*
X7766880Y15815976D01*
X7826481Y15833073D01*
X7879898Y15860729D01*
X7928054Y15898961D01*
X7971597Y15948406D01*
X8007240Y16005241D01*
X8035639Y16070980D01*
X8056764Y16146958D01*
X8070139Y16234867D01*
X8074863Y16336691D01*
X8070248Y16432390D01*
X8057110Y16515915D01*
X8036215Y16588996D01*
X8007916Y16653094D01*
X7972134Y16709345D01*
X7928732Y16758426D01*
X7881470Y16796145D01*
X7829791Y16823247D01*
X7806702Y16830000D01*
X8132113Y16830000D01*
X8258182Y16435304D01*
X8452902Y15825674D01*
X8623969Y15825674D01*
X8821957Y16462904D01*
X9026433Y16462904D01*
X9026433Y15825674D01*
X9187633Y15825674D01*
X9958708Y15825674D01*
X10109015Y15825674D01*
X10109015Y16498013D01*
X10436886Y15825674D01*
X10594276Y15825674D01*
X10750152Y15825674D01*
X10911939Y15825674D01*
X10911939Y16830000D01*
X10750152Y16830000D01*
X10750152Y15825674D01*
X10594276Y15825674D01*
X10594276Y16830000D01*
X10444018Y16830000D01*
X10444018Y16167675D01*
X10121031Y16830000D01*
X9958708Y16830000D01*
X9958708Y15825674D01*
X9187633Y15825674D01*
X9187633Y16477314D01*
X9191040Y16560148D01*
X9199282Y16610518D01*
X9210054Y16638758D01*
X9227326Y16659393D01*
X9251945Y16672641D01*
X9286551Y16677593D01*
X9319817Y16671339D01*
X9345803Y16653572D01*
X9366321Y16623554D01*
X9375259Y16598514D01*
X9382385Y16559552D01*
X9386544Y16501738D01*
X9539001Y16521278D01*
X9534132Y16602393D01*
X9521162Y16668533D01*
X9501167Y16722401D01*
X9474521Y16766131D01*
X9440616Y16801418D01*
X9399898Y16827300D01*
X9350981Y16843691D01*
X9292022Y16849540D01*
X9225775Y16842963D01*
X9172318Y16824757D01*
X9129161Y16796356D01*
X9092062Y16756760D01*
X9063880Y16710045D01*
X9043920Y16655184D01*
X9034992Y16609548D01*
X9028787Y16546851D01*
X9026433Y16462904D01*
X8821957Y16462904D01*
X8936014Y16830000D01*
X8764409Y16830000D01*
X8698268Y16603343D01*
X8378066Y16603343D01*
X8308114Y16830000D01*
X8132113Y16830000D01*
X7806702Y16830000D01*
X7772892Y16839889D01*
X7709768Y16845632D01*
X7645457Y16840180D01*
X7589350Y16824625D01*
X7540186Y16799753D01*
X7496935Y16765765D01*
X7459507Y16722658D01*
X7426985Y16668711D01*
X7399343Y16602293D01*
X7376963Y16521278D01*
X7236084Y16521278D01*
X7236084Y16830000D01*
X7074346Y16830000D01*
X7074346Y16527261D01*
X6943188Y16359406D01*
X6722930Y16830000D01*
X6513613Y16830000D01*
X6402502Y16830000D01*
X6402502Y16960651D01*
X11023050Y16960651D01*
X11023050Y15698931D01*
G37*
G36*
X17051207Y15993713D02*
G01*
X16958297Y15993713D01*
X16820055Y15997132D01*
X16794125Y16004232D01*
X16774236Y16016037D01*
X16759141Y16032181D01*
X16743994Y16064532D01*
X16738625Y16107286D01*
X16741429Y16138250D01*
X16749393Y16163819D01*
X16762414Y16185199D01*
X16789676Y16208380D01*
X16827676Y16220859D01*
X16945205Y16224278D01*
X17051207Y16224278D01*
X17051207Y15993713D01*
G37*
G36*
X17051207Y16392317D02*
G01*
X16920586Y16392317D01*
X16819758Y16397036D01*
X16777166Y16406789D01*
X16747582Y16425894D01*
X16726608Y16452890D01*
X16713677Y16487150D01*
X16709120Y16529887D01*
X16711871Y16564620D01*
X16719562Y16592704D01*
X16731835Y16615555D01*
X16757585Y16641402D01*
X16790551Y16655794D01*
X16821854Y16659907D01*
X16901486Y16661961D01*
X17051207Y16661961D01*
X17051207Y16392317D01*
G37*
G36*
X18606350Y15993713D02*
G01*
X18528192Y15993713D01*
X18447992Y15995939D01*
X18411786Y16000674D01*
X18386863Y16009826D01*
X18365382Y16024800D01*
X18346768Y16045859D01*
X18332711Y16071583D01*
X18324096Y16101771D01*
X18321074Y16137633D01*
X18325764Y16180515D01*
X18339392Y16216890D01*
X18361015Y16246223D01*
X18389951Y16266899D01*
X18430085Y16277803D01*
X18517836Y16282897D01*
X18606350Y16282897D01*
X18606350Y15993713D01*
G37*
G36*
X23542869Y15698931D02*
G01*
X16430800Y15698931D01*
X16430800Y16538619D01*
X16541911Y16538619D01*
X16542610Y16529887D01*
X16546426Y16482246D01*
X16559552Y16432203D01*
X16581283Y16387127D01*
X16610471Y16349152D01*
X16647500Y16318745D01*
X16693831Y16295902D01*
X16661436Y16272857D01*
X16634193Y16243582D01*
X16611570Y16207609D01*
X16594693Y16166997D01*
X16584633Y16124127D01*
X16583386Y16107286D01*
X16581235Y16078221D01*
X16584047Y16035716D01*
X16592273Y15996829D01*
X16605854Y15960862D01*
X16633822Y15913274D01*
X16667306Y15877026D01*
X16706349Y15851073D01*
X16750934Y15835627D01*
X16803709Y15828610D01*
X16892742Y15825674D01*
X17212993Y15825674D01*
X17212993Y16521278D01*
X17352212Y16521278D01*
X17509064Y16458751D01*
X17526837Y16530582D01*
X17549281Y16583662D01*
X17575743Y16621845D01*
X17608680Y16650622D01*
X17645272Y16667800D01*
X17686678Y16673685D01*
X17729074Y16668449D01*
X17766226Y16653316D01*
X17799222Y16628415D01*
X17828778Y16592902D01*
X17850410Y16551469D01*
X17867532Y16495206D01*
X17879109Y16420172D01*
X17883440Y16321670D01*
X17879141Y16229466D01*
X17867553Y16158058D01*
X17850211Y16103409D01*
X17827997Y16062162D01*
X17798085Y16027025D01*
X17764570Y16002293D01*
X17726712Y15987216D01*
X17683405Y15981989D01*
X17641693Y15987234D01*
X17605557Y16002333D01*
X17573837Y16027113D01*
X17547509Y16060317D01*
X17527791Y16100824D01*
X17514535Y16150028D01*
X17354410Y16103134D01*
X17376925Y16025697D01*
X17404390Y15965166D01*
X17436378Y15918669D01*
X17484692Y15871959D01*
X17539684Y15838266D01*
X17602623Y15817358D01*
X17675198Y15810042D01*
X17742129Y15815976D01*
X17801730Y15833073D01*
X17855147Y15860729D01*
X17903302Y15898961D01*
X17946845Y15948406D01*
X17982489Y16005241D01*
X18010888Y16070980D01*
X18028554Y16134519D01*
X18154354Y16134519D01*
X18159969Y16056554D01*
X18175727Y15992311D01*
X18200809Y15939064D01*
X18234834Y15893885D01*
X18273028Y15861515D01*
X18316140Y15840756D01*
X18373586Y15830582D01*
X18508506Y15825674D01*
X18768087Y15825674D01*
X18768087Y15993713D01*
X19183740Y15993713D01*
X19183740Y15825674D01*
X19820432Y15825674D01*
X19820432Y15993713D01*
X19582686Y15993713D01*
X19582686Y16521278D01*
X19901716Y16521278D01*
X20058569Y16458751D01*
X20076341Y16530582D01*
X20098785Y16583662D01*
X20125247Y16621845D01*
X20158185Y16650622D01*
X20194777Y16667800D01*
X20236182Y16673685D01*
X20278579Y16668449D01*
X20315730Y16653316D01*
X20348726Y16628415D01*
X20378283Y16592902D01*
X20399915Y16551469D01*
X20417036Y16495206D01*
X20428613Y16420172D01*
X20432944Y16321670D01*
X20428646Y16229466D01*
X20417057Y16158058D01*
X20399715Y16103409D01*
X20377501Y16062162D01*
X20347589Y16027025D01*
X20314074Y16002293D01*
X20276217Y15987216D01*
X20232909Y15981989D01*
X20191197Y15987234D01*
X20155062Y16002333D01*
X20123342Y16027113D01*
X20097014Y16060317D01*
X20077295Y16100824D01*
X20064040Y16150028D01*
X19903914Y16103134D01*
X19926430Y16025697D01*
X19953895Y15965166D01*
X19985882Y15918669D01*
X20034197Y15871959D01*
X20089188Y15838266D01*
X20152128Y15817358D01*
X20224703Y15810042D01*
X20291633Y15815976D01*
X20351234Y15833073D01*
X20404651Y15860729D01*
X20452807Y15898961D01*
X20496350Y15948406D01*
X20531993Y16005241D01*
X20560392Y16070980D01*
X20581517Y16146958D01*
X20594892Y16234867D01*
X20599616Y16336691D01*
X20595001Y16432390D01*
X20581863Y16515915D01*
X20560968Y16588996D01*
X20532669Y16653094D01*
X20527029Y16661961D01*
X20708255Y16661961D01*
X21155854Y16661961D01*
X21155854Y16384502D01*
X20753635Y16384502D01*
X20753635Y16216462D01*
X21155854Y16216462D01*
X21155854Y15993713D01*
X20723544Y15993713D01*
X20723544Y15825674D01*
X21317592Y15825674D01*
X21317592Y15993713D01*
X21451144Y15993713D01*
X21451144Y15825674D01*
X22000397Y15825674D01*
X22000397Y15993713D01*
X22135024Y15993713D01*
X22135024Y15825674D01*
X22684277Y15825674D01*
X22684277Y16661961D01*
X22822421Y16661961D01*
X23270020Y16661961D01*
X23270020Y16384502D01*
X22867801Y16384502D01*
X22867801Y16216462D01*
X23270020Y16216462D01*
X23270020Y15993713D01*
X22837710Y15993713D01*
X22837710Y15825674D01*
X23431758Y15825674D01*
X23431758Y16830000D01*
X22822421Y16830000D01*
X22822421Y16661961D01*
X22684277Y16661961D01*
X22684277Y16830000D01*
X22522491Y16830000D01*
X22522491Y16404041D01*
X22188025Y16404041D01*
X22188025Y16236002D01*
X22522491Y16236002D01*
X22522491Y15993713D01*
X22135024Y15993713D01*
X22000397Y15993713D01*
X22000397Y16830000D01*
X21838611Y16830000D01*
X21838611Y16404041D01*
X21504145Y16404041D01*
X21504145Y16236002D01*
X21838611Y16236002D01*
X21838611Y15993713D01*
X21451144Y15993713D01*
X21317592Y15993713D01*
X21317592Y16830000D01*
X20708255Y16830000D01*
X20708255Y16661961D01*
X20527029Y16661961D01*
X20496887Y16709345D01*
X20453485Y16758426D01*
X20406223Y16796145D01*
X20354544Y16823247D01*
X20297645Y16839889D01*
X20234521Y16845632D01*
X20170210Y16840180D01*
X20114103Y16824625D01*
X20064939Y16799753D01*
X20021688Y16765765D01*
X19984260Y16722658D01*
X19951738Y16668711D01*
X19924096Y16602293D01*
X19901716Y16521278D01*
X19582686Y16521278D01*
X19582686Y16830000D01*
X19420948Y16830000D01*
X19420948Y15993713D01*
X19183740Y15993713D01*
X18768087Y15993713D01*
X18768087Y16830000D01*
X18606350Y16830000D01*
X18606350Y16450936D01*
X18500886Y16450936D01*
X18397515Y16446747D01*
X18333091Y16436525D01*
X18291529Y16419251D01*
X18249169Y16388959D01*
X18223719Y16362538D01*
X18201064Y16329806D01*
X18181123Y16289980D01*
X18166754Y16246723D01*
X18157611Y16195430D01*
X18154521Y16137633D01*
X18154354Y16134519D01*
X18028554Y16134519D01*
X18032013Y16146958D01*
X18045387Y16234867D01*
X18050111Y16336691D01*
X18045496Y16432390D01*
X18032358Y16515915D01*
X18011463Y16588996D01*
X17983164Y16653094D01*
X17947382Y16709345D01*
X17903981Y16758426D01*
X17856719Y16796145D01*
X17805040Y16823247D01*
X17748140Y16839889D01*
X17685017Y16845632D01*
X17620705Y16840180D01*
X17564599Y16824625D01*
X17515434Y16799753D01*
X17472184Y16765765D01*
X17434755Y16722658D01*
X17402233Y16668711D01*
X17374592Y16602293D01*
X17352212Y16521278D01*
X17212993Y16521278D01*
X17212993Y16830000D01*
X16940320Y16830000D01*
X16799504Y16827052D01*
X16745219Y16823162D01*
X16703215Y16813481D01*
X16667364Y16797474D01*
X16636727Y16775534D01*
X16609683Y16747083D01*
X16586603Y16712786D01*
X16567313Y16671975D01*
X16553087Y16627917D01*
X16544698Y16583624D01*
X16541911Y16538619D01*
X16430800Y16538619D01*
X16430800Y16956743D01*
X23542869Y16956743D01*
X23542869Y15698931D01*
G37*
D10*
X8250000Y8250000D02*
X3750000Y8250000D01*
X35642857Y14859581D02*
X35690476Y14907200D01*
X35690476Y14907200D02*
X35833333Y14954820D01*
X35833333Y14954820D02*
X35928571Y14954820D01*
X35928571Y14954820D02*
X36071428Y14907200D01*
X36071428Y14907200D02*
X36166666Y14811962D01*
X36166666Y14811962D02*
X36214285Y14716724D01*
X36214285Y14716724D02*
X36261904Y14526248D01*
X36261904Y14526248D02*
X36261904Y14383391D01*
X36261904Y14383391D02*
X36214285Y14192915D01*
X36214285Y14192915D02*
X36166666Y14097677D01*
X36166666Y14097677D02*
X36071428Y14002439D01*
X36071428Y14002439D02*
X35928571Y13954820D01*
X35928571Y13954820D02*
X35833333Y13954820D01*
X35833333Y13954820D02*
X35690476Y14002439D01*
X35690476Y14002439D02*
X35642857Y14050058D01*
X34690476Y14954820D02*
X35261904Y14954820D01*
X34976190Y14954820D02*
X34976190Y13954820D01*
X34976190Y13954820D02*
X35071428Y14097677D01*
X35071428Y14097677D02*
X35166666Y14192915D01*
X35166666Y14192915D02*
X35261904Y14240534D01*
X34309523Y14050058D02*
X34261904Y14002439D01*
X34261904Y14002439D02*
X34166666Y13954820D01*
X34166666Y13954820D02*
X33928571Y13954820D01*
X33928571Y13954820D02*
X33833333Y14002439D01*
X33833333Y14002439D02*
X33785714Y14050058D01*
X33785714Y14050058D02*
X33738095Y14145296D01*
X33738095Y14145296D02*
X33738095Y14240534D01*
X33738095Y14240534D02*
X33785714Y14383391D01*
X33785714Y14383391D02*
X34357142Y14954820D01*
X34357142Y14954820D02*
X33738095Y14954820D01*
X33454819Y11488096D02*
X34264342Y11488096D01*
X34264342Y11488096D02*
X34359580Y11535715D01*
X34359580Y11535715D02*
X34407200Y11583334D01*
X34407200Y11583334D02*
X34454819Y11678572D01*
X34454819Y11678572D02*
X34454819Y11869048D01*
X34454819Y11869048D02*
X34407200Y11964286D01*
X34407200Y11964286D02*
X34359580Y12011905D01*
X34359580Y12011905D02*
X34264342Y12059524D01*
X34264342Y12059524D02*
X33454819Y12059524D01*
X33788152Y12964286D02*
X34454819Y12964286D01*
X33407200Y12726191D02*
X34121485Y12488096D01*
X34121485Y12488096D02*
X34121485Y13107143D01*
X29954819Y16607143D02*
X29478628Y16273810D01*
X29954819Y16035715D02*
X28954819Y16035715D01*
X28954819Y16035715D02*
X28954819Y16416667D01*
X28954819Y16416667D02*
X29002438Y16511905D01*
X29002438Y16511905D02*
X29050057Y16559524D01*
X29050057Y16559524D02*
X29145295Y16607143D01*
X29145295Y16607143D02*
X29288152Y16607143D01*
X29288152Y16607143D02*
X29383390Y16559524D01*
X29383390Y16559524D02*
X29431009Y16511905D01*
X29431009Y16511905D02*
X29478628Y16416667D01*
X29478628Y16416667D02*
X29478628Y16035715D01*
X29954819Y17559524D02*
X29954819Y16988096D01*
X29954819Y17273810D02*
X28954819Y17273810D01*
X28954819Y17273810D02*
X29097676Y17178572D01*
X29097676Y17178572D02*
X29192914Y17083334D01*
X29192914Y17083334D02*
X29240533Y16988096D01*
X29954819Y18511905D02*
X29954819Y17940477D01*
X29954819Y18226191D02*
X28954819Y18226191D01*
X28954819Y18226191D02*
X29097676Y18130953D01*
X29097676Y18130953D02*
X29192914Y18035715D01*
X29192914Y18035715D02*
X29240533Y17940477D01*
X31954819Y16607143D02*
X31478628Y16273810D01*
X31954819Y16035715D02*
X30954819Y16035715D01*
X30954819Y16035715D02*
X30954819Y16416667D01*
X30954819Y16416667D02*
X31002438Y16511905D01*
X31002438Y16511905D02*
X31050057Y16559524D01*
X31050057Y16559524D02*
X31145295Y16607143D01*
X31145295Y16607143D02*
X31288152Y16607143D01*
X31288152Y16607143D02*
X31383390Y16559524D01*
X31383390Y16559524D02*
X31431009Y16511905D01*
X31431009Y16511905D02*
X31478628Y16416667D01*
X31478628Y16416667D02*
X31478628Y16035715D01*
X31954819Y17559524D02*
X31954819Y16988096D01*
X31954819Y17273810D02*
X30954819Y17273810D01*
X30954819Y17273810D02*
X31097676Y17178572D01*
X31097676Y17178572D02*
X31192914Y17083334D01*
X31192914Y17083334D02*
X31240533Y16988096D01*
X30954819Y18178572D02*
X30954819Y18273810D01*
X30954819Y18273810D02*
X31002438Y18369048D01*
X31002438Y18369048D02*
X31050057Y18416667D01*
X31050057Y18416667D02*
X31145295Y18464286D01*
X31145295Y18464286D02*
X31335771Y18511905D01*
X31335771Y18511905D02*
X31573866Y18511905D01*
X31573866Y18511905D02*
X31764342Y18464286D01*
X31764342Y18464286D02*
X31859580Y18416667D01*
X31859580Y18416667D02*
X31907200Y18369048D01*
X31907200Y18369048D02*
X31954819Y18273810D01*
X31954819Y18273810D02*
X31954819Y18178572D01*
X31954819Y18178572D02*
X31907200Y18083334D01*
X31907200Y18083334D02*
X31859580Y18035715D01*
X31859580Y18035715D02*
X31764342Y17988096D01*
X31764342Y17988096D02*
X31573866Y17940477D01*
X31573866Y17940477D02*
X31335771Y17940477D01*
X31335771Y17940477D02*
X31145295Y17988096D01*
X31145295Y17988096D02*
X31050057Y18035715D01*
X31050057Y18035715D02*
X31002438Y18083334D01*
X31002438Y18083334D02*
X30954819Y18178572D01*
X33642857Y9459581D02*
X33690476Y9507200D01*
X33690476Y9507200D02*
X33833333Y9554820D01*
X33833333Y9554820D02*
X33928571Y9554820D01*
X33928571Y9554820D02*
X34071428Y9507200D01*
X34071428Y9507200D02*
X34166666Y9411962D01*
X34166666Y9411962D02*
X34214285Y9316724D01*
X34214285Y9316724D02*
X34261904Y9126248D01*
X34261904Y9126248D02*
X34261904Y8983391D01*
X34261904Y8983391D02*
X34214285Y8792915D01*
X34214285Y8792915D02*
X34166666Y8697677D01*
X34166666Y8697677D02*
X34071428Y8602439D01*
X34071428Y8602439D02*
X33928571Y8554820D01*
X33928571Y8554820D02*
X33833333Y8554820D01*
X33833333Y8554820D02*
X33690476Y8602439D01*
X33690476Y8602439D02*
X33642857Y8650058D01*
X32690476Y9554820D02*
X33261904Y9554820D01*
X32976190Y9554820D02*
X32976190Y8554820D01*
X32976190Y8554820D02*
X33071428Y8697677D01*
X33071428Y8697677D02*
X33166666Y8792915D01*
X33166666Y8792915D02*
X33261904Y8840534D01*
X31738095Y9554820D02*
X32309523Y9554820D01*
X32023809Y9554820D02*
X32023809Y8554820D01*
X32023809Y8554820D02*
X32119047Y8697677D01*
X32119047Y8697677D02*
X32214285Y8792915D01*
X32214285Y8792915D02*
X32309523Y8840534D01*
X3045180Y4261905D02*
X4045180Y4261905D01*
X4045180Y4261905D02*
X4045180Y3880953D01*
X4045180Y3880953D02*
X3997561Y3785715D01*
X3997561Y3785715D02*
X3949942Y3738096D01*
X3949942Y3738096D02*
X3854704Y3690477D01*
X3854704Y3690477D02*
X3711847Y3690477D01*
X3711847Y3690477D02*
X3616609Y3738096D01*
X3616609Y3738096D02*
X3568990Y3785715D01*
X3568990Y3785715D02*
X3521371Y3880953D01*
X3521371Y3880953D02*
X3521371Y4261905D01*
X3426133Y13464286D02*
X3426133Y12892857D01*
X3045180Y13178572D02*
X3807085Y13178572D01*
X3045180Y12500001D02*
X3045180Y12357144D01*
X3045180Y12357144D02*
X3092800Y12285715D01*
X3092800Y12285715D02*
X3140419Y12250001D01*
X3140419Y12250001D02*
X3283276Y12178572D01*
X3283276Y12178572D02*
X3473752Y12142858D01*
X3473752Y12142858D02*
X3854704Y12142858D01*
X3854704Y12142858D02*
X3949942Y12178572D01*
X3949942Y12178572D02*
X3997561Y12214286D01*
X3997561Y12214286D02*
X4045180Y12285715D01*
X4045180Y12285715D02*
X4045180Y12428572D01*
X4045180Y12428572D02*
X3997561Y12500001D01*
X3997561Y12500001D02*
X3949942Y12535715D01*
X3949942Y12535715D02*
X3854704Y12571429D01*
X3854704Y12571429D02*
X3616609Y12571429D01*
X3616609Y12571429D02*
X3521371Y12535715D01*
X3521371Y12535715D02*
X3473752Y12500001D01*
X3473752Y12500001D02*
X3426133Y12428572D01*
X3426133Y12428572D02*
X3426133Y12285715D01*
X3426133Y12285715D02*
X3473752Y12214286D01*
X3473752Y12214286D02*
X3521371Y12178572D01*
X3521371Y12178572D02*
X3616609Y12142858D01*
X4045180Y11928572D02*
X3045180Y11678572D01*
X3045180Y11678572D02*
X4045180Y11428572D01*
X4045180Y7261905D02*
X4045180Y6690477D01*
X3045180Y6976191D02*
X4045180Y6976191D01*
X3045180Y5833334D02*
X3045180Y6404762D01*
X3045180Y6119048D02*
X4045180Y6119048D01*
X4045180Y6119048D02*
X3902323Y6214286D01*
X3902323Y6214286D02*
X3807085Y6309524D01*
X3807085Y6309524D02*
X3759466Y6404762D01*
X17232142Y18407200D02*
X17125000Y18454820D01*
X17125000Y18454820D02*
X16946428Y18454820D01*
X16946428Y18454820D02*
X16875000Y18407200D01*
X16875000Y18407200D02*
X16839285Y18359581D01*
X16839285Y18359581D02*
X16803571Y18264343D01*
X16803571Y18264343D02*
X16803571Y18169105D01*
X16803571Y18169105D02*
X16839285Y18073867D01*
X16839285Y18073867D02*
X16875000Y18026248D01*
X16875000Y18026248D02*
X16946428Y17978629D01*
X16946428Y17978629D02*
X17089285Y17931010D01*
X17089285Y17931010D02*
X17160714Y17883391D01*
X17160714Y17883391D02*
X17196428Y17835772D01*
X17196428Y17835772D02*
X17232142Y17740534D01*
X17232142Y17740534D02*
X17232142Y17645296D01*
X17232142Y17645296D02*
X17196428Y17550058D01*
X17196428Y17550058D02*
X17160714Y17502439D01*
X17160714Y17502439D02*
X17089285Y17454820D01*
X17089285Y17454820D02*
X16910714Y17454820D01*
X16910714Y17454820D02*
X16803571Y17502439D01*
X16482142Y18454820D02*
X16482142Y17454820D01*
X16482142Y17454820D02*
X16053571Y18454820D01*
X16053571Y18454820D02*
X16053571Y17454820D01*
X15696428Y18454820D02*
X15696428Y17454820D01*
X15696428Y17454820D02*
X15517857Y17454820D01*
X15517857Y17454820D02*
X15410714Y17502439D01*
X15410714Y17502439D02*
X15339285Y17597677D01*
X15339285Y17597677D02*
X15303571Y17692915D01*
X15303571Y17692915D02*
X15267857Y17883391D01*
X15267857Y17883391D02*
X15267857Y18026248D01*
X15267857Y18026248D02*
X15303571Y18216724D01*
X15303571Y18216724D02*
X15339285Y18311962D01*
X15339285Y18311962D02*
X15410714Y18407200D01*
X15410714Y18407200D02*
X15517857Y18454820D01*
X15517857Y18454820D02*
X15696428Y18454820D01*
X4045180Y2261905D02*
X4045180Y1690477D01*
X3045180Y1976191D02*
X4045180Y1976191D01*
X3949942Y1404762D02*
X3997561Y1357143D01*
X3997561Y1357143D02*
X4045180Y1261905D01*
X4045180Y1261905D02*
X4045180Y1023810D01*
X4045180Y1023810D02*
X3997561Y928572D01*
X3997561Y928572D02*
X3949942Y880953D01*
X3949942Y880953D02*
X3854704Y833334D01*
X3854704Y833334D02*
X3759466Y833334D01*
X3759466Y833334D02*
X3616609Y880953D01*
X3616609Y880953D02*
X3045180Y1452381D01*
X3045180Y1452381D02*
X3045180Y833334D01*
X10392856Y18454820D02*
X10392856Y17454820D01*
X10035713Y18454820D02*
X10035713Y17454820D01*
X10035713Y17454820D02*
X9607142Y18454820D01*
X9607142Y18454820D02*
X9607142Y17454820D01*
X5035714Y18454820D02*
X4892857Y18454820D01*
X4892857Y18454820D02*
X4821428Y18407200D01*
X4821428Y18407200D02*
X4785714Y18359581D01*
X4785714Y18359581D02*
X4714285Y18216724D01*
X4714285Y18216724D02*
X4678571Y18026248D01*
X4678571Y18026248D02*
X4678571Y17645296D01*
X4678571Y17645296D02*
X4714285Y17550058D01*
X4714285Y17550058D02*
X4750000Y17502439D01*
X4750000Y17502439D02*
X4821428Y17454820D01*
X4821428Y17454820D02*
X4964285Y17454820D01*
X4964285Y17454820D02*
X5035714Y17502439D01*
X5035714Y17502439D02*
X5071428Y17550058D01*
X5071428Y17550058D02*
X5107142Y17645296D01*
X5107142Y17645296D02*
X5107142Y17883391D01*
X5107142Y17883391D02*
X5071428Y17978629D01*
X5071428Y17978629D02*
X5035714Y18026248D01*
X5035714Y18026248D02*
X4964285Y18073867D01*
X4964285Y18073867D02*
X4821428Y18073867D01*
X4821428Y18073867D02*
X4750000Y18026248D01*
X4750000Y18026248D02*
X4714285Y17978629D01*
X4714285Y17978629D02*
X4678571Y17883391D01*
X4464285Y17454820D02*
X4214285Y18454820D01*
X4214285Y18454820D02*
X3964285Y17454820D01*
X3714285Y18454820D02*
X3714285Y17454820D01*
X3357142Y18454820D02*
X3357142Y17454820D01*
X3357142Y17454820D02*
X2928571Y18454820D01*
X2928571Y18454820D02*
X2928571Y17454820D01*
X19196428Y18454820D02*
X19446428Y17978629D01*
X19624999Y18454820D02*
X19624999Y17454820D01*
X19624999Y17454820D02*
X19339285Y17454820D01*
X19339285Y17454820D02*
X19267856Y17502439D01*
X19267856Y17502439D02*
X19232142Y17550058D01*
X19232142Y17550058D02*
X19196428Y17645296D01*
X19196428Y17645296D02*
X19196428Y17788153D01*
X19196428Y17788153D02*
X19232142Y17883391D01*
X19232142Y17883391D02*
X19267856Y17931010D01*
X19267856Y17931010D02*
X19339285Y17978629D01*
X19339285Y17978629D02*
X19624999Y17978629D01*
X18982142Y17454820D02*
X18553571Y17454820D01*
X18767856Y18454820D02*
X18767856Y17454820D01*
X18303570Y18454820D02*
X18303570Y17454820D01*
X18303570Y17454820D02*
X17874999Y18454820D01*
X17874999Y18454820D02*
X17874999Y17454820D01*
X36571428Y17502439D02*
X36642857Y17454820D01*
X36642857Y17454820D02*
X36749999Y17454820D01*
X36749999Y17454820D02*
X36857142Y17502439D01*
X36857142Y17502439D02*
X36928571Y17597677D01*
X36928571Y17597677D02*
X36964285Y17692915D01*
X36964285Y17692915D02*
X36999999Y17883391D01*
X36999999Y17883391D02*
X36999999Y18026248D01*
X36999999Y18026248D02*
X36964285Y18216724D01*
X36964285Y18216724D02*
X36928571Y18311962D01*
X36928571Y18311962D02*
X36857142Y18407200D01*
X36857142Y18407200D02*
X36749999Y18454820D01*
X36749999Y18454820D02*
X36678571Y18454820D01*
X36678571Y18454820D02*
X36571428Y18407200D01*
X36571428Y18407200D02*
X36535714Y18359581D01*
X36535714Y18359581D02*
X36535714Y18026248D01*
X36535714Y18026248D02*
X36678571Y18026248D01*
X36214285Y18454820D02*
X36214285Y17454820D01*
X36214285Y17454820D02*
X35785714Y18454820D01*
X35785714Y18454820D02*
X35785714Y17454820D01*
X35428571Y18454820D02*
X35428571Y17454820D01*
X35428571Y17454820D02*
X35250000Y17454820D01*
X35250000Y17454820D02*
X35142857Y17502439D01*
X35142857Y17502439D02*
X35071428Y17597677D01*
X35071428Y17597677D02*
X35035714Y17692915D01*
X35035714Y17692915D02*
X35000000Y17883391D01*
X35000000Y17883391D02*
X35000000Y18026248D01*
X35000000Y18026248D02*
X35035714Y18216724D01*
X35035714Y18216724D02*
X35071428Y18311962D01*
X35071428Y18311962D02*
X35142857Y18407200D01*
X35142857Y18407200D02*
X35250000Y18454820D01*
X35250000Y18454820D02*
X35428571Y18454820D01*
X32954819Y4833334D02*
X32478628Y4500001D01*
X32954819Y4261906D02*
X31954819Y4261906D01*
X31954819Y4261906D02*
X31954819Y4642858D01*
X31954819Y4642858D02*
X32002438Y4738096D01*
X32002438Y4738096D02*
X32050057Y4785715D01*
X32050057Y4785715D02*
X32145295Y4833334D01*
X32145295Y4833334D02*
X32288152Y4833334D01*
X32288152Y4833334D02*
X32383390Y4785715D01*
X32383390Y4785715D02*
X32431009Y4738096D01*
X32431009Y4738096D02*
X32478628Y4642858D01*
X32478628Y4642858D02*
X32478628Y4261906D01*
X32954819Y5785715D02*
X32954819Y5214287D01*
X32954819Y5500001D02*
X31954819Y5500001D01*
X31954819Y5500001D02*
X32097676Y5404763D01*
X32097676Y5404763D02*
X32192914Y5309525D01*
X32192914Y5309525D02*
X32240533Y5214287D01*
X11595238Y8704820D02*
X11928571Y8228629D01*
X12166666Y8704820D02*
X12166666Y7704820D01*
X12166666Y7704820D02*
X11785714Y7704820D01*
X11785714Y7704820D02*
X11690476Y7752439D01*
X11690476Y7752439D02*
X11642857Y7800058D01*
X11642857Y7800058D02*
X11595238Y7895296D01*
X11595238Y7895296D02*
X11595238Y8038153D01*
X11595238Y8038153D02*
X11642857Y8133391D01*
X11642857Y8133391D02*
X11690476Y8181010D01*
X11690476Y8181010D02*
X11785714Y8228629D01*
X11785714Y8228629D02*
X12166666Y8228629D01*
X11309523Y7704820D02*
X10976190Y8704820D01*
X10976190Y8704820D02*
X10642857Y7704820D01*
X9785714Y8704820D02*
X10357142Y8704820D01*
X10071428Y8704820D02*
X10071428Y7704820D01*
X10071428Y7704820D02*
X10166666Y7847677D01*
X10166666Y7847677D02*
X10261904Y7942915D01*
X10261904Y7942915D02*
X10357142Y7990534D01*
X39249999Y17454820D02*
X39107142Y17454820D01*
X39107142Y17454820D02*
X39035713Y17502439D01*
X39035713Y17502439D02*
X38964285Y17597677D01*
X38964285Y17597677D02*
X38928570Y17788153D01*
X38928570Y17788153D02*
X38928570Y18121486D01*
X38928570Y18121486D02*
X38964285Y18311962D01*
X38964285Y18311962D02*
X39035713Y18407200D01*
X39035713Y18407200D02*
X39107142Y18454820D01*
X39107142Y18454820D02*
X39249999Y18454820D01*
X39249999Y18454820D02*
X39321428Y18407200D01*
X39321428Y18407200D02*
X39392856Y18311962D01*
X39392856Y18311962D02*
X39428570Y18121486D01*
X39428570Y18121486D02*
X39428570Y17788153D01*
X39428570Y17788153D02*
X39392856Y17597677D01*
X39392856Y17597677D02*
X39321428Y17502439D01*
X39321428Y17502439D02*
X39249999Y17454820D01*
X38607142Y17454820D02*
X38607142Y18264343D01*
X38607142Y18264343D02*
X38571428Y18359581D01*
X38571428Y18359581D02*
X38535714Y18407200D01*
X38535714Y18407200D02*
X38464285Y18454820D01*
X38464285Y18454820D02*
X38321428Y18454820D01*
X38321428Y18454820D02*
X38249999Y18407200D01*
X38249999Y18407200D02*
X38214285Y18359581D01*
X38214285Y18359581D02*
X38178571Y18264343D01*
X38178571Y18264343D02*
X38178571Y17454820D01*
X37928571Y17454820D02*
X37500000Y17454820D01*
X37714285Y18454820D02*
X37714285Y17454820D01*
X21821428Y17502439D02*
X21892857Y17454820D01*
X21892857Y17454820D02*
X21999999Y17454820D01*
X21999999Y17454820D02*
X22107142Y17502439D01*
X22107142Y17502439D02*
X22178571Y17597677D01*
X22178571Y17597677D02*
X22214285Y17692915D01*
X22214285Y17692915D02*
X22249999Y17883391D01*
X22249999Y17883391D02*
X22249999Y18026248D01*
X22249999Y18026248D02*
X22214285Y18216724D01*
X22214285Y18216724D02*
X22178571Y18311962D01*
X22178571Y18311962D02*
X22107142Y18407200D01*
X22107142Y18407200D02*
X21999999Y18454820D01*
X21999999Y18454820D02*
X21928571Y18454820D01*
X21928571Y18454820D02*
X21821428Y18407200D01*
X21821428Y18407200D02*
X21785714Y18359581D01*
X21785714Y18359581D02*
X21785714Y18026248D01*
X21785714Y18026248D02*
X21928571Y18026248D01*
X21464285Y18454820D02*
X21464285Y17454820D01*
X21464285Y17454820D02*
X21035714Y18454820D01*
X21035714Y18454820D02*
X21035714Y17454820D01*
X20678571Y18454820D02*
X20678571Y17454820D01*
X20678571Y17454820D02*
X20500000Y17454820D01*
X20500000Y17454820D02*
X20392857Y17502439D01*
X20392857Y17502439D02*
X20321428Y17597677D01*
X20321428Y17597677D02*
X20285714Y17692915D01*
X20285714Y17692915D02*
X20250000Y17883391D01*
X20250000Y17883391D02*
X20250000Y18026248D01*
X20250000Y18026248D02*
X20285714Y18216724D01*
X20285714Y18216724D02*
X20321428Y18311962D01*
X20321428Y18311962D02*
X20392857Y18407200D01*
X20392857Y18407200D02*
X20500000Y18454820D01*
X20500000Y18454820D02*
X20678571Y18454820D01*
X3997561Y10571429D02*
X4045180Y10642857D01*
X4045180Y10642857D02*
X4045180Y10750000D01*
X4045180Y10750000D02*
X3997561Y10857143D01*
X3997561Y10857143D02*
X3902323Y10928572D01*
X3902323Y10928572D02*
X3807085Y10964286D01*
X3807085Y10964286D02*
X3616609Y11000000D01*
X3616609Y11000000D02*
X3473752Y11000000D01*
X3473752Y11000000D02*
X3283276Y10964286D01*
X3283276Y10964286D02*
X3188038Y10928572D01*
X3188038Y10928572D02*
X3092800Y10857143D01*
X3092800Y10857143D02*
X3045180Y10750000D01*
X3045180Y10750000D02*
X3045180Y10678572D01*
X3045180Y10678572D02*
X3092800Y10571429D01*
X3092800Y10571429D02*
X3140419Y10535715D01*
X3140419Y10535715D02*
X3473752Y10535715D01*
X3473752Y10535715D02*
X3473752Y10678572D01*
X3045180Y10214286D02*
X4045180Y10214286D01*
X4045180Y10214286D02*
X3045180Y9785715D01*
X3045180Y9785715D02*
X4045180Y9785715D01*
X3045180Y9428572D02*
X4045180Y9428572D01*
X4045180Y9428572D02*
X4045180Y9250001D01*
X4045180Y9250001D02*
X3997561Y9142858D01*
X3997561Y9142858D02*
X3902323Y9071429D01*
X3902323Y9071429D02*
X3807085Y9035715D01*
X3807085Y9035715D02*
X3616609Y9000001D01*
X3616609Y9000001D02*
X3473752Y9000001D01*
X3473752Y9000001D02*
X3283276Y9035715D01*
X3283276Y9035715D02*
X3188038Y9071429D01*
X3188038Y9071429D02*
X3092800Y9142858D01*
X3092800Y9142858D02*
X3045180Y9250001D01*
X3045180Y9250001D02*
X3045180Y9428572D01*
X2071428Y17502439D02*
X2142857Y17454820D01*
X2142857Y17454820D02*
X2249999Y17454820D01*
X2249999Y17454820D02*
X2357142Y17502439D01*
X2357142Y17502439D02*
X2428571Y17597677D01*
X2428571Y17597677D02*
X2464285Y17692915D01*
X2464285Y17692915D02*
X2499999Y17883391D01*
X2499999Y17883391D02*
X2499999Y18026248D01*
X2499999Y18026248D02*
X2464285Y18216724D01*
X2464285Y18216724D02*
X2428571Y18311962D01*
X2428571Y18311962D02*
X2357142Y18407200D01*
X2357142Y18407200D02*
X2249999Y18454820D01*
X2249999Y18454820D02*
X2178571Y18454820D01*
X2178571Y18454820D02*
X2071428Y18407200D01*
X2071428Y18407200D02*
X2035714Y18359581D01*
X2035714Y18359581D02*
X2035714Y18026248D01*
X2035714Y18026248D02*
X2178571Y18026248D01*
X1714285Y18454820D02*
X1714285Y17454820D01*
X1714285Y17454820D02*
X1285714Y18454820D01*
X1285714Y18454820D02*
X1285714Y17454820D01*
X928571Y18454820D02*
X928571Y17454820D01*
X928571Y17454820D02*
X750000Y17454820D01*
X750000Y17454820D02*
X642857Y17502439D01*
X642857Y17502439D02*
X571428Y17597677D01*
X571428Y17597677D02*
X535714Y17692915D01*
X535714Y17692915D02*
X500000Y17883391D01*
X500000Y17883391D02*
X500000Y18026248D01*
X500000Y18026248D02*
X535714Y18216724D01*
X535714Y18216724D02*
X571428Y18311962D01*
X571428Y18311962D02*
X642857Y18407200D01*
X642857Y18407200D02*
X750000Y18454820D01*
X750000Y18454820D02*
X928571Y18454820D01*
X8071428Y17502439D02*
X8142857Y17454820D01*
X8142857Y17454820D02*
X8249999Y17454820D01*
X8249999Y17454820D02*
X8357142Y17502439D01*
X8357142Y17502439D02*
X8428571Y17597677D01*
X8428571Y17597677D02*
X8464285Y17692915D01*
X8464285Y17692915D02*
X8499999Y17883391D01*
X8499999Y17883391D02*
X8499999Y18026248D01*
X8499999Y18026248D02*
X8464285Y18216724D01*
X8464285Y18216724D02*
X8428571Y18311962D01*
X8428571Y18311962D02*
X8357142Y18407200D01*
X8357142Y18407200D02*
X8249999Y18454820D01*
X8249999Y18454820D02*
X8178571Y18454820D01*
X8178571Y18454820D02*
X8071428Y18407200D01*
X8071428Y18407200D02*
X8035714Y18359581D01*
X8035714Y18359581D02*
X8035714Y18026248D01*
X8035714Y18026248D02*
X8178571Y18026248D01*
X7714285Y18454820D02*
X7714285Y17454820D01*
X7714285Y17454820D02*
X7285714Y18454820D01*
X7285714Y18454820D02*
X7285714Y17454820D01*
X6928571Y18454820D02*
X6928571Y17454820D01*
X6928571Y17454820D02*
X6750000Y17454820D01*
X6750000Y17454820D02*
X6642857Y17502439D01*
X6642857Y17502439D02*
X6571428Y17597677D01*
X6571428Y17597677D02*
X6535714Y17692915D01*
X6535714Y17692915D02*
X6500000Y17883391D01*
X6500000Y17883391D02*
X6500000Y18026248D01*
X6500000Y18026248D02*
X6535714Y18216724D01*
X6535714Y18216724D02*
X6571428Y18311962D01*
X6571428Y18311962D02*
X6642857Y18407200D01*
X6642857Y18407200D02*
X6750000Y18454820D01*
X6750000Y18454820D02*
X6928571Y18454820D01*
X24964285Y18073867D02*
X24392857Y18073867D01*
X24000000Y18454820D02*
X23857143Y18454820D01*
X23857143Y18454820D02*
X23785714Y18407200D01*
X23785714Y18407200D02*
X23750000Y18359581D01*
X23750000Y18359581D02*
X23678571Y18216724D01*
X23678571Y18216724D02*
X23642857Y18026248D01*
X23642857Y18026248D02*
X23642857Y17645296D01*
X23642857Y17645296D02*
X23678571Y17550058D01*
X23678571Y17550058D02*
X23714286Y17502439D01*
X23714286Y17502439D02*
X23785714Y17454820D01*
X23785714Y17454820D02*
X23928571Y17454820D01*
X23928571Y17454820D02*
X24000000Y17502439D01*
X24000000Y17502439D02*
X24035714Y17550058D01*
X24035714Y17550058D02*
X24071428Y17645296D01*
X24071428Y17645296D02*
X24071428Y17883391D01*
X24071428Y17883391D02*
X24035714Y17978629D01*
X24035714Y17978629D02*
X24000000Y18026248D01*
X24000000Y18026248D02*
X23928571Y18073867D01*
X23928571Y18073867D02*
X23785714Y18073867D01*
X23785714Y18073867D02*
X23714286Y18026248D01*
X23714286Y18026248D02*
X23678571Y17978629D01*
X23678571Y17978629D02*
X23642857Y17883391D01*
X23428571Y17454820D02*
X23178571Y18454820D01*
X23178571Y18454820D02*
X22928571Y17454820D01*
D12*
%TO.C,C12*%
X29627836Y15140000D02*
X29412164Y15140000D01*
X29627836Y15860000D02*
X29412164Y15860000D01*
%TO.C,U4*%
X31362500Y10690000D02*
X32162500Y10690000D01*
X31362500Y10690000D02*
X30562500Y10690000D01*
X31362500Y13810000D02*
X32162500Y13810000D01*
X31362500Y13810000D02*
X30562500Y13810000D01*
X32902500Y10410000D02*
X32422500Y10410000D01*
X32662500Y10740000D01*
X32902500Y10410000D01*
G36*
X32902500Y10410000D02*
G01*
X32422500Y10410000D01*
X32662500Y10740000D01*
X32902500Y10410000D01*
G37*
%TO.C,R11*%
X31336359Y15880000D02*
X31643641Y15880000D01*
X31336359Y15120000D02*
X31643641Y15120000D01*
%TO.C,R10*%
X32606359Y14880000D02*
X32913641Y14880000D01*
X32606359Y14120000D02*
X32913641Y14120000D01*
%TO.C,C11*%
X30186252Y8090000D02*
X28763748Y8090000D01*
X30186252Y9910000D02*
X28763748Y9910000D01*
D10*
%TO.C,WP13*%
X300000Y5050000D02*
X2700000Y5050000D01*
X300000Y2950000D02*
X300000Y5050000D01*
X300000Y2950000D02*
X2700000Y2950000D01*
X2700000Y2950000D02*
X2700000Y5050000D01*
%TO.C,WP11*%
X300000Y13550000D02*
X300000Y11450000D01*
X2700000Y13550000D02*
X300000Y13550000D01*
X2700000Y13550000D02*
X2700000Y11450000D01*
X2700000Y11450000D02*
X300000Y11450000D01*
%TO.C,WP14*%
X300000Y7550000D02*
X2700000Y7550000D01*
X300000Y5450000D02*
X300000Y7550000D01*
X300000Y5450000D02*
X2700000Y5450000D01*
X2700000Y5450000D02*
X2700000Y7550000D01*
%TO.C,WP8*%
X15200000Y21200000D02*
X15200000Y18800000D01*
X15200000Y21200000D02*
X17300000Y21200000D01*
X15200000Y18800000D02*
X17300000Y18800000D01*
X17300000Y21200000D02*
X17300000Y18800000D01*
%TO.C,WP15*%
X300000Y2550000D02*
X2700000Y2550000D01*
X300000Y450000D02*
X300000Y2550000D01*
X300000Y450000D02*
X2700000Y450000D01*
X2700000Y450000D02*
X2700000Y2550000D01*
%TO.C,WP5*%
X8950000Y21200000D02*
X8950000Y18800000D01*
X8950000Y21200000D02*
X11050000Y21200000D01*
X8950000Y18800000D02*
X11050000Y18800000D01*
X11050000Y21200000D02*
X11050000Y18800000D01*
%TO.C,WP1*%
X2950000Y21200000D02*
X2950000Y18800000D01*
X2950000Y21200000D02*
X5050000Y21200000D01*
X2950000Y18800000D02*
X5050000Y18800000D01*
X5050000Y21200000D02*
X5050000Y18800000D01*
%TO.C,WP7*%
X17700000Y21200000D02*
X17700000Y18800000D01*
X17700000Y21200000D02*
X19800000Y21200000D01*
X17700000Y18800000D02*
X19800000Y18800000D01*
X19800000Y21200000D02*
X19800000Y18800000D01*
%TO.C,WP4*%
X34950000Y21200000D02*
X34950000Y18800000D01*
X34950000Y21200000D02*
X37050000Y21200000D01*
X34950000Y18800000D02*
X37050000Y18800000D01*
X37050000Y21200000D02*
X37050000Y18800000D01*
D12*
%TO.C,R1*%
X31480000Y6370000D02*
X38020000Y6370000D01*
X31480000Y6040000D02*
X31480000Y6370000D01*
X31480000Y3960000D02*
X31480000Y3630000D01*
X31480000Y3630000D02*
X38020000Y3630000D01*
X38020000Y6370000D02*
X38020000Y6040000D01*
X38020000Y3630000D02*
X38020000Y3960000D01*
%TO.C,RV1*%
X4611000Y7429000D02*
X4611000Y571000D01*
X4611000Y7429000D02*
X11723000Y7429000D01*
X4611000Y571000D02*
X11723000Y571000D01*
X11723000Y7429000D02*
X11723000Y571000D01*
D10*
%TO.C,WP3*%
X37450000Y21200000D02*
X37450000Y18800000D01*
X37450000Y21200000D02*
X39550000Y21200000D01*
X37450000Y18800000D02*
X39550000Y18800000D01*
X39550000Y21200000D02*
X39550000Y18800000D01*
%TO.C,WP10*%
X20200000Y21200000D02*
X20200000Y18800000D01*
X20200000Y21200000D02*
X22300000Y21200000D01*
X20200000Y18800000D02*
X22300000Y18800000D01*
X22300000Y21200000D02*
X22300000Y18800000D01*
%TO.C,WP12*%
X300000Y11050000D02*
X300000Y8950000D01*
X2700000Y11050000D02*
X300000Y11050000D01*
X2700000Y11050000D02*
X2700000Y8950000D01*
X2700000Y8950000D02*
X300000Y8950000D01*
%TO.C,WP2*%
X450000Y21200000D02*
X450000Y18800000D01*
X450000Y21200000D02*
X2550000Y21200000D01*
X450000Y18800000D02*
X2550000Y18800000D01*
X2550000Y21200000D02*
X2550000Y18800000D01*
%TO.C,WP6*%
X6450000Y21200000D02*
X6450000Y18800000D01*
X6450000Y21200000D02*
X8550000Y21200000D01*
X6450000Y18800000D02*
X8550000Y18800000D01*
X8550000Y21200000D02*
X8550000Y18800000D01*
%TO.C,WP9*%
X22700000Y21200000D02*
X22700000Y18800000D01*
X22700000Y21200000D02*
X24800000Y21200000D01*
X22700000Y18800000D02*
X24800000Y18800000D01*
X24800000Y21200000D02*
X24800000Y18800000D01*
%TD*%
D13*
X1000000Y21500000D02*
X39000000Y21500000D01*
X39000000Y0D02*
X1000000Y0D01*
X1000000Y0D02*
G75*
G02*
X0Y1000000I0J1000000D01*
G01*
X40000000Y20500000D02*
X40000000Y1000000D01*
X39000000Y21500000D02*
G75*
G02*
X40000000Y20500000I0J-1000000D01*
G01*
X0Y1000000D02*
X0Y20500000D01*
X0Y20500000D02*
G75*
G02*
X1000000Y21500000I1000000J0D01*
G01*
X40000000Y1000000D02*
G75*
G02*
X39000000Y0I-1000000J0D01*
G01*
M02*
