%TF.GenerationSoftware,KiCad,Pcbnew,9.0.2*%
%TF.CreationDate,2025-10-05T19:26:47-07:00*%
%TF.ProjectId,3pdt-pwr-breakout-neg-V2,33706474-2d70-4777-922d-627265616b6f,rev?*%
%TF.SameCoordinates,PX2d4cae0PY8d9ee20*%
%TF.FileFunction,Copper,L1,Top*%
%TF.FilePolarity,Positive*%
%FSLAX46Y46*%
G04 Gerber Fmt 4.6, Leading zero omitted, Abs format (unit mm)*
G04 Created by KiCad (PCBNEW 9.0.2) date 2025-10-05 19:26:47*
%MOMM*%
%LPD*%
G01*
G04 APERTURE LIST*
G04 Aperture macros list*
%AMRoundRect*
0 Rectangle with rounded corners*
0 $1 Rounding radius*
0 $2 $3 $4 $5 $6 $7 $8 $9 X,Y pos of 4 corners*
0 Add a 4 corners polygon primitive as box body*
4,1,4,$2,$3,$4,$5,$6,$7,$8,$9,$2,$3,0*
0 Add four circle primitives for the rounded corners*
1,1,$1+$1,$2,$3*
1,1,$1+$1,$4,$5*
1,1,$1+$1,$6,$7*
1,1,$1+$1,$8,$9*
0 Add four rect primitives between the rounded corners*
20,1,$1+$1,$2,$3,$4,$5,0*
20,1,$1+$1,$4,$5,$6,$7,0*
20,1,$1+$1,$6,$7,$8,$9,0*
20,1,$1+$1,$8,$9,$2,$3,0*%
G04 Aperture macros list end*
%TA.AperFunction,SMDPad,CuDef*%
%ADD10RoundRect,0.140000X0.140000X0.170000X-0.140000X0.170000X-0.140000X-0.170000X0.140000X-0.170000X0*%
%TD*%
%TA.AperFunction,SMDPad,CuDef*%
%ADD11RoundRect,0.150000X0.512500X0.150000X-0.512500X0.150000X-0.512500X-0.150000X0.512500X-0.150000X0*%
%TD*%
%TA.AperFunction,SMDPad,CuDef*%
%ADD12RoundRect,0.135000X-0.135000X-0.185000X0.135000X-0.185000X0.135000X0.185000X-0.135000X0.185000X0*%
%TD*%
%TA.AperFunction,SMDPad,CuDef*%
%ADD13RoundRect,0.250000X0.325000X0.650000X-0.325000X0.650000X-0.325000X-0.650000X0.325000X-0.650000X0*%
%TD*%
%TA.AperFunction,ComponentPad*%
%ADD14O,2.850000X1.600000*%
%TD*%
%TA.AperFunction,ComponentPad*%
%ADD15R,1.800000X1.800000*%
%TD*%
%TA.AperFunction,ComponentPad*%
%ADD16C,1.800000*%
%TD*%
%TA.AperFunction,ComponentPad*%
%ADD17RoundRect,0.247500X0.727500X-0.577500X0.727500X0.577500X-0.727500X0.577500X-0.727500X-0.577500X0*%
%TD*%
%TA.AperFunction,ComponentPad*%
%ADD18RoundRect,0.247500X-0.727500X0.577500X-0.727500X-0.577500X0.727500X-0.577500X0.727500X0.577500X0*%
%TD*%
%TA.AperFunction,ComponentPad*%
%ADD19RoundRect,0.247500X-0.577500X-0.727500X0.577500X-0.727500X0.577500X0.727500X-0.577500X0.727500X0*%
%TD*%
%TA.AperFunction,ComponentPad*%
%ADD20C,1.600000*%
%TD*%
%TA.AperFunction,ComponentPad*%
%ADD21O,1.600000X1.600000*%
%TD*%
%TA.AperFunction,ComponentPad*%
%ADD22C,1.440000*%
%TD*%
%TA.AperFunction,ViaPad*%
%ADD23C,0.500000*%
%TD*%
%TA.AperFunction,Conductor*%
%ADD24C,0.200000*%
%TD*%
%TA.AperFunction,Conductor*%
%ADD25C,0.250000*%
%TD*%
%TA.AperFunction,Conductor*%
%ADD26C,0.500000*%
%TD*%
%TA.AperFunction,Conductor*%
%ADD27C,0.300000*%
%TD*%
%TA.AperFunction,Profile*%
%ADD28C,0.100000*%
%TD*%
G04 APERTURE END LIST*
D10*
%TO.P,C12,1*%
%TO.N,-9V*%
X30000000Y15500000D03*
%TO.P,C12,2*%
%TO.N,GND*%
X29040000Y15500000D03*
%TD*%
D11*
%TO.P,U4,1,NC*%
%TO.N,unconnected-(U4-NC-Pad1)*%
X32500000Y11300000D03*
%TO.P,U4,2,GND*%
%TO.N,GND*%
X32500000Y12250000D03*
%TO.P,U4,3,ADJ*%
%TO.N,Net-(U4-ADJ)*%
X32500000Y13200000D03*
%TO.P,U4,4,-OUT*%
%TO.N,-9V*%
X30225000Y13200000D03*
%TO.P,U4,5,-IN*%
%TO.N,-9V_PRE*%
X30225000Y11300000D03*
%TD*%
D12*
%TO.P,R11,1*%
%TO.N,-9V*%
X30980000Y15500000D03*
%TO.P,R11,2*%
%TO.N,Net-(U4-ADJ)*%
X32000000Y15500000D03*
%TD*%
%TO.P,R10,1*%
%TO.N,Net-(U4-ADJ)*%
X32250000Y14500000D03*
%TO.P,R10,2*%
%TO.N,GND*%
X33270000Y14500000D03*
%TD*%
D13*
%TO.P,C11,1*%
%TO.N,-9V_PRE*%
X30950000Y9000000D03*
%TO.P,C11,2*%
%TO.N,GND*%
X28000000Y9000000D03*
%TD*%
D14*
%TO.P,SW1,1,A*%
%TO.N,/IN*%
X14650000Y13700000D03*
%TO.P,SW1,2,B*%
%TO.N,/OUT*%
X14650000Y9000000D03*
%TO.P,SW1,3,C*%
%TO.N,/RETURN*%
X14650000Y4300000D03*
%TO.P,SW1,4,A*%
%TO.N,/GND_SW*%
X19950000Y13700000D03*
%TO.P,SW1,5,B*%
%TO.N,/SEND*%
X19950000Y9000000D03*
%TO.P,SW1,6,C*%
%TO.N,/IN*%
X19950000Y4300000D03*
%TO.P,SW1,7,A*%
%TO.N,/GND_SW*%
X25250000Y13700000D03*
%TO.P,SW1,8,B*%
%TO.N,GND*%
X25250000Y9000000D03*
%TO.P,SW1,9,C*%
%TO.N,/LED-*%
X25250000Y4300000D03*
%TD*%
D15*
%TO.P,D2,1,K*%
%TO.N,/LED-*%
X37000000Y10525000D03*
D16*
%TO.P,D2,2,A*%
%TO.N,/LED+*%
X37000000Y7985000D03*
%TD*%
D17*
%TO.P,WP13,1,1*%
%TO.N,/FB_A*%
X1500000Y4000000D03*
%TD*%
D18*
%TO.P,WP11,1,1*%
%TO.N,+9V*%
X1500000Y12500000D03*
%TD*%
D17*
%TO.P,WP14,1,1*%
%TO.N,Net-(R7-Pad1)*%
X1500000Y6500000D03*
%TD*%
D19*
%TO.P,WP8,1,1*%
%TO.N,/SEND*%
X16250000Y20000000D03*
%TD*%
D17*
%TO.P,WP15,1,1*%
%TO.N,Net-(R8-Pad1)*%
X1500000Y1500000D03*
%TD*%
D19*
%TO.P,WP5,1,1*%
%TO.N,/IN*%
X10000000Y20000000D03*
%TD*%
%TO.P,WP1,1,1*%
%TO.N,+9VIN*%
X4000000Y20000000D03*
%TD*%
%TO.P,WP7,1,1*%
%TO.N,/RETURN*%
X18750000Y20000000D03*
%TD*%
%TO.P,WP4,1,1*%
%TO.N,GND*%
X36000000Y20000000D03*
%TD*%
D20*
%TO.P,R1,1*%
%TO.N,+9V*%
X31000000Y5000000D03*
D21*
%TO.P,R1,2*%
%TO.N,/LED+*%
X38500000Y5000000D03*
%TD*%
D22*
%TO.P,RV1,1,1*%
%TO.N,/FB_A*%
X8040000Y1460000D03*
%TO.P,RV1,2,2*%
X5500000Y4000000D03*
%TO.P,RV1,3,3*%
%TO.N,/FB*%
X8040000Y6540000D03*
%TD*%
D19*
%TO.P,WP3,1,1*%
%TO.N,/OUT*%
X38500000Y20000000D03*
%TD*%
%TO.P,WP10,1,1*%
%TO.N,GND*%
X21250000Y20000000D03*
%TD*%
D18*
%TO.P,WP12,1,1*%
%TO.N,GND*%
X1500000Y10000000D03*
%TD*%
D19*
%TO.P,WP2,1,1*%
%TO.N,GND*%
X1500000Y20000000D03*
%TD*%
%TO.P,WP6,1,1*%
%TO.N,GND*%
X7500000Y20000000D03*
%TD*%
%TO.P,WP9,1,1*%
%TO.N,-9V*%
X23750000Y20000000D03*
%TD*%
D23*
%TO.N,GND*%
X29200000Y10200000D03*
%TO.N,-9V_PRE*%
X30225000Y10400000D03*
%TO.N,+4V5*%
X4500000Y3000000D03*
X33900000Y8800000D03*
X31000000Y7300000D03*
X32061283Y8059236D03*
X8200000Y9300000D03*
%TO.N,GND*%
X4800000Y9700000D03*
X6400000Y7500000D03*
%TO.N,-9V*%
X31085000Y17000000D03*
%TO.N,-9V_PRE*%
X34250000Y15750000D03*
%TO.N,GND*%
X17500000Y13750000D03*
X33250000Y750000D03*
X18800000Y2900000D03*
X9600000Y800000D03*
X10250000Y14000000D03*
X35750000Y12250000D03*
X22500000Y2900000D03*
X13750000Y3000000D03*
X12000000Y9000000D03*
X39250000Y6250000D03*
X28400000Y2400000D03*
X14250000Y18000000D03*
X7000000Y14250000D03*
X2500000Y18250000D03*
X29500000Y14000000D03*
X39250000Y10250000D03*
X9250000Y5750000D03*
X11500000Y3000000D03*
X10250000Y16000000D03*
X34000000Y12250000D03*
X29200000Y12400000D03*
X3250000Y13500000D03*
X22500000Y4250000D03*
X29500000Y16250000D03*
X39250000Y8250000D03*
X17500000Y11000000D03*
X17500000Y9000000D03*
X39250000Y12250000D03*
X8250000Y18000000D03*
X6500000Y11750000D03*
X39250000Y2750000D03*
X10250000Y18000000D03*
X35200000Y16200000D03*
X12000000Y15000000D03*
X10250000Y12000000D03*
X20000000Y6500000D03*
X11500000Y6250000D03*
X18500000Y12000000D03*
X39250000Y17000000D03*
X3750000Y5250000D03*
X3000000Y750000D03*
X31250000Y750000D03*
X25250000Y6750000D03*
X27750000Y18000000D03*
X2500000Y16500000D03*
X12750000Y6250000D03*
X32500000Y17500000D03*
X26250000Y18000000D03*
X16250000Y12000000D03*
X9000000Y3000000D03*
X22250000Y18000000D03*
X35250000Y750000D03*
X24250000Y15250000D03*
X24250000Y18000000D03*
X12250000Y18000000D03*
X22000000Y14750000D03*
X12000000Y11000000D03*
X25250000Y11500000D03*
X37250000Y12250000D03*
X29500000Y18000000D03*
X10250000Y10000000D03*
X16250000Y18000000D03*
X20250000Y18000000D03*
X39250000Y18000000D03*
X22500000Y9000000D03*
X39000000Y1000000D03*
X25200000Y2400000D03*
X5600000Y5500000D03*
X29500000Y8000000D03*
X26250000Y16000000D03*
X18250000Y18000000D03*
X3000000Y2500000D03*
X37250000Y750000D03*
%TO.N,/SEND*%
X16750000Y12750000D03*
X21800000Y10300000D03*
%TO.N,/FB*%
X6500000Y3250000D03*
X6553217Y4825000D03*
%TO.N,GND*%
X35012749Y7500000D03*
%TD*%
D24*
%TO.N,/SEND*%
X16250000Y18850000D02*
X16250000Y20000000D01*
X16900000Y17300000D02*
X16900000Y18200000D01*
X16900000Y18200000D02*
X16250000Y18850000D01*
X16750000Y17150000D02*
X16900000Y17300000D01*
X16750000Y12750000D02*
X16750000Y17150000D01*
D25*
X20500000Y9000000D02*
X19950000Y9000000D01*
X21800000Y10300000D02*
X20500000Y9000000D01*
D26*
%TO.N,-9V_PRE*%
X30950000Y9350000D02*
X30950000Y9000000D01*
X30225000Y10400000D02*
X30225000Y11300000D01*
X30225000Y10400000D02*
X30225000Y10075000D01*
X30225000Y10075000D02*
X30950000Y9350000D01*
X31000000Y9050000D02*
X30950000Y9000000D01*
X31000000Y9562075D02*
X31000000Y9050000D01*
D27*
%TO.N,+9V*%
X31000000Y2100000D02*
X31000000Y5000000D01*
X30000000Y1100000D02*
X31000000Y2100000D01*
X9200000Y4300000D02*
X12400000Y1100000D01*
X8200000Y4300000D02*
X9200000Y4300000D01*
X3600000Y8900000D02*
X8200000Y4300000D01*
X3170654Y12500000D02*
X3600000Y12070654D01*
X12400000Y1100000D02*
X30000000Y1100000D01*
X1500000Y12500000D02*
X3170654Y12500000D01*
X3600000Y12070654D02*
X3600000Y8900000D01*
%TO.N,/LED-*%
X35750000Y7316597D02*
X35750000Y9275000D01*
X34933403Y6500000D02*
X35750000Y7316597D01*
X27450000Y6500000D02*
X34933403Y6500000D01*
X25250000Y4300000D02*
X27450000Y6500000D01*
X35750000Y9275000D02*
X37000000Y10525000D01*
D26*
%TO.N,GND*%
X28000000Y9000000D02*
X25250000Y9000000D01*
%TO.N,-9V*%
X30000000Y14750000D02*
X30000000Y15500000D01*
X30251000Y14499000D02*
X30000000Y14750000D01*
X30251000Y13226000D02*
X30251000Y14499000D01*
X30000000Y15500000D02*
X30980000Y15500000D01*
X30980000Y15500000D02*
X30980000Y16895000D01*
X30225000Y13200000D02*
X30251000Y13226000D01*
X30980000Y16895000D02*
X31085000Y17000000D01*
D24*
%TO.N,Net-(U4-ADJ)*%
X32250000Y15000000D02*
X32000000Y15250000D01*
X32250000Y14250000D02*
X32250000Y15000000D01*
X32250000Y13450000D02*
X32500000Y13200000D01*
X32250000Y14250000D02*
X32250000Y13450000D01*
D26*
%TO.N,GND*%
X34000000Y12250000D02*
X32500000Y12250000D01*
D24*
%TO.N,/OUT*%
X37750000Y17750000D02*
X38500000Y18500000D01*
X35000000Y17750000D02*
X37750000Y17750000D01*
X32750000Y20000000D02*
X35000000Y17750000D01*
X28000000Y20000000D02*
X32750000Y20000000D01*
X27000000Y19000000D02*
X28000000Y20000000D01*
X27000000Y17500000D02*
X27000000Y19000000D01*
X38500000Y18500000D02*
X38500000Y20000000D01*
X22750000Y13000000D02*
X22750000Y15000000D01*
X22750000Y15000000D02*
X24750000Y17000000D01*
X26500000Y17000000D02*
X27000000Y17500000D01*
X21750000Y12000000D02*
X22750000Y13000000D01*
X16500000Y9000000D02*
X19500000Y12000000D01*
X19500000Y12000000D02*
X21750000Y12000000D01*
X14650000Y9000000D02*
X16500000Y9000000D01*
X24750000Y17000000D02*
X26500000Y17000000D01*
%TO.N,/LED+*%
X37000000Y7985000D02*
X38485000Y6500000D01*
X38500000Y6500000D02*
X38500000Y5000000D01*
X38485000Y6500000D02*
X38500000Y6500000D01*
%TO.N,/IN*%
X13000000Y17000000D02*
X14650000Y15350000D01*
X14650000Y15350000D02*
X14650000Y13700000D01*
X19950000Y3700000D02*
X19950000Y2950000D01*
X12700000Y13700000D02*
X14650000Y13700000D01*
X12125000Y7125000D02*
X11250000Y8000000D01*
X13000000Y19000000D02*
X13000000Y17000000D01*
X11250000Y8000000D02*
X11250000Y12250000D01*
X19250000Y2250000D02*
X13500000Y2250000D01*
X11250000Y12250000D02*
X12700000Y13700000D01*
D25*
X19950000Y4300000D02*
X19950000Y3700000D01*
D24*
X13500000Y2250000D02*
X12125000Y3625000D01*
X12000000Y20000000D02*
X13000000Y19000000D01*
X19950000Y2950000D02*
X19250000Y2250000D01*
X12125000Y3625000D02*
X12125000Y7125000D01*
X10000000Y20000000D02*
X12000000Y20000000D01*
%TO.N,/RETURN*%
X18750000Y20000000D02*
X18250000Y20000000D01*
X16312500Y10750000D02*
X18120317Y12557817D01*
X13500000Y10750000D02*
X16312500Y10750000D01*
X19000000Y19750000D02*
X18750000Y20000000D01*
X18120317Y12557817D02*
X18120317Y16620317D01*
X19000000Y17500000D02*
X19000000Y19750000D01*
X12750000Y10000000D02*
X13500000Y10750000D01*
X14650000Y6350000D02*
X12750000Y8250000D01*
X14650000Y4300000D02*
X14650000Y6350000D01*
X12750000Y8250000D02*
X12750000Y10000000D01*
X18120317Y16620317D02*
X19000000Y17500000D01*
%TO.N,/FB*%
X7000000Y3750000D02*
X6500000Y3250000D01*
X6553217Y4825000D02*
X7000000Y4378217D01*
X7000000Y4378217D02*
X7000000Y3750000D01*
%TD*%
%TA.AperFunction,Conductor*%
%TO.N,GND*%
G36*
X3026435Y12077826D02*
G01*
X3177826Y11926435D01*
X3199500Y11874109D01*
X3199500Y8952727D01*
X3199500Y8847273D01*
X3222200Y8762554D01*
X3226793Y8745412D01*
X3226795Y8745408D01*
X3279517Y8654091D01*
X3279518Y8654090D01*
X3279520Y8654087D01*
X4922107Y7011500D01*
X6491951Y5441656D01*
X6513625Y5389330D01*
X6491951Y5337004D01*
X6458778Y5317852D01*
X6360035Y5291394D01*
X6360026Y5291390D01*
X6245902Y5225500D01*
X6152717Y5132315D01*
X6086827Y5018191D01*
X6086823Y5018182D01*
X6057824Y4909955D01*
X6023346Y4865022D01*
X5967193Y4857630D01*
X5958028Y4860741D01*
X5783088Y4933203D01*
X5783078Y4933206D01*
X5657518Y4958181D01*
X5595586Y4970500D01*
X5404414Y4970500D01*
X5351260Y4959928D01*
X5216921Y4933206D01*
X5216911Y4933203D01*
X5040296Y4860047D01*
X4881342Y4753838D01*
X4881341Y4753836D01*
X4746164Y4618659D01*
X4746162Y4618658D01*
X4639953Y4459704D01*
X4566797Y4283089D01*
X4566794Y4283079D01*
X4547091Y4184023D01*
X4529500Y4095586D01*
X4529500Y3904414D01*
X4534789Y3877826D01*
X4566794Y3716922D01*
X4566797Y3716912D01*
X4614056Y3602818D01*
X4614056Y3546181D01*
X4574007Y3506133D01*
X4545689Y3500500D01*
X4434106Y3500500D01*
X4306818Y3466394D01*
X4306809Y3466390D01*
X4192685Y3400500D01*
X4099500Y3307315D01*
X4033610Y3193191D01*
X4033606Y3193182D01*
X3999500Y3065895D01*
X3999500Y2934106D01*
X4033606Y2806819D01*
X4033610Y2806810D01*
X4075193Y2734787D01*
X4099500Y2692686D01*
X4192686Y2599500D01*
X4306814Y2533608D01*
X4434105Y2499501D01*
X4434106Y2499500D01*
X4434108Y2499500D01*
X4565894Y2499500D01*
X4565894Y2499501D01*
X4693186Y2533608D01*
X4807314Y2599500D01*
X4900500Y2692686D01*
X4966392Y2806814D01*
X5000499Y2934106D01*
X5000500Y2934106D01*
X5000500Y3045690D01*
X5022174Y3098016D01*
X5074500Y3119690D01*
X5102815Y3114058D01*
X5216916Y3066796D01*
X5216920Y3066796D01*
X5216921Y3066795D01*
X5217198Y3066740D01*
X5404414Y3029500D01*
X5404416Y3029500D01*
X5595584Y3029500D01*
X5595586Y3029500D01*
X5783084Y3066796D01*
X5928215Y3126911D01*
X5984852Y3126911D01*
X6024900Y3086863D01*
X6028011Y3077699D01*
X6033607Y3056816D01*
X6033608Y3056813D01*
X6099500Y2942686D01*
X6192686Y2849500D01*
X6306814Y2783608D01*
X6434105Y2749501D01*
X6434106Y2749500D01*
X6434108Y2749500D01*
X6565894Y2749500D01*
X6565894Y2749501D01*
X6693186Y2783608D01*
X6807314Y2849500D01*
X6900500Y2942686D01*
X6966392Y3056814D01*
X7000499Y3184106D01*
X7000500Y3184106D01*
X7000500Y3224166D01*
X7022174Y3276492D01*
X7146182Y3400500D01*
X7280470Y3534788D01*
X7326614Y3614712D01*
X7350499Y3703854D01*
X7350500Y3703854D01*
X7350500Y4404455D01*
X7372174Y4456781D01*
X7424500Y4478455D01*
X7476826Y4456781D01*
X7879519Y4054088D01*
X7879520Y4054087D01*
X7954087Y3979520D01*
X8045413Y3926793D01*
X8147270Y3899501D01*
X8147271Y3899500D01*
X8147273Y3899500D01*
X8252727Y3899500D01*
X9003455Y3899500D01*
X9055781Y3877826D01*
X12079519Y854088D01*
X12079520Y854087D01*
X12154087Y779520D01*
X12245413Y726793D01*
X12347270Y699501D01*
X12347271Y699500D01*
X12347273Y699500D01*
X30052726Y699500D01*
X30052727Y699500D01*
X30154588Y726793D01*
X30245913Y779520D01*
X31245910Y1779519D01*
X31245913Y1779520D01*
X31320480Y1854087D01*
X31373207Y1945413D01*
X31379669Y1969530D01*
X31400501Y2047273D01*
X31400501Y2152727D01*
X31400501Y2157256D01*
X31400500Y2157274D01*
X31400500Y3979395D01*
X31422174Y4031721D01*
X31446182Y4047762D01*
X31461452Y4054087D01*
X31497598Y4069059D01*
X31669655Y4184023D01*
X31815977Y4330345D01*
X31930941Y4502402D01*
X32010130Y4693580D01*
X32050500Y4896535D01*
X32050500Y5103465D01*
X32010130Y5306420D01*
X31930941Y5497598D01*
X31815977Y5669655D01*
X31669655Y5815977D01*
X31497598Y5930941D01*
X31434364Y5957134D01*
X31394317Y5997182D01*
X31394317Y6053819D01*
X31434366Y6093867D01*
X31462684Y6099500D01*
X34986129Y6099500D01*
X34986130Y6099500D01*
X35087991Y6126793D01*
X35179316Y6179520D01*
X35995910Y6996116D01*
X35995913Y6996117D01*
X36070480Y7070684D01*
X36101608Y7124601D01*
X36146541Y7159078D01*
X36202694Y7151686D01*
X36218020Y7139926D01*
X36250499Y7107447D01*
X36397006Y7001004D01*
X36558361Y6918789D01*
X36558364Y6918788D01*
X36558363Y6918788D01*
X36730580Y6862832D01*
X36730586Y6862831D01*
X36730591Y6862829D01*
X36849833Y6843943D01*
X36909453Y6834500D01*
X36909454Y6834500D01*
X37090547Y6834500D01*
X37135261Y6841583D01*
X37269409Y6862829D01*
X37269416Y6862832D01*
X37269419Y6862832D01*
X37385350Y6900500D01*
X37441639Y6918789D01*
X37479118Y6937887D01*
X37535581Y6942330D01*
X37565040Y6924278D01*
X38127826Y6361492D01*
X38149500Y6309166D01*
X38149500Y6041317D01*
X38127826Y5988991D01*
X38103819Y5972950D01*
X38002405Y5930943D01*
X37830345Y5815978D01*
X37830344Y5815976D01*
X37684024Y5669656D01*
X37684022Y5669655D01*
X37569059Y5497599D01*
X37489870Y5306421D01*
X37489868Y5306414D01*
X37455238Y5132314D01*
X37449500Y5103465D01*
X37449500Y4896535D01*
X37452811Y4879890D01*
X37489868Y4693587D01*
X37489870Y4693580D01*
X37569059Y4502402D01*
X37634504Y4404455D01*
X37684023Y4330345D01*
X37830345Y4184023D01*
X38002402Y4069059D01*
X38193580Y3989870D01*
X38396535Y3949500D01*
X38396536Y3949500D01*
X38603464Y3949500D01*
X38603465Y3949500D01*
X38806420Y3989870D01*
X38997598Y4069059D01*
X39169655Y4184023D01*
X39315977Y4330345D01*
X39430941Y4502402D01*
X39457133Y4565636D01*
X39497181Y4605684D01*
X39553818Y4605684D01*
X39593867Y4565636D01*
X39599500Y4537317D01*
X39599500Y1004160D01*
X39599035Y995874D01*
X39585402Y874880D01*
X39581714Y858725D01*
X39542885Y747760D01*
X39535696Y732831D01*
X39473144Y633279D01*
X39462812Y620323D01*
X39379677Y537188D01*
X39366721Y526856D01*
X39267169Y464304D01*
X39252240Y457115D01*
X39162670Y425773D01*
X39141273Y418286D01*
X39125120Y414598D01*
X39004127Y400965D01*
X38995841Y400500D01*
X8390201Y400500D01*
X8337875Y422174D01*
X8316201Y474500D01*
X8337875Y526826D01*
X8361883Y542867D01*
X8499704Y599954D01*
X8658658Y706163D01*
X8793837Y841342D01*
X8900046Y1000296D01*
X8973204Y1176916D01*
X9010500Y1364414D01*
X9010500Y1555586D01*
X8973204Y1743084D01*
X8900046Y1919704D01*
X8793837Y2078658D01*
X8658658Y2213837D01*
X8580751Y2265893D01*
X8499703Y2320047D01*
X8323088Y2393203D01*
X8323078Y2393206D01*
X8197518Y2418181D01*
X8135586Y2430500D01*
X7944414Y2430500D01*
X7891260Y2419928D01*
X7756921Y2393206D01*
X7756911Y2393203D01*
X7580296Y2320047D01*
X7421342Y2213838D01*
X7421341Y2213836D01*
X7286164Y2078659D01*
X7286162Y2078658D01*
X7179953Y1919704D01*
X7106797Y1743089D01*
X7106794Y1743079D01*
X7069500Y1555585D01*
X7069500Y1364416D01*
X7106794Y1176922D01*
X7106797Y1176912D01*
X7179953Y1000297D01*
X7286162Y841343D01*
X7421342Y706163D01*
X7580296Y599954D01*
X7718117Y542867D01*
X7758166Y502819D01*
X7758166Y446182D01*
X7718118Y406133D01*
X7689799Y400500D01*
X2583524Y400500D01*
X2531198Y422174D01*
X2509524Y474500D01*
X2531198Y526826D01*
X2539177Y533740D01*
X2543783Y537188D01*
X2583260Y566740D01*
X2669079Y681380D01*
X2675838Y699500D01*
X2705683Y779521D01*
X2719123Y815554D01*
X2725500Y874868D01*
X2725500Y2125132D01*
X2719123Y2184446D01*
X2688745Y2265893D01*
X2669080Y2318619D01*
X2669079Y2318620D01*
X2583260Y2433260D01*
X2468620Y2519079D01*
X2468619Y2519080D01*
X2468618Y2519081D01*
X2334450Y2569122D01*
X2334447Y2569123D01*
X2334446Y2569123D01*
X2304789Y2572312D01*
X2275133Y2575500D01*
X2275132Y2575500D01*
X724868Y2575500D01*
X724867Y2575500D01*
X665554Y2569123D01*
X665549Y2569122D01*
X531381Y2519081D01*
X531380Y2519080D01*
X518847Y2509697D01*
X463969Y2495690D01*
X415260Y2524590D01*
X400500Y2568937D01*
X400500Y2931064D01*
X422174Y2983390D01*
X474500Y3005064D01*
X518849Y2990302D01*
X531379Y2980921D01*
X531381Y2980920D01*
X633893Y2942686D01*
X665554Y2930877D01*
X719109Y2925120D01*
X724867Y2924500D01*
X724868Y2924500D01*
X2275133Y2924500D01*
X2280381Y2925065D01*
X2334446Y2930877D01*
X2423895Y2964240D01*
X2468618Y2980920D01*
X2468618Y2980921D01*
X2468620Y2980921D01*
X2583260Y3066740D01*
X2669079Y3181380D01*
X2670097Y3184108D01*
X2696470Y3254818D01*
X2719123Y3315554D01*
X2725500Y3374868D01*
X2725500Y4625132D01*
X2719123Y4684446D01*
X2693242Y4753837D01*
X2669080Y4818619D01*
X2669079Y4818620D01*
X2639876Y4857630D01*
X2583260Y4933260D01*
X2481153Y5009697D01*
X2468619Y5019080D01*
X2468618Y5019081D01*
X2334450Y5069122D01*
X2334447Y5069123D01*
X2334446Y5069123D01*
X2304789Y5072312D01*
X2275133Y5075500D01*
X2275132Y5075500D01*
X724868Y5075500D01*
X724867Y5075500D01*
X665554Y5069123D01*
X665549Y5069122D01*
X531381Y5019081D01*
X531380Y5019080D01*
X518847Y5009697D01*
X463969Y4995690D01*
X415260Y5024590D01*
X400500Y5068937D01*
X400500Y5431064D01*
X422174Y5483390D01*
X474500Y5505064D01*
X518849Y5490302D01*
X531379Y5480921D01*
X531381Y5480920D01*
X636654Y5441656D01*
X665554Y5430877D01*
X719109Y5425120D01*
X724867Y5424500D01*
X724868Y5424500D01*
X2275133Y5424500D01*
X2280381Y5425065D01*
X2334446Y5430877D01*
X2423895Y5464240D01*
X2468618Y5480920D01*
X2468618Y5480921D01*
X2468620Y5480921D01*
X2583260Y5566740D01*
X2669079Y5681380D01*
X2719123Y5815554D01*
X2725500Y5874868D01*
X2725500Y7125132D01*
X2719123Y7184446D01*
X2685123Y7275605D01*
X2669080Y7318619D01*
X2669079Y7318620D01*
X2652915Y7340212D01*
X2583260Y7433260D01*
X2468620Y7519079D01*
X2468619Y7519080D01*
X2468618Y7519081D01*
X2334450Y7569122D01*
X2334447Y7569123D01*
X2334446Y7569123D01*
X2304789Y7572312D01*
X2275133Y7575500D01*
X2275132Y7575500D01*
X724868Y7575500D01*
X724867Y7575500D01*
X665554Y7569123D01*
X665549Y7569122D01*
X531381Y7519081D01*
X531380Y7519080D01*
X518847Y7509697D01*
X463969Y7495690D01*
X415260Y7524590D01*
X400500Y7568937D01*
X400500Y9080813D01*
X422174Y9133139D01*
X474500Y9154813D01*
X478037Y9154813D01*
X1087571Y9764348D01*
X1119905Y9708343D01*
X1208343Y9619905D01*
X1264346Y9587572D01*
X707167Y9030393D01*
X741215Y9025000D01*
X2258783Y9025000D01*
X2292830Y9030394D01*
X1735652Y9587572D01*
X1791657Y9619905D01*
X1880095Y9708343D01*
X1912428Y9764348D01*
X2521963Y9154813D01*
X2553092Y9185943D01*
X2610257Y9298135D01*
X2625000Y9391216D01*
X2625000Y10608785D01*
X2610257Y10701866D01*
X2553092Y10814058D01*
X2521963Y10845187D01*
X1912428Y10235653D01*
X1880095Y10291657D01*
X1791657Y10380095D01*
X1735651Y10412430D01*
X2292830Y10969608D01*
X2292830Y10969609D01*
X2258786Y10975000D01*
X741215Y10975000D01*
X707168Y10969609D01*
X707168Y10969608D01*
X1264347Y10412429D01*
X1208343Y10380095D01*
X1119905Y10291657D01*
X1087571Y10235653D01*
X478037Y10845187D01*
X474500Y10845187D01*
X422174Y10866861D01*
X400500Y10919187D01*
X400500Y11431064D01*
X422174Y11483390D01*
X474500Y11505064D01*
X518849Y11490302D01*
X531379Y11480921D01*
X531381Y11480920D01*
X641764Y11439751D01*
X665554Y11430877D01*
X719109Y11425120D01*
X724867Y11424500D01*
X724868Y11424500D01*
X2275133Y11424500D01*
X2280381Y11425065D01*
X2334446Y11430877D01*
X2423895Y11464240D01*
X2468618Y11480920D01*
X2468618Y11480921D01*
X2468620Y11480921D01*
X2583260Y11566740D01*
X2669079Y11681380D01*
X2671677Y11688344D01*
X2710089Y11791333D01*
X2719123Y11815554D01*
X2725500Y11874868D01*
X2725500Y12025500D01*
X2747174Y12077826D01*
X2799500Y12099500D01*
X2974109Y12099500D01*
X3026435Y12077826D01*
G37*
%TD.AperFunction*%
%TA.AperFunction,Conductor*%
G36*
X2983389Y21077826D02*
G01*
X3005063Y21025500D01*
X2990303Y20981153D01*
X2980920Y20968620D01*
X2980919Y20968619D01*
X2930878Y20834451D01*
X2930877Y20834446D01*
X2924500Y20775133D01*
X2924500Y19224868D01*
X2930877Y19165555D01*
X2930878Y19165550D01*
X2980919Y19031382D01*
X2980920Y19031381D01*
X2980921Y19031380D01*
X3066740Y18916740D01*
X3102804Y18889743D01*
X3181380Y18830921D01*
X3181381Y18830920D01*
X3291764Y18789751D01*
X3315554Y18780877D01*
X3369109Y18775120D01*
X3374867Y18774500D01*
X3374868Y18774500D01*
X4625133Y18774500D01*
X4630381Y18775065D01*
X4684446Y18780877D01*
X4800509Y18824166D01*
X4818618Y18830920D01*
X4818618Y18830921D01*
X4818620Y18830921D01*
X4933260Y18916740D01*
X5019079Y19031380D01*
X5019216Y19031749D01*
X5020263Y19034552D01*
X5020263Y19034553D01*
X5057833Y19135285D01*
X5069123Y19165554D01*
X5075500Y19224868D01*
X5075500Y20775132D01*
X5069123Y20834446D01*
X5054452Y20873782D01*
X5019080Y20968619D01*
X5019079Y20968620D01*
X5009697Y20981153D01*
X4995690Y21036031D01*
X5024590Y21084740D01*
X5068937Y21099500D01*
X6580813Y21099500D01*
X6633139Y21077826D01*
X6654813Y21025500D01*
X6654813Y21021963D01*
X7264347Y20412429D01*
X7208343Y20380095D01*
X7119905Y20291657D01*
X7087571Y20235653D01*
X6530392Y20792832D01*
X6530391Y20792832D01*
X6525000Y20758786D01*
X6525000Y19241214D01*
X6530391Y19207170D01*
X6530392Y19207170D01*
X7087570Y19764349D01*
X7119905Y19708343D01*
X7208343Y19619905D01*
X7264347Y19587572D01*
X6654813Y18978037D01*
X6685942Y18946908D01*
X6798134Y18889743D01*
X6891215Y18875000D01*
X8108785Y18875000D01*
X8201865Y18889743D01*
X8314057Y18946908D01*
X8345187Y18978037D01*
X7735652Y19587572D01*
X7791657Y19619905D01*
X7880095Y19708343D01*
X7912428Y19764348D01*
X8469606Y19207170D01*
X8475000Y19241217D01*
X8475000Y20758785D01*
X8469607Y20792833D01*
X7912428Y20235654D01*
X7880095Y20291657D01*
X7791657Y20380095D01*
X7735652Y20412429D01*
X8345187Y21021963D01*
X8345187Y21025500D01*
X8366861Y21077826D01*
X8419187Y21099500D01*
X8931063Y21099500D01*
X8983389Y21077826D01*
X9005063Y21025500D01*
X8990303Y20981153D01*
X8980920Y20968620D01*
X8980919Y20968619D01*
X8930878Y20834451D01*
X8930877Y20834446D01*
X8924500Y20775133D01*
X8924500Y19224868D01*
X8930877Y19165555D01*
X8930878Y19165550D01*
X8980919Y19031382D01*
X8980920Y19031381D01*
X8980921Y19031380D01*
X9066740Y18916740D01*
X9102804Y18889743D01*
X9181380Y18830921D01*
X9181381Y18830920D01*
X9291764Y18789751D01*
X9315554Y18780877D01*
X9369109Y18775120D01*
X9374867Y18774500D01*
X9374868Y18774500D01*
X10625133Y18774500D01*
X10630381Y18775065D01*
X10684446Y18780877D01*
X10800509Y18824166D01*
X10818618Y18830920D01*
X10818618Y18830921D01*
X10818620Y18830921D01*
X10933260Y18916740D01*
X11019079Y19031380D01*
X11020263Y19034553D01*
X11057833Y19135285D01*
X11069123Y19165554D01*
X11075500Y19224868D01*
X11075500Y19575500D01*
X11097174Y19627826D01*
X11149500Y19649500D01*
X11824166Y19649500D01*
X11876492Y19627826D01*
X12627826Y18876492D01*
X12649500Y18824166D01*
X12649500Y16953855D01*
X12654791Y16934110D01*
X12654791Y16934108D01*
X12673384Y16864717D01*
X12673386Y16864712D01*
X12719530Y16784788D01*
X13503818Y16000500D01*
X14277826Y15226493D01*
X14299500Y15174167D01*
X14299500Y14824500D01*
X14277826Y14772174D01*
X14225500Y14750500D01*
X13921535Y14750500D01*
X13881385Y14742514D01*
X13718586Y14710132D01*
X13718579Y14710130D01*
X13527401Y14630941D01*
X13355345Y14515978D01*
X13355344Y14515976D01*
X13209024Y14369656D01*
X13209022Y14369655D01*
X13094058Y14197598D01*
X13052051Y14096182D01*
X13012003Y14056133D01*
X12983684Y14050500D01*
X12653856Y14050500D01*
X12595217Y14034788D01*
X12595216Y14034789D01*
X12564715Y14026615D01*
X12564711Y14026614D01*
X12484787Y13980470D01*
X10969528Y12465210D01*
X10931591Y12399500D01*
X10923387Y12385291D01*
X10923384Y12385284D01*
X10899500Y12296147D01*
X10899500Y7953854D01*
X10912280Y7906160D01*
X10912280Y7906159D01*
X10923384Y7864717D01*
X10923386Y7864712D01*
X10969530Y7784788D01*
X11752826Y7001492D01*
X11774500Y6949166D01*
X11774500Y3578857D01*
X11786307Y3534789D01*
X11793986Y3506133D01*
X11798386Y3489712D01*
X11844530Y3409788D01*
X13284788Y1969530D01*
X13364712Y1923386D01*
X13364713Y1923386D01*
X13364715Y1923385D01*
X13378453Y1919704D01*
X13453853Y1899501D01*
X13453854Y1899500D01*
X13453856Y1899500D01*
X19296146Y1899500D01*
X19296146Y1899501D01*
X19385288Y1923386D01*
X19465212Y1969530D01*
X20230469Y2734787D01*
X20276614Y2814712D01*
X20285935Y2849500D01*
X20300500Y2903856D01*
X20300500Y3175500D01*
X20322174Y3227826D01*
X20374500Y3249500D01*
X20678464Y3249500D01*
X20678465Y3249500D01*
X20881420Y3289870D01*
X21072598Y3369059D01*
X21244655Y3484023D01*
X21390977Y3630345D01*
X21505941Y3802402D01*
X21585130Y3993580D01*
X21625500Y4196535D01*
X21625500Y4403465D01*
X21585130Y4606420D01*
X21505941Y4797598D01*
X21390977Y4969655D01*
X21244655Y5115977D01*
X21231980Y5124446D01*
X21072598Y5230941D01*
X20881420Y5310130D01*
X20881413Y5310132D01*
X20728516Y5340545D01*
X20678465Y5350500D01*
X19221535Y5350500D01*
X19181385Y5342514D01*
X19018586Y5310132D01*
X19018579Y5310130D01*
X18827401Y5230941D01*
X18655345Y5115978D01*
X18655344Y5115976D01*
X18509024Y4969656D01*
X18509022Y4969655D01*
X18394059Y4797599D01*
X18314870Y4606421D01*
X18314868Y4606414D01*
X18274500Y4403465D01*
X18274500Y4196536D01*
X18314868Y3993587D01*
X18314870Y3993580D01*
X18394059Y3802402D01*
X18451178Y3716916D01*
X18509023Y3630345D01*
X18655345Y3484023D01*
X18827402Y3369059D01*
X19018580Y3289870D01*
X19221535Y3249500D01*
X19525500Y3249500D01*
X19577826Y3227826D01*
X19599500Y3175500D01*
X19599500Y3125834D01*
X19577826Y3073508D01*
X19126492Y2622174D01*
X19074166Y2600500D01*
X13675834Y2600500D01*
X13623508Y2622174D01*
X12497174Y3748508D01*
X12475500Y3800834D01*
X12475500Y7171146D01*
X12475499Y7171147D01*
X12451615Y7260285D01*
X12451612Y7260293D01*
X12442771Y7275605D01*
X12442770Y7275606D01*
X12432244Y7293838D01*
X12405470Y7340212D01*
X11622174Y8123508D01*
X11600500Y8175834D01*
X11600500Y12074166D01*
X11622174Y12126492D01*
X12823508Y13327826D01*
X12875834Y13349500D01*
X12983684Y13349500D01*
X13036010Y13327826D01*
X13052051Y13303818D01*
X13094058Y13202403D01*
X13170817Y13087525D01*
X13209023Y13030345D01*
X13355345Y12884023D01*
X13527402Y12769059D01*
X13718580Y12689870D01*
X13921535Y12649500D01*
X13921536Y12649500D01*
X15378464Y12649500D01*
X15378465Y12649500D01*
X15581420Y12689870D01*
X15772598Y12769059D01*
X15944655Y12884023D01*
X16090977Y13030345D01*
X16205941Y13202402D01*
X16257133Y13325991D01*
X16297181Y13366039D01*
X16353818Y13366039D01*
X16393867Y13325991D01*
X16399500Y13297672D01*
X16399500Y13137966D01*
X16377826Y13085640D01*
X16349500Y13057315D01*
X16283610Y12943191D01*
X16283606Y12943182D01*
X16249500Y12815895D01*
X16249500Y12684106D01*
X16283606Y12556819D01*
X16283607Y12556816D01*
X16283608Y12556814D01*
X16349500Y12442686D01*
X16442686Y12349500D01*
X16556814Y12283608D01*
X16684105Y12249501D01*
X16684106Y12249500D01*
X16684108Y12249500D01*
X16815894Y12249500D01*
X16815894Y12249501D01*
X16943186Y12283608D01*
X17057314Y12349500D01*
X17150500Y12442686D01*
X17216392Y12556814D01*
X17250499Y12684106D01*
X17250500Y12684106D01*
X17250500Y12815894D01*
X17250499Y12815895D01*
X17249270Y12820480D01*
X17216392Y12943186D01*
X17150500Y13057314D01*
X17122174Y13085640D01*
X17100500Y13137966D01*
X17100500Y16974166D01*
X17122174Y17026492D01*
X17180470Y17084788D01*
X17226614Y17164712D01*
X17228938Y17173386D01*
X17250500Y17253856D01*
X17250500Y18246144D01*
X17250500Y18246146D01*
X17250499Y18246147D01*
X17226615Y18335285D01*
X17226613Y18335290D01*
X17209626Y18364712D01*
X17180469Y18415213D01*
X16928727Y18666955D01*
X16907053Y18719281D01*
X16928727Y18771607D01*
X16955193Y18788615D01*
X17068618Y18830920D01*
X17068618Y18830921D01*
X17068620Y18830921D01*
X17183260Y18916740D01*
X17269079Y19031380D01*
X17270263Y19034553D01*
X17307833Y19135285D01*
X17319123Y19165554D01*
X17325500Y19224868D01*
X17325500Y20775132D01*
X17319123Y20834446D01*
X17304452Y20873782D01*
X17269080Y20968619D01*
X17269079Y20968620D01*
X17259697Y20981153D01*
X17245690Y21036031D01*
X17274590Y21084740D01*
X17318937Y21099500D01*
X17681063Y21099500D01*
X17733389Y21077826D01*
X17755063Y21025500D01*
X17740303Y20981153D01*
X17730920Y20968620D01*
X17730919Y20968619D01*
X17680878Y20834451D01*
X17680877Y20834446D01*
X17674500Y20775133D01*
X17674500Y19224868D01*
X17680877Y19165555D01*
X17680878Y19165550D01*
X17730919Y19031382D01*
X17730920Y19031381D01*
X17730921Y19031380D01*
X17816740Y18916740D01*
X17852804Y18889743D01*
X17931380Y18830921D01*
X17931381Y18830920D01*
X18041764Y18789751D01*
X18065554Y18780877D01*
X18119109Y18775120D01*
X18124867Y18774500D01*
X18124868Y18774500D01*
X18575500Y18774500D01*
X18627826Y18752826D01*
X18649500Y18700500D01*
X18649500Y17675834D01*
X18627826Y17623508D01*
X17839847Y16835530D01*
X17810552Y16784788D01*
X17793703Y16755607D01*
X17793701Y16755602D01*
X17769817Y16666464D01*
X17769817Y12733651D01*
X17748143Y12681325D01*
X16188992Y11122174D01*
X16136666Y11100500D01*
X13453854Y11100500D01*
X13364715Y11076616D01*
X13364710Y11076614D01*
X13284787Y11030470D01*
X12469530Y10215213D01*
X12423386Y10135290D01*
X12423384Y10135285D01*
X12399500Y10046147D01*
X12399500Y8203854D01*
X12414064Y8149502D01*
X12414064Y8149501D01*
X12423384Y8114717D01*
X12423386Y8114712D01*
X12469530Y8034788D01*
X14277826Y6226492D01*
X14299500Y6174166D01*
X14299500Y5424500D01*
X14277826Y5372174D01*
X14225500Y5350500D01*
X13921535Y5350500D01*
X13881385Y5342514D01*
X13718586Y5310132D01*
X13718579Y5310130D01*
X13527401Y5230941D01*
X13355345Y5115978D01*
X13355344Y5115976D01*
X13209024Y4969656D01*
X13209022Y4969655D01*
X13094059Y4797599D01*
X13014870Y4606421D01*
X13014868Y4606414D01*
X12974500Y4403465D01*
X12974500Y4196536D01*
X13014868Y3993587D01*
X13014870Y3993580D01*
X13094059Y3802402D01*
X13151178Y3716916D01*
X13209023Y3630345D01*
X13355345Y3484023D01*
X13527402Y3369059D01*
X13718580Y3289870D01*
X13921535Y3249500D01*
X13921536Y3249500D01*
X15378464Y3249500D01*
X15378465Y3249500D01*
X15581420Y3289870D01*
X15772598Y3369059D01*
X15944655Y3484023D01*
X16090977Y3630345D01*
X16205941Y3802402D01*
X16285130Y3993580D01*
X16325500Y4196535D01*
X16325500Y4403465D01*
X16285130Y4606420D01*
X16205941Y4797598D01*
X16090977Y4969655D01*
X15944655Y5115977D01*
X15931980Y5124446D01*
X15772598Y5230941D01*
X15581420Y5310130D01*
X15581413Y5310132D01*
X15428516Y5340545D01*
X15378465Y5350500D01*
X15378464Y5350500D01*
X15074500Y5350500D01*
X15022174Y5372174D01*
X15000500Y5424500D01*
X15000500Y6396146D01*
X15000499Y6396147D01*
X14976615Y6485285D01*
X14976613Y6485290D01*
X14941479Y6546144D01*
X14930470Y6565212D01*
X13618422Y7877260D01*
X13596748Y7929586D01*
X13618422Y7981912D01*
X13670748Y8003586D01*
X13699065Y7997954D01*
X13718580Y7989870D01*
X13921535Y7949500D01*
X13921536Y7949500D01*
X15378464Y7949500D01*
X15378465Y7949500D01*
X15581420Y7989870D01*
X15772598Y8069059D01*
X15944655Y8184023D01*
X16090977Y8330345D01*
X16205941Y8502402D01*
X16245230Y8597255D01*
X16247949Y8603818D01*
X16287997Y8643867D01*
X16316316Y8649500D01*
X16546146Y8649500D01*
X16546146Y8649501D01*
X16635288Y8673386D01*
X16715212Y8719530D01*
X17099147Y9103465D01*
X18274500Y9103465D01*
X18274500Y8896535D01*
X18279796Y8869912D01*
X18314868Y8693587D01*
X18314870Y8693580D01*
X18394059Y8502402D01*
X18506842Y8333608D01*
X18509023Y8330345D01*
X18655345Y8184023D01*
X18827402Y8069059D01*
X19018580Y7989870D01*
X19221535Y7949500D01*
X19221536Y7949500D01*
X20678464Y7949500D01*
X20678465Y7949500D01*
X20881420Y7989870D01*
X21072598Y8069059D01*
X21244655Y8184023D01*
X21390977Y8330345D01*
X21505941Y8502402D01*
X21585130Y8693580D01*
X21625500Y8896535D01*
X21625500Y9103465D01*
X21621216Y9125001D01*
X23681252Y9125001D01*
X23681252Y9125000D01*
X24140856Y9125000D01*
X24125000Y9065826D01*
X24125000Y8934174D01*
X24140856Y8875000D01*
X23681252Y8875000D01*
X23711506Y8722901D01*
X23711509Y8722891D01*
X23783119Y8550009D01*
X23887086Y8394411D01*
X24019410Y8262087D01*
X24175008Y8158120D01*
X24347890Y8086510D01*
X24347900Y8086507D01*
X24531435Y8050000D01*
X25125000Y8050000D01*
X25125000Y8500000D01*
X25375000Y8500000D01*
X25375000Y8050000D01*
X25968565Y8050000D01*
X26152099Y8086507D01*
X26152109Y8086510D01*
X26324991Y8158120D01*
X26480589Y8262087D01*
X26480591Y8262088D01*
X26537021Y8318518D01*
X27275001Y8318518D01*
X27289834Y8224852D01*
X27289835Y8224851D01*
X27347360Y8111954D01*
X27436953Y8022361D01*
X27549850Y7964836D01*
X27643518Y7950001D01*
X27875000Y7950001D01*
X28125000Y7950001D01*
X28356481Y7950001D01*
X28450148Y7964835D01*
X28450149Y7964836D01*
X28563046Y8022361D01*
X28652639Y8111954D01*
X28710164Y8224851D01*
X28710164Y8224852D01*
X28725000Y8318519D01*
X28725000Y8875000D01*
X28125000Y8875000D01*
X28125000Y7950001D01*
X27875000Y7950001D01*
X27875000Y8875000D01*
X27275001Y8875000D01*
X27275001Y8318518D01*
X26537021Y8318518D01*
X26612912Y8394409D01*
X26612913Y8394411D01*
X26716880Y8550009D01*
X26788490Y8722891D01*
X26788493Y8722901D01*
X26818748Y8875000D01*
X26359144Y8875000D01*
X26375000Y8934174D01*
X26375000Y9065826D01*
X26359144Y9125000D01*
X26818748Y9125000D01*
X26818747Y9125001D01*
X26788493Y9277100D01*
X26788490Y9277110D01*
X26716880Y9449992D01*
X26612913Y9605590D01*
X26537021Y9681482D01*
X27275000Y9681482D01*
X27275000Y9125000D01*
X27875000Y9125000D01*
X28125000Y9125000D01*
X28724999Y9125000D01*
X28724999Y9681483D01*
X28710165Y9775149D01*
X28710164Y9775150D01*
X28652639Y9888047D01*
X28563046Y9977640D01*
X28450149Y10035165D01*
X28356482Y10050000D01*
X28125000Y10050000D01*
X28125000Y9125000D01*
X27875000Y9125000D01*
X27875000Y10050000D01*
X27643518Y10050000D01*
X27549851Y10035166D01*
X27549850Y10035165D01*
X27436953Y9977640D01*
X27347360Y9888047D01*
X27289835Y9775150D01*
X27289835Y9775149D01*
X27275000Y9681482D01*
X26537021Y9681482D01*
X26480589Y9737914D01*
X26324991Y9841881D01*
X26152109Y9913491D01*
X26152099Y9913494D01*
X25968565Y9950000D01*
X25375000Y9950000D01*
X25375000Y9500000D01*
X25125000Y9500000D01*
X25125000Y9950000D01*
X24531435Y9950000D01*
X24347900Y9913494D01*
X24347890Y9913491D01*
X24175008Y9841881D01*
X24019410Y9737914D01*
X24019409Y9737912D01*
X23887088Y9605591D01*
X23887086Y9605590D01*
X23783119Y9449992D01*
X23711509Y9277110D01*
X23711506Y9277100D01*
X23681252Y9125001D01*
X21621216Y9125001D01*
X21585130Y9306420D01*
X21531510Y9435870D01*
X21531510Y9492507D01*
X21547551Y9516514D01*
X21808864Y9777826D01*
X21861190Y9799500D01*
X21865894Y9799500D01*
X21865894Y9799501D01*
X21993186Y9833608D01*
X22107314Y9899500D01*
X22200500Y9992686D01*
X22266392Y10106814D01*
X22300499Y10234106D01*
X22300500Y10234106D01*
X22300500Y10365894D01*
X22300499Y10365895D01*
X22291494Y10399501D01*
X22266392Y10493186D01*
X22200500Y10607314D01*
X22107314Y10700500D01*
X22022442Y10749501D01*
X21993190Y10766390D01*
X21993181Y10766394D01*
X21865894Y10800500D01*
X21865892Y10800500D01*
X21734108Y10800500D01*
X21734106Y10800500D01*
X21606818Y10766394D01*
X21606809Y10766390D01*
X21492685Y10700500D01*
X21399500Y10607315D01*
X21333610Y10493191D01*
X21333606Y10493182D01*
X21299500Y10365895D01*
X21299500Y10361191D01*
X21277826Y10308865D01*
X20985446Y10016486D01*
X20933120Y9994812D01*
X20904802Y10000445D01*
X20881424Y10010129D01*
X20881413Y10010132D01*
X20700349Y10046147D01*
X20678465Y10050500D01*
X19221535Y10050500D01*
X19199651Y10046147D01*
X19018586Y10010132D01*
X19018579Y10010130D01*
X18827401Y9930941D01*
X18655345Y9815978D01*
X18655344Y9815976D01*
X18509024Y9669656D01*
X18509022Y9669655D01*
X18394059Y9497599D01*
X18314870Y9306421D01*
X18314868Y9306414D01*
X18275622Y9109107D01*
X18274500Y9103465D01*
X17099147Y9103465D01*
X19623508Y11627826D01*
X19675834Y11649500D01*
X21796146Y11649500D01*
X21796146Y11649501D01*
X21885288Y11673386D01*
X21965212Y11719530D01*
X23030470Y12784788D01*
X23076614Y12864712D01*
X23086203Y12900500D01*
X23100500Y12953856D01*
X23100500Y13803465D01*
X23574500Y13803465D01*
X23574500Y13596535D01*
X23576130Y13588342D01*
X23614868Y13393587D01*
X23614870Y13393580D01*
X23694059Y13202402D01*
X23809023Y13030345D01*
X23955345Y12884023D01*
X24127402Y12769059D01*
X24318580Y12689870D01*
X24521535Y12649500D01*
X24521536Y12649500D01*
X25978464Y12649500D01*
X25978465Y12649500D01*
X26181420Y12689870D01*
X26372598Y12769059D01*
X26544655Y12884023D01*
X26690977Y13030345D01*
X26805941Y13202402D01*
X26885130Y13393580D01*
X26925500Y13596535D01*
X26925500Y13803465D01*
X26885130Y14006420D01*
X26805941Y14197598D01*
X26690977Y14369655D01*
X26544655Y14515977D01*
X26483530Y14556819D01*
X26372598Y14630941D01*
X26181420Y14710130D01*
X26181413Y14710132D01*
X26028516Y14740545D01*
X25978465Y14750500D01*
X24521535Y14750500D01*
X24481385Y14742514D01*
X24318586Y14710132D01*
X24318579Y14710130D01*
X24127401Y14630941D01*
X23955345Y14515978D01*
X23955344Y14515976D01*
X23809024Y14369656D01*
X23809022Y14369655D01*
X23694059Y14197599D01*
X23614870Y14006421D01*
X23614868Y14006414D01*
X23609708Y13980470D01*
X23574500Y13803465D01*
X23100500Y13803465D01*
X23100500Y14824166D01*
X23122174Y14876492D01*
X23532385Y15286703D01*
X28610000Y15286703D01*
X28612812Y15262458D01*
X28612814Y15262451D01*
X28656606Y15163273D01*
X28733272Y15086607D01*
X28832450Y15042815D01*
X28832457Y15042813D01*
X28856702Y15040000D01*
X28915000Y15040000D01*
X28915000Y15375000D01*
X28610000Y15375000D01*
X28610000Y15286703D01*
X23532385Y15286703D01*
X23958980Y15713298D01*
X28610000Y15713298D01*
X28610000Y15625000D01*
X28915000Y15625000D01*
X28915000Y15960000D01*
X29165000Y15960000D01*
X29165000Y15040000D01*
X29223298Y15040000D01*
X29247542Y15042813D01*
X29247549Y15042815D01*
X29346727Y15086607D01*
X29373174Y15113053D01*
X29425500Y15134727D01*
X29477826Y15113053D01*
X29499500Y15060727D01*
X29499500Y14684106D01*
X29533606Y14556819D01*
X29533610Y14556810D01*
X29599500Y14442686D01*
X29728826Y14313360D01*
X29750500Y14261034D01*
X29750500Y13824376D01*
X29728826Y13772050D01*
X29683800Y13751288D01*
X29683853Y13750954D01*
X29682669Y13750767D01*
X29682319Y13750605D01*
X29680984Y13750500D01*
X29587195Y13735647D01*
X29587193Y13735646D01*
X29474157Y13678050D01*
X29384451Y13588344D01*
X29326853Y13475302D01*
X29312000Y13381520D01*
X29312000Y13018481D01*
X29326853Y12924696D01*
X29326854Y12924694D01*
X29379953Y12820483D01*
X29384450Y12811658D01*
X29474158Y12721950D01*
X29587196Y12664354D01*
X29680981Y12649500D01*
X30769018Y12649501D01*
X30769019Y12649501D01*
X30862804Y12664354D01*
X30862806Y12664355D01*
X30901573Y12684108D01*
X30975842Y12721950D01*
X31065550Y12811658D01*
X31123146Y12924696D01*
X31138000Y13018481D01*
X31137999Y13381518D01*
X31123146Y13475304D01*
X31123146Y13475305D01*
X31123145Y13475307D01*
X31075343Y13569122D01*
X31065550Y13588342D01*
X30975842Y13678050D01*
X30862804Y13735646D01*
X30862802Y13735647D01*
X30862801Y13735647D01*
X30813924Y13743388D01*
X30765633Y13772981D01*
X30751500Y13816477D01*
X30751500Y14564894D01*
X30751499Y14564895D01*
X30717393Y14692182D01*
X30717392Y14692186D01*
X30651500Y14806314D01*
X30624292Y14833522D01*
X30602618Y14885848D01*
X30624292Y14938174D01*
X30676618Y14959848D01*
X30709120Y14952328D01*
X30733479Y14940419D01*
X30733480Y14940419D01*
X30733482Y14940418D01*
X30808418Y14929500D01*
X30808424Y14929500D01*
X31151576Y14929500D01*
X31151582Y14929500D01*
X31226518Y14940418D01*
X31342102Y14996924D01*
X31433076Y15087898D01*
X31433076Y15087899D01*
X31437412Y15092234D01*
X31439993Y15089653D01*
X31477816Y15113265D01*
X31532996Y15100502D01*
X31541926Y15091572D01*
X31542588Y15092234D01*
X31546924Y15087898D01*
X31637898Y14996924D01*
X31733236Y14950316D01*
X31770726Y14907863D01*
X31767216Y14851334D01*
X31740418Y14796520D01*
X31729500Y14721587D01*
X31729500Y14278414D01*
X31740418Y14203482D01*
X31796924Y14087898D01*
X31877826Y14006996D01*
X31899500Y13954670D01*
X31899500Y13800001D01*
X31877826Y13747675D01*
X31859096Y13734067D01*
X31749157Y13678050D01*
X31659451Y13588344D01*
X31601853Y13475302D01*
X31587000Y13381520D01*
X31587000Y13018481D01*
X31601853Y12924696D01*
X31601854Y12924694D01*
X31659450Y12811658D01*
X31749157Y12721951D01*
X31753866Y12718530D01*
X31752878Y12717171D01*
X31785301Y12679213D01*
X31780860Y12622751D01*
X31767251Y12604017D01*
X31735713Y12572479D01*
X31690410Y12469876D01*
X31687500Y12444790D01*
X31687500Y12375000D01*
X33312499Y12375000D01*
X33312499Y12444793D01*
X33309591Y12469869D01*
X33309589Y12469875D01*
X33264286Y12572479D01*
X33232750Y12604015D01*
X33211076Y12656341D01*
X33232750Y12708667D01*
X33246196Y12718435D01*
X33246130Y12718526D01*
X33250840Y12721949D01*
X33250839Y12721949D01*
X33250842Y12721950D01*
X33340550Y12811658D01*
X33398146Y12924696D01*
X33413000Y13018481D01*
X33412999Y13381518D01*
X33398146Y13475304D01*
X33398146Y13475305D01*
X33398145Y13475307D01*
X33350343Y13569122D01*
X33340550Y13588342D01*
X33250842Y13678050D01*
X33137804Y13735646D01*
X33137802Y13735647D01*
X33137801Y13735647D01*
X33044020Y13750500D01*
X33044019Y13750500D01*
X32674500Y13750500D01*
X32622174Y13772174D01*
X32600500Y13824500D01*
X32600500Y13954670D01*
X32622174Y14006996D01*
X32649967Y14034789D01*
X32703076Y14087898D01*
X32749121Y14182084D01*
X32791573Y14219572D01*
X32848102Y14216063D01*
X32883296Y14179472D01*
X32895803Y14151146D01*
X32971144Y14075805D01*
X33068621Y14032764D01*
X33092444Y14030000D01*
X33145000Y14030000D01*
X33395000Y14030000D01*
X33447556Y14030000D01*
X33471377Y14032764D01*
X33471379Y14032764D01*
X33568855Y14075805D01*
X33644195Y14151145D01*
X33687236Y14248621D01*
X33687236Y14248623D01*
X33690000Y14272445D01*
X33690000Y14375000D01*
X33395000Y14375000D01*
X33395000Y14030000D01*
X33145000Y14030000D01*
X33145000Y14625000D01*
X33395000Y14625000D01*
X33690000Y14625000D01*
X33690000Y14727556D01*
X33687236Y14751378D01*
X33687236Y14751380D01*
X33644195Y14848856D01*
X33568855Y14924196D01*
X33471378Y14967237D01*
X33447556Y14970000D01*
X33395000Y14970000D01*
X33395000Y14625000D01*
X33145000Y14625000D01*
X33145000Y14970000D01*
X33092444Y14970000D01*
X33068622Y14967237D01*
X33068620Y14967237D01*
X32971144Y14924196D01*
X32895802Y14848854D01*
X32883295Y14820528D01*
X32842332Y14781416D01*
X32785710Y14782725D01*
X32749120Y14817918D01*
X32747844Y14820528D01*
X32703076Y14912102D01*
X32622174Y14993004D01*
X32602101Y15041465D01*
X32601133Y15041337D01*
X32600657Y15044950D01*
X32600500Y15045330D01*
X32600500Y15046146D01*
X32600499Y15046147D01*
X32596592Y15060727D01*
X32582515Y15113265D01*
X32576615Y15135285D01*
X32576613Y15135290D01*
X32528044Y15219413D01*
X32530840Y15221028D01*
X32518697Y15265987D01*
X32518839Y15267024D01*
X32520500Y15278418D01*
X32520500Y15721582D01*
X32509582Y15796518D01*
X32500109Y15815895D01*
X33749500Y15815895D01*
X33749500Y15684106D01*
X33783606Y15556819D01*
X33783610Y15556810D01*
X33824904Y15485288D01*
X33849500Y15442686D01*
X33942686Y15349500D01*
X34056814Y15283608D01*
X34184105Y15249501D01*
X34184106Y15249500D01*
X34184108Y15249500D01*
X34315894Y15249500D01*
X34315894Y15249501D01*
X34443186Y15283608D01*
X34557314Y15349500D01*
X34650500Y15442686D01*
X34716392Y15556814D01*
X34750499Y15684106D01*
X34750500Y15684106D01*
X34750500Y15815894D01*
X34750499Y15815895D01*
X34724720Y15912103D01*
X34716392Y15943186D01*
X34650500Y16057314D01*
X34557314Y16150500D01*
X34443190Y16216390D01*
X34443181Y16216394D01*
X34315894Y16250500D01*
X34315892Y16250500D01*
X34184108Y16250500D01*
X34184106Y16250500D01*
X34056818Y16216394D01*
X34056809Y16216390D01*
X33942685Y16150500D01*
X33849500Y16057315D01*
X33783610Y15943191D01*
X33783606Y15943182D01*
X33749500Y15815895D01*
X32500109Y15815895D01*
X32453076Y15912102D01*
X32362102Y16003076D01*
X32246518Y16059582D01*
X32240224Y16060499D01*
X32171586Y16070500D01*
X32171582Y16070500D01*
X31828418Y16070500D01*
X31828413Y16070500D01*
X31753481Y16059582D01*
X31637897Y16003076D01*
X31606826Y15972004D01*
X31554500Y15950330D01*
X31502174Y15972004D01*
X31480500Y16024330D01*
X31480500Y16664198D01*
X31490414Y16701198D01*
X31551391Y16806813D01*
X31551392Y16806814D01*
X31585500Y16934107D01*
X31585500Y17065892D01*
X31551392Y17193186D01*
X31546121Y17202315D01*
X31538678Y17215208D01*
X31538674Y17215213D01*
X31516365Y17253855D01*
X31485500Y17307314D01*
X31392314Y17400500D01*
X31352676Y17423385D01*
X31278190Y17466390D01*
X31278181Y17466394D01*
X31150894Y17500500D01*
X31150892Y17500500D01*
X31019107Y17500500D01*
X30929962Y17476614D01*
X30929961Y17476615D01*
X30891816Y17466393D01*
X30891812Y17466392D01*
X30777685Y17400500D01*
X30579500Y17202315D01*
X30513610Y17088191D01*
X30513606Y17088182D01*
X30479500Y16960895D01*
X30479500Y16074500D01*
X30457826Y16022174D01*
X30405500Y16000500D01*
X30369272Y16000500D01*
X30335679Y16008565D01*
X30262175Y16046017D01*
X30262172Y16046018D01*
X30262171Y16046018D01*
X30170736Y16060500D01*
X29829265Y16060500D01*
X29737824Y16046017D01*
X29737822Y16046017D01*
X29627608Y15989859D01*
X29540141Y15902392D01*
X29524809Y15872301D01*
X29481741Y15835519D01*
X29425278Y15839964D01*
X29406549Y15853572D01*
X29346727Y15913394D01*
X29247549Y15957186D01*
X29247542Y15957188D01*
X29223298Y15960000D01*
X29165000Y15960000D01*
X28915000Y15960000D01*
X28856702Y15960000D01*
X28832457Y15957188D01*
X28832450Y15957186D01*
X28733272Y15913394D01*
X28656606Y15836728D01*
X28612814Y15737550D01*
X28612812Y15737543D01*
X28610000Y15713298D01*
X23958980Y15713298D01*
X24873508Y16627826D01*
X24925834Y16649500D01*
X26546146Y16649500D01*
X26546146Y16649501D01*
X26635288Y16673386D01*
X26715212Y16719530D01*
X27280470Y17284788D01*
X27326614Y17364712D01*
X27350499Y17453854D01*
X27350500Y17453854D01*
X27350500Y18824166D01*
X27372174Y18876492D01*
X28123508Y19627826D01*
X28175834Y19649500D01*
X32574166Y19649500D01*
X32626492Y19627826D01*
X34784788Y17469530D01*
X34852444Y17430469D01*
X34864712Y17423386D01*
X34864714Y17423386D01*
X34864715Y17423385D01*
X34909284Y17411443D01*
X34953853Y17399501D01*
X34953854Y17399500D01*
X34953856Y17399500D01*
X37796146Y17399500D01*
X37796146Y17399501D01*
X37885288Y17423386D01*
X37897556Y17430469D01*
X37965212Y17469530D01*
X38780470Y18284788D01*
X38826614Y18364712D01*
X38840145Y18415212D01*
X38850500Y18453856D01*
X38850500Y18700500D01*
X38872174Y18752826D01*
X38924500Y18774500D01*
X39125133Y18774500D01*
X39130381Y18775065D01*
X39184446Y18780877D01*
X39300509Y18824166D01*
X39318618Y18830920D01*
X39318618Y18830921D01*
X39318620Y18830921D01*
X39433260Y18916740D01*
X39466260Y18960824D01*
X39514969Y18989723D01*
X39569847Y18975716D01*
X39598747Y18927007D01*
X39599500Y18916476D01*
X39599500Y5462684D01*
X39577826Y5410358D01*
X39525500Y5388684D01*
X39473174Y5410358D01*
X39457133Y5434365D01*
X39437849Y5480920D01*
X39430941Y5497598D01*
X39315977Y5669655D01*
X39169655Y5815977D01*
X38997598Y5930941D01*
X38997595Y5930943D01*
X38997594Y5930943D01*
X38896181Y5972950D01*
X38856133Y6012999D01*
X38850500Y6041317D01*
X38850500Y6546146D01*
X38850499Y6546147D01*
X38826615Y6635285D01*
X38826613Y6635290D01*
X38780471Y6715209D01*
X38780470Y6715210D01*
X38780469Y6715212D01*
X38715212Y6780469D01*
X38708521Y6784332D01*
X38688157Y6796090D01*
X38672833Y6807849D01*
X38060722Y7419960D01*
X38039048Y7472286D01*
X38047114Y7505882D01*
X38050813Y7513142D01*
X38066211Y7543361D01*
X38122171Y7715591D01*
X38150500Y7894454D01*
X38150500Y8075546D01*
X38148763Y8086510D01*
X38130178Y8203856D01*
X38122171Y8254409D01*
X38122169Y8254414D01*
X38122168Y8254420D01*
X38066212Y8426636D01*
X38066211Y8426637D01*
X38066211Y8426639D01*
X37983996Y8587994D01*
X37877553Y8734501D01*
X37749501Y8862553D01*
X37649603Y8935133D01*
X37602996Y8968995D01*
X37441635Y9051213D01*
X37441636Y9051213D01*
X37269419Y9107169D01*
X37269406Y9107172D01*
X37090547Y9135500D01*
X37090546Y9135500D01*
X36909454Y9135500D01*
X36909453Y9135500D01*
X36730593Y9107172D01*
X36730580Y9107169D01*
X36558364Y9051213D01*
X36397004Y8968995D01*
X36397002Y8968994D01*
X36267996Y8875266D01*
X36245693Y8869912D01*
X36224500Y8861133D01*
X36218859Y8863470D01*
X36212923Y8862044D01*
X36193365Y8874030D01*
X36172174Y8882807D01*
X36169837Y8888448D01*
X36164633Y8891637D01*
X36150500Y8935133D01*
X36150500Y9078455D01*
X36172174Y9130781D01*
X36394219Y9352826D01*
X36446545Y9374500D01*
X37924672Y9374500D01*
X37924674Y9374500D01*
X37997740Y9389034D01*
X38080601Y9444399D01*
X38135966Y9527260D01*
X38150500Y9600326D01*
X38150500Y11449674D01*
X38135966Y11522740D01*
X38080601Y11605601D01*
X38047338Y11627826D01*
X37997740Y11660966D01*
X37924674Y11675500D01*
X36075326Y11675500D01*
X36026615Y11665811D01*
X36002259Y11660966D01*
X35919399Y11605602D01*
X35919398Y11605601D01*
X35864034Y11522741D01*
X35864034Y11522740D01*
X35855835Y11481519D01*
X35849500Y11449673D01*
X35849500Y9971545D01*
X35827826Y9919219D01*
X35429517Y9520910D01*
X35376795Y9429593D01*
X35376793Y9429589D01*
X35362033Y9374500D01*
X35362032Y9374499D01*
X35349500Y9327730D01*
X35349500Y7513142D01*
X35327826Y7460816D01*
X34789184Y6922174D01*
X34736858Y6900500D01*
X31475448Y6900500D01*
X31423122Y6922174D01*
X31401448Y6974500D01*
X31411362Y7011500D01*
X31445532Y7070684D01*
X31466392Y7106814D01*
X31500499Y7234106D01*
X31500500Y7234106D01*
X31500500Y7365894D01*
X31500499Y7365895D01*
X31491348Y7400046D01*
X31466392Y7493186D01*
X31400500Y7607314D01*
X31307314Y7700500D01*
X31307313Y7700501D01*
X31288360Y7711444D01*
X31253882Y7756378D01*
X31261276Y7812530D01*
X31306210Y7847008D01*
X31321420Y7849424D01*
X31322863Y7849501D01*
X31322872Y7849501D01*
X31322880Y7849502D01*
X31322882Y7849502D01*
X31328077Y7850061D01*
X31382483Y7855909D01*
X31503424Y7901017D01*
X31560025Y7898996D01*
X31593370Y7868683D01*
X31632736Y7800500D01*
X31660783Y7751922D01*
X31753969Y7658736D01*
X31868097Y7592844D01*
X31995388Y7558737D01*
X31995389Y7558736D01*
X31995391Y7558736D01*
X32127177Y7558736D01*
X32127177Y7558737D01*
X32254469Y7592844D01*
X32368597Y7658736D01*
X32461783Y7751922D01*
X32527675Y7866050D01*
X32561782Y7993342D01*
X32561783Y7993342D01*
X32561783Y8125130D01*
X32561782Y8125131D01*
X32556409Y8145182D01*
X32527675Y8252422D01*
X32461783Y8366550D01*
X32368597Y8459736D01*
X32294696Y8502403D01*
X32254473Y8525626D01*
X32254464Y8525630D01*
X32127177Y8559736D01*
X32127175Y8559736D01*
X31995391Y8559736D01*
X31868650Y8525777D01*
X31812499Y8533169D01*
X31778020Y8578102D01*
X31775499Y8597255D01*
X31775499Y8865895D01*
X33399500Y8865895D01*
X33399500Y8734106D01*
X33433606Y8606819D01*
X33433610Y8606810D01*
X33466404Y8550009D01*
X33499500Y8492686D01*
X33592686Y8399500D01*
X33706814Y8333608D01*
X33834105Y8299501D01*
X33834106Y8299500D01*
X33834108Y8299500D01*
X33965894Y8299500D01*
X33965894Y8299501D01*
X34093186Y8333608D01*
X34207314Y8399500D01*
X34300500Y8492686D01*
X34366392Y8606814D01*
X34400499Y8734106D01*
X34400500Y8734106D01*
X34400500Y8865894D01*
X34400499Y8865895D01*
X34398059Y8875000D01*
X34366392Y8993186D01*
X34300500Y9107314D01*
X34207314Y9200500D01*
X34149107Y9234106D01*
X34093190Y9266390D01*
X34093181Y9266394D01*
X33965894Y9300500D01*
X33965892Y9300500D01*
X33834108Y9300500D01*
X33834106Y9300500D01*
X33706818Y9266394D01*
X33706809Y9266390D01*
X33592685Y9200500D01*
X33499500Y9107315D01*
X33433610Y8993191D01*
X33433606Y8993182D01*
X33399500Y8865895D01*
X31775499Y8865895D01*
X31775499Y9697874D01*
X31773955Y9712234D01*
X31769091Y9757483D01*
X31765768Y9766392D01*
X31718797Y9892330D01*
X31718796Y9892331D01*
X31713429Y9899500D01*
X31632546Y10007546D01*
X31517331Y10093796D01*
X31517330Y10093797D01*
X31517329Y10093798D01*
X31382487Y10144090D01*
X31382484Y10144091D01*
X31382483Y10144091D01*
X31352678Y10147296D01*
X31322874Y10150500D01*
X31322873Y10150500D01*
X30887966Y10150500D01*
X30835640Y10172174D01*
X30747174Y10260640D01*
X30725500Y10312966D01*
X30725500Y10679407D01*
X30747174Y10731733D01*
X30787923Y10752496D01*
X30862804Y10764354D01*
X30975842Y10821950D01*
X31065550Y10911658D01*
X31123146Y11024696D01*
X31138000Y11118481D01*
X31137999Y11481518D01*
X31137999Y11481520D01*
X31587000Y11481520D01*
X31587000Y11118481D01*
X31601853Y11024696D01*
X31601854Y11024694D01*
X31655614Y10919187D01*
X31659450Y10911658D01*
X31749158Y10821950D01*
X31862196Y10764354D01*
X31955981Y10749500D01*
X33044018Y10749501D01*
X33044019Y10749501D01*
X33137804Y10764354D01*
X33137806Y10764355D01*
X33141808Y10766394D01*
X33250842Y10821950D01*
X33340550Y10911658D01*
X33398146Y11024696D01*
X33413000Y11118481D01*
X33412999Y11481518D01*
X33406470Y11522741D01*
X33398146Y11575305D01*
X33398145Y11575307D01*
X33360341Y11649500D01*
X33340550Y11688342D01*
X33250842Y11778050D01*
X33250841Y11778051D01*
X33246132Y11781472D01*
X33247119Y11782832D01*
X33214698Y11820787D01*
X33219138Y11877250D01*
X33232750Y11895986D01*
X33264286Y11927522D01*
X33309589Y12030125D01*
X33312500Y12055211D01*
X33312500Y12125000D01*
X31687501Y12125000D01*
X31687501Y12055208D01*
X31690408Y12030132D01*
X31690410Y12030126D01*
X31735713Y11927522D01*
X31767250Y11895985D01*
X31788924Y11843659D01*
X31767250Y11791333D01*
X31753802Y11781563D01*
X31753868Y11781472D01*
X31749158Y11778051D01*
X31659451Y11688344D01*
X31601853Y11575302D01*
X31587000Y11481520D01*
X31137999Y11481520D01*
X31131470Y11522741D01*
X31123146Y11575305D01*
X31123145Y11575307D01*
X31085341Y11649500D01*
X31065550Y11688342D01*
X30975842Y11778050D01*
X30862804Y11835646D01*
X30862802Y11835647D01*
X30862801Y11835647D01*
X30769019Y11850500D01*
X29680980Y11850500D01*
X29587195Y11835647D01*
X29587193Y11835646D01*
X29474157Y11778050D01*
X29384451Y11688344D01*
X29326853Y11575302D01*
X29312000Y11481520D01*
X29312000Y11118481D01*
X29326853Y11024696D01*
X29326854Y11024694D01*
X29380614Y10919187D01*
X29384450Y10911658D01*
X29474158Y10821950D01*
X29587196Y10764354D01*
X29662076Y10752495D01*
X29710367Y10722903D01*
X29724500Y10679406D01*
X29724500Y10009106D01*
X29758606Y9881819D01*
X29758610Y9881810D01*
X29824500Y9767686D01*
X30102826Y9489360D01*
X30124500Y9437034D01*
X30124500Y8302127D01*
X30130909Y8242515D01*
X30181202Y8107671D01*
X30181203Y8107670D01*
X30181204Y8107669D01*
X30267454Y7992454D01*
X30327028Y7947857D01*
X30382669Y7906204D01*
X30382670Y7906203D01*
X30490338Y7866046D01*
X30517517Y7855909D01*
X30577127Y7849500D01*
X30674590Y7849501D01*
X30726914Y7827827D01*
X30748589Y7775502D01*
X30726915Y7723176D01*
X30711592Y7711417D01*
X30692686Y7700501D01*
X30599500Y7607315D01*
X30533610Y7493191D01*
X30533606Y7493182D01*
X30499500Y7365895D01*
X30499500Y7234106D01*
X30533606Y7106819D01*
X30533610Y7106810D01*
X30588638Y7011500D01*
X30596031Y6955348D01*
X30561552Y6910414D01*
X30524552Y6900500D01*
X27502727Y6900500D01*
X27397273Y6900500D01*
X27346342Y6886854D01*
X27295411Y6873207D01*
X27295407Y6873205D01*
X27204090Y6820483D01*
X25755781Y5372174D01*
X25703455Y5350500D01*
X24521535Y5350500D01*
X24481385Y5342514D01*
X24318586Y5310132D01*
X24318579Y5310130D01*
X24127401Y5230941D01*
X23955345Y5115978D01*
X23955344Y5115976D01*
X23809024Y4969656D01*
X23809022Y4969655D01*
X23694059Y4797599D01*
X23614870Y4606421D01*
X23614868Y4606414D01*
X23574500Y4403465D01*
X23574500Y4196536D01*
X23614868Y3993587D01*
X23614870Y3993580D01*
X23694059Y3802402D01*
X23751178Y3716916D01*
X23809023Y3630345D01*
X23955345Y3484023D01*
X24127402Y3369059D01*
X24318580Y3289870D01*
X24521535Y3249500D01*
X24521536Y3249500D01*
X25978464Y3249500D01*
X25978465Y3249500D01*
X26181420Y3289870D01*
X26372598Y3369059D01*
X26544655Y3484023D01*
X26690977Y3630345D01*
X26805941Y3802402D01*
X26885130Y3993580D01*
X26925500Y4196535D01*
X26925500Y4403465D01*
X26885130Y4606420D01*
X26805941Y4797598D01*
X26690977Y4969655D01*
X26640838Y5019794D01*
X26619164Y5072120D01*
X26640838Y5124446D01*
X27104827Y5588434D01*
X27594219Y6077826D01*
X27646545Y6099500D01*
X30537316Y6099500D01*
X30589642Y6077826D01*
X30611316Y6025500D01*
X30589642Y5973174D01*
X30565635Y5957133D01*
X30502401Y5930941D01*
X30330345Y5815978D01*
X30330344Y5815976D01*
X30184024Y5669656D01*
X30184022Y5669655D01*
X30069059Y5497599D01*
X29989870Y5306421D01*
X29989868Y5306414D01*
X29955238Y5132314D01*
X29949500Y5103465D01*
X29949500Y4896535D01*
X29952811Y4879890D01*
X29989868Y4693587D01*
X29989870Y4693580D01*
X30069059Y4502402D01*
X30134504Y4404455D01*
X30184023Y4330345D01*
X30330345Y4184023D01*
X30502402Y4069059D01*
X30538545Y4054088D01*
X30553818Y4047762D01*
X30593867Y4007714D01*
X30599500Y3979395D01*
X30599500Y2296545D01*
X30577826Y2244219D01*
X29855781Y1522174D01*
X29803455Y1500500D01*
X12596545Y1500500D01*
X12544219Y1522174D01*
X10999596Y3066797D01*
X9445913Y4620480D01*
X9445910Y4620482D01*
X9445909Y4620483D01*
X9354592Y4673205D01*
X9354588Y4673207D01*
X9252727Y4700500D01*
X9252726Y4700500D01*
X8396545Y4700500D01*
X8344219Y4722174D01*
X7512421Y5553972D01*
X7490747Y5606298D01*
X7512421Y5658624D01*
X7564747Y5680298D01*
X7593064Y5674666D01*
X7756916Y5606796D01*
X7944414Y5569500D01*
X7944416Y5569500D01*
X8135584Y5569500D01*
X8135586Y5569500D01*
X8323084Y5606796D01*
X8499704Y5679954D01*
X8658658Y5786163D01*
X8793837Y5921342D01*
X8900046Y6080296D01*
X8973204Y6256916D01*
X9010500Y6444414D01*
X9010500Y6635586D01*
X8973204Y6823084D01*
X8952442Y6873207D01*
X8900046Y6999704D01*
X8793837Y7158658D01*
X8658657Y7293838D01*
X8499703Y7400047D01*
X8323088Y7473203D01*
X8323078Y7473206D01*
X8197518Y7498181D01*
X8135586Y7510500D01*
X7944414Y7510500D01*
X7891260Y7499928D01*
X7756921Y7473206D01*
X7756911Y7473203D01*
X7580296Y7400047D01*
X7421342Y7293838D01*
X7421341Y7293836D01*
X7286164Y7158659D01*
X7286162Y7158658D01*
X7179953Y6999704D01*
X7106797Y6823089D01*
X7106794Y6823079D01*
X7069500Y6635585D01*
X7069500Y6444416D01*
X7106794Y6256922D01*
X7106797Y6256912D01*
X7174664Y6093066D01*
X7174664Y6036429D01*
X7134615Y5996381D01*
X7077978Y5996381D01*
X7053971Y6012422D01*
X4022174Y9044219D01*
X4000500Y9096545D01*
X4000500Y9365895D01*
X7699500Y9365895D01*
X7699500Y9234106D01*
X7733606Y9106819D01*
X7733610Y9106810D01*
X7749981Y9078455D01*
X7799500Y8992686D01*
X7892686Y8899500D01*
X8006814Y8833608D01*
X8134105Y8799501D01*
X8134106Y8799500D01*
X8134108Y8799500D01*
X8265894Y8799500D01*
X8265894Y8799501D01*
X8393186Y8833608D01*
X8507314Y8899500D01*
X8600500Y8992686D01*
X8666392Y9106814D01*
X8700499Y9234106D01*
X8700500Y9234106D01*
X8700500Y9365894D01*
X8700499Y9365895D01*
X8698193Y9374500D01*
X8666392Y9493186D01*
X8600500Y9607314D01*
X8507314Y9700500D01*
X8442515Y9737912D01*
X8393190Y9766390D01*
X8393181Y9766394D01*
X8265894Y9800500D01*
X8265892Y9800500D01*
X8134108Y9800500D01*
X8134106Y9800500D01*
X8006818Y9766394D01*
X8006809Y9766390D01*
X7892685Y9700500D01*
X7799500Y9607315D01*
X7733610Y9493191D01*
X7733606Y9493182D01*
X7699500Y9365895D01*
X4000500Y9365895D01*
X4000500Y12123381D01*
X3973207Y12225241D01*
X3973207Y12225242D01*
X3920482Y12316564D01*
X3920481Y12316565D01*
X3920480Y12316567D01*
X3416567Y12820480D01*
X3416564Y12820482D01*
X3416563Y12820483D01*
X3325246Y12873205D01*
X3325242Y12873207D01*
X3284875Y12884023D01*
X3223381Y12900500D01*
X3223380Y12900500D01*
X2799500Y12900500D01*
X2747174Y12922174D01*
X2725500Y12974500D01*
X2725500Y13125133D01*
X2723344Y13145182D01*
X2719123Y13184446D01*
X2710249Y13208236D01*
X2669080Y13318619D01*
X2669079Y13318620D01*
X2633581Y13366039D01*
X2583260Y13433260D01*
X2468620Y13519079D01*
X2468619Y13519080D01*
X2468618Y13519081D01*
X2334450Y13569122D01*
X2334447Y13569123D01*
X2334446Y13569123D01*
X2304789Y13572312D01*
X2275133Y13575500D01*
X2275132Y13575500D01*
X724868Y13575500D01*
X724867Y13575500D01*
X665554Y13569123D01*
X665549Y13569122D01*
X531381Y13519081D01*
X531380Y13519080D01*
X518847Y13509697D01*
X463969Y13495690D01*
X415260Y13524590D01*
X400500Y13568937D01*
X400500Y19147522D01*
X422174Y19199848D01*
X474500Y19221522D01*
X497369Y19217900D01*
X530392Y19207170D01*
X1087570Y19764348D01*
X1119905Y19708343D01*
X1208343Y19619905D01*
X1264347Y19587572D01*
X654813Y18978037D01*
X685942Y18946908D01*
X798134Y18889743D01*
X891215Y18875000D01*
X2108785Y18875000D01*
X2201865Y18889743D01*
X2314057Y18946908D01*
X2345187Y18978037D01*
X1735652Y19587572D01*
X1791657Y19619905D01*
X1880095Y19708343D01*
X1912428Y19764348D01*
X2469606Y19207170D01*
X2475000Y19241217D01*
X2475000Y20758785D01*
X2469607Y20792833D01*
X1912428Y20235654D01*
X1880095Y20291657D01*
X1791657Y20380095D01*
X1735652Y20412429D01*
X2345187Y21021963D01*
X2345187Y21025500D01*
X2366861Y21077826D01*
X2419187Y21099500D01*
X2931063Y21099500D01*
X2983389Y21077826D01*
G37*
%TD.AperFunction*%
%TA.AperFunction,Conductor*%
G36*
X20383139Y21077826D02*
G01*
X20404813Y21025500D01*
X20404813Y21021963D01*
X21014347Y20412429D01*
X20958343Y20380095D01*
X20869905Y20291657D01*
X20837571Y20235653D01*
X20280392Y20792832D01*
X20280391Y20792832D01*
X20275000Y20758786D01*
X20275000Y19241214D01*
X20280391Y19207170D01*
X20280392Y19207170D01*
X20837570Y19764349D01*
X20869905Y19708343D01*
X20958343Y19619905D01*
X21014347Y19587572D01*
X20404813Y18978037D01*
X20435942Y18946908D01*
X20548134Y18889743D01*
X20641215Y18875000D01*
X21858785Y18875000D01*
X21951865Y18889743D01*
X22064057Y18946908D01*
X22095187Y18978037D01*
X21485652Y19587572D01*
X21541657Y19619905D01*
X21630095Y19708343D01*
X21662428Y19764348D01*
X22219606Y19207170D01*
X22225000Y19241217D01*
X22225000Y20758785D01*
X22219607Y20792833D01*
X21662428Y20235654D01*
X21630095Y20291657D01*
X21541657Y20380095D01*
X21485652Y20412429D01*
X22095187Y21021963D01*
X22095187Y21025500D01*
X22116861Y21077826D01*
X22169187Y21099500D01*
X22681063Y21099500D01*
X22733389Y21077826D01*
X22755063Y21025500D01*
X22740303Y20981153D01*
X22730920Y20968620D01*
X22730919Y20968619D01*
X22680878Y20834451D01*
X22680877Y20834446D01*
X22674500Y20775133D01*
X22674500Y19224868D01*
X22680877Y19165555D01*
X22680878Y19165550D01*
X22730919Y19031382D01*
X22730920Y19031381D01*
X22730921Y19031380D01*
X22816740Y18916740D01*
X22852804Y18889743D01*
X22931380Y18830921D01*
X22931381Y18830920D01*
X23041764Y18789751D01*
X23065554Y18780877D01*
X23119109Y18775120D01*
X23124867Y18774500D01*
X23124868Y18774500D01*
X24375133Y18774500D01*
X24380381Y18775065D01*
X24434446Y18780877D01*
X24550509Y18824166D01*
X24568618Y18830920D01*
X24568618Y18830921D01*
X24568620Y18830921D01*
X24683260Y18916740D01*
X24769079Y19031380D01*
X24770263Y19034553D01*
X24807833Y19135285D01*
X24819123Y19165554D01*
X24825500Y19224868D01*
X24825500Y20775132D01*
X24819123Y20834446D01*
X24804452Y20873782D01*
X24769080Y20968619D01*
X24769079Y20968620D01*
X24759697Y20981153D01*
X24745690Y21036031D01*
X24774590Y21084740D01*
X24818937Y21099500D01*
X35080813Y21099500D01*
X35133139Y21077826D01*
X35154813Y21025500D01*
X35154813Y21021963D01*
X35764347Y20412429D01*
X35708343Y20380095D01*
X35619905Y20291657D01*
X35587571Y20235653D01*
X35030392Y20792832D01*
X35030391Y20792832D01*
X35025000Y20758786D01*
X35025000Y19241214D01*
X35030391Y19207170D01*
X35030392Y19207170D01*
X35587570Y19764349D01*
X35619905Y19708343D01*
X35708343Y19619905D01*
X35764347Y19587572D01*
X35154813Y18978037D01*
X35185942Y18946908D01*
X35298134Y18889743D01*
X35391215Y18875000D01*
X36608785Y18875000D01*
X36701865Y18889743D01*
X36814057Y18946908D01*
X36845187Y18978037D01*
X36235652Y19587572D01*
X36291657Y19619905D01*
X36380095Y19708343D01*
X36412428Y19764348D01*
X36969606Y19207170D01*
X36975000Y19241217D01*
X36975000Y20758785D01*
X36969607Y20792833D01*
X36412428Y20235654D01*
X36380095Y20291657D01*
X36291657Y20380095D01*
X36235652Y20412429D01*
X36845187Y21021963D01*
X36845187Y21025500D01*
X36866861Y21077826D01*
X36919187Y21099500D01*
X37431063Y21099500D01*
X37483389Y21077826D01*
X37505063Y21025500D01*
X37490303Y20981153D01*
X37480920Y20968620D01*
X37480919Y20968619D01*
X37430878Y20834451D01*
X37430877Y20834446D01*
X37424500Y20775133D01*
X37424500Y19224868D01*
X37430877Y19165555D01*
X37430878Y19165550D01*
X37480919Y19031382D01*
X37480920Y19031381D01*
X37480921Y19031380D01*
X37566740Y18916740D01*
X37602804Y18889743D01*
X37681380Y18830921D01*
X37681381Y18830920D01*
X37791764Y18789751D01*
X37815554Y18780877D01*
X37869109Y18775120D01*
X37874867Y18774500D01*
X37874868Y18774500D01*
X38075500Y18774500D01*
X38127826Y18752826D01*
X38149500Y18700500D01*
X38149500Y18675834D01*
X38127826Y18623508D01*
X37626492Y18122174D01*
X37574166Y18100500D01*
X35175834Y18100500D01*
X35123508Y18122174D01*
X32965212Y20280470D01*
X32885289Y20326614D01*
X32885284Y20326616D01*
X32796146Y20350500D01*
X32796144Y20350500D01*
X27953856Y20350500D01*
X27953854Y20350500D01*
X27864715Y20326616D01*
X27864710Y20326614D01*
X27784787Y20280470D01*
X26719530Y19215213D01*
X26697247Y19176616D01*
X26697246Y19176614D01*
X26673386Y19135288D01*
X26673385Y19135286D01*
X26673384Y19135285D01*
X26649500Y19046147D01*
X26649500Y17675834D01*
X26627826Y17623508D01*
X26376492Y17372174D01*
X26324166Y17350500D01*
X24703854Y17350500D01*
X24614715Y17326616D01*
X24614710Y17326614D01*
X24534787Y17280470D01*
X22469530Y15215213D01*
X22456525Y15192686D01*
X22423386Y15135290D01*
X22423384Y15135285D01*
X22399500Y15046147D01*
X22399500Y13175834D01*
X22377826Y13123508D01*
X21626492Y12372174D01*
X21574166Y12350500D01*
X19453854Y12350500D01*
X19364715Y12326616D01*
X19364710Y12326614D01*
X19284787Y12280470D01*
X16376492Y9372174D01*
X16324166Y9350500D01*
X16316316Y9350500D01*
X16263990Y9372174D01*
X16247949Y9396182D01*
X16205941Y9497598D01*
X16090977Y9669655D01*
X15944654Y9815978D01*
X15772598Y9930941D01*
X15581420Y10010130D01*
X15581413Y10010132D01*
X15400349Y10046147D01*
X15378465Y10050500D01*
X13921535Y10050500D01*
X13899651Y10046147D01*
X13718586Y10010132D01*
X13718579Y10010130D01*
X13527401Y9930941D01*
X13355345Y9815978D01*
X13355344Y9815976D01*
X13226826Y9687458D01*
X13174500Y9665784D01*
X13122174Y9687458D01*
X13100500Y9739784D01*
X13100500Y9824166D01*
X13122174Y9876492D01*
X13623508Y10377826D01*
X13675834Y10399500D01*
X16358646Y10399500D01*
X16358646Y10399501D01*
X16447788Y10423386D01*
X16527712Y10469530D01*
X18400786Y12342605D01*
X18446931Y12422529D01*
X18453561Y12447273D01*
X18470817Y12511673D01*
X18470817Y12889899D01*
X18492491Y12942225D01*
X18544817Y12963899D01*
X18597143Y12942225D01*
X18655345Y12884023D01*
X18827402Y12769059D01*
X19018580Y12689870D01*
X19221535Y12649500D01*
X19221536Y12649500D01*
X20678464Y12649500D01*
X20678465Y12649500D01*
X20881420Y12689870D01*
X21072598Y12769059D01*
X21244655Y12884023D01*
X21390977Y13030345D01*
X21505941Y13202402D01*
X21585130Y13393580D01*
X21625500Y13596535D01*
X21625500Y13803465D01*
X21585130Y14006420D01*
X21505941Y14197598D01*
X21390977Y14369655D01*
X21244655Y14515977D01*
X21183530Y14556819D01*
X21072598Y14630941D01*
X20881420Y14710130D01*
X20881413Y14710132D01*
X20728516Y14740545D01*
X20678465Y14750500D01*
X19221535Y14750500D01*
X19181385Y14742514D01*
X19018586Y14710132D01*
X19018579Y14710130D01*
X18827401Y14630941D01*
X18655345Y14515978D01*
X18655344Y14515976D01*
X18597143Y14457775D01*
X18544817Y14436101D01*
X18492491Y14457775D01*
X18470817Y14510101D01*
X18470817Y16444483D01*
X18492491Y16496809D01*
X18860399Y16864717D01*
X19280470Y17284788D01*
X19326614Y17364712D01*
X19336203Y17400500D01*
X19348176Y17445182D01*
X19350500Y17453855D01*
X19350500Y18705382D01*
X19372174Y18757708D01*
X19416590Y18778958D01*
X19434446Y18780877D01*
X19550509Y18824166D01*
X19568618Y18830920D01*
X19568618Y18830921D01*
X19568620Y18830921D01*
X19683260Y18916740D01*
X19769079Y19031380D01*
X19769216Y19031749D01*
X19770263Y19034552D01*
X19770263Y19034553D01*
X19807833Y19135285D01*
X19819123Y19165554D01*
X19825500Y19224868D01*
X19825500Y20775132D01*
X19819123Y20834446D01*
X19804452Y20873782D01*
X19769080Y20968619D01*
X19769079Y20968620D01*
X19759697Y20981153D01*
X19745690Y21036031D01*
X19774590Y21084740D01*
X19818937Y21099500D01*
X20330813Y21099500D01*
X20383139Y21077826D01*
G37*
%TD.AperFunction*%
%TA.AperFunction,Conductor*%
G36*
X15233389Y21077826D02*
G01*
X15255063Y21025500D01*
X15240303Y20981153D01*
X15230920Y20968620D01*
X15230919Y20968619D01*
X15180878Y20834451D01*
X15180877Y20834446D01*
X15174500Y20775133D01*
X15174500Y19224868D01*
X15180877Y19165555D01*
X15180878Y19165550D01*
X15230919Y19031382D01*
X15230920Y19031381D01*
X15230921Y19031380D01*
X15316740Y18916740D01*
X15352804Y18889743D01*
X15431380Y18830921D01*
X15431381Y18830920D01*
X15541764Y18789751D01*
X15565554Y18780877D01*
X15619109Y18775120D01*
X15624867Y18774500D01*
X15624868Y18774500D01*
X15850584Y18774500D01*
X15868421Y18767112D01*
X15887563Y18764598D01*
X15893660Y18756658D01*
X15902910Y18752826D01*
X15922056Y18719676D01*
X15922089Y18719553D01*
X15922096Y18719527D01*
X15923385Y18714714D01*
X15923386Y18714711D01*
X15969530Y18634788D01*
X16527826Y18076492D01*
X16549500Y18024166D01*
X16549500Y17475834D01*
X16532642Y17428815D01*
X16530361Y17426044D01*
X16469530Y17365212D01*
X16447246Y17326614D01*
X16444190Y17321322D01*
X16444190Y17321321D01*
X16423385Y17285286D01*
X16423384Y17285285D01*
X16399500Y17196147D01*
X16399500Y14102329D01*
X16377826Y14050003D01*
X16325500Y14028329D01*
X16273174Y14050003D01*
X16257133Y14074010D01*
X16205941Y14197598D01*
X16090977Y14369655D01*
X15944655Y14515977D01*
X15883530Y14556819D01*
X15772598Y14630941D01*
X15581420Y14710130D01*
X15581413Y14710132D01*
X15428516Y14740545D01*
X15378465Y14750500D01*
X15378464Y14750500D01*
X15074500Y14750500D01*
X15022174Y14772174D01*
X15000500Y14824500D01*
X15000500Y15396146D01*
X15000499Y15396147D01*
X14976615Y15485285D01*
X14976613Y15485290D01*
X14930471Y15565209D01*
X14930470Y15565210D01*
X14930469Y15565212D01*
X14865212Y15630469D01*
X13372174Y17123508D01*
X13350500Y17175834D01*
X13350500Y19046146D01*
X13350499Y19046147D01*
X13326615Y19135285D01*
X13326614Y19135286D01*
X13326614Y19135288D01*
X13302754Y19176614D01*
X13280470Y19215212D01*
X12215212Y20280470D01*
X12135289Y20326614D01*
X12135284Y20326616D01*
X12046146Y20350500D01*
X12046144Y20350500D01*
X11149500Y20350500D01*
X11097174Y20372174D01*
X11075500Y20424500D01*
X11075500Y20775133D01*
X11073597Y20792833D01*
X11069123Y20834446D01*
X11054452Y20873782D01*
X11019080Y20968619D01*
X11019079Y20968620D01*
X11009697Y20981153D01*
X10995690Y21036031D01*
X11024590Y21084740D01*
X11068937Y21099500D01*
X15181063Y21099500D01*
X15233389Y21077826D01*
G37*
%TD.AperFunction*%
%TD*%
D28*
X1000000Y21500000D02*
X39000000Y21500000D01*
X39000000Y0D02*
X1000000Y0D01*
X1000000Y0D02*
G75*
G02*
X0Y1000000I0J1000000D01*
G01*
X40000000Y20500000D02*
X40000000Y1000000D01*
X39000000Y21500000D02*
G75*
G02*
X40000000Y20500000I0J-1000000D01*
G01*
X0Y1000000D02*
X0Y20500000D01*
X0Y20500000D02*
G75*
G02*
X1000000Y21500000I1000000J0D01*
G01*
X40000000Y1000000D02*
G75*
G02*
X39000000Y0I-1000000J0D01*
G01*
M02*
